%TF.GenerationSoftware,KiCad,Pcbnew,7.0.10*%
%TF.CreationDate,2024-02-09T18:27:40-05:00*%
%TF.ProjectId,Rosco-MiniHat,526f7363-6f2d-44d6-996e-694861742e6b,rev?*%
%TF.SameCoordinates,Original*%
%TF.FileFunction,Drillmap*%
%TF.FilePolarity,Positive*%
%FSLAX45Y45*%
G04 Gerber Fmt 4.5, Leading zero omitted, Abs format (unit mm)*
G04 Created by KiCad (PCBNEW 7.0.10) date 2024-02-09 18:27:40*
%MOMM*%
%LPD*%
G01*
G04 APERTURE LIST*
%ADD10C,0.100000*%
%ADD11C,0.200000*%
G04 APERTURE END LIST*
D10*
X12850000Y-5050000D02*
X12850000Y-9250000D01*
X12850000Y-9250000D02*
X5600000Y-9250000D01*
X5600000Y-9250000D02*
X5550000Y-5000000D01*
X5550000Y-5000000D02*
X12850000Y-5050000D01*
D11*
D10*
X6500240Y-7751320D02*
X6530240Y-7781320D01*
X6530240Y-7751320D02*
X6500240Y-7781320D01*
X6535000Y-5935000D02*
X6565000Y-5965000D01*
X6565000Y-5935000D02*
X6535000Y-5965000D01*
X6535000Y-6385000D02*
X6565000Y-6415000D01*
X6565000Y-6385000D02*
X6535000Y-6415000D01*
X6535000Y-7935000D02*
X6565000Y-7965000D01*
X6565000Y-7935000D02*
X6535000Y-7965000D01*
X6535000Y-8385000D02*
X6565000Y-8415000D01*
X6565000Y-8385000D02*
X6535000Y-8415000D01*
X6606630Y-6780250D02*
X6636630Y-6810250D01*
X6636630Y-6780250D02*
X6606630Y-6810250D01*
X6698550Y-6655000D02*
X6728550Y-6685000D01*
X6728550Y-6655000D02*
X6698550Y-6685000D01*
X6739430Y-6898520D02*
X6769430Y-6928520D01*
X6769430Y-6898520D02*
X6739430Y-6928520D01*
X6743670Y-8655000D02*
X6773670Y-8685000D01*
X6773670Y-8655000D02*
X6743670Y-8685000D01*
X6743950Y-8870480D02*
X6773950Y-8900480D01*
X6773950Y-8870480D02*
X6743950Y-8900480D01*
X6744480Y-7381260D02*
X6774480Y-7411260D01*
X6774480Y-7381260D02*
X6744480Y-7411260D01*
X6760120Y-5455000D02*
X6790120Y-5485000D01*
X6790120Y-5455000D02*
X6760120Y-5485000D01*
X6761020Y-5295000D02*
X6791020Y-5325000D01*
X6791020Y-5295000D02*
X6761020Y-5325000D01*
X6805680Y-7062160D02*
X6835680Y-7092160D01*
X6835680Y-7062160D02*
X6805680Y-7092160D01*
X6932040Y-7078580D02*
X6962040Y-7108580D01*
X6962040Y-7078580D02*
X6932040Y-7108580D01*
X7008030Y-8766380D02*
X7038030Y-8796380D01*
X7038030Y-8766380D02*
X7008030Y-8796380D01*
X7009000Y-7467480D02*
X7039000Y-7497480D01*
X7039000Y-7467480D02*
X7009000Y-7497480D01*
X7009360Y-8664760D02*
X7039360Y-8694760D01*
X7039360Y-8664760D02*
X7009360Y-8694760D01*
X7027250Y-5535000D02*
X7057250Y-5565000D01*
X7057250Y-5535000D02*
X7027250Y-5565000D01*
X7070140Y-7203290D02*
X7100140Y-7233290D01*
X7100140Y-7203290D02*
X7070140Y-7233290D01*
X7070150Y-6872760D02*
X7100150Y-6902760D01*
X7100150Y-6872760D02*
X7070150Y-6902760D01*
X7077620Y-8026670D02*
X7107620Y-8056670D01*
X7107620Y-8026670D02*
X7077620Y-8056670D01*
X7098410Y-5851940D02*
X7128410Y-5881940D01*
X7128410Y-5851940D02*
X7098410Y-5881940D01*
X7105380Y-8201870D02*
X7135380Y-8231870D01*
X7135380Y-8201870D02*
X7105380Y-8231870D01*
X7105540Y-8297640D02*
X7135540Y-8327640D01*
X7135540Y-8297640D02*
X7105540Y-8327640D01*
X7115340Y-6735000D02*
X7145340Y-6765000D01*
X7145340Y-6735000D02*
X7115340Y-6765000D01*
X7160530Y-6467160D02*
X7190530Y-6497160D01*
X7190530Y-6467160D02*
X7160530Y-6497160D01*
X7173850Y-6572620D02*
X7203850Y-6602620D01*
X7203850Y-6572620D02*
X7173850Y-6602620D01*
X7176690Y-6188420D02*
X7206690Y-6218420D01*
X7206690Y-6188420D02*
X7176690Y-6218420D01*
X7191930Y-5737550D02*
X7221930Y-5767550D01*
X7221930Y-5737550D02*
X7191930Y-5767550D01*
X7282690Y-8215360D02*
X7312690Y-8245360D01*
X7312690Y-8215360D02*
X7282690Y-8245360D01*
X7301270Y-6063010D02*
X7331270Y-6093010D01*
X7331270Y-6063010D02*
X7301270Y-6093010D01*
X7696710Y-5711070D02*
X7726710Y-5741070D01*
X7726710Y-5711070D02*
X7696710Y-5741070D01*
X7699810Y-7284400D02*
X7729810Y-7314400D01*
X7729810Y-7284400D02*
X7699810Y-7314400D01*
X7766970Y-8109790D02*
X7796970Y-8139790D01*
X7796970Y-8109790D02*
X7766970Y-8139790D01*
X7826350Y-5839710D02*
X7856350Y-5869710D01*
X7856350Y-5839710D02*
X7826350Y-5869710D01*
X7875400Y-6722550D02*
X7905400Y-6752550D01*
X7905400Y-6722550D02*
X7875400Y-6752550D01*
X8126070Y-8738480D02*
X8156070Y-8768480D01*
X8156070Y-8738480D02*
X8126070Y-8768480D01*
X8143740Y-5880850D02*
X8173740Y-5910850D01*
X8173740Y-5880850D02*
X8143740Y-5910850D01*
X8150810Y-8317350D02*
X8180810Y-8347350D01*
X8180810Y-8317350D02*
X8150810Y-8347350D01*
X8180200Y-5340350D02*
X8210200Y-5370350D01*
X8210200Y-5340350D02*
X8180200Y-5370350D01*
X8253110Y-5482230D02*
X8283110Y-5512230D01*
X8283110Y-5482230D02*
X8253110Y-5512230D01*
X8267010Y-6484620D02*
X8297010Y-6514620D01*
X8297010Y-6484620D02*
X8267010Y-6514620D01*
X8335000Y-5885000D02*
X8365000Y-5915000D01*
X8365000Y-5885000D02*
X8335000Y-5915000D01*
X8335000Y-6335000D02*
X8365000Y-6365000D01*
X8365000Y-6335000D02*
X8335000Y-6365000D01*
X8335000Y-7885000D02*
X8365000Y-7915000D01*
X8365000Y-7885000D02*
X8335000Y-7915000D01*
X8335000Y-8335000D02*
X8365000Y-8365000D01*
X8365000Y-8335000D02*
X8335000Y-8365000D01*
X8365330Y-6805910D02*
X8395330Y-6835910D01*
X8395330Y-6805910D02*
X8365330Y-6835910D01*
X8387960Y-8552100D02*
X8417960Y-8582100D01*
X8417960Y-8552100D02*
X8387960Y-8582100D01*
X8431980Y-7181650D02*
X8461980Y-7211650D01*
X8461980Y-7181650D02*
X8431980Y-7211650D01*
X8496060Y-7691000D02*
X8526060Y-7721000D01*
X8526060Y-7691000D02*
X8496060Y-7721000D01*
X8502970Y-7090960D02*
X8532970Y-7120960D01*
X8532970Y-7090960D02*
X8502970Y-7120960D01*
X8536740Y-6895000D02*
X8566740Y-6925000D01*
X8566740Y-6895000D02*
X8536740Y-6925000D01*
X8570590Y-8364150D02*
X8600590Y-8394150D01*
X8600590Y-8364150D02*
X8570590Y-8394150D01*
X8587290Y-7881990D02*
X8617290Y-7911990D01*
X8617290Y-7881990D02*
X8587290Y-7911990D01*
X8587300Y-8755900D02*
X8617300Y-8785900D01*
X8617300Y-8755900D02*
X8587300Y-8785900D01*
X8626470Y-7142020D02*
X8656470Y-7172020D01*
X8656470Y-7142020D02*
X8626470Y-7172020D01*
X8889430Y-8550340D02*
X8919430Y-8580340D01*
X8919430Y-8550340D02*
X8889430Y-8580340D01*
X8945600Y-6503470D02*
X8975600Y-6533470D01*
X8975600Y-6503470D02*
X8945600Y-6533470D01*
X8952860Y-6122560D02*
X8982860Y-6152560D01*
X8982860Y-6122560D02*
X8952860Y-6152560D01*
X8952860Y-7761590D02*
X8982860Y-7791590D01*
X8982860Y-7761590D02*
X8952860Y-7791590D01*
X8958390Y-6218540D02*
X8988390Y-6248540D01*
X8988390Y-6218540D02*
X8958390Y-6248540D01*
X9034050Y-7250480D02*
X9064050Y-7280480D01*
X9064050Y-7250480D02*
X9034050Y-7280480D01*
X9049860Y-7012460D02*
X9079860Y-7042460D01*
X9079860Y-7012460D02*
X9049860Y-7042460D01*
X10137840Y-5858700D02*
X10167840Y-5888700D01*
X10167840Y-5858700D02*
X10137840Y-5888700D01*
X10579410Y-8315740D02*
X10609410Y-8345740D01*
X10609410Y-8315740D02*
X10579410Y-8345740D01*
X8806700Y-5238700D02*
G75*
G03*
X8726700Y-5238700I-40000J0D01*
G01*
X8726700Y-5238700D02*
G75*
G03*
X8806700Y-5238700I40000J0D01*
G01*
X8806700Y-5492700D02*
G75*
G03*
X8726700Y-5492700I-40000J0D01*
G01*
X8726700Y-5492700D02*
G75*
G03*
X8806700Y-5492700I40000J0D01*
G01*
X8806700Y-5746700D02*
G75*
G03*
X8726700Y-5746700I-40000J0D01*
G01*
X8726700Y-5746700D02*
G75*
G03*
X8806700Y-5746700I40000J0D01*
G01*
X8806700Y-6000700D02*
G75*
G03*
X8726700Y-6000700I-40000J0D01*
G01*
X8726700Y-6000700D02*
G75*
G03*
X8806700Y-6000700I40000J0D01*
G01*
X8806700Y-6254700D02*
G75*
G03*
X8726700Y-6254700I-40000J0D01*
G01*
X8726700Y-6254700D02*
G75*
G03*
X8806700Y-6254700I40000J0D01*
G01*
X8806700Y-6508700D02*
G75*
G03*
X8726700Y-6508700I-40000J0D01*
G01*
X8726700Y-6508700D02*
G75*
G03*
X8806700Y-6508700I40000J0D01*
G01*
X8806700Y-6762700D02*
G75*
G03*
X8726700Y-6762700I-40000J0D01*
G01*
X8726700Y-6762700D02*
G75*
G03*
X8806700Y-6762700I40000J0D01*
G01*
X8806700Y-7016700D02*
G75*
G03*
X8726700Y-7016700I-40000J0D01*
G01*
X8726700Y-7016700D02*
G75*
G03*
X8806700Y-7016700I40000J0D01*
G01*
X8806700Y-7270700D02*
G75*
G03*
X8726700Y-7270700I-40000J0D01*
G01*
X8726700Y-7270700D02*
G75*
G03*
X8806700Y-7270700I40000J0D01*
G01*
X8806700Y-7524700D02*
G75*
G03*
X8726700Y-7524700I-40000J0D01*
G01*
X8726700Y-7524700D02*
G75*
G03*
X8806700Y-7524700I40000J0D01*
G01*
X8806700Y-7778700D02*
G75*
G03*
X8726700Y-7778700I-40000J0D01*
G01*
X8726700Y-7778700D02*
G75*
G03*
X8806700Y-7778700I40000J0D01*
G01*
X8806700Y-8032700D02*
G75*
G03*
X8726700Y-8032700I-40000J0D01*
G01*
X8726700Y-8032700D02*
G75*
G03*
X8806700Y-8032700I40000J0D01*
G01*
X8806700Y-8286700D02*
G75*
G03*
X8726700Y-8286700I-40000J0D01*
G01*
X8726700Y-8286700D02*
G75*
G03*
X8806700Y-8286700I40000J0D01*
G01*
X8806700Y-8540700D02*
G75*
G03*
X8726700Y-8540700I-40000J0D01*
G01*
X8726700Y-8540700D02*
G75*
G03*
X8806700Y-8540700I40000J0D01*
G01*
X8806700Y-8794700D02*
G75*
G03*
X8726700Y-8794700I-40000J0D01*
G01*
X8726700Y-8794700D02*
G75*
G03*
X8806700Y-8794700I40000J0D01*
G01*
X8806700Y-9048700D02*
G75*
G03*
X8726700Y-9048700I-40000J0D01*
G01*
X8726700Y-9048700D02*
G75*
G03*
X8806700Y-9048700I40000J0D01*
G01*
X10330700Y-5238700D02*
G75*
G03*
X10250700Y-5238700I-40000J0D01*
G01*
X10250700Y-5238700D02*
G75*
G03*
X10330700Y-5238700I40000J0D01*
G01*
X10330700Y-5492700D02*
G75*
G03*
X10250700Y-5492700I-40000J0D01*
G01*
X10250700Y-5492700D02*
G75*
G03*
X10330700Y-5492700I40000J0D01*
G01*
X10330700Y-5746700D02*
G75*
G03*
X10250700Y-5746700I-40000J0D01*
G01*
X10250700Y-5746700D02*
G75*
G03*
X10330700Y-5746700I40000J0D01*
G01*
X10330700Y-6000700D02*
G75*
G03*
X10250700Y-6000700I-40000J0D01*
G01*
X10250700Y-6000700D02*
G75*
G03*
X10330700Y-6000700I40000J0D01*
G01*
X10330700Y-6254700D02*
G75*
G03*
X10250700Y-6254700I-40000J0D01*
G01*
X10250700Y-6254700D02*
G75*
G03*
X10330700Y-6254700I40000J0D01*
G01*
X10330700Y-6508700D02*
G75*
G03*
X10250700Y-6508700I-40000J0D01*
G01*
X10250700Y-6508700D02*
G75*
G03*
X10330700Y-6508700I40000J0D01*
G01*
X10330700Y-6762700D02*
G75*
G03*
X10250700Y-6762700I-40000J0D01*
G01*
X10250700Y-6762700D02*
G75*
G03*
X10330700Y-6762700I40000J0D01*
G01*
X10330700Y-7016700D02*
G75*
G03*
X10250700Y-7016700I-40000J0D01*
G01*
X10250700Y-7016700D02*
G75*
G03*
X10330700Y-7016700I40000J0D01*
G01*
X10330700Y-7270700D02*
G75*
G03*
X10250700Y-7270700I-40000J0D01*
G01*
X10250700Y-7270700D02*
G75*
G03*
X10330700Y-7270700I40000J0D01*
G01*
X10330700Y-7524700D02*
G75*
G03*
X10250700Y-7524700I-40000J0D01*
G01*
X10250700Y-7524700D02*
G75*
G03*
X10330700Y-7524700I40000J0D01*
G01*
X10330700Y-7778700D02*
G75*
G03*
X10250700Y-7778700I-40000J0D01*
G01*
X10250700Y-7778700D02*
G75*
G03*
X10330700Y-7778700I40000J0D01*
G01*
X10330700Y-8032700D02*
G75*
G03*
X10250700Y-8032700I-40000J0D01*
G01*
X10250700Y-8032700D02*
G75*
G03*
X10330700Y-8032700I40000J0D01*
G01*
X10330700Y-8286700D02*
G75*
G03*
X10250700Y-8286700I-40000J0D01*
G01*
X10250700Y-8286700D02*
G75*
G03*
X10330700Y-8286700I40000J0D01*
G01*
X10330700Y-8540700D02*
G75*
G03*
X10250700Y-8540700I-40000J0D01*
G01*
X10250700Y-8540700D02*
G75*
G03*
X10330700Y-8540700I40000J0D01*
G01*
X10330700Y-8794700D02*
G75*
G03*
X10250700Y-8794700I-40000J0D01*
G01*
X10250700Y-8794700D02*
G75*
G03*
X10330700Y-8794700I40000J0D01*
G01*
X10330700Y-9048700D02*
G75*
G03*
X10250700Y-9048700I-40000J0D01*
G01*
X10250700Y-9048700D02*
G75*
G03*
X10330700Y-9048700I40000J0D01*
G01*
X11226700Y-5238700D02*
G75*
G03*
X11146700Y-5238700I-40000J0D01*
G01*
X11146700Y-5238700D02*
G75*
G03*
X11226700Y-5238700I40000J0D01*
G01*
X11226700Y-5492700D02*
G75*
G03*
X11146700Y-5492700I-40000J0D01*
G01*
X11146700Y-5492700D02*
G75*
G03*
X11226700Y-5492700I40000J0D01*
G01*
X11226700Y-5746700D02*
G75*
G03*
X11146700Y-5746700I-40000J0D01*
G01*
X11146700Y-5746700D02*
G75*
G03*
X11226700Y-5746700I40000J0D01*
G01*
X11226700Y-6000700D02*
G75*
G03*
X11146700Y-6000700I-40000J0D01*
G01*
X11146700Y-6000700D02*
G75*
G03*
X11226700Y-6000700I40000J0D01*
G01*
X11226700Y-6254700D02*
G75*
G03*
X11146700Y-6254700I-40000J0D01*
G01*
X11146700Y-6254700D02*
G75*
G03*
X11226700Y-6254700I40000J0D01*
G01*
X11226700Y-6508700D02*
G75*
G03*
X11146700Y-6508700I-40000J0D01*
G01*
X11146700Y-6508700D02*
G75*
G03*
X11226700Y-6508700I40000J0D01*
G01*
X11226700Y-6762700D02*
G75*
G03*
X11146700Y-6762700I-40000J0D01*
G01*
X11146700Y-6762700D02*
G75*
G03*
X11226700Y-6762700I40000J0D01*
G01*
X11226700Y-7016700D02*
G75*
G03*
X11146700Y-7016700I-40000J0D01*
G01*
X11146700Y-7016700D02*
G75*
G03*
X11226700Y-7016700I40000J0D01*
G01*
X11226700Y-7270700D02*
G75*
G03*
X11146700Y-7270700I-40000J0D01*
G01*
X11146700Y-7270700D02*
G75*
G03*
X11226700Y-7270700I40000J0D01*
G01*
X11226700Y-7524700D02*
G75*
G03*
X11146700Y-7524700I-40000J0D01*
G01*
X11146700Y-7524700D02*
G75*
G03*
X11226700Y-7524700I40000J0D01*
G01*
X11226700Y-7778700D02*
G75*
G03*
X11146700Y-7778700I-40000J0D01*
G01*
X11146700Y-7778700D02*
G75*
G03*
X11226700Y-7778700I40000J0D01*
G01*
X11226700Y-8032700D02*
G75*
G03*
X11146700Y-8032700I-40000J0D01*
G01*
X11146700Y-8032700D02*
G75*
G03*
X11226700Y-8032700I40000J0D01*
G01*
X11226700Y-8286700D02*
G75*
G03*
X11146700Y-8286700I-40000J0D01*
G01*
X11146700Y-8286700D02*
G75*
G03*
X11226700Y-8286700I40000J0D01*
G01*
X11226700Y-8540700D02*
G75*
G03*
X11146700Y-8540700I-40000J0D01*
G01*
X11146700Y-8540700D02*
G75*
G03*
X11226700Y-8540700I40000J0D01*
G01*
X11226700Y-8794700D02*
G75*
G03*
X11146700Y-8794700I-40000J0D01*
G01*
X11146700Y-8794700D02*
G75*
G03*
X11226700Y-8794700I40000J0D01*
G01*
X11226700Y-9048700D02*
G75*
G03*
X11146700Y-9048700I-40000J0D01*
G01*
X11146700Y-9048700D02*
G75*
G03*
X11226700Y-9048700I40000J0D01*
G01*
X12750700Y-5238700D02*
G75*
G03*
X12670700Y-5238700I-40000J0D01*
G01*
X12670700Y-5238700D02*
G75*
G03*
X12750700Y-5238700I40000J0D01*
G01*
X12750700Y-5492700D02*
G75*
G03*
X12670700Y-5492700I-40000J0D01*
G01*
X12670700Y-5492700D02*
G75*
G03*
X12750700Y-5492700I40000J0D01*
G01*
X12750700Y-5746700D02*
G75*
G03*
X12670700Y-5746700I-40000J0D01*
G01*
X12670700Y-5746700D02*
G75*
G03*
X12750700Y-5746700I40000J0D01*
G01*
X12750700Y-6000700D02*
G75*
G03*
X12670700Y-6000700I-40000J0D01*
G01*
X12670700Y-6000700D02*
G75*
G03*
X12750700Y-6000700I40000J0D01*
G01*
X12750700Y-6254700D02*
G75*
G03*
X12670700Y-6254700I-40000J0D01*
G01*
X12670700Y-6254700D02*
G75*
G03*
X12750700Y-6254700I40000J0D01*
G01*
X12750700Y-6508700D02*
G75*
G03*
X12670700Y-6508700I-40000J0D01*
G01*
X12670700Y-6508700D02*
G75*
G03*
X12750700Y-6508700I40000J0D01*
G01*
X12750700Y-6762700D02*
G75*
G03*
X12670700Y-6762700I-40000J0D01*
G01*
X12670700Y-6762700D02*
G75*
G03*
X12750700Y-6762700I40000J0D01*
G01*
X12750700Y-7016700D02*
G75*
G03*
X12670700Y-7016700I-40000J0D01*
G01*
X12670700Y-7016700D02*
G75*
G03*
X12750700Y-7016700I40000J0D01*
G01*
X12750700Y-7270700D02*
G75*
G03*
X12670700Y-7270700I-40000J0D01*
G01*
X12670700Y-7270700D02*
G75*
G03*
X12750700Y-7270700I40000J0D01*
G01*
X12750700Y-7524700D02*
G75*
G03*
X12670700Y-7524700I-40000J0D01*
G01*
X12670700Y-7524700D02*
G75*
G03*
X12750700Y-7524700I40000J0D01*
G01*
X12750700Y-7778700D02*
G75*
G03*
X12670700Y-7778700I-40000J0D01*
G01*
X12670700Y-7778700D02*
G75*
G03*
X12750700Y-7778700I40000J0D01*
G01*
X12750700Y-8032700D02*
G75*
G03*
X12670700Y-8032700I-40000J0D01*
G01*
X12670700Y-8032700D02*
G75*
G03*
X12750700Y-8032700I40000J0D01*
G01*
X12750700Y-8286700D02*
G75*
G03*
X12670700Y-8286700I-40000J0D01*
G01*
X12670700Y-8286700D02*
G75*
G03*
X12750700Y-8286700I40000J0D01*
G01*
X12750700Y-8540700D02*
G75*
G03*
X12670700Y-8540700I-40000J0D01*
G01*
X12670700Y-8540700D02*
G75*
G03*
X12750700Y-8540700I40000J0D01*
G01*
X12750700Y-8794700D02*
G75*
G03*
X12670700Y-8794700I-40000J0D01*
G01*
X12670700Y-8794700D02*
G75*
G03*
X12750700Y-8794700I40000J0D01*
G01*
X12750700Y-9048700D02*
G75*
G03*
X12670700Y-9048700I-40000J0D01*
G01*
X12670700Y-9048700D02*
G75*
G03*
X12750700Y-9048700I40000J0D01*
G01*
X5828800Y-5182000D02*
X5828800Y-5282000D01*
X5778800Y-5232000D02*
X5878800Y-5232000D01*
X5828800Y-5436000D02*
X5828800Y-5536000D01*
X5778800Y-5486000D02*
X5878800Y-5486000D01*
X5828800Y-5690000D02*
X5828800Y-5790000D01*
X5778800Y-5740000D02*
X5878800Y-5740000D01*
X5828800Y-5944000D02*
X5828800Y-6044000D01*
X5778800Y-5994000D02*
X5878800Y-5994000D01*
X5828800Y-6198000D02*
X5828800Y-6298000D01*
X5778800Y-6248000D02*
X5878800Y-6248000D01*
D11*
X5805777Y-9566484D02*
X5805777Y-9366484D01*
X5805777Y-9366484D02*
X5853396Y-9366484D01*
X5853396Y-9366484D02*
X5881967Y-9376008D01*
X5881967Y-9376008D02*
X5901015Y-9395055D01*
X5901015Y-9395055D02*
X5910539Y-9414103D01*
X5910539Y-9414103D02*
X5920062Y-9452198D01*
X5920062Y-9452198D02*
X5920062Y-9480770D01*
X5920062Y-9480770D02*
X5910539Y-9518865D01*
X5910539Y-9518865D02*
X5901015Y-9537912D01*
X5901015Y-9537912D02*
X5881967Y-9556960D01*
X5881967Y-9556960D02*
X5853396Y-9566484D01*
X5853396Y-9566484D02*
X5805777Y-9566484D01*
X6005777Y-9566484D02*
X6005777Y-9433150D01*
X6005777Y-9471246D02*
X6015301Y-9452198D01*
X6015301Y-9452198D02*
X6024824Y-9442674D01*
X6024824Y-9442674D02*
X6043872Y-9433150D01*
X6043872Y-9433150D02*
X6062920Y-9433150D01*
X6129586Y-9566484D02*
X6129586Y-9433150D01*
X6129586Y-9366484D02*
X6120062Y-9376008D01*
X6120062Y-9376008D02*
X6129586Y-9385531D01*
X6129586Y-9385531D02*
X6139110Y-9376008D01*
X6139110Y-9376008D02*
X6129586Y-9366484D01*
X6129586Y-9366484D02*
X6129586Y-9385531D01*
X6253396Y-9566484D02*
X6234348Y-9556960D01*
X6234348Y-9556960D02*
X6224824Y-9537912D01*
X6224824Y-9537912D02*
X6224824Y-9366484D01*
X6358158Y-9566484D02*
X6339110Y-9556960D01*
X6339110Y-9556960D02*
X6329586Y-9537912D01*
X6329586Y-9537912D02*
X6329586Y-9366484D01*
X6586729Y-9566484D02*
X6586729Y-9366484D01*
X6586729Y-9366484D02*
X6653396Y-9509341D01*
X6653396Y-9509341D02*
X6720062Y-9366484D01*
X6720062Y-9366484D02*
X6720062Y-9566484D01*
X6901015Y-9566484D02*
X6901015Y-9461722D01*
X6901015Y-9461722D02*
X6891491Y-9442674D01*
X6891491Y-9442674D02*
X6872443Y-9433150D01*
X6872443Y-9433150D02*
X6834348Y-9433150D01*
X6834348Y-9433150D02*
X6815301Y-9442674D01*
X6901015Y-9556960D02*
X6881967Y-9566484D01*
X6881967Y-9566484D02*
X6834348Y-9566484D01*
X6834348Y-9566484D02*
X6815301Y-9556960D01*
X6815301Y-9556960D02*
X6805777Y-9537912D01*
X6805777Y-9537912D02*
X6805777Y-9518865D01*
X6805777Y-9518865D02*
X6815301Y-9499817D01*
X6815301Y-9499817D02*
X6834348Y-9490293D01*
X6834348Y-9490293D02*
X6881967Y-9490293D01*
X6881967Y-9490293D02*
X6901015Y-9480770D01*
X6996253Y-9433150D02*
X6996253Y-9633150D01*
X6996253Y-9442674D02*
X7015301Y-9433150D01*
X7015301Y-9433150D02*
X7053396Y-9433150D01*
X7053396Y-9433150D02*
X7072443Y-9442674D01*
X7072443Y-9442674D02*
X7081967Y-9452198D01*
X7081967Y-9452198D02*
X7091491Y-9471246D01*
X7091491Y-9471246D02*
X7091491Y-9528389D01*
X7091491Y-9528389D02*
X7081967Y-9547436D01*
X7081967Y-9547436D02*
X7072443Y-9556960D01*
X7072443Y-9556960D02*
X7053396Y-9566484D01*
X7053396Y-9566484D02*
X7015301Y-9566484D01*
X7015301Y-9566484D02*
X6996253Y-9556960D01*
X7177205Y-9547436D02*
X7186729Y-9556960D01*
X7186729Y-9556960D02*
X7177205Y-9566484D01*
X7177205Y-9566484D02*
X7167682Y-9556960D01*
X7167682Y-9556960D02*
X7177205Y-9547436D01*
X7177205Y-9547436D02*
X7177205Y-9566484D01*
X7177205Y-9442674D02*
X7186729Y-9452198D01*
X7186729Y-9452198D02*
X7177205Y-9461722D01*
X7177205Y-9461722D02*
X7167682Y-9452198D01*
X7167682Y-9452198D02*
X7177205Y-9442674D01*
X7177205Y-9442674D02*
X7177205Y-9461722D01*
D10*
X5515000Y-9880000D02*
X5545000Y-9910000D01*
X5545000Y-9880000D02*
X5515000Y-9910000D01*
D11*
X5843872Y-9786484D02*
X5862920Y-9786484D01*
X5862920Y-9786484D02*
X5881967Y-9796008D01*
X5881967Y-9796008D02*
X5891491Y-9805531D01*
X5891491Y-9805531D02*
X5901015Y-9824579D01*
X5901015Y-9824579D02*
X5910539Y-9862674D01*
X5910539Y-9862674D02*
X5910539Y-9910293D01*
X5910539Y-9910293D02*
X5901015Y-9948389D01*
X5901015Y-9948389D02*
X5891491Y-9967436D01*
X5891491Y-9967436D02*
X5881967Y-9976960D01*
X5881967Y-9976960D02*
X5862920Y-9986484D01*
X5862920Y-9986484D02*
X5843872Y-9986484D01*
X5843872Y-9986484D02*
X5824824Y-9976960D01*
X5824824Y-9976960D02*
X5815301Y-9967436D01*
X5815301Y-9967436D02*
X5805777Y-9948389D01*
X5805777Y-9948389D02*
X5796253Y-9910293D01*
X5796253Y-9910293D02*
X5796253Y-9862674D01*
X5796253Y-9862674D02*
X5805777Y-9824579D01*
X5805777Y-9824579D02*
X5815301Y-9805531D01*
X5815301Y-9805531D02*
X5824824Y-9796008D01*
X5824824Y-9796008D02*
X5843872Y-9786484D01*
X5996253Y-9967436D02*
X6005777Y-9976960D01*
X6005777Y-9976960D02*
X5996253Y-9986484D01*
X5996253Y-9986484D02*
X5986729Y-9976960D01*
X5986729Y-9976960D02*
X5996253Y-9967436D01*
X5996253Y-9967436D02*
X5996253Y-9986484D01*
X6072443Y-9786484D02*
X6196253Y-9786484D01*
X6196253Y-9786484D02*
X6129586Y-9862674D01*
X6129586Y-9862674D02*
X6158158Y-9862674D01*
X6158158Y-9862674D02*
X6177205Y-9872198D01*
X6177205Y-9872198D02*
X6186729Y-9881722D01*
X6186729Y-9881722D02*
X6196253Y-9900770D01*
X6196253Y-9900770D02*
X6196253Y-9948389D01*
X6196253Y-9948389D02*
X6186729Y-9967436D01*
X6186729Y-9967436D02*
X6177205Y-9976960D01*
X6177205Y-9976960D02*
X6158158Y-9986484D01*
X6158158Y-9986484D02*
X6101015Y-9986484D01*
X6101015Y-9986484D02*
X6081967Y-9976960D01*
X6081967Y-9976960D02*
X6072443Y-9967436D01*
X6320062Y-9786484D02*
X6339110Y-9786484D01*
X6339110Y-9786484D02*
X6358158Y-9796008D01*
X6358158Y-9796008D02*
X6367682Y-9805531D01*
X6367682Y-9805531D02*
X6377205Y-9824579D01*
X6377205Y-9824579D02*
X6386729Y-9862674D01*
X6386729Y-9862674D02*
X6386729Y-9910293D01*
X6386729Y-9910293D02*
X6377205Y-9948389D01*
X6377205Y-9948389D02*
X6367682Y-9967436D01*
X6367682Y-9967436D02*
X6358158Y-9976960D01*
X6358158Y-9976960D02*
X6339110Y-9986484D01*
X6339110Y-9986484D02*
X6320062Y-9986484D01*
X6320062Y-9986484D02*
X6301015Y-9976960D01*
X6301015Y-9976960D02*
X6291491Y-9967436D01*
X6291491Y-9967436D02*
X6281967Y-9948389D01*
X6281967Y-9948389D02*
X6272443Y-9910293D01*
X6272443Y-9910293D02*
X6272443Y-9862674D01*
X6272443Y-9862674D02*
X6281967Y-9824579D01*
X6281967Y-9824579D02*
X6291491Y-9805531D01*
X6291491Y-9805531D02*
X6301015Y-9796008D01*
X6301015Y-9796008D02*
X6320062Y-9786484D01*
X6510539Y-9786484D02*
X6529586Y-9786484D01*
X6529586Y-9786484D02*
X6548634Y-9796008D01*
X6548634Y-9796008D02*
X6558158Y-9805531D01*
X6558158Y-9805531D02*
X6567682Y-9824579D01*
X6567682Y-9824579D02*
X6577205Y-9862674D01*
X6577205Y-9862674D02*
X6577205Y-9910293D01*
X6577205Y-9910293D02*
X6567682Y-9948389D01*
X6567682Y-9948389D02*
X6558158Y-9967436D01*
X6558158Y-9967436D02*
X6548634Y-9976960D01*
X6548634Y-9976960D02*
X6529586Y-9986484D01*
X6529586Y-9986484D02*
X6510539Y-9986484D01*
X6510539Y-9986484D02*
X6491491Y-9976960D01*
X6491491Y-9976960D02*
X6481967Y-9967436D01*
X6481967Y-9967436D02*
X6472443Y-9948389D01*
X6472443Y-9948389D02*
X6462920Y-9910293D01*
X6462920Y-9910293D02*
X6462920Y-9862674D01*
X6462920Y-9862674D02*
X6472443Y-9824579D01*
X6472443Y-9824579D02*
X6481967Y-9805531D01*
X6481967Y-9805531D02*
X6491491Y-9796008D01*
X6491491Y-9796008D02*
X6510539Y-9786484D01*
X6662920Y-9986484D02*
X6662920Y-9853150D01*
X6662920Y-9872198D02*
X6672443Y-9862674D01*
X6672443Y-9862674D02*
X6691491Y-9853150D01*
X6691491Y-9853150D02*
X6720063Y-9853150D01*
X6720063Y-9853150D02*
X6739110Y-9862674D01*
X6739110Y-9862674D02*
X6748634Y-9881722D01*
X6748634Y-9881722D02*
X6748634Y-9986484D01*
X6748634Y-9881722D02*
X6758158Y-9862674D01*
X6758158Y-9862674D02*
X6777205Y-9853150D01*
X6777205Y-9853150D02*
X6805777Y-9853150D01*
X6805777Y-9853150D02*
X6824824Y-9862674D01*
X6824824Y-9862674D02*
X6834348Y-9881722D01*
X6834348Y-9881722D02*
X6834348Y-9986484D01*
X6929586Y-9986484D02*
X6929586Y-9853150D01*
X6929586Y-9872198D02*
X6939110Y-9862674D01*
X6939110Y-9862674D02*
X6958158Y-9853150D01*
X6958158Y-9853150D02*
X6986729Y-9853150D01*
X6986729Y-9853150D02*
X7005777Y-9862674D01*
X7005777Y-9862674D02*
X7015301Y-9881722D01*
X7015301Y-9881722D02*
X7015301Y-9986484D01*
X7015301Y-9881722D02*
X7024824Y-9862674D01*
X7024824Y-9862674D02*
X7043872Y-9853150D01*
X7043872Y-9853150D02*
X7072443Y-9853150D01*
X7072443Y-9853150D02*
X7091491Y-9862674D01*
X7091491Y-9862674D02*
X7101015Y-9881722D01*
X7101015Y-9881722D02*
X7101015Y-9986484D01*
X7491491Y-9776960D02*
X7320063Y-10034103D01*
X7748634Y-9786484D02*
X7767682Y-9786484D01*
X7767682Y-9786484D02*
X7786729Y-9796008D01*
X7786729Y-9796008D02*
X7796253Y-9805531D01*
X7796253Y-9805531D02*
X7805777Y-9824579D01*
X7805777Y-9824579D02*
X7815301Y-9862674D01*
X7815301Y-9862674D02*
X7815301Y-9910293D01*
X7815301Y-9910293D02*
X7805777Y-9948389D01*
X7805777Y-9948389D02*
X7796253Y-9967436D01*
X7796253Y-9967436D02*
X7786729Y-9976960D01*
X7786729Y-9976960D02*
X7767682Y-9986484D01*
X7767682Y-9986484D02*
X7748634Y-9986484D01*
X7748634Y-9986484D02*
X7729586Y-9976960D01*
X7729586Y-9976960D02*
X7720063Y-9967436D01*
X7720063Y-9967436D02*
X7710539Y-9948389D01*
X7710539Y-9948389D02*
X7701015Y-9910293D01*
X7701015Y-9910293D02*
X7701015Y-9862674D01*
X7701015Y-9862674D02*
X7710539Y-9824579D01*
X7710539Y-9824579D02*
X7720063Y-9805531D01*
X7720063Y-9805531D02*
X7729586Y-9796008D01*
X7729586Y-9796008D02*
X7748634Y-9786484D01*
X7901015Y-9967436D02*
X7910539Y-9976960D01*
X7910539Y-9976960D02*
X7901015Y-9986484D01*
X7901015Y-9986484D02*
X7891491Y-9976960D01*
X7891491Y-9976960D02*
X7901015Y-9967436D01*
X7901015Y-9967436D02*
X7901015Y-9986484D01*
X8034348Y-9786484D02*
X8053396Y-9786484D01*
X8053396Y-9786484D02*
X8072444Y-9796008D01*
X8072444Y-9796008D02*
X8081967Y-9805531D01*
X8081967Y-9805531D02*
X8091491Y-9824579D01*
X8091491Y-9824579D02*
X8101015Y-9862674D01*
X8101015Y-9862674D02*
X8101015Y-9910293D01*
X8101015Y-9910293D02*
X8091491Y-9948389D01*
X8091491Y-9948389D02*
X8081967Y-9967436D01*
X8081967Y-9967436D02*
X8072444Y-9976960D01*
X8072444Y-9976960D02*
X8053396Y-9986484D01*
X8053396Y-9986484D02*
X8034348Y-9986484D01*
X8034348Y-9986484D02*
X8015301Y-9976960D01*
X8015301Y-9976960D02*
X8005777Y-9967436D01*
X8005777Y-9967436D02*
X7996253Y-9948389D01*
X7996253Y-9948389D02*
X7986729Y-9910293D01*
X7986729Y-9910293D02*
X7986729Y-9862674D01*
X7986729Y-9862674D02*
X7996253Y-9824579D01*
X7996253Y-9824579D02*
X8005777Y-9805531D01*
X8005777Y-9805531D02*
X8015301Y-9796008D01*
X8015301Y-9796008D02*
X8034348Y-9786484D01*
X8291491Y-9986484D02*
X8177206Y-9986484D01*
X8234348Y-9986484D02*
X8234348Y-9786484D01*
X8234348Y-9786484D02*
X8215301Y-9815055D01*
X8215301Y-9815055D02*
X8196253Y-9834103D01*
X8196253Y-9834103D02*
X8177206Y-9843627D01*
X8481968Y-9986484D02*
X8367682Y-9986484D01*
X8424825Y-9986484D02*
X8424825Y-9786484D01*
X8424825Y-9786484D02*
X8405777Y-9815055D01*
X8405777Y-9815055D02*
X8386729Y-9834103D01*
X8386729Y-9834103D02*
X8367682Y-9843627D01*
X8596253Y-9872198D02*
X8577206Y-9862674D01*
X8577206Y-9862674D02*
X8567682Y-9853150D01*
X8567682Y-9853150D02*
X8558158Y-9834103D01*
X8558158Y-9834103D02*
X8558158Y-9824579D01*
X8558158Y-9824579D02*
X8567682Y-9805531D01*
X8567682Y-9805531D02*
X8577206Y-9796008D01*
X8577206Y-9796008D02*
X8596253Y-9786484D01*
X8596253Y-9786484D02*
X8634349Y-9786484D01*
X8634349Y-9786484D02*
X8653396Y-9796008D01*
X8653396Y-9796008D02*
X8662920Y-9805531D01*
X8662920Y-9805531D02*
X8672444Y-9824579D01*
X8672444Y-9824579D02*
X8672444Y-9834103D01*
X8672444Y-9834103D02*
X8662920Y-9853150D01*
X8662920Y-9853150D02*
X8653396Y-9862674D01*
X8653396Y-9862674D02*
X8634349Y-9872198D01*
X8634349Y-9872198D02*
X8596253Y-9872198D01*
X8596253Y-9872198D02*
X8577206Y-9881722D01*
X8577206Y-9881722D02*
X8567682Y-9891246D01*
X8567682Y-9891246D02*
X8558158Y-9910293D01*
X8558158Y-9910293D02*
X8558158Y-9948389D01*
X8558158Y-9948389D02*
X8567682Y-9967436D01*
X8567682Y-9967436D02*
X8577206Y-9976960D01*
X8577206Y-9976960D02*
X8596253Y-9986484D01*
X8596253Y-9986484D02*
X8634349Y-9986484D01*
X8634349Y-9986484D02*
X8653396Y-9976960D01*
X8653396Y-9976960D02*
X8662920Y-9967436D01*
X8662920Y-9967436D02*
X8672444Y-9948389D01*
X8672444Y-9948389D02*
X8672444Y-9910293D01*
X8672444Y-9910293D02*
X8662920Y-9891246D01*
X8662920Y-9891246D02*
X8653396Y-9881722D01*
X8653396Y-9881722D02*
X8634349Y-9872198D01*
X8748634Y-9786484D02*
X8748634Y-9824579D01*
X8824825Y-9786484D02*
X8824825Y-9824579D01*
X9120063Y-10062674D02*
X9110539Y-10053150D01*
X9110539Y-10053150D02*
X9091491Y-10024579D01*
X9091491Y-10024579D02*
X9081968Y-10005531D01*
X9081968Y-10005531D02*
X9072444Y-9976960D01*
X9072444Y-9976960D02*
X9062920Y-9929341D01*
X9062920Y-9929341D02*
X9062920Y-9891246D01*
X9062920Y-9891246D02*
X9072444Y-9843627D01*
X9072444Y-9843627D02*
X9081968Y-9815055D01*
X9081968Y-9815055D02*
X9091491Y-9796008D01*
X9091491Y-9796008D02*
X9110539Y-9767436D01*
X9110539Y-9767436D02*
X9120063Y-9757912D01*
X9281968Y-9786484D02*
X9243872Y-9786484D01*
X9243872Y-9786484D02*
X9224825Y-9796008D01*
X9224825Y-9796008D02*
X9215301Y-9805531D01*
X9215301Y-9805531D02*
X9196253Y-9834103D01*
X9196253Y-9834103D02*
X9186730Y-9872198D01*
X9186730Y-9872198D02*
X9186730Y-9948389D01*
X9186730Y-9948389D02*
X9196253Y-9967436D01*
X9196253Y-9967436D02*
X9205777Y-9976960D01*
X9205777Y-9976960D02*
X9224825Y-9986484D01*
X9224825Y-9986484D02*
X9262920Y-9986484D01*
X9262920Y-9986484D02*
X9281968Y-9976960D01*
X9281968Y-9976960D02*
X9291491Y-9967436D01*
X9291491Y-9967436D02*
X9301015Y-9948389D01*
X9301015Y-9948389D02*
X9301015Y-9900770D01*
X9301015Y-9900770D02*
X9291491Y-9881722D01*
X9291491Y-9881722D02*
X9281968Y-9872198D01*
X9281968Y-9872198D02*
X9262920Y-9862674D01*
X9262920Y-9862674D02*
X9224825Y-9862674D01*
X9224825Y-9862674D02*
X9205777Y-9872198D01*
X9205777Y-9872198D02*
X9196253Y-9881722D01*
X9196253Y-9881722D02*
X9186730Y-9900770D01*
X9472444Y-9786484D02*
X9434349Y-9786484D01*
X9434349Y-9786484D02*
X9415301Y-9796008D01*
X9415301Y-9796008D02*
X9405777Y-9805531D01*
X9405777Y-9805531D02*
X9386730Y-9834103D01*
X9386730Y-9834103D02*
X9377206Y-9872198D01*
X9377206Y-9872198D02*
X9377206Y-9948389D01*
X9377206Y-9948389D02*
X9386730Y-9967436D01*
X9386730Y-9967436D02*
X9396253Y-9976960D01*
X9396253Y-9976960D02*
X9415301Y-9986484D01*
X9415301Y-9986484D02*
X9453396Y-9986484D01*
X9453396Y-9986484D02*
X9472444Y-9976960D01*
X9472444Y-9976960D02*
X9481968Y-9967436D01*
X9481968Y-9967436D02*
X9491491Y-9948389D01*
X9491491Y-9948389D02*
X9491491Y-9900770D01*
X9491491Y-9900770D02*
X9481968Y-9881722D01*
X9481968Y-9881722D02*
X9472444Y-9872198D01*
X9472444Y-9872198D02*
X9453396Y-9862674D01*
X9453396Y-9862674D02*
X9415301Y-9862674D01*
X9415301Y-9862674D02*
X9396253Y-9872198D01*
X9396253Y-9872198D02*
X9386730Y-9881722D01*
X9386730Y-9881722D02*
X9377206Y-9900770D01*
X9729587Y-9986484D02*
X9729587Y-9786484D01*
X9815301Y-9986484D02*
X9815301Y-9881722D01*
X9815301Y-9881722D02*
X9805777Y-9862674D01*
X9805777Y-9862674D02*
X9786730Y-9853150D01*
X9786730Y-9853150D02*
X9758158Y-9853150D01*
X9758158Y-9853150D02*
X9739111Y-9862674D01*
X9739111Y-9862674D02*
X9729587Y-9872198D01*
X9939111Y-9986484D02*
X9920063Y-9976960D01*
X9920063Y-9976960D02*
X9910539Y-9967436D01*
X9910539Y-9967436D02*
X9901015Y-9948389D01*
X9901015Y-9948389D02*
X9901015Y-9891246D01*
X9901015Y-9891246D02*
X9910539Y-9872198D01*
X9910539Y-9872198D02*
X9920063Y-9862674D01*
X9920063Y-9862674D02*
X9939111Y-9853150D01*
X9939111Y-9853150D02*
X9967682Y-9853150D01*
X9967682Y-9853150D02*
X9986730Y-9862674D01*
X9986730Y-9862674D02*
X9996253Y-9872198D01*
X9996253Y-9872198D02*
X10005777Y-9891246D01*
X10005777Y-9891246D02*
X10005777Y-9948389D01*
X10005777Y-9948389D02*
X9996253Y-9967436D01*
X9996253Y-9967436D02*
X9986730Y-9976960D01*
X9986730Y-9976960D02*
X9967682Y-9986484D01*
X9967682Y-9986484D02*
X9939111Y-9986484D01*
X10120063Y-9986484D02*
X10101015Y-9976960D01*
X10101015Y-9976960D02*
X10091492Y-9957912D01*
X10091492Y-9957912D02*
X10091492Y-9786484D01*
X10272444Y-9976960D02*
X10253396Y-9986484D01*
X10253396Y-9986484D02*
X10215301Y-9986484D01*
X10215301Y-9986484D02*
X10196253Y-9976960D01*
X10196253Y-9976960D02*
X10186730Y-9957912D01*
X10186730Y-9957912D02*
X10186730Y-9881722D01*
X10186730Y-9881722D02*
X10196253Y-9862674D01*
X10196253Y-9862674D02*
X10215301Y-9853150D01*
X10215301Y-9853150D02*
X10253396Y-9853150D01*
X10253396Y-9853150D02*
X10272444Y-9862674D01*
X10272444Y-9862674D02*
X10281968Y-9881722D01*
X10281968Y-9881722D02*
X10281968Y-9900770D01*
X10281968Y-9900770D02*
X10186730Y-9919817D01*
X10358158Y-9976960D02*
X10377206Y-9986484D01*
X10377206Y-9986484D02*
X10415301Y-9986484D01*
X10415301Y-9986484D02*
X10434349Y-9976960D01*
X10434349Y-9976960D02*
X10443873Y-9957912D01*
X10443873Y-9957912D02*
X10443873Y-9948389D01*
X10443873Y-9948389D02*
X10434349Y-9929341D01*
X10434349Y-9929341D02*
X10415301Y-9919817D01*
X10415301Y-9919817D02*
X10386730Y-9919817D01*
X10386730Y-9919817D02*
X10367682Y-9910293D01*
X10367682Y-9910293D02*
X10358158Y-9891246D01*
X10358158Y-9891246D02*
X10358158Y-9881722D01*
X10358158Y-9881722D02*
X10367682Y-9862674D01*
X10367682Y-9862674D02*
X10386730Y-9853150D01*
X10386730Y-9853150D02*
X10415301Y-9853150D01*
X10415301Y-9853150D02*
X10434349Y-9862674D01*
X10510539Y-10062674D02*
X10520063Y-10053150D01*
X10520063Y-10053150D02*
X10539111Y-10024579D01*
X10539111Y-10024579D02*
X10548634Y-10005531D01*
X10548634Y-10005531D02*
X10558158Y-9976960D01*
X10558158Y-9976960D02*
X10567682Y-9929341D01*
X10567682Y-9929341D02*
X10567682Y-9891246D01*
X10567682Y-9891246D02*
X10558158Y-9843627D01*
X10558158Y-9843627D02*
X10548634Y-9815055D01*
X10548634Y-9815055D02*
X10539111Y-9796008D01*
X10539111Y-9796008D02*
X10520063Y-9767436D01*
X10520063Y-9767436D02*
X10510539Y-9757912D01*
D10*
X5545000Y-10159000D02*
G75*
G03*
X5465000Y-10159000I-40000J0D01*
G01*
X5465000Y-10159000D02*
G75*
G03*
X5545000Y-10159000I40000J0D01*
G01*
D11*
X5843872Y-10050484D02*
X5862920Y-10050484D01*
X5862920Y-10050484D02*
X5881967Y-10060008D01*
X5881967Y-10060008D02*
X5891491Y-10069531D01*
X5891491Y-10069531D02*
X5901015Y-10088579D01*
X5901015Y-10088579D02*
X5910539Y-10126674D01*
X5910539Y-10126674D02*
X5910539Y-10174293D01*
X5910539Y-10174293D02*
X5901015Y-10212389D01*
X5901015Y-10212389D02*
X5891491Y-10231436D01*
X5891491Y-10231436D02*
X5881967Y-10240960D01*
X5881967Y-10240960D02*
X5862920Y-10250484D01*
X5862920Y-10250484D02*
X5843872Y-10250484D01*
X5843872Y-10250484D02*
X5824824Y-10240960D01*
X5824824Y-10240960D02*
X5815301Y-10231436D01*
X5815301Y-10231436D02*
X5805777Y-10212389D01*
X5805777Y-10212389D02*
X5796253Y-10174293D01*
X5796253Y-10174293D02*
X5796253Y-10126674D01*
X5796253Y-10126674D02*
X5805777Y-10088579D01*
X5805777Y-10088579D02*
X5815301Y-10069531D01*
X5815301Y-10069531D02*
X5824824Y-10060008D01*
X5824824Y-10060008D02*
X5843872Y-10050484D01*
X5996253Y-10231436D02*
X6005777Y-10240960D01*
X6005777Y-10240960D02*
X5996253Y-10250484D01*
X5996253Y-10250484D02*
X5986729Y-10240960D01*
X5986729Y-10240960D02*
X5996253Y-10231436D01*
X5996253Y-10231436D02*
X5996253Y-10250484D01*
X6120062Y-10136198D02*
X6101015Y-10126674D01*
X6101015Y-10126674D02*
X6091491Y-10117150D01*
X6091491Y-10117150D02*
X6081967Y-10098103D01*
X6081967Y-10098103D02*
X6081967Y-10088579D01*
X6081967Y-10088579D02*
X6091491Y-10069531D01*
X6091491Y-10069531D02*
X6101015Y-10060008D01*
X6101015Y-10060008D02*
X6120062Y-10050484D01*
X6120062Y-10050484D02*
X6158158Y-10050484D01*
X6158158Y-10050484D02*
X6177205Y-10060008D01*
X6177205Y-10060008D02*
X6186729Y-10069531D01*
X6186729Y-10069531D02*
X6196253Y-10088579D01*
X6196253Y-10088579D02*
X6196253Y-10098103D01*
X6196253Y-10098103D02*
X6186729Y-10117150D01*
X6186729Y-10117150D02*
X6177205Y-10126674D01*
X6177205Y-10126674D02*
X6158158Y-10136198D01*
X6158158Y-10136198D02*
X6120062Y-10136198D01*
X6120062Y-10136198D02*
X6101015Y-10145722D01*
X6101015Y-10145722D02*
X6091491Y-10155246D01*
X6091491Y-10155246D02*
X6081967Y-10174293D01*
X6081967Y-10174293D02*
X6081967Y-10212389D01*
X6081967Y-10212389D02*
X6091491Y-10231436D01*
X6091491Y-10231436D02*
X6101015Y-10240960D01*
X6101015Y-10240960D02*
X6120062Y-10250484D01*
X6120062Y-10250484D02*
X6158158Y-10250484D01*
X6158158Y-10250484D02*
X6177205Y-10240960D01*
X6177205Y-10240960D02*
X6186729Y-10231436D01*
X6186729Y-10231436D02*
X6196253Y-10212389D01*
X6196253Y-10212389D02*
X6196253Y-10174293D01*
X6196253Y-10174293D02*
X6186729Y-10155246D01*
X6186729Y-10155246D02*
X6177205Y-10145722D01*
X6177205Y-10145722D02*
X6158158Y-10136198D01*
X6320062Y-10050484D02*
X6339110Y-10050484D01*
X6339110Y-10050484D02*
X6358158Y-10060008D01*
X6358158Y-10060008D02*
X6367682Y-10069531D01*
X6367682Y-10069531D02*
X6377205Y-10088579D01*
X6377205Y-10088579D02*
X6386729Y-10126674D01*
X6386729Y-10126674D02*
X6386729Y-10174293D01*
X6386729Y-10174293D02*
X6377205Y-10212389D01*
X6377205Y-10212389D02*
X6367682Y-10231436D01*
X6367682Y-10231436D02*
X6358158Y-10240960D01*
X6358158Y-10240960D02*
X6339110Y-10250484D01*
X6339110Y-10250484D02*
X6320062Y-10250484D01*
X6320062Y-10250484D02*
X6301015Y-10240960D01*
X6301015Y-10240960D02*
X6291491Y-10231436D01*
X6291491Y-10231436D02*
X6281967Y-10212389D01*
X6281967Y-10212389D02*
X6272443Y-10174293D01*
X6272443Y-10174293D02*
X6272443Y-10126674D01*
X6272443Y-10126674D02*
X6281967Y-10088579D01*
X6281967Y-10088579D02*
X6291491Y-10069531D01*
X6291491Y-10069531D02*
X6301015Y-10060008D01*
X6301015Y-10060008D02*
X6320062Y-10050484D01*
X6510539Y-10050484D02*
X6529586Y-10050484D01*
X6529586Y-10050484D02*
X6548634Y-10060008D01*
X6548634Y-10060008D02*
X6558158Y-10069531D01*
X6558158Y-10069531D02*
X6567682Y-10088579D01*
X6567682Y-10088579D02*
X6577205Y-10126674D01*
X6577205Y-10126674D02*
X6577205Y-10174293D01*
X6577205Y-10174293D02*
X6567682Y-10212389D01*
X6567682Y-10212389D02*
X6558158Y-10231436D01*
X6558158Y-10231436D02*
X6548634Y-10240960D01*
X6548634Y-10240960D02*
X6529586Y-10250484D01*
X6529586Y-10250484D02*
X6510539Y-10250484D01*
X6510539Y-10250484D02*
X6491491Y-10240960D01*
X6491491Y-10240960D02*
X6481967Y-10231436D01*
X6481967Y-10231436D02*
X6472443Y-10212389D01*
X6472443Y-10212389D02*
X6462920Y-10174293D01*
X6462920Y-10174293D02*
X6462920Y-10126674D01*
X6462920Y-10126674D02*
X6472443Y-10088579D01*
X6472443Y-10088579D02*
X6481967Y-10069531D01*
X6481967Y-10069531D02*
X6491491Y-10060008D01*
X6491491Y-10060008D02*
X6510539Y-10050484D01*
X6662920Y-10250484D02*
X6662920Y-10117150D01*
X6662920Y-10136198D02*
X6672443Y-10126674D01*
X6672443Y-10126674D02*
X6691491Y-10117150D01*
X6691491Y-10117150D02*
X6720063Y-10117150D01*
X6720063Y-10117150D02*
X6739110Y-10126674D01*
X6739110Y-10126674D02*
X6748634Y-10145722D01*
X6748634Y-10145722D02*
X6748634Y-10250484D01*
X6748634Y-10145722D02*
X6758158Y-10126674D01*
X6758158Y-10126674D02*
X6777205Y-10117150D01*
X6777205Y-10117150D02*
X6805777Y-10117150D01*
X6805777Y-10117150D02*
X6824824Y-10126674D01*
X6824824Y-10126674D02*
X6834348Y-10145722D01*
X6834348Y-10145722D02*
X6834348Y-10250484D01*
X6929586Y-10250484D02*
X6929586Y-10117150D01*
X6929586Y-10136198D02*
X6939110Y-10126674D01*
X6939110Y-10126674D02*
X6958158Y-10117150D01*
X6958158Y-10117150D02*
X6986729Y-10117150D01*
X6986729Y-10117150D02*
X7005777Y-10126674D01*
X7005777Y-10126674D02*
X7015301Y-10145722D01*
X7015301Y-10145722D02*
X7015301Y-10250484D01*
X7015301Y-10145722D02*
X7024824Y-10126674D01*
X7024824Y-10126674D02*
X7043872Y-10117150D01*
X7043872Y-10117150D02*
X7072443Y-10117150D01*
X7072443Y-10117150D02*
X7091491Y-10126674D01*
X7091491Y-10126674D02*
X7101015Y-10145722D01*
X7101015Y-10145722D02*
X7101015Y-10250484D01*
X7491491Y-10040960D02*
X7320063Y-10298103D01*
X7748634Y-10050484D02*
X7767682Y-10050484D01*
X7767682Y-10050484D02*
X7786729Y-10060008D01*
X7786729Y-10060008D02*
X7796253Y-10069531D01*
X7796253Y-10069531D02*
X7805777Y-10088579D01*
X7805777Y-10088579D02*
X7815301Y-10126674D01*
X7815301Y-10126674D02*
X7815301Y-10174293D01*
X7815301Y-10174293D02*
X7805777Y-10212389D01*
X7805777Y-10212389D02*
X7796253Y-10231436D01*
X7796253Y-10231436D02*
X7786729Y-10240960D01*
X7786729Y-10240960D02*
X7767682Y-10250484D01*
X7767682Y-10250484D02*
X7748634Y-10250484D01*
X7748634Y-10250484D02*
X7729586Y-10240960D01*
X7729586Y-10240960D02*
X7720063Y-10231436D01*
X7720063Y-10231436D02*
X7710539Y-10212389D01*
X7710539Y-10212389D02*
X7701015Y-10174293D01*
X7701015Y-10174293D02*
X7701015Y-10126674D01*
X7701015Y-10126674D02*
X7710539Y-10088579D01*
X7710539Y-10088579D02*
X7720063Y-10069531D01*
X7720063Y-10069531D02*
X7729586Y-10060008D01*
X7729586Y-10060008D02*
X7748634Y-10050484D01*
X7901015Y-10231436D02*
X7910539Y-10240960D01*
X7910539Y-10240960D02*
X7901015Y-10250484D01*
X7901015Y-10250484D02*
X7891491Y-10240960D01*
X7891491Y-10240960D02*
X7901015Y-10231436D01*
X7901015Y-10231436D02*
X7901015Y-10250484D01*
X8034348Y-10050484D02*
X8053396Y-10050484D01*
X8053396Y-10050484D02*
X8072444Y-10060008D01*
X8072444Y-10060008D02*
X8081967Y-10069531D01*
X8081967Y-10069531D02*
X8091491Y-10088579D01*
X8091491Y-10088579D02*
X8101015Y-10126674D01*
X8101015Y-10126674D02*
X8101015Y-10174293D01*
X8101015Y-10174293D02*
X8091491Y-10212389D01*
X8091491Y-10212389D02*
X8081967Y-10231436D01*
X8081967Y-10231436D02*
X8072444Y-10240960D01*
X8072444Y-10240960D02*
X8053396Y-10250484D01*
X8053396Y-10250484D02*
X8034348Y-10250484D01*
X8034348Y-10250484D02*
X8015301Y-10240960D01*
X8015301Y-10240960D02*
X8005777Y-10231436D01*
X8005777Y-10231436D02*
X7996253Y-10212389D01*
X7996253Y-10212389D02*
X7986729Y-10174293D01*
X7986729Y-10174293D02*
X7986729Y-10126674D01*
X7986729Y-10126674D02*
X7996253Y-10088579D01*
X7996253Y-10088579D02*
X8005777Y-10069531D01*
X8005777Y-10069531D02*
X8015301Y-10060008D01*
X8015301Y-10060008D02*
X8034348Y-10050484D01*
X8167682Y-10050484D02*
X8291491Y-10050484D01*
X8291491Y-10050484D02*
X8224825Y-10126674D01*
X8224825Y-10126674D02*
X8253396Y-10126674D01*
X8253396Y-10126674D02*
X8272444Y-10136198D01*
X8272444Y-10136198D02*
X8281967Y-10145722D01*
X8281967Y-10145722D02*
X8291491Y-10164770D01*
X8291491Y-10164770D02*
X8291491Y-10212389D01*
X8291491Y-10212389D02*
X8281967Y-10231436D01*
X8281967Y-10231436D02*
X8272444Y-10240960D01*
X8272444Y-10240960D02*
X8253396Y-10250484D01*
X8253396Y-10250484D02*
X8196253Y-10250484D01*
X8196253Y-10250484D02*
X8177206Y-10240960D01*
X8177206Y-10240960D02*
X8167682Y-10231436D01*
X8481968Y-10250484D02*
X8367682Y-10250484D01*
X8424825Y-10250484D02*
X8424825Y-10050484D01*
X8424825Y-10050484D02*
X8405777Y-10079055D01*
X8405777Y-10079055D02*
X8386729Y-10098103D01*
X8386729Y-10098103D02*
X8367682Y-10107627D01*
X8662920Y-10050484D02*
X8567682Y-10050484D01*
X8567682Y-10050484D02*
X8558158Y-10145722D01*
X8558158Y-10145722D02*
X8567682Y-10136198D01*
X8567682Y-10136198D02*
X8586729Y-10126674D01*
X8586729Y-10126674D02*
X8634349Y-10126674D01*
X8634349Y-10126674D02*
X8653396Y-10136198D01*
X8653396Y-10136198D02*
X8662920Y-10145722D01*
X8662920Y-10145722D02*
X8672444Y-10164770D01*
X8672444Y-10164770D02*
X8672444Y-10212389D01*
X8672444Y-10212389D02*
X8662920Y-10231436D01*
X8662920Y-10231436D02*
X8653396Y-10240960D01*
X8653396Y-10240960D02*
X8634349Y-10250484D01*
X8634349Y-10250484D02*
X8586729Y-10250484D01*
X8586729Y-10250484D02*
X8567682Y-10240960D01*
X8567682Y-10240960D02*
X8558158Y-10231436D01*
X8748634Y-10050484D02*
X8748634Y-10088579D01*
X8824825Y-10050484D02*
X8824825Y-10088579D01*
X9120063Y-10326674D02*
X9110539Y-10317150D01*
X9110539Y-10317150D02*
X9091491Y-10288579D01*
X9091491Y-10288579D02*
X9081968Y-10269531D01*
X9081968Y-10269531D02*
X9072444Y-10240960D01*
X9072444Y-10240960D02*
X9062920Y-10193341D01*
X9062920Y-10193341D02*
X9062920Y-10155246D01*
X9062920Y-10155246D02*
X9072444Y-10107627D01*
X9072444Y-10107627D02*
X9081968Y-10079055D01*
X9081968Y-10079055D02*
X9091491Y-10060008D01*
X9091491Y-10060008D02*
X9110539Y-10031436D01*
X9110539Y-10031436D02*
X9120063Y-10021912D01*
X9281968Y-10050484D02*
X9243872Y-10050484D01*
X9243872Y-10050484D02*
X9224825Y-10060008D01*
X9224825Y-10060008D02*
X9215301Y-10069531D01*
X9215301Y-10069531D02*
X9196253Y-10098103D01*
X9196253Y-10098103D02*
X9186730Y-10136198D01*
X9186730Y-10136198D02*
X9186730Y-10212389D01*
X9186730Y-10212389D02*
X9196253Y-10231436D01*
X9196253Y-10231436D02*
X9205777Y-10240960D01*
X9205777Y-10240960D02*
X9224825Y-10250484D01*
X9224825Y-10250484D02*
X9262920Y-10250484D01*
X9262920Y-10250484D02*
X9281968Y-10240960D01*
X9281968Y-10240960D02*
X9291491Y-10231436D01*
X9291491Y-10231436D02*
X9301015Y-10212389D01*
X9301015Y-10212389D02*
X9301015Y-10164770D01*
X9301015Y-10164770D02*
X9291491Y-10145722D01*
X9291491Y-10145722D02*
X9281968Y-10136198D01*
X9281968Y-10136198D02*
X9262920Y-10126674D01*
X9262920Y-10126674D02*
X9224825Y-10126674D01*
X9224825Y-10126674D02*
X9205777Y-10136198D01*
X9205777Y-10136198D02*
X9196253Y-10145722D01*
X9196253Y-10145722D02*
X9186730Y-10164770D01*
X9472444Y-10117150D02*
X9472444Y-10250484D01*
X9424825Y-10040960D02*
X9377206Y-10183817D01*
X9377206Y-10183817D02*
X9501015Y-10183817D01*
X9729587Y-10250484D02*
X9729587Y-10050484D01*
X9815301Y-10250484D02*
X9815301Y-10145722D01*
X9815301Y-10145722D02*
X9805777Y-10126674D01*
X9805777Y-10126674D02*
X9786730Y-10117150D01*
X9786730Y-10117150D02*
X9758158Y-10117150D01*
X9758158Y-10117150D02*
X9739111Y-10126674D01*
X9739111Y-10126674D02*
X9729587Y-10136198D01*
X9939111Y-10250484D02*
X9920063Y-10240960D01*
X9920063Y-10240960D02*
X9910539Y-10231436D01*
X9910539Y-10231436D02*
X9901015Y-10212389D01*
X9901015Y-10212389D02*
X9901015Y-10155246D01*
X9901015Y-10155246D02*
X9910539Y-10136198D01*
X9910539Y-10136198D02*
X9920063Y-10126674D01*
X9920063Y-10126674D02*
X9939111Y-10117150D01*
X9939111Y-10117150D02*
X9967682Y-10117150D01*
X9967682Y-10117150D02*
X9986730Y-10126674D01*
X9986730Y-10126674D02*
X9996253Y-10136198D01*
X9996253Y-10136198D02*
X10005777Y-10155246D01*
X10005777Y-10155246D02*
X10005777Y-10212389D01*
X10005777Y-10212389D02*
X9996253Y-10231436D01*
X9996253Y-10231436D02*
X9986730Y-10240960D01*
X9986730Y-10240960D02*
X9967682Y-10250484D01*
X9967682Y-10250484D02*
X9939111Y-10250484D01*
X10120063Y-10250484D02*
X10101015Y-10240960D01*
X10101015Y-10240960D02*
X10091492Y-10221912D01*
X10091492Y-10221912D02*
X10091492Y-10050484D01*
X10272444Y-10240960D02*
X10253396Y-10250484D01*
X10253396Y-10250484D02*
X10215301Y-10250484D01*
X10215301Y-10250484D02*
X10196253Y-10240960D01*
X10196253Y-10240960D02*
X10186730Y-10221912D01*
X10186730Y-10221912D02*
X10186730Y-10145722D01*
X10186730Y-10145722D02*
X10196253Y-10126674D01*
X10196253Y-10126674D02*
X10215301Y-10117150D01*
X10215301Y-10117150D02*
X10253396Y-10117150D01*
X10253396Y-10117150D02*
X10272444Y-10126674D01*
X10272444Y-10126674D02*
X10281968Y-10145722D01*
X10281968Y-10145722D02*
X10281968Y-10164770D01*
X10281968Y-10164770D02*
X10186730Y-10183817D01*
X10358158Y-10240960D02*
X10377206Y-10250484D01*
X10377206Y-10250484D02*
X10415301Y-10250484D01*
X10415301Y-10250484D02*
X10434349Y-10240960D01*
X10434349Y-10240960D02*
X10443873Y-10221912D01*
X10443873Y-10221912D02*
X10443873Y-10212389D01*
X10443873Y-10212389D02*
X10434349Y-10193341D01*
X10434349Y-10193341D02*
X10415301Y-10183817D01*
X10415301Y-10183817D02*
X10386730Y-10183817D01*
X10386730Y-10183817D02*
X10367682Y-10174293D01*
X10367682Y-10174293D02*
X10358158Y-10155246D01*
X10358158Y-10155246D02*
X10358158Y-10145722D01*
X10358158Y-10145722D02*
X10367682Y-10126674D01*
X10367682Y-10126674D02*
X10386730Y-10117150D01*
X10386730Y-10117150D02*
X10415301Y-10117150D01*
X10415301Y-10117150D02*
X10434349Y-10126674D01*
X10510539Y-10326674D02*
X10520063Y-10317150D01*
X10520063Y-10317150D02*
X10539111Y-10288579D01*
X10539111Y-10288579D02*
X10548634Y-10269531D01*
X10548634Y-10269531D02*
X10558158Y-10240960D01*
X10558158Y-10240960D02*
X10567682Y-10193341D01*
X10567682Y-10193341D02*
X10567682Y-10155246D01*
X10567682Y-10155246D02*
X10558158Y-10107627D01*
X10558158Y-10107627D02*
X10548634Y-10079055D01*
X10548634Y-10079055D02*
X10539111Y-10060008D01*
X10539111Y-10060008D02*
X10520063Y-10031436D01*
X10520063Y-10031436D02*
X10510539Y-10021912D01*
D10*
X5495000Y-10373000D02*
X5495000Y-10473000D01*
X5445000Y-10423000D02*
X5545000Y-10423000D01*
D11*
X5910539Y-10514484D02*
X5796253Y-10514484D01*
X5853396Y-10514484D02*
X5853396Y-10314484D01*
X5853396Y-10314484D02*
X5834348Y-10343055D01*
X5834348Y-10343055D02*
X5815301Y-10362103D01*
X5815301Y-10362103D02*
X5796253Y-10371627D01*
X5996253Y-10495436D02*
X6005777Y-10504960D01*
X6005777Y-10504960D02*
X5996253Y-10514484D01*
X5996253Y-10514484D02*
X5986729Y-10504960D01*
X5986729Y-10504960D02*
X5996253Y-10495436D01*
X5996253Y-10495436D02*
X5996253Y-10514484D01*
X6129586Y-10314484D02*
X6148634Y-10314484D01*
X6148634Y-10314484D02*
X6167682Y-10324008D01*
X6167682Y-10324008D02*
X6177205Y-10333531D01*
X6177205Y-10333531D02*
X6186729Y-10352579D01*
X6186729Y-10352579D02*
X6196253Y-10390674D01*
X6196253Y-10390674D02*
X6196253Y-10438293D01*
X6196253Y-10438293D02*
X6186729Y-10476389D01*
X6186729Y-10476389D02*
X6177205Y-10495436D01*
X6177205Y-10495436D02*
X6167682Y-10504960D01*
X6167682Y-10504960D02*
X6148634Y-10514484D01*
X6148634Y-10514484D02*
X6129586Y-10514484D01*
X6129586Y-10514484D02*
X6110539Y-10504960D01*
X6110539Y-10504960D02*
X6101015Y-10495436D01*
X6101015Y-10495436D02*
X6091491Y-10476389D01*
X6091491Y-10476389D02*
X6081967Y-10438293D01*
X6081967Y-10438293D02*
X6081967Y-10390674D01*
X6081967Y-10390674D02*
X6091491Y-10352579D01*
X6091491Y-10352579D02*
X6101015Y-10333531D01*
X6101015Y-10333531D02*
X6110539Y-10324008D01*
X6110539Y-10324008D02*
X6129586Y-10314484D01*
X6320062Y-10314484D02*
X6339110Y-10314484D01*
X6339110Y-10314484D02*
X6358158Y-10324008D01*
X6358158Y-10324008D02*
X6367682Y-10333531D01*
X6367682Y-10333531D02*
X6377205Y-10352579D01*
X6377205Y-10352579D02*
X6386729Y-10390674D01*
X6386729Y-10390674D02*
X6386729Y-10438293D01*
X6386729Y-10438293D02*
X6377205Y-10476389D01*
X6377205Y-10476389D02*
X6367682Y-10495436D01*
X6367682Y-10495436D02*
X6358158Y-10504960D01*
X6358158Y-10504960D02*
X6339110Y-10514484D01*
X6339110Y-10514484D02*
X6320062Y-10514484D01*
X6320062Y-10514484D02*
X6301015Y-10504960D01*
X6301015Y-10504960D02*
X6291491Y-10495436D01*
X6291491Y-10495436D02*
X6281967Y-10476389D01*
X6281967Y-10476389D02*
X6272443Y-10438293D01*
X6272443Y-10438293D02*
X6272443Y-10390674D01*
X6272443Y-10390674D02*
X6281967Y-10352579D01*
X6281967Y-10352579D02*
X6291491Y-10333531D01*
X6291491Y-10333531D02*
X6301015Y-10324008D01*
X6301015Y-10324008D02*
X6320062Y-10314484D01*
X6510539Y-10314484D02*
X6529586Y-10314484D01*
X6529586Y-10314484D02*
X6548634Y-10324008D01*
X6548634Y-10324008D02*
X6558158Y-10333531D01*
X6558158Y-10333531D02*
X6567682Y-10352579D01*
X6567682Y-10352579D02*
X6577205Y-10390674D01*
X6577205Y-10390674D02*
X6577205Y-10438293D01*
X6577205Y-10438293D02*
X6567682Y-10476389D01*
X6567682Y-10476389D02*
X6558158Y-10495436D01*
X6558158Y-10495436D02*
X6548634Y-10504960D01*
X6548634Y-10504960D02*
X6529586Y-10514484D01*
X6529586Y-10514484D02*
X6510539Y-10514484D01*
X6510539Y-10514484D02*
X6491491Y-10504960D01*
X6491491Y-10504960D02*
X6481967Y-10495436D01*
X6481967Y-10495436D02*
X6472443Y-10476389D01*
X6472443Y-10476389D02*
X6462920Y-10438293D01*
X6462920Y-10438293D02*
X6462920Y-10390674D01*
X6462920Y-10390674D02*
X6472443Y-10352579D01*
X6472443Y-10352579D02*
X6481967Y-10333531D01*
X6481967Y-10333531D02*
X6491491Y-10324008D01*
X6491491Y-10324008D02*
X6510539Y-10314484D01*
X6662920Y-10514484D02*
X6662920Y-10381150D01*
X6662920Y-10400198D02*
X6672443Y-10390674D01*
X6672443Y-10390674D02*
X6691491Y-10381150D01*
X6691491Y-10381150D02*
X6720063Y-10381150D01*
X6720063Y-10381150D02*
X6739110Y-10390674D01*
X6739110Y-10390674D02*
X6748634Y-10409722D01*
X6748634Y-10409722D02*
X6748634Y-10514484D01*
X6748634Y-10409722D02*
X6758158Y-10390674D01*
X6758158Y-10390674D02*
X6777205Y-10381150D01*
X6777205Y-10381150D02*
X6805777Y-10381150D01*
X6805777Y-10381150D02*
X6824824Y-10390674D01*
X6824824Y-10390674D02*
X6834348Y-10409722D01*
X6834348Y-10409722D02*
X6834348Y-10514484D01*
X6929586Y-10514484D02*
X6929586Y-10381150D01*
X6929586Y-10400198D02*
X6939110Y-10390674D01*
X6939110Y-10390674D02*
X6958158Y-10381150D01*
X6958158Y-10381150D02*
X6986729Y-10381150D01*
X6986729Y-10381150D02*
X7005777Y-10390674D01*
X7005777Y-10390674D02*
X7015301Y-10409722D01*
X7015301Y-10409722D02*
X7015301Y-10514484D01*
X7015301Y-10409722D02*
X7024824Y-10390674D01*
X7024824Y-10390674D02*
X7043872Y-10381150D01*
X7043872Y-10381150D02*
X7072443Y-10381150D01*
X7072443Y-10381150D02*
X7091491Y-10390674D01*
X7091491Y-10390674D02*
X7101015Y-10409722D01*
X7101015Y-10409722D02*
X7101015Y-10514484D01*
X7491491Y-10304960D02*
X7320063Y-10562103D01*
X7748634Y-10314484D02*
X7767682Y-10314484D01*
X7767682Y-10314484D02*
X7786729Y-10324008D01*
X7786729Y-10324008D02*
X7796253Y-10333531D01*
X7796253Y-10333531D02*
X7805777Y-10352579D01*
X7805777Y-10352579D02*
X7815301Y-10390674D01*
X7815301Y-10390674D02*
X7815301Y-10438293D01*
X7815301Y-10438293D02*
X7805777Y-10476389D01*
X7805777Y-10476389D02*
X7796253Y-10495436D01*
X7796253Y-10495436D02*
X7786729Y-10504960D01*
X7786729Y-10504960D02*
X7767682Y-10514484D01*
X7767682Y-10514484D02*
X7748634Y-10514484D01*
X7748634Y-10514484D02*
X7729586Y-10504960D01*
X7729586Y-10504960D02*
X7720063Y-10495436D01*
X7720063Y-10495436D02*
X7710539Y-10476389D01*
X7710539Y-10476389D02*
X7701015Y-10438293D01*
X7701015Y-10438293D02*
X7701015Y-10390674D01*
X7701015Y-10390674D02*
X7710539Y-10352579D01*
X7710539Y-10352579D02*
X7720063Y-10333531D01*
X7720063Y-10333531D02*
X7729586Y-10324008D01*
X7729586Y-10324008D02*
X7748634Y-10314484D01*
X7901015Y-10495436D02*
X7910539Y-10504960D01*
X7910539Y-10504960D02*
X7901015Y-10514484D01*
X7901015Y-10514484D02*
X7891491Y-10504960D01*
X7891491Y-10504960D02*
X7901015Y-10495436D01*
X7901015Y-10495436D02*
X7901015Y-10514484D01*
X8034348Y-10314484D02*
X8053396Y-10314484D01*
X8053396Y-10314484D02*
X8072444Y-10324008D01*
X8072444Y-10324008D02*
X8081967Y-10333531D01*
X8081967Y-10333531D02*
X8091491Y-10352579D01*
X8091491Y-10352579D02*
X8101015Y-10390674D01*
X8101015Y-10390674D02*
X8101015Y-10438293D01*
X8101015Y-10438293D02*
X8091491Y-10476389D01*
X8091491Y-10476389D02*
X8081967Y-10495436D01*
X8081967Y-10495436D02*
X8072444Y-10504960D01*
X8072444Y-10504960D02*
X8053396Y-10514484D01*
X8053396Y-10514484D02*
X8034348Y-10514484D01*
X8034348Y-10514484D02*
X8015301Y-10504960D01*
X8015301Y-10504960D02*
X8005777Y-10495436D01*
X8005777Y-10495436D02*
X7996253Y-10476389D01*
X7996253Y-10476389D02*
X7986729Y-10438293D01*
X7986729Y-10438293D02*
X7986729Y-10390674D01*
X7986729Y-10390674D02*
X7996253Y-10352579D01*
X7996253Y-10352579D02*
X8005777Y-10333531D01*
X8005777Y-10333531D02*
X8015301Y-10324008D01*
X8015301Y-10324008D02*
X8034348Y-10314484D01*
X8167682Y-10314484D02*
X8291491Y-10314484D01*
X8291491Y-10314484D02*
X8224825Y-10390674D01*
X8224825Y-10390674D02*
X8253396Y-10390674D01*
X8253396Y-10390674D02*
X8272444Y-10400198D01*
X8272444Y-10400198D02*
X8281967Y-10409722D01*
X8281967Y-10409722D02*
X8291491Y-10428770D01*
X8291491Y-10428770D02*
X8291491Y-10476389D01*
X8291491Y-10476389D02*
X8281967Y-10495436D01*
X8281967Y-10495436D02*
X8272444Y-10504960D01*
X8272444Y-10504960D02*
X8253396Y-10514484D01*
X8253396Y-10514484D02*
X8196253Y-10514484D01*
X8196253Y-10514484D02*
X8177206Y-10504960D01*
X8177206Y-10504960D02*
X8167682Y-10495436D01*
X8386729Y-10514484D02*
X8424825Y-10514484D01*
X8424825Y-10514484D02*
X8443872Y-10504960D01*
X8443872Y-10504960D02*
X8453396Y-10495436D01*
X8453396Y-10495436D02*
X8472444Y-10466865D01*
X8472444Y-10466865D02*
X8481968Y-10428770D01*
X8481968Y-10428770D02*
X8481968Y-10352579D01*
X8481968Y-10352579D02*
X8472444Y-10333531D01*
X8472444Y-10333531D02*
X8462920Y-10324008D01*
X8462920Y-10324008D02*
X8443872Y-10314484D01*
X8443872Y-10314484D02*
X8405777Y-10314484D01*
X8405777Y-10314484D02*
X8386729Y-10324008D01*
X8386729Y-10324008D02*
X8377206Y-10333531D01*
X8377206Y-10333531D02*
X8367682Y-10352579D01*
X8367682Y-10352579D02*
X8367682Y-10400198D01*
X8367682Y-10400198D02*
X8377206Y-10419246D01*
X8377206Y-10419246D02*
X8386729Y-10428770D01*
X8386729Y-10428770D02*
X8405777Y-10438293D01*
X8405777Y-10438293D02*
X8443872Y-10438293D01*
X8443872Y-10438293D02*
X8462920Y-10428770D01*
X8462920Y-10428770D02*
X8472444Y-10419246D01*
X8472444Y-10419246D02*
X8481968Y-10400198D01*
X8653396Y-10381150D02*
X8653396Y-10514484D01*
X8605777Y-10304960D02*
X8558158Y-10447817D01*
X8558158Y-10447817D02*
X8681968Y-10447817D01*
X8748634Y-10314484D02*
X8748634Y-10352579D01*
X8824825Y-10314484D02*
X8824825Y-10352579D01*
X9120063Y-10590674D02*
X9110539Y-10581150D01*
X9110539Y-10581150D02*
X9091491Y-10552579D01*
X9091491Y-10552579D02*
X9081968Y-10533531D01*
X9081968Y-10533531D02*
X9072444Y-10504960D01*
X9072444Y-10504960D02*
X9062920Y-10457341D01*
X9062920Y-10457341D02*
X9062920Y-10419246D01*
X9062920Y-10419246D02*
X9072444Y-10371627D01*
X9072444Y-10371627D02*
X9081968Y-10343055D01*
X9081968Y-10343055D02*
X9091491Y-10324008D01*
X9091491Y-10324008D02*
X9110539Y-10295436D01*
X9110539Y-10295436D02*
X9120063Y-10285912D01*
X9291491Y-10314484D02*
X9196253Y-10314484D01*
X9196253Y-10314484D02*
X9186730Y-10409722D01*
X9186730Y-10409722D02*
X9196253Y-10400198D01*
X9196253Y-10400198D02*
X9215301Y-10390674D01*
X9215301Y-10390674D02*
X9262920Y-10390674D01*
X9262920Y-10390674D02*
X9281968Y-10400198D01*
X9281968Y-10400198D02*
X9291491Y-10409722D01*
X9291491Y-10409722D02*
X9301015Y-10428770D01*
X9301015Y-10428770D02*
X9301015Y-10476389D01*
X9301015Y-10476389D02*
X9291491Y-10495436D01*
X9291491Y-10495436D02*
X9281968Y-10504960D01*
X9281968Y-10504960D02*
X9262920Y-10514484D01*
X9262920Y-10514484D02*
X9215301Y-10514484D01*
X9215301Y-10514484D02*
X9196253Y-10504960D01*
X9196253Y-10504960D02*
X9186730Y-10495436D01*
X9539111Y-10514484D02*
X9539111Y-10314484D01*
X9624825Y-10514484D02*
X9624825Y-10409722D01*
X9624825Y-10409722D02*
X9615301Y-10390674D01*
X9615301Y-10390674D02*
X9596253Y-10381150D01*
X9596253Y-10381150D02*
X9567682Y-10381150D01*
X9567682Y-10381150D02*
X9548634Y-10390674D01*
X9548634Y-10390674D02*
X9539111Y-10400198D01*
X9748634Y-10514484D02*
X9729587Y-10504960D01*
X9729587Y-10504960D02*
X9720063Y-10495436D01*
X9720063Y-10495436D02*
X9710539Y-10476389D01*
X9710539Y-10476389D02*
X9710539Y-10419246D01*
X9710539Y-10419246D02*
X9720063Y-10400198D01*
X9720063Y-10400198D02*
X9729587Y-10390674D01*
X9729587Y-10390674D02*
X9748634Y-10381150D01*
X9748634Y-10381150D02*
X9777206Y-10381150D01*
X9777206Y-10381150D02*
X9796253Y-10390674D01*
X9796253Y-10390674D02*
X9805777Y-10400198D01*
X9805777Y-10400198D02*
X9815301Y-10419246D01*
X9815301Y-10419246D02*
X9815301Y-10476389D01*
X9815301Y-10476389D02*
X9805777Y-10495436D01*
X9805777Y-10495436D02*
X9796253Y-10504960D01*
X9796253Y-10504960D02*
X9777206Y-10514484D01*
X9777206Y-10514484D02*
X9748634Y-10514484D01*
X9929587Y-10514484D02*
X9910539Y-10504960D01*
X9910539Y-10504960D02*
X9901015Y-10485912D01*
X9901015Y-10485912D02*
X9901015Y-10314484D01*
X10081968Y-10504960D02*
X10062920Y-10514484D01*
X10062920Y-10514484D02*
X10024825Y-10514484D01*
X10024825Y-10514484D02*
X10005777Y-10504960D01*
X10005777Y-10504960D02*
X9996253Y-10485912D01*
X9996253Y-10485912D02*
X9996253Y-10409722D01*
X9996253Y-10409722D02*
X10005777Y-10390674D01*
X10005777Y-10390674D02*
X10024825Y-10381150D01*
X10024825Y-10381150D02*
X10062920Y-10381150D01*
X10062920Y-10381150D02*
X10081968Y-10390674D01*
X10081968Y-10390674D02*
X10091492Y-10409722D01*
X10091492Y-10409722D02*
X10091492Y-10428770D01*
X10091492Y-10428770D02*
X9996253Y-10447817D01*
X10167682Y-10504960D02*
X10186730Y-10514484D01*
X10186730Y-10514484D02*
X10224825Y-10514484D01*
X10224825Y-10514484D02*
X10243873Y-10504960D01*
X10243873Y-10504960D02*
X10253396Y-10485912D01*
X10253396Y-10485912D02*
X10253396Y-10476389D01*
X10253396Y-10476389D02*
X10243873Y-10457341D01*
X10243873Y-10457341D02*
X10224825Y-10447817D01*
X10224825Y-10447817D02*
X10196253Y-10447817D01*
X10196253Y-10447817D02*
X10177206Y-10438293D01*
X10177206Y-10438293D02*
X10167682Y-10419246D01*
X10167682Y-10419246D02*
X10167682Y-10409722D01*
X10167682Y-10409722D02*
X10177206Y-10390674D01*
X10177206Y-10390674D02*
X10196253Y-10381150D01*
X10196253Y-10381150D02*
X10224825Y-10381150D01*
X10224825Y-10381150D02*
X10243873Y-10390674D01*
X10320063Y-10590674D02*
X10329587Y-10581150D01*
X10329587Y-10581150D02*
X10348634Y-10552579D01*
X10348634Y-10552579D02*
X10358158Y-10533531D01*
X10358158Y-10533531D02*
X10367682Y-10504960D01*
X10367682Y-10504960D02*
X10377206Y-10457341D01*
X10377206Y-10457341D02*
X10377206Y-10419246D01*
X10377206Y-10419246D02*
X10367682Y-10371627D01*
X10367682Y-10371627D02*
X10358158Y-10343055D01*
X10358158Y-10343055D02*
X10348634Y-10324008D01*
X10348634Y-10324008D02*
X10329587Y-10295436D01*
X10329587Y-10295436D02*
X10320063Y-10285912D01*
M02*
