G04 #@! TF.GenerationSoftware,KiCad,Pcbnew,8.0.0*
G04 #@! TF.CreationDate,2024-03-01T08:40:03-05:00*
G04 #@! TF.ProjectId,Rosco-MiniHat,526f7363-6f2d-44d6-996e-694861742e6b,rev?*
G04 #@! TF.SameCoordinates,Original*
G04 #@! TF.FileFunction,Copper,L3,Inr*
G04 #@! TF.FilePolarity,Positive*
%FSLAX46Y46*%
G04 Gerber Fmt 4.6, Leading zero omitted, Abs format (unit mm)*
G04 Created by KiCad (PCBNEW 8.0.0) date 2024-03-01 08:40:03*
%MOMM*%
%LPD*%
G01*
G04 APERTURE LIST*
G04 #@! TA.AperFunction,ComponentPad*
%ADD10R,1.700000X1.700000*%
G04 #@! TD*
G04 #@! TA.AperFunction,ComponentPad*
%ADD11O,1.700000X1.700000*%
G04 #@! TD*
G04 #@! TA.AperFunction,ComponentPad*
%ADD12R,1.600000X1.600000*%
G04 #@! TD*
G04 #@! TA.AperFunction,ComponentPad*
%ADD13O,1.600000X1.600000*%
G04 #@! TD*
G04 #@! TA.AperFunction,ViaPad*
%ADD14C,0.700000*%
G04 #@! TD*
G04 APERTURE END LIST*
D10*
X58638000Y-52550000D03*
D11*
X58638000Y-55090000D03*
X58638000Y-57630000D03*
X58638000Y-60170000D03*
X58638000Y-62710000D03*
D12*
X111867000Y-52387000D03*
D13*
X111867000Y-54927000D03*
X111867000Y-57467000D03*
X111867000Y-60007000D03*
X111867000Y-62547000D03*
X111867000Y-65087000D03*
X111867000Y-67627000D03*
X111867000Y-70167000D03*
X111867000Y-72707000D03*
X111867000Y-75247000D03*
X111867000Y-77787000D03*
X111867000Y-80327000D03*
X111867000Y-82867000D03*
X111867000Y-85407000D03*
X111867000Y-87947000D03*
X111867000Y-90487000D03*
X127107000Y-90487000D03*
X127107000Y-87947000D03*
X127107000Y-85407000D03*
X127107000Y-82867000D03*
X127107000Y-80327000D03*
X127107000Y-77787000D03*
X127107000Y-75247000D03*
X127107000Y-72707000D03*
X127107000Y-70167000D03*
X127107000Y-67627000D03*
X127107000Y-65087000D03*
X127107000Y-62547000D03*
X127107000Y-60007000D03*
X127107000Y-57467000D03*
X127107000Y-54927000D03*
X127107000Y-52387000D03*
D12*
X87667000Y-52387000D03*
D13*
X87667000Y-54927000D03*
X87667000Y-57467000D03*
X87667000Y-60007000D03*
X87667000Y-62547000D03*
X87667000Y-65087000D03*
X87667000Y-67627000D03*
X87667000Y-70167000D03*
X87667000Y-72707000D03*
X87667000Y-75247000D03*
X87667000Y-77787000D03*
X87667000Y-80327000D03*
X87667000Y-82867000D03*
X87667000Y-85407000D03*
X87667000Y-87947000D03*
X87667000Y-90487000D03*
X102907000Y-90487000D03*
X102907000Y-87947000D03*
X102907000Y-85407000D03*
X102907000Y-82867000D03*
X102907000Y-80327000D03*
X102907000Y-77787000D03*
X102907000Y-75247000D03*
X102907000Y-72707000D03*
X102907000Y-70167000D03*
X102907000Y-67627000D03*
X102907000Y-65087000D03*
X102907000Y-62547000D03*
X102907000Y-60007000D03*
X102907000Y-57467000D03*
X102907000Y-54927000D03*
X102907000Y-52387000D03*
D14*
X78750000Y-56250000D03*
X65000000Y-60250000D03*
X78750000Y-76250000D03*
X84500000Y-62250000D03*
X65000000Y-80500000D03*
X84500000Y-82250000D03*
X84500000Y-80250000D03*
X84500000Y-60000000D03*
X65000000Y-82500000D03*
X65000000Y-62500000D03*
X78934000Y-89807700D03*
X71367200Y-71560500D03*
X76171500Y-85215800D03*
X73189500Y-70184100D03*
X81581800Y-74401200D03*
X82677900Y-65772500D03*
X83496800Y-66591300D03*
X82180100Y-73723100D03*
X84218400Y-67670600D03*
X82736900Y-73004400D03*
X74932700Y-56213600D03*
X73946400Y-56207800D03*
X73732700Y-57279200D03*
X82414600Y-75247000D03*
X78021100Y-74892600D03*
X72796200Y-57318600D03*
X72162600Y-57980200D03*
X77549400Y-75951900D03*
X72277900Y-59500000D03*
X72138700Y-61450700D03*
X72136900Y-62700000D03*
X73539100Y-62761800D03*
X78925100Y-63500000D03*
X83724600Y-68452400D03*
X81594800Y-60249000D03*
X81739200Y-59344600D03*
X75578600Y-54286900D03*
X73693600Y-81306500D03*
X73308300Y-68059800D03*
X78904900Y-53159200D03*
X70544300Y-75101200D03*
X74275700Y-68772500D03*
X77091100Y-85178200D03*
X100633900Y-84719800D03*
X78912700Y-85213500D03*
X74581800Y-67042500D03*
X74832400Y-72592500D03*
X81627400Y-52682700D03*
X78849500Y-88883600D03*
X72273100Y-71031600D03*
X75255200Y-77527100D03*
X78911200Y-77890400D03*
X67757100Y-85900000D03*
X67637200Y-65900000D03*
G04 #@! TA.AperFunction,Conductor*
G36*
X128676051Y-50349949D02*
G01*
X128728362Y-50371659D01*
X128750000Y-50423949D01*
X128750000Y-92575948D01*
X128728326Y-92628274D01*
X128676000Y-92649948D01*
X128675949Y-92649948D01*
X56323949Y-92600050D01*
X56271638Y-92578340D01*
X56250000Y-92526050D01*
X56250000Y-90487003D01*
X86561785Y-90487003D01*
X86580601Y-90690076D01*
X86580602Y-90690082D01*
X86636416Y-90886244D01*
X86636418Y-90886250D01*
X86727327Y-91068821D01*
X86727328Y-91068822D01*
X86727329Y-91068825D01*
X86850234Y-91231578D01*
X86850235Y-91231579D01*
X86987637Y-91356836D01*
X87000959Y-91368981D01*
X87174363Y-91476348D01*
X87364544Y-91550024D01*
X87565024Y-91587500D01*
X87565026Y-91587500D01*
X87768974Y-91587500D01*
X87768976Y-91587500D01*
X87969456Y-91550024D01*
X88159637Y-91476348D01*
X88333041Y-91368981D01*
X88483764Y-91231579D01*
X88606673Y-91068821D01*
X88697582Y-90886250D01*
X88753397Y-90690083D01*
X88772215Y-90487003D01*
X101801785Y-90487003D01*
X101820601Y-90690076D01*
X101820602Y-90690082D01*
X101876416Y-90886244D01*
X101876418Y-90886250D01*
X101967327Y-91068821D01*
X101967328Y-91068822D01*
X101967329Y-91068825D01*
X102090234Y-91231578D01*
X102090235Y-91231579D01*
X102227637Y-91356836D01*
X102240959Y-91368981D01*
X102414363Y-91476348D01*
X102604544Y-91550024D01*
X102805024Y-91587500D01*
X102805026Y-91587500D01*
X103008974Y-91587500D01*
X103008976Y-91587500D01*
X103209456Y-91550024D01*
X103399637Y-91476348D01*
X103573041Y-91368981D01*
X103723764Y-91231579D01*
X103846673Y-91068821D01*
X103937582Y-90886250D01*
X103993397Y-90690083D01*
X104012215Y-90487003D01*
X110761785Y-90487003D01*
X110780601Y-90690076D01*
X110780602Y-90690082D01*
X110836416Y-90886244D01*
X110836418Y-90886250D01*
X110927327Y-91068821D01*
X110927328Y-91068822D01*
X110927329Y-91068825D01*
X111050234Y-91231578D01*
X111050235Y-91231579D01*
X111187637Y-91356836D01*
X111200959Y-91368981D01*
X111374363Y-91476348D01*
X111564544Y-91550024D01*
X111765024Y-91587500D01*
X111765026Y-91587500D01*
X111968974Y-91587500D01*
X111968976Y-91587500D01*
X112169456Y-91550024D01*
X112359637Y-91476348D01*
X112533041Y-91368981D01*
X112683764Y-91231579D01*
X112806673Y-91068821D01*
X112897582Y-90886250D01*
X112953397Y-90690083D01*
X112972215Y-90487003D01*
X126001785Y-90487003D01*
X126020601Y-90690076D01*
X126020602Y-90690082D01*
X126076416Y-90886244D01*
X126076418Y-90886250D01*
X126167327Y-91068821D01*
X126167328Y-91068822D01*
X126167329Y-91068825D01*
X126290234Y-91231578D01*
X126290235Y-91231579D01*
X126427637Y-91356836D01*
X126440959Y-91368981D01*
X126614363Y-91476348D01*
X126804544Y-91550024D01*
X127005024Y-91587500D01*
X127005026Y-91587500D01*
X127208974Y-91587500D01*
X127208976Y-91587500D01*
X127409456Y-91550024D01*
X127599637Y-91476348D01*
X127773041Y-91368981D01*
X127923764Y-91231579D01*
X128046673Y-91068821D01*
X128137582Y-90886250D01*
X128193397Y-90690083D01*
X128212215Y-90487000D01*
X128212215Y-90486996D01*
X128193398Y-90283923D01*
X128193397Y-90283917D01*
X128144545Y-90112223D01*
X128137582Y-90087750D01*
X128046673Y-89905179D01*
X128046670Y-89905175D01*
X128046670Y-89905174D01*
X127923765Y-89742421D01*
X127923764Y-89742420D01*
X127773041Y-89605019D01*
X127599637Y-89497652D01*
X127472849Y-89448534D01*
X127409459Y-89423977D01*
X127409458Y-89423976D01*
X127409456Y-89423976D01*
X127321407Y-89407516D01*
X127208979Y-89386500D01*
X127208976Y-89386500D01*
X127005024Y-89386500D01*
X127005020Y-89386500D01*
X126855116Y-89414522D01*
X126804544Y-89423976D01*
X126804542Y-89423976D01*
X126804540Y-89423977D01*
X126614368Y-89497650D01*
X126614363Y-89497652D01*
X126614358Y-89497654D01*
X126614358Y-89497655D01*
X126440958Y-89605019D01*
X126440957Y-89605019D01*
X126290235Y-89742420D01*
X126290234Y-89742421D01*
X126167329Y-89905174D01*
X126167328Y-89905177D01*
X126076418Y-90087750D01*
X126076416Y-90087755D01*
X126020602Y-90283917D01*
X126020601Y-90283923D01*
X126001785Y-90486996D01*
X126001785Y-90487003D01*
X112972215Y-90487003D01*
X112972215Y-90487000D01*
X112972215Y-90486996D01*
X112953398Y-90283923D01*
X112953397Y-90283917D01*
X112904545Y-90112223D01*
X112897582Y-90087750D01*
X112806673Y-89905179D01*
X112806670Y-89905175D01*
X112806670Y-89905174D01*
X112683765Y-89742421D01*
X112683764Y-89742420D01*
X112533041Y-89605019D01*
X112359637Y-89497652D01*
X112232849Y-89448534D01*
X112169459Y-89423977D01*
X112169458Y-89423976D01*
X112169456Y-89423976D01*
X112081407Y-89407516D01*
X111968979Y-89386500D01*
X111968976Y-89386500D01*
X111765024Y-89386500D01*
X111765020Y-89386500D01*
X111615116Y-89414522D01*
X111564544Y-89423976D01*
X111564542Y-89423976D01*
X111564540Y-89423977D01*
X111374368Y-89497650D01*
X111374363Y-89497652D01*
X111374358Y-89497654D01*
X111374358Y-89497655D01*
X111200958Y-89605019D01*
X111200957Y-89605019D01*
X111050235Y-89742420D01*
X111050234Y-89742421D01*
X110927329Y-89905174D01*
X110927328Y-89905177D01*
X110836418Y-90087750D01*
X110836416Y-90087755D01*
X110780602Y-90283917D01*
X110780601Y-90283923D01*
X110761785Y-90486996D01*
X110761785Y-90487003D01*
X104012215Y-90487003D01*
X104012215Y-90487000D01*
X104012215Y-90486996D01*
X103993398Y-90283923D01*
X103993397Y-90283917D01*
X103944545Y-90112223D01*
X103937582Y-90087750D01*
X103846673Y-89905179D01*
X103846670Y-89905175D01*
X103846670Y-89905174D01*
X103723765Y-89742421D01*
X103723764Y-89742420D01*
X103573041Y-89605019D01*
X103399637Y-89497652D01*
X103272849Y-89448534D01*
X103209459Y-89423977D01*
X103209458Y-89423976D01*
X103209456Y-89423976D01*
X103121407Y-89407516D01*
X103008979Y-89386500D01*
X103008976Y-89386500D01*
X102805024Y-89386500D01*
X102805020Y-89386500D01*
X102655116Y-89414522D01*
X102604544Y-89423976D01*
X102604542Y-89423976D01*
X102604540Y-89423977D01*
X102414368Y-89497650D01*
X102414363Y-89497652D01*
X102414358Y-89497654D01*
X102414358Y-89497655D01*
X102240958Y-89605019D01*
X102240957Y-89605019D01*
X102090235Y-89742420D01*
X102090234Y-89742421D01*
X101967329Y-89905174D01*
X101967328Y-89905177D01*
X101876418Y-90087750D01*
X101876416Y-90087755D01*
X101820602Y-90283917D01*
X101820601Y-90283923D01*
X101801785Y-90486996D01*
X101801785Y-90487003D01*
X88772215Y-90487003D01*
X88772215Y-90487000D01*
X88772215Y-90486996D01*
X88753398Y-90283923D01*
X88753397Y-90283917D01*
X88704545Y-90112223D01*
X88697582Y-90087750D01*
X88606673Y-89905179D01*
X88606670Y-89905175D01*
X88606670Y-89905174D01*
X88483765Y-89742421D01*
X88483764Y-89742420D01*
X88333041Y-89605019D01*
X88159637Y-89497652D01*
X88032849Y-89448534D01*
X87969459Y-89423977D01*
X87969458Y-89423976D01*
X87969456Y-89423976D01*
X87881407Y-89407516D01*
X87768979Y-89386500D01*
X87768976Y-89386500D01*
X87565024Y-89386500D01*
X87565020Y-89386500D01*
X87415116Y-89414522D01*
X87364544Y-89423976D01*
X87364542Y-89423976D01*
X87364540Y-89423977D01*
X87174368Y-89497650D01*
X87174363Y-89497652D01*
X87174358Y-89497654D01*
X87174358Y-89497655D01*
X87000958Y-89605019D01*
X87000957Y-89605019D01*
X86850235Y-89742420D01*
X86850234Y-89742421D01*
X86727329Y-89905174D01*
X86727328Y-89905177D01*
X86636418Y-90087750D01*
X86636416Y-90087755D01*
X86580602Y-90283917D01*
X86580601Y-90283923D01*
X86561785Y-90486996D01*
X86561785Y-90487003D01*
X56250000Y-90487003D01*
X56250000Y-88883603D01*
X78194222Y-88883603D01*
X78213261Y-89040408D01*
X78213264Y-89040422D01*
X78269278Y-89188121D01*
X78359018Y-89318131D01*
X78359018Y-89318132D01*
X78385955Y-89341995D01*
X78410750Y-89392916D01*
X78397786Y-89439421D01*
X78353781Y-89503173D01*
X78353778Y-89503178D01*
X78297764Y-89650877D01*
X78297761Y-89650891D01*
X78278722Y-89807696D01*
X78278722Y-89807703D01*
X78297761Y-89964508D01*
X78297764Y-89964522D01*
X78353778Y-90112221D01*
X78443516Y-90242229D01*
X78443517Y-90242230D01*
X78561760Y-90346983D01*
X78701635Y-90420396D01*
X78855015Y-90458200D01*
X78855019Y-90458200D01*
X79012981Y-90458200D01*
X79012985Y-90458200D01*
X79166365Y-90420396D01*
X79306240Y-90346983D01*
X79424483Y-90242230D01*
X79514220Y-90112223D01*
X79523500Y-90087755D01*
X79570235Y-89964522D01*
X79570237Y-89964518D01*
X79589278Y-89807700D01*
X79570237Y-89650882D01*
X79562213Y-89629725D01*
X79514221Y-89503178D01*
X79484307Y-89459841D01*
X79424483Y-89373170D01*
X79424481Y-89373168D01*
X79424481Y-89373167D01*
X79397544Y-89349304D01*
X79372749Y-89298383D01*
X79385714Y-89251877D01*
X79429717Y-89188127D01*
X79429721Y-89188121D01*
X79483051Y-89047500D01*
X79485737Y-89040418D01*
X79504778Y-88883600D01*
X79485737Y-88726782D01*
X79472386Y-88691578D01*
X79429721Y-88579078D01*
X79339983Y-88449070D01*
X79221740Y-88344317D01*
X79209639Y-88337966D01*
X79081866Y-88270904D01*
X78928487Y-88233100D01*
X78928485Y-88233100D01*
X78770515Y-88233100D01*
X78770512Y-88233100D01*
X78617133Y-88270904D01*
X78477261Y-88344316D01*
X78359016Y-88449070D01*
X78269279Y-88579078D01*
X78269278Y-88579078D01*
X78213264Y-88726777D01*
X78213261Y-88726791D01*
X78194222Y-88883596D01*
X78194222Y-88883603D01*
X56250000Y-88883603D01*
X56250000Y-87947003D01*
X86561785Y-87947003D01*
X86580601Y-88150076D01*
X86580602Y-88150082D01*
X86635868Y-88344317D01*
X86636418Y-88346250D01*
X86727327Y-88528821D01*
X86727328Y-88528822D01*
X86727329Y-88528825D01*
X86850234Y-88691578D01*
X86850235Y-88691579D01*
X86987637Y-88816836D01*
X87000959Y-88828981D01*
X87174363Y-88936348D01*
X87364544Y-89010024D01*
X87565024Y-89047500D01*
X87565026Y-89047500D01*
X87768974Y-89047500D01*
X87768976Y-89047500D01*
X87969456Y-89010024D01*
X88159637Y-88936348D01*
X88333041Y-88828981D01*
X88483764Y-88691579D01*
X88568722Y-88579077D01*
X88606670Y-88528825D01*
X88606670Y-88528824D01*
X88606673Y-88528821D01*
X88697582Y-88346250D01*
X88753397Y-88150083D01*
X88772215Y-87947003D01*
X101801785Y-87947003D01*
X101820601Y-88150076D01*
X101820602Y-88150082D01*
X101875868Y-88344317D01*
X101876418Y-88346250D01*
X101967327Y-88528821D01*
X101967328Y-88528822D01*
X101967329Y-88528825D01*
X102090234Y-88691578D01*
X102090235Y-88691579D01*
X102227637Y-88816836D01*
X102240959Y-88828981D01*
X102414363Y-88936348D01*
X102604544Y-89010024D01*
X102805024Y-89047500D01*
X102805026Y-89047500D01*
X103008974Y-89047500D01*
X103008976Y-89047500D01*
X103209456Y-89010024D01*
X103399637Y-88936348D01*
X103573041Y-88828981D01*
X103723764Y-88691579D01*
X103808722Y-88579077D01*
X103846670Y-88528825D01*
X103846670Y-88528824D01*
X103846673Y-88528821D01*
X103937582Y-88346250D01*
X103993397Y-88150083D01*
X104012215Y-87947003D01*
X110761785Y-87947003D01*
X110780601Y-88150076D01*
X110780602Y-88150082D01*
X110835868Y-88344317D01*
X110836418Y-88346250D01*
X110927327Y-88528821D01*
X110927328Y-88528822D01*
X110927329Y-88528825D01*
X111050234Y-88691578D01*
X111050235Y-88691579D01*
X111187637Y-88816836D01*
X111200959Y-88828981D01*
X111374363Y-88936348D01*
X111564544Y-89010024D01*
X111765024Y-89047500D01*
X111765026Y-89047500D01*
X111968974Y-89047500D01*
X111968976Y-89047500D01*
X112169456Y-89010024D01*
X112359637Y-88936348D01*
X112533041Y-88828981D01*
X112683764Y-88691579D01*
X112768722Y-88579077D01*
X112806670Y-88528825D01*
X112806670Y-88528824D01*
X112806673Y-88528821D01*
X112897582Y-88346250D01*
X112953397Y-88150083D01*
X112972215Y-87947003D01*
X126001785Y-87947003D01*
X126020601Y-88150076D01*
X126020602Y-88150082D01*
X126075868Y-88344317D01*
X126076418Y-88346250D01*
X126167327Y-88528821D01*
X126167328Y-88528822D01*
X126167329Y-88528825D01*
X126290234Y-88691578D01*
X126290235Y-88691579D01*
X126427637Y-88816836D01*
X126440959Y-88828981D01*
X126614363Y-88936348D01*
X126804544Y-89010024D01*
X127005024Y-89047500D01*
X127005026Y-89047500D01*
X127208974Y-89047500D01*
X127208976Y-89047500D01*
X127409456Y-89010024D01*
X127599637Y-88936348D01*
X127773041Y-88828981D01*
X127923764Y-88691579D01*
X128008722Y-88579077D01*
X128046670Y-88528825D01*
X128046670Y-88528824D01*
X128046673Y-88528821D01*
X128137582Y-88346250D01*
X128193397Y-88150083D01*
X128212215Y-87947000D01*
X128193397Y-87743917D01*
X128137582Y-87547750D01*
X128046673Y-87365179D01*
X128046670Y-87365175D01*
X128046670Y-87365174D01*
X127923765Y-87202421D01*
X127923764Y-87202420D01*
X127773041Y-87065019D01*
X127599637Y-86957652D01*
X127409456Y-86883976D01*
X127321407Y-86867516D01*
X127208979Y-86846500D01*
X127208976Y-86846500D01*
X127005024Y-86846500D01*
X127005020Y-86846500D01*
X126855116Y-86874522D01*
X126804544Y-86883976D01*
X126804542Y-86883976D01*
X126804540Y-86883977D01*
X126614368Y-86957650D01*
X126614363Y-86957652D01*
X126614358Y-86957654D01*
X126614358Y-86957655D01*
X126440958Y-87065019D01*
X126440957Y-87065019D01*
X126290235Y-87202420D01*
X126290234Y-87202421D01*
X126167329Y-87365174D01*
X126167328Y-87365177D01*
X126076418Y-87547750D01*
X126076416Y-87547755D01*
X126020602Y-87743917D01*
X126020601Y-87743923D01*
X126001785Y-87946996D01*
X126001785Y-87947003D01*
X112972215Y-87947003D01*
X112972215Y-87947000D01*
X112953397Y-87743917D01*
X112897582Y-87547750D01*
X112806673Y-87365179D01*
X112806670Y-87365175D01*
X112806670Y-87365174D01*
X112683765Y-87202421D01*
X112683764Y-87202420D01*
X112533041Y-87065019D01*
X112359637Y-86957652D01*
X112169456Y-86883976D01*
X112081407Y-86867516D01*
X111968979Y-86846500D01*
X111968976Y-86846500D01*
X111765024Y-86846500D01*
X111765020Y-86846500D01*
X111615116Y-86874522D01*
X111564544Y-86883976D01*
X111564542Y-86883976D01*
X111564540Y-86883977D01*
X111374368Y-86957650D01*
X111374363Y-86957652D01*
X111374358Y-86957654D01*
X111374358Y-86957655D01*
X111200958Y-87065019D01*
X111200957Y-87065019D01*
X111050235Y-87202420D01*
X111050234Y-87202421D01*
X110927329Y-87365174D01*
X110927328Y-87365177D01*
X110836418Y-87547750D01*
X110836416Y-87547755D01*
X110780602Y-87743917D01*
X110780601Y-87743923D01*
X110761785Y-87946996D01*
X110761785Y-87947003D01*
X104012215Y-87947003D01*
X104012215Y-87947000D01*
X103993397Y-87743917D01*
X103937582Y-87547750D01*
X103846673Y-87365179D01*
X103846670Y-87365175D01*
X103846670Y-87365174D01*
X103723765Y-87202421D01*
X103723764Y-87202420D01*
X103573041Y-87065019D01*
X103399637Y-86957652D01*
X103209456Y-86883976D01*
X103121407Y-86867516D01*
X103008979Y-86846500D01*
X103008976Y-86846500D01*
X102805024Y-86846500D01*
X102805020Y-86846500D01*
X102655116Y-86874522D01*
X102604544Y-86883976D01*
X102604542Y-86883976D01*
X102604540Y-86883977D01*
X102414368Y-86957650D01*
X102414363Y-86957652D01*
X102414358Y-86957654D01*
X102414358Y-86957655D01*
X102240958Y-87065019D01*
X102240957Y-87065019D01*
X102090235Y-87202420D01*
X102090234Y-87202421D01*
X101967329Y-87365174D01*
X101967328Y-87365177D01*
X101876418Y-87547750D01*
X101876416Y-87547755D01*
X101820602Y-87743917D01*
X101820601Y-87743923D01*
X101801785Y-87946996D01*
X101801785Y-87947003D01*
X88772215Y-87947003D01*
X88772215Y-87947000D01*
X88753397Y-87743917D01*
X88697582Y-87547750D01*
X88606673Y-87365179D01*
X88606670Y-87365175D01*
X88606670Y-87365174D01*
X88483765Y-87202421D01*
X88483764Y-87202420D01*
X88333041Y-87065019D01*
X88159637Y-86957652D01*
X87969456Y-86883976D01*
X87881407Y-86867516D01*
X87768979Y-86846500D01*
X87768976Y-86846500D01*
X87565024Y-86846500D01*
X87565020Y-86846500D01*
X87415116Y-86874522D01*
X87364544Y-86883976D01*
X87364542Y-86883976D01*
X87364540Y-86883977D01*
X87174368Y-86957650D01*
X87174363Y-86957652D01*
X87174358Y-86957654D01*
X87174358Y-86957655D01*
X87000958Y-87065019D01*
X87000957Y-87065019D01*
X86850235Y-87202420D01*
X86850234Y-87202421D01*
X86727329Y-87365174D01*
X86727328Y-87365177D01*
X86636418Y-87547750D01*
X86636416Y-87547755D01*
X86580602Y-87743917D01*
X86580601Y-87743923D01*
X86561785Y-87946996D01*
X86561785Y-87947003D01*
X56250000Y-87947003D01*
X56250000Y-85900003D01*
X67101822Y-85900003D01*
X67120861Y-86056808D01*
X67120864Y-86056822D01*
X67176878Y-86204521D01*
X67235176Y-86288980D01*
X67266617Y-86334530D01*
X67384860Y-86439283D01*
X67524735Y-86512696D01*
X67678115Y-86550500D01*
X67678119Y-86550500D01*
X67836081Y-86550500D01*
X67836085Y-86550500D01*
X67989465Y-86512696D01*
X68129340Y-86439283D01*
X68247583Y-86334530D01*
X68337320Y-86204523D01*
X68393337Y-86056818D01*
X68412378Y-85900000D01*
X68399130Y-85790896D01*
X68394782Y-85755083D01*
X68393337Y-85743182D01*
X68357251Y-85648030D01*
X68337321Y-85595478D01*
X68247583Y-85465470D01*
X68129340Y-85360717D01*
X68080383Y-85335022D01*
X67989466Y-85287304D01*
X67836087Y-85249500D01*
X67836085Y-85249500D01*
X67678115Y-85249500D01*
X67678112Y-85249500D01*
X67524733Y-85287304D01*
X67384861Y-85360716D01*
X67266616Y-85465470D01*
X67176879Y-85595478D01*
X67176878Y-85595478D01*
X67120864Y-85743177D01*
X67120861Y-85743191D01*
X67101822Y-85899996D01*
X67101822Y-85900003D01*
X56250000Y-85900003D01*
X56250000Y-85215803D01*
X75516222Y-85215803D01*
X75535261Y-85372608D01*
X75535264Y-85372622D01*
X75591278Y-85520321D01*
X75679429Y-85648030D01*
X75681017Y-85650330D01*
X75799260Y-85755083D01*
X75939135Y-85828496D01*
X76092515Y-85866300D01*
X76092519Y-85866300D01*
X76250481Y-85866300D01*
X76250485Y-85866300D01*
X76403865Y-85828496D01*
X76543740Y-85755083D01*
X76603450Y-85702184D01*
X76656988Y-85683710D01*
X76701590Y-85702184D01*
X76718855Y-85717479D01*
X76718860Y-85717483D01*
X76858735Y-85790896D01*
X77012115Y-85828700D01*
X77012119Y-85828700D01*
X77170081Y-85828700D01*
X77170085Y-85828700D01*
X77323465Y-85790896D01*
X77463340Y-85717483D01*
X77581583Y-85612730D01*
X77671320Y-85482723D01*
X77727337Y-85335018D01*
X77741813Y-85215796D01*
X77742091Y-85213503D01*
X78257422Y-85213503D01*
X78276461Y-85370308D01*
X78276464Y-85370322D01*
X78332478Y-85518021D01*
X78397851Y-85612730D01*
X78422217Y-85648030D01*
X78540460Y-85752783D01*
X78680335Y-85826196D01*
X78833715Y-85864000D01*
X78833719Y-85864000D01*
X78991681Y-85864000D01*
X78991685Y-85864000D01*
X79145065Y-85826196D01*
X79284940Y-85752783D01*
X79403183Y-85648030D01*
X79492920Y-85518023D01*
X79506308Y-85482723D01*
X79535024Y-85407003D01*
X86561785Y-85407003D01*
X86580601Y-85610076D01*
X86580602Y-85610082D01*
X86621860Y-85755085D01*
X86636418Y-85806250D01*
X86727327Y-85988821D01*
X86727328Y-85988822D01*
X86727329Y-85988825D01*
X86850234Y-86151578D01*
X86850235Y-86151579D01*
X86987637Y-86276836D01*
X87000959Y-86288981D01*
X87174363Y-86396348D01*
X87364544Y-86470024D01*
X87565024Y-86507500D01*
X87565026Y-86507500D01*
X87768974Y-86507500D01*
X87768976Y-86507500D01*
X87969456Y-86470024D01*
X88159637Y-86396348D01*
X88333041Y-86288981D01*
X88483764Y-86151579D01*
X88606673Y-85988821D01*
X88697582Y-85806250D01*
X88753397Y-85610083D01*
X88754751Y-85595478D01*
X88772215Y-85407003D01*
X101801785Y-85407003D01*
X101820601Y-85610076D01*
X101820602Y-85610082D01*
X101861860Y-85755085D01*
X101876418Y-85806250D01*
X101967327Y-85988821D01*
X101967328Y-85988822D01*
X101967329Y-85988825D01*
X102090234Y-86151578D01*
X102090235Y-86151579D01*
X102227637Y-86276836D01*
X102240959Y-86288981D01*
X102414363Y-86396348D01*
X102604544Y-86470024D01*
X102805024Y-86507500D01*
X102805026Y-86507500D01*
X103008974Y-86507500D01*
X103008976Y-86507500D01*
X103209456Y-86470024D01*
X103399637Y-86396348D01*
X103573041Y-86288981D01*
X103723764Y-86151579D01*
X103846673Y-85988821D01*
X103937582Y-85806250D01*
X103993397Y-85610083D01*
X103994751Y-85595478D01*
X104012215Y-85407003D01*
X110761785Y-85407003D01*
X110780601Y-85610076D01*
X110780602Y-85610082D01*
X110821860Y-85755085D01*
X110836418Y-85806250D01*
X110927327Y-85988821D01*
X110927328Y-85988822D01*
X110927329Y-85988825D01*
X111050234Y-86151578D01*
X111050235Y-86151579D01*
X111187637Y-86276836D01*
X111200959Y-86288981D01*
X111374363Y-86396348D01*
X111564544Y-86470024D01*
X111765024Y-86507500D01*
X111765026Y-86507500D01*
X111968974Y-86507500D01*
X111968976Y-86507500D01*
X112169456Y-86470024D01*
X112359637Y-86396348D01*
X112533041Y-86288981D01*
X112683764Y-86151579D01*
X112806673Y-85988821D01*
X112897582Y-85806250D01*
X112953397Y-85610083D01*
X112954751Y-85595478D01*
X112972215Y-85407003D01*
X126001785Y-85407003D01*
X126020601Y-85610076D01*
X126020602Y-85610082D01*
X126061860Y-85755085D01*
X126076418Y-85806250D01*
X126167327Y-85988821D01*
X126167328Y-85988822D01*
X126167329Y-85988825D01*
X126290234Y-86151578D01*
X126290235Y-86151579D01*
X126427637Y-86276836D01*
X126440959Y-86288981D01*
X126614363Y-86396348D01*
X126804544Y-86470024D01*
X127005024Y-86507500D01*
X127005026Y-86507500D01*
X127208974Y-86507500D01*
X127208976Y-86507500D01*
X127409456Y-86470024D01*
X127599637Y-86396348D01*
X127773041Y-86288981D01*
X127923764Y-86151579D01*
X128046673Y-85988821D01*
X128137582Y-85806250D01*
X128193397Y-85610083D01*
X128194751Y-85595478D01*
X128212215Y-85407003D01*
X128212215Y-85406996D01*
X128193398Y-85203923D01*
X128193397Y-85203917D01*
X128152159Y-85058982D01*
X128137582Y-85007750D01*
X128046673Y-84825179D01*
X128046670Y-84825175D01*
X128046670Y-84825174D01*
X127923765Y-84662421D01*
X127923764Y-84662420D01*
X127773041Y-84525019D01*
X127599637Y-84417652D01*
X127409456Y-84343976D01*
X127321407Y-84327516D01*
X127208979Y-84306500D01*
X127208976Y-84306500D01*
X127005024Y-84306500D01*
X127005020Y-84306500D01*
X126855116Y-84334522D01*
X126804544Y-84343976D01*
X126804542Y-84343976D01*
X126804540Y-84343977D01*
X126620491Y-84415278D01*
X126614363Y-84417652D01*
X126614358Y-84417654D01*
X126614358Y-84417655D01*
X126440958Y-84525019D01*
X126440957Y-84525019D01*
X126290235Y-84662420D01*
X126290234Y-84662421D01*
X126167329Y-84825174D01*
X126167328Y-84825177D01*
X126076418Y-85007750D01*
X126076416Y-85007755D01*
X126020602Y-85203917D01*
X126020601Y-85203923D01*
X126001785Y-85406996D01*
X126001785Y-85407003D01*
X112972215Y-85407003D01*
X112972215Y-85406996D01*
X112953398Y-85203923D01*
X112953397Y-85203917D01*
X112912159Y-85058982D01*
X112897582Y-85007750D01*
X112806673Y-84825179D01*
X112806670Y-84825175D01*
X112806670Y-84825174D01*
X112683765Y-84662421D01*
X112683764Y-84662420D01*
X112533041Y-84525019D01*
X112359637Y-84417652D01*
X112169456Y-84343976D01*
X112081407Y-84327516D01*
X111968979Y-84306500D01*
X111968976Y-84306500D01*
X111765024Y-84306500D01*
X111765020Y-84306500D01*
X111615116Y-84334522D01*
X111564544Y-84343976D01*
X111564542Y-84343976D01*
X111564540Y-84343977D01*
X111380491Y-84415278D01*
X111374363Y-84417652D01*
X111374358Y-84417654D01*
X111374358Y-84417655D01*
X111200958Y-84525019D01*
X111200957Y-84525019D01*
X111050235Y-84662420D01*
X111050234Y-84662421D01*
X110927329Y-84825174D01*
X110927328Y-84825177D01*
X110836418Y-85007750D01*
X110836416Y-85007755D01*
X110780602Y-85203917D01*
X110780601Y-85203923D01*
X110761785Y-85406996D01*
X110761785Y-85407003D01*
X104012215Y-85407003D01*
X104012215Y-85406996D01*
X103993398Y-85203923D01*
X103993397Y-85203917D01*
X103952159Y-85058982D01*
X103937582Y-85007750D01*
X103846673Y-84825179D01*
X103846670Y-84825175D01*
X103846670Y-84825174D01*
X103723765Y-84662421D01*
X103723764Y-84662420D01*
X103573041Y-84525019D01*
X103399637Y-84417652D01*
X103209456Y-84343976D01*
X103121407Y-84327516D01*
X103008979Y-84306500D01*
X103008976Y-84306500D01*
X102805024Y-84306500D01*
X102805020Y-84306500D01*
X102655116Y-84334522D01*
X102604544Y-84343976D01*
X102604542Y-84343976D01*
X102604540Y-84343977D01*
X102420491Y-84415278D01*
X102414363Y-84417652D01*
X102414358Y-84417654D01*
X102414358Y-84417655D01*
X102240958Y-84525019D01*
X102240957Y-84525019D01*
X102090235Y-84662420D01*
X102090234Y-84662421D01*
X101967329Y-84825174D01*
X101967328Y-84825177D01*
X101876418Y-85007750D01*
X101876416Y-85007755D01*
X101820602Y-85203917D01*
X101820601Y-85203923D01*
X101801785Y-85406996D01*
X101801785Y-85407003D01*
X88772215Y-85407003D01*
X88772215Y-85406996D01*
X88753398Y-85203923D01*
X88753397Y-85203917D01*
X88712159Y-85058982D01*
X88697582Y-85007750D01*
X88606673Y-84825179D01*
X88606670Y-84825175D01*
X88606670Y-84825174D01*
X88527098Y-84719803D01*
X99978622Y-84719803D01*
X99997661Y-84876608D01*
X99997664Y-84876622D01*
X100053678Y-85024321D01*
X100077603Y-85058982D01*
X100143417Y-85154330D01*
X100261660Y-85259083D01*
X100401535Y-85332496D01*
X100554915Y-85370300D01*
X100554919Y-85370300D01*
X100712881Y-85370300D01*
X100712885Y-85370300D01*
X100866265Y-85332496D01*
X101006140Y-85259083D01*
X101124383Y-85154330D01*
X101214120Y-85024323D01*
X101215236Y-85021382D01*
X101256992Y-84911278D01*
X101270137Y-84876618D01*
X101289178Y-84719800D01*
X101288023Y-84710289D01*
X101270138Y-84562991D01*
X101270137Y-84562982D01*
X101215021Y-84417652D01*
X101214121Y-84415278D01*
X101124383Y-84285270D01*
X101006140Y-84180517D01*
X100994039Y-84174166D01*
X100866266Y-84107104D01*
X100712887Y-84069300D01*
X100712885Y-84069300D01*
X100554915Y-84069300D01*
X100554912Y-84069300D01*
X100401533Y-84107104D01*
X100261661Y-84180516D01*
X100143416Y-84285270D01*
X100053679Y-84415278D01*
X100053678Y-84415278D01*
X99997664Y-84562977D01*
X99997661Y-84562991D01*
X99978622Y-84719796D01*
X99978622Y-84719803D01*
X88527098Y-84719803D01*
X88483765Y-84662421D01*
X88483764Y-84662420D01*
X88333041Y-84525019D01*
X88159637Y-84417652D01*
X87969456Y-84343976D01*
X87881407Y-84327516D01*
X87768979Y-84306500D01*
X87768976Y-84306500D01*
X87565024Y-84306500D01*
X87565020Y-84306500D01*
X87415116Y-84334522D01*
X87364544Y-84343976D01*
X87364542Y-84343976D01*
X87364540Y-84343977D01*
X87180491Y-84415278D01*
X87174363Y-84417652D01*
X87174358Y-84417654D01*
X87174358Y-84417655D01*
X87000958Y-84525019D01*
X87000957Y-84525019D01*
X86850235Y-84662420D01*
X86850234Y-84662421D01*
X86727329Y-84825174D01*
X86727328Y-84825177D01*
X86636418Y-85007750D01*
X86636416Y-85007755D01*
X86580602Y-85203917D01*
X86580601Y-85203923D01*
X86561785Y-85406996D01*
X86561785Y-85407003D01*
X79535024Y-85407003D01*
X79548063Y-85372622D01*
X79548937Y-85370318D01*
X79563607Y-85249500D01*
X79567978Y-85213503D01*
X79567978Y-85213496D01*
X79548938Y-85056691D01*
X79548937Y-85056682D01*
X79535548Y-85021377D01*
X79492921Y-84908978D01*
X79403183Y-84778970D01*
X79363337Y-84743670D01*
X79284940Y-84674217D01*
X79262463Y-84662420D01*
X79145066Y-84600804D01*
X78991687Y-84563000D01*
X78991685Y-84563000D01*
X78833715Y-84563000D01*
X78833712Y-84563000D01*
X78680333Y-84600804D01*
X78540461Y-84674216D01*
X78422216Y-84778970D01*
X78332479Y-84908978D01*
X78332478Y-84908978D01*
X78276464Y-85056677D01*
X78276461Y-85056691D01*
X78257422Y-85213496D01*
X78257422Y-85213503D01*
X77742091Y-85213503D01*
X77746378Y-85178203D01*
X77746378Y-85178196D01*
X77727338Y-85021391D01*
X77727337Y-85021382D01*
X77719313Y-85000225D01*
X77671321Y-84873678D01*
X77581583Y-84743670D01*
X77554639Y-84719800D01*
X77463340Y-84638917D01*
X77390723Y-84600804D01*
X77323466Y-84565504D01*
X77170087Y-84527700D01*
X77170085Y-84527700D01*
X77012115Y-84527700D01*
X77012112Y-84527700D01*
X76858737Y-84565503D01*
X76718861Y-84638916D01*
X76659148Y-84691815D01*
X76605608Y-84710289D01*
X76561007Y-84691814D01*
X76543744Y-84676520D01*
X76543735Y-84676514D01*
X76403866Y-84603104D01*
X76250487Y-84565300D01*
X76250485Y-84565300D01*
X76092515Y-84565300D01*
X76092512Y-84565300D01*
X75939133Y-84603104D01*
X75799261Y-84676516D01*
X75681016Y-84781270D01*
X75591279Y-84911278D01*
X75591278Y-84911278D01*
X75535264Y-85058977D01*
X75535261Y-85058991D01*
X75516222Y-85215796D01*
X75516222Y-85215803D01*
X56250000Y-85215803D01*
X56250000Y-82500003D01*
X64344722Y-82500003D01*
X64363761Y-82656808D01*
X64363764Y-82656822D01*
X64419778Y-82804521D01*
X64509516Y-82934529D01*
X64509517Y-82934530D01*
X64627760Y-83039283D01*
X64767635Y-83112696D01*
X64921015Y-83150500D01*
X64921019Y-83150500D01*
X65078981Y-83150500D01*
X65078985Y-83150500D01*
X65232365Y-83112696D01*
X65372240Y-83039283D01*
X65490483Y-82934530D01*
X65537093Y-82867003D01*
X86561785Y-82867003D01*
X86580601Y-83070076D01*
X86580602Y-83070082D01*
X86636416Y-83266244D01*
X86636418Y-83266250D01*
X86727327Y-83448821D01*
X86727328Y-83448822D01*
X86727329Y-83448825D01*
X86850234Y-83611578D01*
X86850235Y-83611579D01*
X86987637Y-83736836D01*
X87000959Y-83748981D01*
X87174363Y-83856348D01*
X87364544Y-83930024D01*
X87565024Y-83967500D01*
X87565026Y-83967500D01*
X87768974Y-83967500D01*
X87768976Y-83967500D01*
X87969456Y-83930024D01*
X88159637Y-83856348D01*
X88333041Y-83748981D01*
X88483764Y-83611579D01*
X88606673Y-83448821D01*
X88697582Y-83266250D01*
X88753397Y-83070083D01*
X88772215Y-82867003D01*
X101801785Y-82867003D01*
X101820601Y-83070076D01*
X101820602Y-83070082D01*
X101876416Y-83266244D01*
X101876418Y-83266250D01*
X101967327Y-83448821D01*
X101967328Y-83448822D01*
X101967329Y-83448825D01*
X102090234Y-83611578D01*
X102090235Y-83611579D01*
X102227637Y-83736836D01*
X102240959Y-83748981D01*
X102414363Y-83856348D01*
X102604544Y-83930024D01*
X102805024Y-83967500D01*
X102805026Y-83967500D01*
X103008974Y-83967500D01*
X103008976Y-83967500D01*
X103209456Y-83930024D01*
X103399637Y-83856348D01*
X103573041Y-83748981D01*
X103723764Y-83611579D01*
X103846673Y-83448821D01*
X103937582Y-83266250D01*
X103993397Y-83070083D01*
X104012215Y-82867003D01*
X110761785Y-82867003D01*
X110780601Y-83070076D01*
X110780602Y-83070082D01*
X110836416Y-83266244D01*
X110836418Y-83266250D01*
X110927327Y-83448821D01*
X110927328Y-83448822D01*
X110927329Y-83448825D01*
X111050234Y-83611578D01*
X111050235Y-83611579D01*
X111187637Y-83736836D01*
X111200959Y-83748981D01*
X111374363Y-83856348D01*
X111564544Y-83930024D01*
X111765024Y-83967500D01*
X111765026Y-83967500D01*
X111968974Y-83967500D01*
X111968976Y-83967500D01*
X112169456Y-83930024D01*
X112359637Y-83856348D01*
X112533041Y-83748981D01*
X112683764Y-83611579D01*
X112806673Y-83448821D01*
X112897582Y-83266250D01*
X112953397Y-83070083D01*
X112972215Y-82867003D01*
X126001785Y-82867003D01*
X126020601Y-83070076D01*
X126020602Y-83070082D01*
X126076416Y-83266244D01*
X126076418Y-83266250D01*
X126167327Y-83448821D01*
X126167328Y-83448822D01*
X126167329Y-83448825D01*
X126290234Y-83611578D01*
X126290235Y-83611579D01*
X126427637Y-83736836D01*
X126440959Y-83748981D01*
X126614363Y-83856348D01*
X126804544Y-83930024D01*
X127005024Y-83967500D01*
X127005026Y-83967500D01*
X127208974Y-83967500D01*
X127208976Y-83967500D01*
X127409456Y-83930024D01*
X127599637Y-83856348D01*
X127773041Y-83748981D01*
X127923764Y-83611579D01*
X128046673Y-83448821D01*
X128137582Y-83266250D01*
X128193397Y-83070083D01*
X128212215Y-82867000D01*
X128193397Y-82663917D01*
X128137582Y-82467750D01*
X128046673Y-82285179D01*
X128046670Y-82285175D01*
X128046670Y-82285174D01*
X127923765Y-82122421D01*
X127923764Y-82122420D01*
X127773041Y-81985019D01*
X127733790Y-81960716D01*
X127599637Y-81877652D01*
X127409456Y-81803976D01*
X127321407Y-81787516D01*
X127208979Y-81766500D01*
X127208976Y-81766500D01*
X127005024Y-81766500D01*
X127005020Y-81766500D01*
X126855116Y-81794522D01*
X126804544Y-81803976D01*
X126804542Y-81803976D01*
X126804540Y-81803977D01*
X126687032Y-81849500D01*
X126614363Y-81877652D01*
X126614358Y-81877654D01*
X126614358Y-81877655D01*
X126440958Y-81985019D01*
X126440957Y-81985019D01*
X126290235Y-82122420D01*
X126290234Y-82122421D01*
X126167329Y-82285174D01*
X126167328Y-82285177D01*
X126076418Y-82467750D01*
X126076416Y-82467755D01*
X126020602Y-82663917D01*
X126020601Y-82663923D01*
X126001785Y-82866996D01*
X126001785Y-82867003D01*
X112972215Y-82867003D01*
X112972215Y-82867000D01*
X112953397Y-82663917D01*
X112897582Y-82467750D01*
X112806673Y-82285179D01*
X112806670Y-82285175D01*
X112806670Y-82285174D01*
X112683765Y-82122421D01*
X112683764Y-82122420D01*
X112533041Y-81985019D01*
X112493790Y-81960716D01*
X112359637Y-81877652D01*
X112169456Y-81803976D01*
X112081407Y-81787516D01*
X111968979Y-81766500D01*
X111968976Y-81766500D01*
X111765024Y-81766500D01*
X111765020Y-81766500D01*
X111615116Y-81794522D01*
X111564544Y-81803976D01*
X111564542Y-81803976D01*
X111564540Y-81803977D01*
X111447032Y-81849500D01*
X111374363Y-81877652D01*
X111374358Y-81877654D01*
X111374358Y-81877655D01*
X111200958Y-81985019D01*
X111200957Y-81985019D01*
X111050235Y-82122420D01*
X111050234Y-82122421D01*
X110927329Y-82285174D01*
X110927328Y-82285177D01*
X110836418Y-82467750D01*
X110836416Y-82467755D01*
X110780602Y-82663917D01*
X110780601Y-82663923D01*
X110761785Y-82866996D01*
X110761785Y-82867003D01*
X104012215Y-82867003D01*
X104012215Y-82867000D01*
X103993397Y-82663917D01*
X103937582Y-82467750D01*
X103846673Y-82285179D01*
X103846670Y-82285175D01*
X103846670Y-82285174D01*
X103723765Y-82122421D01*
X103723764Y-82122420D01*
X103573041Y-81985019D01*
X103533790Y-81960716D01*
X103399637Y-81877652D01*
X103209456Y-81803976D01*
X103121407Y-81787516D01*
X103008979Y-81766500D01*
X103008976Y-81766500D01*
X102805024Y-81766500D01*
X102805020Y-81766500D01*
X102655116Y-81794522D01*
X102604544Y-81803976D01*
X102604542Y-81803976D01*
X102604540Y-81803977D01*
X102487032Y-81849500D01*
X102414363Y-81877652D01*
X102414358Y-81877654D01*
X102414358Y-81877655D01*
X102240958Y-81985019D01*
X102240957Y-81985019D01*
X102090235Y-82122420D01*
X102090234Y-82122421D01*
X101967329Y-82285174D01*
X101967328Y-82285177D01*
X101876418Y-82467750D01*
X101876416Y-82467755D01*
X101820602Y-82663917D01*
X101820601Y-82663923D01*
X101801785Y-82866996D01*
X101801785Y-82867003D01*
X88772215Y-82867003D01*
X88772215Y-82867000D01*
X88753397Y-82663917D01*
X88697582Y-82467750D01*
X88606673Y-82285179D01*
X88606670Y-82285175D01*
X88606670Y-82285174D01*
X88483765Y-82122421D01*
X88483764Y-82122420D01*
X88333041Y-81985019D01*
X88293790Y-81960716D01*
X88159637Y-81877652D01*
X87969456Y-81803976D01*
X87881407Y-81787516D01*
X87768979Y-81766500D01*
X87768976Y-81766500D01*
X87565024Y-81766500D01*
X87565020Y-81766500D01*
X87415116Y-81794522D01*
X87364544Y-81803976D01*
X87364542Y-81803976D01*
X87364540Y-81803977D01*
X87247032Y-81849500D01*
X87174363Y-81877652D01*
X87174358Y-81877654D01*
X87174358Y-81877655D01*
X87000958Y-81985019D01*
X87000957Y-81985019D01*
X86850235Y-82122420D01*
X86850234Y-82122421D01*
X86727329Y-82285174D01*
X86727328Y-82285177D01*
X86636418Y-82467750D01*
X86636416Y-82467755D01*
X86580602Y-82663917D01*
X86580601Y-82663923D01*
X86561785Y-82866996D01*
X86561785Y-82867003D01*
X65537093Y-82867003D01*
X65580220Y-82804523D01*
X65636237Y-82656818D01*
X65655278Y-82500000D01*
X65651362Y-82467750D01*
X65636238Y-82343191D01*
X65636237Y-82343182D01*
X65628213Y-82322025D01*
X65580221Y-82195478D01*
X65490483Y-82065470D01*
X65372240Y-81960717D01*
X65360139Y-81954366D01*
X65232366Y-81887304D01*
X65078987Y-81849500D01*
X65078985Y-81849500D01*
X64921015Y-81849500D01*
X64921012Y-81849500D01*
X64767633Y-81887304D01*
X64627761Y-81960716D01*
X64509516Y-82065470D01*
X64419779Y-82195478D01*
X64419778Y-82195478D01*
X64363764Y-82343177D01*
X64363761Y-82343191D01*
X64344722Y-82499996D01*
X64344722Y-82500003D01*
X56250000Y-82500003D01*
X56250000Y-81306503D01*
X73038322Y-81306503D01*
X73057361Y-81463308D01*
X73057364Y-81463322D01*
X73113378Y-81611021D01*
X73203116Y-81741029D01*
X73203117Y-81741030D01*
X73321360Y-81845783D01*
X73461235Y-81919196D01*
X73614615Y-81957000D01*
X73614619Y-81957000D01*
X73772581Y-81957000D01*
X73772585Y-81957000D01*
X73925965Y-81919196D01*
X74065840Y-81845783D01*
X74184083Y-81741030D01*
X74273820Y-81611023D01*
X74329837Y-81463318D01*
X74347682Y-81316349D01*
X74348878Y-81306503D01*
X74348878Y-81306496D01*
X74329838Y-81149691D01*
X74329837Y-81149682D01*
X74300216Y-81071578D01*
X74273821Y-81001978D01*
X74184083Y-80871970D01*
X74173615Y-80862696D01*
X74065840Y-80767217D01*
X73987785Y-80726250D01*
X73925966Y-80693804D01*
X73772587Y-80656000D01*
X73772585Y-80656000D01*
X73614615Y-80656000D01*
X73614612Y-80656000D01*
X73461233Y-80693804D01*
X73321361Y-80767216D01*
X73203116Y-80871970D01*
X73113379Y-81001978D01*
X73113378Y-81001978D01*
X73057364Y-81149677D01*
X73057361Y-81149691D01*
X73038322Y-81306496D01*
X73038322Y-81306503D01*
X56250000Y-81306503D01*
X56250000Y-80250003D01*
X83844722Y-80250003D01*
X83863761Y-80406808D01*
X83863764Y-80406822D01*
X83919778Y-80554521D01*
X83989824Y-80656000D01*
X84009517Y-80684530D01*
X84127760Y-80789283D01*
X84267635Y-80862696D01*
X84421015Y-80900500D01*
X84421019Y-80900500D01*
X84578981Y-80900500D01*
X84578985Y-80900500D01*
X84732365Y-80862696D01*
X84872240Y-80789283D01*
X84990483Y-80684530D01*
X85080220Y-80554523D01*
X85136237Y-80406818D01*
X85145928Y-80327003D01*
X86561785Y-80327003D01*
X86580601Y-80530076D01*
X86580602Y-80530082D01*
X86624547Y-80684529D01*
X86636418Y-80726250D01*
X86727327Y-80908821D01*
X86727328Y-80908822D01*
X86727329Y-80908825D01*
X86850234Y-81071578D01*
X86850235Y-81071579D01*
X86935911Y-81149682D01*
X87000959Y-81208981D01*
X87174363Y-81316348D01*
X87364544Y-81390024D01*
X87565024Y-81427500D01*
X87565026Y-81427500D01*
X87768974Y-81427500D01*
X87768976Y-81427500D01*
X87969456Y-81390024D01*
X88159637Y-81316348D01*
X88333041Y-81208981D01*
X88483764Y-81071579D01*
X88606673Y-80908821D01*
X88697582Y-80726250D01*
X88753397Y-80530083D01*
X88772215Y-80327003D01*
X101801785Y-80327003D01*
X101820601Y-80530076D01*
X101820602Y-80530082D01*
X101864547Y-80684529D01*
X101876418Y-80726250D01*
X101967327Y-80908821D01*
X101967328Y-80908822D01*
X101967329Y-80908825D01*
X102090234Y-81071578D01*
X102090235Y-81071579D01*
X102175911Y-81149682D01*
X102240959Y-81208981D01*
X102414363Y-81316348D01*
X102604544Y-81390024D01*
X102805024Y-81427500D01*
X102805026Y-81427500D01*
X103008974Y-81427500D01*
X103008976Y-81427500D01*
X103209456Y-81390024D01*
X103399637Y-81316348D01*
X103573041Y-81208981D01*
X103723764Y-81071579D01*
X103846673Y-80908821D01*
X103937582Y-80726250D01*
X103993397Y-80530083D01*
X104012215Y-80327003D01*
X110761785Y-80327003D01*
X110780601Y-80530076D01*
X110780602Y-80530082D01*
X110824547Y-80684529D01*
X110836418Y-80726250D01*
X110927327Y-80908821D01*
X110927328Y-80908822D01*
X110927329Y-80908825D01*
X111050234Y-81071578D01*
X111050235Y-81071579D01*
X111135911Y-81149682D01*
X111200959Y-81208981D01*
X111374363Y-81316348D01*
X111564544Y-81390024D01*
X111765024Y-81427500D01*
X111765026Y-81427500D01*
X111968974Y-81427500D01*
X111968976Y-81427500D01*
X112169456Y-81390024D01*
X112359637Y-81316348D01*
X112533041Y-81208981D01*
X112683764Y-81071579D01*
X112806673Y-80908821D01*
X112897582Y-80726250D01*
X112953397Y-80530083D01*
X112972215Y-80327003D01*
X126001785Y-80327003D01*
X126020601Y-80530076D01*
X126020602Y-80530082D01*
X126064547Y-80684529D01*
X126076418Y-80726250D01*
X126167327Y-80908821D01*
X126167328Y-80908822D01*
X126167329Y-80908825D01*
X126290234Y-81071578D01*
X126290235Y-81071579D01*
X126375911Y-81149682D01*
X126440959Y-81208981D01*
X126614363Y-81316348D01*
X126804544Y-81390024D01*
X127005024Y-81427500D01*
X127005026Y-81427500D01*
X127208974Y-81427500D01*
X127208976Y-81427500D01*
X127409456Y-81390024D01*
X127599637Y-81316348D01*
X127773041Y-81208981D01*
X127923764Y-81071579D01*
X128046673Y-80908821D01*
X128137582Y-80726250D01*
X128193397Y-80530083D01*
X128212215Y-80327000D01*
X128212215Y-80326996D01*
X128193398Y-80123923D01*
X128193397Y-80123917D01*
X128142626Y-79945478D01*
X128137582Y-79927750D01*
X128046673Y-79745179D01*
X128046670Y-79745175D01*
X128046670Y-79745174D01*
X127923765Y-79582421D01*
X127923764Y-79582420D01*
X127773041Y-79445019D01*
X127599637Y-79337652D01*
X127409456Y-79263976D01*
X127321407Y-79247516D01*
X127208979Y-79226500D01*
X127208976Y-79226500D01*
X127005024Y-79226500D01*
X127005020Y-79226500D01*
X126855116Y-79254522D01*
X126804544Y-79263976D01*
X126804542Y-79263976D01*
X126804540Y-79263977D01*
X126614368Y-79337650D01*
X126614363Y-79337652D01*
X126614358Y-79337654D01*
X126614358Y-79337655D01*
X126440958Y-79445019D01*
X126440957Y-79445019D01*
X126290235Y-79582420D01*
X126290234Y-79582421D01*
X126167329Y-79745174D01*
X126167328Y-79745177D01*
X126076418Y-79927750D01*
X126076416Y-79927755D01*
X126020602Y-80123917D01*
X126020601Y-80123923D01*
X126001785Y-80326996D01*
X126001785Y-80327003D01*
X112972215Y-80327003D01*
X112972215Y-80327000D01*
X112972215Y-80326996D01*
X112953398Y-80123923D01*
X112953397Y-80123917D01*
X112902626Y-79945478D01*
X112897582Y-79927750D01*
X112806673Y-79745179D01*
X112806670Y-79745175D01*
X112806670Y-79745174D01*
X112683765Y-79582421D01*
X112683764Y-79582420D01*
X112533041Y-79445019D01*
X112359637Y-79337652D01*
X112169456Y-79263976D01*
X112081407Y-79247516D01*
X111968979Y-79226500D01*
X111968976Y-79226500D01*
X111765024Y-79226500D01*
X111765020Y-79226500D01*
X111615116Y-79254522D01*
X111564544Y-79263976D01*
X111564542Y-79263976D01*
X111564540Y-79263977D01*
X111374368Y-79337650D01*
X111374363Y-79337652D01*
X111374358Y-79337654D01*
X111374358Y-79337655D01*
X111200958Y-79445019D01*
X111200957Y-79445019D01*
X111050235Y-79582420D01*
X111050234Y-79582421D01*
X110927329Y-79745174D01*
X110927328Y-79745177D01*
X110836418Y-79927750D01*
X110836416Y-79927755D01*
X110780602Y-80123917D01*
X110780601Y-80123923D01*
X110761785Y-80326996D01*
X110761785Y-80327003D01*
X104012215Y-80327003D01*
X104012215Y-80327000D01*
X104012215Y-80326996D01*
X103993398Y-80123923D01*
X103993397Y-80123917D01*
X103942626Y-79945478D01*
X103937582Y-79927750D01*
X103846673Y-79745179D01*
X103846670Y-79745175D01*
X103846670Y-79745174D01*
X103723765Y-79582421D01*
X103723764Y-79582420D01*
X103573041Y-79445019D01*
X103399637Y-79337652D01*
X103209456Y-79263976D01*
X103121407Y-79247516D01*
X103008979Y-79226500D01*
X103008976Y-79226500D01*
X102805024Y-79226500D01*
X102805020Y-79226500D01*
X102655116Y-79254522D01*
X102604544Y-79263976D01*
X102604542Y-79263976D01*
X102604540Y-79263977D01*
X102414368Y-79337650D01*
X102414363Y-79337652D01*
X102414358Y-79337654D01*
X102414358Y-79337655D01*
X102240958Y-79445019D01*
X102240957Y-79445019D01*
X102090235Y-79582420D01*
X102090234Y-79582421D01*
X101967329Y-79745174D01*
X101967328Y-79745177D01*
X101876418Y-79927750D01*
X101876416Y-79927755D01*
X101820602Y-80123917D01*
X101820601Y-80123923D01*
X101801785Y-80326996D01*
X101801785Y-80327003D01*
X88772215Y-80327003D01*
X88772215Y-80327000D01*
X88772215Y-80326996D01*
X88753398Y-80123923D01*
X88753397Y-80123917D01*
X88702626Y-79945478D01*
X88697582Y-79927750D01*
X88606673Y-79745179D01*
X88606670Y-79745175D01*
X88606670Y-79745174D01*
X88483765Y-79582421D01*
X88483764Y-79582420D01*
X88333041Y-79445019D01*
X88159637Y-79337652D01*
X87969456Y-79263976D01*
X87881407Y-79247516D01*
X87768979Y-79226500D01*
X87768976Y-79226500D01*
X87565024Y-79226500D01*
X87565020Y-79226500D01*
X87415116Y-79254522D01*
X87364544Y-79263976D01*
X87364542Y-79263976D01*
X87364540Y-79263977D01*
X87174368Y-79337650D01*
X87174363Y-79337652D01*
X87174358Y-79337654D01*
X87174358Y-79337655D01*
X87000958Y-79445019D01*
X87000957Y-79445019D01*
X86850235Y-79582420D01*
X86850234Y-79582421D01*
X86727329Y-79745174D01*
X86727328Y-79745177D01*
X86636418Y-79927750D01*
X86636416Y-79927755D01*
X86580602Y-80123917D01*
X86580601Y-80123923D01*
X86561785Y-80326996D01*
X86561785Y-80327003D01*
X85145928Y-80327003D01*
X85155278Y-80250000D01*
X85136237Y-80093182D01*
X85128213Y-80072025D01*
X85080221Y-79945478D01*
X84990483Y-79815470D01*
X84872240Y-79710717D01*
X84860139Y-79704366D01*
X84732366Y-79637304D01*
X84578987Y-79599500D01*
X84578985Y-79599500D01*
X84421015Y-79599500D01*
X84421012Y-79599500D01*
X84267633Y-79637304D01*
X84127761Y-79710716D01*
X84009516Y-79815470D01*
X83919779Y-79945478D01*
X83919778Y-79945478D01*
X83863764Y-80093177D01*
X83863761Y-80093191D01*
X83844722Y-80249996D01*
X83844722Y-80250003D01*
X56250000Y-80250003D01*
X56250000Y-77527103D01*
X74599922Y-77527103D01*
X74618961Y-77683908D01*
X74618964Y-77683922D01*
X74674978Y-77831621D01*
X74764716Y-77961629D01*
X74764717Y-77961630D01*
X74882960Y-78066383D01*
X75022835Y-78139796D01*
X75176215Y-78177600D01*
X75176219Y-78177600D01*
X75334181Y-78177600D01*
X75334185Y-78177600D01*
X75487565Y-78139796D01*
X75627440Y-78066383D01*
X75745683Y-77961630D01*
X75794847Y-77890403D01*
X78255922Y-77890403D01*
X78274961Y-78047208D01*
X78274964Y-78047222D01*
X78330978Y-78194921D01*
X78420716Y-78324929D01*
X78420717Y-78324930D01*
X78538960Y-78429683D01*
X78678835Y-78503096D01*
X78832215Y-78540900D01*
X78832219Y-78540900D01*
X78990181Y-78540900D01*
X78990185Y-78540900D01*
X79143565Y-78503096D01*
X79283440Y-78429683D01*
X79401683Y-78324930D01*
X79491420Y-78194923D01*
X79547437Y-78047218D01*
X79566478Y-77890400D01*
X79559341Y-77831623D01*
X79553923Y-77787003D01*
X86561785Y-77787003D01*
X86580601Y-77990076D01*
X86580602Y-77990082D01*
X86633957Y-78177600D01*
X86636418Y-78186250D01*
X86727327Y-78368821D01*
X86727328Y-78368822D01*
X86727329Y-78368825D01*
X86850234Y-78531578D01*
X86850235Y-78531579D01*
X86987637Y-78656836D01*
X87000959Y-78668981D01*
X87174363Y-78776348D01*
X87364544Y-78850024D01*
X87565024Y-78887500D01*
X87565026Y-78887500D01*
X87768974Y-78887500D01*
X87768976Y-78887500D01*
X87969456Y-78850024D01*
X88159637Y-78776348D01*
X88333041Y-78668981D01*
X88483764Y-78531579D01*
X88505274Y-78503096D01*
X88606670Y-78368825D01*
X88606670Y-78368824D01*
X88606673Y-78368821D01*
X88697582Y-78186250D01*
X88753397Y-77990083D01*
X88768081Y-77831621D01*
X88772215Y-77787003D01*
X101801785Y-77787003D01*
X101820601Y-77990076D01*
X101820602Y-77990082D01*
X101873957Y-78177600D01*
X101876418Y-78186250D01*
X101967327Y-78368821D01*
X101967328Y-78368822D01*
X101967329Y-78368825D01*
X102090234Y-78531578D01*
X102090235Y-78531579D01*
X102227637Y-78656836D01*
X102240959Y-78668981D01*
X102414363Y-78776348D01*
X102604544Y-78850024D01*
X102805024Y-78887500D01*
X102805026Y-78887500D01*
X103008974Y-78887500D01*
X103008976Y-78887500D01*
X103209456Y-78850024D01*
X103399637Y-78776348D01*
X103573041Y-78668981D01*
X103723764Y-78531579D01*
X103745274Y-78503096D01*
X103846670Y-78368825D01*
X103846670Y-78368824D01*
X103846673Y-78368821D01*
X103937582Y-78186250D01*
X103993397Y-77990083D01*
X104008081Y-77831621D01*
X104012215Y-77787003D01*
X110761785Y-77787003D01*
X110780601Y-77990076D01*
X110780602Y-77990082D01*
X110833957Y-78177600D01*
X110836418Y-78186250D01*
X110927327Y-78368821D01*
X110927328Y-78368822D01*
X110927329Y-78368825D01*
X111050234Y-78531578D01*
X111050235Y-78531579D01*
X111187637Y-78656836D01*
X111200959Y-78668981D01*
X111374363Y-78776348D01*
X111564544Y-78850024D01*
X111765024Y-78887500D01*
X111765026Y-78887500D01*
X111968974Y-78887500D01*
X111968976Y-78887500D01*
X112169456Y-78850024D01*
X112359637Y-78776348D01*
X112533041Y-78668981D01*
X112683764Y-78531579D01*
X112705274Y-78503096D01*
X112806670Y-78368825D01*
X112806670Y-78368824D01*
X112806673Y-78368821D01*
X112897582Y-78186250D01*
X112953397Y-77990083D01*
X112968081Y-77831621D01*
X112972215Y-77787003D01*
X126001785Y-77787003D01*
X126020601Y-77990076D01*
X126020602Y-77990082D01*
X126073957Y-78177600D01*
X126076418Y-78186250D01*
X126167327Y-78368821D01*
X126167328Y-78368822D01*
X126167329Y-78368825D01*
X126290234Y-78531578D01*
X126290235Y-78531579D01*
X126427637Y-78656836D01*
X126440959Y-78668981D01*
X126614363Y-78776348D01*
X126804544Y-78850024D01*
X127005024Y-78887500D01*
X127005026Y-78887500D01*
X127208974Y-78887500D01*
X127208976Y-78887500D01*
X127409456Y-78850024D01*
X127599637Y-78776348D01*
X127773041Y-78668981D01*
X127923764Y-78531579D01*
X127945274Y-78503096D01*
X128046670Y-78368825D01*
X128046670Y-78368824D01*
X128046673Y-78368821D01*
X128137582Y-78186250D01*
X128193397Y-77990083D01*
X128208081Y-77831621D01*
X128212215Y-77787003D01*
X128212215Y-77786996D01*
X128193398Y-77583923D01*
X128193397Y-77583917D01*
X128137583Y-77387755D01*
X128137582Y-77387750D01*
X128046673Y-77205179D01*
X128046670Y-77205175D01*
X128046670Y-77205174D01*
X127923765Y-77042421D01*
X127923764Y-77042420D01*
X127773041Y-76905019D01*
X127599637Y-76797652D01*
X127409456Y-76723976D01*
X127321407Y-76707516D01*
X127208979Y-76686500D01*
X127208976Y-76686500D01*
X127005024Y-76686500D01*
X127005020Y-76686500D01*
X126855116Y-76714522D01*
X126804544Y-76723976D01*
X126804542Y-76723976D01*
X126804540Y-76723977D01*
X126614368Y-76797650D01*
X126614363Y-76797652D01*
X126614358Y-76797654D01*
X126614358Y-76797655D01*
X126440958Y-76905019D01*
X126440957Y-76905019D01*
X126290235Y-77042420D01*
X126290234Y-77042421D01*
X126167329Y-77205174D01*
X126167328Y-77205177D01*
X126076418Y-77387750D01*
X126076416Y-77387755D01*
X126020602Y-77583917D01*
X126020601Y-77583923D01*
X126001785Y-77786996D01*
X126001785Y-77787003D01*
X112972215Y-77787003D01*
X112972215Y-77786996D01*
X112953398Y-77583923D01*
X112953397Y-77583917D01*
X112897583Y-77387755D01*
X112897582Y-77387750D01*
X112806673Y-77205179D01*
X112806670Y-77205175D01*
X112806670Y-77205174D01*
X112683765Y-77042421D01*
X112683764Y-77042420D01*
X112533041Y-76905019D01*
X112359637Y-76797652D01*
X112169456Y-76723976D01*
X112081407Y-76707516D01*
X111968979Y-76686500D01*
X111968976Y-76686500D01*
X111765024Y-76686500D01*
X111765020Y-76686500D01*
X111615116Y-76714522D01*
X111564544Y-76723976D01*
X111564542Y-76723976D01*
X111564540Y-76723977D01*
X111374368Y-76797650D01*
X111374363Y-76797652D01*
X111374358Y-76797654D01*
X111374358Y-76797655D01*
X111200958Y-76905019D01*
X111200957Y-76905019D01*
X111050235Y-77042420D01*
X111050234Y-77042421D01*
X110927329Y-77205174D01*
X110927328Y-77205177D01*
X110836418Y-77387750D01*
X110836416Y-77387755D01*
X110780602Y-77583917D01*
X110780601Y-77583923D01*
X110761785Y-77786996D01*
X110761785Y-77787003D01*
X104012215Y-77787003D01*
X104012215Y-77786996D01*
X103993398Y-77583923D01*
X103993397Y-77583917D01*
X103937583Y-77387755D01*
X103937582Y-77387750D01*
X103846673Y-77205179D01*
X103846670Y-77205175D01*
X103846670Y-77205174D01*
X103723765Y-77042421D01*
X103723764Y-77042420D01*
X103573041Y-76905019D01*
X103399637Y-76797652D01*
X103209456Y-76723976D01*
X103121407Y-76707516D01*
X103008979Y-76686500D01*
X103008976Y-76686500D01*
X102805024Y-76686500D01*
X102805020Y-76686500D01*
X102655116Y-76714522D01*
X102604544Y-76723976D01*
X102604542Y-76723976D01*
X102604540Y-76723977D01*
X102414368Y-76797650D01*
X102414363Y-76797652D01*
X102414358Y-76797654D01*
X102414358Y-76797655D01*
X102240958Y-76905019D01*
X102240957Y-76905019D01*
X102090235Y-77042420D01*
X102090234Y-77042421D01*
X101967329Y-77205174D01*
X101967328Y-77205177D01*
X101876418Y-77387750D01*
X101876416Y-77387755D01*
X101820602Y-77583917D01*
X101820601Y-77583923D01*
X101801785Y-77786996D01*
X101801785Y-77787003D01*
X88772215Y-77787003D01*
X88772215Y-77786996D01*
X88753398Y-77583923D01*
X88753397Y-77583917D01*
X88697583Y-77387755D01*
X88697582Y-77387750D01*
X88606673Y-77205179D01*
X88606670Y-77205175D01*
X88606670Y-77205174D01*
X88483765Y-77042421D01*
X88483764Y-77042420D01*
X88333041Y-76905019D01*
X88159637Y-76797652D01*
X87969456Y-76723976D01*
X87881407Y-76707516D01*
X87768979Y-76686500D01*
X87768976Y-76686500D01*
X87565024Y-76686500D01*
X87565020Y-76686500D01*
X87415116Y-76714522D01*
X87364544Y-76723976D01*
X87364542Y-76723976D01*
X87364540Y-76723977D01*
X87174368Y-76797650D01*
X87174363Y-76797652D01*
X87174358Y-76797654D01*
X87174358Y-76797655D01*
X87000958Y-76905019D01*
X87000957Y-76905019D01*
X86850235Y-77042420D01*
X86850234Y-77042421D01*
X86727329Y-77205174D01*
X86727328Y-77205177D01*
X86636418Y-77387750D01*
X86636416Y-77387755D01*
X86580602Y-77583917D01*
X86580601Y-77583923D01*
X86561785Y-77786996D01*
X86561785Y-77787003D01*
X79553923Y-77787003D01*
X79547438Y-77733591D01*
X79547437Y-77733582D01*
X79539413Y-77712425D01*
X79491421Y-77585878D01*
X79401683Y-77455870D01*
X79324796Y-77387755D01*
X79283440Y-77351117D01*
X79271339Y-77344766D01*
X79143566Y-77277704D01*
X78990187Y-77239900D01*
X78990185Y-77239900D01*
X78832215Y-77239900D01*
X78832212Y-77239900D01*
X78678833Y-77277704D01*
X78538961Y-77351116D01*
X78420716Y-77455870D01*
X78330979Y-77585878D01*
X78330978Y-77585878D01*
X78274964Y-77733577D01*
X78274961Y-77733591D01*
X78255922Y-77890396D01*
X78255922Y-77890403D01*
X75794847Y-77890403D01*
X75835420Y-77831623D01*
X75891437Y-77683918D01*
X75903341Y-77585877D01*
X75910478Y-77527103D01*
X75910478Y-77527096D01*
X75891438Y-77370291D01*
X75891437Y-77370282D01*
X75841990Y-77239900D01*
X75835421Y-77222578D01*
X75745683Y-77092570D01*
X75627440Y-76987817D01*
X75615339Y-76981466D01*
X75487566Y-76914404D01*
X75334187Y-76876600D01*
X75334185Y-76876600D01*
X75176215Y-76876600D01*
X75176212Y-76876600D01*
X75022833Y-76914404D01*
X74882961Y-76987816D01*
X74764716Y-77092570D01*
X74674979Y-77222578D01*
X74674978Y-77222578D01*
X74618964Y-77370277D01*
X74618961Y-77370291D01*
X74599922Y-77527096D01*
X74599922Y-77527103D01*
X56250000Y-77527103D01*
X56250000Y-75951903D01*
X76894122Y-75951903D01*
X76913161Y-76108708D01*
X76913164Y-76108722D01*
X76969178Y-76256421D01*
X77058916Y-76386429D01*
X77058917Y-76386430D01*
X77177160Y-76491183D01*
X77317035Y-76564596D01*
X77470415Y-76602400D01*
X77470419Y-76602400D01*
X77628381Y-76602400D01*
X77628385Y-76602400D01*
X77781765Y-76564596D01*
X77921640Y-76491183D01*
X78039883Y-76386430D01*
X78129620Y-76256423D01*
X78137234Y-76236348D01*
X78177952Y-76128981D01*
X78185637Y-76108718D01*
X78204678Y-75951900D01*
X78193482Y-75859696D01*
X78185638Y-75795091D01*
X78185637Y-75795082D01*
X78177613Y-75773925D01*
X78129621Y-75647378D01*
X78129619Y-75647374D01*
X78124714Y-75640268D01*
X78112829Y-75584892D01*
X78143581Y-75537331D01*
X78167905Y-75526384D01*
X78253465Y-75505296D01*
X78393340Y-75431883D01*
X78511583Y-75327130D01*
X78601320Y-75197123D01*
X78657337Y-75049418D01*
X78664388Y-74991342D01*
X78676378Y-74892603D01*
X78676378Y-74892596D01*
X78657338Y-74735791D01*
X78657337Y-74735782D01*
X78645936Y-74705721D01*
X78601321Y-74588078D01*
X78511583Y-74458070D01*
X78478821Y-74429046D01*
X78447393Y-74401203D01*
X80926522Y-74401203D01*
X80945561Y-74558008D01*
X80945564Y-74558022D01*
X81001578Y-74705721D01*
X81091316Y-74835729D01*
X81091317Y-74835730D01*
X81209560Y-74940483D01*
X81349435Y-75013896D01*
X81502815Y-75051700D01*
X81502819Y-75051700D01*
X81660781Y-75051700D01*
X81660785Y-75051700D01*
X81682713Y-75046295D01*
X81738706Y-75054815D01*
X81772273Y-75100433D01*
X81773884Y-75127063D01*
X81759322Y-75246995D01*
X81759322Y-75247003D01*
X81778361Y-75403808D01*
X81778364Y-75403822D01*
X81834378Y-75551521D01*
X81924116Y-75681529D01*
X81924117Y-75681530D01*
X82042360Y-75786283D01*
X82182235Y-75859696D01*
X82335615Y-75897500D01*
X82335619Y-75897500D01*
X82493581Y-75897500D01*
X82493585Y-75897500D01*
X82646965Y-75859696D01*
X82786840Y-75786283D01*
X82905083Y-75681530D01*
X82994820Y-75551523D01*
X82998015Y-75543100D01*
X83033291Y-75450082D01*
X83050837Y-75403818D01*
X83057888Y-75345742D01*
X83069878Y-75247003D01*
X86561785Y-75247003D01*
X86580601Y-75450076D01*
X86580602Y-75450082D01*
X86618960Y-75584892D01*
X86636418Y-75646250D01*
X86727327Y-75828821D01*
X86727328Y-75828822D01*
X86727329Y-75828825D01*
X86850234Y-75991578D01*
X86850235Y-75991579D01*
X86978736Y-76108722D01*
X87000959Y-76128981D01*
X87174363Y-76236348D01*
X87364544Y-76310024D01*
X87565024Y-76347500D01*
X87565026Y-76347500D01*
X87768974Y-76347500D01*
X87768976Y-76347500D01*
X87969456Y-76310024D01*
X88159637Y-76236348D01*
X88333041Y-76128981D01*
X88483764Y-75991579D01*
X88606673Y-75828821D01*
X88697582Y-75646250D01*
X88753397Y-75450083D01*
X88755084Y-75431883D01*
X88772215Y-75247003D01*
X101801785Y-75247003D01*
X101820601Y-75450076D01*
X101820602Y-75450082D01*
X101858960Y-75584892D01*
X101876418Y-75646250D01*
X101967327Y-75828821D01*
X101967328Y-75828822D01*
X101967329Y-75828825D01*
X102090234Y-75991578D01*
X102090235Y-75991579D01*
X102218736Y-76108722D01*
X102240959Y-76128981D01*
X102414363Y-76236348D01*
X102604544Y-76310024D01*
X102805024Y-76347500D01*
X102805026Y-76347500D01*
X103008974Y-76347500D01*
X103008976Y-76347500D01*
X103209456Y-76310024D01*
X103399637Y-76236348D01*
X103573041Y-76128981D01*
X103723764Y-75991579D01*
X103846673Y-75828821D01*
X103937582Y-75646250D01*
X103993397Y-75450083D01*
X103995084Y-75431883D01*
X104012215Y-75247003D01*
X110761785Y-75247003D01*
X110780601Y-75450076D01*
X110780602Y-75450082D01*
X110818960Y-75584892D01*
X110836418Y-75646250D01*
X110927327Y-75828821D01*
X110927328Y-75828822D01*
X110927329Y-75828825D01*
X111050234Y-75991578D01*
X111050235Y-75991579D01*
X111178736Y-76108722D01*
X111200959Y-76128981D01*
X111374363Y-76236348D01*
X111564544Y-76310024D01*
X111765024Y-76347500D01*
X111765026Y-76347500D01*
X111968974Y-76347500D01*
X111968976Y-76347500D01*
X112169456Y-76310024D01*
X112359637Y-76236348D01*
X112533041Y-76128981D01*
X112683764Y-75991579D01*
X112806673Y-75828821D01*
X112897582Y-75646250D01*
X112953397Y-75450083D01*
X112955084Y-75431883D01*
X112972215Y-75247003D01*
X126001785Y-75247003D01*
X126020601Y-75450076D01*
X126020602Y-75450082D01*
X126058960Y-75584892D01*
X126076418Y-75646250D01*
X126167327Y-75828821D01*
X126167328Y-75828822D01*
X126167329Y-75828825D01*
X126290234Y-75991578D01*
X126290235Y-75991579D01*
X126418736Y-76108722D01*
X126440959Y-76128981D01*
X126614363Y-76236348D01*
X126804544Y-76310024D01*
X127005024Y-76347500D01*
X127005026Y-76347500D01*
X127208974Y-76347500D01*
X127208976Y-76347500D01*
X127409456Y-76310024D01*
X127599637Y-76236348D01*
X127773041Y-76128981D01*
X127923764Y-75991579D01*
X128046673Y-75828821D01*
X128137582Y-75646250D01*
X128193397Y-75450083D01*
X128195084Y-75431883D01*
X128212215Y-75247003D01*
X128212215Y-75246996D01*
X128193398Y-75043923D01*
X128193397Y-75043917D01*
X128165079Y-74944391D01*
X128137582Y-74847750D01*
X128046673Y-74665179D01*
X128046670Y-74665175D01*
X128046670Y-74665174D01*
X127923765Y-74502421D01*
X127923764Y-74502420D01*
X127773041Y-74365019D01*
X127599637Y-74257652D01*
X127409456Y-74183976D01*
X127321407Y-74167516D01*
X127208979Y-74146500D01*
X127208976Y-74146500D01*
X127005024Y-74146500D01*
X127005020Y-74146500D01*
X126855116Y-74174522D01*
X126804544Y-74183976D01*
X126804542Y-74183976D01*
X126804540Y-74183977D01*
X126614368Y-74257650D01*
X126614363Y-74257652D01*
X126614358Y-74257654D01*
X126614358Y-74257655D01*
X126440958Y-74365019D01*
X126440957Y-74365019D01*
X126290235Y-74502420D01*
X126290234Y-74502421D01*
X126167329Y-74665174D01*
X126167328Y-74665177D01*
X126076418Y-74847750D01*
X126076416Y-74847755D01*
X126020602Y-75043917D01*
X126020601Y-75043923D01*
X126001785Y-75246996D01*
X126001785Y-75247003D01*
X112972215Y-75247003D01*
X112972215Y-75246996D01*
X112953398Y-75043923D01*
X112953397Y-75043917D01*
X112925079Y-74944391D01*
X112897582Y-74847750D01*
X112806673Y-74665179D01*
X112806670Y-74665175D01*
X112806670Y-74665174D01*
X112683765Y-74502421D01*
X112683764Y-74502420D01*
X112533041Y-74365019D01*
X112359637Y-74257652D01*
X112169456Y-74183976D01*
X112081407Y-74167516D01*
X111968979Y-74146500D01*
X111968976Y-74146500D01*
X111765024Y-74146500D01*
X111765020Y-74146500D01*
X111615116Y-74174522D01*
X111564544Y-74183976D01*
X111564542Y-74183976D01*
X111564540Y-74183977D01*
X111374368Y-74257650D01*
X111374363Y-74257652D01*
X111374358Y-74257654D01*
X111374358Y-74257655D01*
X111200958Y-74365019D01*
X111200957Y-74365019D01*
X111050235Y-74502420D01*
X111050234Y-74502421D01*
X110927329Y-74665174D01*
X110927328Y-74665177D01*
X110836418Y-74847750D01*
X110836416Y-74847755D01*
X110780602Y-75043917D01*
X110780601Y-75043923D01*
X110761785Y-75246996D01*
X110761785Y-75247003D01*
X104012215Y-75247003D01*
X104012215Y-75246996D01*
X103993398Y-75043923D01*
X103993397Y-75043917D01*
X103965079Y-74944391D01*
X103937582Y-74847750D01*
X103846673Y-74665179D01*
X103846670Y-74665175D01*
X103846670Y-74665174D01*
X103723765Y-74502421D01*
X103723764Y-74502420D01*
X103573041Y-74365019D01*
X103399637Y-74257652D01*
X103209456Y-74183976D01*
X103121407Y-74167516D01*
X103008979Y-74146500D01*
X103008976Y-74146500D01*
X102805024Y-74146500D01*
X102805020Y-74146500D01*
X102655116Y-74174522D01*
X102604544Y-74183976D01*
X102604542Y-74183976D01*
X102604540Y-74183977D01*
X102414368Y-74257650D01*
X102414363Y-74257652D01*
X102414358Y-74257654D01*
X102414358Y-74257655D01*
X102240958Y-74365019D01*
X102240957Y-74365019D01*
X102090235Y-74502420D01*
X102090234Y-74502421D01*
X101967329Y-74665174D01*
X101967328Y-74665177D01*
X101876418Y-74847750D01*
X101876416Y-74847755D01*
X101820602Y-75043917D01*
X101820601Y-75043923D01*
X101801785Y-75246996D01*
X101801785Y-75247003D01*
X88772215Y-75247003D01*
X88772215Y-75246996D01*
X88753398Y-75043923D01*
X88753397Y-75043917D01*
X88725079Y-74944391D01*
X88697582Y-74847750D01*
X88606673Y-74665179D01*
X88606670Y-74665175D01*
X88606670Y-74665174D01*
X88483765Y-74502421D01*
X88483764Y-74502420D01*
X88333041Y-74365019D01*
X88159637Y-74257652D01*
X87969456Y-74183976D01*
X87881407Y-74167516D01*
X87768979Y-74146500D01*
X87768976Y-74146500D01*
X87565024Y-74146500D01*
X87565020Y-74146500D01*
X87415116Y-74174522D01*
X87364544Y-74183976D01*
X87364542Y-74183976D01*
X87364540Y-74183977D01*
X87174368Y-74257650D01*
X87174363Y-74257652D01*
X87174358Y-74257654D01*
X87174358Y-74257655D01*
X87000958Y-74365019D01*
X87000957Y-74365019D01*
X86850235Y-74502420D01*
X86850234Y-74502421D01*
X86727329Y-74665174D01*
X86727328Y-74665177D01*
X86636418Y-74847750D01*
X86636416Y-74847755D01*
X86580602Y-75043917D01*
X86580601Y-75043923D01*
X86561785Y-75246996D01*
X86561785Y-75247003D01*
X83069878Y-75247003D01*
X83069878Y-75246996D01*
X83050838Y-75090191D01*
X83050837Y-75090182D01*
X83035377Y-75049418D01*
X82994821Y-74942478D01*
X82905083Y-74812470D01*
X82818519Y-74735782D01*
X82786840Y-74707717D01*
X82774739Y-74701366D01*
X82646966Y-74634304D01*
X82493587Y-74596500D01*
X82493585Y-74596500D01*
X82335615Y-74596500D01*
X82335611Y-74596500D01*
X82335610Y-74596501D01*
X82313683Y-74601905D01*
X82257690Y-74593382D01*
X82224125Y-74547763D01*
X82222515Y-74521135D01*
X82224788Y-74502421D01*
X82233697Y-74429046D01*
X82261520Y-74379714D01*
X82289446Y-74366116D01*
X82412465Y-74335796D01*
X82552340Y-74262383D01*
X82670583Y-74157630D01*
X82760320Y-74027623D01*
X82816337Y-73879918D01*
X82835378Y-73723100D01*
X82834673Y-73717299D01*
X82849878Y-73662744D01*
X82890423Y-73636527D01*
X82969265Y-73617096D01*
X83109140Y-73543683D01*
X83227383Y-73438930D01*
X83317120Y-73308923D01*
X83373137Y-73161218D01*
X83383571Y-73075283D01*
X83392178Y-73004403D01*
X83392178Y-73004396D01*
X83373138Y-72847591D01*
X83373137Y-72847582D01*
X83335872Y-72749322D01*
X83319823Y-72707003D01*
X86561785Y-72707003D01*
X86580601Y-72910076D01*
X86580602Y-72910082D01*
X86624614Y-73064765D01*
X86636418Y-73106250D01*
X86727327Y-73288821D01*
X86727328Y-73288822D01*
X86727329Y-73288825D01*
X86850234Y-73451578D01*
X86850235Y-73451579D01*
X86951269Y-73543683D01*
X87000959Y-73588981D01*
X87174363Y-73696348D01*
X87364544Y-73770024D01*
X87565024Y-73807500D01*
X87565026Y-73807500D01*
X87768974Y-73807500D01*
X87768976Y-73807500D01*
X87969456Y-73770024D01*
X88159637Y-73696348D01*
X88333041Y-73588981D01*
X88483764Y-73451579D01*
X88606673Y-73288821D01*
X88697582Y-73106250D01*
X88753397Y-72910083D01*
X88754608Y-72897023D01*
X88772215Y-72707003D01*
X101801785Y-72707003D01*
X101820601Y-72910076D01*
X101820602Y-72910082D01*
X101864614Y-73064765D01*
X101876418Y-73106250D01*
X101967327Y-73288821D01*
X101967328Y-73288822D01*
X101967329Y-73288825D01*
X102090234Y-73451578D01*
X102090235Y-73451579D01*
X102191269Y-73543683D01*
X102240959Y-73588981D01*
X102414363Y-73696348D01*
X102604544Y-73770024D01*
X102805024Y-73807500D01*
X102805026Y-73807500D01*
X103008974Y-73807500D01*
X103008976Y-73807500D01*
X103209456Y-73770024D01*
X103399637Y-73696348D01*
X103573041Y-73588981D01*
X103723764Y-73451579D01*
X103846673Y-73288821D01*
X103937582Y-73106250D01*
X103993397Y-72910083D01*
X103994608Y-72897023D01*
X104012215Y-72707003D01*
X110761785Y-72707003D01*
X110780601Y-72910076D01*
X110780602Y-72910082D01*
X110824614Y-73064765D01*
X110836418Y-73106250D01*
X110927327Y-73288821D01*
X110927328Y-73288822D01*
X110927329Y-73288825D01*
X111050234Y-73451578D01*
X111050235Y-73451579D01*
X111151269Y-73543683D01*
X111200959Y-73588981D01*
X111374363Y-73696348D01*
X111564544Y-73770024D01*
X111765024Y-73807500D01*
X111765026Y-73807500D01*
X111968974Y-73807500D01*
X111968976Y-73807500D01*
X112169456Y-73770024D01*
X112359637Y-73696348D01*
X112533041Y-73588981D01*
X112683764Y-73451579D01*
X112806673Y-73288821D01*
X112897582Y-73106250D01*
X112953397Y-72910083D01*
X112954608Y-72897023D01*
X112972215Y-72707003D01*
X126001785Y-72707003D01*
X126020601Y-72910076D01*
X126020602Y-72910082D01*
X126064614Y-73064765D01*
X126076418Y-73106250D01*
X126167327Y-73288821D01*
X126167328Y-73288822D01*
X126167329Y-73288825D01*
X126290234Y-73451578D01*
X126290235Y-73451579D01*
X126391269Y-73543683D01*
X126440959Y-73588981D01*
X126614363Y-73696348D01*
X126804544Y-73770024D01*
X127005024Y-73807500D01*
X127005026Y-73807500D01*
X127208974Y-73807500D01*
X127208976Y-73807500D01*
X127409456Y-73770024D01*
X127599637Y-73696348D01*
X127773041Y-73588981D01*
X127923764Y-73451579D01*
X128046673Y-73288821D01*
X128137582Y-73106250D01*
X128193397Y-72910083D01*
X128194608Y-72897023D01*
X128212215Y-72707003D01*
X128212215Y-72706996D01*
X128193398Y-72503923D01*
X128193397Y-72503917D01*
X128137583Y-72307755D01*
X128137582Y-72307750D01*
X128046673Y-72125179D01*
X128046670Y-72125175D01*
X128046670Y-72125174D01*
X127923765Y-71962421D01*
X127923764Y-71962420D01*
X127773041Y-71825019D01*
X127599637Y-71717652D01*
X127410282Y-71644296D01*
X127409459Y-71643977D01*
X127409458Y-71643976D01*
X127409456Y-71643976D01*
X127321407Y-71627516D01*
X127208979Y-71606500D01*
X127208976Y-71606500D01*
X127005024Y-71606500D01*
X127005020Y-71606500D01*
X126855116Y-71634522D01*
X126804544Y-71643976D01*
X126804542Y-71643976D01*
X126804540Y-71643977D01*
X126626436Y-71712975D01*
X126614363Y-71717652D01*
X126614358Y-71717654D01*
X126614358Y-71717655D01*
X126440958Y-71825019D01*
X126440957Y-71825019D01*
X126290235Y-71962420D01*
X126290234Y-71962421D01*
X126167329Y-72125174D01*
X126167328Y-72125177D01*
X126076418Y-72307750D01*
X126076416Y-72307755D01*
X126020602Y-72503917D01*
X126020601Y-72503923D01*
X126001785Y-72706996D01*
X126001785Y-72707003D01*
X112972215Y-72707003D01*
X112972215Y-72706996D01*
X112953398Y-72503923D01*
X112953397Y-72503917D01*
X112897583Y-72307755D01*
X112897582Y-72307750D01*
X112806673Y-72125179D01*
X112806670Y-72125175D01*
X112806670Y-72125174D01*
X112683765Y-71962421D01*
X112683764Y-71962420D01*
X112533041Y-71825019D01*
X112359637Y-71717652D01*
X112170282Y-71644296D01*
X112169459Y-71643977D01*
X112169458Y-71643976D01*
X112169456Y-71643976D01*
X112081407Y-71627516D01*
X111968979Y-71606500D01*
X111968976Y-71606500D01*
X111765024Y-71606500D01*
X111765020Y-71606500D01*
X111615116Y-71634522D01*
X111564544Y-71643976D01*
X111564542Y-71643976D01*
X111564540Y-71643977D01*
X111386436Y-71712975D01*
X111374363Y-71717652D01*
X111374358Y-71717654D01*
X111374358Y-71717655D01*
X111200958Y-71825019D01*
X111200957Y-71825019D01*
X111050235Y-71962420D01*
X111050234Y-71962421D01*
X110927329Y-72125174D01*
X110927328Y-72125177D01*
X110836418Y-72307750D01*
X110836416Y-72307755D01*
X110780602Y-72503917D01*
X110780601Y-72503923D01*
X110761785Y-72706996D01*
X110761785Y-72707003D01*
X104012215Y-72707003D01*
X104012215Y-72706996D01*
X103993398Y-72503923D01*
X103993397Y-72503917D01*
X103937583Y-72307755D01*
X103937582Y-72307750D01*
X103846673Y-72125179D01*
X103846670Y-72125175D01*
X103846670Y-72125174D01*
X103723765Y-71962421D01*
X103723764Y-71962420D01*
X103573041Y-71825019D01*
X103399637Y-71717652D01*
X103210282Y-71644296D01*
X103209459Y-71643977D01*
X103209458Y-71643976D01*
X103209456Y-71643976D01*
X103121407Y-71627516D01*
X103008979Y-71606500D01*
X103008976Y-71606500D01*
X102805024Y-71606500D01*
X102805020Y-71606500D01*
X102655116Y-71634522D01*
X102604544Y-71643976D01*
X102604542Y-71643976D01*
X102604540Y-71643977D01*
X102426436Y-71712975D01*
X102414363Y-71717652D01*
X102414358Y-71717654D01*
X102414358Y-71717655D01*
X102240958Y-71825019D01*
X102240957Y-71825019D01*
X102090235Y-71962420D01*
X102090234Y-71962421D01*
X101967329Y-72125174D01*
X101967328Y-72125177D01*
X101876418Y-72307750D01*
X101876416Y-72307755D01*
X101820602Y-72503917D01*
X101820601Y-72503923D01*
X101801785Y-72706996D01*
X101801785Y-72707003D01*
X88772215Y-72707003D01*
X88772215Y-72706996D01*
X88753398Y-72503923D01*
X88753397Y-72503917D01*
X88697583Y-72307755D01*
X88697582Y-72307750D01*
X88606673Y-72125179D01*
X88606670Y-72125175D01*
X88606670Y-72125174D01*
X88483765Y-71962421D01*
X88483764Y-71962420D01*
X88333041Y-71825019D01*
X88159637Y-71717652D01*
X87970282Y-71644296D01*
X87969459Y-71643977D01*
X87969458Y-71643976D01*
X87969456Y-71643976D01*
X87881407Y-71627516D01*
X87768979Y-71606500D01*
X87768976Y-71606500D01*
X87565024Y-71606500D01*
X87565020Y-71606500D01*
X87415116Y-71634522D01*
X87364544Y-71643976D01*
X87364542Y-71643976D01*
X87364540Y-71643977D01*
X87186436Y-71712975D01*
X87174363Y-71717652D01*
X87174358Y-71717654D01*
X87174358Y-71717655D01*
X87000958Y-71825019D01*
X87000957Y-71825019D01*
X86850235Y-71962420D01*
X86850234Y-71962421D01*
X86727329Y-72125174D01*
X86727328Y-72125177D01*
X86636418Y-72307750D01*
X86636416Y-72307755D01*
X86580602Y-72503917D01*
X86580601Y-72503923D01*
X86561785Y-72706996D01*
X86561785Y-72707003D01*
X83319823Y-72707003D01*
X83317121Y-72699878D01*
X83227383Y-72569870D01*
X83152943Y-72503923D01*
X83109140Y-72465117D01*
X83097039Y-72458766D01*
X82969266Y-72391704D01*
X82815887Y-72353900D01*
X82815885Y-72353900D01*
X82657915Y-72353900D01*
X82657912Y-72353900D01*
X82504533Y-72391704D01*
X82364661Y-72465116D01*
X82246416Y-72569870D01*
X82156679Y-72699878D01*
X82156678Y-72699878D01*
X82100664Y-72847577D01*
X82100661Y-72847591D01*
X82081622Y-73004396D01*
X82081622Y-73004406D01*
X82082326Y-73010210D01*
X82067112Y-73064765D01*
X82026575Y-73090971D01*
X81947735Y-73110404D01*
X81947733Y-73110404D01*
X81947729Y-73110406D01*
X81807861Y-73183816D01*
X81689616Y-73288570D01*
X81599879Y-73418578D01*
X81599878Y-73418578D01*
X81543864Y-73566277D01*
X81543861Y-73566291D01*
X81528202Y-73695253D01*
X81500379Y-73744585D01*
X81472451Y-73758183D01*
X81349433Y-73788504D01*
X81209561Y-73861916D01*
X81091316Y-73966670D01*
X81001579Y-74096678D01*
X81001578Y-74096678D01*
X80945564Y-74244377D01*
X80945561Y-74244391D01*
X80926522Y-74401196D01*
X80926522Y-74401203D01*
X78447393Y-74401203D01*
X78393340Y-74353317D01*
X78359955Y-74335795D01*
X78253466Y-74279904D01*
X78100087Y-74242100D01*
X78100085Y-74242100D01*
X77942115Y-74242100D01*
X77942112Y-74242100D01*
X77788733Y-74279904D01*
X77648861Y-74353316D01*
X77530616Y-74458070D01*
X77440879Y-74588078D01*
X77440878Y-74588078D01*
X77384864Y-74735777D01*
X77384861Y-74735791D01*
X77365822Y-74892596D01*
X77365822Y-74892603D01*
X77384861Y-75049408D01*
X77384864Y-75049422D01*
X77440878Y-75197121D01*
X77440880Y-75197123D01*
X77445786Y-75204232D01*
X77457670Y-75259609D01*
X77426917Y-75307169D01*
X77402592Y-75318116D01*
X77317033Y-75339204D01*
X77177161Y-75412616D01*
X77058916Y-75517370D01*
X76969179Y-75647378D01*
X76969178Y-75647378D01*
X76913164Y-75795077D01*
X76913161Y-75795091D01*
X76894122Y-75951896D01*
X76894122Y-75951903D01*
X56250000Y-75951903D01*
X56250000Y-75101203D01*
X69889022Y-75101203D01*
X69908061Y-75258008D01*
X69908064Y-75258022D01*
X69964078Y-75405721D01*
X69994699Y-75450083D01*
X70053817Y-75535730D01*
X70172060Y-75640483D01*
X70311935Y-75713896D01*
X70465315Y-75751700D01*
X70465319Y-75751700D01*
X70623281Y-75751700D01*
X70623285Y-75751700D01*
X70776665Y-75713896D01*
X70916540Y-75640483D01*
X71034783Y-75535730D01*
X71124520Y-75405723D01*
X71125243Y-75403818D01*
X71157745Y-75318116D01*
X71180537Y-75258018D01*
X71199578Y-75101200D01*
X71198241Y-75090191D01*
X71180538Y-74944391D01*
X71180537Y-74944382D01*
X71160897Y-74892596D01*
X71124521Y-74796678D01*
X71034783Y-74666670D01*
X70996139Y-74632435D01*
X70916540Y-74561917D01*
X70889572Y-74547763D01*
X70776666Y-74488504D01*
X70623287Y-74450700D01*
X70623285Y-74450700D01*
X70465315Y-74450700D01*
X70465312Y-74450700D01*
X70311933Y-74488504D01*
X70172061Y-74561916D01*
X70053816Y-74666670D01*
X69964079Y-74796678D01*
X69964078Y-74796678D01*
X69908064Y-74944377D01*
X69908061Y-74944391D01*
X69889022Y-75101196D01*
X69889022Y-75101203D01*
X56250000Y-75101203D01*
X56250000Y-72592503D01*
X74177122Y-72592503D01*
X74196161Y-72749308D01*
X74196164Y-72749322D01*
X74252178Y-72897021D01*
X74330307Y-73010210D01*
X74341917Y-73027030D01*
X74460160Y-73131783D01*
X74600035Y-73205196D01*
X74753415Y-73243000D01*
X74753419Y-73243000D01*
X74911381Y-73243000D01*
X74911385Y-73243000D01*
X75064765Y-73205196D01*
X75204640Y-73131783D01*
X75322883Y-73027030D01*
X75412620Y-72897023D01*
X75468637Y-72749318D01*
X75487678Y-72592500D01*
X75484930Y-72569870D01*
X75468638Y-72435691D01*
X75468637Y-72435682D01*
X75451958Y-72391704D01*
X75412621Y-72287978D01*
X75322883Y-72157970D01*
X75285867Y-72125177D01*
X75204640Y-72053217D01*
X75192539Y-72046866D01*
X75064766Y-71979804D01*
X74911387Y-71942000D01*
X74911385Y-71942000D01*
X74753415Y-71942000D01*
X74753412Y-71942000D01*
X74600033Y-71979804D01*
X74460161Y-72053216D01*
X74341916Y-72157970D01*
X74252179Y-72287978D01*
X74252178Y-72287978D01*
X74196164Y-72435677D01*
X74196161Y-72435691D01*
X74177122Y-72592496D01*
X74177122Y-72592503D01*
X56250000Y-72592503D01*
X56250000Y-71560503D01*
X70711922Y-71560503D01*
X70730961Y-71717308D01*
X70730964Y-71717322D01*
X70786978Y-71865021D01*
X70866207Y-71979804D01*
X70876717Y-71995030D01*
X70994960Y-72099783D01*
X71134835Y-72173196D01*
X71288215Y-72211000D01*
X71288219Y-72211000D01*
X71446181Y-72211000D01*
X71446185Y-72211000D01*
X71599565Y-72173196D01*
X71739440Y-72099783D01*
X71857683Y-71995030D01*
X71947420Y-71865023D01*
X72003437Y-71717318D01*
X72003437Y-71717317D01*
X72003438Y-71717315D01*
X72004508Y-71712975D01*
X72006934Y-71713573D01*
X72030840Y-71671113D01*
X72085385Y-71655863D01*
X72094210Y-71657476D01*
X72194115Y-71682100D01*
X72194119Y-71682100D01*
X72352081Y-71682100D01*
X72352085Y-71682100D01*
X72505465Y-71644296D01*
X72645340Y-71570883D01*
X72763583Y-71466130D01*
X72853320Y-71336123D01*
X72909337Y-71188418D01*
X72916388Y-71130342D01*
X72928378Y-71031603D01*
X72928378Y-71031596D01*
X72911023Y-70888671D01*
X72926231Y-70834114D01*
X72975563Y-70806291D01*
X73002190Y-70807900D01*
X73110515Y-70834600D01*
X73110519Y-70834600D01*
X73268481Y-70834600D01*
X73268485Y-70834600D01*
X73421865Y-70796796D01*
X73561740Y-70723383D01*
X73679983Y-70618630D01*
X73769720Y-70488623D01*
X73825737Y-70340918D01*
X73844778Y-70184100D01*
X73842702Y-70167003D01*
X86561785Y-70167003D01*
X86580601Y-70370076D01*
X86580602Y-70370082D01*
X86615382Y-70492317D01*
X86636418Y-70566250D01*
X86727327Y-70748821D01*
X86727328Y-70748822D01*
X86727329Y-70748825D01*
X86850234Y-70911578D01*
X86850235Y-70911579D01*
X86981893Y-71031600D01*
X87000959Y-71048981D01*
X87174363Y-71156348D01*
X87364544Y-71230024D01*
X87565024Y-71267500D01*
X87565026Y-71267500D01*
X87768974Y-71267500D01*
X87768976Y-71267500D01*
X87969456Y-71230024D01*
X88159637Y-71156348D01*
X88333041Y-71048981D01*
X88483764Y-70911579D01*
X88484957Y-70910000D01*
X88606670Y-70748825D01*
X88606670Y-70748824D01*
X88606673Y-70748821D01*
X88697582Y-70566250D01*
X88753397Y-70370083D01*
X88756100Y-70340918D01*
X88772215Y-70167003D01*
X101801785Y-70167003D01*
X101820601Y-70370076D01*
X101820602Y-70370082D01*
X101855382Y-70492317D01*
X101876418Y-70566250D01*
X101967327Y-70748821D01*
X101967328Y-70748822D01*
X101967329Y-70748825D01*
X102090234Y-70911578D01*
X102090235Y-70911579D01*
X102221893Y-71031600D01*
X102240959Y-71048981D01*
X102414363Y-71156348D01*
X102604544Y-71230024D01*
X102805024Y-71267500D01*
X102805026Y-71267500D01*
X103008974Y-71267500D01*
X103008976Y-71267500D01*
X103209456Y-71230024D01*
X103399637Y-71156348D01*
X103573041Y-71048981D01*
X103723764Y-70911579D01*
X103724957Y-70910000D01*
X103846670Y-70748825D01*
X103846670Y-70748824D01*
X103846673Y-70748821D01*
X103937582Y-70566250D01*
X103993397Y-70370083D01*
X103996100Y-70340918D01*
X104012215Y-70167003D01*
X110761785Y-70167003D01*
X110780601Y-70370076D01*
X110780602Y-70370082D01*
X110815382Y-70492317D01*
X110836418Y-70566250D01*
X110927327Y-70748821D01*
X110927328Y-70748822D01*
X110927329Y-70748825D01*
X111050234Y-70911578D01*
X111050235Y-70911579D01*
X111181893Y-71031600D01*
X111200959Y-71048981D01*
X111374363Y-71156348D01*
X111564544Y-71230024D01*
X111765024Y-71267500D01*
X111765026Y-71267500D01*
X111968974Y-71267500D01*
X111968976Y-71267500D01*
X112169456Y-71230024D01*
X112359637Y-71156348D01*
X112533041Y-71048981D01*
X112683764Y-70911579D01*
X112684957Y-70910000D01*
X112806670Y-70748825D01*
X112806670Y-70748824D01*
X112806673Y-70748821D01*
X112897582Y-70566250D01*
X112953397Y-70370083D01*
X112956100Y-70340918D01*
X112972215Y-70167003D01*
X126001785Y-70167003D01*
X126020601Y-70370076D01*
X126020602Y-70370082D01*
X126055382Y-70492317D01*
X126076418Y-70566250D01*
X126167327Y-70748821D01*
X126167328Y-70748822D01*
X126167329Y-70748825D01*
X126290234Y-70911578D01*
X126290235Y-70911579D01*
X126421893Y-71031600D01*
X126440959Y-71048981D01*
X126614363Y-71156348D01*
X126804544Y-71230024D01*
X127005024Y-71267500D01*
X127005026Y-71267500D01*
X127208974Y-71267500D01*
X127208976Y-71267500D01*
X127409456Y-71230024D01*
X127599637Y-71156348D01*
X127773041Y-71048981D01*
X127923764Y-70911579D01*
X127924957Y-70910000D01*
X128046670Y-70748825D01*
X128046670Y-70748824D01*
X128046673Y-70748821D01*
X128137582Y-70566250D01*
X128193397Y-70370083D01*
X128196100Y-70340918D01*
X128212215Y-70167003D01*
X128212215Y-70166996D01*
X128193398Y-69963923D01*
X128193397Y-69963917D01*
X128137583Y-69767755D01*
X128137582Y-69767750D01*
X128046673Y-69585179D01*
X128046670Y-69585175D01*
X128046670Y-69585174D01*
X127923765Y-69422421D01*
X127923764Y-69422420D01*
X127773041Y-69285019D01*
X127647084Y-69207030D01*
X127599637Y-69177652D01*
X127409456Y-69103976D01*
X127321407Y-69087516D01*
X127208979Y-69066500D01*
X127208976Y-69066500D01*
X127005024Y-69066500D01*
X127005020Y-69066500D01*
X126855116Y-69094522D01*
X126804544Y-69103976D01*
X126804542Y-69103976D01*
X126804540Y-69103977D01*
X126614368Y-69177650D01*
X126614363Y-69177652D01*
X126614358Y-69177654D01*
X126614358Y-69177655D01*
X126440958Y-69285019D01*
X126440957Y-69285019D01*
X126290235Y-69422420D01*
X126290234Y-69422421D01*
X126167329Y-69585174D01*
X126167328Y-69585177D01*
X126076418Y-69767750D01*
X126076416Y-69767755D01*
X126020602Y-69963917D01*
X126020601Y-69963923D01*
X126001785Y-70166996D01*
X126001785Y-70167003D01*
X112972215Y-70167003D01*
X112972215Y-70166996D01*
X112953398Y-69963923D01*
X112953397Y-69963917D01*
X112897583Y-69767755D01*
X112897582Y-69767750D01*
X112806673Y-69585179D01*
X112806670Y-69585175D01*
X112806670Y-69585174D01*
X112683765Y-69422421D01*
X112683764Y-69422420D01*
X112533041Y-69285019D01*
X112407084Y-69207030D01*
X112359637Y-69177652D01*
X112169456Y-69103976D01*
X112081407Y-69087516D01*
X111968979Y-69066500D01*
X111968976Y-69066500D01*
X111765024Y-69066500D01*
X111765020Y-69066500D01*
X111615116Y-69094522D01*
X111564544Y-69103976D01*
X111564542Y-69103976D01*
X111564540Y-69103977D01*
X111374368Y-69177650D01*
X111374363Y-69177652D01*
X111374358Y-69177654D01*
X111374358Y-69177655D01*
X111200958Y-69285019D01*
X111200957Y-69285019D01*
X111050235Y-69422420D01*
X111050234Y-69422421D01*
X110927329Y-69585174D01*
X110927328Y-69585177D01*
X110836418Y-69767750D01*
X110836416Y-69767755D01*
X110780602Y-69963917D01*
X110780601Y-69963923D01*
X110761785Y-70166996D01*
X110761785Y-70167003D01*
X104012215Y-70167003D01*
X104012215Y-70166996D01*
X103993398Y-69963923D01*
X103993397Y-69963917D01*
X103937583Y-69767755D01*
X103937582Y-69767750D01*
X103846673Y-69585179D01*
X103846670Y-69585175D01*
X103846670Y-69585174D01*
X103723765Y-69422421D01*
X103723764Y-69422420D01*
X103573041Y-69285019D01*
X103447084Y-69207030D01*
X103399637Y-69177652D01*
X103209456Y-69103976D01*
X103121407Y-69087516D01*
X103008979Y-69066500D01*
X103008976Y-69066500D01*
X102805024Y-69066500D01*
X102805020Y-69066500D01*
X102655116Y-69094522D01*
X102604544Y-69103976D01*
X102604542Y-69103976D01*
X102604540Y-69103977D01*
X102414368Y-69177650D01*
X102414363Y-69177652D01*
X102414358Y-69177654D01*
X102414358Y-69177655D01*
X102240958Y-69285019D01*
X102240957Y-69285019D01*
X102090235Y-69422420D01*
X102090234Y-69422421D01*
X101967329Y-69585174D01*
X101967328Y-69585177D01*
X101876418Y-69767750D01*
X101876416Y-69767755D01*
X101820602Y-69963917D01*
X101820601Y-69963923D01*
X101801785Y-70166996D01*
X101801785Y-70167003D01*
X88772215Y-70167003D01*
X88772215Y-70166996D01*
X88753398Y-69963923D01*
X88753397Y-69963917D01*
X88697583Y-69767755D01*
X88697582Y-69767750D01*
X88606673Y-69585179D01*
X88606670Y-69585175D01*
X88606670Y-69585174D01*
X88483765Y-69422421D01*
X88483764Y-69422420D01*
X88333041Y-69285019D01*
X88207084Y-69207030D01*
X88159637Y-69177652D01*
X87969456Y-69103976D01*
X87881407Y-69087516D01*
X87768979Y-69066500D01*
X87768976Y-69066500D01*
X87565024Y-69066500D01*
X87565020Y-69066500D01*
X87415116Y-69094522D01*
X87364544Y-69103976D01*
X87364542Y-69103976D01*
X87364540Y-69103977D01*
X87174368Y-69177650D01*
X87174363Y-69177652D01*
X87174358Y-69177654D01*
X87174358Y-69177655D01*
X87000958Y-69285019D01*
X87000957Y-69285019D01*
X86850235Y-69422420D01*
X86850234Y-69422421D01*
X86727329Y-69585174D01*
X86727328Y-69585177D01*
X86636418Y-69767750D01*
X86636416Y-69767755D01*
X86580602Y-69963917D01*
X86580601Y-69963923D01*
X86561785Y-70166996D01*
X86561785Y-70167003D01*
X73842702Y-70167003D01*
X73842701Y-70166996D01*
X73825738Y-70027291D01*
X73825737Y-70027282D01*
X73801706Y-69963917D01*
X73769721Y-69879578D01*
X73679983Y-69749570D01*
X73561740Y-69644817D01*
X73549639Y-69638466D01*
X73421866Y-69571404D01*
X73268487Y-69533600D01*
X73268485Y-69533600D01*
X73110515Y-69533600D01*
X73110512Y-69533600D01*
X72957133Y-69571404D01*
X72817261Y-69644816D01*
X72699016Y-69749570D01*
X72609279Y-69879578D01*
X72609278Y-69879578D01*
X72553264Y-70027277D01*
X72553261Y-70027291D01*
X72534222Y-70184096D01*
X72534222Y-70184103D01*
X72551576Y-70327028D01*
X72536368Y-70381585D01*
X72487036Y-70409408D01*
X72460407Y-70407798D01*
X72352087Y-70381100D01*
X72352085Y-70381100D01*
X72194115Y-70381100D01*
X72194112Y-70381100D01*
X72040733Y-70418904D01*
X71900861Y-70492316D01*
X71782616Y-70597070D01*
X71692879Y-70727078D01*
X71692878Y-70727078D01*
X71636864Y-70874777D01*
X71635791Y-70879133D01*
X71633378Y-70878538D01*
X71609407Y-70921026D01*
X71554847Y-70936227D01*
X71546070Y-70934618D01*
X71446189Y-70910000D01*
X71446185Y-70910000D01*
X71288215Y-70910000D01*
X71288212Y-70910000D01*
X71134833Y-70947804D01*
X70994961Y-71021216D01*
X70876716Y-71125970D01*
X70786979Y-71255978D01*
X70786978Y-71255978D01*
X70730964Y-71403677D01*
X70730961Y-71403691D01*
X70711922Y-71560496D01*
X70711922Y-71560503D01*
X56250000Y-71560503D01*
X56250000Y-68059803D01*
X72653022Y-68059803D01*
X72672061Y-68216608D01*
X72672064Y-68216622D01*
X72728078Y-68364321D01*
X72817816Y-68494329D01*
X72817817Y-68494330D01*
X72936060Y-68599083D01*
X73075935Y-68672496D01*
X73229315Y-68710300D01*
X73229319Y-68710300D01*
X73387281Y-68710300D01*
X73387285Y-68710300D01*
X73531310Y-68674801D01*
X73587299Y-68683323D01*
X73620866Y-68728941D01*
X73622477Y-68755567D01*
X73620422Y-68772498D01*
X73620422Y-68772503D01*
X73639461Y-68929308D01*
X73639464Y-68929322D01*
X73695478Y-69077021D01*
X73764939Y-69177652D01*
X73785217Y-69207030D01*
X73903460Y-69311783D01*
X74043335Y-69385196D01*
X74196715Y-69423000D01*
X74196719Y-69423000D01*
X74354681Y-69423000D01*
X74354685Y-69423000D01*
X74508065Y-69385196D01*
X74647940Y-69311783D01*
X74766183Y-69207030D01*
X74855920Y-69077023D01*
X74911937Y-68929318D01*
X74930978Y-68772500D01*
X74929086Y-68756921D01*
X74911938Y-68615691D01*
X74911937Y-68615682D01*
X74871471Y-68508981D01*
X74855921Y-68467978D01*
X74766183Y-68337970D01*
X74718336Y-68295582D01*
X74647940Y-68233217D01*
X74616295Y-68216608D01*
X74508066Y-68159804D01*
X74354687Y-68122000D01*
X74354685Y-68122000D01*
X74196715Y-68122000D01*
X74196710Y-68122000D01*
X74052690Y-68157497D01*
X73996698Y-68148974D01*
X73963132Y-68103355D01*
X73961522Y-68076729D01*
X73963578Y-68059800D01*
X73959504Y-68026250D01*
X73944538Y-67902991D01*
X73944537Y-67902982D01*
X73920539Y-67839704D01*
X73888521Y-67755278D01*
X73798783Y-67625270D01*
X73680540Y-67520517D01*
X73597682Y-67477029D01*
X73540666Y-67447104D01*
X73387287Y-67409300D01*
X73387285Y-67409300D01*
X73229315Y-67409300D01*
X73229312Y-67409300D01*
X73075933Y-67447104D01*
X72936061Y-67520516D01*
X72817816Y-67625270D01*
X72728079Y-67755278D01*
X72728078Y-67755278D01*
X72672064Y-67902977D01*
X72672061Y-67902991D01*
X72653022Y-68059796D01*
X72653022Y-68059803D01*
X56250000Y-68059803D01*
X56250000Y-67042503D01*
X73926522Y-67042503D01*
X73945561Y-67199308D01*
X73945564Y-67199322D01*
X74001578Y-67347021D01*
X74091316Y-67477029D01*
X74091317Y-67477030D01*
X74209560Y-67581783D01*
X74349435Y-67655196D01*
X74502815Y-67693000D01*
X74502819Y-67693000D01*
X74660781Y-67693000D01*
X74660785Y-67693000D01*
X74814165Y-67655196D01*
X74954040Y-67581783D01*
X75072283Y-67477030D01*
X75162020Y-67347023D01*
X75218037Y-67199318D01*
X75236753Y-67045177D01*
X75237078Y-67042503D01*
X75237078Y-67042496D01*
X75218038Y-66885691D01*
X75218037Y-66885682D01*
X75210013Y-66864525D01*
X75162021Y-66737978D01*
X75072283Y-66607970D01*
X74954040Y-66503217D01*
X74902366Y-66476096D01*
X74814166Y-66429804D01*
X74660787Y-66392000D01*
X74660785Y-66392000D01*
X74502815Y-66392000D01*
X74502812Y-66392000D01*
X74349433Y-66429804D01*
X74209561Y-66503216D01*
X74091316Y-66607970D01*
X74001579Y-66737978D01*
X74001578Y-66737978D01*
X73945564Y-66885677D01*
X73945561Y-66885691D01*
X73926522Y-67042496D01*
X73926522Y-67042503D01*
X56250000Y-67042503D01*
X56250000Y-65900003D01*
X66981922Y-65900003D01*
X67000961Y-66056808D01*
X67000964Y-66056822D01*
X67056978Y-66204521D01*
X67113756Y-66286778D01*
X67146717Y-66334530D01*
X67264960Y-66439283D01*
X67404835Y-66512696D01*
X67558215Y-66550500D01*
X67558219Y-66550500D01*
X67716181Y-66550500D01*
X67716185Y-66550500D01*
X67869565Y-66512696D01*
X68009440Y-66439283D01*
X68127683Y-66334530D01*
X68217420Y-66204523D01*
X68273437Y-66056818D01*
X68288918Y-65929318D01*
X68292478Y-65900003D01*
X68292478Y-65899996D01*
X68276997Y-65772503D01*
X82022622Y-65772503D01*
X82041661Y-65929308D01*
X82041664Y-65929322D01*
X82097678Y-66077021D01*
X82187416Y-66207029D01*
X82187417Y-66207030D01*
X82305660Y-66311783D01*
X82445535Y-66385196D01*
X82598915Y-66423000D01*
X82598919Y-66423000D01*
X82756881Y-66423000D01*
X82756885Y-66423000D01*
X82761103Y-66421960D01*
X82817095Y-66430479D01*
X82850664Y-66476096D01*
X82852276Y-66502728D01*
X82852217Y-66503216D01*
X82841523Y-66591296D01*
X82841522Y-66591303D01*
X82860561Y-66748108D01*
X82860564Y-66748122D01*
X82916578Y-66895821D01*
X83002362Y-67020100D01*
X83006317Y-67025830D01*
X83124560Y-67130583D01*
X83264435Y-67203996D01*
X83417815Y-67241800D01*
X83417819Y-67241800D01*
X83580261Y-67241800D01*
X83580261Y-67243647D01*
X83628843Y-67257183D01*
X83656673Y-67306510D01*
X83644116Y-67357477D01*
X83638178Y-67366078D01*
X83582164Y-67513777D01*
X83582161Y-67513791D01*
X83564992Y-67655195D01*
X83563122Y-67670600D01*
X83565842Y-67692999D01*
X83573096Y-67752746D01*
X83557886Y-67807303D01*
X83517347Y-67833514D01*
X83492234Y-67839704D01*
X83492229Y-67839706D01*
X83352361Y-67913116D01*
X83234116Y-68017870D01*
X83144379Y-68147878D01*
X83144378Y-68147878D01*
X83088364Y-68295577D01*
X83088361Y-68295591D01*
X83069322Y-68452396D01*
X83069322Y-68452403D01*
X83088361Y-68609208D01*
X83088364Y-68609222D01*
X83144378Y-68756921D01*
X83234116Y-68886929D01*
X83234117Y-68886930D01*
X83352360Y-68991683D01*
X83492235Y-69065096D01*
X83645615Y-69102900D01*
X83645619Y-69102900D01*
X83803581Y-69102900D01*
X83803585Y-69102900D01*
X83956965Y-69065096D01*
X84096840Y-68991683D01*
X84215083Y-68886930D01*
X84304820Y-68756923D01*
X84360837Y-68609218D01*
X84379878Y-68452400D01*
X84369903Y-68370253D01*
X84385111Y-68315698D01*
X84425654Y-68289484D01*
X84450765Y-68283296D01*
X84590640Y-68209883D01*
X84708883Y-68105130D01*
X84798620Y-67975123D01*
X84854637Y-67827418D01*
X84870958Y-67693000D01*
X84873678Y-67670603D01*
X84873678Y-67670596D01*
X84868385Y-67627003D01*
X86561785Y-67627003D01*
X86580601Y-67830076D01*
X86580602Y-67830082D01*
X86636416Y-68026244D01*
X86636418Y-68026250D01*
X86727327Y-68208821D01*
X86727328Y-68208822D01*
X86727329Y-68208825D01*
X86850234Y-68371578D01*
X86850235Y-68371579D01*
X86984888Y-68494330D01*
X87000959Y-68508981D01*
X87174363Y-68616348D01*
X87364544Y-68690024D01*
X87565024Y-68727500D01*
X87565026Y-68727500D01*
X87768974Y-68727500D01*
X87768976Y-68727500D01*
X87969456Y-68690024D01*
X88159637Y-68616348D01*
X88333041Y-68508981D01*
X88483764Y-68371579D01*
X88489244Y-68364323D01*
X88606670Y-68208825D01*
X88606670Y-68208824D01*
X88606673Y-68208821D01*
X88697582Y-68026250D01*
X88753397Y-67830083D01*
X88766100Y-67693000D01*
X88772215Y-67627003D01*
X101801785Y-67627003D01*
X101820601Y-67830076D01*
X101820602Y-67830082D01*
X101876416Y-68026244D01*
X101876418Y-68026250D01*
X101967327Y-68208821D01*
X101967328Y-68208822D01*
X101967329Y-68208825D01*
X102090234Y-68371578D01*
X102090235Y-68371579D01*
X102224888Y-68494330D01*
X102240959Y-68508981D01*
X102414363Y-68616348D01*
X102604544Y-68690024D01*
X102805024Y-68727500D01*
X102805026Y-68727500D01*
X103008974Y-68727500D01*
X103008976Y-68727500D01*
X103209456Y-68690024D01*
X103399637Y-68616348D01*
X103573041Y-68508981D01*
X103723764Y-68371579D01*
X103729244Y-68364323D01*
X103846670Y-68208825D01*
X103846670Y-68208824D01*
X103846673Y-68208821D01*
X103937582Y-68026250D01*
X103993397Y-67830083D01*
X104006100Y-67693000D01*
X104012215Y-67627003D01*
X110761785Y-67627003D01*
X110780601Y-67830076D01*
X110780602Y-67830082D01*
X110836416Y-68026244D01*
X110836418Y-68026250D01*
X110927327Y-68208821D01*
X110927328Y-68208822D01*
X110927329Y-68208825D01*
X111050234Y-68371578D01*
X111050235Y-68371579D01*
X111184888Y-68494330D01*
X111200959Y-68508981D01*
X111374363Y-68616348D01*
X111564544Y-68690024D01*
X111765024Y-68727500D01*
X111765026Y-68727500D01*
X111968974Y-68727500D01*
X111968976Y-68727500D01*
X112169456Y-68690024D01*
X112359637Y-68616348D01*
X112533041Y-68508981D01*
X112683764Y-68371579D01*
X112689244Y-68364323D01*
X112806670Y-68208825D01*
X112806670Y-68208824D01*
X112806673Y-68208821D01*
X112897582Y-68026250D01*
X112953397Y-67830083D01*
X112966100Y-67693000D01*
X112972215Y-67627003D01*
X126001785Y-67627003D01*
X126020601Y-67830076D01*
X126020602Y-67830082D01*
X126076416Y-68026244D01*
X126076418Y-68026250D01*
X126167327Y-68208821D01*
X126167328Y-68208822D01*
X126167329Y-68208825D01*
X126290234Y-68371578D01*
X126290235Y-68371579D01*
X126424888Y-68494330D01*
X126440959Y-68508981D01*
X126614363Y-68616348D01*
X126804544Y-68690024D01*
X127005024Y-68727500D01*
X127005026Y-68727500D01*
X127208974Y-68727500D01*
X127208976Y-68727500D01*
X127409456Y-68690024D01*
X127599637Y-68616348D01*
X127773041Y-68508981D01*
X127923764Y-68371579D01*
X127929244Y-68364323D01*
X128046670Y-68208825D01*
X128046670Y-68208824D01*
X128046673Y-68208821D01*
X128137582Y-68026250D01*
X128193397Y-67830083D01*
X128206100Y-67693000D01*
X128212215Y-67627003D01*
X128212215Y-67626996D01*
X128193398Y-67423923D01*
X128193397Y-67423917D01*
X128174493Y-67357477D01*
X128137582Y-67227750D01*
X128046673Y-67045179D01*
X128046670Y-67045175D01*
X128046670Y-67045174D01*
X127923765Y-66882421D01*
X127923764Y-66882420D01*
X127773041Y-66745019D01*
X127761668Y-66737977D01*
X127599637Y-66637652D01*
X127409456Y-66563976D01*
X127321407Y-66547516D01*
X127208979Y-66526500D01*
X127208976Y-66526500D01*
X127005024Y-66526500D01*
X127005020Y-66526500D01*
X126855116Y-66554522D01*
X126804544Y-66563976D01*
X126804542Y-66563976D01*
X126804540Y-66563977D01*
X126614368Y-66637650D01*
X126614363Y-66637652D01*
X126614358Y-66637654D01*
X126614358Y-66637655D01*
X126440958Y-66745019D01*
X126440957Y-66745019D01*
X126290235Y-66882420D01*
X126290234Y-66882421D01*
X126167329Y-67045174D01*
X126167328Y-67045177D01*
X126076418Y-67227750D01*
X126076416Y-67227755D01*
X126020602Y-67423917D01*
X126020601Y-67423923D01*
X126001785Y-67626996D01*
X126001785Y-67627003D01*
X112972215Y-67627003D01*
X112972215Y-67626996D01*
X112953398Y-67423923D01*
X112953397Y-67423917D01*
X112934493Y-67357477D01*
X112897582Y-67227750D01*
X112806673Y-67045179D01*
X112806670Y-67045175D01*
X112806670Y-67045174D01*
X112683765Y-66882421D01*
X112683764Y-66882420D01*
X112533041Y-66745019D01*
X112521668Y-66737977D01*
X112359637Y-66637652D01*
X112169456Y-66563976D01*
X112081407Y-66547516D01*
X111968979Y-66526500D01*
X111968976Y-66526500D01*
X111765024Y-66526500D01*
X111765020Y-66526500D01*
X111615116Y-66554522D01*
X111564544Y-66563976D01*
X111564542Y-66563976D01*
X111564540Y-66563977D01*
X111374368Y-66637650D01*
X111374363Y-66637652D01*
X111374358Y-66637654D01*
X111374358Y-66637655D01*
X111200958Y-66745019D01*
X111200957Y-66745019D01*
X111050235Y-66882420D01*
X111050234Y-66882421D01*
X110927329Y-67045174D01*
X110927328Y-67045177D01*
X110836418Y-67227750D01*
X110836416Y-67227755D01*
X110780602Y-67423917D01*
X110780601Y-67423923D01*
X110761785Y-67626996D01*
X110761785Y-67627003D01*
X104012215Y-67627003D01*
X104012215Y-67626996D01*
X103993398Y-67423923D01*
X103993397Y-67423917D01*
X103974493Y-67357477D01*
X103937582Y-67227750D01*
X103846673Y-67045179D01*
X103846670Y-67045175D01*
X103846670Y-67045174D01*
X103723765Y-66882421D01*
X103723764Y-66882420D01*
X103573041Y-66745019D01*
X103561668Y-66737977D01*
X103399637Y-66637652D01*
X103209456Y-66563976D01*
X103121407Y-66547516D01*
X103008979Y-66526500D01*
X103008976Y-66526500D01*
X102805024Y-66526500D01*
X102805020Y-66526500D01*
X102655116Y-66554522D01*
X102604544Y-66563976D01*
X102604542Y-66563976D01*
X102604540Y-66563977D01*
X102414368Y-66637650D01*
X102414363Y-66637652D01*
X102414358Y-66637654D01*
X102414358Y-66637655D01*
X102240958Y-66745019D01*
X102240957Y-66745019D01*
X102090235Y-66882420D01*
X102090234Y-66882421D01*
X101967329Y-67045174D01*
X101967328Y-67045177D01*
X101876418Y-67227750D01*
X101876416Y-67227755D01*
X101820602Y-67423917D01*
X101820601Y-67423923D01*
X101801785Y-67626996D01*
X101801785Y-67627003D01*
X88772215Y-67627003D01*
X88772215Y-67626996D01*
X88753398Y-67423923D01*
X88753397Y-67423917D01*
X88734493Y-67357477D01*
X88697582Y-67227750D01*
X88606673Y-67045179D01*
X88606670Y-67045175D01*
X88606670Y-67045174D01*
X88483765Y-66882421D01*
X88483764Y-66882420D01*
X88333041Y-66745019D01*
X88321668Y-66737977D01*
X88159637Y-66637652D01*
X87969456Y-66563976D01*
X87881407Y-66547516D01*
X87768979Y-66526500D01*
X87768976Y-66526500D01*
X87565024Y-66526500D01*
X87565020Y-66526500D01*
X87415116Y-66554522D01*
X87364544Y-66563976D01*
X87364542Y-66563976D01*
X87364540Y-66563977D01*
X87174368Y-66637650D01*
X87174363Y-66637652D01*
X87174358Y-66637654D01*
X87174358Y-66637655D01*
X87000958Y-66745019D01*
X87000957Y-66745019D01*
X86850235Y-66882420D01*
X86850234Y-66882421D01*
X86727329Y-67045174D01*
X86727328Y-67045177D01*
X86636418Y-67227750D01*
X86636416Y-67227755D01*
X86580602Y-67423917D01*
X86580601Y-67423923D01*
X86561785Y-67626996D01*
X86561785Y-67627003D01*
X84868385Y-67627003D01*
X84854638Y-67513791D01*
X84854637Y-67513782D01*
X84840699Y-67477030D01*
X84798621Y-67366078D01*
X84708883Y-67236070D01*
X84699497Y-67227755D01*
X84590640Y-67131317D01*
X84536533Y-67102919D01*
X84450766Y-67057904D01*
X84297387Y-67020100D01*
X84297385Y-67020100D01*
X84139415Y-67020100D01*
X84134939Y-67020100D01*
X84134939Y-67018260D01*
X84086335Y-67004699D01*
X84058523Y-66955361D01*
X84071086Y-66904419D01*
X84077020Y-66895823D01*
X84133037Y-66748118D01*
X84152078Y-66591300D01*
X84148760Y-66563977D01*
X84133038Y-66434491D01*
X84133037Y-66434482D01*
X84114345Y-66385195D01*
X84077021Y-66286778D01*
X83987283Y-66156770D01*
X83897266Y-66077023D01*
X83869040Y-66052017D01*
X83856939Y-66045666D01*
X83729166Y-65978604D01*
X83575787Y-65940800D01*
X83575785Y-65940800D01*
X83417815Y-65940800D01*
X83417813Y-65940800D01*
X83417805Y-65940801D01*
X83413587Y-65941841D01*
X83357595Y-65933314D01*
X83324033Y-65887693D01*
X83322424Y-65861070D01*
X83333178Y-65772503D01*
X83333178Y-65772496D01*
X83314138Y-65615691D01*
X83314137Y-65615682D01*
X83306113Y-65594525D01*
X83258121Y-65467978D01*
X83168383Y-65337970D01*
X83111192Y-65287304D01*
X83050140Y-65233217D01*
X83038039Y-65226866D01*
X82910266Y-65159804D01*
X82756887Y-65122000D01*
X82756885Y-65122000D01*
X82598915Y-65122000D01*
X82598912Y-65122000D01*
X82445533Y-65159804D01*
X82305661Y-65233216D01*
X82187416Y-65337970D01*
X82097679Y-65467978D01*
X82097678Y-65467978D01*
X82041664Y-65615677D01*
X82041661Y-65615691D01*
X82022622Y-65772496D01*
X82022622Y-65772503D01*
X68276997Y-65772503D01*
X68273438Y-65743191D01*
X68273437Y-65743182D01*
X68245236Y-65668821D01*
X68217421Y-65595478D01*
X68127683Y-65465470D01*
X68009440Y-65360717D01*
X67966100Y-65337970D01*
X67869566Y-65287304D01*
X67716187Y-65249500D01*
X67716185Y-65249500D01*
X67558215Y-65249500D01*
X67558212Y-65249500D01*
X67404833Y-65287304D01*
X67264961Y-65360716D01*
X67146716Y-65465470D01*
X67056979Y-65595478D01*
X67056978Y-65595478D01*
X67000964Y-65743177D01*
X67000961Y-65743191D01*
X66981922Y-65899996D01*
X66981922Y-65900003D01*
X56250000Y-65900003D01*
X56250000Y-65087003D01*
X86561785Y-65087003D01*
X86580601Y-65290076D01*
X86580602Y-65290082D01*
X86631219Y-65467978D01*
X86636418Y-65486250D01*
X86727327Y-65668821D01*
X86727328Y-65668822D01*
X86727329Y-65668825D01*
X86850234Y-65831578D01*
X86850235Y-65831579D01*
X86957455Y-65929322D01*
X87000959Y-65968981D01*
X87174363Y-66076348D01*
X87364544Y-66150024D01*
X87565024Y-66187500D01*
X87565026Y-66187500D01*
X87768974Y-66187500D01*
X87768976Y-66187500D01*
X87969456Y-66150024D01*
X88159637Y-66076348D01*
X88333041Y-65968981D01*
X88483764Y-65831579D01*
X88528379Y-65772500D01*
X88606670Y-65668825D01*
X88606670Y-65668824D01*
X88606673Y-65668821D01*
X88697582Y-65486250D01*
X88753397Y-65290083D01*
X88757158Y-65249500D01*
X88772215Y-65087003D01*
X101801785Y-65087003D01*
X101820601Y-65290076D01*
X101820602Y-65290082D01*
X101871219Y-65467978D01*
X101876418Y-65486250D01*
X101967327Y-65668821D01*
X101967328Y-65668822D01*
X101967329Y-65668825D01*
X102090234Y-65831578D01*
X102090235Y-65831579D01*
X102197455Y-65929322D01*
X102240959Y-65968981D01*
X102414363Y-66076348D01*
X102604544Y-66150024D01*
X102805024Y-66187500D01*
X102805026Y-66187500D01*
X103008974Y-66187500D01*
X103008976Y-66187500D01*
X103209456Y-66150024D01*
X103399637Y-66076348D01*
X103573041Y-65968981D01*
X103723764Y-65831579D01*
X103768379Y-65772500D01*
X103846670Y-65668825D01*
X103846670Y-65668824D01*
X103846673Y-65668821D01*
X103937582Y-65486250D01*
X103993397Y-65290083D01*
X103997158Y-65249500D01*
X104012215Y-65087003D01*
X110761785Y-65087003D01*
X110780601Y-65290076D01*
X110780602Y-65290082D01*
X110831219Y-65467978D01*
X110836418Y-65486250D01*
X110927327Y-65668821D01*
X110927328Y-65668822D01*
X110927329Y-65668825D01*
X111050234Y-65831578D01*
X111050235Y-65831579D01*
X111157455Y-65929322D01*
X111200959Y-65968981D01*
X111374363Y-66076348D01*
X111564544Y-66150024D01*
X111765024Y-66187500D01*
X111765026Y-66187500D01*
X111968974Y-66187500D01*
X111968976Y-66187500D01*
X112169456Y-66150024D01*
X112359637Y-66076348D01*
X112533041Y-65968981D01*
X112683764Y-65831579D01*
X112728379Y-65772500D01*
X112806670Y-65668825D01*
X112806670Y-65668824D01*
X112806673Y-65668821D01*
X112897582Y-65486250D01*
X112953397Y-65290083D01*
X112957158Y-65249500D01*
X112972215Y-65087003D01*
X126001785Y-65087003D01*
X126020601Y-65290076D01*
X126020602Y-65290082D01*
X126071219Y-65467978D01*
X126076418Y-65486250D01*
X126167327Y-65668821D01*
X126167328Y-65668822D01*
X126167329Y-65668825D01*
X126290234Y-65831578D01*
X126290235Y-65831579D01*
X126397455Y-65929322D01*
X126440959Y-65968981D01*
X126614363Y-66076348D01*
X126804544Y-66150024D01*
X127005024Y-66187500D01*
X127005026Y-66187500D01*
X127208974Y-66187500D01*
X127208976Y-66187500D01*
X127409456Y-66150024D01*
X127599637Y-66076348D01*
X127773041Y-65968981D01*
X127923764Y-65831579D01*
X127968379Y-65772500D01*
X128046670Y-65668825D01*
X128046670Y-65668824D01*
X128046673Y-65668821D01*
X128137582Y-65486250D01*
X128193397Y-65290083D01*
X128197158Y-65249500D01*
X128212215Y-65087003D01*
X128212215Y-65086996D01*
X128193398Y-64883923D01*
X128193397Y-64883917D01*
X128137583Y-64687755D01*
X128137582Y-64687750D01*
X128046673Y-64505179D01*
X128046670Y-64505175D01*
X128046670Y-64505174D01*
X127923765Y-64342421D01*
X127923764Y-64342420D01*
X127773041Y-64205019D01*
X127599637Y-64097652D01*
X127409456Y-64023976D01*
X127321407Y-64007516D01*
X127208979Y-63986500D01*
X127208976Y-63986500D01*
X127005024Y-63986500D01*
X127005020Y-63986500D01*
X126855116Y-64014522D01*
X126804544Y-64023976D01*
X126804542Y-64023976D01*
X126804540Y-64023977D01*
X126614368Y-64097650D01*
X126614363Y-64097652D01*
X126614358Y-64097654D01*
X126614358Y-64097655D01*
X126440958Y-64205019D01*
X126440957Y-64205019D01*
X126290235Y-64342420D01*
X126290234Y-64342421D01*
X126167329Y-64505174D01*
X126167328Y-64505177D01*
X126076418Y-64687750D01*
X126076416Y-64687755D01*
X126020602Y-64883917D01*
X126020601Y-64883923D01*
X126001785Y-65086996D01*
X126001785Y-65087003D01*
X112972215Y-65087003D01*
X112972215Y-65086996D01*
X112953398Y-64883923D01*
X112953397Y-64883917D01*
X112897583Y-64687755D01*
X112897582Y-64687750D01*
X112806673Y-64505179D01*
X112806670Y-64505175D01*
X112806670Y-64505174D01*
X112683765Y-64342421D01*
X112683764Y-64342420D01*
X112533041Y-64205019D01*
X112359637Y-64097652D01*
X112169456Y-64023976D01*
X112081407Y-64007516D01*
X111968979Y-63986500D01*
X111968976Y-63986500D01*
X111765024Y-63986500D01*
X111765020Y-63986500D01*
X111615116Y-64014522D01*
X111564544Y-64023976D01*
X111564542Y-64023976D01*
X111564540Y-64023977D01*
X111374368Y-64097650D01*
X111374363Y-64097652D01*
X111374358Y-64097654D01*
X111374358Y-64097655D01*
X111200958Y-64205019D01*
X111200957Y-64205019D01*
X111050235Y-64342420D01*
X111050234Y-64342421D01*
X110927329Y-64505174D01*
X110927328Y-64505177D01*
X110836418Y-64687750D01*
X110836416Y-64687755D01*
X110780602Y-64883917D01*
X110780601Y-64883923D01*
X110761785Y-65086996D01*
X110761785Y-65087003D01*
X104012215Y-65087003D01*
X104012215Y-65086996D01*
X103993398Y-64883923D01*
X103993397Y-64883917D01*
X103937583Y-64687755D01*
X103937582Y-64687750D01*
X103846673Y-64505179D01*
X103846670Y-64505175D01*
X103846670Y-64505174D01*
X103723765Y-64342421D01*
X103723764Y-64342420D01*
X103573041Y-64205019D01*
X103399637Y-64097652D01*
X103209456Y-64023976D01*
X103121407Y-64007516D01*
X103008979Y-63986500D01*
X103008976Y-63986500D01*
X102805024Y-63986500D01*
X102805020Y-63986500D01*
X102655116Y-64014522D01*
X102604544Y-64023976D01*
X102604542Y-64023976D01*
X102604540Y-64023977D01*
X102414368Y-64097650D01*
X102414363Y-64097652D01*
X102414358Y-64097654D01*
X102414358Y-64097655D01*
X102240958Y-64205019D01*
X102240957Y-64205019D01*
X102090235Y-64342420D01*
X102090234Y-64342421D01*
X101967329Y-64505174D01*
X101967328Y-64505177D01*
X101876418Y-64687750D01*
X101876416Y-64687755D01*
X101820602Y-64883917D01*
X101820601Y-64883923D01*
X101801785Y-65086996D01*
X101801785Y-65087003D01*
X88772215Y-65087003D01*
X88772215Y-65086996D01*
X88753398Y-64883923D01*
X88753397Y-64883917D01*
X88697583Y-64687755D01*
X88697582Y-64687750D01*
X88606673Y-64505179D01*
X88606670Y-64505175D01*
X88606670Y-64505174D01*
X88483765Y-64342421D01*
X88483764Y-64342420D01*
X88333041Y-64205019D01*
X88159637Y-64097652D01*
X87969456Y-64023976D01*
X87881407Y-64007516D01*
X87768979Y-63986500D01*
X87768976Y-63986500D01*
X87565024Y-63986500D01*
X87565020Y-63986500D01*
X87415116Y-64014522D01*
X87364544Y-64023976D01*
X87364542Y-64023976D01*
X87364540Y-64023977D01*
X87174368Y-64097650D01*
X87174363Y-64097652D01*
X87174358Y-64097654D01*
X87174358Y-64097655D01*
X87000958Y-64205019D01*
X87000957Y-64205019D01*
X86850235Y-64342420D01*
X86850234Y-64342421D01*
X86727329Y-64505174D01*
X86727328Y-64505177D01*
X86636418Y-64687750D01*
X86636416Y-64687755D01*
X86580602Y-64883917D01*
X86580601Y-64883923D01*
X86561785Y-65086996D01*
X86561785Y-65087003D01*
X56250000Y-65087003D01*
X56250000Y-62710003D01*
X57482571Y-62710003D01*
X57502242Y-62922303D01*
X57502243Y-62922309D01*
X57560593Y-63127383D01*
X57560596Y-63127393D01*
X57655632Y-63318252D01*
X57655636Y-63318258D01*
X57698105Y-63374495D01*
X57784128Y-63488407D01*
X57941698Y-63632052D01*
X58122981Y-63744298D01*
X58321802Y-63821321D01*
X58531390Y-63860500D01*
X58744610Y-63860500D01*
X58954198Y-63821321D01*
X59153019Y-63744298D01*
X59334302Y-63632052D01*
X59479152Y-63500003D01*
X78269822Y-63500003D01*
X78288861Y-63656808D01*
X78288864Y-63656822D01*
X78344878Y-63804521D01*
X78434616Y-63934529D01*
X78434617Y-63934530D01*
X78552860Y-64039283D01*
X78692735Y-64112696D01*
X78846115Y-64150500D01*
X78846119Y-64150500D01*
X79004081Y-64150500D01*
X79004085Y-64150500D01*
X79157465Y-64112696D01*
X79297340Y-64039283D01*
X79415583Y-63934530D01*
X79505320Y-63804523D01*
X79561337Y-63656818D01*
X79568388Y-63598742D01*
X79580378Y-63500003D01*
X79580378Y-63499996D01*
X79564392Y-63368343D01*
X79561337Y-63343182D01*
X79541766Y-63291578D01*
X79505321Y-63195478D01*
X79415583Y-63065470D01*
X79297340Y-62960717D01*
X79269764Y-62946244D01*
X79157466Y-62887304D01*
X79004087Y-62849500D01*
X79004085Y-62849500D01*
X78846115Y-62849500D01*
X78846112Y-62849500D01*
X78692733Y-62887304D01*
X78552861Y-62960716D01*
X78434616Y-63065470D01*
X78344879Y-63195478D01*
X78344878Y-63195478D01*
X78288864Y-63343177D01*
X78288861Y-63343191D01*
X78269822Y-63499996D01*
X78269822Y-63500003D01*
X59479152Y-63500003D01*
X59491872Y-63488407D01*
X59620366Y-63318255D01*
X59715405Y-63127389D01*
X59773756Y-62922310D01*
X59779825Y-62856822D01*
X59793429Y-62710003D01*
X59793429Y-62709996D01*
X59773971Y-62500003D01*
X64344722Y-62500003D01*
X64363761Y-62656808D01*
X64363764Y-62656822D01*
X64419778Y-62804521D01*
X64501077Y-62922303D01*
X64509517Y-62934530D01*
X64627760Y-63039283D01*
X64767635Y-63112696D01*
X64921015Y-63150500D01*
X64921019Y-63150500D01*
X65078981Y-63150500D01*
X65078985Y-63150500D01*
X65232365Y-63112696D01*
X65372240Y-63039283D01*
X65490483Y-62934530D01*
X65580220Y-62804523D01*
X65619859Y-62700003D01*
X71481622Y-62700003D01*
X71500661Y-62856808D01*
X71500664Y-62856822D01*
X71556678Y-63004521D01*
X71642476Y-63128821D01*
X71646417Y-63134530D01*
X71764660Y-63239283D01*
X71904535Y-63312696D01*
X72057915Y-63350500D01*
X72057919Y-63350500D01*
X72215881Y-63350500D01*
X72215885Y-63350500D01*
X72369265Y-63312696D01*
X72509140Y-63239283D01*
X72627383Y-63134530D01*
X72717120Y-63004523D01*
X72759255Y-62893420D01*
X72798075Y-62852181D01*
X72854686Y-62850470D01*
X72895926Y-62889290D01*
X72901906Y-62910741D01*
X72902861Y-62918608D01*
X72902864Y-62918622D01*
X72958878Y-63066321D01*
X73016982Y-63150499D01*
X73048617Y-63196330D01*
X73166860Y-63301083D01*
X73306735Y-63374496D01*
X73460115Y-63412300D01*
X73460119Y-63412300D01*
X73618081Y-63412300D01*
X73618085Y-63412300D01*
X73771465Y-63374496D01*
X73911340Y-63301083D01*
X74029583Y-63196330D01*
X74119320Y-63066323D01*
X74119644Y-63065470D01*
X74159371Y-62960716D01*
X74175337Y-62918618D01*
X74194378Y-62761800D01*
X74192955Y-62750083D01*
X74175338Y-62604991D01*
X74175337Y-62604982D01*
X74161455Y-62568379D01*
X74153348Y-62547003D01*
X86561785Y-62547003D01*
X86580601Y-62750076D01*
X86580602Y-62750082D01*
X86628553Y-62918608D01*
X86636418Y-62946250D01*
X86727327Y-63128821D01*
X86727328Y-63128822D01*
X86727329Y-63128825D01*
X86850234Y-63291578D01*
X86850235Y-63291579D01*
X86982660Y-63412299D01*
X87000959Y-63428981D01*
X87174363Y-63536348D01*
X87364544Y-63610024D01*
X87565024Y-63647500D01*
X87565026Y-63647500D01*
X87768974Y-63647500D01*
X87768976Y-63647500D01*
X87969456Y-63610024D01*
X88159637Y-63536348D01*
X88333041Y-63428981D01*
X88483764Y-63291579D01*
X88606673Y-63128821D01*
X88697582Y-62946250D01*
X88753397Y-62750083D01*
X88758038Y-62700003D01*
X88772215Y-62547003D01*
X101801785Y-62547003D01*
X101820601Y-62750076D01*
X101820602Y-62750082D01*
X101868553Y-62918608D01*
X101876418Y-62946250D01*
X101967327Y-63128821D01*
X101967328Y-63128822D01*
X101967329Y-63128825D01*
X102090234Y-63291578D01*
X102090235Y-63291579D01*
X102222660Y-63412299D01*
X102240959Y-63428981D01*
X102414363Y-63536348D01*
X102604544Y-63610024D01*
X102805024Y-63647500D01*
X102805026Y-63647500D01*
X103008974Y-63647500D01*
X103008976Y-63647500D01*
X103209456Y-63610024D01*
X103399637Y-63536348D01*
X103573041Y-63428981D01*
X103723764Y-63291579D01*
X103846673Y-63128821D01*
X103937582Y-62946250D01*
X103993397Y-62750083D01*
X103998038Y-62700003D01*
X104012215Y-62547003D01*
X110761785Y-62547003D01*
X110780601Y-62750076D01*
X110780602Y-62750082D01*
X110828553Y-62918608D01*
X110836418Y-62946250D01*
X110927327Y-63128821D01*
X110927328Y-63128822D01*
X110927329Y-63128825D01*
X111050234Y-63291578D01*
X111050235Y-63291579D01*
X111182660Y-63412299D01*
X111200959Y-63428981D01*
X111374363Y-63536348D01*
X111564544Y-63610024D01*
X111765024Y-63647500D01*
X111765026Y-63647500D01*
X111968974Y-63647500D01*
X111968976Y-63647500D01*
X112169456Y-63610024D01*
X112359637Y-63536348D01*
X112533041Y-63428981D01*
X112683764Y-63291579D01*
X112806673Y-63128821D01*
X112897582Y-62946250D01*
X112953397Y-62750083D01*
X112958038Y-62700003D01*
X112972215Y-62547003D01*
X126001785Y-62547003D01*
X126020601Y-62750076D01*
X126020602Y-62750082D01*
X126068553Y-62918608D01*
X126076418Y-62946250D01*
X126167327Y-63128821D01*
X126167328Y-63128822D01*
X126167329Y-63128825D01*
X126290234Y-63291578D01*
X126290235Y-63291579D01*
X126422660Y-63412299D01*
X126440959Y-63428981D01*
X126614363Y-63536348D01*
X126804544Y-63610024D01*
X127005024Y-63647500D01*
X127005026Y-63647500D01*
X127208974Y-63647500D01*
X127208976Y-63647500D01*
X127409456Y-63610024D01*
X127599637Y-63536348D01*
X127773041Y-63428981D01*
X127923764Y-63291579D01*
X128046673Y-63128821D01*
X128137582Y-62946250D01*
X128193397Y-62750083D01*
X128198038Y-62700003D01*
X128212215Y-62547003D01*
X128212215Y-62546996D01*
X128193398Y-62343923D01*
X128193397Y-62343917D01*
X128178799Y-62292611D01*
X128137582Y-62147750D01*
X128046673Y-61965179D01*
X128046670Y-61965175D01*
X128046670Y-61965174D01*
X127923765Y-61802421D01*
X127923764Y-61802420D01*
X127773041Y-61665019D01*
X127680180Y-61607522D01*
X127599637Y-61557652D01*
X127409456Y-61483976D01*
X127321407Y-61467516D01*
X127208979Y-61446500D01*
X127208976Y-61446500D01*
X127005024Y-61446500D01*
X127005020Y-61446500D01*
X126855116Y-61474522D01*
X126804544Y-61483976D01*
X126804542Y-61483976D01*
X126804540Y-61483977D01*
X126614368Y-61557650D01*
X126614363Y-61557652D01*
X126614358Y-61557654D01*
X126614358Y-61557655D01*
X126440958Y-61665019D01*
X126440957Y-61665019D01*
X126290235Y-61802420D01*
X126290234Y-61802421D01*
X126167329Y-61965174D01*
X126167328Y-61965177D01*
X126076418Y-62147750D01*
X126076416Y-62147755D01*
X126020602Y-62343917D01*
X126020601Y-62343923D01*
X126001785Y-62546996D01*
X126001785Y-62547003D01*
X112972215Y-62547003D01*
X112972215Y-62546996D01*
X112953398Y-62343923D01*
X112953397Y-62343917D01*
X112938799Y-62292611D01*
X112897582Y-62147750D01*
X112806673Y-61965179D01*
X112806670Y-61965175D01*
X112806670Y-61965174D01*
X112683765Y-61802421D01*
X112683764Y-61802420D01*
X112533041Y-61665019D01*
X112440180Y-61607522D01*
X112359637Y-61557652D01*
X112169456Y-61483976D01*
X112081407Y-61467516D01*
X111968979Y-61446500D01*
X111968976Y-61446500D01*
X111765024Y-61446500D01*
X111765020Y-61446500D01*
X111615116Y-61474522D01*
X111564544Y-61483976D01*
X111564542Y-61483976D01*
X111564540Y-61483977D01*
X111374368Y-61557650D01*
X111374363Y-61557652D01*
X111374358Y-61557654D01*
X111374358Y-61557655D01*
X111200958Y-61665019D01*
X111200957Y-61665019D01*
X111050235Y-61802420D01*
X111050234Y-61802421D01*
X110927329Y-61965174D01*
X110927328Y-61965177D01*
X110836418Y-62147750D01*
X110836416Y-62147755D01*
X110780602Y-62343917D01*
X110780601Y-62343923D01*
X110761785Y-62546996D01*
X110761785Y-62547003D01*
X104012215Y-62547003D01*
X104012215Y-62546996D01*
X103993398Y-62343923D01*
X103993397Y-62343917D01*
X103978799Y-62292611D01*
X103937582Y-62147750D01*
X103846673Y-61965179D01*
X103846670Y-61965175D01*
X103846670Y-61965174D01*
X103723765Y-61802421D01*
X103723764Y-61802420D01*
X103573041Y-61665019D01*
X103480180Y-61607522D01*
X103399637Y-61557652D01*
X103209456Y-61483976D01*
X103121407Y-61467516D01*
X103008979Y-61446500D01*
X103008976Y-61446500D01*
X102805024Y-61446500D01*
X102805020Y-61446500D01*
X102655116Y-61474522D01*
X102604544Y-61483976D01*
X102604542Y-61483976D01*
X102604540Y-61483977D01*
X102414368Y-61557650D01*
X102414363Y-61557652D01*
X102414358Y-61557654D01*
X102414358Y-61557655D01*
X102240958Y-61665019D01*
X102240957Y-61665019D01*
X102090235Y-61802420D01*
X102090234Y-61802421D01*
X101967329Y-61965174D01*
X101967328Y-61965177D01*
X101876418Y-62147750D01*
X101876416Y-62147755D01*
X101820602Y-62343917D01*
X101820601Y-62343923D01*
X101801785Y-62546996D01*
X101801785Y-62547003D01*
X88772215Y-62547003D01*
X88772215Y-62546996D01*
X88753398Y-62343923D01*
X88753397Y-62343917D01*
X88738799Y-62292611D01*
X88697582Y-62147750D01*
X88606673Y-61965179D01*
X88606670Y-61965175D01*
X88606670Y-61965174D01*
X88483765Y-61802421D01*
X88483764Y-61802420D01*
X88333041Y-61665019D01*
X88240180Y-61607522D01*
X88159637Y-61557652D01*
X87969456Y-61483976D01*
X87881407Y-61467516D01*
X87768979Y-61446500D01*
X87768976Y-61446500D01*
X87565024Y-61446500D01*
X87565020Y-61446500D01*
X87415116Y-61474522D01*
X87364544Y-61483976D01*
X87364542Y-61483976D01*
X87364540Y-61483977D01*
X87174368Y-61557650D01*
X87174363Y-61557652D01*
X87174358Y-61557654D01*
X87174358Y-61557655D01*
X87000958Y-61665019D01*
X87000957Y-61665019D01*
X86850235Y-61802420D01*
X86850234Y-61802421D01*
X86727329Y-61965174D01*
X86727328Y-61965177D01*
X86636418Y-62147750D01*
X86636416Y-62147755D01*
X86580602Y-62343917D01*
X86580601Y-62343923D01*
X86561785Y-62546996D01*
X86561785Y-62547003D01*
X74153348Y-62547003D01*
X74119321Y-62457278D01*
X74029583Y-62327270D01*
X73990466Y-62292616D01*
X73911340Y-62222517D01*
X73859822Y-62195478D01*
X73771466Y-62149104D01*
X73618087Y-62111300D01*
X73618085Y-62111300D01*
X73460115Y-62111300D01*
X73460112Y-62111300D01*
X73306733Y-62149104D01*
X73166861Y-62222516D01*
X73048616Y-62327270D01*
X72958879Y-62457277D01*
X72916744Y-62568379D01*
X72877923Y-62609619D01*
X72821312Y-62611329D01*
X72780072Y-62572508D01*
X72774093Y-62551057D01*
X72773137Y-62543182D01*
X72765113Y-62522025D01*
X72717121Y-62395478D01*
X72627383Y-62265470D01*
X72509138Y-62160715D01*
X72472231Y-62141345D01*
X72435971Y-62097836D01*
X72441098Y-62041432D01*
X72472228Y-62010300D01*
X72510940Y-61989983D01*
X72629183Y-61885230D01*
X72718920Y-61755223D01*
X72774937Y-61607518D01*
X72781988Y-61549442D01*
X72793978Y-61450703D01*
X72793978Y-61450696D01*
X72774938Y-61293891D01*
X72774937Y-61293882D01*
X72740963Y-61204299D01*
X72718921Y-61146178D01*
X72629183Y-61016170D01*
X72606804Y-60996344D01*
X72510940Y-60911417D01*
X72488234Y-60899500D01*
X72371066Y-60838004D01*
X72217687Y-60800200D01*
X72217685Y-60800200D01*
X72059715Y-60800200D01*
X72059712Y-60800200D01*
X71906333Y-60838004D01*
X71766461Y-60911416D01*
X71648216Y-61016170D01*
X71558479Y-61146178D01*
X71558478Y-61146178D01*
X71502464Y-61293877D01*
X71502461Y-61293891D01*
X71483422Y-61450696D01*
X71483422Y-61450703D01*
X71502461Y-61607508D01*
X71502464Y-61607522D01*
X71558478Y-61755221D01*
X71591058Y-61802421D01*
X71648217Y-61885230D01*
X71766460Y-61989983D01*
X71803369Y-62009354D01*
X71839627Y-62052862D01*
X71834502Y-62109267D01*
X71803369Y-62140400D01*
X71764660Y-62160717D01*
X71646416Y-62265470D01*
X71556679Y-62395478D01*
X71556678Y-62395478D01*
X71500664Y-62543177D01*
X71500661Y-62543191D01*
X71481622Y-62699996D01*
X71481622Y-62700003D01*
X65619859Y-62700003D01*
X65636237Y-62656818D01*
X65650034Y-62543191D01*
X65655278Y-62500003D01*
X65655278Y-62499996D01*
X65636238Y-62343191D01*
X65636237Y-62343182D01*
X65590475Y-62222516D01*
X65580221Y-62195478D01*
X65490483Y-62065470D01*
X65427139Y-62009353D01*
X65372240Y-61960717D01*
X65316744Y-61931590D01*
X65232366Y-61887304D01*
X65078987Y-61849500D01*
X65078985Y-61849500D01*
X64921015Y-61849500D01*
X64921012Y-61849500D01*
X64767633Y-61887304D01*
X64627761Y-61960716D01*
X64509516Y-62065470D01*
X64419779Y-62195478D01*
X64419778Y-62195478D01*
X64363764Y-62343177D01*
X64363761Y-62343191D01*
X64344722Y-62499996D01*
X64344722Y-62500003D01*
X59773971Y-62500003D01*
X59773757Y-62497696D01*
X59773756Y-62497690D01*
X59762257Y-62457277D01*
X59715405Y-62292611D01*
X59680502Y-62222516D01*
X59620367Y-62101747D01*
X59620363Y-62101741D01*
X59600600Y-62075571D01*
X59491872Y-61931593D01*
X59334302Y-61787948D01*
X59153019Y-61675702D01*
X58977025Y-61607522D01*
X58954201Y-61598680D01*
X58954200Y-61598679D01*
X58954198Y-61598679D01*
X58862150Y-61581472D01*
X58744613Y-61559500D01*
X58744610Y-61559500D01*
X58531390Y-61559500D01*
X58531386Y-61559500D01*
X58374670Y-61588796D01*
X58321802Y-61598679D01*
X58321800Y-61598679D01*
X58321798Y-61598680D01*
X58150557Y-61665019D01*
X58122981Y-61675702D01*
X58122976Y-61675704D01*
X58122976Y-61675705D01*
X57941700Y-61787946D01*
X57784130Y-61931590D01*
X57655636Y-62101741D01*
X57655632Y-62101747D01*
X57560596Y-62292606D01*
X57560593Y-62292616D01*
X57502243Y-62497690D01*
X57502242Y-62497696D01*
X57482571Y-62709996D01*
X57482571Y-62710003D01*
X56250000Y-62710003D01*
X56250000Y-60170003D01*
X57482571Y-60170003D01*
X57502242Y-60382303D01*
X57502243Y-60382309D01*
X57560593Y-60587383D01*
X57560596Y-60587393D01*
X57655632Y-60778252D01*
X57655634Y-60778255D01*
X57784128Y-60948407D01*
X57941698Y-61092052D01*
X58122981Y-61204298D01*
X58321802Y-61281321D01*
X58531390Y-61320500D01*
X58744610Y-61320500D01*
X58954198Y-61281321D01*
X59153019Y-61204298D01*
X59334302Y-61092052D01*
X59491872Y-60948407D01*
X59620366Y-60778255D01*
X59715405Y-60587389D01*
X59773756Y-60382310D01*
X59786109Y-60249003D01*
X80939522Y-60249003D01*
X80958561Y-60405808D01*
X80958564Y-60405822D01*
X81014578Y-60553521D01*
X81038944Y-60588821D01*
X81104317Y-60683530D01*
X81222560Y-60788283D01*
X81362435Y-60861696D01*
X81515815Y-60899500D01*
X81515819Y-60899500D01*
X81673781Y-60899500D01*
X81673785Y-60899500D01*
X81827165Y-60861696D01*
X81967040Y-60788283D01*
X82085283Y-60683530D01*
X82175020Y-60553523D01*
X82231037Y-60405818D01*
X82238088Y-60347742D01*
X82250078Y-60249003D01*
X82250078Y-60248996D01*
X82231038Y-60092191D01*
X82231037Y-60092182D01*
X82196078Y-60000003D01*
X83844722Y-60000003D01*
X83863761Y-60156808D01*
X83863764Y-60156822D01*
X83919778Y-60304521D01*
X84009516Y-60434529D01*
X84009517Y-60434530D01*
X84127760Y-60539283D01*
X84267635Y-60612696D01*
X84421015Y-60650500D01*
X84421019Y-60650500D01*
X84578981Y-60650500D01*
X84578985Y-60650500D01*
X84732365Y-60612696D01*
X84872240Y-60539283D01*
X84990483Y-60434530D01*
X85080220Y-60304523D01*
X85136237Y-60156818D01*
X85154428Y-60007003D01*
X86561785Y-60007003D01*
X86580601Y-60210076D01*
X86580602Y-60210082D01*
X86629604Y-60382303D01*
X86636418Y-60406250D01*
X86727327Y-60588821D01*
X86727328Y-60588822D01*
X86727329Y-60588825D01*
X86850234Y-60751578D01*
X86850235Y-60751579D01*
X86945040Y-60838004D01*
X87000959Y-60888981D01*
X87174363Y-60996348D01*
X87364544Y-61070024D01*
X87565024Y-61107500D01*
X87565026Y-61107500D01*
X87768974Y-61107500D01*
X87768976Y-61107500D01*
X87969456Y-61070024D01*
X88159637Y-60996348D01*
X88333041Y-60888981D01*
X88483764Y-60751579D01*
X88588644Y-60612696D01*
X88606670Y-60588825D01*
X88606670Y-60588824D01*
X88606673Y-60588821D01*
X88697582Y-60406250D01*
X88753397Y-60210083D01*
X88758333Y-60156822D01*
X88772215Y-60007003D01*
X101801785Y-60007003D01*
X101820601Y-60210076D01*
X101820602Y-60210082D01*
X101869604Y-60382303D01*
X101876418Y-60406250D01*
X101967327Y-60588821D01*
X101967328Y-60588822D01*
X101967329Y-60588825D01*
X102090234Y-60751578D01*
X102090235Y-60751579D01*
X102185040Y-60838004D01*
X102240959Y-60888981D01*
X102414363Y-60996348D01*
X102604544Y-61070024D01*
X102805024Y-61107500D01*
X102805026Y-61107500D01*
X103008974Y-61107500D01*
X103008976Y-61107500D01*
X103209456Y-61070024D01*
X103399637Y-60996348D01*
X103573041Y-60888981D01*
X103723764Y-60751579D01*
X103828644Y-60612696D01*
X103846670Y-60588825D01*
X103846670Y-60588824D01*
X103846673Y-60588821D01*
X103937582Y-60406250D01*
X103993397Y-60210083D01*
X103998333Y-60156822D01*
X104012215Y-60007003D01*
X110761785Y-60007003D01*
X110780601Y-60210076D01*
X110780602Y-60210082D01*
X110829604Y-60382303D01*
X110836418Y-60406250D01*
X110927327Y-60588821D01*
X110927328Y-60588822D01*
X110927329Y-60588825D01*
X111050234Y-60751578D01*
X111050235Y-60751579D01*
X111145040Y-60838004D01*
X111200959Y-60888981D01*
X111374363Y-60996348D01*
X111564544Y-61070024D01*
X111765024Y-61107500D01*
X111765026Y-61107500D01*
X111968974Y-61107500D01*
X111968976Y-61107500D01*
X112169456Y-61070024D01*
X112359637Y-60996348D01*
X112533041Y-60888981D01*
X112683764Y-60751579D01*
X112788644Y-60612696D01*
X112806670Y-60588825D01*
X112806670Y-60588824D01*
X112806673Y-60588821D01*
X112897582Y-60406250D01*
X112953397Y-60210083D01*
X112958333Y-60156822D01*
X112972215Y-60007003D01*
X126001785Y-60007003D01*
X126020601Y-60210076D01*
X126020602Y-60210082D01*
X126069604Y-60382303D01*
X126076418Y-60406250D01*
X126167327Y-60588821D01*
X126167328Y-60588822D01*
X126167329Y-60588825D01*
X126290234Y-60751578D01*
X126290235Y-60751579D01*
X126385040Y-60838004D01*
X126440959Y-60888981D01*
X126614363Y-60996348D01*
X126804544Y-61070024D01*
X127005024Y-61107500D01*
X127005026Y-61107500D01*
X127208974Y-61107500D01*
X127208976Y-61107500D01*
X127409456Y-61070024D01*
X127599637Y-60996348D01*
X127773041Y-60888981D01*
X127923764Y-60751579D01*
X128028644Y-60612696D01*
X128046670Y-60588825D01*
X128046670Y-60588824D01*
X128046673Y-60588821D01*
X128137582Y-60406250D01*
X128193397Y-60210083D01*
X128198333Y-60156822D01*
X128212215Y-60007003D01*
X128212215Y-60006996D01*
X128193398Y-59803923D01*
X128193397Y-59803917D01*
X128178799Y-59752611D01*
X128137582Y-59607750D01*
X128046673Y-59425179D01*
X128046670Y-59425175D01*
X128046670Y-59425174D01*
X127923765Y-59262421D01*
X127923764Y-59262420D01*
X127773041Y-59125019D01*
X127599637Y-59017652D01*
X127409456Y-58943976D01*
X127321407Y-58927516D01*
X127208979Y-58906500D01*
X127208976Y-58906500D01*
X127005024Y-58906500D01*
X127005020Y-58906500D01*
X126855116Y-58934522D01*
X126804544Y-58943976D01*
X126804542Y-58943976D01*
X126804540Y-58943977D01*
X126614368Y-59017650D01*
X126614363Y-59017652D01*
X126614358Y-59017654D01*
X126614358Y-59017655D01*
X126440958Y-59125019D01*
X126440957Y-59125019D01*
X126290235Y-59262420D01*
X126290234Y-59262421D01*
X126167329Y-59425174D01*
X126167328Y-59425177D01*
X126076418Y-59607750D01*
X126076416Y-59607755D01*
X126020602Y-59803917D01*
X126020601Y-59803923D01*
X126001785Y-60006996D01*
X126001785Y-60007003D01*
X112972215Y-60007003D01*
X112972215Y-60006996D01*
X112953398Y-59803923D01*
X112953397Y-59803917D01*
X112938799Y-59752611D01*
X112897582Y-59607750D01*
X112806673Y-59425179D01*
X112806670Y-59425175D01*
X112806670Y-59425174D01*
X112683765Y-59262421D01*
X112683764Y-59262420D01*
X112533041Y-59125019D01*
X112359637Y-59017652D01*
X112169456Y-58943976D01*
X112081407Y-58927516D01*
X111968979Y-58906500D01*
X111968976Y-58906500D01*
X111765024Y-58906500D01*
X111765020Y-58906500D01*
X111615116Y-58934522D01*
X111564544Y-58943976D01*
X111564542Y-58943976D01*
X111564540Y-58943977D01*
X111374368Y-59017650D01*
X111374363Y-59017652D01*
X111374358Y-59017654D01*
X111374358Y-59017655D01*
X111200958Y-59125019D01*
X111200957Y-59125019D01*
X111050235Y-59262420D01*
X111050234Y-59262421D01*
X110927329Y-59425174D01*
X110927328Y-59425177D01*
X110836418Y-59607750D01*
X110836416Y-59607755D01*
X110780602Y-59803917D01*
X110780601Y-59803923D01*
X110761785Y-60006996D01*
X110761785Y-60007003D01*
X104012215Y-60007003D01*
X104012215Y-60006996D01*
X103993398Y-59803923D01*
X103993397Y-59803917D01*
X103978799Y-59752611D01*
X103937582Y-59607750D01*
X103846673Y-59425179D01*
X103846670Y-59425175D01*
X103846670Y-59425174D01*
X103723765Y-59262421D01*
X103723764Y-59262420D01*
X103573041Y-59125019D01*
X103399637Y-59017652D01*
X103209456Y-58943976D01*
X103121407Y-58927516D01*
X103008979Y-58906500D01*
X103008976Y-58906500D01*
X102805024Y-58906500D01*
X102805020Y-58906500D01*
X102655116Y-58934522D01*
X102604544Y-58943976D01*
X102604542Y-58943976D01*
X102604540Y-58943977D01*
X102414368Y-59017650D01*
X102414363Y-59017652D01*
X102414358Y-59017654D01*
X102414358Y-59017655D01*
X102240958Y-59125019D01*
X102240957Y-59125019D01*
X102090235Y-59262420D01*
X102090234Y-59262421D01*
X101967329Y-59425174D01*
X101967328Y-59425177D01*
X101876418Y-59607750D01*
X101876416Y-59607755D01*
X101820602Y-59803917D01*
X101820601Y-59803923D01*
X101801785Y-60006996D01*
X101801785Y-60007003D01*
X88772215Y-60007003D01*
X88772215Y-60006996D01*
X88753398Y-59803923D01*
X88753397Y-59803917D01*
X88738799Y-59752611D01*
X88697582Y-59607750D01*
X88606673Y-59425179D01*
X88606670Y-59425175D01*
X88606670Y-59425174D01*
X88483765Y-59262421D01*
X88483764Y-59262420D01*
X88333041Y-59125019D01*
X88159637Y-59017652D01*
X87969456Y-58943976D01*
X87881407Y-58927516D01*
X87768979Y-58906500D01*
X87768976Y-58906500D01*
X87565024Y-58906500D01*
X87565020Y-58906500D01*
X87415116Y-58934522D01*
X87364544Y-58943976D01*
X87364542Y-58943976D01*
X87364540Y-58943977D01*
X87174368Y-59017650D01*
X87174363Y-59017652D01*
X87174358Y-59017654D01*
X87174358Y-59017655D01*
X87000958Y-59125019D01*
X87000957Y-59125019D01*
X86850235Y-59262420D01*
X86850234Y-59262421D01*
X86727329Y-59425174D01*
X86727328Y-59425177D01*
X86636418Y-59607750D01*
X86636416Y-59607755D01*
X86580602Y-59803917D01*
X86580601Y-59803923D01*
X86561785Y-60006996D01*
X86561785Y-60007003D01*
X85154428Y-60007003D01*
X85155278Y-60000000D01*
X85150141Y-59957696D01*
X85136238Y-59843191D01*
X85136237Y-59843182D01*
X85121346Y-59803917D01*
X85080221Y-59695478D01*
X84990483Y-59565470D01*
X84986274Y-59561741D01*
X84872240Y-59460717D01*
X84804525Y-59425177D01*
X84732366Y-59387304D01*
X84578987Y-59349500D01*
X84578985Y-59349500D01*
X84421015Y-59349500D01*
X84421012Y-59349500D01*
X84267633Y-59387304D01*
X84127761Y-59460716D01*
X84009516Y-59565470D01*
X83919779Y-59695478D01*
X83919778Y-59695478D01*
X83863764Y-59843177D01*
X83863761Y-59843191D01*
X83844722Y-59999996D01*
X83844722Y-60000003D01*
X82196078Y-60000003D01*
X82175020Y-59944477D01*
X82168153Y-59934529D01*
X82162180Y-59925875D01*
X82150293Y-59870500D01*
X82174008Y-59828451D01*
X82229683Y-59779130D01*
X82319420Y-59649123D01*
X82319423Y-59649117D01*
X82352558Y-59561745D01*
X82375437Y-59501418D01*
X82388772Y-59391593D01*
X82394478Y-59344603D01*
X82394478Y-59344596D01*
X82375438Y-59187791D01*
X82375437Y-59187782D01*
X82351634Y-59125019D01*
X82319421Y-59040078D01*
X82229683Y-58910070D01*
X82203985Y-58887304D01*
X82111440Y-58805317D01*
X82064154Y-58780499D01*
X81971566Y-58731904D01*
X81818187Y-58694100D01*
X81818185Y-58694100D01*
X81660215Y-58694100D01*
X81660212Y-58694100D01*
X81506833Y-58731904D01*
X81366961Y-58805316D01*
X81248716Y-58910070D01*
X81158979Y-59040078D01*
X81158978Y-59040078D01*
X81102964Y-59187777D01*
X81102961Y-59187791D01*
X81083922Y-59344596D01*
X81083922Y-59344603D01*
X81102961Y-59501408D01*
X81102964Y-59501422D01*
X81158977Y-59649117D01*
X81158978Y-59649119D01*
X81158980Y-59649123D01*
X81171818Y-59667722D01*
X81183705Y-59723097D01*
X81159989Y-59765147D01*
X81104318Y-59814467D01*
X81014579Y-59944478D01*
X81014578Y-59944478D01*
X80958564Y-60092177D01*
X80958561Y-60092191D01*
X80939522Y-60248996D01*
X80939522Y-60249003D01*
X59786109Y-60249003D01*
X59793429Y-60170003D01*
X59793429Y-60169996D01*
X59773757Y-59957696D01*
X59773756Y-59957690D01*
X59769997Y-59944478D01*
X59715405Y-59752611D01*
X59700001Y-59721676D01*
X59620367Y-59561747D01*
X59620363Y-59561741D01*
X59573740Y-59500003D01*
X71622622Y-59500003D01*
X71641661Y-59656808D01*
X71641664Y-59656822D01*
X71697678Y-59804521D01*
X71781443Y-59925875D01*
X71787417Y-59934530D01*
X71905660Y-60039283D01*
X72045535Y-60112696D01*
X72198915Y-60150500D01*
X72198919Y-60150500D01*
X72356881Y-60150500D01*
X72356885Y-60150500D01*
X72510265Y-60112696D01*
X72650140Y-60039283D01*
X72768383Y-59934530D01*
X72858120Y-59804523D01*
X72914137Y-59656818D01*
X72925681Y-59561741D01*
X72933178Y-59500003D01*
X72933178Y-59499996D01*
X72914904Y-59349500D01*
X72914137Y-59343182D01*
X72906113Y-59322025D01*
X72858121Y-59195478D01*
X72768383Y-59065470D01*
X72714407Y-59017652D01*
X72650140Y-58960717D01*
X72618243Y-58943976D01*
X72510266Y-58887304D01*
X72356887Y-58849500D01*
X72356885Y-58849500D01*
X72198915Y-58849500D01*
X72198912Y-58849500D01*
X72045533Y-58887304D01*
X71905661Y-58960716D01*
X71787416Y-59065470D01*
X71697679Y-59195478D01*
X71697678Y-59195478D01*
X71641664Y-59343177D01*
X71641661Y-59343191D01*
X71622622Y-59499996D01*
X71622622Y-59500003D01*
X59573740Y-59500003D01*
X59544072Y-59460717D01*
X59491872Y-59391593D01*
X59334302Y-59247948D01*
X59153019Y-59135702D01*
X58954198Y-59058679D01*
X58854687Y-59040077D01*
X58744613Y-59019500D01*
X58744610Y-59019500D01*
X58531390Y-59019500D01*
X58531386Y-59019500D01*
X58374670Y-59048796D01*
X58321802Y-59058679D01*
X58321800Y-59058679D01*
X58321798Y-59058680D01*
X58150557Y-59125019D01*
X58122981Y-59135702D01*
X58122976Y-59135704D01*
X58122976Y-59135705D01*
X57941700Y-59247946D01*
X57784130Y-59391590D01*
X57655636Y-59561741D01*
X57655632Y-59561747D01*
X57560596Y-59752606D01*
X57560593Y-59752616D01*
X57502243Y-59957690D01*
X57502242Y-59957696D01*
X57482571Y-60169996D01*
X57482571Y-60170003D01*
X56250000Y-60170003D01*
X56250000Y-57630003D01*
X57482571Y-57630003D01*
X57502242Y-57842303D01*
X57502243Y-57842309D01*
X57560593Y-58047383D01*
X57560596Y-58047393D01*
X57655632Y-58238252D01*
X57655634Y-58238255D01*
X57784128Y-58408407D01*
X57941698Y-58552052D01*
X58122981Y-58664298D01*
X58321802Y-58741321D01*
X58531390Y-58780500D01*
X58744610Y-58780500D01*
X58954198Y-58741321D01*
X59153019Y-58664298D01*
X59334302Y-58552052D01*
X59491872Y-58408407D01*
X59620366Y-58238255D01*
X59715405Y-58047389D01*
X59734521Y-57980203D01*
X71507322Y-57980203D01*
X71526361Y-58137008D01*
X71526364Y-58137022D01*
X71582378Y-58284721D01*
X71667754Y-58408409D01*
X71672117Y-58414730D01*
X71790360Y-58519483D01*
X71930235Y-58592896D01*
X72083615Y-58630700D01*
X72083619Y-58630700D01*
X72241581Y-58630700D01*
X72241585Y-58630700D01*
X72394965Y-58592896D01*
X72534840Y-58519483D01*
X72653083Y-58414730D01*
X72742820Y-58284723D01*
X72798837Y-58137018D01*
X72811400Y-58033546D01*
X72839222Y-57984217D01*
X72871052Y-57971036D01*
X72870839Y-57970171D01*
X72875184Y-57969100D01*
X72875185Y-57969100D01*
X73028565Y-57931296D01*
X73168440Y-57857883D01*
X73237618Y-57796596D01*
X73291154Y-57778123D01*
X73335756Y-57796598D01*
X73360457Y-57818481D01*
X73360460Y-57818483D01*
X73500335Y-57891896D01*
X73653715Y-57929700D01*
X73653719Y-57929700D01*
X73811681Y-57929700D01*
X73811685Y-57929700D01*
X73965065Y-57891896D01*
X74104940Y-57818483D01*
X74223183Y-57713730D01*
X74312920Y-57583723D01*
X74357186Y-57467003D01*
X86561785Y-57467003D01*
X86580601Y-57670076D01*
X86580602Y-57670082D01*
X86636416Y-57866244D01*
X86636418Y-57866250D01*
X86727327Y-58048821D01*
X86727328Y-58048822D01*
X86727329Y-58048825D01*
X86850234Y-58211578D01*
X86850235Y-58211579D01*
X86930469Y-58284721D01*
X87000959Y-58348981D01*
X87174363Y-58456348D01*
X87364544Y-58530024D01*
X87565024Y-58567500D01*
X87565026Y-58567500D01*
X87768974Y-58567500D01*
X87768976Y-58567500D01*
X87969456Y-58530024D01*
X88159637Y-58456348D01*
X88333041Y-58348981D01*
X88483764Y-58211579D01*
X88606673Y-58048821D01*
X88697582Y-57866250D01*
X88753397Y-57670083D01*
X88761400Y-57583723D01*
X88772215Y-57467003D01*
X101801785Y-57467003D01*
X101820601Y-57670076D01*
X101820602Y-57670082D01*
X101876416Y-57866244D01*
X101876418Y-57866250D01*
X101967327Y-58048821D01*
X101967328Y-58048822D01*
X101967329Y-58048825D01*
X102090234Y-58211578D01*
X102090235Y-58211579D01*
X102170469Y-58284721D01*
X102240959Y-58348981D01*
X102414363Y-58456348D01*
X102604544Y-58530024D01*
X102805024Y-58567500D01*
X102805026Y-58567500D01*
X103008974Y-58567500D01*
X103008976Y-58567500D01*
X103209456Y-58530024D01*
X103399637Y-58456348D01*
X103573041Y-58348981D01*
X103723764Y-58211579D01*
X103846673Y-58048821D01*
X103937582Y-57866250D01*
X103993397Y-57670083D01*
X104001400Y-57583723D01*
X104012215Y-57467003D01*
X110761785Y-57467003D01*
X110780601Y-57670076D01*
X110780602Y-57670082D01*
X110836416Y-57866244D01*
X110836418Y-57866250D01*
X110927327Y-58048821D01*
X110927328Y-58048822D01*
X110927329Y-58048825D01*
X111050234Y-58211578D01*
X111050235Y-58211579D01*
X111130469Y-58284721D01*
X111200959Y-58348981D01*
X111374363Y-58456348D01*
X111564544Y-58530024D01*
X111765024Y-58567500D01*
X111765026Y-58567500D01*
X111968974Y-58567500D01*
X111968976Y-58567500D01*
X112169456Y-58530024D01*
X112359637Y-58456348D01*
X112533041Y-58348981D01*
X112683764Y-58211579D01*
X112806673Y-58048821D01*
X112897582Y-57866250D01*
X112953397Y-57670083D01*
X112961400Y-57583723D01*
X112972215Y-57467003D01*
X126001785Y-57467003D01*
X126020601Y-57670076D01*
X126020602Y-57670082D01*
X126076416Y-57866244D01*
X126076418Y-57866250D01*
X126167327Y-58048821D01*
X126167328Y-58048822D01*
X126167329Y-58048825D01*
X126290234Y-58211578D01*
X126290235Y-58211579D01*
X126370469Y-58284721D01*
X126440959Y-58348981D01*
X126614363Y-58456348D01*
X126804544Y-58530024D01*
X127005024Y-58567500D01*
X127005026Y-58567500D01*
X127208974Y-58567500D01*
X127208976Y-58567500D01*
X127409456Y-58530024D01*
X127599637Y-58456348D01*
X127773041Y-58348981D01*
X127923764Y-58211579D01*
X128046673Y-58048821D01*
X128137582Y-57866250D01*
X128193397Y-57670083D01*
X128201400Y-57583723D01*
X128212215Y-57467003D01*
X128212215Y-57466996D01*
X128193398Y-57263923D01*
X128193397Y-57263917D01*
X128178799Y-57212611D01*
X128137582Y-57067750D01*
X128046673Y-56885179D01*
X128046670Y-56885175D01*
X128046670Y-56885174D01*
X127923765Y-56722421D01*
X127923764Y-56722420D01*
X127773041Y-56585019D01*
X127599637Y-56477652D01*
X127409456Y-56403976D01*
X127321407Y-56387516D01*
X127208979Y-56366500D01*
X127208976Y-56366500D01*
X127005024Y-56366500D01*
X127005020Y-56366500D01*
X126855116Y-56394522D01*
X126804544Y-56403976D01*
X126804542Y-56403976D01*
X126804540Y-56403977D01*
X126614368Y-56477650D01*
X126614363Y-56477652D01*
X126614358Y-56477654D01*
X126614358Y-56477655D01*
X126440958Y-56585019D01*
X126440957Y-56585019D01*
X126290235Y-56722420D01*
X126290234Y-56722421D01*
X126167329Y-56885174D01*
X126167328Y-56885177D01*
X126076418Y-57067750D01*
X126076416Y-57067755D01*
X126020602Y-57263917D01*
X126020601Y-57263923D01*
X126001785Y-57466996D01*
X126001785Y-57467003D01*
X112972215Y-57467003D01*
X112972215Y-57466996D01*
X112953398Y-57263923D01*
X112953397Y-57263917D01*
X112938799Y-57212611D01*
X112897582Y-57067750D01*
X112806673Y-56885179D01*
X112806670Y-56885175D01*
X112806670Y-56885174D01*
X112683765Y-56722421D01*
X112683764Y-56722420D01*
X112533041Y-56585019D01*
X112359637Y-56477652D01*
X112169456Y-56403976D01*
X112081407Y-56387516D01*
X111968979Y-56366500D01*
X111968976Y-56366500D01*
X111765024Y-56366500D01*
X111765020Y-56366500D01*
X111615116Y-56394522D01*
X111564544Y-56403976D01*
X111564542Y-56403976D01*
X111564540Y-56403977D01*
X111374368Y-56477650D01*
X111374363Y-56477652D01*
X111374358Y-56477654D01*
X111374358Y-56477655D01*
X111200958Y-56585019D01*
X111200957Y-56585019D01*
X111050235Y-56722420D01*
X111050234Y-56722421D01*
X110927329Y-56885174D01*
X110927328Y-56885177D01*
X110836418Y-57067750D01*
X110836416Y-57067755D01*
X110780602Y-57263917D01*
X110780601Y-57263923D01*
X110761785Y-57466996D01*
X110761785Y-57467003D01*
X104012215Y-57467003D01*
X104012215Y-57466996D01*
X103993398Y-57263923D01*
X103993397Y-57263917D01*
X103978799Y-57212611D01*
X103937582Y-57067750D01*
X103846673Y-56885179D01*
X103846670Y-56885175D01*
X103846670Y-56885174D01*
X103723765Y-56722421D01*
X103723764Y-56722420D01*
X103573041Y-56585019D01*
X103399637Y-56477652D01*
X103209456Y-56403976D01*
X103121407Y-56387516D01*
X103008979Y-56366500D01*
X103008976Y-56366500D01*
X102805024Y-56366500D01*
X102805020Y-56366500D01*
X102655116Y-56394522D01*
X102604544Y-56403976D01*
X102604542Y-56403976D01*
X102604540Y-56403977D01*
X102414368Y-56477650D01*
X102414363Y-56477652D01*
X102414358Y-56477654D01*
X102414358Y-56477655D01*
X102240958Y-56585019D01*
X102240957Y-56585019D01*
X102090235Y-56722420D01*
X102090234Y-56722421D01*
X101967329Y-56885174D01*
X101967328Y-56885177D01*
X101876418Y-57067750D01*
X101876416Y-57067755D01*
X101820602Y-57263917D01*
X101820601Y-57263923D01*
X101801785Y-57466996D01*
X101801785Y-57467003D01*
X88772215Y-57467003D01*
X88772215Y-57466996D01*
X88753398Y-57263923D01*
X88753397Y-57263917D01*
X88738799Y-57212611D01*
X88697582Y-57067750D01*
X88606673Y-56885179D01*
X88606670Y-56885175D01*
X88606670Y-56885174D01*
X88483765Y-56722421D01*
X88483764Y-56722420D01*
X88333041Y-56585019D01*
X88159637Y-56477652D01*
X87969456Y-56403976D01*
X87881407Y-56387516D01*
X87768979Y-56366500D01*
X87768976Y-56366500D01*
X87565024Y-56366500D01*
X87565020Y-56366500D01*
X87415116Y-56394522D01*
X87364544Y-56403976D01*
X87364542Y-56403976D01*
X87364540Y-56403977D01*
X87174368Y-56477650D01*
X87174363Y-56477652D01*
X87174358Y-56477654D01*
X87174358Y-56477655D01*
X87000958Y-56585019D01*
X87000957Y-56585019D01*
X86850235Y-56722420D01*
X86850234Y-56722421D01*
X86727329Y-56885174D01*
X86727328Y-56885177D01*
X86636418Y-57067750D01*
X86636416Y-57067755D01*
X86580602Y-57263917D01*
X86580601Y-57263923D01*
X86561785Y-57466996D01*
X86561785Y-57467003D01*
X74357186Y-57467003D01*
X74368937Y-57436018D01*
X74387978Y-57279200D01*
X74386284Y-57265251D01*
X74368938Y-57122391D01*
X74368937Y-57122382D01*
X74348218Y-57067750D01*
X74312921Y-56974678D01*
X74251143Y-56885177D01*
X74246570Y-56878553D01*
X74234684Y-56823178D01*
X74265435Y-56775616D01*
X74273083Y-56770993D01*
X74318636Y-56747085D01*
X74318635Y-56747085D01*
X74318640Y-56747083D01*
X74387207Y-56686338D01*
X74440744Y-56667864D01*
X74485346Y-56686338D01*
X74560460Y-56752883D01*
X74700335Y-56826296D01*
X74853715Y-56864100D01*
X74853719Y-56864100D01*
X75011681Y-56864100D01*
X75011685Y-56864100D01*
X75165065Y-56826296D01*
X75304940Y-56752883D01*
X75423183Y-56648130D01*
X75512920Y-56518123D01*
X75515121Y-56512321D01*
X75531592Y-56468888D01*
X75568937Y-56370418D01*
X75587978Y-56213600D01*
X75587274Y-56207803D01*
X75568938Y-56056791D01*
X75568937Y-56056782D01*
X75543619Y-55990024D01*
X75512921Y-55909078D01*
X75423183Y-55779070D01*
X75416636Y-55773270D01*
X75304940Y-55674317D01*
X75292839Y-55667966D01*
X75165066Y-55600904D01*
X75011687Y-55563100D01*
X75011685Y-55563100D01*
X74853715Y-55563100D01*
X74853712Y-55563100D01*
X74700333Y-55600904D01*
X74560462Y-55674315D01*
X74491893Y-55735061D01*
X74438354Y-55753535D01*
X74393752Y-55735060D01*
X74318640Y-55668517D01*
X74306539Y-55662166D01*
X74178766Y-55595104D01*
X74025387Y-55557300D01*
X74025385Y-55557300D01*
X73867415Y-55557300D01*
X73867412Y-55557300D01*
X73714033Y-55595104D01*
X73574161Y-55668516D01*
X73455916Y-55773270D01*
X73366179Y-55903278D01*
X73366178Y-55903278D01*
X73310164Y-56050977D01*
X73310161Y-56050991D01*
X73291122Y-56207796D01*
X73291122Y-56207803D01*
X73310161Y-56364608D01*
X73310164Y-56364622D01*
X73366178Y-56512321D01*
X73432528Y-56608445D01*
X73444415Y-56663821D01*
X73413664Y-56711383D01*
X73406018Y-56716005D01*
X73360460Y-56739917D01*
X73291284Y-56801201D01*
X73237744Y-56819676D01*
X73193143Y-56801202D01*
X73193142Y-56801201D01*
X73168440Y-56779317D01*
X73168438Y-56779316D01*
X73168437Y-56779315D01*
X73028566Y-56705904D01*
X72875187Y-56668100D01*
X72875185Y-56668100D01*
X72717215Y-56668100D01*
X72717212Y-56668100D01*
X72563833Y-56705904D01*
X72423961Y-56779316D01*
X72305716Y-56884070D01*
X72215979Y-57014078D01*
X72215978Y-57014078D01*
X72159964Y-57161777D01*
X72159961Y-57161791D01*
X72147399Y-57265251D01*
X72119576Y-57314583D01*
X72087748Y-57327767D01*
X72087961Y-57328629D01*
X72083616Y-57329700D01*
X72083615Y-57329700D01*
X72047365Y-57338634D01*
X71930233Y-57367504D01*
X71790361Y-57440916D01*
X71672116Y-57545670D01*
X71582379Y-57675678D01*
X71582378Y-57675678D01*
X71526364Y-57823377D01*
X71526361Y-57823391D01*
X71507322Y-57980196D01*
X71507322Y-57980203D01*
X59734521Y-57980203D01*
X59773756Y-57842310D01*
X59775511Y-57823377D01*
X59793429Y-57630003D01*
X59793429Y-57629996D01*
X59773757Y-57417696D01*
X59773756Y-57417690D01*
X59748720Y-57329700D01*
X59715405Y-57212611D01*
X59690095Y-57161782D01*
X59620367Y-57021747D01*
X59620363Y-57021741D01*
X59584822Y-56974678D01*
X59491872Y-56851593D01*
X59484282Y-56844674D01*
X59436595Y-56801201D01*
X59334302Y-56707948D01*
X59153019Y-56595702D01*
X58954198Y-56518679D01*
X58862150Y-56501472D01*
X58744613Y-56479500D01*
X58744610Y-56479500D01*
X58531390Y-56479500D01*
X58531386Y-56479500D01*
X58374670Y-56508796D01*
X58321802Y-56518679D01*
X58321800Y-56518679D01*
X58321798Y-56518680D01*
X58150557Y-56585019D01*
X58122981Y-56595702D01*
X58122976Y-56595704D01*
X58122976Y-56595705D01*
X57941700Y-56707946D01*
X57784130Y-56851590D01*
X57655636Y-57021741D01*
X57655632Y-57021747D01*
X57560596Y-57212606D01*
X57560593Y-57212616D01*
X57502243Y-57417690D01*
X57502242Y-57417696D01*
X57482571Y-57629996D01*
X57482571Y-57630003D01*
X56250000Y-57630003D01*
X56250000Y-55090003D01*
X57482571Y-55090003D01*
X57502242Y-55302303D01*
X57502243Y-55302309D01*
X57560593Y-55507383D01*
X57560596Y-55507393D01*
X57655632Y-55698252D01*
X57655634Y-55698255D01*
X57784128Y-55868407D01*
X57941698Y-56012052D01*
X58122981Y-56124298D01*
X58321802Y-56201321D01*
X58531390Y-56240500D01*
X58744610Y-56240500D01*
X58954198Y-56201321D01*
X59153019Y-56124298D01*
X59334302Y-56012052D01*
X59491872Y-55868407D01*
X59620366Y-55698255D01*
X59715405Y-55507389D01*
X59773756Y-55302310D01*
X59789716Y-55130076D01*
X59793429Y-55090003D01*
X59793429Y-55089996D01*
X59773757Y-54877696D01*
X59773756Y-54877690D01*
X59759101Y-54826183D01*
X59715405Y-54672611D01*
X59620366Y-54481745D01*
X59491872Y-54311593D01*
X59464789Y-54286903D01*
X74923322Y-54286903D01*
X74942361Y-54443708D01*
X74942364Y-54443722D01*
X74998378Y-54591421D01*
X75054423Y-54672616D01*
X75088117Y-54721430D01*
X75206360Y-54826183D01*
X75346235Y-54899596D01*
X75499615Y-54937400D01*
X75499619Y-54937400D01*
X75657581Y-54937400D01*
X75657585Y-54937400D01*
X75699768Y-54927003D01*
X86561785Y-54927003D01*
X86580601Y-55130076D01*
X86580602Y-55130082D01*
X86629604Y-55302303D01*
X86636418Y-55326250D01*
X86727327Y-55508821D01*
X86727328Y-55508822D01*
X86727329Y-55508825D01*
X86850234Y-55671578D01*
X86850235Y-55671579D01*
X86987637Y-55796836D01*
X87000959Y-55808981D01*
X87174363Y-55916348D01*
X87364544Y-55990024D01*
X87565024Y-56027500D01*
X87565026Y-56027500D01*
X87768974Y-56027500D01*
X87768976Y-56027500D01*
X87969456Y-55990024D01*
X88159637Y-55916348D01*
X88333041Y-55808981D01*
X88483764Y-55671579D01*
X88486077Y-55668517D01*
X88606670Y-55508825D01*
X88606670Y-55508824D01*
X88606673Y-55508821D01*
X88697582Y-55326250D01*
X88753397Y-55130083D01*
X88771252Y-54937400D01*
X88772215Y-54927003D01*
X101801785Y-54927003D01*
X101820601Y-55130076D01*
X101820602Y-55130082D01*
X101869604Y-55302303D01*
X101876418Y-55326250D01*
X101967327Y-55508821D01*
X101967328Y-55508822D01*
X101967329Y-55508825D01*
X102090234Y-55671578D01*
X102090235Y-55671579D01*
X102227637Y-55796836D01*
X102240959Y-55808981D01*
X102414363Y-55916348D01*
X102604544Y-55990024D01*
X102805024Y-56027500D01*
X102805026Y-56027500D01*
X103008974Y-56027500D01*
X103008976Y-56027500D01*
X103209456Y-55990024D01*
X103399637Y-55916348D01*
X103573041Y-55808981D01*
X103723764Y-55671579D01*
X103726077Y-55668517D01*
X103846670Y-55508825D01*
X103846670Y-55508824D01*
X103846673Y-55508821D01*
X103937582Y-55326250D01*
X103993397Y-55130083D01*
X104011252Y-54937400D01*
X104012215Y-54927003D01*
X110761785Y-54927003D01*
X110780601Y-55130076D01*
X110780602Y-55130082D01*
X110829604Y-55302303D01*
X110836418Y-55326250D01*
X110927327Y-55508821D01*
X110927328Y-55508822D01*
X110927329Y-55508825D01*
X111050234Y-55671578D01*
X111050235Y-55671579D01*
X111187637Y-55796836D01*
X111200959Y-55808981D01*
X111374363Y-55916348D01*
X111564544Y-55990024D01*
X111765024Y-56027500D01*
X111765026Y-56027500D01*
X111968974Y-56027500D01*
X111968976Y-56027500D01*
X112169456Y-55990024D01*
X112359637Y-55916348D01*
X112533041Y-55808981D01*
X112683764Y-55671579D01*
X112686077Y-55668517D01*
X112806670Y-55508825D01*
X112806670Y-55508824D01*
X112806673Y-55508821D01*
X112897582Y-55326250D01*
X112953397Y-55130083D01*
X112971252Y-54937400D01*
X112972215Y-54927003D01*
X126001785Y-54927003D01*
X126020601Y-55130076D01*
X126020602Y-55130082D01*
X126069604Y-55302303D01*
X126076418Y-55326250D01*
X126167327Y-55508821D01*
X126167328Y-55508822D01*
X126167329Y-55508825D01*
X126290234Y-55671578D01*
X126290235Y-55671579D01*
X126427637Y-55796836D01*
X126440959Y-55808981D01*
X126614363Y-55916348D01*
X126804544Y-55990024D01*
X127005024Y-56027500D01*
X127005026Y-56027500D01*
X127208974Y-56027500D01*
X127208976Y-56027500D01*
X127409456Y-55990024D01*
X127599637Y-55916348D01*
X127773041Y-55808981D01*
X127923764Y-55671579D01*
X127926077Y-55668517D01*
X128046670Y-55508825D01*
X128046670Y-55508824D01*
X128046673Y-55508821D01*
X128137582Y-55326250D01*
X128193397Y-55130083D01*
X128211252Y-54937400D01*
X128212215Y-54927003D01*
X128212215Y-54926996D01*
X128193398Y-54723923D01*
X128193397Y-54723917D01*
X128178799Y-54672611D01*
X128137582Y-54527750D01*
X128046673Y-54345179D01*
X128046670Y-54345175D01*
X128046670Y-54345174D01*
X127923765Y-54182421D01*
X127923764Y-54182420D01*
X127773041Y-54045019D01*
X127671870Y-53982377D01*
X127599637Y-53937652D01*
X127409456Y-53863976D01*
X127321407Y-53847516D01*
X127208979Y-53826500D01*
X127208976Y-53826500D01*
X127005024Y-53826500D01*
X127005020Y-53826500D01*
X126866631Y-53852370D01*
X126804544Y-53863976D01*
X126804542Y-53863976D01*
X126804540Y-53863977D01*
X126614368Y-53937650D01*
X126614363Y-53937652D01*
X126614358Y-53937654D01*
X126614358Y-53937655D01*
X126440958Y-54045019D01*
X126440957Y-54045019D01*
X126290235Y-54182420D01*
X126290234Y-54182421D01*
X126167329Y-54345174D01*
X126167328Y-54345177D01*
X126076418Y-54527750D01*
X126076416Y-54527755D01*
X126020602Y-54723917D01*
X126020601Y-54723923D01*
X126001785Y-54926996D01*
X126001785Y-54927003D01*
X112972215Y-54927003D01*
X112972215Y-54926996D01*
X112953398Y-54723923D01*
X112953397Y-54723917D01*
X112938799Y-54672611D01*
X112897582Y-54527750D01*
X112806673Y-54345179D01*
X112806670Y-54345175D01*
X112806670Y-54345174D01*
X112683765Y-54182421D01*
X112683764Y-54182420D01*
X112533041Y-54045019D01*
X112431870Y-53982377D01*
X112359637Y-53937652D01*
X112169456Y-53863976D01*
X112081407Y-53847516D01*
X111968979Y-53826500D01*
X111968976Y-53826500D01*
X111765024Y-53826500D01*
X111765020Y-53826500D01*
X111626631Y-53852370D01*
X111564544Y-53863976D01*
X111564542Y-53863976D01*
X111564540Y-53863977D01*
X111374368Y-53937650D01*
X111374363Y-53937652D01*
X111374358Y-53937654D01*
X111374358Y-53937655D01*
X111200958Y-54045019D01*
X111200957Y-54045019D01*
X111050235Y-54182420D01*
X111050234Y-54182421D01*
X110927329Y-54345174D01*
X110927328Y-54345177D01*
X110836418Y-54527750D01*
X110836416Y-54527755D01*
X110780602Y-54723917D01*
X110780601Y-54723923D01*
X110761785Y-54926996D01*
X110761785Y-54927003D01*
X104012215Y-54927003D01*
X104012215Y-54926996D01*
X103993398Y-54723923D01*
X103993397Y-54723917D01*
X103978799Y-54672611D01*
X103937582Y-54527750D01*
X103846673Y-54345179D01*
X103846670Y-54345175D01*
X103846670Y-54345174D01*
X103723765Y-54182421D01*
X103723764Y-54182420D01*
X103573041Y-54045019D01*
X103471870Y-53982377D01*
X103399637Y-53937652D01*
X103209456Y-53863976D01*
X103121407Y-53847516D01*
X103008979Y-53826500D01*
X103008976Y-53826500D01*
X102805024Y-53826500D01*
X102805020Y-53826500D01*
X102666631Y-53852370D01*
X102604544Y-53863976D01*
X102604542Y-53863976D01*
X102604540Y-53863977D01*
X102414368Y-53937650D01*
X102414363Y-53937652D01*
X102414358Y-53937654D01*
X102414358Y-53937655D01*
X102240958Y-54045019D01*
X102240957Y-54045019D01*
X102090235Y-54182420D01*
X102090234Y-54182421D01*
X101967329Y-54345174D01*
X101967328Y-54345177D01*
X101876418Y-54527750D01*
X101876416Y-54527755D01*
X101820602Y-54723917D01*
X101820601Y-54723923D01*
X101801785Y-54926996D01*
X101801785Y-54927003D01*
X88772215Y-54927003D01*
X88772215Y-54926996D01*
X88753398Y-54723923D01*
X88753397Y-54723917D01*
X88738799Y-54672611D01*
X88697582Y-54527750D01*
X88606673Y-54345179D01*
X88606670Y-54345175D01*
X88606670Y-54345174D01*
X88483765Y-54182421D01*
X88483764Y-54182420D01*
X88333041Y-54045019D01*
X88231870Y-53982377D01*
X88159637Y-53937652D01*
X87969456Y-53863976D01*
X87881407Y-53847516D01*
X87768979Y-53826500D01*
X87768976Y-53826500D01*
X87565024Y-53826500D01*
X87565020Y-53826500D01*
X87426631Y-53852370D01*
X87364544Y-53863976D01*
X87364542Y-53863976D01*
X87364540Y-53863977D01*
X87174368Y-53937650D01*
X87174363Y-53937652D01*
X87174358Y-53937654D01*
X87174358Y-53937655D01*
X87000958Y-54045019D01*
X87000957Y-54045019D01*
X86850235Y-54182420D01*
X86850234Y-54182421D01*
X86727329Y-54345174D01*
X86727328Y-54345177D01*
X86636418Y-54527750D01*
X86636416Y-54527755D01*
X86580602Y-54723917D01*
X86580601Y-54723923D01*
X86561785Y-54926996D01*
X86561785Y-54927003D01*
X75699768Y-54927003D01*
X75810965Y-54899596D01*
X75950840Y-54826183D01*
X76069083Y-54721430D01*
X76158820Y-54591423D01*
X76214837Y-54443718D01*
X76233878Y-54286900D01*
X76219434Y-54167946D01*
X76214838Y-54130091D01*
X76214837Y-54130082D01*
X76186630Y-54055705D01*
X76158821Y-53982378D01*
X76069083Y-53852370D01*
X76020917Y-53809699D01*
X75950840Y-53747617D01*
X75938739Y-53741266D01*
X75810966Y-53674204D01*
X75657587Y-53636400D01*
X75657585Y-53636400D01*
X75499615Y-53636400D01*
X75499612Y-53636400D01*
X75346233Y-53674204D01*
X75206361Y-53747616D01*
X75088116Y-53852370D01*
X74998379Y-53982378D01*
X74998378Y-53982378D01*
X74942364Y-54130077D01*
X74942361Y-54130091D01*
X74923322Y-54286896D01*
X74923322Y-54286903D01*
X59464789Y-54286903D01*
X59334302Y-54167948D01*
X59153019Y-54055702D01*
X59020471Y-54004353D01*
X58954201Y-53978680D01*
X58954200Y-53978679D01*
X58954198Y-53978679D01*
X58862150Y-53961472D01*
X58744613Y-53939500D01*
X58744610Y-53939500D01*
X58531390Y-53939500D01*
X58531386Y-53939500D01*
X58374670Y-53968796D01*
X58321802Y-53978679D01*
X58321800Y-53978679D01*
X58321798Y-53978680D01*
X58150557Y-54045019D01*
X58122981Y-54055702D01*
X58122976Y-54055704D01*
X58122976Y-54055705D01*
X57941700Y-54167946D01*
X57784130Y-54311590D01*
X57655636Y-54481741D01*
X57655632Y-54481747D01*
X57560596Y-54672606D01*
X57560593Y-54672616D01*
X57502243Y-54877690D01*
X57502242Y-54877696D01*
X57482571Y-55089996D01*
X57482571Y-55090003D01*
X56250000Y-55090003D01*
X56250000Y-53444863D01*
X57487500Y-53444863D01*
X57490414Y-53469986D01*
X57490415Y-53469992D01*
X57498146Y-53487500D01*
X57535794Y-53572765D01*
X57615235Y-53652206D01*
X57718009Y-53697585D01*
X57743135Y-53700500D01*
X59532864Y-53700499D01*
X59557991Y-53697585D01*
X59660765Y-53652206D01*
X59740206Y-53572765D01*
X59785585Y-53469991D01*
X59788500Y-53444865D01*
X59788500Y-53159203D01*
X78249622Y-53159203D01*
X78268661Y-53316008D01*
X78268664Y-53316022D01*
X78324678Y-53463721D01*
X78399946Y-53572765D01*
X78414417Y-53593730D01*
X78532660Y-53698483D01*
X78672535Y-53771896D01*
X78825915Y-53809700D01*
X78825919Y-53809700D01*
X78983881Y-53809700D01*
X78983885Y-53809700D01*
X79137265Y-53771896D01*
X79277140Y-53698483D01*
X79395383Y-53593730D01*
X79485120Y-53463723D01*
X79494419Y-53439205D01*
X79528733Y-53348724D01*
X79541137Y-53316018D01*
X79560178Y-53159200D01*
X79541137Y-53002382D01*
X79533113Y-52981225D01*
X79485121Y-52854678D01*
X79395383Y-52724670D01*
X79375528Y-52707080D01*
X79348012Y-52682703D01*
X80972122Y-52682703D01*
X80991161Y-52839508D01*
X80991164Y-52839522D01*
X81047178Y-52987221D01*
X81136916Y-53117229D01*
X81136917Y-53117230D01*
X81255160Y-53221983D01*
X81395035Y-53295396D01*
X81548415Y-53333200D01*
X81548419Y-53333200D01*
X81706381Y-53333200D01*
X81706385Y-53333200D01*
X81859765Y-53295396D01*
X81980815Y-53231863D01*
X86566500Y-53231863D01*
X86569414Y-53256986D01*
X86569415Y-53256992D01*
X86603064Y-53333199D01*
X86614794Y-53359765D01*
X86694235Y-53439206D01*
X86797009Y-53484585D01*
X86822135Y-53487500D01*
X88511864Y-53487499D01*
X88536991Y-53484585D01*
X88639765Y-53439206D01*
X88719206Y-53359765D01*
X88764585Y-53256991D01*
X88767500Y-53231865D01*
X88767500Y-52512001D01*
X101713441Y-52512001D01*
X101722377Y-52608438D01*
X101783237Y-52822342D01*
X101783239Y-52822346D01*
X101882368Y-53021426D01*
X101882370Y-53021428D01*
X102016392Y-53198900D01*
X102180742Y-53348724D01*
X102369817Y-53465794D01*
X102369827Y-53465799D01*
X102577195Y-53546135D01*
X102782000Y-53584418D01*
X102782000Y-52767617D01*
X102854339Y-52787000D01*
X102959661Y-52787000D01*
X103032000Y-52767617D01*
X103032000Y-53584418D01*
X103236804Y-53546135D01*
X103444172Y-53465799D01*
X103444182Y-53465794D01*
X103633257Y-53348724D01*
X103761448Y-53231863D01*
X110766500Y-53231863D01*
X110769414Y-53256986D01*
X110769415Y-53256992D01*
X110803064Y-53333199D01*
X110814794Y-53359765D01*
X110894235Y-53439206D01*
X110997009Y-53484585D01*
X111022135Y-53487500D01*
X112711864Y-53487499D01*
X112736991Y-53484585D01*
X112839765Y-53439206D01*
X112919206Y-53359765D01*
X112964585Y-53256991D01*
X112967500Y-53231865D01*
X112967500Y-52512001D01*
X125913441Y-52512001D01*
X125922377Y-52608438D01*
X125983237Y-52822342D01*
X125983239Y-52822346D01*
X126082368Y-53021426D01*
X126082370Y-53021428D01*
X126216392Y-53198900D01*
X126380742Y-53348724D01*
X126569817Y-53465794D01*
X126569827Y-53465799D01*
X126777195Y-53546135D01*
X126982000Y-53584418D01*
X126982000Y-52767617D01*
X127054339Y-52787000D01*
X127159661Y-52787000D01*
X127232000Y-52767617D01*
X127232000Y-53584418D01*
X127436804Y-53546135D01*
X127644172Y-53465799D01*
X127644182Y-53465794D01*
X127833257Y-53348724D01*
X127997607Y-53198900D01*
X128131629Y-53021428D01*
X128131631Y-53021426D01*
X128230760Y-52822346D01*
X128230762Y-52822342D01*
X128291622Y-52608438D01*
X128300558Y-52512001D01*
X128300557Y-52512000D01*
X127487617Y-52512000D01*
X127507000Y-52439661D01*
X127507000Y-52334339D01*
X127487617Y-52262000D01*
X128300557Y-52262000D01*
X128300558Y-52261998D01*
X128291622Y-52165561D01*
X128230762Y-51951657D01*
X128230760Y-51951653D01*
X128131631Y-51752573D01*
X128131629Y-51752571D01*
X127997607Y-51575099D01*
X127833257Y-51425275D01*
X127644182Y-51308205D01*
X127644172Y-51308200D01*
X127436805Y-51227865D01*
X127232000Y-51189580D01*
X127232000Y-52006382D01*
X127159661Y-51987000D01*
X127054339Y-51987000D01*
X126982000Y-52006382D01*
X126982000Y-51189580D01*
X126981999Y-51189580D01*
X126777194Y-51227865D01*
X126569827Y-51308200D01*
X126569817Y-51308205D01*
X126380742Y-51425275D01*
X126216392Y-51575099D01*
X126082370Y-51752571D01*
X126082368Y-51752573D01*
X125983239Y-51951653D01*
X125983237Y-51951657D01*
X125922377Y-52165561D01*
X125913441Y-52261998D01*
X125913443Y-52262000D01*
X126726383Y-52262000D01*
X126707000Y-52334339D01*
X126707000Y-52439661D01*
X126726383Y-52512000D01*
X125913443Y-52512000D01*
X125913441Y-52512001D01*
X112967500Y-52512001D01*
X112967499Y-51542136D01*
X112964585Y-51517009D01*
X112919206Y-51414235D01*
X112839765Y-51334794D01*
X112736991Y-51289415D01*
X112736990Y-51289414D01*
X112736988Y-51289414D01*
X112715659Y-51286940D01*
X112711865Y-51286500D01*
X112711864Y-51286500D01*
X111022136Y-51286500D01*
X110997013Y-51289414D01*
X110997007Y-51289415D01*
X110894234Y-51334794D01*
X110814794Y-51414234D01*
X110769414Y-51517011D01*
X110766500Y-51542135D01*
X110766500Y-53231863D01*
X103761448Y-53231863D01*
X103797607Y-53198900D01*
X103931629Y-53021428D01*
X103931631Y-53021426D01*
X104030760Y-52822346D01*
X104030762Y-52822342D01*
X104091622Y-52608438D01*
X104100558Y-52512001D01*
X104100557Y-52512000D01*
X103287617Y-52512000D01*
X103307000Y-52439661D01*
X103307000Y-52334339D01*
X103287617Y-52262000D01*
X104100557Y-52262000D01*
X104100558Y-52261998D01*
X104091622Y-52165561D01*
X104030762Y-51951657D01*
X104030760Y-51951653D01*
X103931631Y-51752573D01*
X103931629Y-51752571D01*
X103797607Y-51575099D01*
X103633257Y-51425275D01*
X103444182Y-51308205D01*
X103444172Y-51308200D01*
X103236805Y-51227865D01*
X103032000Y-51189580D01*
X103032000Y-52006382D01*
X102959661Y-51987000D01*
X102854339Y-51987000D01*
X102782000Y-52006382D01*
X102782000Y-51189580D01*
X102781999Y-51189580D01*
X102577194Y-51227865D01*
X102369827Y-51308200D01*
X102369817Y-51308205D01*
X102180742Y-51425275D01*
X102016392Y-51575099D01*
X101882370Y-51752571D01*
X101882368Y-51752573D01*
X101783239Y-51951653D01*
X101783237Y-51951657D01*
X101722377Y-52165561D01*
X101713441Y-52261998D01*
X101713443Y-52262000D01*
X102526383Y-52262000D01*
X102507000Y-52334339D01*
X102507000Y-52439661D01*
X102526383Y-52512000D01*
X101713443Y-52512000D01*
X101713441Y-52512001D01*
X88767500Y-52512001D01*
X88767499Y-51542136D01*
X88764585Y-51517009D01*
X88719206Y-51414235D01*
X88639765Y-51334794D01*
X88536991Y-51289415D01*
X88536990Y-51289414D01*
X88536988Y-51289414D01*
X88515659Y-51286940D01*
X88511865Y-51286500D01*
X88511864Y-51286500D01*
X86822136Y-51286500D01*
X86797013Y-51289414D01*
X86797007Y-51289415D01*
X86694234Y-51334794D01*
X86614794Y-51414234D01*
X86569414Y-51517011D01*
X86566500Y-51542135D01*
X86566500Y-53231863D01*
X81980815Y-53231863D01*
X81999640Y-53221983D01*
X82117883Y-53117230D01*
X82207620Y-52987223D01*
X82263637Y-52839518D01*
X82282678Y-52682700D01*
X82263637Y-52525882D01*
X82230938Y-52439661D01*
X82207621Y-52378178D01*
X82117883Y-52248170D01*
X82100315Y-52232606D01*
X81999640Y-52143417D01*
X81987539Y-52137066D01*
X81859766Y-52070004D01*
X81706387Y-52032200D01*
X81706385Y-52032200D01*
X81548415Y-52032200D01*
X81548412Y-52032200D01*
X81395033Y-52070004D01*
X81255161Y-52143416D01*
X81136916Y-52248170D01*
X81047179Y-52378178D01*
X81047178Y-52378178D01*
X80991164Y-52525877D01*
X80991161Y-52525891D01*
X80972122Y-52682696D01*
X80972122Y-52682703D01*
X79348012Y-52682703D01*
X79277140Y-52619917D01*
X79255269Y-52608438D01*
X79137266Y-52546504D01*
X78983887Y-52508700D01*
X78983885Y-52508700D01*
X78825915Y-52508700D01*
X78825912Y-52508700D01*
X78672533Y-52546504D01*
X78532661Y-52619916D01*
X78414416Y-52724670D01*
X78324679Y-52854678D01*
X78324678Y-52854678D01*
X78268664Y-53002377D01*
X78268661Y-53002391D01*
X78249622Y-53159196D01*
X78249622Y-53159203D01*
X59788500Y-53159203D01*
X59788499Y-51655136D01*
X59785585Y-51630009D01*
X59740206Y-51527235D01*
X59660765Y-51447794D01*
X59557991Y-51402415D01*
X59557990Y-51402414D01*
X59557988Y-51402414D01*
X59536659Y-51399940D01*
X59532865Y-51399500D01*
X59532864Y-51399500D01*
X57743136Y-51399500D01*
X57718013Y-51402414D01*
X57718007Y-51402415D01*
X57615234Y-51447794D01*
X57535794Y-51527234D01*
X57490414Y-51630011D01*
X57487500Y-51655135D01*
X57487500Y-53444863D01*
X56250000Y-53444863D01*
X56250000Y-50374051D01*
X56271674Y-50321725D01*
X56323999Y-50300051D01*
X128676051Y-50349949D01*
G37*
G04 #@! TD.AperFunction*
M02*
