G04 #@! TF.GenerationSoftware,KiCad,Pcbnew,7.0.10*
G04 #@! TF.CreationDate,2024-02-09T18:30:01-05:00*
G04 #@! TF.ProjectId,Rosco-MiniHat,526f7363-6f2d-44d6-996e-694861742e6b,rev?*
G04 #@! TF.SameCoordinates,Original*
G04 #@! TF.FileFunction,Paste,Top*
G04 #@! TF.FilePolarity,Positive*
%FSLAX46Y46*%
G04 Gerber Fmt 4.6, Leading zero omitted, Abs format (unit mm)*
G04 Created by KiCad (PCBNEW 7.0.10) date 2024-02-09 18:30:01*
%MOMM*%
%LPD*%
G01*
G04 APERTURE LIST*
G04 Aperture macros list*
%AMRoundRect*
0 Rectangle with rounded corners*
0 $1 Rounding radius*
0 $2 $3 $4 $5 $6 $7 $8 $9 X,Y pos of 4 corners*
0 Add a 4 corners polygon primitive as box body*
4,1,4,$2,$3,$4,$5,$6,$7,$8,$9,$2,$3,0*
0 Add four circle primitives for the rounded corners*
1,1,$1+$1,$2,$3*
1,1,$1+$1,$4,$5*
1,1,$1+$1,$6,$7*
1,1,$1+$1,$8,$9*
0 Add four rect primitives between the rounded corners*
20,1,$1+$1,$2,$3,$4,$5,0*
20,1,$1+$1,$4,$5,$6,$7,0*
20,1,$1+$1,$6,$7,$8,$9,0*
20,1,$1+$1,$8,$9,$2,$3,0*%
G04 Aperture macros list end*
%ADD10RoundRect,0.250000X0.475000X-0.337500X0.475000X0.337500X-0.475000X0.337500X-0.475000X-0.337500X0*%
%ADD11RoundRect,0.137500X-0.625000X-0.137500X0.625000X-0.137500X0.625000X0.137500X-0.625000X0.137500X0*%
%ADD12RoundRect,0.250000X-0.475000X0.337500X-0.475000X-0.337500X0.475000X-0.337500X0.475000X0.337500X0*%
G04 APERTURE END LIST*
D10*
X83644000Y-62133000D03*
X83644000Y-60058000D03*
X83644000Y-82183500D03*
X83644000Y-80108500D03*
D11*
X69082500Y-53100000D03*
X69082500Y-53900000D03*
X69082500Y-54700000D03*
X69082500Y-55500000D03*
X69082500Y-56300000D03*
X69082500Y-57100000D03*
X69082500Y-57900000D03*
X69082500Y-58700000D03*
X69082500Y-59500000D03*
X69082500Y-60300000D03*
X69082500Y-61100000D03*
X69082500Y-61900000D03*
X69082500Y-62700000D03*
X69082500Y-63500000D03*
X69082500Y-64300000D03*
X69082500Y-65100000D03*
X69082500Y-65900000D03*
X69082500Y-66700000D03*
X69082500Y-67500000D03*
X69082500Y-68300000D03*
X69082500Y-69100000D03*
X69082500Y-69900000D03*
X80257500Y-69900000D03*
X80257500Y-69100000D03*
X80257500Y-68300000D03*
X80257500Y-67500000D03*
X80257500Y-66700000D03*
X80257500Y-65900000D03*
X80257500Y-65100000D03*
X80257500Y-64300000D03*
X80257500Y-63500000D03*
X80257500Y-62700000D03*
X80257500Y-61900000D03*
X80257500Y-61100000D03*
X80257500Y-60300000D03*
X80257500Y-59500000D03*
X80257500Y-58700000D03*
X80257500Y-57900000D03*
X80257500Y-57100000D03*
X80257500Y-56300000D03*
X80257500Y-55500000D03*
X80257500Y-54700000D03*
X80257500Y-53900000D03*
X80257500Y-53100000D03*
D12*
X65526000Y-80552000D03*
X65526000Y-82627000D03*
X65526000Y-60671500D03*
X65526000Y-62746500D03*
D11*
X68912500Y-73100000D03*
X68912500Y-73900000D03*
X68912500Y-74700000D03*
X68912500Y-75500000D03*
X68912500Y-76300000D03*
X68912500Y-77100000D03*
X68912500Y-77900000D03*
X68912500Y-78700000D03*
X68912500Y-79500000D03*
X68912500Y-80300000D03*
X68912500Y-81100000D03*
X68912500Y-81900000D03*
X68912500Y-82700000D03*
X68912500Y-83500000D03*
X68912500Y-84300000D03*
X68912500Y-85100000D03*
X68912500Y-85900000D03*
X68912500Y-86700000D03*
X68912500Y-87500000D03*
X68912500Y-88300000D03*
X68912500Y-89100000D03*
X68912500Y-89900000D03*
X80087500Y-89900000D03*
X80087500Y-89100000D03*
X80087500Y-88300000D03*
X80087500Y-87500000D03*
X80087500Y-86700000D03*
X80087500Y-85900000D03*
X80087500Y-85100000D03*
X80087500Y-84300000D03*
X80087500Y-83500000D03*
X80087500Y-82700000D03*
X80087500Y-81900000D03*
X80087500Y-81100000D03*
X80087500Y-80300000D03*
X80087500Y-79500000D03*
X80087500Y-78700000D03*
X80087500Y-77900000D03*
X80087500Y-77100000D03*
X80087500Y-76300000D03*
X80087500Y-75500000D03*
X80087500Y-74700000D03*
X80087500Y-73900000D03*
X80087500Y-73100000D03*
M02*
