%TF.GenerationSoftware,KiCad,Pcbnew,7.0.10*%
%TF.CreationDate,2024-02-09T18:27:40-05:00*%
%TF.ProjectId,Rosco-MiniHat,526f7363-6f2d-44d6-996e-694861742e6b,rev?*%
%TF.SameCoordinates,Original*%
%TF.FileFunction,Drillmap*%
%TF.FilePolarity,Positive*%
%FSLAX45Y45*%
G04 Gerber Fmt 4.5, Leading zero omitted, Abs format (unit mm)*
G04 Created by KiCad (PCBNEW 7.0.10) date 2024-02-09 18:27:40*
%MOMM*%
%LPD*%
G01*
G04 APERTURE LIST*
%ADD10C,0.100000*%
%ADD11C,0.200000*%
G04 APERTURE END LIST*
D10*
X12850000Y-5050000D02*
X12850000Y-9250000D01*
X12850000Y-9250000D02*
X5600000Y-9250000D01*
X5600000Y-9250000D02*
X5550000Y-5000000D01*
X5550000Y-5000000D02*
X12850000Y-5050000D01*
D11*
X5805777Y-9566484D02*
X5805777Y-9366484D01*
X5805777Y-9366484D02*
X5853396Y-9366484D01*
X5853396Y-9366484D02*
X5881967Y-9376008D01*
X5881967Y-9376008D02*
X5901015Y-9395055D01*
X5901015Y-9395055D02*
X5910539Y-9414103D01*
X5910539Y-9414103D02*
X5920062Y-9452198D01*
X5920062Y-9452198D02*
X5920062Y-9480770D01*
X5920062Y-9480770D02*
X5910539Y-9518865D01*
X5910539Y-9518865D02*
X5901015Y-9537912D01*
X5901015Y-9537912D02*
X5881967Y-9556960D01*
X5881967Y-9556960D02*
X5853396Y-9566484D01*
X5853396Y-9566484D02*
X5805777Y-9566484D01*
X6005777Y-9566484D02*
X6005777Y-9433150D01*
X6005777Y-9471246D02*
X6015301Y-9452198D01*
X6015301Y-9452198D02*
X6024824Y-9442674D01*
X6024824Y-9442674D02*
X6043872Y-9433150D01*
X6043872Y-9433150D02*
X6062920Y-9433150D01*
X6129586Y-9566484D02*
X6129586Y-9433150D01*
X6129586Y-9366484D02*
X6120062Y-9376008D01*
X6120062Y-9376008D02*
X6129586Y-9385531D01*
X6129586Y-9385531D02*
X6139110Y-9376008D01*
X6139110Y-9376008D02*
X6129586Y-9366484D01*
X6129586Y-9366484D02*
X6129586Y-9385531D01*
X6253396Y-9566484D02*
X6234348Y-9556960D01*
X6234348Y-9556960D02*
X6224824Y-9537912D01*
X6224824Y-9537912D02*
X6224824Y-9366484D01*
X6358158Y-9566484D02*
X6339110Y-9556960D01*
X6339110Y-9556960D02*
X6329586Y-9537912D01*
X6329586Y-9537912D02*
X6329586Y-9366484D01*
X6586729Y-9566484D02*
X6586729Y-9366484D01*
X6586729Y-9366484D02*
X6653396Y-9509341D01*
X6653396Y-9509341D02*
X6720062Y-9366484D01*
X6720062Y-9366484D02*
X6720062Y-9566484D01*
X6901015Y-9566484D02*
X6901015Y-9461722D01*
X6901015Y-9461722D02*
X6891491Y-9442674D01*
X6891491Y-9442674D02*
X6872443Y-9433150D01*
X6872443Y-9433150D02*
X6834348Y-9433150D01*
X6834348Y-9433150D02*
X6815301Y-9442674D01*
X6901015Y-9556960D02*
X6881967Y-9566484D01*
X6881967Y-9566484D02*
X6834348Y-9566484D01*
X6834348Y-9566484D02*
X6815301Y-9556960D01*
X6815301Y-9556960D02*
X6805777Y-9537912D01*
X6805777Y-9537912D02*
X6805777Y-9518865D01*
X6805777Y-9518865D02*
X6815301Y-9499817D01*
X6815301Y-9499817D02*
X6834348Y-9490293D01*
X6834348Y-9490293D02*
X6881967Y-9490293D01*
X6881967Y-9490293D02*
X6901015Y-9480770D01*
X6996253Y-9433150D02*
X6996253Y-9633150D01*
X6996253Y-9442674D02*
X7015301Y-9433150D01*
X7015301Y-9433150D02*
X7053396Y-9433150D01*
X7053396Y-9433150D02*
X7072443Y-9442674D01*
X7072443Y-9442674D02*
X7081967Y-9452198D01*
X7081967Y-9452198D02*
X7091491Y-9471246D01*
X7091491Y-9471246D02*
X7091491Y-9528389D01*
X7091491Y-9528389D02*
X7081967Y-9547436D01*
X7081967Y-9547436D02*
X7072443Y-9556960D01*
X7072443Y-9556960D02*
X7053396Y-9566484D01*
X7053396Y-9566484D02*
X7015301Y-9566484D01*
X7015301Y-9566484D02*
X6996253Y-9556960D01*
X7177205Y-9547436D02*
X7186729Y-9556960D01*
X7186729Y-9556960D02*
X7177205Y-9566484D01*
X7177205Y-9566484D02*
X7167682Y-9556960D01*
X7167682Y-9556960D02*
X7177205Y-9547436D01*
X7177205Y-9547436D02*
X7177205Y-9566484D01*
X7177205Y-9442674D02*
X7186729Y-9452198D01*
X7186729Y-9452198D02*
X7177205Y-9461722D01*
X7177205Y-9461722D02*
X7167682Y-9452198D01*
X7167682Y-9452198D02*
X7177205Y-9442674D01*
X7177205Y-9442674D02*
X7177205Y-9461722D01*
M02*
