G04 #@! TF.GenerationSoftware,KiCad,Pcbnew,7.0.10*
G04 #@! TF.CreationDate,2024-02-19T22:05:48-05:00*
G04 #@! TF.ProjectId,Rosco-MiniHat,526f7363-6f2d-44d6-996e-694861742e6b,rev?*
G04 #@! TF.SameCoordinates,Original*
G04 #@! TF.FileFunction,Legend,Top*
G04 #@! TF.FilePolarity,Positive*
%FSLAX46Y46*%
G04 Gerber Fmt 4.6, Leading zero omitted, Abs format (unit mm)*
G04 Created by KiCad (PCBNEW 7.0.10) date 2024-02-19 22:05:48*
%MOMM*%
%LPD*%
G01*
G04 APERTURE LIST*
G04 Aperture macros list*
%AMRoundRect*
0 Rectangle with rounded corners*
0 $1 Rounding radius*
0 $2 $3 $4 $5 $6 $7 $8 $9 X,Y pos of 4 corners*
0 Add a 4 corners polygon primitive as box body*
4,1,4,$2,$3,$4,$5,$6,$7,$8,$9,$2,$3,0*
0 Add four circle primitives for the rounded corners*
1,1,$1+$1,$2,$3*
1,1,$1+$1,$4,$5*
1,1,$1+$1,$6,$7*
1,1,$1+$1,$8,$9*
0 Add four rect primitives between the rounded corners*
20,1,$1+$1,$2,$3,$4,$5,0*
20,1,$1+$1,$4,$5,$6,$7,0*
20,1,$1+$1,$6,$7,$8,$9,0*
20,1,$1+$1,$8,$9,$2,$3,0*%
G04 Aperture macros list end*
%ADD10C,0.250000*%
%ADD11C,0.150000*%
%ADD12C,0.120000*%
%ADD13R,1.700000X1.700000*%
%ADD14O,1.700000X1.700000*%
%ADD15R,1.600000X1.600000*%
%ADD16O,1.600000X1.600000*%
%ADD17RoundRect,0.250000X0.475000X-0.337500X0.475000X0.337500X-0.475000X0.337500X-0.475000X-0.337500X0*%
%ADD18RoundRect,0.137500X-0.625000X-0.137500X0.625000X-0.137500X0.625000X0.137500X-0.625000X0.137500X0*%
%ADD19RoundRect,0.250000X-0.475000X0.337500X-0.475000X-0.337500X0.475000X-0.337500X0.475000X0.337500X0*%
G04 APERTURE END LIST*
D10*
X58254619Y-90597431D02*
X57254619Y-90597431D01*
X57254619Y-90597431D02*
X57968904Y-90264098D01*
X57968904Y-90264098D02*
X57254619Y-89930765D01*
X57254619Y-89930765D02*
X58254619Y-89930765D01*
X58254619Y-89454574D02*
X57587952Y-89454574D01*
X57254619Y-89454574D02*
X57302238Y-89502193D01*
X57302238Y-89502193D02*
X57349857Y-89454574D01*
X57349857Y-89454574D02*
X57302238Y-89406955D01*
X57302238Y-89406955D02*
X57254619Y-89454574D01*
X57254619Y-89454574D02*
X57349857Y-89454574D01*
X57587952Y-88978384D02*
X58254619Y-88978384D01*
X57683190Y-88978384D02*
X57635571Y-88930765D01*
X57635571Y-88930765D02*
X57587952Y-88835527D01*
X57587952Y-88835527D02*
X57587952Y-88692670D01*
X57587952Y-88692670D02*
X57635571Y-88597432D01*
X57635571Y-88597432D02*
X57730809Y-88549813D01*
X57730809Y-88549813D02*
X58254619Y-88549813D01*
X58254619Y-88073622D02*
X57587952Y-88073622D01*
X57254619Y-88073622D02*
X57302238Y-88121241D01*
X57302238Y-88121241D02*
X57349857Y-88073622D01*
X57349857Y-88073622D02*
X57302238Y-88026003D01*
X57302238Y-88026003D02*
X57254619Y-88073622D01*
X57254619Y-88073622D02*
X57349857Y-88073622D01*
X57873666Y-87597432D02*
X57873666Y-86835528D01*
X58254619Y-86359337D02*
X57254619Y-86359337D01*
X57730809Y-86359337D02*
X57730809Y-85787909D01*
X58254619Y-85787909D02*
X57254619Y-85787909D01*
X58254619Y-84883147D02*
X57730809Y-84883147D01*
X57730809Y-84883147D02*
X57635571Y-84930766D01*
X57635571Y-84930766D02*
X57587952Y-85026004D01*
X57587952Y-85026004D02*
X57587952Y-85216480D01*
X57587952Y-85216480D02*
X57635571Y-85311718D01*
X58207000Y-84883147D02*
X58254619Y-84978385D01*
X58254619Y-84978385D02*
X58254619Y-85216480D01*
X58254619Y-85216480D02*
X58207000Y-85311718D01*
X58207000Y-85311718D02*
X58111761Y-85359337D01*
X58111761Y-85359337D02*
X58016523Y-85359337D01*
X58016523Y-85359337D02*
X57921285Y-85311718D01*
X57921285Y-85311718D02*
X57873666Y-85216480D01*
X57873666Y-85216480D02*
X57873666Y-84978385D01*
X57873666Y-84978385D02*
X57826047Y-84883147D01*
X57587952Y-84549813D02*
X57587952Y-84168861D01*
X57254619Y-84406956D02*
X58111761Y-84406956D01*
X58111761Y-84406956D02*
X58207000Y-84359337D01*
X58207000Y-84359337D02*
X58254619Y-84264099D01*
X58254619Y-84264099D02*
X58254619Y-84168861D01*
X57349857Y-83121241D02*
X57302238Y-83073622D01*
X57302238Y-83073622D02*
X57254619Y-82978384D01*
X57254619Y-82978384D02*
X57254619Y-82740289D01*
X57254619Y-82740289D02*
X57302238Y-82645051D01*
X57302238Y-82645051D02*
X57349857Y-82597432D01*
X57349857Y-82597432D02*
X57445095Y-82549813D01*
X57445095Y-82549813D02*
X57540333Y-82549813D01*
X57540333Y-82549813D02*
X57683190Y-82597432D01*
X57683190Y-82597432D02*
X58254619Y-83168860D01*
X58254619Y-83168860D02*
X58254619Y-82549813D01*
X58254619Y-82121241D02*
X57254619Y-82121241D01*
X57254619Y-82121241D02*
X57968904Y-81787908D01*
X57968904Y-81787908D02*
X57254619Y-81454575D01*
X57254619Y-81454575D02*
X58254619Y-81454575D01*
X58254619Y-80978384D02*
X57254619Y-80978384D01*
X57635571Y-80978384D02*
X57587952Y-80883146D01*
X57587952Y-80883146D02*
X57587952Y-80692670D01*
X57587952Y-80692670D02*
X57635571Y-80597432D01*
X57635571Y-80597432D02*
X57683190Y-80549813D01*
X57683190Y-80549813D02*
X57778428Y-80502194D01*
X57778428Y-80502194D02*
X58064142Y-80502194D01*
X58064142Y-80502194D02*
X58159380Y-80549813D01*
X58159380Y-80549813D02*
X58207000Y-80597432D01*
X58207000Y-80597432D02*
X58254619Y-80692670D01*
X58254619Y-80692670D02*
X58254619Y-80883146D01*
X58254619Y-80883146D02*
X58207000Y-80978384D01*
X57587952Y-79454574D02*
X57587952Y-79073622D01*
X58254619Y-79311717D02*
X57397476Y-79311717D01*
X57397476Y-79311717D02*
X57302238Y-79264098D01*
X57302238Y-79264098D02*
X57254619Y-79168860D01*
X57254619Y-79168860D02*
X57254619Y-79073622D01*
X58254619Y-78597431D02*
X58207000Y-78692669D01*
X58207000Y-78692669D02*
X58159380Y-78740288D01*
X58159380Y-78740288D02*
X58064142Y-78787907D01*
X58064142Y-78787907D02*
X57778428Y-78787907D01*
X57778428Y-78787907D02*
X57683190Y-78740288D01*
X57683190Y-78740288D02*
X57635571Y-78692669D01*
X57635571Y-78692669D02*
X57587952Y-78597431D01*
X57587952Y-78597431D02*
X57587952Y-78454574D01*
X57587952Y-78454574D02*
X57635571Y-78359336D01*
X57635571Y-78359336D02*
X57683190Y-78311717D01*
X57683190Y-78311717D02*
X57778428Y-78264098D01*
X57778428Y-78264098D02*
X58064142Y-78264098D01*
X58064142Y-78264098D02*
X58159380Y-78311717D01*
X58159380Y-78311717D02*
X58207000Y-78359336D01*
X58207000Y-78359336D02*
X58254619Y-78454574D01*
X58254619Y-78454574D02*
X58254619Y-78597431D01*
X58254619Y-77835526D02*
X57587952Y-77835526D01*
X57778428Y-77835526D02*
X57683190Y-77787907D01*
X57683190Y-77787907D02*
X57635571Y-77740288D01*
X57635571Y-77740288D02*
X57587952Y-77645050D01*
X57587952Y-77645050D02*
X57587952Y-77549812D01*
X58254619Y-76454573D02*
X57587952Y-76454573D01*
X57778428Y-76454573D02*
X57683190Y-76406954D01*
X57683190Y-76406954D02*
X57635571Y-76359335D01*
X57635571Y-76359335D02*
X57587952Y-76264097D01*
X57587952Y-76264097D02*
X57587952Y-76168859D01*
X58254619Y-75692668D02*
X58207000Y-75787906D01*
X58207000Y-75787906D02*
X58159380Y-75835525D01*
X58159380Y-75835525D02*
X58064142Y-75883144D01*
X58064142Y-75883144D02*
X57778428Y-75883144D01*
X57778428Y-75883144D02*
X57683190Y-75835525D01*
X57683190Y-75835525D02*
X57635571Y-75787906D01*
X57635571Y-75787906D02*
X57587952Y-75692668D01*
X57587952Y-75692668D02*
X57587952Y-75549811D01*
X57587952Y-75549811D02*
X57635571Y-75454573D01*
X57635571Y-75454573D02*
X57683190Y-75406954D01*
X57683190Y-75406954D02*
X57778428Y-75359335D01*
X57778428Y-75359335D02*
X58064142Y-75359335D01*
X58064142Y-75359335D02*
X58159380Y-75406954D01*
X58159380Y-75406954D02*
X58207000Y-75454573D01*
X58207000Y-75454573D02*
X58254619Y-75549811D01*
X58254619Y-75549811D02*
X58254619Y-75692668D01*
X58207000Y-74978382D02*
X58254619Y-74883144D01*
X58254619Y-74883144D02*
X58254619Y-74692668D01*
X58254619Y-74692668D02*
X58207000Y-74597430D01*
X58207000Y-74597430D02*
X58111761Y-74549811D01*
X58111761Y-74549811D02*
X58064142Y-74549811D01*
X58064142Y-74549811D02*
X57968904Y-74597430D01*
X57968904Y-74597430D02*
X57921285Y-74692668D01*
X57921285Y-74692668D02*
X57921285Y-74835525D01*
X57921285Y-74835525D02*
X57873666Y-74930763D01*
X57873666Y-74930763D02*
X57778428Y-74978382D01*
X57778428Y-74978382D02*
X57730809Y-74978382D01*
X57730809Y-74978382D02*
X57635571Y-74930763D01*
X57635571Y-74930763D02*
X57587952Y-74835525D01*
X57587952Y-74835525D02*
X57587952Y-74692668D01*
X57587952Y-74692668D02*
X57635571Y-74597430D01*
X58207000Y-73692668D02*
X58254619Y-73787906D01*
X58254619Y-73787906D02*
X58254619Y-73978382D01*
X58254619Y-73978382D02*
X58207000Y-74073620D01*
X58207000Y-74073620D02*
X58159380Y-74121239D01*
X58159380Y-74121239D02*
X58064142Y-74168858D01*
X58064142Y-74168858D02*
X57778428Y-74168858D01*
X57778428Y-74168858D02*
X57683190Y-74121239D01*
X57683190Y-74121239D02*
X57635571Y-74073620D01*
X57635571Y-74073620D02*
X57587952Y-73978382D01*
X57587952Y-73978382D02*
X57587952Y-73787906D01*
X57587952Y-73787906D02*
X57635571Y-73692668D01*
X58254619Y-73121239D02*
X58207000Y-73216477D01*
X58207000Y-73216477D02*
X58159380Y-73264096D01*
X58159380Y-73264096D02*
X58064142Y-73311715D01*
X58064142Y-73311715D02*
X57778428Y-73311715D01*
X57778428Y-73311715D02*
X57683190Y-73264096D01*
X57683190Y-73264096D02*
X57635571Y-73216477D01*
X57635571Y-73216477D02*
X57587952Y-73121239D01*
X57587952Y-73121239D02*
X57587952Y-72978382D01*
X57587952Y-72978382D02*
X57635571Y-72883144D01*
X57635571Y-72883144D02*
X57683190Y-72835525D01*
X57683190Y-72835525D02*
X57778428Y-72787906D01*
X57778428Y-72787906D02*
X58064142Y-72787906D01*
X58064142Y-72787906D02*
X58159380Y-72835525D01*
X58159380Y-72835525D02*
X58207000Y-72883144D01*
X58207000Y-72883144D02*
X58254619Y-72978382D01*
X58254619Y-72978382D02*
X58254619Y-73121239D01*
X58349857Y-72597430D02*
X58349857Y-71835525D01*
X58254619Y-71597429D02*
X57587952Y-71597429D01*
X57683190Y-71597429D02*
X57635571Y-71549810D01*
X57635571Y-71549810D02*
X57587952Y-71454572D01*
X57587952Y-71454572D02*
X57587952Y-71311715D01*
X57587952Y-71311715D02*
X57635571Y-71216477D01*
X57635571Y-71216477D02*
X57730809Y-71168858D01*
X57730809Y-71168858D02*
X58254619Y-71168858D01*
X57730809Y-71168858D02*
X57635571Y-71121239D01*
X57635571Y-71121239D02*
X57587952Y-71026001D01*
X57587952Y-71026001D02*
X57587952Y-70883144D01*
X57587952Y-70883144D02*
X57635571Y-70787905D01*
X57635571Y-70787905D02*
X57730809Y-70740286D01*
X57730809Y-70740286D02*
X58254619Y-70740286D01*
X57254619Y-69835525D02*
X57254619Y-70026001D01*
X57254619Y-70026001D02*
X57302238Y-70121239D01*
X57302238Y-70121239D02*
X57349857Y-70168858D01*
X57349857Y-70168858D02*
X57492714Y-70264096D01*
X57492714Y-70264096D02*
X57683190Y-70311715D01*
X57683190Y-70311715D02*
X58064142Y-70311715D01*
X58064142Y-70311715D02*
X58159380Y-70264096D01*
X58159380Y-70264096D02*
X58207000Y-70216477D01*
X58207000Y-70216477D02*
X58254619Y-70121239D01*
X58254619Y-70121239D02*
X58254619Y-69930763D01*
X58254619Y-69930763D02*
X58207000Y-69835525D01*
X58207000Y-69835525D02*
X58159380Y-69787906D01*
X58159380Y-69787906D02*
X58064142Y-69740287D01*
X58064142Y-69740287D02*
X57826047Y-69740287D01*
X57826047Y-69740287D02*
X57730809Y-69787906D01*
X57730809Y-69787906D02*
X57683190Y-69835525D01*
X57683190Y-69835525D02*
X57635571Y-69930763D01*
X57635571Y-69930763D02*
X57635571Y-70121239D01*
X57635571Y-70121239D02*
X57683190Y-70216477D01*
X57683190Y-70216477D02*
X57730809Y-70264096D01*
X57730809Y-70264096D02*
X57826047Y-70311715D01*
X57683190Y-69168858D02*
X57635571Y-69264096D01*
X57635571Y-69264096D02*
X57587952Y-69311715D01*
X57587952Y-69311715D02*
X57492714Y-69359334D01*
X57492714Y-69359334D02*
X57445095Y-69359334D01*
X57445095Y-69359334D02*
X57349857Y-69311715D01*
X57349857Y-69311715D02*
X57302238Y-69264096D01*
X57302238Y-69264096D02*
X57254619Y-69168858D01*
X57254619Y-69168858D02*
X57254619Y-68978382D01*
X57254619Y-68978382D02*
X57302238Y-68883144D01*
X57302238Y-68883144D02*
X57349857Y-68835525D01*
X57349857Y-68835525D02*
X57445095Y-68787906D01*
X57445095Y-68787906D02*
X57492714Y-68787906D01*
X57492714Y-68787906D02*
X57587952Y-68835525D01*
X57587952Y-68835525D02*
X57635571Y-68883144D01*
X57635571Y-68883144D02*
X57683190Y-68978382D01*
X57683190Y-68978382D02*
X57683190Y-69168858D01*
X57683190Y-69168858D02*
X57730809Y-69264096D01*
X57730809Y-69264096D02*
X57778428Y-69311715D01*
X57778428Y-69311715D02*
X57873666Y-69359334D01*
X57873666Y-69359334D02*
X58064142Y-69359334D01*
X58064142Y-69359334D02*
X58159380Y-69311715D01*
X58159380Y-69311715D02*
X58207000Y-69264096D01*
X58207000Y-69264096D02*
X58254619Y-69168858D01*
X58254619Y-69168858D02*
X58254619Y-68978382D01*
X58254619Y-68978382D02*
X58207000Y-68883144D01*
X58207000Y-68883144D02*
X58159380Y-68835525D01*
X58159380Y-68835525D02*
X58064142Y-68787906D01*
X58064142Y-68787906D02*
X57873666Y-68787906D01*
X57873666Y-68787906D02*
X57778428Y-68835525D01*
X57778428Y-68835525D02*
X57730809Y-68883144D01*
X57730809Y-68883144D02*
X57683190Y-68978382D01*
X58254619Y-68359334D02*
X57254619Y-68359334D01*
X57873666Y-68264096D02*
X58254619Y-67978382D01*
X57587952Y-67978382D02*
X57968904Y-68359334D01*
X59864619Y-90597431D02*
X58864619Y-90597431D01*
X58864619Y-90597431D02*
X59578904Y-90264098D01*
X59578904Y-90264098D02*
X58864619Y-89930765D01*
X58864619Y-89930765D02*
X59864619Y-89930765D01*
X59864619Y-89026003D02*
X59340809Y-89026003D01*
X59340809Y-89026003D02*
X59245571Y-89073622D01*
X59245571Y-89073622D02*
X59197952Y-89168860D01*
X59197952Y-89168860D02*
X59197952Y-89359336D01*
X59197952Y-89359336D02*
X59245571Y-89454574D01*
X59817000Y-89026003D02*
X59864619Y-89121241D01*
X59864619Y-89121241D02*
X59864619Y-89359336D01*
X59864619Y-89359336D02*
X59817000Y-89454574D01*
X59817000Y-89454574D02*
X59721761Y-89502193D01*
X59721761Y-89502193D02*
X59626523Y-89502193D01*
X59626523Y-89502193D02*
X59531285Y-89454574D01*
X59531285Y-89454574D02*
X59483666Y-89359336D01*
X59483666Y-89359336D02*
X59483666Y-89121241D01*
X59483666Y-89121241D02*
X59436047Y-89026003D01*
X59864619Y-88406955D02*
X59817000Y-88502193D01*
X59817000Y-88502193D02*
X59721761Y-88549812D01*
X59721761Y-88549812D02*
X58864619Y-88549812D01*
X59817000Y-87597431D02*
X59864619Y-87692669D01*
X59864619Y-87692669D02*
X59864619Y-87883145D01*
X59864619Y-87883145D02*
X59817000Y-87978383D01*
X59817000Y-87978383D02*
X59769380Y-88026002D01*
X59769380Y-88026002D02*
X59674142Y-88073621D01*
X59674142Y-88073621D02*
X59388428Y-88073621D01*
X59388428Y-88073621D02*
X59293190Y-88026002D01*
X59293190Y-88026002D02*
X59245571Y-87978383D01*
X59245571Y-87978383D02*
X59197952Y-87883145D01*
X59197952Y-87883145D02*
X59197952Y-87692669D01*
X59197952Y-87692669D02*
X59245571Y-87597431D01*
X59864619Y-87026002D02*
X59817000Y-87121240D01*
X59817000Y-87121240D02*
X59769380Y-87168859D01*
X59769380Y-87168859D02*
X59674142Y-87216478D01*
X59674142Y-87216478D02*
X59388428Y-87216478D01*
X59388428Y-87216478D02*
X59293190Y-87168859D01*
X59293190Y-87168859D02*
X59245571Y-87121240D01*
X59245571Y-87121240D02*
X59197952Y-87026002D01*
X59197952Y-87026002D02*
X59197952Y-86883145D01*
X59197952Y-86883145D02*
X59245571Y-86787907D01*
X59245571Y-86787907D02*
X59293190Y-86740288D01*
X59293190Y-86740288D02*
X59388428Y-86692669D01*
X59388428Y-86692669D02*
X59674142Y-86692669D01*
X59674142Y-86692669D02*
X59769380Y-86740288D01*
X59769380Y-86740288D02*
X59817000Y-86787907D01*
X59817000Y-86787907D02*
X59864619Y-86883145D01*
X59864619Y-86883145D02*
X59864619Y-87026002D01*
X59864619Y-86121240D02*
X59817000Y-86216478D01*
X59817000Y-86216478D02*
X59721761Y-86264097D01*
X59721761Y-86264097D02*
X58864619Y-86264097D01*
X59864619Y-85740287D02*
X59197952Y-85740287D01*
X59293190Y-85740287D02*
X59245571Y-85692668D01*
X59245571Y-85692668D02*
X59197952Y-85597430D01*
X59197952Y-85597430D02*
X59197952Y-85454573D01*
X59197952Y-85454573D02*
X59245571Y-85359335D01*
X59245571Y-85359335D02*
X59340809Y-85311716D01*
X59340809Y-85311716D02*
X59864619Y-85311716D01*
X59340809Y-85311716D02*
X59245571Y-85264097D01*
X59245571Y-85264097D02*
X59197952Y-85168859D01*
X59197952Y-85168859D02*
X59197952Y-85026002D01*
X59197952Y-85026002D02*
X59245571Y-84930763D01*
X59245571Y-84930763D02*
X59340809Y-84883144D01*
X59340809Y-84883144D02*
X59864619Y-84883144D01*
X59864619Y-83645049D02*
X58864619Y-83645049D01*
X59340809Y-83645049D02*
X59340809Y-83073621D01*
X59864619Y-83073621D02*
X58864619Y-83073621D01*
X59864619Y-82168859D02*
X59340809Y-82168859D01*
X59340809Y-82168859D02*
X59245571Y-82216478D01*
X59245571Y-82216478D02*
X59197952Y-82311716D01*
X59197952Y-82311716D02*
X59197952Y-82502192D01*
X59197952Y-82502192D02*
X59245571Y-82597430D01*
X59817000Y-82168859D02*
X59864619Y-82264097D01*
X59864619Y-82264097D02*
X59864619Y-82502192D01*
X59864619Y-82502192D02*
X59817000Y-82597430D01*
X59817000Y-82597430D02*
X59721761Y-82645049D01*
X59721761Y-82645049D02*
X59626523Y-82645049D01*
X59626523Y-82645049D02*
X59531285Y-82597430D01*
X59531285Y-82597430D02*
X59483666Y-82502192D01*
X59483666Y-82502192D02*
X59483666Y-82264097D01*
X59483666Y-82264097D02*
X59436047Y-82168859D01*
X59864619Y-81692668D02*
X59197952Y-81692668D01*
X59388428Y-81692668D02*
X59293190Y-81645049D01*
X59293190Y-81645049D02*
X59245571Y-81597430D01*
X59245571Y-81597430D02*
X59197952Y-81502192D01*
X59197952Y-81502192D02*
X59197952Y-81406954D01*
X59864619Y-81073620D02*
X59197952Y-81073620D01*
X59388428Y-81073620D02*
X59293190Y-81026001D01*
X59293190Y-81026001D02*
X59245571Y-80978382D01*
X59245571Y-80978382D02*
X59197952Y-80883144D01*
X59197952Y-80883144D02*
X59197952Y-80787906D01*
X59864619Y-80311715D02*
X59817000Y-80406953D01*
X59817000Y-80406953D02*
X59769380Y-80454572D01*
X59769380Y-80454572D02*
X59674142Y-80502191D01*
X59674142Y-80502191D02*
X59388428Y-80502191D01*
X59388428Y-80502191D02*
X59293190Y-80454572D01*
X59293190Y-80454572D02*
X59245571Y-80406953D01*
X59245571Y-80406953D02*
X59197952Y-80311715D01*
X59197952Y-80311715D02*
X59197952Y-80168858D01*
X59197952Y-80168858D02*
X59245571Y-80073620D01*
X59245571Y-80073620D02*
X59293190Y-80026001D01*
X59293190Y-80026001D02*
X59388428Y-79978382D01*
X59388428Y-79978382D02*
X59674142Y-79978382D01*
X59674142Y-79978382D02*
X59769380Y-80026001D01*
X59769380Y-80026001D02*
X59817000Y-80073620D01*
X59817000Y-80073620D02*
X59864619Y-80168858D01*
X59864619Y-80168858D02*
X59864619Y-80311715D01*
X59197952Y-79645048D02*
X59864619Y-79454572D01*
X59864619Y-79454572D02*
X59388428Y-79264096D01*
X59388428Y-79264096D02*
X59864619Y-79073620D01*
X59864619Y-79073620D02*
X59197952Y-78883144D01*
X59817000Y-78454572D02*
X59864619Y-78454572D01*
X59864619Y-78454572D02*
X59959857Y-78502191D01*
X59959857Y-78502191D02*
X60007476Y-78549810D01*
X59340809Y-76930763D02*
X59340809Y-77264096D01*
X59864619Y-77264096D02*
X58864619Y-77264096D01*
X58864619Y-77264096D02*
X58864619Y-76787906D01*
X59817000Y-76026001D02*
X59864619Y-76121239D01*
X59864619Y-76121239D02*
X59864619Y-76311715D01*
X59864619Y-76311715D02*
X59817000Y-76406953D01*
X59817000Y-76406953D02*
X59721761Y-76454572D01*
X59721761Y-76454572D02*
X59340809Y-76454572D01*
X59340809Y-76454572D02*
X59245571Y-76406953D01*
X59245571Y-76406953D02*
X59197952Y-76311715D01*
X59197952Y-76311715D02*
X59197952Y-76121239D01*
X59197952Y-76121239D02*
X59245571Y-76026001D01*
X59245571Y-76026001D02*
X59340809Y-75978382D01*
X59340809Y-75978382D02*
X59436047Y-75978382D01*
X59436047Y-75978382D02*
X59531285Y-76454572D01*
X59864619Y-75549810D02*
X58864619Y-75549810D01*
X59245571Y-75549810D02*
X59197952Y-75454572D01*
X59197952Y-75454572D02*
X59197952Y-75264096D01*
X59197952Y-75264096D02*
X59245571Y-75168858D01*
X59245571Y-75168858D02*
X59293190Y-75121239D01*
X59293190Y-75121239D02*
X59388428Y-75073620D01*
X59388428Y-75073620D02*
X59674142Y-75073620D01*
X59674142Y-75073620D02*
X59769380Y-75121239D01*
X59769380Y-75121239D02*
X59817000Y-75168858D01*
X59817000Y-75168858D02*
X59864619Y-75264096D01*
X59864619Y-75264096D02*
X59864619Y-75454572D01*
X59864619Y-75454572D02*
X59817000Y-75549810D01*
X58959857Y-73930762D02*
X58912238Y-73883143D01*
X58912238Y-73883143D02*
X58864619Y-73787905D01*
X58864619Y-73787905D02*
X58864619Y-73549810D01*
X58864619Y-73549810D02*
X58912238Y-73454572D01*
X58912238Y-73454572D02*
X58959857Y-73406953D01*
X58959857Y-73406953D02*
X59055095Y-73359334D01*
X59055095Y-73359334D02*
X59150333Y-73359334D01*
X59150333Y-73359334D02*
X59293190Y-73406953D01*
X59293190Y-73406953D02*
X59864619Y-73978381D01*
X59864619Y-73978381D02*
X59864619Y-73359334D01*
X58864619Y-72740286D02*
X58864619Y-72645048D01*
X58864619Y-72645048D02*
X58912238Y-72549810D01*
X58912238Y-72549810D02*
X58959857Y-72502191D01*
X58959857Y-72502191D02*
X59055095Y-72454572D01*
X59055095Y-72454572D02*
X59245571Y-72406953D01*
X59245571Y-72406953D02*
X59483666Y-72406953D01*
X59483666Y-72406953D02*
X59674142Y-72454572D01*
X59674142Y-72454572D02*
X59769380Y-72502191D01*
X59769380Y-72502191D02*
X59817000Y-72549810D01*
X59817000Y-72549810D02*
X59864619Y-72645048D01*
X59864619Y-72645048D02*
X59864619Y-72740286D01*
X59864619Y-72740286D02*
X59817000Y-72835524D01*
X59817000Y-72835524D02*
X59769380Y-72883143D01*
X59769380Y-72883143D02*
X59674142Y-72930762D01*
X59674142Y-72930762D02*
X59483666Y-72978381D01*
X59483666Y-72978381D02*
X59245571Y-72978381D01*
X59245571Y-72978381D02*
X59055095Y-72930762D01*
X59055095Y-72930762D02*
X58959857Y-72883143D01*
X58959857Y-72883143D02*
X58912238Y-72835524D01*
X58912238Y-72835524D02*
X58864619Y-72740286D01*
X58959857Y-72026000D02*
X58912238Y-71978381D01*
X58912238Y-71978381D02*
X58864619Y-71883143D01*
X58864619Y-71883143D02*
X58864619Y-71645048D01*
X58864619Y-71645048D02*
X58912238Y-71549810D01*
X58912238Y-71549810D02*
X58959857Y-71502191D01*
X58959857Y-71502191D02*
X59055095Y-71454572D01*
X59055095Y-71454572D02*
X59150333Y-71454572D01*
X59150333Y-71454572D02*
X59293190Y-71502191D01*
X59293190Y-71502191D02*
X59864619Y-72073619D01*
X59864619Y-72073619D02*
X59864619Y-71454572D01*
X59197952Y-70597429D02*
X59864619Y-70597429D01*
X58817000Y-70835524D02*
X59531285Y-71073619D01*
X59531285Y-71073619D02*
X59531285Y-70454572D01*
X59817000Y-70026000D02*
X59864619Y-70026000D01*
X59864619Y-70026000D02*
X59959857Y-70073619D01*
X59959857Y-70073619D02*
X60007476Y-70121238D01*
X59197952Y-68930762D02*
X59864619Y-68692667D01*
X59864619Y-68692667D02*
X59197952Y-68454572D01*
X58959857Y-68121238D02*
X58912238Y-68073619D01*
X58912238Y-68073619D02*
X58864619Y-67978381D01*
X58864619Y-67978381D02*
X58864619Y-67740286D01*
X58864619Y-67740286D02*
X58912238Y-67645048D01*
X58912238Y-67645048D02*
X58959857Y-67597429D01*
X58959857Y-67597429D02*
X59055095Y-67549810D01*
X59055095Y-67549810D02*
X59150333Y-67549810D01*
X59150333Y-67549810D02*
X59293190Y-67597429D01*
X59293190Y-67597429D02*
X59864619Y-68168857D01*
X59864619Y-68168857D02*
X59864619Y-67549810D01*
D11*
X57666666Y-65954819D02*
X57666666Y-66669104D01*
X57666666Y-66669104D02*
X57619047Y-66811961D01*
X57619047Y-66811961D02*
X57523809Y-66907200D01*
X57523809Y-66907200D02*
X57380952Y-66954819D01*
X57380952Y-66954819D02*
X57285714Y-66954819D01*
X58571428Y-65954819D02*
X58380952Y-65954819D01*
X58380952Y-65954819D02*
X58285714Y-66002438D01*
X58285714Y-66002438D02*
X58238095Y-66050057D01*
X58238095Y-66050057D02*
X58142857Y-66192914D01*
X58142857Y-66192914D02*
X58095238Y-66383390D01*
X58095238Y-66383390D02*
X58095238Y-66764342D01*
X58095238Y-66764342D02*
X58142857Y-66859580D01*
X58142857Y-66859580D02*
X58190476Y-66907200D01*
X58190476Y-66907200D02*
X58285714Y-66954819D01*
X58285714Y-66954819D02*
X58476190Y-66954819D01*
X58476190Y-66954819D02*
X58571428Y-66907200D01*
X58571428Y-66907200D02*
X58619047Y-66859580D01*
X58619047Y-66859580D02*
X58666666Y-66764342D01*
X58666666Y-66764342D02*
X58666666Y-66526247D01*
X58666666Y-66526247D02*
X58619047Y-66431009D01*
X58619047Y-66431009D02*
X58571428Y-66383390D01*
X58571428Y-66383390D02*
X58476190Y-66335771D01*
X58476190Y-66335771D02*
X58285714Y-66335771D01*
X58285714Y-66335771D02*
X58190476Y-66383390D01*
X58190476Y-66383390D02*
X58142857Y-66431009D01*
X58142857Y-66431009D02*
X58095238Y-66526247D01*
X108189095Y-51578819D02*
X108189095Y-52388342D01*
X108189095Y-52388342D02*
X108236714Y-52483580D01*
X108236714Y-52483580D02*
X108284333Y-52531200D01*
X108284333Y-52531200D02*
X108379571Y-52578819D01*
X108379571Y-52578819D02*
X108570047Y-52578819D01*
X108570047Y-52578819D02*
X108665285Y-52531200D01*
X108665285Y-52531200D02*
X108712904Y-52483580D01*
X108712904Y-52483580D02*
X108760523Y-52388342D01*
X108760523Y-52388342D02*
X108760523Y-51578819D01*
X109665285Y-51912152D02*
X109665285Y-52578819D01*
X109427190Y-51531200D02*
X109189095Y-52245485D01*
X109189095Y-52245485D02*
X109808142Y-52245485D01*
X82833333Y-58512580D02*
X82785714Y-58560200D01*
X82785714Y-58560200D02*
X82642857Y-58607819D01*
X82642857Y-58607819D02*
X82547619Y-58607819D01*
X82547619Y-58607819D02*
X82404762Y-58560200D01*
X82404762Y-58560200D02*
X82309524Y-58464961D01*
X82309524Y-58464961D02*
X82261905Y-58369723D01*
X82261905Y-58369723D02*
X82214286Y-58179247D01*
X82214286Y-58179247D02*
X82214286Y-58036390D01*
X82214286Y-58036390D02*
X82261905Y-57845914D01*
X82261905Y-57845914D02*
X82309524Y-57750676D01*
X82309524Y-57750676D02*
X82404762Y-57655438D01*
X82404762Y-57655438D02*
X82547619Y-57607819D01*
X82547619Y-57607819D02*
X82642857Y-57607819D01*
X82642857Y-57607819D02*
X82785714Y-57655438D01*
X82785714Y-57655438D02*
X82833333Y-57703057D01*
X83690476Y-57941152D02*
X83690476Y-58607819D01*
X83452381Y-57560200D02*
X83214286Y-58274485D01*
X83214286Y-58274485D02*
X83833333Y-58274485D01*
X82833333Y-78330580D02*
X82785714Y-78378200D01*
X82785714Y-78378200D02*
X82642857Y-78425819D01*
X82642857Y-78425819D02*
X82547619Y-78425819D01*
X82547619Y-78425819D02*
X82404762Y-78378200D01*
X82404762Y-78378200D02*
X82309524Y-78282961D01*
X82309524Y-78282961D02*
X82261905Y-78187723D01*
X82261905Y-78187723D02*
X82214286Y-77997247D01*
X82214286Y-77997247D02*
X82214286Y-77854390D01*
X82214286Y-77854390D02*
X82261905Y-77663914D01*
X82261905Y-77663914D02*
X82309524Y-77568676D01*
X82309524Y-77568676D02*
X82404762Y-77473438D01*
X82404762Y-77473438D02*
X82547619Y-77425819D01*
X82547619Y-77425819D02*
X82642857Y-77425819D01*
X82642857Y-77425819D02*
X82785714Y-77473438D01*
X82785714Y-77473438D02*
X82833333Y-77521057D01*
X83166667Y-77425819D02*
X83785714Y-77425819D01*
X83785714Y-77425819D02*
X83452381Y-77806771D01*
X83452381Y-77806771D02*
X83595238Y-77806771D01*
X83595238Y-77806771D02*
X83690476Y-77854390D01*
X83690476Y-77854390D02*
X83738095Y-77902009D01*
X83738095Y-77902009D02*
X83785714Y-77997247D01*
X83785714Y-77997247D02*
X83785714Y-78235342D01*
X83785714Y-78235342D02*
X83738095Y-78330580D01*
X83738095Y-78330580D02*
X83690476Y-78378200D01*
X83690476Y-78378200D02*
X83595238Y-78425819D01*
X83595238Y-78425819D02*
X83309524Y-78425819D01*
X83309524Y-78425819D02*
X83214286Y-78378200D01*
X83214286Y-78378200D02*
X83166667Y-78330580D01*
X65653095Y-52781819D02*
X65653095Y-53591342D01*
X65653095Y-53591342D02*
X65700714Y-53686580D01*
X65700714Y-53686580D02*
X65748333Y-53734200D01*
X65748333Y-53734200D02*
X65843571Y-53781819D01*
X65843571Y-53781819D02*
X66034047Y-53781819D01*
X66034047Y-53781819D02*
X66129285Y-53734200D01*
X66129285Y-53734200D02*
X66176904Y-53686580D01*
X66176904Y-53686580D02*
X66224523Y-53591342D01*
X66224523Y-53591342D02*
X66224523Y-52781819D01*
X67224523Y-53781819D02*
X66653095Y-53781819D01*
X66938809Y-53781819D02*
X66938809Y-52781819D01*
X66938809Y-52781819D02*
X66843571Y-52924676D01*
X66843571Y-52924676D02*
X66748333Y-53019914D01*
X66748333Y-53019914D02*
X66653095Y-53067533D01*
X84111095Y-51578819D02*
X84111095Y-52388342D01*
X84111095Y-52388342D02*
X84158714Y-52483580D01*
X84158714Y-52483580D02*
X84206333Y-52531200D01*
X84206333Y-52531200D02*
X84301571Y-52578819D01*
X84301571Y-52578819D02*
X84492047Y-52578819D01*
X84492047Y-52578819D02*
X84587285Y-52531200D01*
X84587285Y-52531200D02*
X84634904Y-52483580D01*
X84634904Y-52483580D02*
X84682523Y-52388342D01*
X84682523Y-52388342D02*
X84682523Y-51578819D01*
X85063476Y-51578819D02*
X85682523Y-51578819D01*
X85682523Y-51578819D02*
X85349190Y-51959771D01*
X85349190Y-51959771D02*
X85492047Y-51959771D01*
X85492047Y-51959771D02*
X85587285Y-52007390D01*
X85587285Y-52007390D02*
X85634904Y-52055009D01*
X85634904Y-52055009D02*
X85682523Y-52150247D01*
X85682523Y-52150247D02*
X85682523Y-52388342D01*
X85682523Y-52388342D02*
X85634904Y-52483580D01*
X85634904Y-52483580D02*
X85587285Y-52531200D01*
X85587285Y-52531200D02*
X85492047Y-52578819D01*
X85492047Y-52578819D02*
X85206333Y-52578819D01*
X85206333Y-52578819D02*
X85111095Y-52531200D01*
X85111095Y-52531200D02*
X85063476Y-52483580D01*
X66206333Y-78774080D02*
X66158714Y-78821700D01*
X66158714Y-78821700D02*
X66015857Y-78869319D01*
X66015857Y-78869319D02*
X65920619Y-78869319D01*
X65920619Y-78869319D02*
X65777762Y-78821700D01*
X65777762Y-78821700D02*
X65682524Y-78726461D01*
X65682524Y-78726461D02*
X65634905Y-78631223D01*
X65634905Y-78631223D02*
X65587286Y-78440747D01*
X65587286Y-78440747D02*
X65587286Y-78297890D01*
X65587286Y-78297890D02*
X65634905Y-78107414D01*
X65634905Y-78107414D02*
X65682524Y-78012176D01*
X65682524Y-78012176D02*
X65777762Y-77916938D01*
X65777762Y-77916938D02*
X65920619Y-77869319D01*
X65920619Y-77869319D02*
X66015857Y-77869319D01*
X66015857Y-77869319D02*
X66158714Y-77916938D01*
X66158714Y-77916938D02*
X66206333Y-77964557D01*
X66587286Y-77964557D02*
X66634905Y-77916938D01*
X66634905Y-77916938D02*
X66730143Y-77869319D01*
X66730143Y-77869319D02*
X66968238Y-77869319D01*
X66968238Y-77869319D02*
X67063476Y-77916938D01*
X67063476Y-77916938D02*
X67111095Y-77964557D01*
X67111095Y-77964557D02*
X67158714Y-78059795D01*
X67158714Y-78059795D02*
X67158714Y-78155033D01*
X67158714Y-78155033D02*
X67111095Y-78297890D01*
X67111095Y-78297890D02*
X66539667Y-78869319D01*
X66539667Y-78869319D02*
X67158714Y-78869319D01*
X66206333Y-58811580D02*
X66158714Y-58859200D01*
X66158714Y-58859200D02*
X66015857Y-58906819D01*
X66015857Y-58906819D02*
X65920619Y-58906819D01*
X65920619Y-58906819D02*
X65777762Y-58859200D01*
X65777762Y-58859200D02*
X65682524Y-58763961D01*
X65682524Y-58763961D02*
X65634905Y-58668723D01*
X65634905Y-58668723D02*
X65587286Y-58478247D01*
X65587286Y-58478247D02*
X65587286Y-58335390D01*
X65587286Y-58335390D02*
X65634905Y-58144914D01*
X65634905Y-58144914D02*
X65682524Y-58049676D01*
X65682524Y-58049676D02*
X65777762Y-57954438D01*
X65777762Y-57954438D02*
X65920619Y-57906819D01*
X65920619Y-57906819D02*
X66015857Y-57906819D01*
X66015857Y-57906819D02*
X66158714Y-57954438D01*
X66158714Y-57954438D02*
X66206333Y-58002057D01*
X67158714Y-58906819D02*
X66587286Y-58906819D01*
X66873000Y-58906819D02*
X66873000Y-57906819D01*
X66873000Y-57906819D02*
X66777762Y-58049676D01*
X66777762Y-58049676D02*
X66682524Y-58144914D01*
X66682524Y-58144914D02*
X66587286Y-58192533D01*
X65780095Y-72853819D02*
X65780095Y-73663342D01*
X65780095Y-73663342D02*
X65827714Y-73758580D01*
X65827714Y-73758580D02*
X65875333Y-73806200D01*
X65875333Y-73806200D02*
X65970571Y-73853819D01*
X65970571Y-73853819D02*
X66161047Y-73853819D01*
X66161047Y-73853819D02*
X66256285Y-73806200D01*
X66256285Y-73806200D02*
X66303904Y-73758580D01*
X66303904Y-73758580D02*
X66351523Y-73663342D01*
X66351523Y-73663342D02*
X66351523Y-72853819D01*
X66780095Y-72949057D02*
X66827714Y-72901438D01*
X66827714Y-72901438D02*
X66922952Y-72853819D01*
X66922952Y-72853819D02*
X67161047Y-72853819D01*
X67161047Y-72853819D02*
X67256285Y-72901438D01*
X67256285Y-72901438D02*
X67303904Y-72949057D01*
X67303904Y-72949057D02*
X67351523Y-73044295D01*
X67351523Y-73044295D02*
X67351523Y-73139533D01*
X67351523Y-73139533D02*
X67303904Y-73282390D01*
X67303904Y-73282390D02*
X66732476Y-73853819D01*
X66732476Y-73853819D02*
X67351523Y-73853819D01*
D12*
X56958000Y-50990000D02*
X58288000Y-50990000D01*
X56958000Y-52320000D02*
X56958000Y-50990000D01*
X56958000Y-53590000D02*
X56958000Y-63810000D01*
X56958000Y-53590000D02*
X59618000Y-53590000D01*
X56958000Y-63810000D02*
X59618000Y-63810000D01*
X59618000Y-53590000D02*
X59618000Y-63810000D01*
X113027000Y-51057000D02*
X113027000Y-91817000D01*
X113027000Y-91817000D02*
X125947000Y-91817000D01*
X118487000Y-51057000D02*
X113027000Y-51057000D01*
X125947000Y-51057000D02*
X120487000Y-51057000D01*
X125947000Y-91817000D02*
X125947000Y-51057000D01*
X118487000Y-51057000D02*
G75*
G03*
X120487000Y-51057000I1000000J0D01*
G01*
X82265000Y-61356752D02*
X82265000Y-60834248D01*
X83735000Y-61356752D02*
X83735000Y-60834248D01*
X82265000Y-81407252D02*
X82265000Y-80884748D01*
X83735000Y-81407252D02*
X83735000Y-80884748D01*
X69480000Y-52185000D02*
X69480000Y-52565000D01*
X69480000Y-52565000D02*
X68320000Y-52565000D01*
X69480000Y-70815000D02*
X69480000Y-70435000D01*
X74670000Y-52185000D02*
X69480000Y-52185000D01*
X74670000Y-52185000D02*
X79860000Y-52185000D01*
X74670000Y-70815000D02*
X69480000Y-70815000D01*
X74670000Y-70815000D02*
X79860000Y-70815000D01*
X79860000Y-52185000D02*
X79860000Y-52565000D01*
X79860000Y-70815000D02*
X79860000Y-70435000D01*
X88827000Y-51057000D02*
X88827000Y-91817000D01*
X88827000Y-91817000D02*
X101747000Y-91817000D01*
X94287000Y-51057000D02*
X88827000Y-51057000D01*
X101747000Y-51057000D02*
X96287000Y-51057000D01*
X101747000Y-91817000D02*
X101747000Y-51057000D01*
X94287000Y-51057000D02*
G75*
G03*
X96287000Y-51057000I1000000J0D01*
G01*
X67235000Y-81328248D02*
X67235000Y-81850752D01*
X65765000Y-81328248D02*
X65765000Y-81850752D01*
X67235000Y-61238748D02*
X67235000Y-61761252D01*
X65765000Y-61238748D02*
X65765000Y-61761252D01*
X69480000Y-72185000D02*
X69480000Y-72565000D01*
X69480000Y-72565000D02*
X68320000Y-72565000D01*
X69480000Y-90815000D02*
X69480000Y-90435000D01*
X74670000Y-72185000D02*
X69480000Y-72185000D01*
X74670000Y-72185000D02*
X79860000Y-72185000D01*
X74670000Y-90815000D02*
X69480000Y-90815000D01*
X74670000Y-90815000D02*
X79860000Y-90815000D01*
X79860000Y-72185000D02*
X79860000Y-72565000D01*
X79860000Y-90815000D02*
X79860000Y-90435000D01*
%LPC*%
D13*
X58288000Y-52320000D03*
D14*
X58288000Y-54860000D03*
X58288000Y-57400000D03*
X58288000Y-59940000D03*
X58288000Y-62480000D03*
D15*
X111867000Y-52387000D03*
D16*
X111867000Y-54927000D03*
X111867000Y-57467000D03*
X111867000Y-60007000D03*
X111867000Y-62547000D03*
X111867000Y-65087000D03*
X111867000Y-67627000D03*
X111867000Y-70167000D03*
X111867000Y-72707000D03*
X111867000Y-75247000D03*
X111867000Y-77787000D03*
X111867000Y-80327000D03*
X111867000Y-82867000D03*
X111867000Y-85407000D03*
X111867000Y-87947000D03*
X111867000Y-90487000D03*
X127107000Y-90487000D03*
X127107000Y-87947000D03*
X127107000Y-85407000D03*
X127107000Y-82867000D03*
X127107000Y-80327000D03*
X127107000Y-77787000D03*
X127107000Y-75247000D03*
X127107000Y-72707000D03*
X127107000Y-70167000D03*
X127107000Y-67627000D03*
X127107000Y-65087000D03*
X127107000Y-62547000D03*
X127107000Y-60007000D03*
X127107000Y-57467000D03*
X127107000Y-54927000D03*
X127107000Y-52387000D03*
D17*
X83000000Y-62133000D03*
X83000000Y-60058000D03*
X83000000Y-82183500D03*
X83000000Y-80108500D03*
D18*
X69082500Y-53100000D03*
X69082500Y-53900000D03*
X69082500Y-54700000D03*
X69082500Y-55500000D03*
X69082500Y-56300000D03*
X69082500Y-57100000D03*
X69082500Y-57900000D03*
X69082500Y-58700000D03*
X69082500Y-59500000D03*
X69082500Y-60300000D03*
X69082500Y-61100000D03*
X69082500Y-61900000D03*
X69082500Y-62700000D03*
X69082500Y-63500000D03*
X69082500Y-64300000D03*
X69082500Y-65100000D03*
X69082500Y-65900000D03*
X69082500Y-66700000D03*
X69082500Y-67500000D03*
X69082500Y-68300000D03*
X69082500Y-69100000D03*
X69082500Y-69900000D03*
X80257500Y-69900000D03*
X80257500Y-69100000D03*
X80257500Y-68300000D03*
X80257500Y-67500000D03*
X80257500Y-66700000D03*
X80257500Y-65900000D03*
X80257500Y-65100000D03*
X80257500Y-64300000D03*
X80257500Y-63500000D03*
X80257500Y-62700000D03*
X80257500Y-61900000D03*
X80257500Y-61100000D03*
X80257500Y-60300000D03*
X80257500Y-59500000D03*
X80257500Y-58700000D03*
X80257500Y-57900000D03*
X80257500Y-57100000D03*
X80257500Y-56300000D03*
X80257500Y-55500000D03*
X80257500Y-54700000D03*
X80257500Y-53900000D03*
X80257500Y-53100000D03*
D15*
X87667000Y-52387000D03*
D16*
X87667000Y-54927000D03*
X87667000Y-57467000D03*
X87667000Y-60007000D03*
X87667000Y-62547000D03*
X87667000Y-65087000D03*
X87667000Y-67627000D03*
X87667000Y-70167000D03*
X87667000Y-72707000D03*
X87667000Y-75247000D03*
X87667000Y-77787000D03*
X87667000Y-80327000D03*
X87667000Y-82867000D03*
X87667000Y-85407000D03*
X87667000Y-87947000D03*
X87667000Y-90487000D03*
X102907000Y-90487000D03*
X102907000Y-87947000D03*
X102907000Y-85407000D03*
X102907000Y-82867000D03*
X102907000Y-80327000D03*
X102907000Y-77787000D03*
X102907000Y-75247000D03*
X102907000Y-72707000D03*
X102907000Y-70167000D03*
X102907000Y-67627000D03*
X102907000Y-65087000D03*
X102907000Y-62547000D03*
X102907000Y-60007000D03*
X102907000Y-57467000D03*
X102907000Y-54927000D03*
X102907000Y-52387000D03*
D19*
X66500000Y-80552000D03*
X66500000Y-82627000D03*
X66500000Y-60462500D03*
X66500000Y-62537500D03*
D18*
X69082500Y-73100000D03*
X69082500Y-73900000D03*
X69082500Y-74700000D03*
X69082500Y-75500000D03*
X69082500Y-76300000D03*
X69082500Y-77100000D03*
X69082500Y-77900000D03*
X69082500Y-78700000D03*
X69082500Y-79500000D03*
X69082500Y-80300000D03*
X69082500Y-81100000D03*
X69082500Y-81900000D03*
X69082500Y-82700000D03*
X69082500Y-83500000D03*
X69082500Y-84300000D03*
X69082500Y-85100000D03*
X69082500Y-85900000D03*
X69082500Y-86700000D03*
X69082500Y-87500000D03*
X69082500Y-88300000D03*
X69082500Y-89100000D03*
X69082500Y-89900000D03*
X80257500Y-89900000D03*
X80257500Y-89100000D03*
X80257500Y-88300000D03*
X80257500Y-87500000D03*
X80257500Y-86700000D03*
X80257500Y-85900000D03*
X80257500Y-85100000D03*
X80257500Y-84300000D03*
X80257500Y-83500000D03*
X80257500Y-82700000D03*
X80257500Y-81900000D03*
X80257500Y-81100000D03*
X80257500Y-80300000D03*
X80257500Y-79500000D03*
X80257500Y-78700000D03*
X80257500Y-77900000D03*
X80257500Y-77100000D03*
X80257500Y-76300000D03*
X80257500Y-75500000D03*
X80257500Y-74700000D03*
X80257500Y-73900000D03*
X80257500Y-73100000D03*
%LPD*%
M02*
