G04 #@! TF.GenerationSoftware,KiCad,Pcbnew,7.0.10*
G04 #@! TF.CreationDate,2024-02-09T18:30:01-05:00*
G04 #@! TF.ProjectId,Rosco-MiniHat,526f7363-6f2d-44d6-996e-694861742e6b,rev?*
G04 #@! TF.SameCoordinates,Original*
G04 #@! TF.FileFunction,Copper,L3,Inr*
G04 #@! TF.FilePolarity,Positive*
%FSLAX46Y46*%
G04 Gerber Fmt 4.6, Leading zero omitted, Abs format (unit mm)*
G04 Created by KiCad (PCBNEW 7.0.10) date 2024-02-09 18:30:01*
%MOMM*%
%LPD*%
G01*
G04 APERTURE LIST*
G04 #@! TA.AperFunction,ComponentPad*
%ADD10R,1.700000X1.700000*%
G04 #@! TD*
G04 #@! TA.AperFunction,ComponentPad*
%ADD11O,1.700000X1.700000*%
G04 #@! TD*
G04 #@! TA.AperFunction,ComponentPad*
%ADD12R,1.600000X1.600000*%
G04 #@! TD*
G04 #@! TA.AperFunction,ComponentPad*
%ADD13O,1.600000X1.600000*%
G04 #@! TD*
G04 #@! TA.AperFunction,ViaPad*
%ADD14C,0.700000*%
G04 #@! TD*
G04 #@! TA.AperFunction,Conductor*
%ADD15C,0.500000*%
G04 #@! TD*
G04 #@! TA.AperFunction,Conductor*
%ADD16C,0.250000*%
G04 #@! TD*
G04 APERTURE END LIST*
D10*
X58288000Y-52320000D03*
D11*
X58288000Y-54860000D03*
X58288000Y-57400000D03*
X58288000Y-59940000D03*
X58288000Y-62480000D03*
D12*
X111867000Y-52387000D03*
D13*
X111867000Y-54927000D03*
X111867000Y-57467000D03*
X111867000Y-60007000D03*
X111867000Y-62547000D03*
X111867000Y-65087000D03*
X111867000Y-67627000D03*
X111867000Y-70167000D03*
X111867000Y-72707000D03*
X111867000Y-75247000D03*
X111867000Y-77787000D03*
X111867000Y-80327000D03*
X111867000Y-82867000D03*
X111867000Y-85407000D03*
X111867000Y-87947000D03*
X111867000Y-90487000D03*
X127107000Y-90487000D03*
X127107000Y-87947000D03*
X127107000Y-85407000D03*
X127107000Y-82867000D03*
X127107000Y-80327000D03*
X127107000Y-77787000D03*
X127107000Y-75247000D03*
X127107000Y-72707000D03*
X127107000Y-70167000D03*
X127107000Y-67627000D03*
X127107000Y-65087000D03*
X127107000Y-62547000D03*
X127107000Y-60007000D03*
X127107000Y-57467000D03*
X127107000Y-54927000D03*
X127107000Y-52387000D03*
D12*
X87667000Y-52387000D03*
D13*
X87667000Y-54927000D03*
X87667000Y-57467000D03*
X87667000Y-60007000D03*
X87667000Y-62547000D03*
X87667000Y-65087000D03*
X87667000Y-67627000D03*
X87667000Y-70167000D03*
X87667000Y-72707000D03*
X87667000Y-75247000D03*
X87667000Y-77787000D03*
X87667000Y-80327000D03*
X87667000Y-82867000D03*
X87667000Y-85407000D03*
X87667000Y-87947000D03*
X87667000Y-90487000D03*
X102907000Y-90487000D03*
X102907000Y-87947000D03*
X102907000Y-85407000D03*
X102907000Y-82867000D03*
X102907000Y-80327000D03*
X102907000Y-77787000D03*
X102907000Y-75247000D03*
X102907000Y-72707000D03*
X102907000Y-70167000D03*
X102907000Y-67627000D03*
X102907000Y-65087000D03*
X102907000Y-62547000D03*
X102907000Y-60007000D03*
X102907000Y-57467000D03*
X102907000Y-54927000D03*
X102907000Y-52387000D03*
D14*
X65500000Y-79500000D03*
X83500000Y-63500000D03*
X83500000Y-83500000D03*
X65500000Y-59500000D03*
X83500000Y-79000000D03*
X65500000Y-84000000D03*
X83500000Y-59000000D03*
X65500000Y-64000000D03*
X67135500Y-66700000D03*
X67586700Y-86700000D03*
X71303400Y-67500000D03*
X70243600Y-86797600D03*
X67589500Y-88854800D03*
X67544300Y-69135200D03*
X86023000Y-87709000D03*
X86414700Y-71570200D03*
X83803300Y-68209100D03*
X84029600Y-85671000D03*
X78413500Y-58547100D03*
X77117100Y-57260700D03*
X84469800Y-71966500D03*
X82681100Y-54972300D03*
X85179700Y-71059600D03*
X81952000Y-53553500D03*
X69470400Y-70935800D03*
X67760200Y-53100000D03*
X71134100Y-58669400D03*
X70851400Y-72182900D03*
X67594800Y-73962600D03*
X67751200Y-54700000D03*
X70422500Y-55500000D03*
X85110600Y-77060000D03*
X70240000Y-74824800D03*
X65152400Y-77663200D03*
X73162700Y-60780100D03*
X71916900Y-62034200D03*
X71755300Y-64821600D03*
X66216300Y-67952500D03*
X82820100Y-64996200D03*
X90490500Y-72654800D03*
X89606000Y-65184700D03*
X89733900Y-62335400D03*
X81587400Y-58958500D03*
X89678600Y-61375600D03*
X72069300Y-57525500D03*
X77819700Y-81247900D03*
X90648600Y-70274600D03*
X78904000Y-67375500D03*
X71888500Y-65876200D03*
X77148100Y-72994000D03*
X81410700Y-87534800D03*
X105944100Y-83307400D03*
X89678600Y-77765900D03*
X89044300Y-85653400D03*
X85517400Y-69100000D03*
X70851500Y-68877600D03*
X70230300Y-87813800D03*
X68206800Y-70771600D03*
X72976900Y-82303600D03*
X101528400Y-58737000D03*
X70926200Y-80416700D03*
X71203800Y-82168700D03*
X71205400Y-83126400D03*
X85855900Y-83791500D03*
X81658100Y-83323500D03*
X86022900Y-78969900D03*
D15*
X104197000Y-53677000D02*
X102907000Y-52387000D01*
X83500000Y-83500000D02*
X83500000Y-80186200D01*
X79500000Y-59500000D02*
X83500000Y-63500000D01*
X91497000Y-73224800D02*
X91497000Y-63797000D01*
X83500000Y-80186200D02*
X87149200Y-76537000D01*
X79500000Y-79500000D02*
X83500000Y-83500000D01*
X83750000Y-63750000D02*
X83797000Y-63797000D01*
X91497000Y-63797000D02*
X102907000Y-52387000D01*
X125817000Y-53677000D02*
X104197000Y-53677000D01*
X65500000Y-59500000D02*
X79500000Y-59500000D01*
X83500000Y-63500000D02*
X83750000Y-63750000D01*
X83500000Y-63500000D02*
X83750000Y-63750000D01*
X83797000Y-63797000D02*
X91497000Y-63797000D01*
X65500000Y-79500000D02*
X79500000Y-79500000D01*
X88184800Y-76537000D02*
X91497000Y-73224800D01*
X87149200Y-76537000D02*
X88184800Y-76537000D01*
X127107000Y-52387000D02*
X125817000Y-53677000D01*
D16*
X64799600Y-59179200D02*
X67637200Y-56341600D01*
X64799600Y-65549400D02*
X64799600Y-59179200D01*
X85125500Y-56341600D02*
X86540100Y-54927000D01*
X67637200Y-56341600D02*
X85125500Y-56341600D01*
X67544300Y-68294100D02*
X64799600Y-65549400D01*
X87667000Y-54927000D02*
X86540100Y-54927000D01*
X67544300Y-69135200D02*
X67544300Y-68294100D01*
X83795300Y-62547000D02*
X87667000Y-62547000D01*
X79795400Y-58547100D02*
X83795300Y-62547000D01*
X78413500Y-58547100D02*
X79795400Y-58547100D01*
X69470400Y-70935800D02*
X70239200Y-70167000D01*
X70239200Y-70167000D02*
X87667000Y-70167000D01*
X83862300Y-72707000D02*
X86540100Y-72707000D01*
X70851400Y-72182900D02*
X83338200Y-72182900D01*
X83338200Y-72182900D02*
X83862300Y-72707000D01*
X87667000Y-72707000D02*
X86540100Y-72707000D01*
X87667000Y-75247000D02*
X86540100Y-75247000D01*
X86540100Y-75247000D02*
X85255700Y-73962600D01*
X85255700Y-73962600D02*
X67594800Y-73962600D01*
X70240000Y-74824800D02*
X72475200Y-77060000D01*
X72475200Y-77060000D02*
X85110600Y-77060000D01*
X86540100Y-80327000D02*
X86540100Y-81453900D01*
X74411200Y-81489000D02*
X66490000Y-81489000D01*
X87667000Y-80327000D02*
X86540100Y-80327000D01*
X83806700Y-84187300D02*
X77109500Y-84187300D01*
X64798700Y-79797700D02*
X64798700Y-78016900D01*
X77109500Y-84187300D02*
X74411200Y-81489000D01*
X64798700Y-78016900D02*
X65152400Y-77663200D01*
X66490000Y-81489000D02*
X64798700Y-79797700D01*
X86540100Y-81453900D02*
X83806700Y-84187300D01*
X70396000Y-86078000D02*
X70499200Y-86078000D01*
X66216300Y-67952500D02*
X64322400Y-69846400D01*
X70499200Y-86078000D02*
X76078800Y-91657600D01*
X100609500Y-91657600D02*
X101780100Y-90487000D01*
X64322400Y-69846400D02*
X64322400Y-80004400D01*
X76078800Y-91657600D02*
X100609500Y-91657600D01*
X64322400Y-80004400D02*
X70396000Y-86078000D01*
X102907000Y-90487000D02*
X101780100Y-90487000D01*
X81587400Y-58958500D02*
X84004500Y-61375600D01*
X84004500Y-61375600D02*
X89678600Y-61375600D01*
X78904000Y-67375500D02*
X85627300Y-67375500D01*
X89260800Y-68886800D02*
X90648600Y-70274600D01*
X85627300Y-67375500D02*
X87138600Y-68886800D01*
X87138600Y-68886800D02*
X89260800Y-68886800D01*
X102907000Y-65087000D02*
X101780100Y-65087000D01*
X89678600Y-77765900D02*
X101780100Y-65664400D01*
X101780100Y-65664400D02*
X101780100Y-65087000D01*
X109587400Y-86559700D02*
X75596400Y-86559700D01*
X75596400Y-86559700D02*
X71205400Y-82168700D01*
X110740100Y-85407000D02*
X109587400Y-86559700D01*
X71205400Y-82168700D02*
X71203800Y-82168700D01*
X111867000Y-85407000D02*
X110740100Y-85407000D01*
X127107000Y-90487000D02*
X125980100Y-90487000D01*
X125980100Y-90487000D02*
X124801100Y-89308000D01*
X124801100Y-89308000D02*
X77387000Y-89308000D01*
X77387000Y-89308000D02*
X71205400Y-83126400D01*
X125980100Y-87947000D02*
X122054700Y-84021600D01*
X86086000Y-84021600D02*
X85855900Y-83791500D01*
X122054700Y-84021600D02*
X86086000Y-84021600D01*
X127107000Y-87947000D02*
X125980100Y-87947000D01*
X127107000Y-80327000D02*
X125980100Y-80327000D01*
X124623000Y-78969900D02*
X86022900Y-78969900D01*
X125980100Y-80327000D02*
X124623000Y-78969900D01*
G04 #@! TA.AperFunction,Conductor*
G36*
X128426008Y-50499992D02*
G01*
X128473453Y-50517630D01*
X128498462Y-50561639D01*
X128499500Y-50573990D01*
X128499500Y-92425500D01*
X128482187Y-92473066D01*
X128438350Y-92498376D01*
X128425500Y-92499500D01*
X56073629Y-92499500D01*
X56026063Y-92482187D01*
X56000753Y-92438350D01*
X55999634Y-92426371D01*
X55957616Y-88854803D01*
X66934222Y-88854803D01*
X66953261Y-89011608D01*
X66953264Y-89011622D01*
X67009278Y-89159321D01*
X67099016Y-89289329D01*
X67099017Y-89289330D01*
X67217260Y-89394083D01*
X67357135Y-89467496D01*
X67510515Y-89505300D01*
X67510519Y-89505300D01*
X67668481Y-89505300D01*
X67668485Y-89505300D01*
X67821865Y-89467496D01*
X67961740Y-89394083D01*
X68079983Y-89289330D01*
X68169720Y-89159323D01*
X68225737Y-89011618D01*
X68237411Y-88915474D01*
X68244778Y-88854803D01*
X68244778Y-88854796D01*
X68225738Y-88697991D01*
X68225737Y-88697982D01*
X68217713Y-88676825D01*
X68169721Y-88550278D01*
X68079983Y-88420270D01*
X68026061Y-88372500D01*
X67961740Y-88315517D01*
X67833728Y-88248330D01*
X67821866Y-88242104D01*
X67668487Y-88204300D01*
X67668485Y-88204300D01*
X67510515Y-88204300D01*
X67510512Y-88204300D01*
X67357133Y-88242104D01*
X67217261Y-88315516D01*
X67099016Y-88420270D01*
X67009279Y-88550278D01*
X67009278Y-88550278D01*
X66953264Y-88697977D01*
X66953261Y-88697991D01*
X66934222Y-88854796D01*
X66934222Y-88854803D01*
X55957616Y-88854803D01*
X55932265Y-86700003D01*
X66931422Y-86700003D01*
X66950461Y-86856808D01*
X66950464Y-86856822D01*
X67006478Y-87004521D01*
X67096216Y-87134529D01*
X67096217Y-87134530D01*
X67214460Y-87239283D01*
X67354335Y-87312696D01*
X67507715Y-87350500D01*
X67507719Y-87350500D01*
X67665681Y-87350500D01*
X67665685Y-87350500D01*
X67819065Y-87312696D01*
X67958940Y-87239283D01*
X68077183Y-87134530D01*
X68166920Y-87004523D01*
X68167683Y-87002513D01*
X68222935Y-86856822D01*
X68222937Y-86856818D01*
X68241978Y-86700000D01*
X68222937Y-86543182D01*
X68167251Y-86396349D01*
X68166921Y-86395478D01*
X68077183Y-86265470D01*
X68029009Y-86222792D01*
X67958940Y-86160717D01*
X67908417Y-86134200D01*
X67819066Y-86087304D01*
X67665687Y-86049500D01*
X67665685Y-86049500D01*
X67507715Y-86049500D01*
X67507712Y-86049500D01*
X67354333Y-86087304D01*
X67214461Y-86160716D01*
X67096216Y-86265470D01*
X67006479Y-86395478D01*
X67006478Y-86395478D01*
X66950464Y-86543177D01*
X66950461Y-86543191D01*
X66931422Y-86699996D01*
X66931422Y-86700003D01*
X55932265Y-86700003D01*
X55900500Y-84000003D01*
X64844722Y-84000003D01*
X64863761Y-84156808D01*
X64863764Y-84156822D01*
X64919778Y-84304521D01*
X64997867Y-84417652D01*
X65009517Y-84434530D01*
X65127760Y-84539283D01*
X65267635Y-84612696D01*
X65421015Y-84650500D01*
X65421019Y-84650500D01*
X65578981Y-84650500D01*
X65578985Y-84650500D01*
X65732365Y-84612696D01*
X65872240Y-84539283D01*
X65990483Y-84434530D01*
X66080220Y-84304523D01*
X66136237Y-84156818D01*
X66155278Y-84000000D01*
X66149003Y-83948322D01*
X66136238Y-83843191D01*
X66136237Y-83843182D01*
X66128213Y-83822025D01*
X66080221Y-83695478D01*
X65990483Y-83565470D01*
X65962206Y-83540419D01*
X65872240Y-83460717D01*
X65815473Y-83430923D01*
X65732366Y-83387304D01*
X65578987Y-83349500D01*
X65578985Y-83349500D01*
X65421015Y-83349500D01*
X65421012Y-83349500D01*
X65267633Y-83387304D01*
X65127761Y-83460716D01*
X65009516Y-83565470D01*
X64919779Y-83695478D01*
X64919778Y-83695478D01*
X64863764Y-83843177D01*
X64863761Y-83843191D01*
X64844722Y-83999996D01*
X64844722Y-84000003D01*
X55900500Y-84000003D01*
X55859677Y-80530076D01*
X55854285Y-80071793D01*
X63896900Y-80071793D01*
X63905577Y-80098497D01*
X63908288Y-80109789D01*
X63912680Y-80137524D01*
X63925430Y-80162546D01*
X63929874Y-80173275D01*
X63938551Y-80199982D01*
X63955055Y-80222697D01*
X63961123Y-80232598D01*
X63973872Y-80257620D01*
X69870499Y-86154247D01*
X69891891Y-86200123D01*
X69878790Y-86249018D01*
X69867244Y-86261963D01*
X69753117Y-86363070D01*
X69663379Y-86493078D01*
X69663378Y-86493078D01*
X69607364Y-86640777D01*
X69607361Y-86640791D01*
X69588322Y-86797596D01*
X69588322Y-86797603D01*
X69607361Y-86954408D01*
X69607364Y-86954422D01*
X69663378Y-87102121D01*
X69753117Y-87232130D01*
X69766988Y-87244419D01*
X69791111Y-87288920D01*
X69780985Y-87338516D01*
X69766988Y-87355197D01*
X69739818Y-87379267D01*
X69650079Y-87509278D01*
X69650078Y-87509278D01*
X69594064Y-87656977D01*
X69594061Y-87656991D01*
X69575022Y-87813796D01*
X69575022Y-87813803D01*
X69594061Y-87970608D01*
X69594064Y-87970622D01*
X69650078Y-88118321D01*
X69739785Y-88248284D01*
X69739817Y-88248330D01*
X69858060Y-88353083D01*
X69997935Y-88426496D01*
X70151315Y-88464300D01*
X70151319Y-88464300D01*
X70309281Y-88464300D01*
X70309285Y-88464300D01*
X70462665Y-88426496D01*
X70602540Y-88353083D01*
X70720783Y-88248330D01*
X70810520Y-88118323D01*
X70866537Y-87970618D01*
X70873588Y-87912542D01*
X70885578Y-87813803D01*
X70885578Y-87813796D01*
X70866538Y-87656991D01*
X70866537Y-87656982D01*
X70858513Y-87635825D01*
X70810521Y-87509278D01*
X70780607Y-87465941D01*
X70720783Y-87379270D01*
X70720781Y-87379268D01*
X70720781Y-87379267D01*
X70706912Y-87366981D01*
X70682788Y-87322481D01*
X70692912Y-87272885D01*
X70706909Y-87256203D01*
X70734083Y-87232130D01*
X70813300Y-87117364D01*
X70854569Y-87088053D01*
X70905024Y-87092126D01*
X70926527Y-87107075D01*
X75730272Y-91910820D01*
X75825580Y-92006128D01*
X75850602Y-92018876D01*
X75860499Y-92024942D01*
X75883217Y-92041448D01*
X75883218Y-92041448D01*
X75883219Y-92041449D01*
X75883221Y-92041449D01*
X75883222Y-92041450D01*
X75909923Y-92050126D01*
X75920653Y-92054570D01*
X75932457Y-92060584D01*
X75945674Y-92067319D01*
X75973396Y-92071709D01*
X75973403Y-92071710D01*
X75984698Y-92074421D01*
X76011407Y-92083100D01*
X100676891Y-92083100D01*
X100676893Y-92083100D01*
X100703608Y-92074418D01*
X100714874Y-92071713D01*
X100742626Y-92067319D01*
X100767656Y-92054564D01*
X100778373Y-92050126D01*
X100805081Y-92041449D01*
X100827794Y-92024946D01*
X100837699Y-92018876D01*
X100842113Y-92016626D01*
X100862720Y-92006128D01*
X100958028Y-91910820D01*
X101838990Y-91029857D01*
X101884864Y-91008466D01*
X101933759Y-91021567D01*
X101957555Y-91049198D01*
X101967324Y-91068817D01*
X101967329Y-91068825D01*
X102090234Y-91231578D01*
X102090235Y-91231579D01*
X102227637Y-91356836D01*
X102240959Y-91368981D01*
X102414363Y-91476348D01*
X102604544Y-91550024D01*
X102805024Y-91587500D01*
X102805026Y-91587500D01*
X103008974Y-91587500D01*
X103008976Y-91587500D01*
X103209456Y-91550024D01*
X103399637Y-91476348D01*
X103573041Y-91368981D01*
X103723764Y-91231579D01*
X103846673Y-91068821D01*
X103937582Y-90886250D01*
X103993397Y-90690083D01*
X104012215Y-90487000D01*
X103993397Y-90283917D01*
X103937582Y-90087750D01*
X103846673Y-89905179D01*
X103806586Y-89852095D01*
X103791736Y-89803703D01*
X103811467Y-89757088D01*
X103856545Y-89734061D01*
X103865639Y-89733500D01*
X110908361Y-89733500D01*
X110955927Y-89750813D01*
X110981237Y-89794650D01*
X110972447Y-89844500D01*
X110967414Y-89852095D01*
X110927329Y-89905175D01*
X110927328Y-89905177D01*
X110836418Y-90087750D01*
X110836416Y-90087755D01*
X110780602Y-90283917D01*
X110780601Y-90283923D01*
X110761785Y-90486996D01*
X110761785Y-90487003D01*
X110780601Y-90690076D01*
X110780602Y-90690082D01*
X110836416Y-90886244D01*
X110836418Y-90886250D01*
X110927327Y-91068821D01*
X110927328Y-91068822D01*
X110927329Y-91068825D01*
X111050234Y-91231578D01*
X111050235Y-91231579D01*
X111187637Y-91356836D01*
X111200959Y-91368981D01*
X111374363Y-91476348D01*
X111564544Y-91550024D01*
X111765024Y-91587500D01*
X111765026Y-91587500D01*
X111968974Y-91587500D01*
X111968976Y-91587500D01*
X112169456Y-91550024D01*
X112359637Y-91476348D01*
X112533041Y-91368981D01*
X112683764Y-91231579D01*
X112806673Y-91068821D01*
X112897582Y-90886250D01*
X112953397Y-90690083D01*
X112972215Y-90487000D01*
X112953397Y-90283917D01*
X112897582Y-90087750D01*
X112806673Y-89905179D01*
X112766586Y-89852095D01*
X112751736Y-89803703D01*
X112771467Y-89757088D01*
X112816545Y-89734061D01*
X112825639Y-89733500D01*
X124594200Y-89733500D01*
X124641766Y-89750813D01*
X124646526Y-89755174D01*
X125631572Y-90740220D01*
X125726880Y-90835528D01*
X125751902Y-90848277D01*
X125761794Y-90854340D01*
X125784517Y-90870849D01*
X125784518Y-90870849D01*
X125784519Y-90870850D01*
X125811224Y-90879526D01*
X125821955Y-90883971D01*
X125826426Y-90886249D01*
X125846974Y-90896719D01*
X125874706Y-90901110D01*
X125885989Y-90903818D01*
X125912707Y-90912500D01*
X125946612Y-90912500D01*
X126043670Y-90912500D01*
X126091236Y-90929813D01*
X126109911Y-90953514D01*
X126167327Y-91068821D01*
X126167328Y-91068822D01*
X126167329Y-91068825D01*
X126290234Y-91231578D01*
X126290235Y-91231579D01*
X126427637Y-91356836D01*
X126440959Y-91368981D01*
X126614363Y-91476348D01*
X126804544Y-91550024D01*
X127005024Y-91587500D01*
X127005026Y-91587500D01*
X127208974Y-91587500D01*
X127208976Y-91587500D01*
X127409456Y-91550024D01*
X127599637Y-91476348D01*
X127773041Y-91368981D01*
X127923764Y-91231579D01*
X128046673Y-91068821D01*
X128137582Y-90886250D01*
X128193397Y-90690083D01*
X128212215Y-90487000D01*
X128193397Y-90283917D01*
X128137582Y-90087750D01*
X128046673Y-89905179D01*
X128046670Y-89905175D01*
X128046670Y-89905174D01*
X127923765Y-89742421D01*
X127923764Y-89742420D01*
X127773041Y-89605019D01*
X127702303Y-89561220D01*
X127599637Y-89497652D01*
X127409456Y-89423976D01*
X127321407Y-89407516D01*
X127208979Y-89386500D01*
X127208976Y-89386500D01*
X127005024Y-89386500D01*
X127005020Y-89386500D01*
X126855116Y-89414522D01*
X126804544Y-89423976D01*
X126804542Y-89423976D01*
X126804540Y-89423977D01*
X126614368Y-89497650D01*
X126614363Y-89497652D01*
X126614358Y-89497654D01*
X126614358Y-89497655D01*
X126440958Y-89605019D01*
X126440957Y-89605019D01*
X126290235Y-89742420D01*
X126290234Y-89742421D01*
X126167328Y-89905176D01*
X126167325Y-89905181D01*
X126157555Y-89924801D01*
X126120853Y-89959663D01*
X126070330Y-89962777D01*
X126038988Y-89944140D01*
X125054320Y-88959472D01*
X125029298Y-88946723D01*
X125019397Y-88940655D01*
X124996682Y-88924151D01*
X124982239Y-88919458D01*
X124969971Y-88915472D01*
X124959251Y-88911032D01*
X124934226Y-88898281D01*
X124934225Y-88898280D01*
X124934224Y-88898280D01*
X124906489Y-88893888D01*
X124895197Y-88891177D01*
X124868494Y-88882500D01*
X124868493Y-88882500D01*
X124834588Y-88882500D01*
X112665350Y-88882500D01*
X112617784Y-88865187D01*
X112592474Y-88821350D01*
X112601264Y-88771500D01*
X112615497Y-88753813D01*
X112683764Y-88691579D01*
X112683765Y-88691578D01*
X112806670Y-88528825D01*
X112806670Y-88528824D01*
X112806673Y-88528821D01*
X112897582Y-88346250D01*
X112953397Y-88150083D01*
X112954005Y-88143530D01*
X112972215Y-87947003D01*
X112972215Y-87946996D01*
X112953398Y-87743923D01*
X112953397Y-87743917D01*
X112943461Y-87708996D01*
X112897582Y-87547750D01*
X112806673Y-87365179D01*
X112806670Y-87365175D01*
X112806670Y-87365174D01*
X112683765Y-87202421D01*
X112683764Y-87202420D01*
X112533041Y-87065019D01*
X112478497Y-87031247D01*
X112359637Y-86957652D01*
X112169456Y-86883976D01*
X112081407Y-86867516D01*
X111968979Y-86846500D01*
X111968976Y-86846500D01*
X111765024Y-86846500D01*
X111765020Y-86846500D01*
X111615116Y-86874522D01*
X111564544Y-86883976D01*
X111564542Y-86883976D01*
X111564540Y-86883977D01*
X111376893Y-86956672D01*
X111374363Y-86957652D01*
X111374358Y-86957654D01*
X111374358Y-86957655D01*
X111200958Y-87065019D01*
X111200957Y-87065019D01*
X111050235Y-87202420D01*
X111050234Y-87202421D01*
X110927329Y-87365174D01*
X110927328Y-87365177D01*
X110836418Y-87547750D01*
X110836416Y-87547755D01*
X110780602Y-87743917D01*
X110780601Y-87743923D01*
X110761785Y-87946996D01*
X110761785Y-87947003D01*
X110780601Y-88150076D01*
X110780602Y-88150082D01*
X110835769Y-88343970D01*
X110836418Y-88346250D01*
X110927327Y-88528821D01*
X110927328Y-88528822D01*
X110927329Y-88528825D01*
X111050234Y-88691578D01*
X111050235Y-88691579D01*
X111118503Y-88753813D01*
X111141992Y-88798653D01*
X111131163Y-88848100D01*
X111091083Y-88879018D01*
X111068650Y-88882500D01*
X103705350Y-88882500D01*
X103657784Y-88865187D01*
X103632474Y-88821350D01*
X103641264Y-88771500D01*
X103655497Y-88753813D01*
X103723764Y-88691579D01*
X103723765Y-88691578D01*
X103846670Y-88528825D01*
X103846670Y-88528824D01*
X103846673Y-88528821D01*
X103937582Y-88346250D01*
X103993397Y-88150083D01*
X103994005Y-88143530D01*
X104012215Y-87947003D01*
X104012215Y-87946996D01*
X103993398Y-87743923D01*
X103993397Y-87743917D01*
X103983461Y-87708996D01*
X103937582Y-87547750D01*
X103846673Y-87365179D01*
X103846670Y-87365175D01*
X103846670Y-87365174D01*
X103723765Y-87202421D01*
X103723764Y-87202420D01*
X103626647Y-87113887D01*
X103603158Y-87069047D01*
X103613987Y-87019600D01*
X103654067Y-86988682D01*
X103676500Y-86985200D01*
X109654791Y-86985200D01*
X109654793Y-86985200D01*
X109681508Y-86976518D01*
X109692774Y-86973813D01*
X109720526Y-86969419D01*
X109745556Y-86956664D01*
X109756269Y-86952227D01*
X109782981Y-86943549D01*
X109805694Y-86927046D01*
X109815599Y-86920976D01*
X109820013Y-86918726D01*
X109840620Y-86908228D01*
X109935928Y-86812920D01*
X110798990Y-85949857D01*
X110844864Y-85928466D01*
X110893759Y-85941567D01*
X110917555Y-85969198D01*
X110927324Y-85988817D01*
X110927329Y-85988825D01*
X111050234Y-86151578D01*
X111050235Y-86151579D01*
X111167322Y-86258317D01*
X111200959Y-86288981D01*
X111374363Y-86396348D01*
X111564544Y-86470024D01*
X111765024Y-86507500D01*
X111765026Y-86507500D01*
X111968974Y-86507500D01*
X111968976Y-86507500D01*
X112169456Y-86470024D01*
X112359637Y-86396348D01*
X112533041Y-86288981D01*
X112683764Y-86151579D01*
X112713256Y-86112526D01*
X112806670Y-85988825D01*
X112806670Y-85988824D01*
X112806673Y-85988821D01*
X112897582Y-85806250D01*
X112953397Y-85610083D01*
X112962284Y-85514182D01*
X112972215Y-85407003D01*
X112972215Y-85406996D01*
X112953398Y-85203923D01*
X112953397Y-85203917D01*
X112908599Y-85046471D01*
X112897582Y-85007750D01*
X112806673Y-84825179D01*
X112806670Y-84825175D01*
X112806670Y-84825174D01*
X112683765Y-84662421D01*
X112683764Y-84662420D01*
X112588731Y-84575787D01*
X112565242Y-84530947D01*
X112576071Y-84481500D01*
X112616150Y-84450582D01*
X112638584Y-84447100D01*
X121847800Y-84447100D01*
X121895366Y-84464413D01*
X121900126Y-84468774D01*
X125631572Y-88200220D01*
X125726880Y-88295528D01*
X125751902Y-88308276D01*
X125761799Y-88314342D01*
X125784517Y-88330848D01*
X125784518Y-88330848D01*
X125784519Y-88330849D01*
X125784521Y-88330849D01*
X125784522Y-88330850D01*
X125811223Y-88339526D01*
X125821953Y-88343970D01*
X125826426Y-88346249D01*
X125846974Y-88356719D01*
X125864529Y-88359499D01*
X125874703Y-88361110D01*
X125885998Y-88363821D01*
X125912707Y-88372500D01*
X125946612Y-88372500D01*
X126043670Y-88372500D01*
X126091236Y-88389813D01*
X126109911Y-88413514D01*
X126167327Y-88528821D01*
X126167328Y-88528822D01*
X126167329Y-88528825D01*
X126290234Y-88691578D01*
X126290235Y-88691579D01*
X126377905Y-88771500D01*
X126440959Y-88828981D01*
X126614363Y-88936348D01*
X126804544Y-89010024D01*
X127005024Y-89047500D01*
X127005026Y-89047500D01*
X127208974Y-89047500D01*
X127208976Y-89047500D01*
X127409456Y-89010024D01*
X127599637Y-88936348D01*
X127773041Y-88828981D01*
X127923764Y-88691579D01*
X128046673Y-88528821D01*
X128137582Y-88346250D01*
X128193397Y-88150083D01*
X128194005Y-88143530D01*
X128212215Y-87947003D01*
X128212215Y-87946996D01*
X128193398Y-87743923D01*
X128193397Y-87743917D01*
X128183461Y-87708996D01*
X128137582Y-87547750D01*
X128046673Y-87365179D01*
X128046670Y-87365175D01*
X128046670Y-87365174D01*
X127923765Y-87202421D01*
X127923764Y-87202420D01*
X127773041Y-87065019D01*
X127718497Y-87031247D01*
X127599637Y-86957652D01*
X127409456Y-86883976D01*
X127321407Y-86867516D01*
X127208979Y-86846500D01*
X127208976Y-86846500D01*
X127005024Y-86846500D01*
X127005020Y-86846500D01*
X126855116Y-86874522D01*
X126804544Y-86883976D01*
X126804542Y-86883976D01*
X126804540Y-86883977D01*
X126616893Y-86956672D01*
X126614363Y-86957652D01*
X126614358Y-86957654D01*
X126614358Y-86957655D01*
X126440958Y-87065019D01*
X126440957Y-87065019D01*
X126290235Y-87202420D01*
X126290234Y-87202421D01*
X126167328Y-87365176D01*
X126167325Y-87365181D01*
X126157555Y-87384801D01*
X126120853Y-87419663D01*
X126070330Y-87422777D01*
X126038988Y-87404140D01*
X124041851Y-85407003D01*
X126001785Y-85407003D01*
X126020601Y-85610076D01*
X126020602Y-85610082D01*
X126076416Y-85806244D01*
X126076418Y-85806250D01*
X126167327Y-85988821D01*
X126167328Y-85988822D01*
X126167329Y-85988825D01*
X126290234Y-86151578D01*
X126290235Y-86151579D01*
X126407322Y-86258317D01*
X126440959Y-86288981D01*
X126614363Y-86396348D01*
X126804544Y-86470024D01*
X127005024Y-86507500D01*
X127005026Y-86507500D01*
X127208974Y-86507500D01*
X127208976Y-86507500D01*
X127409456Y-86470024D01*
X127599637Y-86396348D01*
X127773041Y-86288981D01*
X127923764Y-86151579D01*
X127953256Y-86112526D01*
X128046670Y-85988825D01*
X128046670Y-85988824D01*
X128046673Y-85988821D01*
X128137582Y-85806250D01*
X128193397Y-85610083D01*
X128202284Y-85514182D01*
X128212215Y-85407003D01*
X128212215Y-85406996D01*
X128193398Y-85203923D01*
X128193397Y-85203917D01*
X128148599Y-85046471D01*
X128137582Y-85007750D01*
X128046673Y-84825179D01*
X128046670Y-84825175D01*
X128046670Y-84825174D01*
X127923765Y-84662421D01*
X127923764Y-84662420D01*
X127773041Y-84525019D01*
X127682202Y-84468774D01*
X127599637Y-84417652D01*
X127409456Y-84343976D01*
X127321407Y-84327516D01*
X127208979Y-84306500D01*
X127208976Y-84306500D01*
X127005024Y-84306500D01*
X127005020Y-84306500D01*
X126855116Y-84334522D01*
X126804544Y-84343976D01*
X126804542Y-84343976D01*
X126804540Y-84343977D01*
X126649097Y-84404196D01*
X126614363Y-84417652D01*
X126614358Y-84417654D01*
X126614358Y-84417655D01*
X126440958Y-84525019D01*
X126440957Y-84525019D01*
X126290235Y-84662420D01*
X126290234Y-84662421D01*
X126167329Y-84825174D01*
X126167328Y-84825177D01*
X126076418Y-85007750D01*
X126076416Y-85007755D01*
X126020602Y-85203917D01*
X126020601Y-85203923D01*
X126001785Y-85406996D01*
X126001785Y-85407003D01*
X124041851Y-85407003D01*
X122307920Y-83673072D01*
X122282898Y-83660323D01*
X122272997Y-83654255D01*
X122250282Y-83637751D01*
X122235839Y-83633058D01*
X122223571Y-83629072D01*
X122212851Y-83624632D01*
X122187826Y-83611881D01*
X122187825Y-83611880D01*
X122187824Y-83611880D01*
X122160089Y-83607488D01*
X122148797Y-83604777D01*
X122122094Y-83596100D01*
X122122093Y-83596100D01*
X122088188Y-83596100D01*
X112844065Y-83596100D01*
X112796499Y-83578787D01*
X112771189Y-83534950D01*
X112779979Y-83485100D01*
X112785012Y-83477505D01*
X112795045Y-83464219D01*
X112806673Y-83448821D01*
X112897582Y-83266250D01*
X112953397Y-83070083D01*
X112958133Y-83018978D01*
X112972215Y-82867003D01*
X126001785Y-82867003D01*
X126020601Y-83070076D01*
X126020602Y-83070082D01*
X126054101Y-83187815D01*
X126076418Y-83266250D01*
X126167327Y-83448821D01*
X126167328Y-83448822D01*
X126167329Y-83448825D01*
X126290234Y-83611578D01*
X126290235Y-83611579D01*
X126382268Y-83695477D01*
X126440959Y-83748981D01*
X126614363Y-83856348D01*
X126804544Y-83930024D01*
X127005024Y-83967500D01*
X127005026Y-83967500D01*
X127208974Y-83967500D01*
X127208976Y-83967500D01*
X127409456Y-83930024D01*
X127599637Y-83856348D01*
X127773041Y-83748981D01*
X127923764Y-83611579D01*
X127926854Y-83607488D01*
X128046670Y-83448825D01*
X128046670Y-83448824D01*
X128046673Y-83448821D01*
X128137582Y-83266250D01*
X128193397Y-83070083D01*
X128198133Y-83018978D01*
X128212215Y-82867003D01*
X128212215Y-82866996D01*
X128193398Y-82663923D01*
X128193397Y-82663917D01*
X128139139Y-82473223D01*
X128137582Y-82467750D01*
X128046673Y-82285179D01*
X128046670Y-82285175D01*
X128046670Y-82285174D01*
X127923765Y-82122421D01*
X127923764Y-82122420D01*
X127773041Y-81985019D01*
X127599637Y-81877652D01*
X127409456Y-81803976D01*
X127319621Y-81787183D01*
X127208979Y-81766500D01*
X127208976Y-81766500D01*
X127005024Y-81766500D01*
X127005020Y-81766500D01*
X126855116Y-81794522D01*
X126804544Y-81803976D01*
X126804542Y-81803976D01*
X126804540Y-81803977D01*
X126614368Y-81877650D01*
X126614363Y-81877652D01*
X126614358Y-81877654D01*
X126614358Y-81877655D01*
X126440958Y-81985019D01*
X126440957Y-81985019D01*
X126290235Y-82122420D01*
X126290234Y-82122421D01*
X126167329Y-82285174D01*
X126167328Y-82285177D01*
X126076418Y-82467750D01*
X126076416Y-82467755D01*
X126020602Y-82663917D01*
X126020601Y-82663923D01*
X126001785Y-82866996D01*
X126001785Y-82867003D01*
X112972215Y-82867003D01*
X112972215Y-82866996D01*
X112953398Y-82663923D01*
X112953397Y-82663917D01*
X112899139Y-82473223D01*
X112897582Y-82467750D01*
X112806673Y-82285179D01*
X112806670Y-82285175D01*
X112806670Y-82285174D01*
X112683765Y-82122421D01*
X112683764Y-82122420D01*
X112533041Y-81985019D01*
X112359637Y-81877652D01*
X112169456Y-81803976D01*
X112079621Y-81787183D01*
X111968979Y-81766500D01*
X111968976Y-81766500D01*
X111765024Y-81766500D01*
X111765020Y-81766500D01*
X111615116Y-81794522D01*
X111564544Y-81803976D01*
X111564542Y-81803976D01*
X111564540Y-81803977D01*
X111374368Y-81877650D01*
X111374363Y-81877652D01*
X111374358Y-81877654D01*
X111374358Y-81877655D01*
X111200958Y-81985019D01*
X111200957Y-81985019D01*
X111050235Y-82122420D01*
X111050234Y-82122421D01*
X110927329Y-82285174D01*
X110927328Y-82285177D01*
X110836418Y-82467750D01*
X110836416Y-82467755D01*
X110780602Y-82663917D01*
X110780601Y-82663923D01*
X110761785Y-82866996D01*
X110761785Y-82867003D01*
X110780601Y-83070076D01*
X110780602Y-83070082D01*
X110814101Y-83187815D01*
X110836418Y-83266250D01*
X110927327Y-83448821D01*
X110927328Y-83448822D01*
X110927329Y-83448824D01*
X110948988Y-83477505D01*
X110963838Y-83525897D01*
X110944107Y-83572512D01*
X110899029Y-83595539D01*
X110889935Y-83596100D01*
X106637529Y-83596100D01*
X106589963Y-83578787D01*
X106564653Y-83534950D01*
X106568338Y-83495860D01*
X106580337Y-83464219D01*
X106599378Y-83307403D01*
X106599378Y-83307396D01*
X106580338Y-83150591D01*
X106580337Y-83150582D01*
X106549808Y-83070083D01*
X106524321Y-83002878D01*
X106434583Y-82872870D01*
X106334513Y-82784217D01*
X106316340Y-82768117D01*
X106304239Y-82761766D01*
X106176466Y-82694704D01*
X106023087Y-82656900D01*
X106023085Y-82656900D01*
X105865115Y-82656900D01*
X105865112Y-82656900D01*
X105711733Y-82694704D01*
X105571861Y-82768116D01*
X105453616Y-82872870D01*
X105363879Y-83002878D01*
X105363878Y-83002878D01*
X105307864Y-83150577D01*
X105307861Y-83150591D01*
X105288822Y-83307396D01*
X105288822Y-83307403D01*
X105307862Y-83464219D01*
X105319862Y-83495860D01*
X105320542Y-83546474D01*
X105288527Y-83585684D01*
X105250671Y-83596100D01*
X103884065Y-83596100D01*
X103836499Y-83578787D01*
X103811189Y-83534950D01*
X103819979Y-83485100D01*
X103825012Y-83477505D01*
X103835045Y-83464219D01*
X103846673Y-83448821D01*
X103937582Y-83266250D01*
X103993397Y-83070083D01*
X103998133Y-83018978D01*
X104012215Y-82867003D01*
X104012215Y-82866996D01*
X103993398Y-82663923D01*
X103993397Y-82663917D01*
X103939139Y-82473223D01*
X103937582Y-82467750D01*
X103846673Y-82285179D01*
X103846670Y-82285175D01*
X103846670Y-82285174D01*
X103723765Y-82122421D01*
X103723764Y-82122420D01*
X103573041Y-81985019D01*
X103399637Y-81877652D01*
X103209456Y-81803976D01*
X103119621Y-81787183D01*
X103008979Y-81766500D01*
X103008976Y-81766500D01*
X102805024Y-81766500D01*
X102805020Y-81766500D01*
X102655116Y-81794522D01*
X102604544Y-81803976D01*
X102604542Y-81803976D01*
X102604540Y-81803977D01*
X102414368Y-81877650D01*
X102414363Y-81877652D01*
X102414358Y-81877654D01*
X102414358Y-81877655D01*
X102240958Y-81985019D01*
X102240957Y-81985019D01*
X102090235Y-82122420D01*
X102090234Y-82122421D01*
X101967329Y-82285174D01*
X101967328Y-82285177D01*
X101876418Y-82467750D01*
X101876416Y-82467755D01*
X101820602Y-82663917D01*
X101820601Y-82663923D01*
X101801785Y-82866996D01*
X101801785Y-82867003D01*
X101820601Y-83070076D01*
X101820602Y-83070082D01*
X101854101Y-83187815D01*
X101876418Y-83266250D01*
X101967327Y-83448821D01*
X101967328Y-83448822D01*
X101967329Y-83448824D01*
X101988988Y-83477505D01*
X102003838Y-83525897D01*
X101984107Y-83572512D01*
X101939029Y-83595539D01*
X101929935Y-83596100D01*
X88644065Y-83596100D01*
X88596499Y-83578787D01*
X88571189Y-83534950D01*
X88579979Y-83485100D01*
X88585012Y-83477505D01*
X88595045Y-83464219D01*
X88606673Y-83448821D01*
X88697582Y-83266250D01*
X88753397Y-83070083D01*
X88758133Y-83018978D01*
X88772215Y-82867003D01*
X88772215Y-82866996D01*
X88753398Y-82663923D01*
X88753397Y-82663917D01*
X88699139Y-82473223D01*
X88697582Y-82467750D01*
X88606673Y-82285179D01*
X88606670Y-82285175D01*
X88606670Y-82285174D01*
X88483765Y-82122421D01*
X88483764Y-82122420D01*
X88333041Y-81985019D01*
X88159637Y-81877652D01*
X87969456Y-81803976D01*
X87879621Y-81787183D01*
X87768979Y-81766500D01*
X87768976Y-81766500D01*
X87565024Y-81766500D01*
X87565020Y-81766500D01*
X87415116Y-81794522D01*
X87364544Y-81803976D01*
X87364542Y-81803976D01*
X87364540Y-81803977D01*
X87174368Y-81877650D01*
X87174363Y-81877652D01*
X87174358Y-81877654D01*
X87174358Y-81877655D01*
X87000958Y-81985019D01*
X87000957Y-81985019D01*
X86850235Y-82122420D01*
X86850234Y-82122421D01*
X86727329Y-82285174D01*
X86727328Y-82285177D01*
X86636418Y-82467750D01*
X86636416Y-82467755D01*
X86580602Y-82663917D01*
X86580601Y-82663923D01*
X86561785Y-82866996D01*
X86561785Y-82867003D01*
X86580601Y-83070076D01*
X86580602Y-83070082D01*
X86614101Y-83187815D01*
X86636418Y-83266250D01*
X86727327Y-83448821D01*
X86727328Y-83448822D01*
X86727329Y-83448824D01*
X86748988Y-83477505D01*
X86763838Y-83525897D01*
X86744107Y-83572512D01*
X86699029Y-83595539D01*
X86689935Y-83596100D01*
X86528583Y-83596100D01*
X86481017Y-83578787D01*
X86459392Y-83548340D01*
X86439489Y-83495860D01*
X86436120Y-83486977D01*
X86346383Y-83356970D01*
X86228140Y-83252217D01*
X86216039Y-83245866D01*
X86088266Y-83178804D01*
X85934887Y-83141000D01*
X85934885Y-83141000D01*
X85776915Y-83141000D01*
X85776912Y-83141000D01*
X85623535Y-83178803D01*
X85619266Y-83181044D01*
X85569102Y-83187815D01*
X85526322Y-83160757D01*
X85510942Y-83112531D01*
X85530160Y-83065702D01*
X85532535Y-83063212D01*
X86864653Y-81731095D01*
X86888628Y-81707120D01*
X86901381Y-81682089D01*
X86907439Y-81672203D01*
X86923949Y-81649481D01*
X86932627Y-81622769D01*
X86937064Y-81612056D01*
X86949819Y-81587026D01*
X86954213Y-81559274D01*
X86956918Y-81548008D01*
X86965600Y-81521293D01*
X86965600Y-81386507D01*
X86965600Y-81319942D01*
X86982913Y-81272376D01*
X87026750Y-81247066D01*
X87076600Y-81255856D01*
X87078511Y-81256999D01*
X87174363Y-81316348D01*
X87364544Y-81390024D01*
X87565024Y-81427500D01*
X87565026Y-81427500D01*
X87768974Y-81427500D01*
X87768976Y-81427500D01*
X87969456Y-81390024D01*
X88159637Y-81316348D01*
X88333041Y-81208981D01*
X88483764Y-81071579D01*
X88492742Y-81059691D01*
X88606670Y-80908825D01*
X88606670Y-80908824D01*
X88606673Y-80908821D01*
X88697582Y-80726250D01*
X88753397Y-80530083D01*
X88763904Y-80416700D01*
X88772215Y-80327003D01*
X88772215Y-80326996D01*
X88753398Y-80123923D01*
X88753397Y-80123917D01*
X88712014Y-79978472D01*
X88697582Y-79927750D01*
X88606673Y-79745179D01*
X88606670Y-79745175D01*
X88606670Y-79745174D01*
X88483765Y-79582421D01*
X88483764Y-79582420D01*
X88419775Y-79524087D01*
X88396286Y-79479247D01*
X88407115Y-79429800D01*
X88447195Y-79398882D01*
X88469628Y-79395400D01*
X102104372Y-79395400D01*
X102151938Y-79412713D01*
X102177248Y-79456550D01*
X102168458Y-79506400D01*
X102154225Y-79524087D01*
X102090235Y-79582420D01*
X102090234Y-79582421D01*
X101967329Y-79745174D01*
X101967328Y-79745177D01*
X101876418Y-79927750D01*
X101876416Y-79927755D01*
X101820602Y-80123917D01*
X101820601Y-80123923D01*
X101801785Y-80326996D01*
X101801785Y-80327003D01*
X101820601Y-80530076D01*
X101820602Y-80530082D01*
X101875769Y-80723970D01*
X101876418Y-80726250D01*
X101967327Y-80908821D01*
X101967328Y-80908822D01*
X101967329Y-80908825D01*
X102090234Y-81071578D01*
X102090235Y-81071579D01*
X102151823Y-81127723D01*
X102240959Y-81208981D01*
X102414363Y-81316348D01*
X102604544Y-81390024D01*
X102805024Y-81427500D01*
X102805026Y-81427500D01*
X103008974Y-81427500D01*
X103008976Y-81427500D01*
X103209456Y-81390024D01*
X103399637Y-81316348D01*
X103573041Y-81208981D01*
X103723764Y-81071579D01*
X103732742Y-81059691D01*
X103846670Y-80908825D01*
X103846670Y-80908824D01*
X103846673Y-80908821D01*
X103937582Y-80726250D01*
X103993397Y-80530083D01*
X104003904Y-80416700D01*
X104012215Y-80327003D01*
X104012215Y-80326996D01*
X103993398Y-80123923D01*
X103993397Y-80123917D01*
X103952014Y-79978472D01*
X103937582Y-79927750D01*
X103846673Y-79745179D01*
X103846670Y-79745175D01*
X103846670Y-79745174D01*
X103723765Y-79582421D01*
X103723764Y-79582420D01*
X103659775Y-79524087D01*
X103636286Y-79479247D01*
X103647115Y-79429800D01*
X103687195Y-79398882D01*
X103709628Y-79395400D01*
X111064372Y-79395400D01*
X111111938Y-79412713D01*
X111137248Y-79456550D01*
X111128458Y-79506400D01*
X111114225Y-79524087D01*
X111050235Y-79582420D01*
X111050234Y-79582421D01*
X110927329Y-79745174D01*
X110927328Y-79745177D01*
X110836418Y-79927750D01*
X110836416Y-79927755D01*
X110780602Y-80123917D01*
X110780601Y-80123923D01*
X110761785Y-80326996D01*
X110761785Y-80327003D01*
X110780601Y-80530076D01*
X110780602Y-80530082D01*
X110835769Y-80723970D01*
X110836418Y-80726250D01*
X110927327Y-80908821D01*
X110927328Y-80908822D01*
X110927329Y-80908825D01*
X111050234Y-81071578D01*
X111050235Y-81071579D01*
X111111823Y-81127723D01*
X111200959Y-81208981D01*
X111374363Y-81316348D01*
X111564544Y-81390024D01*
X111765024Y-81427500D01*
X111765026Y-81427500D01*
X111968974Y-81427500D01*
X111968976Y-81427500D01*
X112169456Y-81390024D01*
X112359637Y-81316348D01*
X112533041Y-81208981D01*
X112683764Y-81071579D01*
X112692742Y-81059691D01*
X112806670Y-80908825D01*
X112806670Y-80908824D01*
X112806673Y-80908821D01*
X112897582Y-80726250D01*
X112953397Y-80530083D01*
X112963904Y-80416700D01*
X112972215Y-80327003D01*
X112972215Y-80326996D01*
X112953398Y-80123923D01*
X112953397Y-80123917D01*
X112912014Y-79978472D01*
X112897582Y-79927750D01*
X112806673Y-79745179D01*
X112806670Y-79745175D01*
X112806670Y-79745174D01*
X112683765Y-79582421D01*
X112683764Y-79582420D01*
X112619775Y-79524087D01*
X112596286Y-79479247D01*
X112607115Y-79429800D01*
X112647195Y-79398882D01*
X112669628Y-79395400D01*
X124416100Y-79395400D01*
X124463666Y-79412713D01*
X124468426Y-79417074D01*
X125631572Y-80580220D01*
X125726880Y-80675528D01*
X125751906Y-80688279D01*
X125761793Y-80694338D01*
X125784519Y-80710849D01*
X125784520Y-80710849D01*
X125784521Y-80710850D01*
X125811223Y-80719526D01*
X125821953Y-80723970D01*
X125826426Y-80726249D01*
X125846974Y-80736719D01*
X125874703Y-80741110D01*
X125885998Y-80743821D01*
X125912707Y-80752500D01*
X125946612Y-80752500D01*
X126043670Y-80752500D01*
X126091236Y-80769813D01*
X126109911Y-80793514D01*
X126167327Y-80908821D01*
X126167328Y-80908822D01*
X126167329Y-80908825D01*
X126290234Y-81071578D01*
X126290235Y-81071579D01*
X126351823Y-81127723D01*
X126440959Y-81208981D01*
X126614363Y-81316348D01*
X126804544Y-81390024D01*
X127005024Y-81427500D01*
X127005026Y-81427500D01*
X127208974Y-81427500D01*
X127208976Y-81427500D01*
X127409456Y-81390024D01*
X127599637Y-81316348D01*
X127773041Y-81208981D01*
X127923764Y-81071579D01*
X127932742Y-81059691D01*
X128046670Y-80908825D01*
X128046670Y-80908824D01*
X128046673Y-80908821D01*
X128137582Y-80726250D01*
X128193397Y-80530083D01*
X128203904Y-80416700D01*
X128212215Y-80327003D01*
X128212215Y-80326996D01*
X128193398Y-80123923D01*
X128193397Y-80123917D01*
X128152014Y-79978472D01*
X128137582Y-79927750D01*
X128046673Y-79745179D01*
X128046670Y-79745175D01*
X128046670Y-79745174D01*
X127923765Y-79582421D01*
X127923764Y-79582420D01*
X127773041Y-79445019D01*
X127727908Y-79417074D01*
X127599637Y-79337652D01*
X127409456Y-79263976D01*
X127321407Y-79247516D01*
X127208979Y-79226500D01*
X127208976Y-79226500D01*
X127005024Y-79226500D01*
X127005020Y-79226500D01*
X126855116Y-79254522D01*
X126804544Y-79263976D01*
X126804542Y-79263976D01*
X126804540Y-79263977D01*
X126699879Y-79304523D01*
X126614363Y-79337652D01*
X126614358Y-79337654D01*
X126614358Y-79337655D01*
X126440958Y-79445019D01*
X126440957Y-79445019D01*
X126290235Y-79582420D01*
X126290234Y-79582421D01*
X126167328Y-79745176D01*
X126167325Y-79745181D01*
X126157555Y-79764801D01*
X126120853Y-79799663D01*
X126070330Y-79802777D01*
X126038988Y-79784140D01*
X124876220Y-78621372D01*
X124851198Y-78608623D01*
X124841297Y-78602555D01*
X124818582Y-78586051D01*
X124804139Y-78581358D01*
X124791871Y-78577372D01*
X124781151Y-78572932D01*
X124756126Y-78560181D01*
X124756125Y-78560180D01*
X124756124Y-78560180D01*
X124728389Y-78555788D01*
X124717097Y-78553077D01*
X124690394Y-78544400D01*
X124690393Y-78544400D01*
X124656488Y-78544400D01*
X112822694Y-78544400D01*
X112775128Y-78527087D01*
X112749818Y-78483250D01*
X112758608Y-78433400D01*
X112763641Y-78425805D01*
X112799291Y-78378596D01*
X112806673Y-78368821D01*
X112897582Y-78186250D01*
X112953397Y-77990083D01*
X112969156Y-77820018D01*
X112972215Y-77787003D01*
X126001785Y-77787003D01*
X126020601Y-77990076D01*
X126020602Y-77990082D01*
X126076416Y-78186244D01*
X126076418Y-78186250D01*
X126167327Y-78368821D01*
X126167328Y-78368822D01*
X126167329Y-78368825D01*
X126290234Y-78531578D01*
X126290235Y-78531579D01*
X126368093Y-78602555D01*
X126440959Y-78668981D01*
X126614363Y-78776348D01*
X126804544Y-78850024D01*
X127005024Y-78887500D01*
X127005026Y-78887500D01*
X127208974Y-78887500D01*
X127208976Y-78887500D01*
X127409456Y-78850024D01*
X127599637Y-78776348D01*
X127773041Y-78668981D01*
X127923764Y-78531579D01*
X127960261Y-78483250D01*
X128046670Y-78368825D01*
X128046670Y-78368824D01*
X128046673Y-78368821D01*
X128137582Y-78186250D01*
X128193397Y-77990083D01*
X128209156Y-77820018D01*
X128212215Y-77787003D01*
X128212215Y-77786996D01*
X128193398Y-77583923D01*
X128193397Y-77583917D01*
X128170690Y-77504110D01*
X128137582Y-77387750D01*
X128046673Y-77205179D01*
X128046670Y-77205175D01*
X128046670Y-77205174D01*
X127923765Y-77042421D01*
X127923764Y-77042420D01*
X127773041Y-76905019D01*
X127770066Y-76903177D01*
X127599637Y-76797652D01*
X127409456Y-76723976D01*
X127321407Y-76707516D01*
X127208979Y-76686500D01*
X127208976Y-76686500D01*
X127005024Y-76686500D01*
X127005020Y-76686500D01*
X126855116Y-76714522D01*
X126804544Y-76723976D01*
X126804542Y-76723976D01*
X126804540Y-76723977D01*
X126723227Y-76755478D01*
X126614363Y-76797652D01*
X126614358Y-76797654D01*
X126614358Y-76797655D01*
X126440958Y-76905019D01*
X126440957Y-76905019D01*
X126290235Y-77042420D01*
X126290234Y-77042421D01*
X126167329Y-77205174D01*
X126167328Y-77205177D01*
X126076418Y-77387750D01*
X126076416Y-77387755D01*
X126020602Y-77583917D01*
X126020601Y-77583923D01*
X126001785Y-77786996D01*
X126001785Y-77787003D01*
X112972215Y-77787003D01*
X112972215Y-77786996D01*
X112953398Y-77583923D01*
X112953397Y-77583917D01*
X112930690Y-77504110D01*
X112897582Y-77387750D01*
X112806673Y-77205179D01*
X112806670Y-77205175D01*
X112806670Y-77205174D01*
X112683765Y-77042421D01*
X112683764Y-77042420D01*
X112533041Y-76905019D01*
X112530066Y-76903177D01*
X112359637Y-76797652D01*
X112169456Y-76723976D01*
X112081407Y-76707516D01*
X111968979Y-76686500D01*
X111968976Y-76686500D01*
X111765024Y-76686500D01*
X111765020Y-76686500D01*
X111615116Y-76714522D01*
X111564544Y-76723976D01*
X111564542Y-76723976D01*
X111564540Y-76723977D01*
X111483227Y-76755478D01*
X111374363Y-76797652D01*
X111374358Y-76797654D01*
X111374358Y-76797655D01*
X111200958Y-76905019D01*
X111200957Y-76905019D01*
X111050235Y-77042420D01*
X111050234Y-77042421D01*
X110927329Y-77205174D01*
X110927328Y-77205177D01*
X110836418Y-77387750D01*
X110836416Y-77387755D01*
X110780602Y-77583917D01*
X110780601Y-77583923D01*
X110761785Y-77786996D01*
X110761785Y-77787003D01*
X110780601Y-77990076D01*
X110780602Y-77990082D01*
X110836416Y-78186244D01*
X110836418Y-78186250D01*
X110927327Y-78368821D01*
X110927328Y-78368822D01*
X110927329Y-78368824D01*
X110970359Y-78425805D01*
X110985209Y-78474197D01*
X110965478Y-78520812D01*
X110920400Y-78543839D01*
X110911306Y-78544400D01*
X103862694Y-78544400D01*
X103815128Y-78527087D01*
X103789818Y-78483250D01*
X103798608Y-78433400D01*
X103803641Y-78425805D01*
X103839291Y-78378596D01*
X103846673Y-78368821D01*
X103937582Y-78186250D01*
X103993397Y-77990083D01*
X104009156Y-77820018D01*
X104012215Y-77787003D01*
X104012215Y-77786996D01*
X103993398Y-77583923D01*
X103993397Y-77583917D01*
X103970690Y-77504110D01*
X103937582Y-77387750D01*
X103846673Y-77205179D01*
X103846670Y-77205175D01*
X103846670Y-77205174D01*
X103723765Y-77042421D01*
X103723764Y-77042420D01*
X103573041Y-76905019D01*
X103570066Y-76903177D01*
X103399637Y-76797652D01*
X103209456Y-76723976D01*
X103121407Y-76707516D01*
X103008979Y-76686500D01*
X103008976Y-76686500D01*
X102805024Y-76686500D01*
X102805020Y-76686500D01*
X102655116Y-76714522D01*
X102604544Y-76723976D01*
X102604542Y-76723976D01*
X102604540Y-76723977D01*
X102523227Y-76755478D01*
X102414363Y-76797652D01*
X102414358Y-76797654D01*
X102414358Y-76797655D01*
X102240958Y-76905019D01*
X102240957Y-76905019D01*
X102090235Y-77042420D01*
X102090234Y-77042421D01*
X101967329Y-77205174D01*
X101967328Y-77205177D01*
X101876418Y-77387750D01*
X101876416Y-77387755D01*
X101820602Y-77583917D01*
X101820601Y-77583923D01*
X101801785Y-77786996D01*
X101801785Y-77787003D01*
X101820601Y-77990076D01*
X101820602Y-77990082D01*
X101876416Y-78186244D01*
X101876418Y-78186250D01*
X101967327Y-78368821D01*
X101967328Y-78368822D01*
X101967329Y-78368824D01*
X102010359Y-78425805D01*
X102025209Y-78474197D01*
X102005478Y-78520812D01*
X101960400Y-78543839D01*
X101951306Y-78544400D01*
X89847716Y-78544400D01*
X89800150Y-78527087D01*
X89774840Y-78483250D01*
X89783630Y-78433400D01*
X89822407Y-78400863D01*
X89830007Y-78398550D01*
X89835424Y-78397214D01*
X89910965Y-78378596D01*
X90050840Y-78305183D01*
X90169083Y-78200430D01*
X90258820Y-78070423D01*
X90314837Y-77922718D01*
X90321888Y-77864642D01*
X90333878Y-77765903D01*
X90333878Y-77765898D01*
X90332425Y-77753934D01*
X90343877Y-77704628D01*
X90353554Y-77692692D01*
X92799243Y-75247003D01*
X101801785Y-75247003D01*
X101820601Y-75450076D01*
X101820602Y-75450082D01*
X101875769Y-75643970D01*
X101876418Y-75646250D01*
X101967327Y-75828821D01*
X101967328Y-75828822D01*
X101967329Y-75828825D01*
X102090234Y-75991578D01*
X102090235Y-75991579D01*
X102227637Y-76116836D01*
X102240959Y-76128981D01*
X102414363Y-76236348D01*
X102604544Y-76310024D01*
X102805024Y-76347500D01*
X102805026Y-76347500D01*
X103008974Y-76347500D01*
X103008976Y-76347500D01*
X103209456Y-76310024D01*
X103399637Y-76236348D01*
X103573041Y-76128981D01*
X103723764Y-75991579D01*
X103846673Y-75828821D01*
X103937582Y-75646250D01*
X103993397Y-75450083D01*
X103994564Y-75437496D01*
X104012215Y-75247003D01*
X110761785Y-75247003D01*
X110780601Y-75450076D01*
X110780602Y-75450082D01*
X110835769Y-75643970D01*
X110836418Y-75646250D01*
X110927327Y-75828821D01*
X110927328Y-75828822D01*
X110927329Y-75828825D01*
X111050234Y-75991578D01*
X111050235Y-75991579D01*
X111187637Y-76116836D01*
X111200959Y-76128981D01*
X111374363Y-76236348D01*
X111564544Y-76310024D01*
X111765024Y-76347500D01*
X111765026Y-76347500D01*
X111968974Y-76347500D01*
X111968976Y-76347500D01*
X112169456Y-76310024D01*
X112359637Y-76236348D01*
X112533041Y-76128981D01*
X112683764Y-75991579D01*
X112806673Y-75828821D01*
X112897582Y-75646250D01*
X112953397Y-75450083D01*
X112954564Y-75437496D01*
X112972215Y-75247003D01*
X126001785Y-75247003D01*
X126020601Y-75450076D01*
X126020602Y-75450082D01*
X126075769Y-75643970D01*
X126076418Y-75646250D01*
X126167327Y-75828821D01*
X126167328Y-75828822D01*
X126167329Y-75828825D01*
X126290234Y-75991578D01*
X126290235Y-75991579D01*
X126427637Y-76116836D01*
X126440959Y-76128981D01*
X126614363Y-76236348D01*
X126804544Y-76310024D01*
X127005024Y-76347500D01*
X127005026Y-76347500D01*
X127208974Y-76347500D01*
X127208976Y-76347500D01*
X127409456Y-76310024D01*
X127599637Y-76236348D01*
X127773041Y-76128981D01*
X127923764Y-75991579D01*
X128046673Y-75828821D01*
X128137582Y-75646250D01*
X128193397Y-75450083D01*
X128194564Y-75437496D01*
X128212215Y-75247003D01*
X128212215Y-75246996D01*
X128193398Y-75043923D01*
X128193397Y-75043917D01*
X128175668Y-74981608D01*
X128137582Y-74847750D01*
X128046673Y-74665179D01*
X128046670Y-74665175D01*
X128046670Y-74665174D01*
X127923765Y-74502421D01*
X127923764Y-74502420D01*
X127773041Y-74365019D01*
X127599637Y-74257652D01*
X127409456Y-74183976D01*
X127321407Y-74167516D01*
X127208979Y-74146500D01*
X127208976Y-74146500D01*
X127005024Y-74146500D01*
X127005020Y-74146500D01*
X126855116Y-74174522D01*
X126804544Y-74183976D01*
X126804542Y-74183976D01*
X126804540Y-74183977D01*
X126614368Y-74257650D01*
X126614363Y-74257652D01*
X126614358Y-74257654D01*
X126614358Y-74257655D01*
X126440958Y-74365019D01*
X126440957Y-74365019D01*
X126290235Y-74502420D01*
X126290234Y-74502421D01*
X126167329Y-74665174D01*
X126167328Y-74665177D01*
X126076418Y-74847750D01*
X126076416Y-74847755D01*
X126020602Y-75043917D01*
X126020601Y-75043923D01*
X126001785Y-75246996D01*
X126001785Y-75247003D01*
X112972215Y-75247003D01*
X112972215Y-75246996D01*
X112953398Y-75043923D01*
X112953397Y-75043917D01*
X112935668Y-74981608D01*
X112897582Y-74847750D01*
X112806673Y-74665179D01*
X112806670Y-74665175D01*
X112806670Y-74665174D01*
X112683765Y-74502421D01*
X112683764Y-74502420D01*
X112533041Y-74365019D01*
X112359637Y-74257652D01*
X112169456Y-74183976D01*
X112081407Y-74167516D01*
X111968979Y-74146500D01*
X111968976Y-74146500D01*
X111765024Y-74146500D01*
X111765020Y-74146500D01*
X111615116Y-74174522D01*
X111564544Y-74183976D01*
X111564542Y-74183976D01*
X111564540Y-74183977D01*
X111374368Y-74257650D01*
X111374363Y-74257652D01*
X111374358Y-74257654D01*
X111374358Y-74257655D01*
X111200958Y-74365019D01*
X111200957Y-74365019D01*
X111050235Y-74502420D01*
X111050234Y-74502421D01*
X110927329Y-74665174D01*
X110927328Y-74665177D01*
X110836418Y-74847750D01*
X110836416Y-74847755D01*
X110780602Y-75043917D01*
X110780601Y-75043923D01*
X110761785Y-75246996D01*
X110761785Y-75247003D01*
X104012215Y-75247003D01*
X104012215Y-75246996D01*
X103993398Y-75043923D01*
X103993397Y-75043917D01*
X103975668Y-74981608D01*
X103937582Y-74847750D01*
X103846673Y-74665179D01*
X103846670Y-74665175D01*
X103846670Y-74665174D01*
X103723765Y-74502421D01*
X103723764Y-74502420D01*
X103573041Y-74365019D01*
X103399637Y-74257652D01*
X103209456Y-74183976D01*
X103121407Y-74167516D01*
X103008979Y-74146500D01*
X103008976Y-74146500D01*
X102805024Y-74146500D01*
X102805020Y-74146500D01*
X102655116Y-74174522D01*
X102604544Y-74183976D01*
X102604542Y-74183976D01*
X102604540Y-74183977D01*
X102414368Y-74257650D01*
X102414363Y-74257652D01*
X102414358Y-74257654D01*
X102414358Y-74257655D01*
X102240958Y-74365019D01*
X102240957Y-74365019D01*
X102090235Y-74502420D01*
X102090234Y-74502421D01*
X101967329Y-74665174D01*
X101967328Y-74665177D01*
X101876418Y-74847750D01*
X101876416Y-74847755D01*
X101820602Y-75043917D01*
X101820601Y-75043923D01*
X101801785Y-75246996D01*
X101801785Y-75247003D01*
X92799243Y-75247003D01*
X95339244Y-72707003D01*
X101801785Y-72707003D01*
X101820601Y-72910076D01*
X101820602Y-72910082D01*
X101875769Y-73103970D01*
X101876418Y-73106250D01*
X101967327Y-73288821D01*
X101967328Y-73288822D01*
X101967329Y-73288825D01*
X102090234Y-73451578D01*
X102090235Y-73451579D01*
X102179861Y-73533283D01*
X102240959Y-73588981D01*
X102414363Y-73696348D01*
X102604544Y-73770024D01*
X102805024Y-73807500D01*
X102805026Y-73807500D01*
X103008974Y-73807500D01*
X103008976Y-73807500D01*
X103209456Y-73770024D01*
X103399637Y-73696348D01*
X103573041Y-73588981D01*
X103723764Y-73451579D01*
X103745107Y-73423317D01*
X103846670Y-73288825D01*
X103846670Y-73288824D01*
X103846673Y-73288821D01*
X103937582Y-73106250D01*
X103993397Y-72910083D01*
X104000152Y-72837191D01*
X104012215Y-72707003D01*
X110761785Y-72707003D01*
X110780601Y-72910076D01*
X110780602Y-72910082D01*
X110835769Y-73103970D01*
X110836418Y-73106250D01*
X110927327Y-73288821D01*
X110927328Y-73288822D01*
X110927329Y-73288825D01*
X111050234Y-73451578D01*
X111050235Y-73451579D01*
X111139861Y-73533283D01*
X111200959Y-73588981D01*
X111374363Y-73696348D01*
X111564544Y-73770024D01*
X111765024Y-73807500D01*
X111765026Y-73807500D01*
X111968974Y-73807500D01*
X111968976Y-73807500D01*
X112169456Y-73770024D01*
X112359637Y-73696348D01*
X112533041Y-73588981D01*
X112683764Y-73451579D01*
X112705107Y-73423317D01*
X112806670Y-73288825D01*
X112806670Y-73288824D01*
X112806673Y-73288821D01*
X112897582Y-73106250D01*
X112953397Y-72910083D01*
X112960152Y-72837191D01*
X112972215Y-72707003D01*
X126001785Y-72707003D01*
X126020601Y-72910076D01*
X126020602Y-72910082D01*
X126075769Y-73103970D01*
X126076418Y-73106250D01*
X126167327Y-73288821D01*
X126167328Y-73288822D01*
X126167329Y-73288825D01*
X126290234Y-73451578D01*
X126290235Y-73451579D01*
X126379861Y-73533283D01*
X126440959Y-73588981D01*
X126614363Y-73696348D01*
X126804544Y-73770024D01*
X127005024Y-73807500D01*
X127005026Y-73807500D01*
X127208974Y-73807500D01*
X127208976Y-73807500D01*
X127409456Y-73770024D01*
X127599637Y-73696348D01*
X127773041Y-73588981D01*
X127923764Y-73451579D01*
X127945107Y-73423317D01*
X128046670Y-73288825D01*
X128046670Y-73288824D01*
X128046673Y-73288821D01*
X128137582Y-73106250D01*
X128193397Y-72910083D01*
X128200152Y-72837191D01*
X128212215Y-72707003D01*
X128212215Y-72706996D01*
X128193398Y-72503923D01*
X128193397Y-72503917D01*
X128146679Y-72339722D01*
X128137582Y-72307750D01*
X128046673Y-72125179D01*
X128046670Y-72125175D01*
X128046670Y-72125174D01*
X127923765Y-71962421D01*
X127923764Y-71962420D01*
X127773041Y-71825019D01*
X127709910Y-71785930D01*
X127599637Y-71717652D01*
X127445086Y-71657779D01*
X127409459Y-71643977D01*
X127409458Y-71643976D01*
X127409456Y-71643976D01*
X127321407Y-71627516D01*
X127208979Y-71606500D01*
X127208976Y-71606500D01*
X127005024Y-71606500D01*
X127005020Y-71606500D01*
X126855116Y-71634522D01*
X126804544Y-71643976D01*
X126804542Y-71643976D01*
X126804540Y-71643977D01*
X126633857Y-71710100D01*
X126614363Y-71717652D01*
X126614358Y-71717654D01*
X126614358Y-71717655D01*
X126440958Y-71825019D01*
X126440957Y-71825019D01*
X126290235Y-71962420D01*
X126290234Y-71962421D01*
X126167329Y-72125174D01*
X126167328Y-72125177D01*
X126076418Y-72307750D01*
X126076416Y-72307755D01*
X126020602Y-72503917D01*
X126020601Y-72503923D01*
X126001785Y-72706996D01*
X126001785Y-72707003D01*
X112972215Y-72707003D01*
X112972215Y-72706996D01*
X112953398Y-72503923D01*
X112953397Y-72503917D01*
X112906679Y-72339722D01*
X112897582Y-72307750D01*
X112806673Y-72125179D01*
X112806670Y-72125175D01*
X112806670Y-72125174D01*
X112683765Y-71962421D01*
X112683764Y-71962420D01*
X112533041Y-71825019D01*
X112469910Y-71785930D01*
X112359637Y-71717652D01*
X112205086Y-71657779D01*
X112169459Y-71643977D01*
X112169458Y-71643976D01*
X112169456Y-71643976D01*
X112081407Y-71627516D01*
X111968979Y-71606500D01*
X111968976Y-71606500D01*
X111765024Y-71606500D01*
X111765020Y-71606500D01*
X111615116Y-71634522D01*
X111564544Y-71643976D01*
X111564542Y-71643976D01*
X111564540Y-71643977D01*
X111393857Y-71710100D01*
X111374363Y-71717652D01*
X111374358Y-71717654D01*
X111374358Y-71717655D01*
X111200958Y-71825019D01*
X111200957Y-71825019D01*
X111050235Y-71962420D01*
X111050234Y-71962421D01*
X110927329Y-72125174D01*
X110927328Y-72125177D01*
X110836418Y-72307750D01*
X110836416Y-72307755D01*
X110780602Y-72503917D01*
X110780601Y-72503923D01*
X110761785Y-72706996D01*
X110761785Y-72707003D01*
X104012215Y-72707003D01*
X104012215Y-72706996D01*
X103993398Y-72503923D01*
X103993397Y-72503917D01*
X103946679Y-72339722D01*
X103937582Y-72307750D01*
X103846673Y-72125179D01*
X103846670Y-72125175D01*
X103846670Y-72125174D01*
X103723765Y-71962421D01*
X103723764Y-71962420D01*
X103573041Y-71825019D01*
X103509910Y-71785930D01*
X103399637Y-71717652D01*
X103245086Y-71657779D01*
X103209459Y-71643977D01*
X103209458Y-71643976D01*
X103209456Y-71643976D01*
X103121407Y-71627516D01*
X103008979Y-71606500D01*
X103008976Y-71606500D01*
X102805024Y-71606500D01*
X102805020Y-71606500D01*
X102655116Y-71634522D01*
X102604544Y-71643976D01*
X102604542Y-71643976D01*
X102604540Y-71643977D01*
X102433857Y-71710100D01*
X102414363Y-71717652D01*
X102414358Y-71717654D01*
X102414358Y-71717655D01*
X102240958Y-71825019D01*
X102240957Y-71825019D01*
X102090235Y-71962420D01*
X102090234Y-71962421D01*
X101967329Y-72125174D01*
X101967328Y-72125177D01*
X101876418Y-72307750D01*
X101876416Y-72307755D01*
X101820602Y-72503917D01*
X101820601Y-72503923D01*
X101801785Y-72706996D01*
X101801785Y-72707003D01*
X95339244Y-72707003D01*
X97879244Y-70167003D01*
X101801785Y-70167003D01*
X101820601Y-70370076D01*
X101820602Y-70370082D01*
X101872782Y-70553471D01*
X101876418Y-70566250D01*
X101967327Y-70748821D01*
X101967328Y-70748822D01*
X101967329Y-70748825D01*
X102090234Y-70911578D01*
X102090235Y-70911579D01*
X102140612Y-70957503D01*
X102240959Y-71048981D01*
X102414363Y-71156348D01*
X102604544Y-71230024D01*
X102805024Y-71267500D01*
X102805026Y-71267500D01*
X103008974Y-71267500D01*
X103008976Y-71267500D01*
X103209456Y-71230024D01*
X103399637Y-71156348D01*
X103573041Y-71048981D01*
X103723764Y-70911579D01*
X103730401Y-70902791D01*
X103846670Y-70748825D01*
X103846670Y-70748824D01*
X103846673Y-70748821D01*
X103937582Y-70566250D01*
X103993397Y-70370083D01*
X104001280Y-70285018D01*
X104012215Y-70167003D01*
X110761785Y-70167003D01*
X110780601Y-70370076D01*
X110780602Y-70370082D01*
X110832782Y-70553471D01*
X110836418Y-70566250D01*
X110927327Y-70748821D01*
X110927328Y-70748822D01*
X110927329Y-70748825D01*
X111050234Y-70911578D01*
X111050235Y-70911579D01*
X111100612Y-70957503D01*
X111200959Y-71048981D01*
X111374363Y-71156348D01*
X111564544Y-71230024D01*
X111765024Y-71267500D01*
X111765026Y-71267500D01*
X111968974Y-71267500D01*
X111968976Y-71267500D01*
X112169456Y-71230024D01*
X112359637Y-71156348D01*
X112533041Y-71048981D01*
X112683764Y-70911579D01*
X112690401Y-70902791D01*
X112806670Y-70748825D01*
X112806670Y-70748824D01*
X112806673Y-70748821D01*
X112897582Y-70566250D01*
X112953397Y-70370083D01*
X112961280Y-70285018D01*
X112972215Y-70167003D01*
X126001785Y-70167003D01*
X126020601Y-70370076D01*
X126020602Y-70370082D01*
X126072782Y-70553471D01*
X126076418Y-70566250D01*
X126167327Y-70748821D01*
X126167328Y-70748822D01*
X126167329Y-70748825D01*
X126290234Y-70911578D01*
X126290235Y-70911579D01*
X126340612Y-70957503D01*
X126440959Y-71048981D01*
X126614363Y-71156348D01*
X126804544Y-71230024D01*
X127005024Y-71267500D01*
X127005026Y-71267500D01*
X127208974Y-71267500D01*
X127208976Y-71267500D01*
X127409456Y-71230024D01*
X127599637Y-71156348D01*
X127773041Y-71048981D01*
X127923764Y-70911579D01*
X127930401Y-70902791D01*
X128046670Y-70748825D01*
X128046670Y-70748824D01*
X128046673Y-70748821D01*
X128137582Y-70566250D01*
X128193397Y-70370083D01*
X128201280Y-70285018D01*
X128212215Y-70167003D01*
X128212215Y-70166996D01*
X128193398Y-69963923D01*
X128193397Y-69963917D01*
X128148386Y-69805723D01*
X128137582Y-69767750D01*
X128046673Y-69585179D01*
X128046670Y-69585175D01*
X128046670Y-69585174D01*
X127923765Y-69422421D01*
X127923764Y-69422420D01*
X127773041Y-69285019D01*
X127763927Y-69279376D01*
X127599637Y-69177652D01*
X127409456Y-69103976D01*
X127321407Y-69087516D01*
X127208979Y-69066500D01*
X127208976Y-69066500D01*
X127005024Y-69066500D01*
X127005020Y-69066500D01*
X126855116Y-69094522D01*
X126804544Y-69103976D01*
X126804542Y-69103976D01*
X126804540Y-69103977D01*
X126614368Y-69177650D01*
X126614363Y-69177652D01*
X126614358Y-69177654D01*
X126614358Y-69177655D01*
X126440958Y-69285019D01*
X126440957Y-69285019D01*
X126290235Y-69422420D01*
X126290234Y-69422421D01*
X126167329Y-69585174D01*
X126167328Y-69585177D01*
X126076418Y-69767750D01*
X126076416Y-69767755D01*
X126020602Y-69963917D01*
X126020601Y-69963923D01*
X126001785Y-70166996D01*
X126001785Y-70167003D01*
X112972215Y-70167003D01*
X112972215Y-70166996D01*
X112953398Y-69963923D01*
X112953397Y-69963917D01*
X112908386Y-69805723D01*
X112897582Y-69767750D01*
X112806673Y-69585179D01*
X112806670Y-69585175D01*
X112806670Y-69585174D01*
X112683765Y-69422421D01*
X112683764Y-69422420D01*
X112533041Y-69285019D01*
X112523927Y-69279376D01*
X112359637Y-69177652D01*
X112169456Y-69103976D01*
X112081407Y-69087516D01*
X111968979Y-69066500D01*
X111968976Y-69066500D01*
X111765024Y-69066500D01*
X111765020Y-69066500D01*
X111615116Y-69094522D01*
X111564544Y-69103976D01*
X111564542Y-69103976D01*
X111564540Y-69103977D01*
X111374368Y-69177650D01*
X111374363Y-69177652D01*
X111374358Y-69177654D01*
X111374358Y-69177655D01*
X111200958Y-69285019D01*
X111200957Y-69285019D01*
X111050235Y-69422420D01*
X111050234Y-69422421D01*
X110927329Y-69585174D01*
X110927328Y-69585177D01*
X110836418Y-69767750D01*
X110836416Y-69767755D01*
X110780602Y-69963917D01*
X110780601Y-69963923D01*
X110761785Y-70166996D01*
X110761785Y-70167003D01*
X104012215Y-70167003D01*
X104012215Y-70166996D01*
X103993398Y-69963923D01*
X103993397Y-69963917D01*
X103948386Y-69805723D01*
X103937582Y-69767750D01*
X103846673Y-69585179D01*
X103846670Y-69585175D01*
X103846670Y-69585174D01*
X103723765Y-69422421D01*
X103723764Y-69422420D01*
X103573041Y-69285019D01*
X103563927Y-69279376D01*
X103399637Y-69177652D01*
X103209456Y-69103976D01*
X103121407Y-69087516D01*
X103008979Y-69066500D01*
X103008976Y-69066500D01*
X102805024Y-69066500D01*
X102805020Y-69066500D01*
X102655116Y-69094522D01*
X102604544Y-69103976D01*
X102604542Y-69103976D01*
X102604540Y-69103977D01*
X102414368Y-69177650D01*
X102414363Y-69177652D01*
X102414358Y-69177654D01*
X102414358Y-69177655D01*
X102240958Y-69285019D01*
X102240957Y-69285019D01*
X102090235Y-69422420D01*
X102090234Y-69422421D01*
X101967329Y-69585174D01*
X101967328Y-69585177D01*
X101876418Y-69767750D01*
X101876416Y-69767755D01*
X101820602Y-69963917D01*
X101820601Y-69963923D01*
X101801785Y-70166996D01*
X101801785Y-70167003D01*
X97879244Y-70167003D01*
X100419245Y-67627003D01*
X101801785Y-67627003D01*
X101820601Y-67830076D01*
X101820602Y-67830082D01*
X101876347Y-68026000D01*
X101876418Y-68026250D01*
X101967327Y-68208821D01*
X101967328Y-68208822D01*
X101967329Y-68208825D01*
X102090234Y-68371578D01*
X102090235Y-68371579D01*
X102200148Y-68471777D01*
X102240959Y-68508981D01*
X102414363Y-68616348D01*
X102604544Y-68690024D01*
X102805024Y-68727500D01*
X102805026Y-68727500D01*
X103008974Y-68727500D01*
X103008976Y-68727500D01*
X103209456Y-68690024D01*
X103399637Y-68616348D01*
X103573041Y-68508981D01*
X103723764Y-68371579D01*
X103811538Y-68255348D01*
X103846670Y-68208825D01*
X103846670Y-68208824D01*
X103846673Y-68208821D01*
X103937582Y-68026250D01*
X103993397Y-67830083D01*
X103994368Y-67819610D01*
X104012215Y-67627003D01*
X110761785Y-67627003D01*
X110780601Y-67830076D01*
X110780602Y-67830082D01*
X110836347Y-68026000D01*
X110836418Y-68026250D01*
X110927327Y-68208821D01*
X110927328Y-68208822D01*
X110927329Y-68208825D01*
X111050234Y-68371578D01*
X111050235Y-68371579D01*
X111160148Y-68471777D01*
X111200959Y-68508981D01*
X111374363Y-68616348D01*
X111564544Y-68690024D01*
X111765024Y-68727500D01*
X111765026Y-68727500D01*
X111968974Y-68727500D01*
X111968976Y-68727500D01*
X112169456Y-68690024D01*
X112359637Y-68616348D01*
X112533041Y-68508981D01*
X112683764Y-68371579D01*
X112771538Y-68255348D01*
X112806670Y-68208825D01*
X112806670Y-68208824D01*
X112806673Y-68208821D01*
X112897582Y-68026250D01*
X112953397Y-67830083D01*
X112954368Y-67819610D01*
X112972215Y-67627003D01*
X126001785Y-67627003D01*
X126020601Y-67830076D01*
X126020602Y-67830082D01*
X126076347Y-68026000D01*
X126076418Y-68026250D01*
X126167327Y-68208821D01*
X126167328Y-68208822D01*
X126167329Y-68208825D01*
X126290234Y-68371578D01*
X126290235Y-68371579D01*
X126400148Y-68471777D01*
X126440959Y-68508981D01*
X126614363Y-68616348D01*
X126804544Y-68690024D01*
X127005024Y-68727500D01*
X127005026Y-68727500D01*
X127208974Y-68727500D01*
X127208976Y-68727500D01*
X127409456Y-68690024D01*
X127599637Y-68616348D01*
X127773041Y-68508981D01*
X127923764Y-68371579D01*
X128011538Y-68255348D01*
X128046670Y-68208825D01*
X128046670Y-68208824D01*
X128046673Y-68208821D01*
X128137582Y-68026250D01*
X128193397Y-67830083D01*
X128194368Y-67819610D01*
X128212215Y-67627003D01*
X128212215Y-67626996D01*
X128193398Y-67423923D01*
X128193397Y-67423917D01*
X128175773Y-67361975D01*
X128137582Y-67227750D01*
X128046673Y-67045179D01*
X128046670Y-67045175D01*
X128046670Y-67045174D01*
X127923765Y-66882421D01*
X127923764Y-66882420D01*
X127773041Y-66745019D01*
X127740709Y-66725000D01*
X127599637Y-66637652D01*
X127409456Y-66563976D01*
X127321407Y-66547516D01*
X127208979Y-66526500D01*
X127208976Y-66526500D01*
X127005024Y-66526500D01*
X127005020Y-66526500D01*
X126855116Y-66554522D01*
X126804544Y-66563976D01*
X126804542Y-66563976D01*
X126804540Y-66563977D01*
X126618524Y-66636040D01*
X126614363Y-66637652D01*
X126614358Y-66637654D01*
X126614358Y-66637655D01*
X126440958Y-66745019D01*
X126440957Y-66745019D01*
X126290235Y-66882420D01*
X126290234Y-66882421D01*
X126167329Y-67045174D01*
X126167328Y-67045177D01*
X126076418Y-67227750D01*
X126076416Y-67227755D01*
X126020602Y-67423917D01*
X126020601Y-67423923D01*
X126001785Y-67626996D01*
X126001785Y-67627003D01*
X112972215Y-67627003D01*
X112972215Y-67626996D01*
X112953398Y-67423923D01*
X112953397Y-67423917D01*
X112935773Y-67361975D01*
X112897582Y-67227750D01*
X112806673Y-67045179D01*
X112806670Y-67045175D01*
X112806670Y-67045174D01*
X112683765Y-66882421D01*
X112683764Y-66882420D01*
X112533041Y-66745019D01*
X112500709Y-66725000D01*
X112359637Y-66637652D01*
X112169456Y-66563976D01*
X112081407Y-66547516D01*
X111968979Y-66526500D01*
X111968976Y-66526500D01*
X111765024Y-66526500D01*
X111765020Y-66526500D01*
X111615116Y-66554522D01*
X111564544Y-66563976D01*
X111564542Y-66563976D01*
X111564540Y-66563977D01*
X111378524Y-66636040D01*
X111374363Y-66637652D01*
X111374358Y-66637654D01*
X111374358Y-66637655D01*
X111200958Y-66745019D01*
X111200957Y-66745019D01*
X111050235Y-66882420D01*
X111050234Y-66882421D01*
X110927329Y-67045174D01*
X110927328Y-67045177D01*
X110836418Y-67227750D01*
X110836416Y-67227755D01*
X110780602Y-67423917D01*
X110780601Y-67423923D01*
X110761785Y-67626996D01*
X110761785Y-67627003D01*
X104012215Y-67627003D01*
X104012215Y-67626996D01*
X103993398Y-67423923D01*
X103993397Y-67423917D01*
X103975773Y-67361975D01*
X103937582Y-67227750D01*
X103846673Y-67045179D01*
X103846670Y-67045175D01*
X103846670Y-67045174D01*
X103723765Y-66882421D01*
X103723764Y-66882420D01*
X103573041Y-66745019D01*
X103540709Y-66725000D01*
X103399637Y-66637652D01*
X103209456Y-66563976D01*
X103121407Y-66547516D01*
X103008979Y-66526500D01*
X103008976Y-66526500D01*
X102805024Y-66526500D01*
X102805020Y-66526500D01*
X102655116Y-66554522D01*
X102604544Y-66563976D01*
X102604542Y-66563976D01*
X102604540Y-66563977D01*
X102418524Y-66636040D01*
X102414363Y-66637652D01*
X102414358Y-66637654D01*
X102414358Y-66637655D01*
X102240958Y-66745019D01*
X102240957Y-66745019D01*
X102090235Y-66882420D01*
X102090234Y-66882421D01*
X101967329Y-67045174D01*
X101967328Y-67045177D01*
X101876418Y-67227750D01*
X101876416Y-67227755D01*
X101820602Y-67423917D01*
X101820601Y-67423923D01*
X101801785Y-67626996D01*
X101801785Y-67627003D01*
X100419245Y-67627003D01*
X102104653Y-65941595D01*
X102105330Y-65940917D01*
X102151191Y-65919493D01*
X102200094Y-65932560D01*
X102207546Y-65938521D01*
X102240957Y-65968980D01*
X102240959Y-65968981D01*
X102414363Y-66076348D01*
X102604544Y-66150024D01*
X102805024Y-66187500D01*
X102805026Y-66187500D01*
X103008974Y-66187500D01*
X103008976Y-66187500D01*
X103209456Y-66150024D01*
X103399637Y-66076348D01*
X103573041Y-65968981D01*
X103723764Y-65831579D01*
X103727529Y-65826594D01*
X103846670Y-65668825D01*
X103846670Y-65668824D01*
X103846673Y-65668821D01*
X103937582Y-65486250D01*
X103993397Y-65290083D01*
X103996544Y-65256129D01*
X104012215Y-65087003D01*
X110761785Y-65087003D01*
X110780601Y-65290076D01*
X110780602Y-65290082D01*
X110836416Y-65486244D01*
X110836418Y-65486250D01*
X110927327Y-65668821D01*
X110927328Y-65668822D01*
X110927329Y-65668825D01*
X111050234Y-65831578D01*
X111050235Y-65831579D01*
X111146673Y-65919493D01*
X111200959Y-65968981D01*
X111374363Y-66076348D01*
X111564544Y-66150024D01*
X111765024Y-66187500D01*
X111765026Y-66187500D01*
X111968974Y-66187500D01*
X111968976Y-66187500D01*
X112169456Y-66150024D01*
X112359637Y-66076348D01*
X112533041Y-65968981D01*
X112683764Y-65831579D01*
X112687529Y-65826594D01*
X112806670Y-65668825D01*
X112806670Y-65668824D01*
X112806673Y-65668821D01*
X112897582Y-65486250D01*
X112953397Y-65290083D01*
X112956544Y-65256129D01*
X112972215Y-65087003D01*
X126001785Y-65087003D01*
X126020601Y-65290076D01*
X126020602Y-65290082D01*
X126076416Y-65486244D01*
X126076418Y-65486250D01*
X126167327Y-65668821D01*
X126167328Y-65668822D01*
X126167329Y-65668825D01*
X126290234Y-65831578D01*
X126290235Y-65831579D01*
X126386673Y-65919493D01*
X126440959Y-65968981D01*
X126614363Y-66076348D01*
X126804544Y-66150024D01*
X127005024Y-66187500D01*
X127005026Y-66187500D01*
X127208974Y-66187500D01*
X127208976Y-66187500D01*
X127409456Y-66150024D01*
X127599637Y-66076348D01*
X127773041Y-65968981D01*
X127923764Y-65831579D01*
X127927529Y-65826594D01*
X128046670Y-65668825D01*
X128046670Y-65668824D01*
X128046673Y-65668821D01*
X128137582Y-65486250D01*
X128193397Y-65290083D01*
X128196544Y-65256129D01*
X128212215Y-65087003D01*
X128212215Y-65086996D01*
X128193398Y-64883923D01*
X128193397Y-64883917D01*
X128180728Y-64839391D01*
X128137582Y-64687750D01*
X128046673Y-64505179D01*
X128046670Y-64505175D01*
X128046670Y-64505174D01*
X127923765Y-64342421D01*
X127923764Y-64342420D01*
X127773041Y-64205019D01*
X127695200Y-64156822D01*
X127599637Y-64097652D01*
X127409456Y-64023976D01*
X127321407Y-64007516D01*
X127208979Y-63986500D01*
X127208976Y-63986500D01*
X127005024Y-63986500D01*
X127005020Y-63986500D01*
X126855116Y-64014522D01*
X126804544Y-64023976D01*
X126804542Y-64023976D01*
X126804540Y-64023977D01*
X126614368Y-64097650D01*
X126614363Y-64097652D01*
X126614358Y-64097654D01*
X126614358Y-64097655D01*
X126440958Y-64205019D01*
X126440957Y-64205019D01*
X126290235Y-64342420D01*
X126290234Y-64342421D01*
X126167329Y-64505174D01*
X126167328Y-64505177D01*
X126076418Y-64687750D01*
X126076416Y-64687755D01*
X126020602Y-64883917D01*
X126020601Y-64883923D01*
X126001785Y-65086996D01*
X126001785Y-65087003D01*
X112972215Y-65087003D01*
X112972215Y-65086996D01*
X112953398Y-64883923D01*
X112953397Y-64883917D01*
X112940728Y-64839391D01*
X112897582Y-64687750D01*
X112806673Y-64505179D01*
X112806670Y-64505175D01*
X112806670Y-64505174D01*
X112683765Y-64342421D01*
X112683764Y-64342420D01*
X112533041Y-64205019D01*
X112455200Y-64156822D01*
X112359637Y-64097652D01*
X112169456Y-64023976D01*
X112081407Y-64007516D01*
X111968979Y-63986500D01*
X111968976Y-63986500D01*
X111765024Y-63986500D01*
X111765020Y-63986500D01*
X111615116Y-64014522D01*
X111564544Y-64023976D01*
X111564542Y-64023976D01*
X111564540Y-64023977D01*
X111374368Y-64097650D01*
X111374363Y-64097652D01*
X111374358Y-64097654D01*
X111374358Y-64097655D01*
X111200958Y-64205019D01*
X111200957Y-64205019D01*
X111050235Y-64342420D01*
X111050234Y-64342421D01*
X110927329Y-64505174D01*
X110927328Y-64505177D01*
X110836418Y-64687750D01*
X110836416Y-64687755D01*
X110780602Y-64883917D01*
X110780601Y-64883923D01*
X110761785Y-65086996D01*
X110761785Y-65087003D01*
X104012215Y-65087003D01*
X104012215Y-65086996D01*
X103993398Y-64883923D01*
X103993397Y-64883917D01*
X103980728Y-64839391D01*
X103937582Y-64687750D01*
X103846673Y-64505179D01*
X103846670Y-64505175D01*
X103846670Y-64505174D01*
X103723765Y-64342421D01*
X103723764Y-64342420D01*
X103573041Y-64205019D01*
X103495200Y-64156822D01*
X103399637Y-64097652D01*
X103209456Y-64023976D01*
X103121407Y-64007516D01*
X103008979Y-63986500D01*
X103008976Y-63986500D01*
X102805024Y-63986500D01*
X102805020Y-63986500D01*
X102655116Y-64014522D01*
X102604544Y-64023976D01*
X102604542Y-64023976D01*
X102604540Y-64023977D01*
X102414368Y-64097650D01*
X102414363Y-64097652D01*
X102414358Y-64097654D01*
X102414358Y-64097655D01*
X102240958Y-64205019D01*
X102240957Y-64205019D01*
X102090235Y-64342420D01*
X102090234Y-64342421D01*
X101967329Y-64505174D01*
X101967328Y-64505177D01*
X101909912Y-64620485D01*
X101873212Y-64655347D01*
X101843670Y-64661500D01*
X101819412Y-64661500D01*
X101807836Y-64660589D01*
X101780100Y-64656196D01*
X101746612Y-64661500D01*
X101646973Y-64677280D01*
X101646973Y-64677281D01*
X101526880Y-64738471D01*
X101431571Y-64833780D01*
X101370381Y-64953873D01*
X101370380Y-64953873D01*
X101349296Y-65086999D01*
X101349296Y-65087000D01*
X101353689Y-65114736D01*
X101354600Y-65126312D01*
X101354600Y-65457500D01*
X101337287Y-65505066D01*
X101332926Y-65509826D01*
X89749026Y-77093726D01*
X89703150Y-77115118D01*
X89696700Y-77115400D01*
X89599612Y-77115400D01*
X89446233Y-77153204D01*
X89306361Y-77226616D01*
X89188116Y-77331370D01*
X89098379Y-77461378D01*
X89098378Y-77461378D01*
X89042364Y-77609077D01*
X89042361Y-77609091D01*
X89023322Y-77765896D01*
X89023322Y-77765903D01*
X89042361Y-77922708D01*
X89042364Y-77922722D01*
X89098378Y-78070421D01*
X89178329Y-78186250D01*
X89188117Y-78200430D01*
X89306360Y-78305183D01*
X89446235Y-78378596D01*
X89519396Y-78396628D01*
X89527193Y-78398550D01*
X89569234Y-78426743D01*
X89583317Y-78475363D01*
X89562853Y-78521661D01*
X89517417Y-78543974D01*
X89509484Y-78544400D01*
X88622694Y-78544400D01*
X88575128Y-78527087D01*
X88549818Y-78483250D01*
X88558608Y-78433400D01*
X88563641Y-78425805D01*
X88599291Y-78378596D01*
X88606673Y-78368821D01*
X88697582Y-78186250D01*
X88753397Y-77990083D01*
X88769156Y-77820018D01*
X88772215Y-77787003D01*
X88772215Y-77786996D01*
X88753398Y-77583923D01*
X88753397Y-77583917D01*
X88730690Y-77504110D01*
X88697582Y-77387750D01*
X88606673Y-77205179D01*
X88606670Y-77205175D01*
X88606670Y-77205174D01*
X88483765Y-77042421D01*
X88483764Y-77042420D01*
X88333041Y-76905019D01*
X88330066Y-76903177D01*
X88159637Y-76797652D01*
X87969456Y-76723976D01*
X87881407Y-76707516D01*
X87768979Y-76686500D01*
X87768976Y-76686500D01*
X87565024Y-76686500D01*
X87565020Y-76686500D01*
X87415116Y-76714522D01*
X87364544Y-76723976D01*
X87364542Y-76723976D01*
X87364540Y-76723977D01*
X87283227Y-76755478D01*
X87174363Y-76797652D01*
X87174358Y-76797654D01*
X87174358Y-76797655D01*
X87000958Y-76905019D01*
X87000957Y-76905019D01*
X86850235Y-77042420D01*
X86850234Y-77042421D01*
X86727329Y-77205174D01*
X86727328Y-77205177D01*
X86636418Y-77387750D01*
X86636416Y-77387755D01*
X86580602Y-77583917D01*
X86580601Y-77583923D01*
X86561785Y-77786996D01*
X86561785Y-77787003D01*
X86580601Y-77990076D01*
X86580602Y-77990082D01*
X86636416Y-78186244D01*
X86636418Y-78186250D01*
X86727327Y-78368821D01*
X86727328Y-78368822D01*
X86727329Y-78368824D01*
X86770359Y-78425805D01*
X86785209Y-78474197D01*
X86765478Y-78520812D01*
X86720400Y-78543839D01*
X86711306Y-78544400D01*
X86551640Y-78544400D01*
X86504074Y-78527087D01*
X86502569Y-78525790D01*
X86395140Y-78430617D01*
X86368052Y-78416400D01*
X86255266Y-78357204D01*
X86101887Y-78319400D01*
X86101885Y-78319400D01*
X85943915Y-78319400D01*
X85943912Y-78319400D01*
X85790533Y-78357204D01*
X85650661Y-78430616D01*
X85532416Y-78535370D01*
X85442679Y-78665378D01*
X85442678Y-78665378D01*
X85386664Y-78813077D01*
X85386661Y-78813091D01*
X85367622Y-78969896D01*
X85367622Y-78969903D01*
X85386661Y-79126708D01*
X85386664Y-79126722D01*
X85442678Y-79274421D01*
X85532416Y-79404429D01*
X85532417Y-79404430D01*
X85650660Y-79509183D01*
X85778434Y-79576245D01*
X85790201Y-79582421D01*
X85790535Y-79582596D01*
X85943915Y-79620400D01*
X85943919Y-79620400D01*
X86101881Y-79620400D01*
X86101885Y-79620400D01*
X86255265Y-79582596D01*
X86395140Y-79509183D01*
X86502569Y-79414009D01*
X86549654Y-79395427D01*
X86551640Y-79395400D01*
X86864372Y-79395400D01*
X86911938Y-79412713D01*
X86937248Y-79456550D01*
X86928458Y-79506400D01*
X86914225Y-79524087D01*
X86850235Y-79582420D01*
X86850234Y-79582421D01*
X86727329Y-79745174D01*
X86727328Y-79745177D01*
X86727327Y-79745178D01*
X86727327Y-79745179D01*
X86671715Y-79856865D01*
X86669912Y-79860485D01*
X86633212Y-79895347D01*
X86603670Y-79901500D01*
X86579412Y-79901500D01*
X86567836Y-79900589D01*
X86540100Y-79896196D01*
X86506612Y-79901500D01*
X86406973Y-79917280D01*
X86406973Y-79917281D01*
X86286880Y-79978471D01*
X86191571Y-80073780D01*
X86130381Y-80193873D01*
X86130380Y-80193873D01*
X86109296Y-80326999D01*
X86109296Y-80327000D01*
X86113689Y-80354736D01*
X86114600Y-80366312D01*
X86114600Y-81247000D01*
X86097287Y-81294566D01*
X86092926Y-81299326D01*
X83652126Y-83740126D01*
X83606250Y-83761518D01*
X83599800Y-83761800D01*
X82286976Y-83761800D01*
X82239410Y-83744487D01*
X82214100Y-83700650D01*
X82222890Y-83650800D01*
X82226075Y-83645763D01*
X82233717Y-83634691D01*
X82238320Y-83628023D01*
X82244557Y-83611579D01*
X82256993Y-83578787D01*
X82294337Y-83480318D01*
X82313378Y-83323500D01*
X82311423Y-83307403D01*
X82294338Y-83166691D01*
X82294337Y-83166682D01*
X82257702Y-83070082D01*
X82238321Y-83018978D01*
X82148583Y-82888970D01*
X82096561Y-82842883D01*
X82030340Y-82784217D01*
X82018239Y-82777866D01*
X81890466Y-82710804D01*
X81737087Y-82673000D01*
X81737085Y-82673000D01*
X81579115Y-82673000D01*
X81579112Y-82673000D01*
X81425733Y-82710804D01*
X81285861Y-82784216D01*
X81167616Y-82888970D01*
X81077879Y-83018978D01*
X81077878Y-83018978D01*
X81021864Y-83166677D01*
X81021861Y-83166691D01*
X81002822Y-83323496D01*
X81002822Y-83323503D01*
X81021861Y-83480308D01*
X81021864Y-83480322D01*
X81077878Y-83628021D01*
X81090125Y-83645763D01*
X81102897Y-83694744D01*
X81081198Y-83740476D01*
X81035179Y-83761560D01*
X81029224Y-83761800D01*
X77316400Y-83761800D01*
X77268834Y-83744487D01*
X77264074Y-83740126D01*
X74771851Y-81247903D01*
X77164422Y-81247903D01*
X77183461Y-81404708D01*
X77183464Y-81404722D01*
X77239478Y-81552421D01*
X77306474Y-81649481D01*
X77329217Y-81682430D01*
X77447460Y-81787183D01*
X77587335Y-81860596D01*
X77740715Y-81898400D01*
X77740719Y-81898400D01*
X77898681Y-81898400D01*
X77898685Y-81898400D01*
X78052065Y-81860596D01*
X78191940Y-81787183D01*
X78310183Y-81682430D01*
X78399920Y-81552423D01*
X78455937Y-81404718D01*
X78466667Y-81316348D01*
X78474978Y-81247903D01*
X78474978Y-81247896D01*
X78455938Y-81091091D01*
X78455937Y-81091082D01*
X78432092Y-81028207D01*
X78399921Y-80943378D01*
X78310183Y-80813370D01*
X78287771Y-80793515D01*
X78191940Y-80708617D01*
X78128895Y-80675528D01*
X78052066Y-80635204D01*
X77898687Y-80597400D01*
X77898685Y-80597400D01*
X77740715Y-80597400D01*
X77740712Y-80597400D01*
X77587333Y-80635204D01*
X77447461Y-80708616D01*
X77329216Y-80813370D01*
X77239479Y-80943378D01*
X77239478Y-80943378D01*
X77183464Y-81091077D01*
X77183461Y-81091091D01*
X77164422Y-81247896D01*
X77164422Y-81247903D01*
X74771851Y-81247903D01*
X74664420Y-81140472D01*
X74639398Y-81127723D01*
X74629497Y-81121655D01*
X74606782Y-81105151D01*
X74592339Y-81100458D01*
X74580071Y-81096472D01*
X74569351Y-81092032D01*
X74544326Y-81079281D01*
X74544325Y-81079280D01*
X74544324Y-81079280D01*
X74516589Y-81074888D01*
X74505297Y-81072177D01*
X74478594Y-81063500D01*
X74478593Y-81063500D01*
X74444688Y-81063500D01*
X71372200Y-81063500D01*
X71324634Y-81046187D01*
X71299324Y-81002350D01*
X71308114Y-80952500D01*
X71323126Y-80934112D01*
X71416683Y-80851230D01*
X71506420Y-80721223D01*
X71510355Y-80710849D01*
X71525092Y-80671988D01*
X71562437Y-80573518D01*
X71581478Y-80416700D01*
X71573954Y-80354736D01*
X71562438Y-80259891D01*
X71562437Y-80259882D01*
X71537403Y-80193873D01*
X71506421Y-80112178D01*
X71416683Y-79982170D01*
X71355260Y-79927755D01*
X71298440Y-79877417D01*
X71259282Y-79856865D01*
X71158566Y-79804004D01*
X71005187Y-79766200D01*
X71005185Y-79766200D01*
X70847215Y-79766200D01*
X70847212Y-79766200D01*
X70693833Y-79804004D01*
X70553961Y-79877416D01*
X70435716Y-79982170D01*
X70345979Y-80112178D01*
X70345978Y-80112178D01*
X70289964Y-80259877D01*
X70289961Y-80259891D01*
X70270922Y-80416696D01*
X70270922Y-80416703D01*
X70289961Y-80573508D01*
X70289964Y-80573522D01*
X70345978Y-80721221D01*
X70379519Y-80769813D01*
X70435717Y-80851230D01*
X70529271Y-80934111D01*
X70553394Y-80978611D01*
X70543270Y-81028207D01*
X70503634Y-81059691D01*
X70480200Y-81063500D01*
X66696900Y-81063500D01*
X66649334Y-81046187D01*
X66644574Y-81041826D01*
X65245874Y-79643126D01*
X65224482Y-79597250D01*
X65224200Y-79590800D01*
X65224200Y-79000003D01*
X82844722Y-79000003D01*
X82863761Y-79156808D01*
X82863764Y-79156822D01*
X82919778Y-79304521D01*
X82994458Y-79412713D01*
X83009517Y-79434530D01*
X83127760Y-79539283D01*
X83267635Y-79612696D01*
X83421015Y-79650500D01*
X83421019Y-79650500D01*
X83578981Y-79650500D01*
X83578985Y-79650500D01*
X83732365Y-79612696D01*
X83872240Y-79539283D01*
X83990483Y-79434530D01*
X84080220Y-79304523D01*
X84136237Y-79156818D01*
X84155278Y-79000000D01*
X84151623Y-78969900D01*
X84137068Y-78850024D01*
X84136237Y-78843182D01*
X84110889Y-78776344D01*
X84080221Y-78695478D01*
X83990483Y-78565470D01*
X83976494Y-78553077D01*
X83872240Y-78460717D01*
X83860139Y-78454366D01*
X83732366Y-78387304D01*
X83578987Y-78349500D01*
X83578985Y-78349500D01*
X83421015Y-78349500D01*
X83421012Y-78349500D01*
X83267633Y-78387304D01*
X83127761Y-78460716D01*
X83009516Y-78565470D01*
X82919779Y-78695478D01*
X82919778Y-78695478D01*
X82863764Y-78843177D01*
X82863761Y-78843191D01*
X82844722Y-78999996D01*
X82844722Y-79000003D01*
X65224200Y-79000003D01*
X65224200Y-78373446D01*
X65241513Y-78325880D01*
X65280490Y-78301596D01*
X65384765Y-78275896D01*
X65524640Y-78202483D01*
X65642883Y-78097730D01*
X65732620Y-77967723D01*
X65788637Y-77820018D01*
X65807678Y-77663200D01*
X65801106Y-77609077D01*
X65788638Y-77506391D01*
X65788637Y-77506382D01*
X65769898Y-77456970D01*
X65732621Y-77358678D01*
X65642883Y-77228670D01*
X65616367Y-77205179D01*
X65524640Y-77123917D01*
X65461418Y-77090735D01*
X65384766Y-77050504D01*
X65231387Y-77012700D01*
X65231385Y-77012700D01*
X65073415Y-77012700D01*
X65073412Y-77012700D01*
X64920035Y-77050503D01*
X64856289Y-77083960D01*
X64806126Y-77090735D01*
X64763343Y-77063681D01*
X64747900Y-77018436D01*
X64747900Y-73962603D01*
X66939522Y-73962603D01*
X66958561Y-74119408D01*
X66958564Y-74119422D01*
X67014578Y-74267121D01*
X67099582Y-74390270D01*
X67104317Y-74397130D01*
X67222560Y-74501883D01*
X67362435Y-74575296D01*
X67515815Y-74613100D01*
X67515819Y-74613100D01*
X67673781Y-74613100D01*
X67673785Y-74613100D01*
X67827165Y-74575296D01*
X67967040Y-74501883D01*
X68074469Y-74406709D01*
X68121554Y-74388127D01*
X68123540Y-74388100D01*
X69610020Y-74388100D01*
X69657586Y-74405413D01*
X69682896Y-74449250D01*
X69674106Y-74499100D01*
X69670920Y-74504138D01*
X69659779Y-74520276D01*
X69659778Y-74520278D01*
X69603764Y-74667977D01*
X69603761Y-74667991D01*
X69584722Y-74824796D01*
X69584722Y-74824803D01*
X69603761Y-74981608D01*
X69603764Y-74981622D01*
X69659778Y-75129321D01*
X69741003Y-75246996D01*
X69749517Y-75259330D01*
X69867760Y-75364083D01*
X70007635Y-75437496D01*
X70161015Y-75475300D01*
X70258100Y-75475300D01*
X70305666Y-75492613D01*
X70310426Y-75496974D01*
X72221980Y-77408528D01*
X72247000Y-77421276D01*
X72256898Y-77427341D01*
X72279619Y-77443849D01*
X72279620Y-77443849D01*
X72279621Y-77443850D01*
X72306323Y-77452526D01*
X72317053Y-77456970D01*
X72328857Y-77462984D01*
X72342074Y-77469719D01*
X72369803Y-77474110D01*
X72381098Y-77476821D01*
X72407807Y-77485500D01*
X72441712Y-77485500D01*
X84581860Y-77485500D01*
X84629426Y-77502813D01*
X84630920Y-77504100D01*
X84738360Y-77599283D01*
X84878235Y-77672696D01*
X85031615Y-77710500D01*
X85031619Y-77710500D01*
X85189581Y-77710500D01*
X85189585Y-77710500D01*
X85342965Y-77672696D01*
X85482840Y-77599283D01*
X85601083Y-77494530D01*
X85690820Y-77364523D01*
X85746837Y-77216818D01*
X85765878Y-77060000D01*
X85763743Y-77042420D01*
X85746838Y-76903191D01*
X85746837Y-76903182D01*
X85706814Y-76797650D01*
X85690821Y-76755478D01*
X85601083Y-76625470D01*
X85586811Y-76612826D01*
X85482840Y-76520717D01*
X85470739Y-76514366D01*
X85342966Y-76447304D01*
X85189587Y-76409500D01*
X85189585Y-76409500D01*
X85031615Y-76409500D01*
X85031612Y-76409500D01*
X84878233Y-76447304D01*
X84738361Y-76520716D01*
X84738360Y-76520717D01*
X84634390Y-76612826D01*
X84630931Y-76615890D01*
X84583846Y-76634473D01*
X84581860Y-76634500D01*
X72682099Y-76634500D01*
X72634533Y-76617187D01*
X72629773Y-76612826D01*
X70914959Y-74898011D01*
X70893567Y-74852135D01*
X70893825Y-74836763D01*
X70895278Y-74824799D01*
X70895278Y-74824796D01*
X70876238Y-74667991D01*
X70876237Y-74667982D01*
X70841086Y-74575295D01*
X70820221Y-74520278D01*
X70820220Y-74520276D01*
X70809080Y-74504138D01*
X70796306Y-74455157D01*
X70818006Y-74409425D01*
X70864024Y-74388340D01*
X70869980Y-74388100D01*
X85048800Y-74388100D01*
X85096366Y-74405413D01*
X85101126Y-74409774D01*
X86191572Y-75500220D01*
X86286880Y-75595528D01*
X86311902Y-75608276D01*
X86321799Y-75614342D01*
X86344517Y-75630848D01*
X86344518Y-75630848D01*
X86344519Y-75630849D01*
X86344521Y-75630849D01*
X86344522Y-75630850D01*
X86371223Y-75639526D01*
X86381953Y-75643970D01*
X86386426Y-75646249D01*
X86406974Y-75656719D01*
X86434703Y-75661110D01*
X86445998Y-75663821D01*
X86472707Y-75672500D01*
X86506612Y-75672500D01*
X86603670Y-75672500D01*
X86651236Y-75689813D01*
X86669911Y-75713514D01*
X86727327Y-75828821D01*
X86727328Y-75828822D01*
X86727329Y-75828825D01*
X86850234Y-75991578D01*
X86850235Y-75991579D01*
X86987637Y-76116836D01*
X87000959Y-76128981D01*
X87174363Y-76236348D01*
X87364544Y-76310024D01*
X87565024Y-76347500D01*
X87565026Y-76347500D01*
X87768974Y-76347500D01*
X87768976Y-76347500D01*
X87969456Y-76310024D01*
X88159637Y-76236348D01*
X88333041Y-76128981D01*
X88483764Y-75991579D01*
X88606673Y-75828821D01*
X88697582Y-75646250D01*
X88753397Y-75450083D01*
X88754564Y-75437496D01*
X88772215Y-75247003D01*
X88772215Y-75246996D01*
X88753398Y-75043923D01*
X88753397Y-75043917D01*
X88735668Y-74981608D01*
X88697582Y-74847750D01*
X88606673Y-74665179D01*
X88606670Y-74665175D01*
X88606670Y-74665174D01*
X88483765Y-74502421D01*
X88483764Y-74502420D01*
X88333041Y-74365019D01*
X88159637Y-74257652D01*
X87969456Y-74183976D01*
X87881407Y-74167516D01*
X87768979Y-74146500D01*
X87768976Y-74146500D01*
X87565024Y-74146500D01*
X87565020Y-74146500D01*
X87415116Y-74174522D01*
X87364544Y-74183976D01*
X87364542Y-74183976D01*
X87364540Y-74183977D01*
X87174368Y-74257650D01*
X87174363Y-74257652D01*
X87174358Y-74257654D01*
X87174358Y-74257655D01*
X87000958Y-74365019D01*
X87000957Y-74365019D01*
X86850235Y-74502420D01*
X86850234Y-74502421D01*
X86727328Y-74665176D01*
X86727325Y-74665181D01*
X86717555Y-74684801D01*
X86680853Y-74719663D01*
X86630330Y-74722777D01*
X86598988Y-74704140D01*
X85508920Y-73614072D01*
X85483898Y-73601323D01*
X85473997Y-73595255D01*
X85451282Y-73578751D01*
X85436839Y-73574058D01*
X85424571Y-73570072D01*
X85413851Y-73565632D01*
X85388826Y-73552881D01*
X85388825Y-73552880D01*
X85388824Y-73552880D01*
X85361089Y-73548488D01*
X85349797Y-73545777D01*
X85323094Y-73537100D01*
X85323093Y-73537100D01*
X85289188Y-73537100D01*
X77704638Y-73537100D01*
X77657072Y-73519787D01*
X77631762Y-73475950D01*
X77640552Y-73426100D01*
X77643737Y-73421063D01*
X77692854Y-73349904D01*
X77728320Y-73298523D01*
X77732000Y-73288821D01*
X77784335Y-73150822D01*
X77784337Y-73150818D01*
X77791618Y-73090850D01*
X77803378Y-72994003D01*
X77803378Y-72993996D01*
X77784338Y-72837191D01*
X77784337Y-72837182D01*
X77735588Y-72708640D01*
X77734908Y-72658026D01*
X77766922Y-72618816D01*
X77804779Y-72608400D01*
X83131300Y-72608400D01*
X83178866Y-72625713D01*
X83183626Y-72630074D01*
X83513772Y-72960220D01*
X83609080Y-73055528D01*
X83634106Y-73068279D01*
X83643993Y-73074338D01*
X83666719Y-73090849D01*
X83666720Y-73090849D01*
X83666721Y-73090850D01*
X83693423Y-73099526D01*
X83704153Y-73103970D01*
X83708626Y-73106249D01*
X83729174Y-73116719D01*
X83756903Y-73121110D01*
X83768198Y-73123821D01*
X83794907Y-73132500D01*
X83828812Y-73132500D01*
X86506612Y-73132500D01*
X86603670Y-73132500D01*
X86651236Y-73149813D01*
X86669911Y-73173514D01*
X86727327Y-73288821D01*
X86727328Y-73288822D01*
X86727329Y-73288825D01*
X86850234Y-73451578D01*
X86850235Y-73451579D01*
X86939861Y-73533283D01*
X87000959Y-73588981D01*
X87174363Y-73696348D01*
X87364544Y-73770024D01*
X87565024Y-73807500D01*
X87565026Y-73807500D01*
X87768974Y-73807500D01*
X87768976Y-73807500D01*
X87969456Y-73770024D01*
X88159637Y-73696348D01*
X88333041Y-73588981D01*
X88483764Y-73451579D01*
X88505107Y-73423317D01*
X88606670Y-73288825D01*
X88606670Y-73288824D01*
X88606673Y-73288821D01*
X88697582Y-73106250D01*
X88753397Y-72910083D01*
X88760152Y-72837191D01*
X88772215Y-72707003D01*
X88772215Y-72706996D01*
X88767379Y-72654803D01*
X89835222Y-72654803D01*
X89854261Y-72811608D01*
X89854264Y-72811622D01*
X89910278Y-72959321D01*
X89976685Y-73055528D01*
X90000017Y-73089330D01*
X90118260Y-73194083D01*
X90258135Y-73267496D01*
X90411515Y-73305300D01*
X90411519Y-73305300D01*
X90569481Y-73305300D01*
X90569485Y-73305300D01*
X90722865Y-73267496D01*
X90862740Y-73194083D01*
X90980983Y-73089330D01*
X91070720Y-72959323D01*
X91126737Y-72811618D01*
X91139241Y-72708640D01*
X91145778Y-72654803D01*
X91145778Y-72654796D01*
X91126738Y-72497991D01*
X91126737Y-72497982D01*
X91118713Y-72476825D01*
X91070721Y-72350278D01*
X90980983Y-72220270D01*
X90938804Y-72182903D01*
X90862740Y-72115517D01*
X90850639Y-72109166D01*
X90722866Y-72042104D01*
X90569487Y-72004300D01*
X90569485Y-72004300D01*
X90411515Y-72004300D01*
X90411512Y-72004300D01*
X90258133Y-72042104D01*
X90118261Y-72115516D01*
X90000016Y-72220270D01*
X89910279Y-72350278D01*
X89910278Y-72350278D01*
X89854264Y-72497977D01*
X89854261Y-72497991D01*
X89835222Y-72654796D01*
X89835222Y-72654803D01*
X88767379Y-72654803D01*
X88753398Y-72503923D01*
X88753397Y-72503917D01*
X88706679Y-72339722D01*
X88697582Y-72307750D01*
X88606673Y-72125179D01*
X88606670Y-72125175D01*
X88606670Y-72125174D01*
X88483765Y-71962421D01*
X88483764Y-71962420D01*
X88333041Y-71825019D01*
X88269910Y-71785930D01*
X88159637Y-71717652D01*
X88005086Y-71657779D01*
X87969459Y-71643977D01*
X87969458Y-71643976D01*
X87969456Y-71643976D01*
X87881407Y-71627516D01*
X87768979Y-71606500D01*
X87768976Y-71606500D01*
X87565024Y-71606500D01*
X87565020Y-71606500D01*
X87415116Y-71634522D01*
X87364544Y-71643976D01*
X87364542Y-71643976D01*
X87364540Y-71643977D01*
X87193857Y-71710100D01*
X87174363Y-71717652D01*
X87174361Y-71717653D01*
X87174355Y-71717656D01*
X87173114Y-71718425D01*
X87172595Y-71718532D01*
X87171302Y-71719177D01*
X87171132Y-71718837D01*
X87123558Y-71728742D01*
X87078964Y-71704791D01*
X87060198Y-71657779D01*
X87060703Y-71646586D01*
X87069978Y-71570203D01*
X87069978Y-71570196D01*
X87052617Y-71427216D01*
X87050937Y-71413382D01*
X87028342Y-71353804D01*
X86994921Y-71265678D01*
X86953816Y-71206128D01*
X86930243Y-71171976D01*
X86917472Y-71122997D01*
X86939171Y-71077265D01*
X86985190Y-71056181D01*
X87030101Y-71067025D01*
X87174363Y-71156348D01*
X87364544Y-71230024D01*
X87565024Y-71267500D01*
X87565026Y-71267500D01*
X87768974Y-71267500D01*
X87768976Y-71267500D01*
X87969456Y-71230024D01*
X88159637Y-71156348D01*
X88333041Y-71048981D01*
X88483764Y-70911579D01*
X88490401Y-70902791D01*
X88606670Y-70748825D01*
X88606670Y-70748824D01*
X88606673Y-70748821D01*
X88697582Y-70566250D01*
X88753397Y-70370083D01*
X88761280Y-70285018D01*
X88772215Y-70167003D01*
X88772215Y-70166996D01*
X88753398Y-69963923D01*
X88753397Y-69963917D01*
X88708386Y-69805723D01*
X88697582Y-69767750D01*
X88606673Y-69585179D01*
X88606670Y-69585175D01*
X88606670Y-69585174D01*
X88490164Y-69430895D01*
X88475314Y-69382503D01*
X88495045Y-69335888D01*
X88540123Y-69312861D01*
X88549217Y-69312300D01*
X89053900Y-69312300D01*
X89101466Y-69329613D01*
X89106226Y-69333974D01*
X89973640Y-70201388D01*
X89995032Y-70247264D01*
X89994774Y-70262631D01*
X89993323Y-70274596D01*
X89993322Y-70274601D01*
X89993322Y-70274604D01*
X90012361Y-70431408D01*
X90012364Y-70431422D01*
X90068378Y-70579121D01*
X90158116Y-70709129D01*
X90158117Y-70709130D01*
X90276360Y-70813883D01*
X90416235Y-70887296D01*
X90569615Y-70925100D01*
X90569619Y-70925100D01*
X90727581Y-70925100D01*
X90727585Y-70925100D01*
X90880965Y-70887296D01*
X91020840Y-70813883D01*
X91139083Y-70709130D01*
X91228820Y-70579123D01*
X91228978Y-70578708D01*
X91284835Y-70431422D01*
X91284837Y-70431418D01*
X91303878Y-70274600D01*
X91290813Y-70167003D01*
X91284838Y-70117791D01*
X91284837Y-70117782D01*
X91242343Y-70005733D01*
X91228821Y-69970078D01*
X91139083Y-69840070D01*
X91114705Y-69818473D01*
X91020840Y-69735317D01*
X90978841Y-69713274D01*
X90880966Y-69661904D01*
X90727587Y-69624100D01*
X90727585Y-69624100D01*
X90630500Y-69624100D01*
X90582934Y-69606787D01*
X90578174Y-69602426D01*
X89514020Y-68538272D01*
X89488998Y-68525523D01*
X89479097Y-68519455D01*
X89456382Y-68502951D01*
X89430525Y-68494550D01*
X89429671Y-68494272D01*
X89418951Y-68489832D01*
X89393926Y-68477081D01*
X89393925Y-68477080D01*
X89393924Y-68477080D01*
X89366189Y-68472688D01*
X89354897Y-68469977D01*
X89328194Y-68461300D01*
X89328193Y-68461300D01*
X89294288Y-68461300D01*
X88564622Y-68461300D01*
X88517056Y-68443987D01*
X88491746Y-68400150D01*
X88500536Y-68350300D01*
X88505569Y-68342705D01*
X88606670Y-68208825D01*
X88606670Y-68208824D01*
X88606673Y-68208821D01*
X88697582Y-68026250D01*
X88753397Y-67830083D01*
X88754368Y-67819610D01*
X88772215Y-67627003D01*
X88772215Y-67626996D01*
X88753398Y-67423923D01*
X88753397Y-67423917D01*
X88735773Y-67361975D01*
X88697582Y-67227750D01*
X88606673Y-67045179D01*
X88606670Y-67045175D01*
X88606670Y-67045174D01*
X88483765Y-66882421D01*
X88483764Y-66882420D01*
X88333041Y-66745019D01*
X88300709Y-66725000D01*
X88159637Y-66637652D01*
X87969456Y-66563976D01*
X87881407Y-66547516D01*
X87768979Y-66526500D01*
X87768976Y-66526500D01*
X87565024Y-66526500D01*
X87565020Y-66526500D01*
X87415116Y-66554522D01*
X87364544Y-66563976D01*
X87364542Y-66563976D01*
X87364540Y-66563977D01*
X87178524Y-66636040D01*
X87174363Y-66637652D01*
X87174358Y-66637654D01*
X87174358Y-66637655D01*
X87000958Y-66745019D01*
X87000957Y-66745019D01*
X86850235Y-66882420D01*
X86850234Y-66882421D01*
X86727329Y-67045174D01*
X86727328Y-67045177D01*
X86636418Y-67227750D01*
X86636416Y-67227755D01*
X86580602Y-67423917D01*
X86580601Y-67423923D01*
X86569439Y-67544383D01*
X86547811Y-67590149D01*
X86501826Y-67611306D01*
X86452999Y-67597953D01*
X86443429Y-67589881D01*
X85880520Y-67026972D01*
X85855498Y-67014223D01*
X85845597Y-67008155D01*
X85822882Y-66991651D01*
X85808439Y-66986958D01*
X85796171Y-66982972D01*
X85785451Y-66978532D01*
X85760426Y-66965781D01*
X85760425Y-66965780D01*
X85760424Y-66965780D01*
X85732689Y-66961388D01*
X85721397Y-66958677D01*
X85694694Y-66950000D01*
X85694693Y-66950000D01*
X85660788Y-66950000D01*
X79432740Y-66950000D01*
X79385174Y-66932687D01*
X79383669Y-66931390D01*
X79276240Y-66836217D01*
X79264139Y-66829866D01*
X79136366Y-66762804D01*
X78982987Y-66725000D01*
X78982985Y-66725000D01*
X78825015Y-66725000D01*
X78825012Y-66725000D01*
X78671633Y-66762804D01*
X78531761Y-66836216D01*
X78413516Y-66940970D01*
X78323779Y-67070978D01*
X78323778Y-67070978D01*
X78267764Y-67218677D01*
X78267761Y-67218691D01*
X78248722Y-67375496D01*
X78248722Y-67375503D01*
X78267761Y-67532308D01*
X78267764Y-67532322D01*
X78323778Y-67680021D01*
X78413516Y-67810029D01*
X78413517Y-67810030D01*
X78531760Y-67914783D01*
X78671635Y-67988196D01*
X78825015Y-68026000D01*
X78825019Y-68026000D01*
X78982981Y-68026000D01*
X78982985Y-68026000D01*
X79136365Y-67988196D01*
X79276240Y-67914783D01*
X79383669Y-67819609D01*
X79430754Y-67801027D01*
X79432740Y-67801000D01*
X83155154Y-67801000D01*
X83202720Y-67818313D01*
X83228030Y-67862150D01*
X83224345Y-67901240D01*
X83167064Y-68052277D01*
X83167061Y-68052291D01*
X83148022Y-68209096D01*
X83148022Y-68209103D01*
X83167061Y-68365908D01*
X83167064Y-68365922D01*
X83223078Y-68513621D01*
X83312451Y-68643100D01*
X83312817Y-68643630D01*
X83431060Y-68748383D01*
X83570935Y-68821796D01*
X83724315Y-68859600D01*
X83724319Y-68859600D01*
X83882281Y-68859600D01*
X83882285Y-68859600D01*
X84035665Y-68821796D01*
X84175540Y-68748383D01*
X84293783Y-68643630D01*
X84383520Y-68513623D01*
X84385281Y-68508981D01*
X84410277Y-68443070D01*
X84439537Y-68365918D01*
X84451802Y-68264904D01*
X84458578Y-68209103D01*
X84458578Y-68209096D01*
X84439538Y-68052291D01*
X84439537Y-68052282D01*
X84429460Y-68025711D01*
X84382255Y-67901240D01*
X84381575Y-67850626D01*
X84413589Y-67811416D01*
X84451446Y-67801000D01*
X85420400Y-67801000D01*
X85467966Y-67818313D01*
X85472726Y-67822674D01*
X86790072Y-69140020D01*
X86885380Y-69235328D01*
X86899178Y-69242358D01*
X86933700Y-69279376D01*
X86936351Y-69329926D01*
X86915438Y-69362979D01*
X86850236Y-69422419D01*
X86850234Y-69422421D01*
X86727329Y-69585174D01*
X86727328Y-69585177D01*
X86669912Y-69700485D01*
X86633212Y-69735347D01*
X86603670Y-69741500D01*
X85969383Y-69741500D01*
X85921817Y-69724187D01*
X85896507Y-69680350D01*
X85905297Y-69630500D01*
X85920312Y-69612110D01*
X86007883Y-69534530D01*
X86097620Y-69404523D01*
X86153637Y-69256818D01*
X86168404Y-69135200D01*
X86172678Y-69100003D01*
X86172678Y-69099996D01*
X86153638Y-68943191D01*
X86153637Y-68943182D01*
X86121939Y-68859600D01*
X86097621Y-68795478D01*
X86007883Y-68665470D01*
X85952435Y-68616348D01*
X85889640Y-68560717D01*
X85846875Y-68538272D01*
X85749766Y-68487304D01*
X85596387Y-68449500D01*
X85596385Y-68449500D01*
X85438415Y-68449500D01*
X85438412Y-68449500D01*
X85285033Y-68487304D01*
X85145161Y-68560716D01*
X85026916Y-68665470D01*
X84937179Y-68795478D01*
X84937178Y-68795478D01*
X84881164Y-68943177D01*
X84881161Y-68943191D01*
X84862122Y-69099996D01*
X84862122Y-69100003D01*
X84881161Y-69256808D01*
X84881164Y-69256822D01*
X84937178Y-69404521D01*
X85026916Y-69534529D01*
X85026917Y-69534530D01*
X85084086Y-69585177D01*
X85114488Y-69612110D01*
X85138611Y-69656611D01*
X85128487Y-69706207D01*
X85088851Y-69737692D01*
X85065417Y-69741500D01*
X70306593Y-69741500D01*
X70171807Y-69741500D01*
X70157365Y-69746192D01*
X70145101Y-69750177D01*
X70133813Y-69752887D01*
X70106072Y-69757281D01*
X70106070Y-69757281D01*
X70081048Y-69770031D01*
X70070324Y-69774473D01*
X70043620Y-69783150D01*
X70043616Y-69783152D01*
X70020895Y-69799659D01*
X70010999Y-69805723D01*
X69985982Y-69818470D01*
X69985978Y-69818473D01*
X69540826Y-70263626D01*
X69494950Y-70285018D01*
X69488500Y-70285300D01*
X69391412Y-70285300D01*
X69238033Y-70323104D01*
X69098161Y-70396516D01*
X68979915Y-70501271D01*
X68943884Y-70553471D01*
X68902615Y-70582782D01*
X68852160Y-70578708D01*
X68816128Y-70543155D01*
X68813805Y-70537704D01*
X68787020Y-70467077D01*
X68762406Y-70431418D01*
X68697283Y-70337070D01*
X68638846Y-70285300D01*
X68579040Y-70232317D01*
X68566939Y-70225966D01*
X68439166Y-70158904D01*
X68285787Y-70121100D01*
X68285785Y-70121100D01*
X68127815Y-70121100D01*
X68127812Y-70121100D01*
X67974433Y-70158904D01*
X67834561Y-70232316D01*
X67716316Y-70337070D01*
X67626579Y-70467078D01*
X67626578Y-70467078D01*
X67570564Y-70614777D01*
X67570561Y-70614791D01*
X67551522Y-70771596D01*
X67551522Y-70771603D01*
X67570561Y-70928408D01*
X67570564Y-70928422D01*
X67626578Y-71076121D01*
X67716316Y-71206129D01*
X67716317Y-71206130D01*
X67834560Y-71310883D01*
X67974435Y-71384296D01*
X68127815Y-71422100D01*
X68127819Y-71422100D01*
X68285781Y-71422100D01*
X68285785Y-71422100D01*
X68439165Y-71384296D01*
X68579040Y-71310883D01*
X68697283Y-71206130D01*
X68733314Y-71153930D01*
X68774582Y-71124618D01*
X68825037Y-71128691D01*
X68861070Y-71164242D01*
X68863406Y-71169726D01*
X68877211Y-71206128D01*
X68890180Y-71240323D01*
X68938884Y-71310883D01*
X68975632Y-71364123D01*
X68979917Y-71370330D01*
X69098160Y-71475083D01*
X69238035Y-71548496D01*
X69391415Y-71586300D01*
X69391419Y-71586300D01*
X69549381Y-71586300D01*
X69549385Y-71586300D01*
X69702765Y-71548496D01*
X69842640Y-71475083D01*
X69960883Y-71370330D01*
X70050620Y-71240323D01*
X70106637Y-71092618D01*
X70123043Y-70957503D01*
X70125678Y-70935803D01*
X70125678Y-70935798D01*
X70124225Y-70923834D01*
X70135677Y-70874528D01*
X70145354Y-70862592D01*
X70393774Y-70614174D01*
X70439651Y-70592782D01*
X70446100Y-70592500D01*
X84570703Y-70592500D01*
X84618269Y-70609813D01*
X84643579Y-70653650D01*
X84634789Y-70703500D01*
X84631604Y-70708537D01*
X84599479Y-70755078D01*
X84599478Y-70755078D01*
X84543464Y-70902777D01*
X84543461Y-70902791D01*
X84524422Y-71059596D01*
X84524422Y-71059603D01*
X84543462Y-71216420D01*
X84544534Y-71220767D01*
X84543282Y-71221075D01*
X84543895Y-71266367D01*
X84511885Y-71305580D01*
X84474022Y-71316000D01*
X84390812Y-71316000D01*
X84237433Y-71353804D01*
X84097561Y-71427216D01*
X83979316Y-71531970D01*
X83889579Y-71661978D01*
X83889578Y-71661978D01*
X83833564Y-71809677D01*
X83833561Y-71809691D01*
X83822990Y-71896750D01*
X83800070Y-71941883D01*
X83753502Y-71961723D01*
X83705075Y-71946988D01*
X83697204Y-71940156D01*
X83591420Y-71834372D01*
X83566398Y-71821623D01*
X83556497Y-71815555D01*
X83533782Y-71799051D01*
X83519339Y-71794358D01*
X83507071Y-71790372D01*
X83496351Y-71785932D01*
X83471326Y-71773181D01*
X83471325Y-71773180D01*
X83471324Y-71773180D01*
X83443589Y-71768788D01*
X83432297Y-71766077D01*
X83405594Y-71757400D01*
X83405593Y-71757400D01*
X83371688Y-71757400D01*
X71380140Y-71757400D01*
X71332574Y-71740087D01*
X71331069Y-71738790D01*
X71319727Y-71728742D01*
X71223640Y-71643617D01*
X71211539Y-71637266D01*
X71083766Y-71570204D01*
X70930387Y-71532400D01*
X70930385Y-71532400D01*
X70772415Y-71532400D01*
X70772412Y-71532400D01*
X70619033Y-71570204D01*
X70479161Y-71643616D01*
X70360916Y-71748370D01*
X70271179Y-71878378D01*
X70271178Y-71878378D01*
X70215164Y-72026077D01*
X70215161Y-72026091D01*
X70196122Y-72182896D01*
X70196122Y-72182903D01*
X70215161Y-72339708D01*
X70215164Y-72339722D01*
X70271178Y-72487421D01*
X70360916Y-72617429D01*
X70360917Y-72617430D01*
X70479160Y-72722183D01*
X70619035Y-72795596D01*
X70772415Y-72833400D01*
X70772419Y-72833400D01*
X70930381Y-72833400D01*
X70930385Y-72833400D01*
X71083765Y-72795596D01*
X71223640Y-72722183D01*
X71331069Y-72627009D01*
X71378154Y-72608427D01*
X71380140Y-72608400D01*
X76491421Y-72608400D01*
X76538987Y-72625713D01*
X76564297Y-72669550D01*
X76560612Y-72708640D01*
X76511864Y-72837177D01*
X76511861Y-72837191D01*
X76492822Y-72993996D01*
X76492822Y-72994003D01*
X76511861Y-73150808D01*
X76511864Y-73150822D01*
X76567878Y-73298521D01*
X76652463Y-73421063D01*
X76665235Y-73470044D01*
X76643535Y-73515776D01*
X76597516Y-73536860D01*
X76591562Y-73537100D01*
X68123540Y-73537100D01*
X68075974Y-73519787D01*
X68074469Y-73518490D01*
X67967040Y-73423317D01*
X67954939Y-73416966D01*
X67827166Y-73349904D01*
X67673787Y-73312100D01*
X67673785Y-73312100D01*
X67515815Y-73312100D01*
X67515812Y-73312100D01*
X67362433Y-73349904D01*
X67222561Y-73423316D01*
X67104316Y-73528070D01*
X67014579Y-73658078D01*
X67014578Y-73658078D01*
X66958564Y-73805777D01*
X66958561Y-73805791D01*
X66939522Y-73962596D01*
X66939522Y-73962603D01*
X64747900Y-73962603D01*
X64747900Y-70053299D01*
X64765213Y-70005733D01*
X64769574Y-70000973D01*
X66145873Y-68624674D01*
X66191749Y-68603282D01*
X66198199Y-68603000D01*
X66295281Y-68603000D01*
X66295285Y-68603000D01*
X66448665Y-68565196D01*
X66588540Y-68491783D01*
X66706783Y-68387030D01*
X66790574Y-68265637D01*
X66831841Y-68236326D01*
X66882296Y-68240399D01*
X66903800Y-68255348D01*
X67097126Y-68448674D01*
X67118518Y-68494550D01*
X67118800Y-68501000D01*
X67118800Y-68609795D01*
X67101487Y-68657361D01*
X67093871Y-68665184D01*
X67053819Y-68700667D01*
X67053818Y-68700668D01*
X66964079Y-68830678D01*
X66964078Y-68830678D01*
X66908064Y-68978377D01*
X66908061Y-68978391D01*
X66889022Y-69135196D01*
X66889022Y-69135203D01*
X66908061Y-69292008D01*
X66908064Y-69292022D01*
X66964078Y-69439721D01*
X67029520Y-69534530D01*
X67053817Y-69569730D01*
X67172060Y-69674483D01*
X67311935Y-69747896D01*
X67465315Y-69785700D01*
X67465319Y-69785700D01*
X67623281Y-69785700D01*
X67623285Y-69785700D01*
X67776665Y-69747896D01*
X67916540Y-69674483D01*
X68034783Y-69569730D01*
X68124520Y-69439723D01*
X68180537Y-69292018D01*
X68194423Y-69177655D01*
X68199578Y-69135203D01*
X68199578Y-69135196D01*
X68180538Y-68978391D01*
X68180537Y-68978382D01*
X68142317Y-68877603D01*
X70196222Y-68877603D01*
X70215261Y-69034408D01*
X70215264Y-69034422D01*
X70271278Y-69182121D01*
X70361016Y-69312129D01*
X70361017Y-69312130D01*
X70479260Y-69416883D01*
X70619135Y-69490296D01*
X70772515Y-69528100D01*
X70772519Y-69528100D01*
X70930481Y-69528100D01*
X70930485Y-69528100D01*
X71083865Y-69490296D01*
X71223740Y-69416883D01*
X71341983Y-69312130D01*
X71431720Y-69182123D01*
X71433415Y-69177655D01*
X71462865Y-69100000D01*
X71487737Y-69034418D01*
X71506778Y-68877600D01*
X71504592Y-68859600D01*
X71487738Y-68720791D01*
X71487737Y-68720782D01*
X71448131Y-68616349D01*
X71431721Y-68573078D01*
X71341983Y-68443070D01*
X71223740Y-68338317D01*
X71204914Y-68328436D01*
X71088063Y-68267107D01*
X71063722Y-68240364D01*
X71022541Y-68249349D01*
X71014738Y-68247865D01*
X70930489Y-68227100D01*
X70930485Y-68227100D01*
X70772515Y-68227100D01*
X70772512Y-68227100D01*
X70619133Y-68264904D01*
X70479261Y-68338316D01*
X70361016Y-68443070D01*
X70271279Y-68573078D01*
X70271278Y-68573078D01*
X70215264Y-68720777D01*
X70215261Y-68720791D01*
X70196222Y-68877596D01*
X70196222Y-68877603D01*
X68142317Y-68877603D01*
X68142314Y-68877596D01*
X68124521Y-68830678D01*
X68094607Y-68787341D01*
X68034783Y-68700670D01*
X68034780Y-68700667D01*
X67994729Y-68665184D01*
X67970605Y-68620683D01*
X67969800Y-68609795D01*
X67969800Y-68226706D01*
X67961121Y-68199998D01*
X67958410Y-68188703D01*
X67954019Y-68160974D01*
X67954018Y-68160973D01*
X67941270Y-68135953D01*
X67936826Y-68125223D01*
X67928150Y-68098522D01*
X67928148Y-68098517D01*
X67911642Y-68075799D01*
X67905576Y-68065902D01*
X67892828Y-68040880D01*
X67797520Y-67945572D01*
X67351951Y-67500003D01*
X70648122Y-67500003D01*
X70667161Y-67656808D01*
X70667164Y-67656822D01*
X70723178Y-67804521D01*
X70812916Y-67934529D01*
X70812917Y-67934530D01*
X70931160Y-68039283D01*
X71066838Y-68110493D01*
X71091177Y-68137234D01*
X71132359Y-68128250D01*
X71140163Y-68129734D01*
X71224415Y-68150500D01*
X71224419Y-68150500D01*
X71382381Y-68150500D01*
X71382385Y-68150500D01*
X71535765Y-68112696D01*
X71675640Y-68039283D01*
X71793883Y-67934530D01*
X71883620Y-67804523D01*
X71939637Y-67656818D01*
X71953289Y-67544383D01*
X71958678Y-67500003D01*
X71958678Y-67499996D01*
X71940572Y-67350886D01*
X71939637Y-67343182D01*
X71928075Y-67312695D01*
X71883621Y-67195478D01*
X71793883Y-67065470D01*
X71675640Y-66960717D01*
X71619763Y-66931390D01*
X71535766Y-66887304D01*
X71382387Y-66849500D01*
X71382385Y-66849500D01*
X71224415Y-66849500D01*
X71224412Y-66849500D01*
X71071033Y-66887304D01*
X70931161Y-66960716D01*
X70812916Y-67065470D01*
X70723179Y-67195478D01*
X70723178Y-67195478D01*
X70667164Y-67343177D01*
X70667161Y-67343191D01*
X70648122Y-67499996D01*
X70648122Y-67500003D01*
X67351951Y-67500003D01*
X67297605Y-67445657D01*
X67276213Y-67399781D01*
X67289314Y-67350886D01*
X67330778Y-67321852D01*
X67332222Y-67321481D01*
X67367865Y-67312696D01*
X67507740Y-67239283D01*
X67625983Y-67134530D01*
X67715720Y-67004523D01*
X67723893Y-66982974D01*
X67771735Y-66856822D01*
X67771737Y-66856818D01*
X67785312Y-66745019D01*
X67790778Y-66700003D01*
X67790778Y-66699996D01*
X67771738Y-66543191D01*
X67771737Y-66543182D01*
X67751149Y-66488895D01*
X67715721Y-66395478D01*
X67625983Y-66265470D01*
X67507740Y-66160717D01*
X67495639Y-66154366D01*
X67367866Y-66087304D01*
X67214487Y-66049500D01*
X67214485Y-66049500D01*
X67056515Y-66049500D01*
X67056512Y-66049500D01*
X66903133Y-66087304D01*
X66763261Y-66160716D01*
X66645016Y-66265470D01*
X66555279Y-66395477D01*
X66511215Y-66511665D01*
X66478160Y-66550001D01*
X66428197Y-66558121D01*
X66389698Y-66537750D01*
X65246774Y-65394826D01*
X65225382Y-65348950D01*
X65225100Y-65342500D01*
X65225100Y-64821603D01*
X71100022Y-64821603D01*
X71119061Y-64978408D01*
X71119064Y-64978422D01*
X71175078Y-65126121D01*
X71256503Y-65244085D01*
X71264817Y-65256130D01*
X71377873Y-65356288D01*
X71401996Y-65400788D01*
X71391872Y-65450384D01*
X71389703Y-65453713D01*
X71308281Y-65571673D01*
X71308278Y-65571678D01*
X71252264Y-65719377D01*
X71252261Y-65719391D01*
X71233222Y-65876196D01*
X71233222Y-65876203D01*
X71252261Y-66033008D01*
X71252264Y-66033022D01*
X71308278Y-66180721D01*
X71366776Y-66265470D01*
X71398017Y-66310730D01*
X71516260Y-66415483D01*
X71656135Y-66488896D01*
X71809515Y-66526700D01*
X71809519Y-66526700D01*
X71967481Y-66526700D01*
X71967485Y-66526700D01*
X72120865Y-66488896D01*
X72260740Y-66415483D01*
X72378983Y-66310730D01*
X72468720Y-66180723D01*
X72524737Y-66033018D01*
X72536935Y-65932560D01*
X72543778Y-65876203D01*
X72543778Y-65876196D01*
X72524738Y-65719391D01*
X72524737Y-65719382D01*
X72498059Y-65649037D01*
X72468721Y-65571678D01*
X72378983Y-65441670D01*
X72332836Y-65400788D01*
X72265925Y-65341510D01*
X72241803Y-65297011D01*
X72251927Y-65247415D01*
X72254078Y-65244111D01*
X72335520Y-65126123D01*
X72384792Y-64996203D01*
X82164822Y-64996203D01*
X82183861Y-65153008D01*
X82183864Y-65153022D01*
X82239878Y-65300721D01*
X82329616Y-65430729D01*
X82329617Y-65430730D01*
X82447860Y-65535483D01*
X82587735Y-65608896D01*
X82741115Y-65646700D01*
X82741119Y-65646700D01*
X82899081Y-65646700D01*
X82899085Y-65646700D01*
X83052465Y-65608896D01*
X83192340Y-65535483D01*
X83310583Y-65430730D01*
X83400320Y-65300723D01*
X83456337Y-65153018D01*
X83464353Y-65087003D01*
X86561785Y-65087003D01*
X86580601Y-65290076D01*
X86580602Y-65290082D01*
X86636416Y-65486244D01*
X86636418Y-65486250D01*
X86727327Y-65668821D01*
X86727328Y-65668822D01*
X86727329Y-65668825D01*
X86850234Y-65831578D01*
X86850235Y-65831579D01*
X86946673Y-65919493D01*
X87000959Y-65968981D01*
X87174363Y-66076348D01*
X87364544Y-66150024D01*
X87565024Y-66187500D01*
X87565026Y-66187500D01*
X87768974Y-66187500D01*
X87768976Y-66187500D01*
X87969456Y-66150024D01*
X88159637Y-66076348D01*
X88333041Y-65968981D01*
X88483764Y-65831579D01*
X88487529Y-65826594D01*
X88606670Y-65668825D01*
X88606670Y-65668824D01*
X88606673Y-65668821D01*
X88697582Y-65486250D01*
X88753397Y-65290083D01*
X88756544Y-65256129D01*
X88763162Y-65184703D01*
X88950722Y-65184703D01*
X88969761Y-65341508D01*
X88969764Y-65341522D01*
X89025778Y-65489221D01*
X89082694Y-65571678D01*
X89115517Y-65619230D01*
X89233760Y-65723983D01*
X89373635Y-65797396D01*
X89527015Y-65835200D01*
X89527019Y-65835200D01*
X89684981Y-65835200D01*
X89684985Y-65835200D01*
X89838365Y-65797396D01*
X89978240Y-65723983D01*
X90096483Y-65619230D01*
X90186220Y-65489223D01*
X90242237Y-65341518D01*
X90253663Y-65247415D01*
X90261278Y-65184703D01*
X90261278Y-65184696D01*
X90242238Y-65027891D01*
X90242237Y-65027882D01*
X90187641Y-64883923D01*
X90186221Y-64880178D01*
X90096483Y-64750170D01*
X89978240Y-64645417D01*
X89930737Y-64620485D01*
X89838366Y-64572004D01*
X89684987Y-64534200D01*
X89684985Y-64534200D01*
X89527015Y-64534200D01*
X89527012Y-64534200D01*
X89373633Y-64572004D01*
X89233761Y-64645416D01*
X89115516Y-64750170D01*
X89025779Y-64880178D01*
X89025778Y-64880178D01*
X88969764Y-65027877D01*
X88969761Y-65027891D01*
X88950722Y-65184696D01*
X88950722Y-65184703D01*
X88763162Y-65184703D01*
X88772215Y-65087003D01*
X88772215Y-65086996D01*
X88753398Y-64883923D01*
X88753397Y-64883917D01*
X88740728Y-64839391D01*
X88697582Y-64687750D01*
X88606673Y-64505179D01*
X88606670Y-64505175D01*
X88606670Y-64505174D01*
X88483765Y-64342421D01*
X88483764Y-64342420D01*
X88333041Y-64205019D01*
X88255200Y-64156822D01*
X88159637Y-64097652D01*
X87969456Y-64023976D01*
X87881407Y-64007516D01*
X87768979Y-63986500D01*
X87768976Y-63986500D01*
X87565024Y-63986500D01*
X87565020Y-63986500D01*
X87415116Y-64014522D01*
X87364544Y-64023976D01*
X87364542Y-64023976D01*
X87364540Y-64023977D01*
X87174368Y-64097650D01*
X87174363Y-64097652D01*
X87174358Y-64097654D01*
X87174358Y-64097655D01*
X87000958Y-64205019D01*
X87000957Y-64205019D01*
X86850235Y-64342420D01*
X86850234Y-64342421D01*
X86727329Y-64505174D01*
X86727328Y-64505177D01*
X86636418Y-64687750D01*
X86636416Y-64687755D01*
X86580602Y-64883917D01*
X86580601Y-64883923D01*
X86561785Y-65086996D01*
X86561785Y-65087003D01*
X83464353Y-65087003D01*
X83475378Y-64996200D01*
X83473219Y-64978422D01*
X83456338Y-64839391D01*
X83456337Y-64839382D01*
X83448313Y-64818225D01*
X83400321Y-64691678D01*
X83310583Y-64561670D01*
X83246817Y-64505179D01*
X83192340Y-64456917D01*
X83149684Y-64434529D01*
X83052466Y-64383504D01*
X82899087Y-64345700D01*
X82899085Y-64345700D01*
X82741115Y-64345700D01*
X82741112Y-64345700D01*
X82587733Y-64383504D01*
X82447861Y-64456916D01*
X82329616Y-64561670D01*
X82239879Y-64691678D01*
X82239878Y-64691678D01*
X82183864Y-64839377D01*
X82183861Y-64839391D01*
X82164822Y-64996196D01*
X82164822Y-64996203D01*
X72384792Y-64996203D01*
X72391537Y-64978418D01*
X72403011Y-64883923D01*
X72410578Y-64821603D01*
X72410578Y-64821596D01*
X72393055Y-64677281D01*
X72391537Y-64664782D01*
X72376380Y-64624815D01*
X72335521Y-64517078D01*
X72245783Y-64387070D01*
X72195383Y-64342420D01*
X72127540Y-64282317D01*
X72115439Y-64275966D01*
X71987666Y-64208904D01*
X71834287Y-64171100D01*
X71834285Y-64171100D01*
X71676315Y-64171100D01*
X71676312Y-64171100D01*
X71522933Y-64208904D01*
X71383061Y-64282316D01*
X71264816Y-64387070D01*
X71175079Y-64517078D01*
X71175078Y-64517078D01*
X71119064Y-64664777D01*
X71119061Y-64664791D01*
X71100022Y-64821596D01*
X71100022Y-64821603D01*
X65225100Y-64821603D01*
X65225100Y-64696665D01*
X65242413Y-64649099D01*
X65286250Y-64623789D01*
X65316803Y-64624814D01*
X65421015Y-64650500D01*
X65421019Y-64650500D01*
X65578981Y-64650500D01*
X65578985Y-64650500D01*
X65732365Y-64612696D01*
X65872240Y-64539283D01*
X65990483Y-64434530D01*
X66080220Y-64304523D01*
X66136237Y-64156818D01*
X66155278Y-64000000D01*
X66136237Y-63843182D01*
X66128213Y-63822025D01*
X66080221Y-63695478D01*
X65990483Y-63565470D01*
X65957612Y-63536349D01*
X65872240Y-63460717D01*
X65811771Y-63428980D01*
X65732366Y-63387304D01*
X65578987Y-63349500D01*
X65578985Y-63349500D01*
X65421015Y-63349500D01*
X65421010Y-63349500D01*
X65316808Y-63375183D01*
X65266481Y-63369756D01*
X65231417Y-63333249D01*
X65225100Y-63303333D01*
X65225100Y-62034203D01*
X71261622Y-62034203D01*
X71280661Y-62191008D01*
X71280664Y-62191022D01*
X71336678Y-62338721D01*
X71340265Y-62343917D01*
X71426417Y-62468730D01*
X71544660Y-62573483D01*
X71684535Y-62646896D01*
X71837915Y-62684700D01*
X71837919Y-62684700D01*
X71995881Y-62684700D01*
X71995885Y-62684700D01*
X72149265Y-62646896D01*
X72289140Y-62573483D01*
X72407383Y-62468730D01*
X72497120Y-62338723D01*
X72553137Y-62191018D01*
X72568728Y-62062616D01*
X72572178Y-62034203D01*
X72572178Y-62034196D01*
X72553138Y-61877391D01*
X72553137Y-61877382D01*
X72537067Y-61835009D01*
X72497121Y-61729678D01*
X72407383Y-61599670D01*
X72360288Y-61557948D01*
X72289140Y-61494917D01*
X72268294Y-61483976D01*
X72149266Y-61421504D01*
X71995887Y-61383700D01*
X71995885Y-61383700D01*
X71837915Y-61383700D01*
X71837912Y-61383700D01*
X71684533Y-61421504D01*
X71544661Y-61494916D01*
X71426416Y-61599670D01*
X71336679Y-61729678D01*
X71336678Y-61729678D01*
X71280664Y-61877377D01*
X71280661Y-61877391D01*
X71261622Y-62034196D01*
X71261622Y-62034203D01*
X65225100Y-62034203D01*
X65225100Y-60780103D01*
X72507422Y-60780103D01*
X72526461Y-60936908D01*
X72526464Y-60936922D01*
X72582478Y-61084621D01*
X72672216Y-61214629D01*
X72672217Y-61214630D01*
X72790460Y-61319383D01*
X72930335Y-61392796D01*
X73083715Y-61430600D01*
X73083719Y-61430600D01*
X73241681Y-61430600D01*
X73241685Y-61430600D01*
X73395065Y-61392796D01*
X73534940Y-61319383D01*
X73653183Y-61214630D01*
X73742920Y-61084623D01*
X73748458Y-61070022D01*
X73784760Y-60974299D01*
X73798937Y-60936918D01*
X73817978Y-60780100D01*
X73810487Y-60718409D01*
X73798938Y-60623291D01*
X73798937Y-60623282D01*
X73770482Y-60548252D01*
X73742921Y-60475578D01*
X73653183Y-60345570D01*
X73534940Y-60240817D01*
X73476369Y-60210076D01*
X73395066Y-60167404D01*
X73241687Y-60129600D01*
X73241685Y-60129600D01*
X73083715Y-60129600D01*
X73083712Y-60129600D01*
X72930333Y-60167404D01*
X72790461Y-60240816D01*
X72672216Y-60345570D01*
X72582479Y-60475578D01*
X72582478Y-60475578D01*
X72526464Y-60623277D01*
X72526461Y-60623291D01*
X72507422Y-60780096D01*
X72507422Y-60780103D01*
X65225100Y-60780103D01*
X65225100Y-59386100D01*
X65242413Y-59338534D01*
X65246774Y-59333774D01*
X65911145Y-58669403D01*
X70478822Y-58669403D01*
X70497861Y-58826208D01*
X70497864Y-58826222D01*
X70553878Y-58973921D01*
X70626797Y-59079562D01*
X70643617Y-59103930D01*
X70761860Y-59208683D01*
X70901735Y-59282096D01*
X71055115Y-59319900D01*
X71055119Y-59319900D01*
X71213081Y-59319900D01*
X71213085Y-59319900D01*
X71366465Y-59282096D01*
X71506340Y-59208683D01*
X71624583Y-59103930D01*
X71714320Y-58973923D01*
X71716545Y-58968058D01*
X71740193Y-58905702D01*
X71770337Y-58826218D01*
X71781170Y-58737000D01*
X71789378Y-58669403D01*
X71789378Y-58669396D01*
X71774529Y-58547103D01*
X77758222Y-58547103D01*
X77777261Y-58703908D01*
X77777264Y-58703922D01*
X77833278Y-58851621D01*
X77917696Y-58973921D01*
X77923017Y-58981630D01*
X78041260Y-59086383D01*
X78074691Y-59103929D01*
X78173216Y-59155640D01*
X78181135Y-59159796D01*
X78334515Y-59197600D01*
X78334519Y-59197600D01*
X78492481Y-59197600D01*
X78492485Y-59197600D01*
X78645865Y-59159796D01*
X78785740Y-59086383D01*
X78893169Y-58991209D01*
X78940254Y-58972627D01*
X78942240Y-58972600D01*
X79588500Y-58972600D01*
X79636066Y-58989913D01*
X79640826Y-58994274D01*
X83446772Y-62800220D01*
X83542080Y-62895528D01*
X83567102Y-62908277D01*
X83576994Y-62914340D01*
X83599717Y-62930849D01*
X83599718Y-62930849D01*
X83599719Y-62930850D01*
X83626424Y-62939526D01*
X83637155Y-62943971D01*
X83641626Y-62946249D01*
X83662174Y-62956719D01*
X83689906Y-62961110D01*
X83701189Y-62963818D01*
X83727907Y-62972500D01*
X83761812Y-62972500D01*
X86603670Y-62972500D01*
X86651236Y-62989813D01*
X86669911Y-63013514D01*
X86727327Y-63128821D01*
X86727328Y-63128822D01*
X86727329Y-63128825D01*
X86850234Y-63291578D01*
X86850235Y-63291579D01*
X86913772Y-63349500D01*
X87000959Y-63428981D01*
X87174363Y-63536348D01*
X87364544Y-63610024D01*
X87565024Y-63647500D01*
X87565026Y-63647500D01*
X87768974Y-63647500D01*
X87768976Y-63647500D01*
X87969456Y-63610024D01*
X88159637Y-63536348D01*
X88333041Y-63428981D01*
X88483764Y-63291579D01*
X88508815Y-63258407D01*
X88606670Y-63128825D01*
X88606670Y-63128824D01*
X88606673Y-63128821D01*
X88697582Y-62946250D01*
X88753397Y-62750083D01*
X88758751Y-62692310D01*
X88772215Y-62547003D01*
X88772215Y-62546996D01*
X88753398Y-62343923D01*
X88753397Y-62343917D01*
X88706357Y-62178591D01*
X88697582Y-62147750D01*
X88606673Y-61965179D01*
X88572324Y-61919694D01*
X88557477Y-61871303D01*
X88577207Y-61824687D01*
X88622286Y-61801661D01*
X88631379Y-61801100D01*
X89149860Y-61801100D01*
X89197426Y-61818413D01*
X89198931Y-61819710D01*
X89212228Y-61831490D01*
X89236351Y-61875991D01*
X89226227Y-61925587D01*
X89224058Y-61928917D01*
X89153679Y-62030878D01*
X89153678Y-62030878D01*
X89097664Y-62178577D01*
X89097661Y-62178591D01*
X89078622Y-62335396D01*
X89078622Y-62335403D01*
X89097661Y-62492208D01*
X89097664Y-62492222D01*
X89153678Y-62639921D01*
X89243416Y-62769929D01*
X89243417Y-62769930D01*
X89361660Y-62874683D01*
X89501535Y-62948096D01*
X89654915Y-62985900D01*
X89654919Y-62985900D01*
X89812881Y-62985900D01*
X89812885Y-62985900D01*
X89966265Y-62948096D01*
X90106140Y-62874683D01*
X90224383Y-62769930D01*
X90314120Y-62639923D01*
X90349360Y-62547003D01*
X101801785Y-62547003D01*
X101820601Y-62750076D01*
X101820602Y-62750082D01*
X101876416Y-62946244D01*
X101876418Y-62946250D01*
X101967327Y-63128821D01*
X101967328Y-63128822D01*
X101967329Y-63128825D01*
X102090234Y-63291578D01*
X102090235Y-63291579D01*
X102153772Y-63349500D01*
X102240959Y-63428981D01*
X102414363Y-63536348D01*
X102604544Y-63610024D01*
X102805024Y-63647500D01*
X102805026Y-63647500D01*
X103008974Y-63647500D01*
X103008976Y-63647500D01*
X103209456Y-63610024D01*
X103399637Y-63536348D01*
X103573041Y-63428981D01*
X103723764Y-63291579D01*
X103748815Y-63258407D01*
X103846670Y-63128825D01*
X103846670Y-63128824D01*
X103846673Y-63128821D01*
X103937582Y-62946250D01*
X103993397Y-62750083D01*
X103998751Y-62692310D01*
X104012215Y-62547003D01*
X110761785Y-62547003D01*
X110780601Y-62750076D01*
X110780602Y-62750082D01*
X110836416Y-62946244D01*
X110836418Y-62946250D01*
X110927327Y-63128821D01*
X110927328Y-63128822D01*
X110927329Y-63128825D01*
X111050234Y-63291578D01*
X111050235Y-63291579D01*
X111113772Y-63349500D01*
X111200959Y-63428981D01*
X111374363Y-63536348D01*
X111564544Y-63610024D01*
X111765024Y-63647500D01*
X111765026Y-63647500D01*
X111968974Y-63647500D01*
X111968976Y-63647500D01*
X112169456Y-63610024D01*
X112359637Y-63536348D01*
X112533041Y-63428981D01*
X112683764Y-63291579D01*
X112708815Y-63258407D01*
X112806670Y-63128825D01*
X112806670Y-63128824D01*
X112806673Y-63128821D01*
X112897582Y-62946250D01*
X112953397Y-62750083D01*
X112958751Y-62692310D01*
X112972215Y-62547003D01*
X126001785Y-62547003D01*
X126020601Y-62750076D01*
X126020602Y-62750082D01*
X126076416Y-62946244D01*
X126076418Y-62946250D01*
X126167327Y-63128821D01*
X126167328Y-63128822D01*
X126167329Y-63128825D01*
X126290234Y-63291578D01*
X126290235Y-63291579D01*
X126353772Y-63349500D01*
X126440959Y-63428981D01*
X126614363Y-63536348D01*
X126804544Y-63610024D01*
X127005024Y-63647500D01*
X127005026Y-63647500D01*
X127208974Y-63647500D01*
X127208976Y-63647500D01*
X127409456Y-63610024D01*
X127599637Y-63536348D01*
X127773041Y-63428981D01*
X127923764Y-63291579D01*
X127948815Y-63258407D01*
X128046670Y-63128825D01*
X128046670Y-63128824D01*
X128046673Y-63128821D01*
X128137582Y-62946250D01*
X128193397Y-62750083D01*
X128198751Y-62692310D01*
X128212215Y-62547003D01*
X128212215Y-62546996D01*
X128193398Y-62343923D01*
X128193397Y-62343917D01*
X128146357Y-62178591D01*
X128137582Y-62147750D01*
X128046673Y-61965179D01*
X128046670Y-61965175D01*
X128046670Y-61965174D01*
X127923765Y-61802421D01*
X127923764Y-61802420D01*
X127773041Y-61665019D01*
X127714577Y-61628820D01*
X127599637Y-61557652D01*
X127409456Y-61483976D01*
X127321407Y-61467516D01*
X127208979Y-61446500D01*
X127208976Y-61446500D01*
X127005024Y-61446500D01*
X127005020Y-61446500D01*
X126855116Y-61474522D01*
X126804544Y-61483976D01*
X126804542Y-61483976D01*
X126804540Y-61483977D01*
X126614368Y-61557650D01*
X126614363Y-61557652D01*
X126614358Y-61557654D01*
X126614358Y-61557655D01*
X126440958Y-61665019D01*
X126440957Y-61665019D01*
X126290235Y-61802420D01*
X126290234Y-61802421D01*
X126167329Y-61965174D01*
X126167328Y-61965177D01*
X126076418Y-62147750D01*
X126076416Y-62147755D01*
X126020602Y-62343917D01*
X126020601Y-62343923D01*
X126001785Y-62546996D01*
X126001785Y-62547003D01*
X112972215Y-62547003D01*
X112972215Y-62546996D01*
X112953398Y-62343923D01*
X112953397Y-62343917D01*
X112906357Y-62178591D01*
X112897582Y-62147750D01*
X112806673Y-61965179D01*
X112806670Y-61965175D01*
X112806670Y-61965174D01*
X112683765Y-61802421D01*
X112683764Y-61802420D01*
X112533041Y-61665019D01*
X112474577Y-61628820D01*
X112359637Y-61557652D01*
X112169456Y-61483976D01*
X112081407Y-61467516D01*
X111968979Y-61446500D01*
X111968976Y-61446500D01*
X111765024Y-61446500D01*
X111765020Y-61446500D01*
X111615116Y-61474522D01*
X111564544Y-61483976D01*
X111564542Y-61483976D01*
X111564540Y-61483977D01*
X111374368Y-61557650D01*
X111374363Y-61557652D01*
X111374358Y-61557654D01*
X111374358Y-61557655D01*
X111200958Y-61665019D01*
X111200957Y-61665019D01*
X111050235Y-61802420D01*
X111050234Y-61802421D01*
X110927329Y-61965174D01*
X110927328Y-61965177D01*
X110836418Y-62147750D01*
X110836416Y-62147755D01*
X110780602Y-62343917D01*
X110780601Y-62343923D01*
X110761785Y-62546996D01*
X110761785Y-62547003D01*
X104012215Y-62547003D01*
X104012215Y-62546996D01*
X103993398Y-62343923D01*
X103993397Y-62343917D01*
X103946357Y-62178591D01*
X103937582Y-62147750D01*
X103846673Y-61965179D01*
X103846670Y-61965175D01*
X103846670Y-61965174D01*
X103723765Y-61802421D01*
X103723764Y-61802420D01*
X103573041Y-61665019D01*
X103514577Y-61628820D01*
X103399637Y-61557652D01*
X103209456Y-61483976D01*
X103121407Y-61467516D01*
X103008979Y-61446500D01*
X103008976Y-61446500D01*
X102805024Y-61446500D01*
X102805020Y-61446500D01*
X102655116Y-61474522D01*
X102604544Y-61483976D01*
X102604542Y-61483976D01*
X102604540Y-61483977D01*
X102414368Y-61557650D01*
X102414363Y-61557652D01*
X102414358Y-61557654D01*
X102414358Y-61557655D01*
X102240958Y-61665019D01*
X102240957Y-61665019D01*
X102090235Y-61802420D01*
X102090234Y-61802421D01*
X101967329Y-61965174D01*
X101967328Y-61965177D01*
X101876418Y-62147750D01*
X101876416Y-62147755D01*
X101820602Y-62343917D01*
X101820601Y-62343923D01*
X101801785Y-62546996D01*
X101801785Y-62547003D01*
X90349360Y-62547003D01*
X90370137Y-62492218D01*
X90389178Y-62335400D01*
X90380957Y-62267696D01*
X90370138Y-62178591D01*
X90370137Y-62178582D01*
X90326157Y-62062616D01*
X90314121Y-62030878D01*
X90224383Y-61900870D01*
X90202428Y-61881420D01*
X90200271Y-61879509D01*
X90176149Y-61835009D01*
X90186273Y-61785413D01*
X90188442Y-61782083D01*
X90198075Y-61768127D01*
X90258820Y-61680123D01*
X90314837Y-61532418D01*
X90331790Y-61392795D01*
X90333878Y-61375603D01*
X90333878Y-61375596D01*
X90314838Y-61218791D01*
X90314837Y-61218782D01*
X90306813Y-61197625D01*
X90258821Y-61071078D01*
X90169083Y-60941070D01*
X90110286Y-60888981D01*
X90050840Y-60836317D01*
X89943735Y-60780103D01*
X89910966Y-60762904D01*
X89757587Y-60725100D01*
X89757585Y-60725100D01*
X89599615Y-60725100D01*
X89599612Y-60725100D01*
X89446233Y-60762904D01*
X89306361Y-60836316D01*
X89277311Y-60862052D01*
X89202390Y-60928426D01*
X89198931Y-60931490D01*
X89151846Y-60950073D01*
X89149860Y-60950100D01*
X88457013Y-60950100D01*
X88409447Y-60932787D01*
X88384137Y-60888950D01*
X88392927Y-60839100D01*
X88407160Y-60821413D01*
X88483764Y-60751579D01*
X88483765Y-60751578D01*
X88606670Y-60588825D01*
X88606670Y-60588824D01*
X88606673Y-60588821D01*
X88697582Y-60406250D01*
X88753397Y-60210083D01*
X88758751Y-60152310D01*
X88772215Y-60007003D01*
X88772215Y-60006996D01*
X88753398Y-59803923D01*
X88753397Y-59803917D01*
X88731708Y-59727690D01*
X88697582Y-59607750D01*
X88606673Y-59425179D01*
X88606670Y-59425175D01*
X88606670Y-59425174D01*
X88483765Y-59262421D01*
X88483764Y-59262420D01*
X88333041Y-59125019D01*
X88291264Y-59099152D01*
X88159637Y-59017652D01*
X88006947Y-58958500D01*
X87969459Y-58943977D01*
X87969458Y-58943976D01*
X87969456Y-58943976D01*
X87881407Y-58927516D01*
X87768979Y-58906500D01*
X87768976Y-58906500D01*
X87565024Y-58906500D01*
X87565020Y-58906500D01*
X87415116Y-58934522D01*
X87364544Y-58943976D01*
X87364542Y-58943976D01*
X87364540Y-58943977D01*
X87203836Y-59006234D01*
X87174363Y-59017652D01*
X87174358Y-59017654D01*
X87174358Y-59017655D01*
X87000958Y-59125019D01*
X87000957Y-59125019D01*
X86850235Y-59262420D01*
X86850234Y-59262421D01*
X86727329Y-59425174D01*
X86727328Y-59425177D01*
X86636418Y-59607750D01*
X86636416Y-59607755D01*
X86580602Y-59803917D01*
X86580601Y-59803923D01*
X86561785Y-60006996D01*
X86561785Y-60007003D01*
X86580601Y-60210076D01*
X86580602Y-60210082D01*
X86636416Y-60406244D01*
X86636418Y-60406250D01*
X86727327Y-60588821D01*
X86727328Y-60588822D01*
X86727329Y-60588825D01*
X86850234Y-60751578D01*
X86850235Y-60751579D01*
X86926840Y-60821413D01*
X86950329Y-60866253D01*
X86939500Y-60915700D01*
X86899420Y-60946618D01*
X86876987Y-60950100D01*
X84211400Y-60950100D01*
X84163834Y-60932787D01*
X84159074Y-60928426D01*
X82262359Y-59031711D01*
X82247574Y-59000003D01*
X82844722Y-59000003D01*
X82863761Y-59156808D01*
X82863764Y-59156822D01*
X82919778Y-59304521D01*
X83003059Y-59425174D01*
X83009517Y-59434530D01*
X83127760Y-59539283D01*
X83267635Y-59612696D01*
X83421015Y-59650500D01*
X83421019Y-59650500D01*
X83578981Y-59650500D01*
X83578985Y-59650500D01*
X83732365Y-59612696D01*
X83872240Y-59539283D01*
X83990483Y-59434530D01*
X84080220Y-59304523D01*
X84088726Y-59282096D01*
X84120771Y-59197599D01*
X84136237Y-59156818D01*
X84147190Y-59066614D01*
X84155278Y-59000003D01*
X84155278Y-58999996D01*
X84136238Y-58843191D01*
X84136237Y-58843182D01*
X84095969Y-58737003D01*
X100873122Y-58737003D01*
X100892161Y-58893808D01*
X100892164Y-58893822D01*
X100948178Y-59041521D01*
X101031056Y-59161590D01*
X101037917Y-59171530D01*
X101156160Y-59276283D01*
X101296035Y-59349696D01*
X101449415Y-59387500D01*
X101449419Y-59387500D01*
X101607381Y-59387500D01*
X101607385Y-59387500D01*
X101760765Y-59349696D01*
X101900640Y-59276283D01*
X101900640Y-59276282D01*
X101904603Y-59274203D01*
X101905766Y-59276420D01*
X101946157Y-59265852D01*
X101991907Y-59287513D01*
X102013030Y-59333515D01*
X101999642Y-59382331D01*
X101998329Y-59384126D01*
X101967326Y-59425180D01*
X101876418Y-59607750D01*
X101876416Y-59607755D01*
X101820602Y-59803917D01*
X101820601Y-59803923D01*
X101801785Y-60006996D01*
X101801785Y-60007003D01*
X101820601Y-60210076D01*
X101820602Y-60210082D01*
X101876416Y-60406244D01*
X101876418Y-60406250D01*
X101967327Y-60588821D01*
X101967328Y-60588822D01*
X101967329Y-60588825D01*
X102090234Y-60751578D01*
X102090235Y-60751579D01*
X102227637Y-60876836D01*
X102240959Y-60888981D01*
X102414363Y-60996348D01*
X102604544Y-61070024D01*
X102805024Y-61107500D01*
X102805026Y-61107500D01*
X103008974Y-61107500D01*
X103008976Y-61107500D01*
X103209456Y-61070024D01*
X103399637Y-60996348D01*
X103573041Y-60888981D01*
X103723764Y-60751579D01*
X103748815Y-60718407D01*
X103846670Y-60588825D01*
X103846670Y-60588824D01*
X103846673Y-60588821D01*
X103937582Y-60406250D01*
X103993397Y-60210083D01*
X103998751Y-60152310D01*
X104012215Y-60007003D01*
X110761785Y-60007003D01*
X110780601Y-60210076D01*
X110780602Y-60210082D01*
X110836416Y-60406244D01*
X110836418Y-60406250D01*
X110927327Y-60588821D01*
X110927328Y-60588822D01*
X110927329Y-60588825D01*
X111050234Y-60751578D01*
X111050235Y-60751579D01*
X111187637Y-60876836D01*
X111200959Y-60888981D01*
X111374363Y-60996348D01*
X111564544Y-61070024D01*
X111765024Y-61107500D01*
X111765026Y-61107500D01*
X111968974Y-61107500D01*
X111968976Y-61107500D01*
X112169456Y-61070024D01*
X112359637Y-60996348D01*
X112533041Y-60888981D01*
X112683764Y-60751579D01*
X112708815Y-60718407D01*
X112806670Y-60588825D01*
X112806670Y-60588824D01*
X112806673Y-60588821D01*
X112897582Y-60406250D01*
X112953397Y-60210083D01*
X112958751Y-60152310D01*
X112972215Y-60007003D01*
X126001785Y-60007003D01*
X126020601Y-60210076D01*
X126020602Y-60210082D01*
X126076416Y-60406244D01*
X126076418Y-60406250D01*
X126167327Y-60588821D01*
X126167328Y-60588822D01*
X126167329Y-60588825D01*
X126290234Y-60751578D01*
X126290235Y-60751579D01*
X126427637Y-60876836D01*
X126440959Y-60888981D01*
X126614363Y-60996348D01*
X126804544Y-61070024D01*
X127005024Y-61107500D01*
X127005026Y-61107500D01*
X127208974Y-61107500D01*
X127208976Y-61107500D01*
X127409456Y-61070024D01*
X127599637Y-60996348D01*
X127773041Y-60888981D01*
X127923764Y-60751579D01*
X127948815Y-60718407D01*
X128046670Y-60588825D01*
X128046670Y-60588824D01*
X128046673Y-60588821D01*
X128137582Y-60406250D01*
X128193397Y-60210083D01*
X128198751Y-60152310D01*
X128212215Y-60007003D01*
X128212215Y-60006996D01*
X128193398Y-59803923D01*
X128193397Y-59803917D01*
X128171708Y-59727690D01*
X128137582Y-59607750D01*
X128046673Y-59425179D01*
X128046670Y-59425175D01*
X128046670Y-59425174D01*
X127923765Y-59262421D01*
X127923764Y-59262420D01*
X127773041Y-59125019D01*
X127731264Y-59099152D01*
X127599637Y-59017652D01*
X127446947Y-58958500D01*
X127409459Y-58943977D01*
X127409458Y-58943976D01*
X127409456Y-58943976D01*
X127321407Y-58927516D01*
X127208979Y-58906500D01*
X127208976Y-58906500D01*
X127005024Y-58906500D01*
X127005020Y-58906500D01*
X126855116Y-58934522D01*
X126804544Y-58943976D01*
X126804542Y-58943976D01*
X126804540Y-58943977D01*
X126643836Y-59006234D01*
X126614363Y-59017652D01*
X126614358Y-59017654D01*
X126614358Y-59017655D01*
X126440958Y-59125019D01*
X126440957Y-59125019D01*
X126290235Y-59262420D01*
X126290234Y-59262421D01*
X126167329Y-59425174D01*
X126167328Y-59425177D01*
X126076418Y-59607750D01*
X126076416Y-59607755D01*
X126020602Y-59803917D01*
X126020601Y-59803923D01*
X126001785Y-60006996D01*
X126001785Y-60007003D01*
X112972215Y-60007003D01*
X112972215Y-60006996D01*
X112953398Y-59803923D01*
X112953397Y-59803917D01*
X112931708Y-59727690D01*
X112897582Y-59607750D01*
X112806673Y-59425179D01*
X112806670Y-59425175D01*
X112806670Y-59425174D01*
X112683765Y-59262421D01*
X112683764Y-59262420D01*
X112533041Y-59125019D01*
X112491264Y-59099152D01*
X112359637Y-59017652D01*
X112206947Y-58958500D01*
X112169459Y-58943977D01*
X112169458Y-58943976D01*
X112169456Y-58943976D01*
X112081407Y-58927516D01*
X111968979Y-58906500D01*
X111968976Y-58906500D01*
X111765024Y-58906500D01*
X111765020Y-58906500D01*
X111615116Y-58934522D01*
X111564544Y-58943976D01*
X111564542Y-58943976D01*
X111564540Y-58943977D01*
X111403836Y-59006234D01*
X111374363Y-59017652D01*
X111374358Y-59017654D01*
X111374358Y-59017655D01*
X111200958Y-59125019D01*
X111200957Y-59125019D01*
X111050235Y-59262420D01*
X111050234Y-59262421D01*
X110927329Y-59425174D01*
X110927328Y-59425177D01*
X110836418Y-59607750D01*
X110836416Y-59607755D01*
X110780602Y-59803917D01*
X110780601Y-59803923D01*
X110761785Y-60006996D01*
X110761785Y-60007003D01*
X104012215Y-60007003D01*
X104012215Y-60006996D01*
X103993398Y-59803923D01*
X103993397Y-59803917D01*
X103971708Y-59727690D01*
X103937582Y-59607750D01*
X103846673Y-59425179D01*
X103846670Y-59425175D01*
X103846670Y-59425174D01*
X103723765Y-59262421D01*
X103723764Y-59262420D01*
X103573041Y-59125019D01*
X103531264Y-59099152D01*
X103399637Y-59017652D01*
X103246947Y-58958500D01*
X103209459Y-58943977D01*
X103209458Y-58943976D01*
X103209456Y-58943976D01*
X103121407Y-58927516D01*
X103008979Y-58906500D01*
X103008976Y-58906500D01*
X102805024Y-58906500D01*
X102805020Y-58906500D01*
X102655116Y-58934522D01*
X102604544Y-58943976D01*
X102604542Y-58943976D01*
X102604540Y-58943977D01*
X102443836Y-59006234D01*
X102414363Y-59017652D01*
X102414358Y-59017654D01*
X102414358Y-59017655D01*
X102240958Y-59125019D01*
X102240957Y-59125019D01*
X102207368Y-59155640D01*
X102160552Y-59174891D01*
X102112315Y-59159545D01*
X102085228Y-59116783D01*
X102091965Y-59066614D01*
X102096615Y-59058915D01*
X102108620Y-59041523D01*
X102108621Y-59041521D01*
X102135569Y-58970463D01*
X102164637Y-58893818D01*
X102175825Y-58801677D01*
X102183678Y-58737003D01*
X102183678Y-58736996D01*
X102164638Y-58580191D01*
X102164637Y-58580182D01*
X102108620Y-58432477D01*
X102096614Y-58415083D01*
X102083842Y-58366102D01*
X102105542Y-58320370D01*
X102151561Y-58299286D01*
X102200366Y-58312715D01*
X102207362Y-58318353D01*
X102240959Y-58348981D01*
X102414363Y-58456348D01*
X102604544Y-58530024D01*
X102805024Y-58567500D01*
X102805026Y-58567500D01*
X103008974Y-58567500D01*
X103008976Y-58567500D01*
X103209456Y-58530024D01*
X103399637Y-58456348D01*
X103573041Y-58348981D01*
X103723764Y-58211579D01*
X103732662Y-58199797D01*
X103846670Y-58048825D01*
X103846670Y-58048824D01*
X103846673Y-58048821D01*
X103937582Y-57866250D01*
X103993397Y-57670083D01*
X103998751Y-57612310D01*
X104012215Y-57467003D01*
X110761785Y-57467003D01*
X110780601Y-57670076D01*
X110780602Y-57670082D01*
X110826110Y-57830023D01*
X110836418Y-57866250D01*
X110927327Y-58048821D01*
X110927328Y-58048822D01*
X110927329Y-58048825D01*
X111050234Y-58211578D01*
X111050235Y-58211579D01*
X111084240Y-58242578D01*
X111200959Y-58348981D01*
X111374363Y-58456348D01*
X111564544Y-58530024D01*
X111765024Y-58567500D01*
X111765026Y-58567500D01*
X111968974Y-58567500D01*
X111968976Y-58567500D01*
X112169456Y-58530024D01*
X112359637Y-58456348D01*
X112533041Y-58348981D01*
X112683764Y-58211579D01*
X112692662Y-58199797D01*
X112806670Y-58048825D01*
X112806670Y-58048824D01*
X112806673Y-58048821D01*
X112897582Y-57866250D01*
X112953397Y-57670083D01*
X112958751Y-57612310D01*
X112972215Y-57467003D01*
X126001785Y-57467003D01*
X126020601Y-57670076D01*
X126020602Y-57670082D01*
X126066110Y-57830023D01*
X126076418Y-57866250D01*
X126167327Y-58048821D01*
X126167328Y-58048822D01*
X126167329Y-58048825D01*
X126290234Y-58211578D01*
X126290235Y-58211579D01*
X126324240Y-58242578D01*
X126440959Y-58348981D01*
X126614363Y-58456348D01*
X126804544Y-58530024D01*
X127005024Y-58567500D01*
X127005026Y-58567500D01*
X127208974Y-58567500D01*
X127208976Y-58567500D01*
X127409456Y-58530024D01*
X127599637Y-58456348D01*
X127773041Y-58348981D01*
X127923764Y-58211579D01*
X127932662Y-58199797D01*
X128046670Y-58048825D01*
X128046670Y-58048824D01*
X128046673Y-58048821D01*
X128137582Y-57866250D01*
X128193397Y-57670083D01*
X128198751Y-57612310D01*
X128212215Y-57467003D01*
X128212215Y-57466996D01*
X128193398Y-57263923D01*
X128193397Y-57263917D01*
X128147865Y-57103891D01*
X128137582Y-57067750D01*
X128046673Y-56885179D01*
X128046670Y-56885175D01*
X128046670Y-56885174D01*
X127923765Y-56722421D01*
X127923764Y-56722420D01*
X127773041Y-56585019D01*
X127599637Y-56477652D01*
X127409456Y-56403976D01*
X127321407Y-56387516D01*
X127208979Y-56366500D01*
X127208976Y-56366500D01*
X127005024Y-56366500D01*
X127005020Y-56366500D01*
X126855116Y-56394522D01*
X126804544Y-56403976D01*
X126804542Y-56403976D01*
X126804540Y-56403977D01*
X126614368Y-56477650D01*
X126614363Y-56477652D01*
X126614358Y-56477654D01*
X126614358Y-56477655D01*
X126440958Y-56585019D01*
X126440957Y-56585019D01*
X126290235Y-56722420D01*
X126290234Y-56722421D01*
X126167329Y-56885174D01*
X126167328Y-56885177D01*
X126167327Y-56885178D01*
X126167327Y-56885179D01*
X126154363Y-56911215D01*
X126076418Y-57067750D01*
X126076416Y-57067755D01*
X126020602Y-57263917D01*
X126020601Y-57263923D01*
X126001785Y-57466996D01*
X126001785Y-57467003D01*
X112972215Y-57467003D01*
X112972215Y-57466996D01*
X112953398Y-57263923D01*
X112953397Y-57263917D01*
X112907865Y-57103891D01*
X112897582Y-57067750D01*
X112806673Y-56885179D01*
X112806670Y-56885175D01*
X112806670Y-56885174D01*
X112683765Y-56722421D01*
X112683764Y-56722420D01*
X112533041Y-56585019D01*
X112359637Y-56477652D01*
X112169456Y-56403976D01*
X112081407Y-56387516D01*
X111968979Y-56366500D01*
X111968976Y-56366500D01*
X111765024Y-56366500D01*
X111765020Y-56366500D01*
X111615116Y-56394522D01*
X111564544Y-56403976D01*
X111564542Y-56403976D01*
X111564540Y-56403977D01*
X111374368Y-56477650D01*
X111374363Y-56477652D01*
X111374358Y-56477654D01*
X111374358Y-56477655D01*
X111200958Y-56585019D01*
X111200957Y-56585019D01*
X111050235Y-56722420D01*
X111050234Y-56722421D01*
X110927329Y-56885174D01*
X110927328Y-56885177D01*
X110927327Y-56885178D01*
X110927327Y-56885179D01*
X110914363Y-56911215D01*
X110836418Y-57067750D01*
X110836416Y-57067755D01*
X110780602Y-57263917D01*
X110780601Y-57263923D01*
X110761785Y-57466996D01*
X110761785Y-57467003D01*
X104012215Y-57467003D01*
X104012215Y-57466996D01*
X103993398Y-57263923D01*
X103993397Y-57263917D01*
X103947865Y-57103891D01*
X103937582Y-57067750D01*
X103846673Y-56885179D01*
X103846670Y-56885175D01*
X103846670Y-56885174D01*
X103723765Y-56722421D01*
X103723764Y-56722420D01*
X103573041Y-56585019D01*
X103399637Y-56477652D01*
X103209456Y-56403976D01*
X103121407Y-56387516D01*
X103008979Y-56366500D01*
X103008976Y-56366500D01*
X102805024Y-56366500D01*
X102805020Y-56366500D01*
X102655116Y-56394522D01*
X102604544Y-56403976D01*
X102604542Y-56403976D01*
X102604540Y-56403977D01*
X102414368Y-56477650D01*
X102414363Y-56477652D01*
X102414358Y-56477654D01*
X102414358Y-56477655D01*
X102240958Y-56585019D01*
X102240957Y-56585019D01*
X102090235Y-56722420D01*
X102090234Y-56722421D01*
X101967329Y-56885174D01*
X101967328Y-56885177D01*
X101967327Y-56885178D01*
X101967327Y-56885179D01*
X101954363Y-56911215D01*
X101876418Y-57067750D01*
X101876416Y-57067755D01*
X101820602Y-57263917D01*
X101820601Y-57263923D01*
X101801785Y-57466996D01*
X101801785Y-57467003D01*
X101820601Y-57670076D01*
X101820602Y-57670082D01*
X101866110Y-57830023D01*
X101876418Y-57866250D01*
X101967327Y-58048821D01*
X101967328Y-58048822D01*
X101967329Y-58048824D01*
X101998328Y-58089873D01*
X102013178Y-58138265D01*
X101993447Y-58184880D01*
X101948369Y-58207907D01*
X101905514Y-58198059D01*
X101904603Y-58199797D01*
X101760766Y-58124304D01*
X101607387Y-58086500D01*
X101607385Y-58086500D01*
X101449415Y-58086500D01*
X101449412Y-58086500D01*
X101296033Y-58124304D01*
X101156161Y-58197716D01*
X101037916Y-58302470D01*
X100948179Y-58432478D01*
X100948178Y-58432478D01*
X100892164Y-58580177D01*
X100892161Y-58580191D01*
X100873122Y-58736996D01*
X100873122Y-58737003D01*
X84095969Y-58737003D01*
X84083423Y-58703922D01*
X84080221Y-58695478D01*
X83990483Y-58565470D01*
X83950470Y-58530022D01*
X83872240Y-58460717D01*
X83860139Y-58454366D01*
X83732366Y-58387304D01*
X83578987Y-58349500D01*
X83578985Y-58349500D01*
X83421015Y-58349500D01*
X83421012Y-58349500D01*
X83267633Y-58387304D01*
X83127761Y-58460716D01*
X83009516Y-58565470D01*
X82919779Y-58695478D01*
X82919778Y-58695478D01*
X82863764Y-58843177D01*
X82863761Y-58843191D01*
X82844722Y-58999996D01*
X82844722Y-59000003D01*
X82247574Y-59000003D01*
X82240967Y-58985835D01*
X82241225Y-58970463D01*
X82242678Y-58958499D01*
X82242678Y-58958496D01*
X82223638Y-58801691D01*
X82223637Y-58801682D01*
X82199108Y-58737003D01*
X82167621Y-58653978D01*
X82077883Y-58523970D01*
X82006483Y-58460716D01*
X81959640Y-58419217D01*
X81898836Y-58387304D01*
X81819766Y-58345804D01*
X81666387Y-58308000D01*
X81666385Y-58308000D01*
X81508415Y-58308000D01*
X81508412Y-58308000D01*
X81355033Y-58345804D01*
X81215161Y-58419216D01*
X81096916Y-58523970D01*
X81007179Y-58653978D01*
X81007178Y-58653978D01*
X80951164Y-58801677D01*
X80951161Y-58801691D01*
X80937060Y-58917820D01*
X80914140Y-58962953D01*
X80867572Y-58982793D01*
X80819145Y-58968058D01*
X80811274Y-58961226D01*
X80048620Y-58198572D01*
X80023598Y-58185823D01*
X80013697Y-58179755D01*
X79990982Y-58163251D01*
X79976539Y-58158558D01*
X79964271Y-58154572D01*
X79953551Y-58150132D01*
X79928526Y-58137381D01*
X79928525Y-58137380D01*
X79928524Y-58137380D01*
X79900789Y-58132988D01*
X79889497Y-58130277D01*
X79862794Y-58121600D01*
X79862793Y-58121600D01*
X79828888Y-58121600D01*
X78942240Y-58121600D01*
X78894674Y-58104287D01*
X78893169Y-58102990D01*
X78878363Y-58089873D01*
X78785740Y-58007817D01*
X78694689Y-57960029D01*
X78645866Y-57934404D01*
X78492487Y-57896600D01*
X78492485Y-57896600D01*
X78334515Y-57896600D01*
X78334512Y-57896600D01*
X78181133Y-57934404D01*
X78041261Y-58007816D01*
X77923016Y-58112570D01*
X77833279Y-58242578D01*
X77833278Y-58242578D01*
X77777264Y-58390277D01*
X77777261Y-58390291D01*
X77758222Y-58547096D01*
X77758222Y-58547103D01*
X71774529Y-58547103D01*
X71770338Y-58512591D01*
X71770337Y-58512582D01*
X71749009Y-58456344D01*
X71714321Y-58364878D01*
X71624583Y-58234870D01*
X71610672Y-58222546D01*
X71506340Y-58130117D01*
X71490112Y-58121600D01*
X71366466Y-58056704D01*
X71213087Y-58018900D01*
X71213085Y-58018900D01*
X71055115Y-58018900D01*
X71055112Y-58018900D01*
X70901733Y-58056704D01*
X70761861Y-58130116D01*
X70643616Y-58234870D01*
X70553879Y-58364878D01*
X70553878Y-58364878D01*
X70497864Y-58512577D01*
X70497861Y-58512591D01*
X70478822Y-58669396D01*
X70478822Y-58669403D01*
X65911145Y-58669403D01*
X67791774Y-56788774D01*
X67837650Y-56767382D01*
X67844100Y-56767100D01*
X71818633Y-56767100D01*
X71866199Y-56784413D01*
X71891509Y-56828250D01*
X71882719Y-56878100D01*
X71843942Y-56910637D01*
X71837387Y-56912631D01*
X71836935Y-56912803D01*
X71697061Y-56986216D01*
X71578816Y-57090970D01*
X71489079Y-57220978D01*
X71489078Y-57220978D01*
X71433064Y-57368677D01*
X71433061Y-57368691D01*
X71414022Y-57525496D01*
X71414022Y-57525503D01*
X71433061Y-57682308D01*
X71433064Y-57682322D01*
X71489078Y-57830021D01*
X71578816Y-57960029D01*
X71578817Y-57960030D01*
X71697060Y-58064783D01*
X71836935Y-58138196D01*
X71990315Y-58176000D01*
X71990319Y-58176000D01*
X72148281Y-58176000D01*
X72148285Y-58176000D01*
X72301665Y-58138196D01*
X72441540Y-58064783D01*
X72559783Y-57960030D01*
X72649520Y-57830023D01*
X72654312Y-57817389D01*
X72700640Y-57695230D01*
X72705537Y-57682318D01*
X72724578Y-57525500D01*
X72717475Y-57467003D01*
X72705538Y-57368691D01*
X72705537Y-57368682D01*
X72697513Y-57347525D01*
X72649521Y-57220978D01*
X72559783Y-57090970D01*
X72533573Y-57067750D01*
X72441540Y-56986217D01*
X72428294Y-56979265D01*
X72301664Y-56912803D01*
X72297477Y-56911215D01*
X72297921Y-56910042D01*
X72260217Y-56884757D01*
X72246134Y-56836137D01*
X72266598Y-56789839D01*
X72312034Y-56767526D01*
X72319967Y-56767100D01*
X76526395Y-56767100D01*
X76573961Y-56784413D01*
X76599271Y-56828250D01*
X76590481Y-56878100D01*
X76587299Y-56883131D01*
X76585890Y-56885174D01*
X76536879Y-56956178D01*
X76536878Y-56956178D01*
X76480864Y-57103877D01*
X76480861Y-57103891D01*
X76461822Y-57260696D01*
X76461822Y-57260703D01*
X76480861Y-57417508D01*
X76480864Y-57417522D01*
X76536878Y-57565221D01*
X76617707Y-57682322D01*
X76626617Y-57695230D01*
X76744860Y-57799983D01*
X76884735Y-57873396D01*
X77038115Y-57911200D01*
X77038119Y-57911200D01*
X77196081Y-57911200D01*
X77196085Y-57911200D01*
X77349465Y-57873396D01*
X77489340Y-57799983D01*
X77607583Y-57695230D01*
X77697320Y-57565223D01*
X77734570Y-57467003D01*
X86561785Y-57467003D01*
X86580601Y-57670076D01*
X86580602Y-57670082D01*
X86626110Y-57830023D01*
X86636418Y-57866250D01*
X86727327Y-58048821D01*
X86727328Y-58048822D01*
X86727329Y-58048825D01*
X86850234Y-58211578D01*
X86850235Y-58211579D01*
X86884240Y-58242578D01*
X87000959Y-58348981D01*
X87174363Y-58456348D01*
X87364544Y-58530024D01*
X87565024Y-58567500D01*
X87565026Y-58567500D01*
X87768974Y-58567500D01*
X87768976Y-58567500D01*
X87969456Y-58530024D01*
X88159637Y-58456348D01*
X88333041Y-58348981D01*
X88483764Y-58211579D01*
X88492662Y-58199797D01*
X88606670Y-58048825D01*
X88606670Y-58048824D01*
X88606673Y-58048821D01*
X88697582Y-57866250D01*
X88753397Y-57670083D01*
X88758751Y-57612310D01*
X88772215Y-57467003D01*
X88772215Y-57466996D01*
X88753398Y-57263923D01*
X88753397Y-57263917D01*
X88707865Y-57103891D01*
X88697582Y-57067750D01*
X88606673Y-56885179D01*
X88606670Y-56885175D01*
X88606670Y-56885174D01*
X88483765Y-56722421D01*
X88483764Y-56722420D01*
X88333041Y-56585019D01*
X88159637Y-56477652D01*
X87969456Y-56403976D01*
X87881407Y-56387516D01*
X87768979Y-56366500D01*
X87768976Y-56366500D01*
X87565024Y-56366500D01*
X87565020Y-56366500D01*
X87415116Y-56394522D01*
X87364544Y-56403976D01*
X87364542Y-56403976D01*
X87364540Y-56403977D01*
X87174368Y-56477650D01*
X87174363Y-56477652D01*
X87174358Y-56477654D01*
X87174358Y-56477655D01*
X87000958Y-56585019D01*
X87000957Y-56585019D01*
X86850235Y-56722420D01*
X86850234Y-56722421D01*
X86727329Y-56885174D01*
X86727328Y-56885177D01*
X86727327Y-56885178D01*
X86727327Y-56885179D01*
X86714363Y-56911215D01*
X86636418Y-57067750D01*
X86636416Y-57067755D01*
X86580602Y-57263917D01*
X86580601Y-57263923D01*
X86561785Y-57466996D01*
X86561785Y-57467003D01*
X77734570Y-57467003D01*
X77753337Y-57417518D01*
X77771987Y-57263923D01*
X77772378Y-57260703D01*
X77772378Y-57260696D01*
X77753338Y-57103891D01*
X77753337Y-57103882D01*
X77708713Y-56986217D01*
X77697321Y-56956178D01*
X77648310Y-56885174D01*
X77646903Y-56883136D01*
X77634132Y-56834156D01*
X77655831Y-56788424D01*
X77701850Y-56767340D01*
X77707805Y-56767100D01*
X85192891Y-56767100D01*
X85192893Y-56767100D01*
X85219608Y-56758418D01*
X85230874Y-56755713D01*
X85258626Y-56751319D01*
X85283656Y-56738564D01*
X85294369Y-56734127D01*
X85321081Y-56725449D01*
X85343794Y-56708946D01*
X85353699Y-56702876D01*
X85358113Y-56700626D01*
X85378720Y-56690128D01*
X85474028Y-56594820D01*
X86598989Y-55469857D01*
X86644864Y-55448466D01*
X86693759Y-55461567D01*
X86717555Y-55489198D01*
X86727324Y-55508817D01*
X86727329Y-55508825D01*
X86850234Y-55671578D01*
X86850235Y-55671579D01*
X86971419Y-55782052D01*
X87000959Y-55808981D01*
X87174363Y-55916348D01*
X87364544Y-55990024D01*
X87565024Y-56027500D01*
X87565026Y-56027500D01*
X87768974Y-56027500D01*
X87768976Y-56027500D01*
X87969456Y-55990024D01*
X88159637Y-55916348D01*
X88333041Y-55808981D01*
X88483764Y-55671579D01*
X88508815Y-55638407D01*
X88606670Y-55508825D01*
X88606670Y-55508824D01*
X88606673Y-55508821D01*
X88697582Y-55326250D01*
X88753397Y-55130083D01*
X88753487Y-55129118D01*
X88772215Y-54927003D01*
X101801785Y-54927003D01*
X101820601Y-55130076D01*
X101820602Y-55130082D01*
X101876416Y-55326244D01*
X101876418Y-55326250D01*
X101967327Y-55508821D01*
X101967328Y-55508822D01*
X101967329Y-55508825D01*
X102090234Y-55671578D01*
X102090235Y-55671579D01*
X102211419Y-55782052D01*
X102240959Y-55808981D01*
X102414363Y-55916348D01*
X102604544Y-55990024D01*
X102805024Y-56027500D01*
X102805026Y-56027500D01*
X103008974Y-56027500D01*
X103008976Y-56027500D01*
X103209456Y-55990024D01*
X103399637Y-55916348D01*
X103573041Y-55808981D01*
X103723764Y-55671579D01*
X103748815Y-55638407D01*
X103846670Y-55508825D01*
X103846670Y-55508824D01*
X103846673Y-55508821D01*
X103937582Y-55326250D01*
X103993397Y-55130083D01*
X103993487Y-55129118D01*
X104012215Y-54927003D01*
X110761785Y-54927003D01*
X110780601Y-55130076D01*
X110780602Y-55130082D01*
X110836416Y-55326244D01*
X110836418Y-55326250D01*
X110927327Y-55508821D01*
X110927328Y-55508822D01*
X110927329Y-55508825D01*
X111050234Y-55671578D01*
X111050235Y-55671579D01*
X111171419Y-55782052D01*
X111200959Y-55808981D01*
X111374363Y-55916348D01*
X111564544Y-55990024D01*
X111765024Y-56027500D01*
X111765026Y-56027500D01*
X111968974Y-56027500D01*
X111968976Y-56027500D01*
X112169456Y-55990024D01*
X112359637Y-55916348D01*
X112533041Y-55808981D01*
X112683764Y-55671579D01*
X112708815Y-55638407D01*
X112806670Y-55508825D01*
X112806670Y-55508824D01*
X112806673Y-55508821D01*
X112897582Y-55326250D01*
X112953397Y-55130083D01*
X112953487Y-55129118D01*
X112972215Y-54927003D01*
X126001785Y-54927003D01*
X126020601Y-55130076D01*
X126020602Y-55130082D01*
X126076416Y-55326244D01*
X126076418Y-55326250D01*
X126167327Y-55508821D01*
X126167328Y-55508822D01*
X126167329Y-55508825D01*
X126290234Y-55671578D01*
X126290235Y-55671579D01*
X126411419Y-55782052D01*
X126440959Y-55808981D01*
X126614363Y-55916348D01*
X126804544Y-55990024D01*
X127005024Y-56027500D01*
X127005026Y-56027500D01*
X127208974Y-56027500D01*
X127208976Y-56027500D01*
X127409456Y-55990024D01*
X127599637Y-55916348D01*
X127773041Y-55808981D01*
X127923764Y-55671579D01*
X127948815Y-55638407D01*
X128046670Y-55508825D01*
X128046670Y-55508824D01*
X128046673Y-55508821D01*
X128137582Y-55326250D01*
X128193397Y-55130083D01*
X128193487Y-55129118D01*
X128212215Y-54927003D01*
X128212215Y-54926996D01*
X128193398Y-54723923D01*
X128193397Y-54723917D01*
X128177424Y-54667778D01*
X128137582Y-54527750D01*
X128046673Y-54345179D01*
X128046670Y-54345175D01*
X128046670Y-54345174D01*
X127923765Y-54182421D01*
X127923764Y-54182420D01*
X127773041Y-54045019D01*
X127681000Y-53988030D01*
X127599637Y-53937652D01*
X127409456Y-53863976D01*
X127321407Y-53847516D01*
X127208979Y-53826500D01*
X127208976Y-53826500D01*
X127005024Y-53826500D01*
X127005020Y-53826500D01*
X126855116Y-53854522D01*
X126804544Y-53863976D01*
X126804542Y-53863976D01*
X126804540Y-53863977D01*
X126614368Y-53937650D01*
X126614363Y-53937652D01*
X126614358Y-53937654D01*
X126614358Y-53937655D01*
X126440958Y-54045019D01*
X126440957Y-54045019D01*
X126290235Y-54182420D01*
X126290234Y-54182421D01*
X126167329Y-54345174D01*
X126167328Y-54345177D01*
X126076418Y-54527750D01*
X126076416Y-54527755D01*
X126020602Y-54723917D01*
X126020601Y-54723923D01*
X126001785Y-54926996D01*
X126001785Y-54927003D01*
X112972215Y-54927003D01*
X112972215Y-54926996D01*
X112953398Y-54723923D01*
X112953397Y-54723917D01*
X112937424Y-54667778D01*
X112897582Y-54527750D01*
X112806673Y-54345179D01*
X112806670Y-54345175D01*
X112806670Y-54345174D01*
X112683765Y-54182421D01*
X112683764Y-54182420D01*
X112533041Y-54045019D01*
X112441000Y-53988030D01*
X112359637Y-53937652D01*
X112169456Y-53863976D01*
X112081407Y-53847516D01*
X111968979Y-53826500D01*
X111968976Y-53826500D01*
X111765024Y-53826500D01*
X111765020Y-53826500D01*
X111615116Y-53854522D01*
X111564544Y-53863976D01*
X111564542Y-53863976D01*
X111564540Y-53863977D01*
X111374368Y-53937650D01*
X111374363Y-53937652D01*
X111374358Y-53937654D01*
X111374358Y-53937655D01*
X111200958Y-54045019D01*
X111200957Y-54045019D01*
X111050235Y-54182420D01*
X111050234Y-54182421D01*
X110927329Y-54345174D01*
X110927328Y-54345177D01*
X110836418Y-54527750D01*
X110836416Y-54527755D01*
X110780602Y-54723917D01*
X110780601Y-54723923D01*
X110761785Y-54926996D01*
X110761785Y-54927003D01*
X104012215Y-54927003D01*
X104012215Y-54926996D01*
X103993398Y-54723923D01*
X103993397Y-54723917D01*
X103977424Y-54667778D01*
X103937582Y-54527750D01*
X103846673Y-54345179D01*
X103846670Y-54345175D01*
X103846670Y-54345174D01*
X103723765Y-54182421D01*
X103723764Y-54182420D01*
X103573041Y-54045019D01*
X103481000Y-53988030D01*
X103399637Y-53937652D01*
X103209456Y-53863976D01*
X103121407Y-53847516D01*
X103008979Y-53826500D01*
X103008976Y-53826500D01*
X102805024Y-53826500D01*
X102805020Y-53826500D01*
X102655116Y-53854522D01*
X102604544Y-53863976D01*
X102604542Y-53863976D01*
X102604540Y-53863977D01*
X102414368Y-53937650D01*
X102414363Y-53937652D01*
X102414358Y-53937654D01*
X102414358Y-53937655D01*
X102240958Y-54045019D01*
X102240957Y-54045019D01*
X102090235Y-54182420D01*
X102090234Y-54182421D01*
X101967329Y-54345174D01*
X101967328Y-54345177D01*
X101876418Y-54527750D01*
X101876416Y-54527755D01*
X101820602Y-54723917D01*
X101820601Y-54723923D01*
X101801785Y-54926996D01*
X101801785Y-54927003D01*
X88772215Y-54927003D01*
X88772215Y-54926996D01*
X88753398Y-54723923D01*
X88753397Y-54723917D01*
X88737424Y-54667778D01*
X88697582Y-54527750D01*
X88606673Y-54345179D01*
X88606670Y-54345175D01*
X88606670Y-54345174D01*
X88483765Y-54182421D01*
X88483764Y-54182420D01*
X88333041Y-54045019D01*
X88241000Y-53988030D01*
X88159637Y-53937652D01*
X87969456Y-53863976D01*
X87881407Y-53847516D01*
X87768979Y-53826500D01*
X87768976Y-53826500D01*
X87565024Y-53826500D01*
X87565020Y-53826500D01*
X87415116Y-53854522D01*
X87364544Y-53863976D01*
X87364542Y-53863976D01*
X87364540Y-53863977D01*
X87174368Y-53937650D01*
X87174363Y-53937652D01*
X87174358Y-53937654D01*
X87174358Y-53937655D01*
X87000958Y-54045019D01*
X87000957Y-54045019D01*
X86850235Y-54182420D01*
X86850234Y-54182421D01*
X86727329Y-54345174D01*
X86727328Y-54345177D01*
X86727327Y-54345178D01*
X86727327Y-54345179D01*
X86678815Y-54442606D01*
X86669912Y-54460485D01*
X86633212Y-54495347D01*
X86603670Y-54501500D01*
X86472707Y-54501500D01*
X86446550Y-54509998D01*
X86446001Y-54510177D01*
X86434713Y-54512887D01*
X86406972Y-54517281D01*
X86381951Y-54530029D01*
X86371229Y-54534470D01*
X86344520Y-54543149D01*
X86344519Y-54543150D01*
X86321801Y-54559655D01*
X86311904Y-54565720D01*
X86286880Y-54578471D01*
X84970926Y-55894426D01*
X84925050Y-55915818D01*
X84918600Y-55916100D01*
X71066571Y-55916100D01*
X71019005Y-55898787D01*
X70993695Y-55854950D01*
X71001047Y-55807711D01*
X71002717Y-55804526D01*
X71002720Y-55804523D01*
X71058737Y-55656818D01*
X71076372Y-55511583D01*
X71077778Y-55500003D01*
X71077778Y-55499996D01*
X71061792Y-55368343D01*
X71058737Y-55343182D01*
X71033783Y-55277383D01*
X71002721Y-55195478D01*
X70912983Y-55065470D01*
X70844185Y-55004521D01*
X70807818Y-54972303D01*
X82025822Y-54972303D01*
X82044861Y-55129108D01*
X82044864Y-55129122D01*
X82100878Y-55276821D01*
X82151735Y-55350500D01*
X82190617Y-55406830D01*
X82308860Y-55511583D01*
X82448735Y-55584996D01*
X82602115Y-55622800D01*
X82602119Y-55622800D01*
X82760081Y-55622800D01*
X82760085Y-55622800D01*
X82913465Y-55584996D01*
X83053340Y-55511583D01*
X83171583Y-55406830D01*
X83261320Y-55276823D01*
X83317337Y-55129118D01*
X83325065Y-55065470D01*
X83336378Y-54972303D01*
X83336378Y-54972296D01*
X83317338Y-54815491D01*
X83317337Y-54815482D01*
X83309313Y-54794325D01*
X83261321Y-54667778D01*
X83171583Y-54537770D01*
X83148455Y-54517281D01*
X83053340Y-54433017D01*
X83041239Y-54426666D01*
X82913466Y-54359604D01*
X82760087Y-54321800D01*
X82760085Y-54321800D01*
X82602115Y-54321800D01*
X82602112Y-54321800D01*
X82448733Y-54359604D01*
X82308861Y-54433016D01*
X82190616Y-54537770D01*
X82100879Y-54667778D01*
X82100878Y-54667778D01*
X82044864Y-54815477D01*
X82044861Y-54815491D01*
X82025822Y-54972296D01*
X82025822Y-54972303D01*
X70807818Y-54972303D01*
X70794740Y-54960717D01*
X70782639Y-54954366D01*
X70654866Y-54887304D01*
X70501487Y-54849500D01*
X70501485Y-54849500D01*
X70343515Y-54849500D01*
X70343512Y-54849500D01*
X70190133Y-54887304D01*
X70050261Y-54960716D01*
X69932016Y-55065470D01*
X69842279Y-55195478D01*
X69842278Y-55195478D01*
X69786264Y-55343177D01*
X69786261Y-55343191D01*
X69767222Y-55499996D01*
X69767222Y-55500003D01*
X69786261Y-55656808D01*
X69786264Y-55656822D01*
X69842278Y-55804520D01*
X69843953Y-55807711D01*
X69850728Y-55857875D01*
X69823673Y-55900657D01*
X69778429Y-55916100D01*
X67704593Y-55916100D01*
X67569807Y-55916100D01*
X67555365Y-55920792D01*
X67543101Y-55924777D01*
X67531813Y-55927487D01*
X67504072Y-55931881D01*
X67504070Y-55931881D01*
X67479048Y-55944631D01*
X67468324Y-55949073D01*
X67441620Y-55957750D01*
X67441616Y-55957752D01*
X67418895Y-55974259D01*
X67408999Y-55980323D01*
X67383982Y-55993070D01*
X67383978Y-55993073D01*
X64451072Y-58925979D01*
X64438324Y-58950999D01*
X64432259Y-58960896D01*
X64415753Y-58983615D01*
X64415750Y-58983621D01*
X64407073Y-59010324D01*
X64402631Y-59021048D01*
X64389881Y-59046070D01*
X64389881Y-59046072D01*
X64385487Y-59073813D01*
X64382777Y-59085101D01*
X64374100Y-59111807D01*
X64374100Y-65616793D01*
X64382777Y-65643497D01*
X64385488Y-65654789D01*
X64389880Y-65682524D01*
X64402630Y-65707546D01*
X64407072Y-65718271D01*
X64411058Y-65730539D01*
X64415751Y-65744982D01*
X64432255Y-65767697D01*
X64438323Y-65777598D01*
X64451072Y-65802620D01*
X65915656Y-67267204D01*
X65937048Y-67313080D01*
X65923947Y-67361975D01*
X65897721Y-67385053D01*
X65844060Y-67413217D01*
X65725816Y-67517970D01*
X65636079Y-67647978D01*
X65636078Y-67647978D01*
X65580064Y-67795677D01*
X65580061Y-67795691D01*
X65561022Y-67952496D01*
X65561022Y-67952497D01*
X65562475Y-67964467D01*
X65551020Y-68013773D01*
X65541340Y-68025711D01*
X64058771Y-69508280D01*
X63973872Y-69593178D01*
X63961124Y-69618199D01*
X63955059Y-69628096D01*
X63938553Y-69650815D01*
X63938550Y-69650821D01*
X63929873Y-69677524D01*
X63925431Y-69688248D01*
X63912681Y-69713270D01*
X63912681Y-69713272D01*
X63908287Y-69741013D01*
X63905577Y-69752301D01*
X63896900Y-69779007D01*
X63896900Y-80071793D01*
X55854285Y-80071793D01*
X55647322Y-62480003D01*
X57132571Y-62480003D01*
X57152242Y-62692303D01*
X57152243Y-62692309D01*
X57210593Y-62897383D01*
X57210596Y-62897393D01*
X57305632Y-63088252D01*
X57305634Y-63088255D01*
X57434128Y-63258407D01*
X57591698Y-63402052D01*
X57772981Y-63514298D01*
X57971802Y-63591321D01*
X58181390Y-63630500D01*
X58394610Y-63630500D01*
X58604198Y-63591321D01*
X58803019Y-63514298D01*
X58984302Y-63402052D01*
X59141872Y-63258407D01*
X59270366Y-63088255D01*
X59365405Y-62897389D01*
X59423756Y-62692310D01*
X59424462Y-62684700D01*
X59443429Y-62480003D01*
X59443429Y-62479996D01*
X59423757Y-62267696D01*
X59423756Y-62267690D01*
X59401942Y-62191022D01*
X59365405Y-62062611D01*
X59351258Y-62034200D01*
X59270367Y-61871747D01*
X59270363Y-61871741D01*
X59242624Y-61835009D01*
X59141872Y-61701593D01*
X59118318Y-61680121D01*
X59062044Y-61628820D01*
X58984302Y-61557948D01*
X58803019Y-61445702D01*
X58622071Y-61375603D01*
X58604201Y-61368680D01*
X58604200Y-61368679D01*
X58604198Y-61368679D01*
X58512150Y-61351472D01*
X58394613Y-61329500D01*
X58394610Y-61329500D01*
X58181390Y-61329500D01*
X58181386Y-61329500D01*
X58024670Y-61358796D01*
X57971802Y-61368679D01*
X57971800Y-61368679D01*
X57971798Y-61368680D01*
X57811964Y-61430600D01*
X57772981Y-61445702D01*
X57772976Y-61445704D01*
X57772976Y-61445705D01*
X57591700Y-61557946D01*
X57434130Y-61701590D01*
X57305636Y-61871741D01*
X57305632Y-61871747D01*
X57210596Y-62062606D01*
X57210593Y-62062616D01*
X57152243Y-62267690D01*
X57152242Y-62267696D01*
X57132571Y-62479996D01*
X57132571Y-62480003D01*
X55647322Y-62480003D01*
X55617440Y-59940003D01*
X57132571Y-59940003D01*
X57152242Y-60152303D01*
X57152243Y-60152309D01*
X57210593Y-60357383D01*
X57210596Y-60357393D01*
X57305632Y-60548252D01*
X57305634Y-60548255D01*
X57434128Y-60718407D01*
X57591698Y-60862052D01*
X57772981Y-60974298D01*
X57971802Y-61051321D01*
X58181390Y-61090500D01*
X58394610Y-61090500D01*
X58604198Y-61051321D01*
X58803019Y-60974298D01*
X58984302Y-60862052D01*
X59141872Y-60718407D01*
X59270366Y-60548255D01*
X59365405Y-60357389D01*
X59423756Y-60152310D01*
X59425861Y-60129600D01*
X59443429Y-59940003D01*
X59443429Y-59939996D01*
X59423757Y-59727696D01*
X59423756Y-59727690D01*
X59391037Y-59612696D01*
X59365405Y-59522611D01*
X59321546Y-59434530D01*
X59270367Y-59331747D01*
X59270363Y-59331741D01*
X59228586Y-59276420D01*
X59141872Y-59161593D01*
X59139625Y-59159545D01*
X59051889Y-59079562D01*
X58984302Y-59017948D01*
X58803019Y-58905702D01*
X58604198Y-58828679D01*
X58512150Y-58811472D01*
X58394613Y-58789500D01*
X58394610Y-58789500D01*
X58181390Y-58789500D01*
X58181386Y-58789500D01*
X58024670Y-58818796D01*
X57971802Y-58828679D01*
X57971800Y-58828679D01*
X57971798Y-58828680D01*
X57803683Y-58893808D01*
X57772981Y-58905702D01*
X57772976Y-58905704D01*
X57772976Y-58905705D01*
X57591700Y-59017946D01*
X57434130Y-59161590D01*
X57305636Y-59331741D01*
X57305632Y-59331747D01*
X57210596Y-59522606D01*
X57210593Y-59522616D01*
X57152243Y-59727690D01*
X57152242Y-59727696D01*
X57132571Y-59939996D01*
X57132571Y-59940003D01*
X55617440Y-59940003D01*
X55587558Y-57400003D01*
X57132571Y-57400003D01*
X57152242Y-57612303D01*
X57152243Y-57612309D01*
X57210593Y-57817383D01*
X57210596Y-57817393D01*
X57305632Y-58008252D01*
X57305636Y-58008258D01*
X57336271Y-58048825D01*
X57432310Y-58176000D01*
X57434130Y-58178409D01*
X57441228Y-58184880D01*
X57591698Y-58322052D01*
X57772981Y-58434298D01*
X57971802Y-58511321D01*
X58181390Y-58550500D01*
X58394610Y-58550500D01*
X58604198Y-58511321D01*
X58803019Y-58434298D01*
X58984302Y-58322052D01*
X59141872Y-58178407D01*
X59270366Y-58008255D01*
X59365405Y-57817389D01*
X59423756Y-57612310D01*
X59428120Y-57565221D01*
X59443429Y-57400003D01*
X59443429Y-57399996D01*
X59423757Y-57187696D01*
X59423756Y-57187690D01*
X59389631Y-57067755D01*
X59365405Y-56982611D01*
X59330559Y-56912631D01*
X59270367Y-56791747D01*
X59270363Y-56791741D01*
X59243842Y-56756622D01*
X59141872Y-56621593D01*
X58984302Y-56477948D01*
X58803019Y-56365702D01*
X58604198Y-56288679D01*
X58512150Y-56271472D01*
X58394613Y-56249500D01*
X58394610Y-56249500D01*
X58181390Y-56249500D01*
X58181386Y-56249500D01*
X58024670Y-56278796D01*
X57971802Y-56288679D01*
X57971800Y-56288679D01*
X57971798Y-56288680D01*
X57772986Y-56365700D01*
X57772981Y-56365702D01*
X57772976Y-56365704D01*
X57772976Y-56365705D01*
X57591700Y-56477946D01*
X57434130Y-56621590D01*
X57305636Y-56791741D01*
X57305632Y-56791747D01*
X57210596Y-56982606D01*
X57210593Y-56982616D01*
X57152243Y-57187690D01*
X57152242Y-57187696D01*
X57132571Y-57399996D01*
X57132571Y-57400003D01*
X55587558Y-57400003D01*
X55557676Y-54860003D01*
X57132571Y-54860003D01*
X57152242Y-55072303D01*
X57152243Y-55072309D01*
X57210593Y-55277383D01*
X57210596Y-55277393D01*
X57305632Y-55468252D01*
X57305636Y-55468258D01*
X57329604Y-55499996D01*
X57434128Y-55638407D01*
X57591698Y-55782052D01*
X57772981Y-55894298D01*
X57971802Y-55971321D01*
X58181390Y-56010500D01*
X58394610Y-56010500D01*
X58604198Y-55971321D01*
X58803019Y-55894298D01*
X58984302Y-55782052D01*
X59141872Y-55638407D01*
X59270366Y-55468255D01*
X59365405Y-55277389D01*
X59423756Y-55072310D01*
X59430038Y-55004523D01*
X59443429Y-54860003D01*
X59443429Y-54859996D01*
X59428604Y-54700003D01*
X67095922Y-54700003D01*
X67114961Y-54856808D01*
X67114964Y-54856822D01*
X67170978Y-55004521D01*
X67257647Y-55130083D01*
X67260717Y-55134530D01*
X67378960Y-55239283D01*
X67518835Y-55312696D01*
X67672215Y-55350500D01*
X67672219Y-55350500D01*
X67830181Y-55350500D01*
X67830185Y-55350500D01*
X67983565Y-55312696D01*
X68123440Y-55239283D01*
X68241683Y-55134530D01*
X68331420Y-55004523D01*
X68387437Y-54856818D01*
X68394488Y-54798742D01*
X68406478Y-54700003D01*
X68406478Y-54699996D01*
X68387438Y-54543191D01*
X68387437Y-54543182D01*
X68369296Y-54495347D01*
X68331421Y-54395478D01*
X68241683Y-54265470D01*
X68226193Y-54251747D01*
X68123440Y-54160717D01*
X68111339Y-54154366D01*
X67983566Y-54087304D01*
X67830187Y-54049500D01*
X67830185Y-54049500D01*
X67672215Y-54049500D01*
X67672212Y-54049500D01*
X67518833Y-54087304D01*
X67378961Y-54160716D01*
X67260716Y-54265470D01*
X67170979Y-54395478D01*
X67170978Y-54395478D01*
X67114964Y-54543177D01*
X67114961Y-54543191D01*
X67095922Y-54699996D01*
X67095922Y-54700003D01*
X59428604Y-54700003D01*
X59423757Y-54647696D01*
X59423756Y-54647690D01*
X59394011Y-54543149D01*
X59365405Y-54442611D01*
X59360627Y-54433016D01*
X59270367Y-54251747D01*
X59270363Y-54251741D01*
X59234310Y-54204000D01*
X59141872Y-54081593D01*
X58984302Y-53937948D01*
X58803019Y-53825702D01*
X58604198Y-53748679D01*
X58512150Y-53731472D01*
X58394613Y-53709500D01*
X58394610Y-53709500D01*
X58181390Y-53709500D01*
X58181386Y-53709500D01*
X58024670Y-53738796D01*
X57971802Y-53748679D01*
X57971800Y-53748679D01*
X57971798Y-53748680D01*
X57772986Y-53825700D01*
X57772981Y-53825702D01*
X57772976Y-53825704D01*
X57772976Y-53825705D01*
X57591700Y-53937946D01*
X57434130Y-54081590D01*
X57305636Y-54251741D01*
X57305632Y-54251747D01*
X57210596Y-54442606D01*
X57210593Y-54442616D01*
X57152243Y-54647690D01*
X57152242Y-54647696D01*
X57132571Y-54859996D01*
X57132571Y-54860003D01*
X55557676Y-54860003D01*
X55538321Y-53214863D01*
X57137500Y-53214863D01*
X57140414Y-53239986D01*
X57140415Y-53239992D01*
X57185794Y-53342765D01*
X57265235Y-53422206D01*
X57368009Y-53467585D01*
X57393135Y-53470500D01*
X59182864Y-53470499D01*
X59207991Y-53467585D01*
X59310765Y-53422206D01*
X59390206Y-53342765D01*
X59435585Y-53239991D01*
X59438500Y-53214865D01*
X59438500Y-53100003D01*
X67104922Y-53100003D01*
X67123961Y-53256808D01*
X67123964Y-53256822D01*
X67179978Y-53404521D01*
X67269716Y-53534529D01*
X67269717Y-53534530D01*
X67387960Y-53639283D01*
X67527835Y-53712696D01*
X67681215Y-53750500D01*
X67681219Y-53750500D01*
X67839181Y-53750500D01*
X67839185Y-53750500D01*
X67992565Y-53712696D01*
X68132440Y-53639283D01*
X68229267Y-53553503D01*
X81296722Y-53553503D01*
X81315761Y-53710308D01*
X81315764Y-53710322D01*
X81371778Y-53858021D01*
X81426948Y-53937948D01*
X81461517Y-53988030D01*
X81579760Y-54092783D01*
X81719635Y-54166196D01*
X81873015Y-54204000D01*
X81873019Y-54204000D01*
X82030981Y-54204000D01*
X82030985Y-54204000D01*
X82184365Y-54166196D01*
X82324240Y-54092783D01*
X82442483Y-53988030D01*
X82532220Y-53858023D01*
X82544479Y-53825700D01*
X82573688Y-53748680D01*
X82588237Y-53710318D01*
X82607278Y-53553500D01*
X82598910Y-53484585D01*
X82588238Y-53396691D01*
X82588237Y-53396682D01*
X82535260Y-53256992D01*
X82532221Y-53248978D01*
X82520407Y-53231863D01*
X86566500Y-53231863D01*
X86569414Y-53256986D01*
X86569415Y-53256991D01*
X86614794Y-53359765D01*
X86694235Y-53439206D01*
X86797009Y-53484585D01*
X86822135Y-53487500D01*
X88511864Y-53487499D01*
X88536991Y-53484585D01*
X88639765Y-53439206D01*
X88719206Y-53359765D01*
X88764585Y-53256991D01*
X88767500Y-53231865D01*
X88767500Y-52512001D01*
X101713441Y-52512001D01*
X101722377Y-52608438D01*
X101783237Y-52822342D01*
X101783239Y-52822346D01*
X101882368Y-53021426D01*
X101882370Y-53021428D01*
X102016392Y-53198900D01*
X102180742Y-53348724D01*
X102369817Y-53465794D01*
X102369827Y-53465799D01*
X102577195Y-53546135D01*
X102782000Y-53584418D01*
X102782000Y-52772188D01*
X102875519Y-52787000D01*
X102938481Y-52787000D01*
X103032000Y-52772188D01*
X103032000Y-53584418D01*
X103236804Y-53546135D01*
X103444172Y-53465799D01*
X103444182Y-53465794D01*
X103633257Y-53348724D01*
X103761448Y-53231863D01*
X110766500Y-53231863D01*
X110769414Y-53256986D01*
X110769415Y-53256991D01*
X110814794Y-53359765D01*
X110894235Y-53439206D01*
X110997009Y-53484585D01*
X111022135Y-53487500D01*
X112711864Y-53487499D01*
X112736991Y-53484585D01*
X112839765Y-53439206D01*
X112919206Y-53359765D01*
X112964585Y-53256991D01*
X112967500Y-53231865D01*
X112967500Y-52512001D01*
X125913441Y-52512001D01*
X125922377Y-52608438D01*
X125983237Y-52822342D01*
X125983239Y-52822346D01*
X126082368Y-53021426D01*
X126082370Y-53021428D01*
X126216392Y-53198900D01*
X126380742Y-53348724D01*
X126569817Y-53465794D01*
X126569827Y-53465799D01*
X126777195Y-53546135D01*
X126982000Y-53584418D01*
X126982000Y-52772188D01*
X127075519Y-52787000D01*
X127138481Y-52787000D01*
X127232000Y-52772188D01*
X127232000Y-53584418D01*
X127436804Y-53546135D01*
X127644172Y-53465799D01*
X127644182Y-53465794D01*
X127833257Y-53348724D01*
X127997607Y-53198900D01*
X128131629Y-53021428D01*
X128131631Y-53021426D01*
X128230760Y-52822346D01*
X128230762Y-52822342D01*
X128291622Y-52608438D01*
X128300558Y-52512001D01*
X128300557Y-52512000D01*
X127492188Y-52512000D01*
X127511986Y-52387000D01*
X127492188Y-52262000D01*
X128300557Y-52262000D01*
X128300558Y-52261998D01*
X128291622Y-52165561D01*
X128230762Y-51951657D01*
X128230760Y-51951653D01*
X128131631Y-51752573D01*
X128131629Y-51752571D01*
X127997607Y-51575099D01*
X127833257Y-51425275D01*
X127644182Y-51308205D01*
X127644172Y-51308200D01*
X127436805Y-51227865D01*
X127232000Y-51189580D01*
X127232000Y-52001811D01*
X127138481Y-51987000D01*
X127075519Y-51987000D01*
X126982000Y-52001811D01*
X126982000Y-51189580D01*
X126981999Y-51189580D01*
X126777194Y-51227865D01*
X126569827Y-51308200D01*
X126569817Y-51308205D01*
X126380742Y-51425275D01*
X126216392Y-51575099D01*
X126082370Y-51752571D01*
X126082368Y-51752573D01*
X125983239Y-51951653D01*
X125983237Y-51951657D01*
X125922377Y-52165561D01*
X125913441Y-52261998D01*
X125913443Y-52262000D01*
X126721812Y-52262000D01*
X126702014Y-52387000D01*
X126721812Y-52512000D01*
X125913443Y-52512000D01*
X125913441Y-52512001D01*
X112967500Y-52512001D01*
X112967499Y-51542136D01*
X112964585Y-51517009D01*
X112919206Y-51414235D01*
X112839765Y-51334794D01*
X112736991Y-51289415D01*
X112736990Y-51289414D01*
X112736988Y-51289414D01*
X112715659Y-51286940D01*
X112711865Y-51286500D01*
X112711864Y-51286500D01*
X111022136Y-51286500D01*
X110997013Y-51289414D01*
X110997007Y-51289415D01*
X110894234Y-51334794D01*
X110814794Y-51414234D01*
X110769414Y-51517011D01*
X110766500Y-51542135D01*
X110766500Y-53231863D01*
X103761448Y-53231863D01*
X103797607Y-53198900D01*
X103931629Y-53021428D01*
X103931631Y-53021426D01*
X104030760Y-52822346D01*
X104030762Y-52822342D01*
X104091622Y-52608438D01*
X104100558Y-52512001D01*
X104100557Y-52512000D01*
X103292188Y-52512000D01*
X103311986Y-52387000D01*
X103292188Y-52262000D01*
X104100557Y-52262000D01*
X104100558Y-52261998D01*
X104091622Y-52165561D01*
X104030762Y-51951657D01*
X104030760Y-51951653D01*
X103931631Y-51752573D01*
X103931629Y-51752571D01*
X103797607Y-51575099D01*
X103633257Y-51425275D01*
X103444182Y-51308205D01*
X103444172Y-51308200D01*
X103236805Y-51227865D01*
X103032000Y-51189580D01*
X103032000Y-52001811D01*
X102938481Y-51987000D01*
X102875519Y-51987000D01*
X102782000Y-52001811D01*
X102782000Y-51189580D01*
X102781999Y-51189580D01*
X102577194Y-51227865D01*
X102369827Y-51308200D01*
X102369817Y-51308205D01*
X102180742Y-51425275D01*
X102016392Y-51575099D01*
X101882370Y-51752571D01*
X101882368Y-51752573D01*
X101783239Y-51951653D01*
X101783237Y-51951657D01*
X101722377Y-52165561D01*
X101713441Y-52261998D01*
X101713443Y-52262000D01*
X102521812Y-52262000D01*
X102502014Y-52387000D01*
X102521812Y-52512000D01*
X101713443Y-52512000D01*
X101713441Y-52512001D01*
X88767500Y-52512001D01*
X88767499Y-51542136D01*
X88764585Y-51517009D01*
X88719206Y-51414235D01*
X88639765Y-51334794D01*
X88536991Y-51289415D01*
X88536990Y-51289414D01*
X88536988Y-51289414D01*
X88515659Y-51286940D01*
X88511865Y-51286500D01*
X88511864Y-51286500D01*
X86822136Y-51286500D01*
X86797013Y-51289414D01*
X86797007Y-51289415D01*
X86694234Y-51334794D01*
X86614794Y-51414234D01*
X86569414Y-51517011D01*
X86566500Y-51542135D01*
X86566500Y-53231863D01*
X82520407Y-53231863D01*
X82442483Y-53118970D01*
X82421070Y-53100000D01*
X82324240Y-53014217D01*
X82312139Y-53007866D01*
X82184366Y-52940804D01*
X82030987Y-52903000D01*
X82030985Y-52903000D01*
X81873015Y-52903000D01*
X81873012Y-52903000D01*
X81719633Y-52940804D01*
X81579761Y-53014216D01*
X81461516Y-53118970D01*
X81371779Y-53248978D01*
X81371778Y-53248978D01*
X81315764Y-53396677D01*
X81315761Y-53396691D01*
X81296722Y-53553496D01*
X81296722Y-53553503D01*
X68229267Y-53553503D01*
X68250683Y-53534530D01*
X68340420Y-53404523D01*
X68396437Y-53256818D01*
X68415478Y-53100000D01*
X68405937Y-53021426D01*
X68396438Y-52943191D01*
X68396437Y-52943182D01*
X68381198Y-52903000D01*
X68340421Y-52795478D01*
X68250683Y-52665470D01*
X68186306Y-52608438D01*
X68132440Y-52560717D01*
X68039619Y-52512000D01*
X67992566Y-52487304D01*
X67839187Y-52449500D01*
X67839185Y-52449500D01*
X67681215Y-52449500D01*
X67681212Y-52449500D01*
X67527833Y-52487304D01*
X67387961Y-52560716D01*
X67269716Y-52665470D01*
X67179979Y-52795478D01*
X67179978Y-52795478D01*
X67123964Y-52943177D01*
X67123961Y-52943191D01*
X67104922Y-53099996D01*
X67104922Y-53100003D01*
X59438500Y-53100003D01*
X59438499Y-51425136D01*
X59435585Y-51400009D01*
X59390206Y-51297235D01*
X59310765Y-51217794D01*
X59207991Y-51172415D01*
X59207990Y-51172414D01*
X59207988Y-51172414D01*
X59186659Y-51169940D01*
X59182865Y-51169500D01*
X59182864Y-51169500D01*
X57393136Y-51169500D01*
X57368013Y-51172414D01*
X57368007Y-51172415D01*
X57265234Y-51217794D01*
X57185794Y-51297234D01*
X57140414Y-51400011D01*
X57137500Y-51425135D01*
X57137500Y-53214863D01*
X55538321Y-53214863D01*
X55501392Y-50075885D01*
X55518144Y-50028121D01*
X55561681Y-50002297D01*
X55575890Y-50001019D01*
X128426008Y-50499992D01*
G37*
G04 #@! TD.AperFunction*
G04 #@! TA.AperFunction,NonConductor*
G36*
X83806661Y-61758716D02*
G01*
X83808918Y-61759449D01*
X83808919Y-61759450D01*
X83825799Y-61764934D01*
X83835626Y-61768127D01*
X83846355Y-61772571D01*
X83865023Y-61782083D01*
X83871374Y-61785319D01*
X83899106Y-61789710D01*
X83910389Y-61792418D01*
X83937107Y-61801100D01*
X83971012Y-61801100D01*
X86702621Y-61801100D01*
X86750187Y-61818413D01*
X86775497Y-61862250D01*
X86766707Y-61912100D01*
X86761675Y-61919693D01*
X86754711Y-61928917D01*
X86727326Y-61965180D01*
X86694613Y-62030878D01*
X86678815Y-62062606D01*
X86669912Y-62080485D01*
X86633212Y-62115347D01*
X86603670Y-62121500D01*
X84002200Y-62121500D01*
X83954634Y-62104187D01*
X83949874Y-62099826D01*
X83731468Y-61881420D01*
X83710076Y-61835544D01*
X83723177Y-61786649D01*
X83764641Y-61757615D01*
X83806661Y-61758716D01*
G37*
G04 #@! TD.AperFunction*
G04 #@! TA.AperFunction,NonConductor*
G36*
X86651236Y-70609813D02*
G01*
X86669911Y-70633514D01*
X86727327Y-70748821D01*
X86727328Y-70748822D01*
X86727329Y-70748824D01*
X86841975Y-70900640D01*
X86856825Y-70949032D01*
X86837094Y-70995647D01*
X86792016Y-71018674D01*
X86748532Y-71010759D01*
X86647065Y-70957504D01*
X86647062Y-70957503D01*
X86493687Y-70919700D01*
X86493685Y-70919700D01*
X86335715Y-70919700D01*
X86335712Y-70919700D01*
X86182333Y-70957504D01*
X86042460Y-71030916D01*
X86042457Y-71030918D01*
X85957520Y-71106165D01*
X85910436Y-71124748D01*
X85862422Y-71108718D01*
X85835945Y-71065576D01*
X85834990Y-71059695D01*
X85815938Y-70902791D01*
X85815937Y-70902782D01*
X85759920Y-70755077D01*
X85727796Y-70708537D01*
X85715024Y-70659556D01*
X85736724Y-70613824D01*
X85782743Y-70592740D01*
X85788697Y-70592500D01*
X86603670Y-70592500D01*
X86651236Y-70609813D01*
G37*
G04 #@! TD.AperFunction*
G04 #@! TA.AperFunction,NonConductor*
G36*
X85731976Y-71521080D02*
G01*
X85758454Y-71564222D01*
X85759409Y-71570104D01*
X85778461Y-71727008D01*
X85778464Y-71727022D01*
X85834478Y-71874721D01*
X85897831Y-71966503D01*
X85924217Y-72004730D01*
X86042460Y-72109483D01*
X86072362Y-72125177D01*
X86104371Y-72141977D01*
X86138443Y-72179412D01*
X86140481Y-72229990D01*
X86109531Y-72270044D01*
X86069981Y-72281500D01*
X85153254Y-72281500D01*
X85105688Y-72264187D01*
X85080378Y-72220350D01*
X85084063Y-72181260D01*
X85097326Y-72146287D01*
X85106037Y-72123318D01*
X85115898Y-72042104D01*
X85125078Y-71966503D01*
X85125078Y-71966496D01*
X85106037Y-71809679D01*
X85104966Y-71805333D01*
X85106217Y-71805024D01*
X85105605Y-71759733D01*
X85137615Y-71720520D01*
X85175478Y-71710100D01*
X85258681Y-71710100D01*
X85258685Y-71710100D01*
X85412065Y-71672296D01*
X85551940Y-71598883D01*
X85636880Y-71523632D01*
X85683962Y-71505051D01*
X85731976Y-71521080D01*
G37*
G04 #@! TD.AperFunction*
G04 #@! TA.AperFunction,NonConductor*
G36*
X72369114Y-81931813D02*
G01*
X72394424Y-81975650D01*
X72390739Y-82014740D01*
X72340664Y-82146777D01*
X72340661Y-82146791D01*
X72321622Y-82303596D01*
X72321622Y-82303603D01*
X72340661Y-82460408D01*
X72340664Y-82460422D01*
X72366148Y-82527617D01*
X72366828Y-82578231D01*
X72334814Y-82617441D01*
X72285086Y-82626899D01*
X72244631Y-82606183D01*
X71878932Y-82240484D01*
X71857540Y-82194608D01*
X71857797Y-82179242D01*
X71859078Y-82168700D01*
X71840037Y-82011882D01*
X71840033Y-82011872D01*
X71838966Y-82007541D01*
X71841014Y-82007036D01*
X71840445Y-81964114D01*
X71872466Y-81924910D01*
X71910312Y-81914500D01*
X72321548Y-81914500D01*
X72369114Y-81931813D01*
G37*
G04 #@! TD.AperFunction*
G04 #@! TA.AperFunction,NonConductor*
G36*
X111142982Y-84464413D02*
G01*
X111168292Y-84508250D01*
X111159502Y-84558100D01*
X111145269Y-84575787D01*
X111050235Y-84662420D01*
X111050234Y-84662421D01*
X110927329Y-84825174D01*
X110927328Y-84825177D01*
X110869912Y-84940485D01*
X110833212Y-84975347D01*
X110803670Y-84981500D01*
X110672707Y-84981500D01*
X110658265Y-84986192D01*
X110646001Y-84990177D01*
X110634713Y-84992887D01*
X110606972Y-84997281D01*
X110606970Y-84997281D01*
X110581948Y-85010031D01*
X110571224Y-85014473D01*
X110544521Y-85023150D01*
X110544515Y-85023153D01*
X110521796Y-85039659D01*
X110511899Y-85045724D01*
X110486879Y-85058472D01*
X109432826Y-86112526D01*
X109386950Y-86133918D01*
X109380500Y-86134200D01*
X103885500Y-86134200D01*
X103837934Y-86116887D01*
X103812624Y-86073050D01*
X103821414Y-86023200D01*
X103826447Y-86015605D01*
X103832515Y-86007567D01*
X103846673Y-85988821D01*
X103937582Y-85806250D01*
X103993397Y-85610083D01*
X104002284Y-85514182D01*
X104012215Y-85407003D01*
X104012215Y-85406996D01*
X103993398Y-85203923D01*
X103993397Y-85203917D01*
X103948599Y-85046471D01*
X103937582Y-85007750D01*
X103846673Y-84825179D01*
X103846670Y-84825175D01*
X103846670Y-84825174D01*
X103723765Y-84662421D01*
X103723764Y-84662420D01*
X103628731Y-84575787D01*
X103605242Y-84530947D01*
X103616071Y-84481500D01*
X103656150Y-84450582D01*
X103678584Y-84447100D01*
X111095416Y-84447100D01*
X111142982Y-84464413D01*
G37*
G04 #@! TD.AperFunction*
G04 #@! TA.AperFunction,NonConductor*
G36*
X102182982Y-84464413D02*
G01*
X102208292Y-84508250D01*
X102199502Y-84558100D01*
X102185269Y-84575787D01*
X102090235Y-84662420D01*
X102090234Y-84662421D01*
X101967329Y-84825174D01*
X101967328Y-84825177D01*
X101876418Y-85007750D01*
X101876416Y-85007755D01*
X101820602Y-85203917D01*
X101820601Y-85203923D01*
X101801785Y-85406996D01*
X101801785Y-85407003D01*
X101820601Y-85610076D01*
X101820602Y-85610082D01*
X101876416Y-85806244D01*
X101876418Y-85806250D01*
X101967327Y-85988821D01*
X101967328Y-85988822D01*
X101967329Y-85988824D01*
X101987553Y-86015605D01*
X102002403Y-86063997D01*
X101982672Y-86110612D01*
X101937594Y-86133639D01*
X101928500Y-86134200D01*
X89643841Y-86134200D01*
X89596275Y-86116887D01*
X89570965Y-86073050D01*
X89579755Y-86023200D01*
X89582940Y-86018164D01*
X89624518Y-85957926D01*
X89624521Y-85957921D01*
X89655159Y-85877134D01*
X89680537Y-85810218D01*
X89697441Y-85671000D01*
X89699578Y-85653403D01*
X89699578Y-85653396D01*
X89680538Y-85496591D01*
X89680537Y-85496582D01*
X89672513Y-85475425D01*
X89624521Y-85348878D01*
X89534783Y-85218870D01*
X89517904Y-85203917D01*
X89416540Y-85114117D01*
X89310199Y-85058304D01*
X89276666Y-85040704D01*
X89123287Y-85002900D01*
X89123285Y-85002900D01*
X88965315Y-85002900D01*
X88965312Y-85002900D01*
X88811933Y-85040704D01*
X88800945Y-85046471D01*
X88750781Y-85053246D01*
X88707999Y-85026191D01*
X88699275Y-85010728D01*
X88699107Y-85010813D01*
X88689728Y-84991977D01*
X88606673Y-84825179D01*
X88606670Y-84825175D01*
X88606670Y-84825174D01*
X88483765Y-84662421D01*
X88483764Y-84662420D01*
X88388731Y-84575787D01*
X88365242Y-84530947D01*
X88376071Y-84481500D01*
X88416150Y-84450582D01*
X88438584Y-84447100D01*
X102135416Y-84447100D01*
X102182982Y-84464413D01*
G37*
G04 #@! TD.AperFunction*
G04 #@! TA.AperFunction,NonConductor*
G36*
X74251866Y-81931813D02*
G01*
X74256626Y-81936174D01*
X76760972Y-84440520D01*
X76856280Y-84535828D01*
X76881306Y-84548579D01*
X76891193Y-84554638D01*
X76913919Y-84571149D01*
X76913920Y-84571149D01*
X76913921Y-84571150D01*
X76940623Y-84579826D01*
X76951353Y-84584270D01*
X76963157Y-84590284D01*
X76976374Y-84597019D01*
X77004096Y-84601409D01*
X77004103Y-84601410D01*
X77015398Y-84604121D01*
X77042107Y-84612800D01*
X83874091Y-84612800D01*
X83874093Y-84612800D01*
X83900808Y-84604118D01*
X83912074Y-84601413D01*
X83939826Y-84597019D01*
X83964856Y-84584264D01*
X83975573Y-84579826D01*
X84002281Y-84571149D01*
X84024994Y-84554646D01*
X84034899Y-84548576D01*
X84039313Y-84546326D01*
X84059920Y-84535828D01*
X84155228Y-84440520D01*
X85133895Y-83461852D01*
X85179770Y-83440461D01*
X85228665Y-83453562D01*
X85257699Y-83495026D01*
X85255411Y-83540419D01*
X85219663Y-83634682D01*
X85219663Y-83634684D01*
X85219661Y-83634691D01*
X85200622Y-83791496D01*
X85200622Y-83791503D01*
X85219661Y-83948308D01*
X85219664Y-83948322D01*
X85275678Y-84096021D01*
X85317646Y-84156822D01*
X85365417Y-84226030D01*
X85483660Y-84330783D01*
X85623535Y-84404196D01*
X85776915Y-84442000D01*
X85776919Y-84442000D01*
X85934884Y-84442000D01*
X85934885Y-84442000D01*
X85953066Y-84437518D01*
X85993645Y-84438988D01*
X86018607Y-84447100D01*
X86052512Y-84447100D01*
X86895416Y-84447100D01*
X86942982Y-84464413D01*
X86968292Y-84508250D01*
X86959502Y-84558100D01*
X86945269Y-84575787D01*
X86850235Y-84662420D01*
X86850234Y-84662421D01*
X86727329Y-84825174D01*
X86727328Y-84825177D01*
X86636418Y-85007750D01*
X86636416Y-85007755D01*
X86580602Y-85203917D01*
X86580601Y-85203923D01*
X86561785Y-85406996D01*
X86561785Y-85407003D01*
X86580601Y-85610076D01*
X86580602Y-85610082D01*
X86636416Y-85806244D01*
X86636418Y-85806250D01*
X86727327Y-85988821D01*
X86727328Y-85988822D01*
X86727329Y-85988824D01*
X86747553Y-86015605D01*
X86762403Y-86063997D01*
X86742672Y-86110612D01*
X86697594Y-86133639D01*
X86688500Y-86134200D01*
X84641289Y-86134200D01*
X84593723Y-86116887D01*
X84568413Y-86073050D01*
X84577203Y-86023200D01*
X84580388Y-86018163D01*
X84583293Y-86013953D01*
X84609820Y-85975523D01*
X84619554Y-85949858D01*
X84665835Y-85827822D01*
X84665837Y-85827818D01*
X84679326Y-85716723D01*
X84684878Y-85671003D01*
X84684878Y-85670996D01*
X84665838Y-85514191D01*
X84665837Y-85514182D01*
X84657813Y-85493025D01*
X84609821Y-85366478D01*
X84520083Y-85236470D01*
X84500216Y-85218870D01*
X84401840Y-85131717D01*
X84389739Y-85125366D01*
X84261966Y-85058304D01*
X84108587Y-85020500D01*
X84108585Y-85020500D01*
X83950615Y-85020500D01*
X83950612Y-85020500D01*
X83797233Y-85058304D01*
X83657361Y-85131716D01*
X83539116Y-85236470D01*
X83449379Y-85366478D01*
X83449378Y-85366478D01*
X83393364Y-85514177D01*
X83393361Y-85514191D01*
X83374322Y-85670996D01*
X83374322Y-85671003D01*
X83393361Y-85827808D01*
X83393364Y-85827822D01*
X83449379Y-85975521D01*
X83478812Y-86018163D01*
X83491584Y-86067144D01*
X83469884Y-86112876D01*
X83423865Y-86133960D01*
X83417911Y-86134200D01*
X75803300Y-86134200D01*
X75755734Y-86116887D01*
X75750974Y-86112526D01*
X72680365Y-83041917D01*
X72658973Y-82996041D01*
X72672074Y-82947146D01*
X72713538Y-82918112D01*
X72750397Y-82917741D01*
X72897915Y-82954100D01*
X72897919Y-82954100D01*
X73055881Y-82954100D01*
X73055885Y-82954100D01*
X73209265Y-82916296D01*
X73349140Y-82842883D01*
X73467383Y-82738130D01*
X73557120Y-82608123D01*
X73557671Y-82606672D01*
X73587652Y-82527617D01*
X73613137Y-82460418D01*
X73632178Y-82303600D01*
X73629941Y-82285179D01*
X73613138Y-82146791D01*
X73613137Y-82146782D01*
X73603898Y-82122420D01*
X73563061Y-82014740D01*
X73562381Y-81964126D01*
X73594395Y-81924916D01*
X73632252Y-81914500D01*
X74204300Y-81914500D01*
X74251866Y-81931813D01*
G37*
G04 #@! TD.AperFunction*
G04 #@! TA.AperFunction,NonConductor*
G36*
X86945066Y-87002513D02*
G01*
X86970376Y-87046350D01*
X86961586Y-87096200D01*
X86947353Y-87113887D01*
X86850235Y-87202420D01*
X86850234Y-87202421D01*
X86727329Y-87365174D01*
X86727327Y-87365178D01*
X86719849Y-87380196D01*
X86683148Y-87415057D01*
X86632625Y-87418172D01*
X86592707Y-87389246D01*
X86513483Y-87274470D01*
X86479562Y-87244419D01*
X86395240Y-87169717D01*
X86328196Y-87134529D01*
X86309513Y-87124723D01*
X86275441Y-87087288D01*
X86273403Y-87036710D01*
X86304353Y-86996656D01*
X86343903Y-86985200D01*
X86897500Y-86985200D01*
X86945066Y-87002513D01*
G37*
G04 #@! TD.AperFunction*
G04 #@! TA.AperFunction,NonConductor*
G36*
X102185066Y-87002513D02*
G01*
X102210376Y-87046350D01*
X102201586Y-87096200D01*
X102187353Y-87113887D01*
X102090235Y-87202420D01*
X102090234Y-87202421D01*
X101967329Y-87365174D01*
X101967328Y-87365177D01*
X101876418Y-87547750D01*
X101876416Y-87547755D01*
X101820602Y-87743917D01*
X101820601Y-87743923D01*
X101801785Y-87946996D01*
X101801785Y-87947003D01*
X101820601Y-88150076D01*
X101820602Y-88150082D01*
X101875769Y-88343970D01*
X101876418Y-88346250D01*
X101967327Y-88528821D01*
X101967328Y-88528822D01*
X101967329Y-88528825D01*
X102090234Y-88691578D01*
X102090235Y-88691579D01*
X102158503Y-88753813D01*
X102181992Y-88798653D01*
X102171163Y-88848100D01*
X102131083Y-88879018D01*
X102108650Y-88882500D01*
X88465350Y-88882500D01*
X88417784Y-88865187D01*
X88392474Y-88821350D01*
X88401264Y-88771500D01*
X88415497Y-88753813D01*
X88483764Y-88691579D01*
X88483765Y-88691578D01*
X88606670Y-88528825D01*
X88606670Y-88528824D01*
X88606673Y-88528821D01*
X88697582Y-88346250D01*
X88753397Y-88150083D01*
X88754005Y-88143530D01*
X88772215Y-87947003D01*
X88772215Y-87946996D01*
X88753398Y-87743923D01*
X88753397Y-87743917D01*
X88743461Y-87708996D01*
X88697582Y-87547750D01*
X88606673Y-87365179D01*
X88606670Y-87365175D01*
X88606670Y-87365174D01*
X88483765Y-87202421D01*
X88483764Y-87202420D01*
X88386647Y-87113887D01*
X88363158Y-87069047D01*
X88373987Y-87019600D01*
X88414067Y-86988682D01*
X88436500Y-86985200D01*
X102137500Y-86985200D01*
X102185066Y-87002513D01*
G37*
G04 #@! TD.AperFunction*
G04 #@! TA.AperFunction,NonConductor*
G36*
X80906215Y-87002513D02*
G01*
X80931525Y-87046350D01*
X80922735Y-87096200D01*
X80919555Y-87101228D01*
X80896570Y-87134529D01*
X80830479Y-87230278D01*
X80830478Y-87230278D01*
X80774464Y-87377977D01*
X80774461Y-87377991D01*
X80755422Y-87534796D01*
X80755422Y-87534803D01*
X80774461Y-87691608D01*
X80774464Y-87691622D01*
X80830478Y-87839321D01*
X80920216Y-87969329D01*
X80920217Y-87969330D01*
X81038460Y-88074083D01*
X81166234Y-88141145D01*
X81170778Y-88143530D01*
X81178335Y-88147496D01*
X81331715Y-88185300D01*
X81331719Y-88185300D01*
X81489681Y-88185300D01*
X81489685Y-88185300D01*
X81643065Y-88147496D01*
X81782940Y-88074083D01*
X81901183Y-87969330D01*
X81990920Y-87839323D01*
X82000599Y-87813803D01*
X82027100Y-87743923D01*
X82046937Y-87691618D01*
X82053988Y-87633542D01*
X82065978Y-87534803D01*
X82065978Y-87534796D01*
X82046938Y-87377991D01*
X82046937Y-87377982D01*
X82038296Y-87355197D01*
X81990921Y-87230278D01*
X81924830Y-87134529D01*
X81901849Y-87101235D01*
X81889078Y-87052256D01*
X81910777Y-87006524D01*
X81956796Y-86985440D01*
X81962751Y-86985200D01*
X85702097Y-86985200D01*
X85749663Y-87002513D01*
X85774973Y-87046350D01*
X85766183Y-87096200D01*
X85736487Y-87124723D01*
X85650761Y-87169716D01*
X85532516Y-87274470D01*
X85442779Y-87404478D01*
X85442778Y-87404478D01*
X85386764Y-87552177D01*
X85386761Y-87552191D01*
X85367722Y-87708996D01*
X85367722Y-87709003D01*
X85386761Y-87865808D01*
X85386764Y-87865822D01*
X85442778Y-88013521D01*
X85515118Y-88118323D01*
X85532517Y-88143530D01*
X85650760Y-88248283D01*
X85790635Y-88321696D01*
X85944015Y-88359500D01*
X85944019Y-88359500D01*
X86101981Y-88359500D01*
X86101985Y-88359500D01*
X86255365Y-88321696D01*
X86395240Y-88248283D01*
X86477550Y-88175362D01*
X86524632Y-88156781D01*
X86572646Y-88172810D01*
X86597794Y-88210503D01*
X86635016Y-88341325D01*
X86636418Y-88346250D01*
X86727327Y-88528821D01*
X86727328Y-88528822D01*
X86727329Y-88528825D01*
X86850234Y-88691578D01*
X86850235Y-88691579D01*
X86918503Y-88753813D01*
X86941992Y-88798653D01*
X86931163Y-88848100D01*
X86891083Y-88879018D01*
X86868650Y-88882500D01*
X77593900Y-88882500D01*
X77546334Y-88865187D01*
X77541574Y-88860826D01*
X75792274Y-87111526D01*
X75770882Y-87065650D01*
X75783983Y-87016755D01*
X75825447Y-86987721D01*
X75844600Y-86985200D01*
X80858649Y-86985200D01*
X80906215Y-87002513D01*
G37*
G04 #@! TD.AperFunction*
G04 #@! TA.AperFunction,NonConductor*
G36*
X101995927Y-89750813D02*
G01*
X102021237Y-89794650D01*
X102012447Y-89844500D01*
X102007414Y-89852095D01*
X101967329Y-89905175D01*
X101967328Y-89905177D01*
X101967327Y-89905178D01*
X101967327Y-89905179D01*
X101911715Y-90016865D01*
X101909912Y-90020485D01*
X101873212Y-90055347D01*
X101843670Y-90061500D01*
X101712707Y-90061500D01*
X101698265Y-90066192D01*
X101686001Y-90070177D01*
X101674713Y-90072887D01*
X101646972Y-90077281D01*
X101646970Y-90077281D01*
X101621948Y-90090031D01*
X101611224Y-90094473D01*
X101584520Y-90103150D01*
X101584516Y-90103152D01*
X101561795Y-90119659D01*
X101551899Y-90125723D01*
X101526882Y-90138470D01*
X101526878Y-90138473D01*
X100454926Y-91210426D01*
X100409050Y-91231818D01*
X100402600Y-91232100D01*
X88631983Y-91232100D01*
X88584417Y-91214787D01*
X88559107Y-91170950D01*
X88567897Y-91121100D01*
X88572929Y-91113505D01*
X88606673Y-91068821D01*
X88697582Y-90886250D01*
X88753397Y-90690083D01*
X88772215Y-90487000D01*
X88753397Y-90283917D01*
X88697582Y-90087750D01*
X88606673Y-89905179D01*
X88566586Y-89852095D01*
X88551736Y-89803703D01*
X88571467Y-89757088D01*
X88616545Y-89734061D01*
X88625639Y-89733500D01*
X101948361Y-89733500D01*
X101995927Y-89750813D01*
G37*
G04 #@! TD.AperFunction*
G04 #@! TA.AperFunction,NonConductor*
G36*
X70544854Y-81931813D02*
G01*
X70570164Y-81975650D01*
X70567194Y-82007186D01*
X70568634Y-82007541D01*
X70567561Y-82011891D01*
X70548522Y-82168696D01*
X70548522Y-82168703D01*
X70567561Y-82325508D01*
X70567564Y-82325522D01*
X70623578Y-82473221D01*
X70715693Y-82606672D01*
X70728465Y-82655653D01*
X70715693Y-82690746D01*
X70625179Y-82821878D01*
X70625178Y-82821878D01*
X70569164Y-82969577D01*
X70569161Y-82969591D01*
X70550122Y-83126396D01*
X70550122Y-83126403D01*
X70569161Y-83283208D01*
X70569164Y-83283222D01*
X70625178Y-83430921D01*
X70714916Y-83560929D01*
X70714917Y-83560930D01*
X70833160Y-83665683D01*
X70973035Y-83739096D01*
X71126415Y-83776900D01*
X71223500Y-83776900D01*
X71271066Y-83794213D01*
X71275826Y-83798574D01*
X77038472Y-89561220D01*
X77133780Y-89656528D01*
X77158802Y-89669277D01*
X77168697Y-89675341D01*
X77191420Y-89691850D01*
X77218126Y-89700527D01*
X77228849Y-89704969D01*
X77253871Y-89717718D01*
X77253873Y-89717718D01*
X77253874Y-89717719D01*
X77281605Y-89722110D01*
X77292895Y-89724820D01*
X77319607Y-89733500D01*
X77353512Y-89733500D01*
X86708361Y-89733500D01*
X86755927Y-89750813D01*
X86781237Y-89794650D01*
X86772447Y-89844500D01*
X86767414Y-89852095D01*
X86727329Y-89905175D01*
X86727328Y-89905177D01*
X86636418Y-90087750D01*
X86636416Y-90087755D01*
X86580602Y-90283917D01*
X86580601Y-90283923D01*
X86561785Y-90486996D01*
X86561785Y-90487003D01*
X86580601Y-90690076D01*
X86580602Y-90690082D01*
X86636416Y-90886244D01*
X86636418Y-90886250D01*
X86727327Y-91068821D01*
X86761071Y-91113505D01*
X86775920Y-91161897D01*
X86756189Y-91208513D01*
X86711110Y-91231539D01*
X86702017Y-91232100D01*
X76285700Y-91232100D01*
X76238134Y-91214787D01*
X76233374Y-91210426D01*
X70752420Y-85729472D01*
X70727398Y-85716723D01*
X70717497Y-85710655D01*
X70694782Y-85694151D01*
X70680339Y-85689458D01*
X70668071Y-85685472D01*
X70657351Y-85681032D01*
X70632326Y-85668281D01*
X70632325Y-85668280D01*
X70632324Y-85668280D01*
X70604585Y-85663887D01*
X70593296Y-85661176D01*
X70591865Y-85660711D01*
X70562408Y-85642660D01*
X66960574Y-82040826D01*
X66939182Y-81994950D01*
X66952283Y-81946055D01*
X66993747Y-81917021D01*
X67012900Y-81914500D01*
X70497288Y-81914500D01*
X70544854Y-81931813D01*
G37*
G04 #@! TD.AperFunction*
M02*
