G04 #@! TF.GenerationSoftware,KiCad,Pcbnew,7.0.10*
G04 #@! TF.CreationDate,2024-02-19T22:05:47-05:00*
G04 #@! TF.ProjectId,Rosco-MiniHat,526f7363-6f2d-44d6-996e-694861742e6b,rev?*
G04 #@! TF.SameCoordinates,Original*
G04 #@! TF.FileFunction,Copper,L4,Bot*
G04 #@! TF.FilePolarity,Positive*
%FSLAX46Y46*%
G04 Gerber Fmt 4.6, Leading zero omitted, Abs format (unit mm)*
G04 Created by KiCad (PCBNEW 7.0.10) date 2024-02-19 22:05:47*
%MOMM*%
%LPD*%
G01*
G04 APERTURE LIST*
G04 #@! TA.AperFunction,ComponentPad*
%ADD10R,1.700000X1.700000*%
G04 #@! TD*
G04 #@! TA.AperFunction,ComponentPad*
%ADD11O,1.700000X1.700000*%
G04 #@! TD*
G04 #@! TA.AperFunction,ComponentPad*
%ADD12R,1.600000X1.600000*%
G04 #@! TD*
G04 #@! TA.AperFunction,ComponentPad*
%ADD13O,1.600000X1.600000*%
G04 #@! TD*
G04 #@! TA.AperFunction,ViaPad*
%ADD14C,0.700000*%
G04 #@! TD*
G04 #@! TA.AperFunction,Conductor*
%ADD15C,0.250000*%
G04 #@! TD*
G04 APERTURE END LIST*
D10*
X58288000Y-52320000D03*
D11*
X58288000Y-54860000D03*
X58288000Y-57400000D03*
X58288000Y-59940000D03*
X58288000Y-62480000D03*
D12*
X111867000Y-52387000D03*
D13*
X111867000Y-54927000D03*
X111867000Y-57467000D03*
X111867000Y-60007000D03*
X111867000Y-62547000D03*
X111867000Y-65087000D03*
X111867000Y-67627000D03*
X111867000Y-70167000D03*
X111867000Y-72707000D03*
X111867000Y-75247000D03*
X111867000Y-77787000D03*
X111867000Y-80327000D03*
X111867000Y-82867000D03*
X111867000Y-85407000D03*
X111867000Y-87947000D03*
X111867000Y-90487000D03*
X127107000Y-90487000D03*
X127107000Y-87947000D03*
X127107000Y-85407000D03*
X127107000Y-82867000D03*
X127107000Y-80327000D03*
X127107000Y-77787000D03*
X127107000Y-75247000D03*
X127107000Y-72707000D03*
X127107000Y-70167000D03*
X127107000Y-67627000D03*
X127107000Y-65087000D03*
X127107000Y-62547000D03*
X127107000Y-60007000D03*
X127107000Y-57467000D03*
X127107000Y-54927000D03*
X127107000Y-52387000D03*
D12*
X87667000Y-52387000D03*
D13*
X87667000Y-54927000D03*
X87667000Y-57467000D03*
X87667000Y-60007000D03*
X87667000Y-62547000D03*
X87667000Y-65087000D03*
X87667000Y-67627000D03*
X87667000Y-70167000D03*
X87667000Y-72707000D03*
X87667000Y-75247000D03*
X87667000Y-77787000D03*
X87667000Y-80327000D03*
X87667000Y-82867000D03*
X87667000Y-85407000D03*
X87667000Y-87947000D03*
X87667000Y-90487000D03*
X102907000Y-90487000D03*
X102907000Y-87947000D03*
X102907000Y-85407000D03*
X102907000Y-82867000D03*
X102907000Y-80327000D03*
X102907000Y-77787000D03*
X102907000Y-75247000D03*
X102907000Y-72707000D03*
X102907000Y-70167000D03*
X102907000Y-67627000D03*
X102907000Y-65087000D03*
X102907000Y-62547000D03*
X102907000Y-60007000D03*
X102907000Y-57467000D03*
X102907000Y-54927000D03*
X102907000Y-52387000D03*
D14*
X67637200Y-65900000D03*
X67757100Y-85900000D03*
X78911200Y-77890400D03*
X75255200Y-77527100D03*
X78849500Y-88883600D03*
X72273100Y-71031600D03*
X81627400Y-52682700D03*
X74832400Y-72592500D03*
X74581800Y-67042500D03*
X78912700Y-85213500D03*
X77091100Y-85178200D03*
X74275700Y-68772500D03*
X100633900Y-84719800D03*
X78904900Y-53159200D03*
X70544300Y-75101200D03*
X73308300Y-68059800D03*
X73693600Y-81306500D03*
X75578600Y-54286900D03*
X81739200Y-59344600D03*
X81594800Y-60249000D03*
X83724600Y-68452400D03*
X78925100Y-63500000D03*
X73539100Y-62761800D03*
X72136900Y-62700000D03*
X72138700Y-61450700D03*
X72277900Y-59500000D03*
X77549400Y-75951900D03*
X72162600Y-57980200D03*
X72796200Y-57318600D03*
X78021100Y-74892600D03*
X82414600Y-75247000D03*
X73732700Y-57279200D03*
X73946400Y-56207800D03*
X74932700Y-56213600D03*
X82736900Y-73004400D03*
X84218400Y-67670600D03*
X82180100Y-73723100D03*
X83496800Y-66591300D03*
X81581800Y-74401200D03*
X82677900Y-65772500D03*
X76171500Y-85215800D03*
X73189500Y-70184100D03*
X71367200Y-71560500D03*
X78934000Y-89807700D03*
X65000000Y-80500000D03*
X84500000Y-82250000D03*
X65000000Y-60250000D03*
X84500000Y-62250000D03*
X78750000Y-76250000D03*
X78750000Y-56250000D03*
X65000000Y-82500000D03*
X84500000Y-80250000D03*
X65000000Y-62500000D03*
X84500000Y-60000000D03*
D15*
X102907000Y-60007000D02*
X101780100Y-60007000D01*
X67637200Y-85780100D02*
X67757100Y-85900000D01*
X67637200Y-65900000D02*
X67637200Y-85780100D01*
X67637200Y-58962400D02*
X67637200Y-65900000D01*
X75339500Y-51260100D02*
X67637200Y-58962400D01*
X93033200Y-51260100D02*
X75339500Y-51260100D01*
X101780100Y-60007000D02*
X93033200Y-51260100D01*
X111867000Y-82867000D02*
X110740100Y-82867000D01*
X80593900Y-79573100D02*
X78911200Y-77890400D01*
X84780400Y-79573100D02*
X80593900Y-79573100D01*
X86804300Y-81597000D02*
X84780400Y-79573100D01*
X91429600Y-81597000D02*
X86804300Y-81597000D01*
X98976000Y-89143400D02*
X91429600Y-81597000D01*
X104463700Y-89143400D02*
X98976000Y-89143400D01*
X110740100Y-82867000D02*
X104463700Y-89143400D01*
X127107000Y-77787000D02*
X125980100Y-77787000D01*
X75255200Y-77933400D02*
X75255200Y-77527100D01*
X86538800Y-89217000D02*
X75255200Y-77933400D01*
X95900900Y-89217000D02*
X86538800Y-89217000D01*
X98350700Y-91666800D02*
X95900900Y-89217000D01*
X112333800Y-91666800D02*
X98350700Y-91666800D01*
X125980100Y-78020500D02*
X112333800Y-91666800D01*
X125980100Y-77787000D02*
X125980100Y-78020500D01*
X72273100Y-82307200D02*
X78849500Y-88883600D01*
X72273100Y-71031600D02*
X72273100Y-82307200D01*
X102907000Y-65087000D02*
X101780100Y-65087000D01*
X84379800Y-52682700D02*
X81627400Y-52682700D01*
X85281700Y-53584600D02*
X84379800Y-52682700D01*
X90277700Y-53584600D02*
X85281700Y-53584600D01*
X101780100Y-65087000D02*
X90277700Y-53584600D01*
X74959000Y-72465900D02*
X74832400Y-72592500D01*
X74959000Y-67419700D02*
X74959000Y-72465900D01*
X74581800Y-67042500D02*
X74959000Y-67419700D01*
X78912700Y-82382000D02*
X78912700Y-85213500D01*
X74576300Y-78045600D02*
X78912700Y-82382000D01*
X74576300Y-72848600D02*
X74576300Y-78045600D01*
X74832400Y-72592500D02*
X74576300Y-72848600D01*
X101216700Y-84137000D02*
X100633900Y-84719800D01*
X103240500Y-84137000D02*
X101216700Y-84137000D01*
X104513300Y-82864200D02*
X103240500Y-84137000D01*
X104513300Y-71773300D02*
X104513300Y-82864200D01*
X102907000Y-70167000D02*
X104513300Y-71773300D01*
X77091100Y-81199500D02*
X77091100Y-85178200D01*
X74109000Y-78217400D02*
X77091100Y-81199500D01*
X74109000Y-72260200D02*
X74109000Y-78217400D01*
X74325600Y-72043600D02*
X74109000Y-72260200D01*
X74325600Y-68822400D02*
X74325600Y-72043600D01*
X74275700Y-68772500D02*
X74325600Y-68822400D01*
X102907000Y-72707000D02*
X102907000Y-71580100D01*
X78878500Y-53132800D02*
X78904900Y-53159200D01*
X74105900Y-53132800D02*
X78878500Y-53132800D01*
X70104300Y-57134400D02*
X74105900Y-53132800D01*
X70104300Y-74661200D02*
X70104300Y-57134400D01*
X70544300Y-75101200D02*
X70104300Y-74661200D01*
X102720600Y-71580100D02*
X102907000Y-71580100D01*
X99759100Y-68618600D02*
X102720600Y-71580100D01*
X99759100Y-67944300D02*
X99759100Y-68618600D01*
X87916200Y-56101400D02*
X99759100Y-67944300D01*
X85464700Y-56101400D02*
X87916200Y-56101400D01*
X82743400Y-53380100D02*
X85464700Y-56101400D01*
X79125800Y-53380100D02*
X82743400Y-53380100D01*
X78904900Y-53159200D02*
X79125800Y-53380100D01*
X102907000Y-75247000D02*
X101780100Y-75247000D01*
X71460000Y-66211500D02*
X73308300Y-68059800D01*
X71460000Y-57696000D02*
X71460000Y-66211500D01*
X73628200Y-55527800D02*
X71460000Y-57696000D01*
X80993300Y-55527800D02*
X73628200Y-55527800D01*
X86742500Y-61277000D02*
X80993300Y-55527800D01*
X88043600Y-61277000D02*
X86742500Y-61277000D01*
X101780100Y-75013500D02*
X88043600Y-61277000D01*
X101780100Y-75247000D02*
X101780100Y-75013500D01*
X73639200Y-81252100D02*
X73693600Y-81306500D01*
X73639200Y-72090900D02*
X73639200Y-81252100D01*
X73866400Y-71863700D02*
X73639200Y-72090900D01*
X73866400Y-69405900D02*
X73866400Y-71863700D01*
X73308300Y-68847800D02*
X73866400Y-69405900D01*
X73308300Y-68059800D02*
X73308300Y-68847800D01*
X102907000Y-77787000D02*
X102907000Y-76660100D01*
X103140500Y-76660100D02*
X102907000Y-76660100D01*
X104049400Y-75751200D02*
X103140500Y-76660100D01*
X104049400Y-74772300D02*
X104049400Y-75751200D01*
X103254100Y-73977000D02*
X104049400Y-74772300D01*
X102526600Y-73977000D02*
X103254100Y-73977000D01*
X89660500Y-61110900D02*
X102526600Y-73977000D01*
X89660500Y-60368800D02*
X89660500Y-61110900D01*
X88025700Y-58734000D02*
X89660500Y-60368800D01*
X86129900Y-58734000D02*
X88025700Y-58734000D01*
X81683900Y-54288000D02*
X86129900Y-58734000D01*
X75579700Y-54288000D02*
X81683900Y-54288000D01*
X75578600Y-54286900D02*
X75579700Y-54288000D01*
X102907000Y-80327000D02*
X102907000Y-79200100D01*
X82763800Y-59344600D02*
X81739200Y-59344600D01*
X87236200Y-63817000D02*
X82763800Y-59344600D01*
X88062600Y-63817000D02*
X87236200Y-63817000D01*
X101717500Y-77471900D02*
X88062600Y-63817000D01*
X101717500Y-78244100D02*
X101717500Y-77471900D01*
X102673500Y-79200100D02*
X101717500Y-78244100D01*
X102907000Y-79200100D02*
X102673500Y-79200100D01*
X102673500Y-81740100D02*
X102907000Y-81740100D01*
X101492400Y-80559000D02*
X102673500Y-81740100D01*
X101492400Y-79787000D02*
X101492400Y-80559000D01*
X88062400Y-66357000D02*
X101492400Y-79787000D01*
X87332400Y-66357000D02*
X88062400Y-66357000D01*
X81594800Y-60619400D02*
X87332400Y-66357000D01*
X81594800Y-60249000D02*
X81594800Y-60619400D01*
X102907000Y-82867000D02*
X102907000Y-81740100D01*
X102907000Y-85407000D02*
X101780100Y-85407000D01*
X100279800Y-85407000D02*
X101780100Y-85407000D01*
X88706700Y-73833900D02*
X100279800Y-85407000D01*
X87187600Y-73833900D02*
X88706700Y-73833900D01*
X83724600Y-70370900D02*
X87187600Y-73833900D01*
X83724600Y-68452400D02*
X83724600Y-70370900D01*
X102907000Y-87947000D02*
X101780100Y-87947000D01*
X90441300Y-76608200D02*
X101780100Y-87947000D01*
X82158500Y-76608200D02*
X90441300Y-76608200D01*
X78925100Y-73374800D02*
X82158500Y-76608200D01*
X78925100Y-63500000D02*
X78925100Y-73374800D01*
X102907000Y-90487000D02*
X101780100Y-90487000D01*
X76422000Y-65644700D02*
X73539100Y-62761800D01*
X76422000Y-74832300D02*
X76422000Y-65644700D01*
X76420500Y-74833800D02*
X76422000Y-74832300D01*
X76420500Y-76456900D02*
X76420500Y-74833800D01*
X76866400Y-76902800D02*
X76420500Y-76456900D01*
X76866400Y-77525000D02*
X76866400Y-76902800D01*
X83497400Y-84156000D02*
X76866400Y-77525000D01*
X93349500Y-84156000D02*
X83497400Y-84156000D01*
X99680500Y-90487000D02*
X93349500Y-84156000D01*
X101780100Y-90487000D02*
X99680500Y-90487000D01*
X72136900Y-63640200D02*
X72136900Y-62700000D01*
X75516700Y-67020000D02*
X72136900Y-63640200D01*
X75516700Y-74234300D02*
X75516700Y-67020000D01*
X75403900Y-74347100D02*
X75516700Y-74234300D01*
X75403900Y-76718500D02*
X75403900Y-74347100D01*
X75962600Y-77277200D02*
X75403900Y-76718500D01*
X75962600Y-78001700D02*
X75962600Y-77277200D01*
X85907900Y-87947000D02*
X75962600Y-78001700D01*
X87667000Y-87947000D02*
X85907900Y-87947000D01*
X72859100Y-62171100D02*
X72138700Y-61450700D01*
X72859100Y-63723300D02*
X72859100Y-62171100D01*
X75970100Y-66834300D02*
X72859100Y-63723300D01*
X75970100Y-74645000D02*
X75970100Y-66834300D01*
X75874600Y-74740500D02*
X75970100Y-74645000D01*
X75874600Y-76550100D02*
X75874600Y-74740500D01*
X76414500Y-77090000D02*
X75874600Y-76550100D01*
X76414500Y-77763400D02*
X76414500Y-77090000D01*
X84058100Y-85407000D02*
X76414500Y-77763400D01*
X87667000Y-85407000D02*
X84058100Y-85407000D01*
X87667000Y-82867000D02*
X86540100Y-82867000D01*
X76873900Y-64096000D02*
X72277900Y-59500000D01*
X76873900Y-75019500D02*
X76873900Y-64096000D01*
X76872400Y-75021000D02*
X76873900Y-75019500D01*
X76872400Y-76269700D02*
X76872400Y-75021000D01*
X77318300Y-76715600D02*
X76872400Y-76269700D01*
X77318300Y-77261400D02*
X77318300Y-76715600D01*
X82985000Y-82928100D02*
X77318300Y-77261400D01*
X86479000Y-82928100D02*
X82985000Y-82928100D01*
X86540100Y-82867000D02*
X86479000Y-82928100D01*
X87667000Y-80327000D02*
X86540100Y-80327000D01*
X77549400Y-76025000D02*
X77549400Y-75951900D01*
X78481500Y-76957100D02*
X77549400Y-76025000D01*
X79361000Y-76957100D02*
X78481500Y-76957100D01*
X81316300Y-78912400D02*
X79361000Y-76957100D01*
X85125500Y-78912400D02*
X81316300Y-78912400D01*
X86540100Y-80327000D02*
X85125500Y-78912400D01*
X77325800Y-63143400D02*
X72162600Y-57980200D01*
X77325800Y-75728300D02*
X77325800Y-63143400D01*
X77549400Y-75951900D02*
X77325800Y-75728300D01*
X87667000Y-77787000D02*
X86540100Y-77787000D01*
X78021100Y-74892600D02*
X78021800Y-74891900D01*
X81244300Y-77787000D02*
X86540100Y-77787000D01*
X78349200Y-74891900D02*
X81244300Y-77787000D01*
X78021800Y-74891900D02*
X78349200Y-74891900D01*
X78021800Y-62544200D02*
X72796200Y-57318600D01*
X78021800Y-74891900D02*
X78021800Y-62544200D01*
X87667000Y-75247000D02*
X86540100Y-75247000D01*
X86540100Y-75247000D02*
X82414600Y-75247000D01*
X80485800Y-64032300D02*
X73732700Y-57279200D01*
X80485800Y-74278300D02*
X80485800Y-64032300D01*
X81454500Y-75247000D02*
X80485800Y-74278300D01*
X82414600Y-75247000D02*
X81454500Y-75247000D01*
X87667000Y-72707000D02*
X87667000Y-71580100D01*
X87474000Y-71580100D02*
X87667000Y-71580100D01*
X84895400Y-69001500D02*
X87474000Y-71580100D01*
X84895400Y-67032400D02*
X84895400Y-69001500D01*
X75070700Y-57207700D02*
X84895400Y-67032400D01*
X74946300Y-57207700D02*
X75070700Y-57207700D01*
X73946400Y-56207800D02*
X74946300Y-57207700D01*
X86540100Y-67821000D02*
X74932700Y-56213600D01*
X86540100Y-68195000D02*
X86540100Y-67821000D01*
X87385200Y-69040100D02*
X86540100Y-68195000D01*
X87667000Y-69040100D02*
X87385200Y-69040100D01*
X87667000Y-70167000D02*
X87667000Y-69040100D01*
X82736900Y-68482900D02*
X82736900Y-73004400D01*
X83549200Y-67670600D02*
X82736900Y-68482900D01*
X84218400Y-67670600D02*
X83549200Y-67670600D01*
X82051200Y-73594200D02*
X82180100Y-73723100D01*
X82051200Y-68036900D02*
X82051200Y-73594200D01*
X83496800Y-66591300D02*
X82051200Y-68036900D01*
X81476200Y-74295600D02*
X81581800Y-74401200D01*
X81476200Y-66974200D02*
X81476200Y-74295600D01*
X82677900Y-65772500D02*
X81476200Y-66974200D01*
X71008100Y-68002700D02*
X73189500Y-70184100D01*
X71008100Y-57508800D02*
X71008100Y-68002700D01*
X73497300Y-55019600D02*
X71008100Y-57508800D01*
X81225000Y-55019600D02*
X73497300Y-55019600D01*
X86212400Y-60007000D02*
X81225000Y-55019600D01*
X87667000Y-60007000D02*
X86212400Y-60007000D01*
X73011100Y-82055400D02*
X76171500Y-85215800D01*
X73011100Y-70362500D02*
X73011100Y-82055400D01*
X73189500Y-70184100D02*
X73011100Y-70362500D01*
X78773700Y-89807700D02*
X78934000Y-89807700D01*
X71367200Y-82401200D02*
X78773700Y-89807700D01*
X71367200Y-71560500D02*
X71367200Y-82401200D01*
X85696200Y-57467000D02*
X87667000Y-57467000D01*
X82065300Y-53836100D02*
X85696200Y-57467000D01*
X78624600Y-53836100D02*
X82065300Y-53836100D01*
X78395400Y-53606900D02*
X78624600Y-53836100D01*
X74270900Y-53606900D02*
X78395400Y-53606900D01*
X70556200Y-57321600D02*
X74270900Y-53606900D01*
X70556200Y-70749500D02*
X70556200Y-57321600D01*
X71367200Y-71560500D02*
X70556200Y-70749500D01*
M02*
