G04 #@! TF.GenerationSoftware,KiCad,Pcbnew,7.0.10*
G04 #@! TF.CreationDate,2024-02-09T18:30:01-05:00*
G04 #@! TF.ProjectId,Rosco-MiniHat,526f7363-6f2d-44d6-996e-694861742e6b,rev?*
G04 #@! TF.SameCoordinates,Original*
G04 #@! TF.FileFunction,Copper,L2,Inr*
G04 #@! TF.FilePolarity,Positive*
%FSLAX46Y46*%
G04 Gerber Fmt 4.6, Leading zero omitted, Abs format (unit mm)*
G04 Created by KiCad (PCBNEW 7.0.10) date 2024-02-09 18:30:01*
%MOMM*%
%LPD*%
G01*
G04 APERTURE LIST*
G04 #@! TA.AperFunction,ComponentPad*
%ADD10R,1.700000X1.700000*%
G04 #@! TD*
G04 #@! TA.AperFunction,ComponentPad*
%ADD11O,1.700000X1.700000*%
G04 #@! TD*
G04 #@! TA.AperFunction,ComponentPad*
%ADD12R,1.600000X1.600000*%
G04 #@! TD*
G04 #@! TA.AperFunction,ComponentPad*
%ADD13O,1.600000X1.600000*%
G04 #@! TD*
G04 #@! TA.AperFunction,ViaPad*
%ADD14C,0.700000*%
G04 #@! TD*
G04 #@! TA.AperFunction,Conductor*
%ADD15C,0.500000*%
G04 #@! TD*
G04 #@! TA.AperFunction,Conductor*
%ADD16C,0.250000*%
G04 #@! TD*
G04 APERTURE END LIST*
D10*
X58288000Y-52320000D03*
D11*
X58288000Y-54860000D03*
X58288000Y-57400000D03*
X58288000Y-59940000D03*
X58288000Y-62480000D03*
D12*
X111867000Y-52387000D03*
D13*
X111867000Y-54927000D03*
X111867000Y-57467000D03*
X111867000Y-60007000D03*
X111867000Y-62547000D03*
X111867000Y-65087000D03*
X111867000Y-67627000D03*
X111867000Y-70167000D03*
X111867000Y-72707000D03*
X111867000Y-75247000D03*
X111867000Y-77787000D03*
X111867000Y-80327000D03*
X111867000Y-82867000D03*
X111867000Y-85407000D03*
X111867000Y-87947000D03*
X111867000Y-90487000D03*
X127107000Y-90487000D03*
X127107000Y-87947000D03*
X127107000Y-85407000D03*
X127107000Y-82867000D03*
X127107000Y-80327000D03*
X127107000Y-77787000D03*
X127107000Y-75247000D03*
X127107000Y-72707000D03*
X127107000Y-70167000D03*
X127107000Y-67627000D03*
X127107000Y-65087000D03*
X127107000Y-62547000D03*
X127107000Y-60007000D03*
X127107000Y-57467000D03*
X127107000Y-54927000D03*
X127107000Y-52387000D03*
D12*
X87667000Y-52387000D03*
D13*
X87667000Y-54927000D03*
X87667000Y-57467000D03*
X87667000Y-60007000D03*
X87667000Y-62547000D03*
X87667000Y-65087000D03*
X87667000Y-67627000D03*
X87667000Y-70167000D03*
X87667000Y-72707000D03*
X87667000Y-75247000D03*
X87667000Y-77787000D03*
X87667000Y-80327000D03*
X87667000Y-82867000D03*
X87667000Y-85407000D03*
X87667000Y-87947000D03*
X87667000Y-90487000D03*
X102907000Y-90487000D03*
X102907000Y-87947000D03*
X102907000Y-85407000D03*
X102907000Y-82867000D03*
X102907000Y-80327000D03*
X102907000Y-77787000D03*
X102907000Y-75247000D03*
X102907000Y-72707000D03*
X102907000Y-70167000D03*
X102907000Y-67627000D03*
X102907000Y-65087000D03*
X102907000Y-62547000D03*
X102907000Y-60007000D03*
X102907000Y-57467000D03*
X102907000Y-54927000D03*
X102907000Y-52387000D03*
D14*
X65500000Y-79500000D03*
X83500000Y-63500000D03*
X83500000Y-83500000D03*
X65500000Y-59500000D03*
X83500000Y-79000000D03*
X65500000Y-84000000D03*
X83500000Y-59000000D03*
X65500000Y-64000000D03*
X67135500Y-66700000D03*
X67586700Y-86700000D03*
X71303400Y-67500000D03*
X70243600Y-86797600D03*
X67589500Y-88854800D03*
X67544300Y-69135200D03*
X86023000Y-87709000D03*
X86414700Y-71570200D03*
X83803300Y-68209100D03*
X84029600Y-85671000D03*
X78413500Y-58547100D03*
X77117100Y-57260700D03*
X84469800Y-71966500D03*
X82681100Y-54972300D03*
X85179700Y-71059600D03*
X81952000Y-53553500D03*
X69470400Y-70935800D03*
X67760200Y-53100000D03*
X71134100Y-58669400D03*
X70851400Y-72182900D03*
X67594800Y-73962600D03*
X67751200Y-54700000D03*
X70422500Y-55500000D03*
X85110600Y-77060000D03*
X70240000Y-74824800D03*
X65152400Y-77663200D03*
X73162700Y-60780100D03*
X71916900Y-62034200D03*
X71755300Y-64821600D03*
X66216300Y-67952500D03*
X82820100Y-64996200D03*
X90490500Y-72654800D03*
X89606000Y-65184700D03*
X89733900Y-62335400D03*
X81587400Y-58958500D03*
X89678600Y-61375600D03*
X72069300Y-57525500D03*
X77819700Y-81247900D03*
X90648600Y-70274600D03*
X78904000Y-67375500D03*
X71888500Y-65876200D03*
X77148100Y-72994000D03*
X81410700Y-87534800D03*
X105944100Y-83307400D03*
X89678600Y-77765900D03*
X89044300Y-85653400D03*
X85517400Y-69100000D03*
X70851500Y-68877600D03*
X70230300Y-87813800D03*
X68206800Y-70771600D03*
X72976900Y-82303600D03*
X101528400Y-58737000D03*
X70926200Y-80416700D03*
X71203800Y-82168700D03*
X71205400Y-83126400D03*
X85855900Y-83791500D03*
X81658100Y-83323500D03*
X86022900Y-78969900D03*
D15*
X82700000Y-79800000D02*
X82000000Y-79100000D01*
X78500000Y-64000000D02*
X82000000Y-60500000D01*
X110617000Y-89237000D02*
X88917000Y-89237000D01*
X82700000Y-79800000D02*
X83500000Y-79000000D01*
X87667000Y-90487000D02*
X82700000Y-85520000D01*
X111867000Y-90487000D02*
X110617000Y-89237000D01*
X82700000Y-79800000D02*
X83500000Y-79000000D01*
X88917000Y-89237000D02*
X87667000Y-90487000D01*
X82000000Y-60500000D02*
X83500000Y-59000000D01*
X65500000Y-84000000D02*
X78500000Y-84000000D01*
X65500000Y-64000000D02*
X78500000Y-64000000D01*
X82700000Y-85520000D02*
X82700000Y-79800000D01*
X78500000Y-84000000D02*
X82700000Y-79800000D01*
X82000000Y-79100000D02*
X82000000Y-60500000D01*
D16*
X66900300Y-69779200D02*
X67544300Y-69135200D01*
X64789400Y-86054700D02*
X64789400Y-81167900D01*
X64789400Y-81167900D02*
X66900300Y-79057000D01*
X66900300Y-79057000D02*
X66900300Y-69779200D01*
X67589500Y-88854800D02*
X64789400Y-86054700D01*
X88828900Y-71533700D02*
X88792400Y-71570200D01*
X88052000Y-84137000D02*
X88793900Y-83395100D01*
X87948700Y-58593900D02*
X88828900Y-59474100D01*
X88792400Y-71570200D02*
X86414700Y-71570200D01*
X87311700Y-84137000D02*
X88052000Y-84137000D01*
X88793900Y-83395100D02*
X88793900Y-71571700D01*
X88828900Y-59474100D02*
X88828900Y-71533700D01*
X86023000Y-85425700D02*
X87311700Y-84137000D01*
X86023000Y-87709000D02*
X86023000Y-85425700D01*
X87667000Y-57467000D02*
X87667000Y-58593900D01*
X88793900Y-71571700D02*
X88792400Y-71570200D01*
X87667000Y-58593900D02*
X87948700Y-58593900D01*
X83792900Y-68219500D02*
X83803300Y-68209100D01*
X87667000Y-60007000D02*
X87667000Y-61133900D01*
X83792900Y-75182500D02*
X83792900Y-68219500D01*
X84029600Y-85671000D02*
X84179600Y-85521000D01*
X84179600Y-75569200D02*
X83792900Y-75182500D01*
X83803300Y-64764100D02*
X83803300Y-68209100D01*
X87433500Y-61133900D02*
X83803300Y-64764100D01*
X84179600Y-85521000D02*
X84179600Y-75569200D01*
X87667000Y-61133900D02*
X87433500Y-61133900D01*
X77117100Y-57260700D02*
X77127100Y-57260700D01*
X77127100Y-57260700D02*
X78413500Y-58547100D01*
X87667000Y-65087000D02*
X87667000Y-66213900D01*
X84469800Y-69176600D02*
X84469800Y-71966500D01*
X87432500Y-66213900D02*
X84469800Y-69176600D01*
X87667000Y-66213900D02*
X87432500Y-66213900D01*
X87485400Y-68753900D02*
X85179700Y-71059600D01*
X87667000Y-68753900D02*
X87485400Y-68753900D01*
X87667000Y-67627000D02*
X87667000Y-68753900D01*
X85813100Y-77060000D02*
X86540100Y-77787000D01*
X87667000Y-77787000D02*
X86540100Y-77787000D01*
X85110600Y-77060000D02*
X85813100Y-77060000D01*
X90490500Y-74637100D02*
X102673500Y-86820100D01*
X90490500Y-72654800D02*
X90490500Y-74637100D01*
X102907000Y-87947000D02*
X102907000Y-86820100D01*
X102673500Y-86820100D02*
X102907000Y-86820100D01*
X91352800Y-66931500D02*
X91352800Y-72959400D01*
X91352800Y-72959400D02*
X102673500Y-84280100D01*
X102673500Y-84280100D02*
X102907000Y-84280100D01*
X102907000Y-85407000D02*
X102907000Y-84280100D01*
X89606000Y-65184700D02*
X91352800Y-66931500D01*
X102907000Y-82867000D02*
X102907000Y-81740100D01*
X91830600Y-64432100D02*
X89733900Y-62335400D01*
X102907000Y-81740100D02*
X102673500Y-81740100D01*
X102673500Y-81740100D02*
X91830600Y-70897200D01*
X91830600Y-70897200D02*
X91830600Y-64432100D01*
X101492400Y-78019000D02*
X102673500Y-79200100D01*
X101492400Y-73073400D02*
X101492400Y-78019000D01*
X89794600Y-61375600D02*
X101492400Y-73073400D01*
X89678600Y-61375600D02*
X89794600Y-61375600D01*
X102907000Y-80327000D02*
X102907000Y-79200100D01*
X102673500Y-79200100D02*
X102907000Y-79200100D01*
X103188700Y-76660100D02*
X104034300Y-75814500D01*
X73324500Y-56270300D02*
X72069300Y-57525500D01*
X102907000Y-76660100D02*
X103188700Y-76660100D01*
X90126800Y-58981300D02*
X90126800Y-58252000D01*
X88145100Y-56270300D02*
X73324500Y-56270300D01*
X104034300Y-75814500D02*
X104034300Y-72196500D01*
X104034300Y-72196500D02*
X103274800Y-71437000D01*
X90126800Y-58252000D02*
X88145100Y-56270300D01*
X103274800Y-71437000D02*
X102582500Y-71437000D01*
X102582500Y-71437000D02*
X90126800Y-58981300D01*
X102907000Y-77787000D02*
X102907000Y-76660100D01*
X77819700Y-81247900D02*
X78904000Y-80163600D01*
X78904000Y-80163600D02*
X78904000Y-67375500D01*
X77148100Y-72994000D02*
X77148100Y-71135800D01*
X77148100Y-71135800D02*
X71888500Y-65876200D01*
X105944100Y-71557500D02*
X103140500Y-68753900D01*
X102907000Y-67627000D02*
X102907000Y-68753900D01*
X105944100Y-83307400D02*
X105944100Y-71557500D01*
X103140500Y-68753900D02*
X102907000Y-68753900D01*
X84835500Y-53778300D02*
X100631400Y-53778300D01*
X102907000Y-54927000D02*
X101780100Y-54927000D01*
X68275000Y-70703400D02*
X68275000Y-68853300D01*
X72976900Y-82303600D02*
X72976900Y-75541700D01*
X84318500Y-54295300D02*
X84835500Y-53778300D01*
X100631400Y-53778300D02*
X101780100Y-54927000D01*
X64796600Y-63712200D02*
X74213500Y-54295300D01*
X64796600Y-65374900D02*
X64796600Y-63712200D01*
X72976900Y-75541700D02*
X68206800Y-70771600D01*
X68275000Y-68853300D02*
X64796600Y-65374900D01*
X68206800Y-70771600D02*
X68275000Y-70703400D01*
X74213500Y-54295300D02*
X84318500Y-54295300D01*
X114550100Y-66357000D02*
X125980100Y-77787000D01*
X101528400Y-58737000D02*
X103241500Y-58737000D01*
X110861500Y-66357000D02*
X114550100Y-66357000D01*
X103241500Y-58737000D02*
X110861500Y-66357000D01*
X127107000Y-77787000D02*
X125980100Y-77787000D01*
X127107000Y-85407000D02*
X125980100Y-85407000D01*
X87182800Y-91660500D02*
X119726600Y-91660500D01*
X119726600Y-91660500D02*
X125980100Y-85407000D01*
X81658100Y-83323500D02*
X81658100Y-86135800D01*
X81658100Y-86135800D02*
X87182800Y-91660500D01*
G04 #@! TA.AperFunction,Conductor*
G36*
X128426008Y-50499992D02*
G01*
X128473453Y-50517630D01*
X128498462Y-50561639D01*
X128499500Y-50573990D01*
X128499500Y-92425500D01*
X128482187Y-92473066D01*
X128438350Y-92498376D01*
X128425500Y-92499500D01*
X56073629Y-92499500D01*
X56026063Y-92482187D01*
X56000753Y-92438350D01*
X55999634Y-92426371D01*
X55925466Y-86122093D01*
X64363900Y-86122093D01*
X64372025Y-86147100D01*
X64372577Y-86148797D01*
X64375288Y-86160089D01*
X64379680Y-86187824D01*
X64392430Y-86212846D01*
X64396874Y-86223575D01*
X64405551Y-86250282D01*
X64422055Y-86272997D01*
X64428122Y-86282896D01*
X64431222Y-86288980D01*
X64440872Y-86307920D01*
X66914540Y-88781588D01*
X66935932Y-88827464D01*
X66935674Y-88842831D01*
X66934223Y-88854796D01*
X66934222Y-88854801D01*
X66934222Y-88854804D01*
X66953261Y-89011608D01*
X66953264Y-89011622D01*
X67009278Y-89159321D01*
X67099016Y-89289329D01*
X67099017Y-89289330D01*
X67217260Y-89394083D01*
X67357135Y-89467496D01*
X67510515Y-89505300D01*
X67510519Y-89505300D01*
X67668481Y-89505300D01*
X67668485Y-89505300D01*
X67821865Y-89467496D01*
X67961740Y-89394083D01*
X68079983Y-89289330D01*
X68169720Y-89159323D01*
X68225737Y-89011618D01*
X68244778Y-88854800D01*
X68225737Y-88697982D01*
X68217713Y-88676825D01*
X68169721Y-88550278D01*
X68079983Y-88420270D01*
X68011387Y-88359500D01*
X67961740Y-88315517D01*
X67833728Y-88248330D01*
X67821866Y-88242104D01*
X67668487Y-88204300D01*
X67668485Y-88204300D01*
X67571400Y-88204300D01*
X67523834Y-88186987D01*
X67519074Y-88182626D01*
X67150251Y-87813803D01*
X69575022Y-87813803D01*
X69594061Y-87970608D01*
X69594064Y-87970622D01*
X69650078Y-88118321D01*
X69739785Y-88248284D01*
X69739817Y-88248330D01*
X69858060Y-88353083D01*
X69997935Y-88426496D01*
X70151315Y-88464300D01*
X70151319Y-88464300D01*
X70309281Y-88464300D01*
X70309285Y-88464300D01*
X70462665Y-88426496D01*
X70602540Y-88353083D01*
X70720783Y-88248330D01*
X70810520Y-88118323D01*
X70866537Y-87970618D01*
X70873588Y-87912542D01*
X70885578Y-87813803D01*
X70885578Y-87813796D01*
X70866538Y-87656991D01*
X70866537Y-87656982D01*
X70858513Y-87635825D01*
X70820201Y-87534803D01*
X80755422Y-87534803D01*
X80774461Y-87691608D01*
X80774464Y-87691622D01*
X80830478Y-87839321D01*
X80920216Y-87969329D01*
X80920217Y-87969330D01*
X81038460Y-88074083D01*
X81166234Y-88141145D01*
X81170778Y-88143530D01*
X81178335Y-88147496D01*
X81331715Y-88185300D01*
X81331719Y-88185300D01*
X81489681Y-88185300D01*
X81489685Y-88185300D01*
X81643065Y-88147496D01*
X81782940Y-88074083D01*
X81901183Y-87969330D01*
X81990920Y-87839323D01*
X82000599Y-87813803D01*
X82027100Y-87743923D01*
X82046937Y-87691618D01*
X82053988Y-87633542D01*
X82065978Y-87534803D01*
X82065978Y-87534796D01*
X82046938Y-87377991D01*
X82046937Y-87377982D01*
X82015463Y-87294994D01*
X82014784Y-87244381D01*
X82046798Y-87205172D01*
X82096525Y-87195713D01*
X82136981Y-87216429D01*
X86834272Y-91913720D01*
X86929580Y-92009028D01*
X86954602Y-92021777D01*
X86964494Y-92027840D01*
X86987217Y-92044349D01*
X86987218Y-92044349D01*
X86987219Y-92044350D01*
X87013924Y-92053026D01*
X87024655Y-92057471D01*
X87049670Y-92070217D01*
X87049674Y-92070219D01*
X87077406Y-92074610D01*
X87088689Y-92077318D01*
X87115407Y-92086000D01*
X87115408Y-92086000D01*
X119793991Y-92086000D01*
X119793993Y-92086000D01*
X119820708Y-92077318D01*
X119831974Y-92074613D01*
X119859726Y-92070219D01*
X119884756Y-92057464D01*
X119895473Y-92053026D01*
X119922181Y-92044349D01*
X119944894Y-92027846D01*
X119954799Y-92021776D01*
X119959213Y-92019526D01*
X119979820Y-92009028D01*
X120075128Y-91913720D01*
X121501845Y-90487003D01*
X126001785Y-90487003D01*
X126020601Y-90690076D01*
X126020602Y-90690082D01*
X126056043Y-90814641D01*
X126076418Y-90886250D01*
X126167327Y-91068821D01*
X126167328Y-91068822D01*
X126167329Y-91068825D01*
X126290234Y-91231578D01*
X126290235Y-91231579D01*
X126427637Y-91356836D01*
X126440959Y-91368981D01*
X126614363Y-91476348D01*
X126804544Y-91550024D01*
X127005024Y-91587500D01*
X127005026Y-91587500D01*
X127208974Y-91587500D01*
X127208976Y-91587500D01*
X127409456Y-91550024D01*
X127599637Y-91476348D01*
X127773041Y-91368981D01*
X127923764Y-91231579D01*
X127969054Y-91171606D01*
X128046670Y-91068825D01*
X128046670Y-91068824D01*
X128046673Y-91068821D01*
X128137582Y-90886250D01*
X128193397Y-90690083D01*
X128200633Y-90612001D01*
X128212215Y-90487003D01*
X128212215Y-90486996D01*
X128193398Y-90283923D01*
X128193397Y-90283917D01*
X128174262Y-90216665D01*
X128137582Y-90087750D01*
X128046673Y-89905179D01*
X128046670Y-89905175D01*
X128046670Y-89905174D01*
X127923765Y-89742421D01*
X127923764Y-89742420D01*
X127773041Y-89605019D01*
X127599637Y-89497652D01*
X127409456Y-89423976D01*
X127321407Y-89407516D01*
X127208979Y-89386500D01*
X127208976Y-89386500D01*
X127005024Y-89386500D01*
X127005020Y-89386500D01*
X126855116Y-89414522D01*
X126804544Y-89423976D01*
X126804542Y-89423976D01*
X126804540Y-89423977D01*
X126614368Y-89497650D01*
X126614363Y-89497652D01*
X126614358Y-89497654D01*
X126614358Y-89497655D01*
X126440958Y-89605019D01*
X126440957Y-89605019D01*
X126290235Y-89742420D01*
X126290234Y-89742421D01*
X126167329Y-89905174D01*
X126167328Y-89905177D01*
X126076418Y-90087750D01*
X126076416Y-90087755D01*
X126020602Y-90283917D01*
X126020601Y-90283923D01*
X126001785Y-90486996D01*
X126001785Y-90487003D01*
X121501845Y-90487003D01*
X124041844Y-87947003D01*
X126001785Y-87947003D01*
X126020601Y-88150076D01*
X126020602Y-88150082D01*
X126076416Y-88346244D01*
X126076418Y-88346250D01*
X126167327Y-88528821D01*
X126167328Y-88528822D01*
X126167329Y-88528825D01*
X126290234Y-88691578D01*
X126290235Y-88691579D01*
X126388971Y-88781588D01*
X126440959Y-88828981D01*
X126614363Y-88936348D01*
X126804544Y-89010024D01*
X127005024Y-89047500D01*
X127005026Y-89047500D01*
X127208974Y-89047500D01*
X127208976Y-89047500D01*
X127409456Y-89010024D01*
X127599637Y-88936348D01*
X127773041Y-88828981D01*
X127923764Y-88691579D01*
X128046673Y-88528821D01*
X128137582Y-88346250D01*
X128193397Y-88150083D01*
X128194005Y-88143530D01*
X128212215Y-87947003D01*
X128212215Y-87946996D01*
X128193398Y-87743923D01*
X128193397Y-87743917D01*
X128183461Y-87708996D01*
X128137582Y-87547750D01*
X128046673Y-87365179D01*
X128046670Y-87365175D01*
X128046670Y-87365174D01*
X127923765Y-87202421D01*
X127923764Y-87202420D01*
X127773041Y-87065019D01*
X127660791Y-86995517D01*
X127599637Y-86957652D01*
X127438057Y-86895056D01*
X127409459Y-86883977D01*
X127409458Y-86883976D01*
X127409456Y-86883976D01*
X127321407Y-86867516D01*
X127208979Y-86846500D01*
X127208976Y-86846500D01*
X127005024Y-86846500D01*
X127005020Y-86846500D01*
X126855116Y-86874522D01*
X126804544Y-86883976D01*
X126804542Y-86883976D01*
X126804540Y-86883977D01*
X126614373Y-86957648D01*
X126614363Y-86957652D01*
X126614358Y-86957654D01*
X126614358Y-86957655D01*
X126440958Y-87065019D01*
X126440957Y-87065019D01*
X126290235Y-87202420D01*
X126290234Y-87202421D01*
X126167329Y-87365174D01*
X126167328Y-87365177D01*
X126076418Y-87547750D01*
X126076416Y-87547755D01*
X126020602Y-87743917D01*
X126020601Y-87743923D01*
X126001785Y-87946996D01*
X126001785Y-87947003D01*
X124041844Y-87947003D01*
X126038989Y-85949857D01*
X126084864Y-85928466D01*
X126133759Y-85941567D01*
X126157555Y-85969198D01*
X126167324Y-85988817D01*
X126167329Y-85988825D01*
X126290234Y-86151578D01*
X126290235Y-86151579D01*
X126398507Y-86250281D01*
X126440959Y-86288981D01*
X126614363Y-86396348D01*
X126804544Y-86470024D01*
X127005024Y-86507500D01*
X127005026Y-86507500D01*
X127208974Y-86507500D01*
X127208976Y-86507500D01*
X127409456Y-86470024D01*
X127599637Y-86396348D01*
X127773041Y-86288981D01*
X127923764Y-86151579D01*
X127927147Y-86147100D01*
X128046670Y-85988825D01*
X128046670Y-85988824D01*
X128046673Y-85988821D01*
X128137582Y-85806250D01*
X128193397Y-85610083D01*
X128194017Y-85603400D01*
X128212215Y-85407003D01*
X128212215Y-85406996D01*
X128193398Y-85203923D01*
X128193397Y-85203917D01*
X128167846Y-85114116D01*
X128137582Y-85007750D01*
X128046673Y-84825179D01*
X128046670Y-84825175D01*
X128046670Y-84825174D01*
X127923765Y-84662421D01*
X127923764Y-84662420D01*
X127773041Y-84525019D01*
X127726280Y-84496066D01*
X127599637Y-84417652D01*
X127409456Y-84343976D01*
X127321407Y-84327516D01*
X127208979Y-84306500D01*
X127208976Y-84306500D01*
X127005024Y-84306500D01*
X127005020Y-84306500D01*
X126855116Y-84334522D01*
X126804544Y-84343976D01*
X126804542Y-84343976D01*
X126804540Y-84343977D01*
X126614373Y-84417648D01*
X126614363Y-84417652D01*
X126614358Y-84417654D01*
X126614358Y-84417655D01*
X126440958Y-84525019D01*
X126440957Y-84525019D01*
X126290235Y-84662420D01*
X126290234Y-84662421D01*
X126167329Y-84825174D01*
X126167328Y-84825177D01*
X126109912Y-84940485D01*
X126073212Y-84975347D01*
X126043670Y-84981500D01*
X125912707Y-84981500D01*
X125886550Y-84989998D01*
X125886001Y-84990177D01*
X125874713Y-84992887D01*
X125846972Y-84997281D01*
X125821951Y-85010029D01*
X125811229Y-85014470D01*
X125784520Y-85023149D01*
X125784519Y-85023150D01*
X125761801Y-85039655D01*
X125751904Y-85045720D01*
X125726880Y-85058471D01*
X119572026Y-91213326D01*
X119526150Y-91234718D01*
X119519700Y-91235000D01*
X112954165Y-91235000D01*
X112906599Y-91217687D01*
X112881289Y-91173850D01*
X112890079Y-91124000D01*
X112891245Y-91122050D01*
X112891630Y-91121426D01*
X112990760Y-90922346D01*
X112990762Y-90922342D01*
X113051622Y-90708438D01*
X113060558Y-90612001D01*
X113060557Y-90612000D01*
X112252188Y-90612000D01*
X112271986Y-90487000D01*
X112252188Y-90362000D01*
X113060557Y-90362000D01*
X113060558Y-90361998D01*
X113051622Y-90265561D01*
X112990762Y-90051657D01*
X112990760Y-90051653D01*
X112891631Y-89852573D01*
X112891629Y-89852571D01*
X112757607Y-89675099D01*
X112593257Y-89525275D01*
X112404182Y-89408205D01*
X112404172Y-89408200D01*
X112196805Y-89327865D01*
X111992000Y-89289580D01*
X111992000Y-90101811D01*
X111898481Y-90087000D01*
X111835519Y-90087000D01*
X111742000Y-90101811D01*
X111742000Y-89289580D01*
X111741999Y-89289580D01*
X111537194Y-89327865D01*
X111329827Y-89408200D01*
X111329817Y-89408205D01*
X111140742Y-89525275D01*
X110976392Y-89675099D01*
X110842370Y-89852571D01*
X110842368Y-89852573D01*
X110743239Y-90051653D01*
X110743237Y-90051657D01*
X110682377Y-90265561D01*
X110673441Y-90361998D01*
X110673443Y-90362000D01*
X111481812Y-90362000D01*
X111462014Y-90487000D01*
X111481812Y-90612000D01*
X110673443Y-90612000D01*
X110673441Y-90612001D01*
X110682377Y-90708438D01*
X110743237Y-90922342D01*
X110743239Y-90922346D01*
X110842369Y-91121426D01*
X110842755Y-91122050D01*
X110842809Y-91122310D01*
X110843893Y-91124487D01*
X110843321Y-91124771D01*
X110853071Y-91171606D01*
X110829119Y-91216200D01*
X110782107Y-91234965D01*
X110779835Y-91235000D01*
X103869793Y-91235000D01*
X103822227Y-91217687D01*
X103796917Y-91173850D01*
X103805707Y-91124000D01*
X103810740Y-91116405D01*
X103846670Y-91068825D01*
X103846670Y-91068824D01*
X103846673Y-91068821D01*
X103937582Y-90886250D01*
X103993397Y-90690083D01*
X104000633Y-90612001D01*
X104012215Y-90487003D01*
X104012215Y-90486996D01*
X103993398Y-90283923D01*
X103993397Y-90283917D01*
X103974262Y-90216665D01*
X103937582Y-90087750D01*
X103846673Y-89905179D01*
X103846670Y-89905175D01*
X103846670Y-89905174D01*
X103723765Y-89742421D01*
X103723764Y-89742420D01*
X103573041Y-89605019D01*
X103399637Y-89497652D01*
X103209456Y-89423976D01*
X103121407Y-89407516D01*
X103008979Y-89386500D01*
X103008976Y-89386500D01*
X102805024Y-89386500D01*
X102805020Y-89386500D01*
X102655116Y-89414522D01*
X102604544Y-89423976D01*
X102604542Y-89423976D01*
X102604540Y-89423977D01*
X102414368Y-89497650D01*
X102414363Y-89497652D01*
X102414358Y-89497654D01*
X102414358Y-89497655D01*
X102240958Y-89605019D01*
X102240957Y-89605019D01*
X102090235Y-89742420D01*
X102090234Y-89742421D01*
X101967329Y-89905174D01*
X101967328Y-89905177D01*
X101876418Y-90087750D01*
X101876416Y-90087755D01*
X101820602Y-90283917D01*
X101820601Y-90283923D01*
X101801785Y-90486996D01*
X101801785Y-90487003D01*
X101820601Y-90690076D01*
X101820602Y-90690082D01*
X101856043Y-90814641D01*
X101876418Y-90886250D01*
X101967327Y-91068821D01*
X101967328Y-91068822D01*
X101967329Y-91068825D01*
X102003260Y-91116405D01*
X102018110Y-91164797D01*
X101998379Y-91211413D01*
X101953300Y-91234439D01*
X101944207Y-91235000D01*
X88754165Y-91235000D01*
X88706599Y-91217687D01*
X88681289Y-91173850D01*
X88690079Y-91124000D01*
X88691245Y-91122050D01*
X88691630Y-91121426D01*
X88790760Y-90922346D01*
X88790762Y-90922342D01*
X88851622Y-90708438D01*
X88860558Y-90612001D01*
X88860557Y-90612000D01*
X88052188Y-90612000D01*
X88071986Y-90487000D01*
X88052188Y-90362000D01*
X88860557Y-90362000D01*
X88860558Y-90361998D01*
X88851622Y-90265561D01*
X88790762Y-90051657D01*
X88790760Y-90051653D01*
X88691631Y-89852573D01*
X88691629Y-89852571D01*
X88557607Y-89675099D01*
X88393257Y-89525275D01*
X88204182Y-89408205D01*
X88204172Y-89408200D01*
X87996805Y-89327865D01*
X87792000Y-89289580D01*
X87792000Y-90101811D01*
X87698481Y-90087000D01*
X87635519Y-90087000D01*
X87542000Y-90101811D01*
X87542000Y-89289580D01*
X87541999Y-89289580D01*
X87337194Y-89327865D01*
X87129827Y-89408200D01*
X87129817Y-89408205D01*
X86940742Y-89525275D01*
X86776392Y-89675099D01*
X86642370Y-89852571D01*
X86642368Y-89852573D01*
X86543239Y-90051653D01*
X86543237Y-90051658D01*
X86496289Y-90216665D01*
X86466620Y-90257678D01*
X86417530Y-90270024D01*
X86372788Y-90248740D01*
X82105274Y-85981226D01*
X82083882Y-85935350D01*
X82083600Y-85928900D01*
X82083600Y-83848904D01*
X82100913Y-83801338D01*
X82108529Y-83793514D01*
X82110799Y-83791503D01*
X82148583Y-83758030D01*
X82238320Y-83628023D01*
X82244557Y-83611579D01*
X82266682Y-83553238D01*
X82294337Y-83480318D01*
X82310989Y-83343177D01*
X82313378Y-83323503D01*
X82313378Y-83323496D01*
X82294338Y-83166691D01*
X82294337Y-83166682D01*
X82257702Y-83070082D01*
X82238321Y-83018978D01*
X82148583Y-82888970D01*
X82130406Y-82872867D01*
X82030340Y-82784217D01*
X81942528Y-82738129D01*
X81890466Y-82710804D01*
X81737087Y-82673000D01*
X81737085Y-82673000D01*
X81579115Y-82673000D01*
X81579112Y-82673000D01*
X81425733Y-82710804D01*
X81285861Y-82784216D01*
X81167616Y-82888970D01*
X81077879Y-83018978D01*
X81077878Y-83018978D01*
X81021864Y-83166677D01*
X81021861Y-83166691D01*
X81002822Y-83323496D01*
X81002822Y-83323503D01*
X81021861Y-83480308D01*
X81021864Y-83480322D01*
X81077878Y-83628021D01*
X81157676Y-83743628D01*
X81167617Y-83758030D01*
X81205397Y-83791500D01*
X81207671Y-83793514D01*
X81231794Y-83838015D01*
X81232600Y-83848904D01*
X81232600Y-86203193D01*
X81241277Y-86229897D01*
X81243988Y-86241189D01*
X81248380Y-86268924D01*
X81248380Y-86268925D01*
X81248381Y-86268926D01*
X81258599Y-86288980D01*
X81261130Y-86293946D01*
X81265574Y-86304675D01*
X81274251Y-86331382D01*
X81290755Y-86354097D01*
X81296823Y-86363998D01*
X81309572Y-86389020D01*
X81720837Y-86800285D01*
X81742229Y-86846161D01*
X81729128Y-86895056D01*
X81687664Y-86924090D01*
X81647682Y-86922074D01*
X81647411Y-86923175D01*
X81489687Y-86884300D01*
X81489685Y-86884300D01*
X81331715Y-86884300D01*
X81331712Y-86884300D01*
X81178333Y-86922104D01*
X81038461Y-86995516D01*
X80920216Y-87100270D01*
X80830479Y-87230278D01*
X80830478Y-87230278D01*
X80774464Y-87377977D01*
X80774461Y-87377991D01*
X80755422Y-87534796D01*
X80755422Y-87534803D01*
X70820201Y-87534803D01*
X70810521Y-87509278D01*
X70745485Y-87415057D01*
X70720783Y-87379270D01*
X70720781Y-87379268D01*
X70720781Y-87379267D01*
X70706912Y-87366981D01*
X70682788Y-87322481D01*
X70692912Y-87272885D01*
X70706909Y-87256203D01*
X70734083Y-87232130D01*
X70823820Y-87102123D01*
X70831784Y-87081125D01*
X70848872Y-87036066D01*
X70879837Y-86954418D01*
X70898878Y-86797600D01*
X70879837Y-86640782D01*
X70842826Y-86543191D01*
X70823821Y-86493078D01*
X70734083Y-86363070D01*
X70698313Y-86331381D01*
X70615840Y-86258317D01*
X70583206Y-86241189D01*
X70475966Y-86184904D01*
X70322587Y-86147100D01*
X70322585Y-86147100D01*
X70164615Y-86147100D01*
X70164612Y-86147100D01*
X70011233Y-86184904D01*
X69871361Y-86258316D01*
X69753116Y-86363070D01*
X69663379Y-86493078D01*
X69663378Y-86493078D01*
X69607364Y-86640777D01*
X69607361Y-86640791D01*
X69588322Y-86797596D01*
X69588322Y-86797603D01*
X69607361Y-86954408D01*
X69607364Y-86954422D01*
X69663378Y-87102121D01*
X69753117Y-87232130D01*
X69766988Y-87244419D01*
X69791111Y-87288920D01*
X69780985Y-87338516D01*
X69766988Y-87355197D01*
X69739818Y-87379267D01*
X69650079Y-87509278D01*
X69650078Y-87509278D01*
X69594064Y-87656977D01*
X69594061Y-87656991D01*
X69575022Y-87813796D01*
X69575022Y-87813803D01*
X67150251Y-87813803D01*
X66036451Y-86700003D01*
X66931422Y-86700003D01*
X66950461Y-86856808D01*
X66950464Y-86856822D01*
X67006478Y-87004521D01*
X67073848Y-87102123D01*
X67096217Y-87134530D01*
X67214460Y-87239283D01*
X67354335Y-87312696D01*
X67507715Y-87350500D01*
X67507719Y-87350500D01*
X67665681Y-87350500D01*
X67665685Y-87350500D01*
X67819065Y-87312696D01*
X67958940Y-87239283D01*
X68077183Y-87134530D01*
X68166920Y-87004523D01*
X68222937Y-86856818D01*
X68241978Y-86700000D01*
X68240396Y-86686974D01*
X68222938Y-86543191D01*
X68222937Y-86543182D01*
X68185011Y-86443179D01*
X68166921Y-86395478D01*
X68077183Y-86265470D01*
X68037029Y-86229897D01*
X67958940Y-86160717D01*
X67919698Y-86140121D01*
X67819066Y-86087304D01*
X67665687Y-86049500D01*
X67665685Y-86049500D01*
X67507715Y-86049500D01*
X67507712Y-86049500D01*
X67354333Y-86087304D01*
X67214461Y-86160716D01*
X67096216Y-86265470D01*
X67006479Y-86395478D01*
X67006478Y-86395478D01*
X66950464Y-86543177D01*
X66950461Y-86543191D01*
X66931422Y-86699996D01*
X66931422Y-86700003D01*
X66036451Y-86700003D01*
X65236574Y-85900126D01*
X65215182Y-85854250D01*
X65214900Y-85847800D01*
X65214900Y-82168703D01*
X70548522Y-82168703D01*
X70567561Y-82325508D01*
X70567564Y-82325522D01*
X70623578Y-82473221D01*
X70715693Y-82606672D01*
X70728465Y-82655653D01*
X70715693Y-82690746D01*
X70625179Y-82821878D01*
X70625178Y-82821878D01*
X70569164Y-82969577D01*
X70569161Y-82969591D01*
X70550122Y-83126396D01*
X70550122Y-83126403D01*
X70569161Y-83283208D01*
X70569164Y-83283222D01*
X70625178Y-83430921D01*
X70714916Y-83560929D01*
X70714917Y-83560930D01*
X70833160Y-83665683D01*
X70973035Y-83739096D01*
X71126415Y-83776900D01*
X71126419Y-83776900D01*
X71284381Y-83776900D01*
X71284385Y-83776900D01*
X71437765Y-83739096D01*
X71577640Y-83665683D01*
X71695883Y-83560930D01*
X71785620Y-83430923D01*
X71841637Y-83283218D01*
X71848688Y-83225142D01*
X71860678Y-83126403D01*
X71860678Y-83126396D01*
X71841638Y-82969591D01*
X71841637Y-82969582D01*
X71785620Y-82821877D01*
X71705369Y-82705613D01*
X71693507Y-82688427D01*
X71680735Y-82639445D01*
X71693507Y-82604353D01*
X71694280Y-82603231D01*
X71694283Y-82603230D01*
X71784020Y-82473223D01*
X71840037Y-82325518D01*
X71859078Y-82168700D01*
X71840037Y-82011882D01*
X71815405Y-81946933D01*
X71784021Y-81864178D01*
X71694283Y-81734170D01*
X71635880Y-81682430D01*
X71576040Y-81629417D01*
X71533277Y-81606973D01*
X71436166Y-81556004D01*
X71282787Y-81518200D01*
X71282785Y-81518200D01*
X71124815Y-81518200D01*
X71124812Y-81518200D01*
X70971433Y-81556004D01*
X70831561Y-81629416D01*
X70713316Y-81734170D01*
X70623579Y-81864178D01*
X70623578Y-81864178D01*
X70567564Y-82011877D01*
X70567561Y-82011891D01*
X70548522Y-82168696D01*
X70548522Y-82168703D01*
X65214900Y-82168703D01*
X65214900Y-81374800D01*
X65232213Y-81327234D01*
X65236574Y-81322474D01*
X66142345Y-80416703D01*
X70270922Y-80416703D01*
X70289961Y-80573508D01*
X70289964Y-80573522D01*
X70345978Y-80721221D01*
X70409584Y-80813370D01*
X70435717Y-80851230D01*
X70553960Y-80955983D01*
X70693835Y-81029396D01*
X70847215Y-81067200D01*
X70847219Y-81067200D01*
X71005181Y-81067200D01*
X71005185Y-81067200D01*
X71158565Y-81029396D01*
X71298440Y-80955983D01*
X71416683Y-80851230D01*
X71506420Y-80721223D01*
X71562437Y-80573518D01*
X71569488Y-80515442D01*
X71581478Y-80416703D01*
X71581478Y-80416696D01*
X71562438Y-80259891D01*
X71562437Y-80259882D01*
X71551481Y-80230993D01*
X71506421Y-80112178D01*
X71416683Y-79982170D01*
X71362908Y-79934530D01*
X71298440Y-79877417D01*
X71286339Y-79871066D01*
X71158566Y-79804004D01*
X71005187Y-79766200D01*
X71005185Y-79766200D01*
X70847215Y-79766200D01*
X70847212Y-79766200D01*
X70693833Y-79804004D01*
X70553961Y-79877416D01*
X70435716Y-79982170D01*
X70345979Y-80112178D01*
X70345978Y-80112178D01*
X70289964Y-80259877D01*
X70289961Y-80259891D01*
X70270922Y-80416696D01*
X70270922Y-80416703D01*
X66142345Y-80416703D01*
X66237310Y-80321738D01*
X67224853Y-79334195D01*
X67248828Y-79310220D01*
X67261581Y-79285189D01*
X67267639Y-79275303D01*
X67284149Y-79252581D01*
X67292827Y-79225869D01*
X67297264Y-79215156D01*
X67310019Y-79190126D01*
X67314413Y-79162374D01*
X67317118Y-79151108D01*
X67325800Y-79124393D01*
X67325800Y-78989607D01*
X67325800Y-74824803D01*
X69584722Y-74824803D01*
X69603761Y-74981608D01*
X69603764Y-74981622D01*
X69659778Y-75129321D01*
X69722833Y-75220672D01*
X69749517Y-75259330D01*
X69867760Y-75364083D01*
X70007635Y-75437496D01*
X70161015Y-75475300D01*
X70161019Y-75475300D01*
X70318981Y-75475300D01*
X70318985Y-75475300D01*
X70472365Y-75437496D01*
X70612240Y-75364083D01*
X70730483Y-75259330D01*
X70820220Y-75129323D01*
X70825612Y-75115107D01*
X70852610Y-75043917D01*
X70876237Y-74981618D01*
X70884412Y-74914294D01*
X70895278Y-74824803D01*
X70895278Y-74824796D01*
X70876238Y-74667991D01*
X70876237Y-74667982D01*
X70841086Y-74575295D01*
X70820221Y-74520278D01*
X70730483Y-74390270D01*
X70659268Y-74327180D01*
X70612240Y-74285517D01*
X70559154Y-74257655D01*
X70472366Y-74212104D01*
X70318987Y-74174300D01*
X70318985Y-74174300D01*
X70161015Y-74174300D01*
X70161012Y-74174300D01*
X70007633Y-74212104D01*
X69867761Y-74285516D01*
X69749516Y-74390270D01*
X69659779Y-74520278D01*
X69659778Y-74520278D01*
X69603764Y-74667977D01*
X69603761Y-74667991D01*
X69584722Y-74824796D01*
X69584722Y-74824803D01*
X67325800Y-74824803D01*
X67325800Y-74660720D01*
X67343113Y-74613154D01*
X67386950Y-74587844D01*
X67417507Y-74588869D01*
X67515815Y-74613100D01*
X67515819Y-74613100D01*
X67673781Y-74613100D01*
X67673785Y-74613100D01*
X67827165Y-74575296D01*
X67967040Y-74501883D01*
X68085283Y-74397130D01*
X68175020Y-74267123D01*
X68231037Y-74119418D01*
X68250078Y-73962600D01*
X68231037Y-73805782D01*
X68217475Y-73770022D01*
X68175021Y-73658078D01*
X68085283Y-73528070D01*
X67967040Y-73423317D01*
X67954939Y-73416966D01*
X67827166Y-73349904D01*
X67673787Y-73312100D01*
X67673785Y-73312100D01*
X67515815Y-73312100D01*
X67515810Y-73312100D01*
X67417508Y-73336329D01*
X67367181Y-73330902D01*
X67332117Y-73294395D01*
X67325800Y-73264479D01*
X67325800Y-69986100D01*
X67343113Y-69938534D01*
X67347474Y-69933774D01*
X67473874Y-69807374D01*
X67519750Y-69785982D01*
X67526200Y-69785700D01*
X67623281Y-69785700D01*
X67623285Y-69785700D01*
X67757791Y-69752548D01*
X67808118Y-69757975D01*
X67843183Y-69794482D01*
X67849500Y-69824398D01*
X67849500Y-70185776D01*
X67832187Y-70233342D01*
X67824571Y-70241166D01*
X67716317Y-70337070D01*
X67626579Y-70467078D01*
X67626578Y-70467078D01*
X67570564Y-70614777D01*
X67570561Y-70614791D01*
X67551522Y-70771596D01*
X67551522Y-70771603D01*
X67570561Y-70928408D01*
X67570564Y-70928422D01*
X67626578Y-71076121D01*
X67716316Y-71206129D01*
X67716317Y-71206130D01*
X67834560Y-71310883D01*
X67974435Y-71384296D01*
X68127815Y-71422100D01*
X68224900Y-71422100D01*
X68272466Y-71439413D01*
X68277226Y-71443774D01*
X72529726Y-75696273D01*
X72551118Y-75742149D01*
X72551400Y-75748599D01*
X72551400Y-81778195D01*
X72534087Y-81825761D01*
X72526471Y-81833584D01*
X72486419Y-81869067D01*
X72486418Y-81869068D01*
X72396679Y-81999078D01*
X72396678Y-81999078D01*
X72340664Y-82146777D01*
X72340661Y-82146791D01*
X72321622Y-82303596D01*
X72321622Y-82303603D01*
X72340661Y-82460408D01*
X72340664Y-82460422D01*
X72396678Y-82608121D01*
X72453710Y-82690746D01*
X72486417Y-82738130D01*
X72604660Y-82842883D01*
X72744535Y-82916296D01*
X72897915Y-82954100D01*
X72897919Y-82954100D01*
X73055881Y-82954100D01*
X73055885Y-82954100D01*
X73209265Y-82916296D01*
X73349140Y-82842883D01*
X73467383Y-82738130D01*
X73557120Y-82608123D01*
X73557671Y-82606672D01*
X73575792Y-82558888D01*
X73613137Y-82460418D01*
X73632178Y-82303600D01*
X73629941Y-82285179D01*
X73613138Y-82146791D01*
X73613137Y-82146782D01*
X73561980Y-82011891D01*
X73557121Y-81999078D01*
X73514253Y-81936973D01*
X73467383Y-81869070D01*
X73467380Y-81869067D01*
X73427329Y-81833584D01*
X73403205Y-81789083D01*
X73402400Y-81778195D01*
X73402400Y-81247903D01*
X77164422Y-81247903D01*
X77183461Y-81404708D01*
X77183464Y-81404722D01*
X77239478Y-81552421D01*
X77329216Y-81682429D01*
X77329217Y-81682430D01*
X77447460Y-81787183D01*
X77587335Y-81860596D01*
X77740715Y-81898400D01*
X77740719Y-81898400D01*
X77898681Y-81898400D01*
X77898685Y-81898400D01*
X78052065Y-81860596D01*
X78191940Y-81787183D01*
X78310183Y-81682430D01*
X78399920Y-81552423D01*
X78455937Y-81404718D01*
X78466667Y-81316348D01*
X78474978Y-81247903D01*
X78474978Y-81247898D01*
X78473525Y-81235934D01*
X78484977Y-81186628D01*
X78494654Y-81174692D01*
X79228554Y-80440794D01*
X79252528Y-80416820D01*
X79265279Y-80391793D01*
X79271337Y-80381907D01*
X79287850Y-80359181D01*
X79296528Y-80332468D01*
X79300969Y-80321745D01*
X79313719Y-80296726D01*
X79318110Y-80268994D01*
X79320819Y-80257707D01*
X79329500Y-80230993D01*
X79329500Y-80096207D01*
X79329500Y-67900904D01*
X79346813Y-67853338D01*
X79354429Y-67845514D01*
X79371847Y-67830083D01*
X79394483Y-67810030D01*
X79484220Y-67680023D01*
X79493021Y-67656818D01*
X79540235Y-67532322D01*
X79540237Y-67532318D01*
X79547288Y-67474242D01*
X79559278Y-67375503D01*
X79559278Y-67375496D01*
X79540238Y-67218691D01*
X79540237Y-67218682D01*
X79509790Y-67138400D01*
X79484221Y-67070978D01*
X79394483Y-66940970D01*
X79349473Y-66901095D01*
X79276240Y-66836217D01*
X79206879Y-66799813D01*
X79136366Y-66762804D01*
X78982987Y-66725000D01*
X78982985Y-66725000D01*
X78825015Y-66725000D01*
X78825012Y-66725000D01*
X78671633Y-66762804D01*
X78531761Y-66836216D01*
X78413516Y-66940970D01*
X78323779Y-67070978D01*
X78323778Y-67070978D01*
X78267764Y-67218677D01*
X78267761Y-67218691D01*
X78248722Y-67375496D01*
X78248722Y-67375503D01*
X78267761Y-67532308D01*
X78267764Y-67532322D01*
X78323778Y-67680021D01*
X78413516Y-67810029D01*
X78413517Y-67810030D01*
X78436151Y-67830082D01*
X78453571Y-67845514D01*
X78477694Y-67890015D01*
X78478500Y-67900904D01*
X78478500Y-79956700D01*
X78461187Y-80004266D01*
X78456826Y-80009026D01*
X77890126Y-80575726D01*
X77844250Y-80597118D01*
X77837800Y-80597400D01*
X77740712Y-80597400D01*
X77587333Y-80635204D01*
X77447461Y-80708616D01*
X77329216Y-80813370D01*
X77239479Y-80943378D01*
X77239478Y-80943378D01*
X77183464Y-81091077D01*
X77183461Y-81091091D01*
X77164422Y-81247896D01*
X77164422Y-81247903D01*
X73402400Y-81247903D01*
X73402400Y-75474306D01*
X73393721Y-75447598D01*
X73391010Y-75436303D01*
X73386619Y-75408574D01*
X73386618Y-75408573D01*
X73385237Y-75405863D01*
X73373870Y-75383553D01*
X73369426Y-75372823D01*
X73360750Y-75346122D01*
X73360750Y-75346121D01*
X73360543Y-75345836D01*
X73344241Y-75323398D01*
X73338176Y-75313500D01*
X73325428Y-75288480D01*
X73227541Y-75190593D01*
X73227530Y-75190583D01*
X70974996Y-72938048D01*
X70953604Y-72892172D01*
X70966705Y-72843277D01*
X71008169Y-72814243D01*
X71009593Y-72813877D01*
X71083765Y-72795596D01*
X71223640Y-72722183D01*
X71341883Y-72617430D01*
X71431620Y-72487423D01*
X71487637Y-72339718D01*
X71495978Y-72271021D01*
X71506678Y-72182903D01*
X71506678Y-72182896D01*
X71487638Y-72026091D01*
X71487637Y-72026082D01*
X71463493Y-71962420D01*
X71431621Y-71878378D01*
X71341883Y-71748370D01*
X71312466Y-71722309D01*
X71223640Y-71643617D01*
X71188740Y-71625300D01*
X71083766Y-71570204D01*
X70930387Y-71532400D01*
X70930385Y-71532400D01*
X70772415Y-71532400D01*
X70772412Y-71532400D01*
X70619033Y-71570204D01*
X70479161Y-71643616D01*
X70360916Y-71748370D01*
X70271179Y-71878377D01*
X70213917Y-72029367D01*
X70180862Y-72067703D01*
X70130899Y-72075823D01*
X70092400Y-72055452D01*
X69898278Y-71861331D01*
X69696936Y-71659988D01*
X69675545Y-71614114D01*
X69688646Y-71565219D01*
X69714869Y-71542142D01*
X69842640Y-71475083D01*
X69960883Y-71370330D01*
X70050620Y-71240323D01*
X70106637Y-71092618D01*
X70121226Y-70972467D01*
X70125678Y-70935803D01*
X70125678Y-70935796D01*
X70106638Y-70778991D01*
X70106637Y-70778982D01*
X70095199Y-70748822D01*
X70050621Y-70631278D01*
X69960883Y-70501270D01*
X69930343Y-70474214D01*
X69842640Y-70396517D01*
X69792262Y-70370076D01*
X69702766Y-70323104D01*
X69549387Y-70285300D01*
X69549385Y-70285300D01*
X69391415Y-70285300D01*
X69391412Y-70285300D01*
X69238033Y-70323104D01*
X69098161Y-70396516D01*
X68979915Y-70501271D01*
X68943884Y-70553471D01*
X68902615Y-70582782D01*
X68852160Y-70578708D01*
X68816128Y-70543155D01*
X68813805Y-70537704D01*
X68787020Y-70467077D01*
X68762600Y-70431698D01*
X68713599Y-70360706D01*
X68700500Y-70318670D01*
X68700500Y-68877603D01*
X70196222Y-68877603D01*
X70215261Y-69034408D01*
X70215264Y-69034422D01*
X70271278Y-69182121D01*
X70352875Y-69300334D01*
X70361017Y-69312130D01*
X70479260Y-69416883D01*
X70619135Y-69490296D01*
X70772515Y-69528100D01*
X70772519Y-69528100D01*
X70930481Y-69528100D01*
X70930485Y-69528100D01*
X71083865Y-69490296D01*
X71223740Y-69416883D01*
X71341983Y-69312130D01*
X71431720Y-69182123D01*
X71433415Y-69177655D01*
X71462865Y-69100000D01*
X71487737Y-69034418D01*
X71498816Y-68943177D01*
X71506778Y-68877603D01*
X71506778Y-68877596D01*
X71487738Y-68720791D01*
X71487737Y-68720782D01*
X71463821Y-68657721D01*
X71431721Y-68573078D01*
X71341983Y-68443070D01*
X71326019Y-68428927D01*
X71223740Y-68338317D01*
X71204914Y-68328436D01*
X71088063Y-68267107D01*
X71063722Y-68240364D01*
X71022541Y-68249349D01*
X71014738Y-68247865D01*
X70930489Y-68227100D01*
X70930485Y-68227100D01*
X70772515Y-68227100D01*
X70772512Y-68227100D01*
X70619133Y-68264904D01*
X70479261Y-68338316D01*
X70361016Y-68443070D01*
X70271279Y-68573078D01*
X70271278Y-68573078D01*
X70215264Y-68720777D01*
X70215261Y-68720791D01*
X70196222Y-68877596D01*
X70196222Y-68877603D01*
X68700500Y-68877603D01*
X68700500Y-68785906D01*
X68691821Y-68759198D01*
X68689110Y-68747903D01*
X68684719Y-68720174D01*
X68684718Y-68720173D01*
X68681871Y-68714586D01*
X68671970Y-68695153D01*
X68667526Y-68684423D01*
X68658850Y-68657721D01*
X68658849Y-68657719D01*
X68642338Y-68634993D01*
X68636279Y-68625106D01*
X68623528Y-68600080D01*
X68528220Y-68504772D01*
X67523451Y-67500003D01*
X70648122Y-67500003D01*
X70667161Y-67656808D01*
X70667164Y-67656822D01*
X70723178Y-67804521D01*
X70812916Y-67934529D01*
X70812917Y-67934530D01*
X70931160Y-68039283D01*
X71066838Y-68110493D01*
X71091177Y-68137234D01*
X71132359Y-68128250D01*
X71140163Y-68129734D01*
X71224415Y-68150500D01*
X71224419Y-68150500D01*
X71382381Y-68150500D01*
X71382385Y-68150500D01*
X71535765Y-68112696D01*
X71675640Y-68039283D01*
X71793883Y-67934530D01*
X71883620Y-67804523D01*
X71891358Y-67784121D01*
X71908438Y-67739084D01*
X71939637Y-67656818D01*
X71946688Y-67598742D01*
X71958678Y-67500003D01*
X71958678Y-67499996D01*
X71939638Y-67343191D01*
X71939637Y-67343182D01*
X71907384Y-67258137D01*
X71883621Y-67195478D01*
X71793883Y-67065470D01*
X71725085Y-67004521D01*
X71675640Y-66960717D01*
X71638016Y-66940970D01*
X71535766Y-66887304D01*
X71382387Y-66849500D01*
X71382385Y-66849500D01*
X71224415Y-66849500D01*
X71224412Y-66849500D01*
X71071033Y-66887304D01*
X70931161Y-66960716D01*
X70812916Y-67065470D01*
X70723179Y-67195478D01*
X70723178Y-67195478D01*
X70667164Y-67343177D01*
X70667161Y-67343191D01*
X70648122Y-67499996D01*
X70648122Y-67500003D01*
X67523451Y-67500003D01*
X67418174Y-67394726D01*
X67396782Y-67348850D01*
X67409883Y-67299955D01*
X67436107Y-67276879D01*
X67507740Y-67239283D01*
X67625983Y-67134530D01*
X67715720Y-67004523D01*
X67771737Y-66856818D01*
X67787305Y-66728604D01*
X67790778Y-66700003D01*
X67790778Y-66699996D01*
X67771738Y-66543191D01*
X67771737Y-66543182D01*
X67728784Y-66429923D01*
X67715721Y-66395478D01*
X67625983Y-66265470D01*
X67609611Y-66250966D01*
X67507740Y-66160717D01*
X67493126Y-66153047D01*
X67367866Y-66087304D01*
X67214487Y-66049500D01*
X67214485Y-66049500D01*
X67056515Y-66049500D01*
X67056512Y-66049500D01*
X66903133Y-66087304D01*
X66763261Y-66160716D01*
X66645016Y-66265470D01*
X66555277Y-66395480D01*
X66555082Y-66395853D01*
X66554916Y-66396003D01*
X66552737Y-66399161D01*
X66552003Y-66398654D01*
X66517645Y-66429923D01*
X66467067Y-66431959D01*
X66437234Y-66413786D01*
X65243774Y-65220326D01*
X65222382Y-65174450D01*
X65222100Y-65168000D01*
X65222100Y-64821603D01*
X71100022Y-64821603D01*
X71119061Y-64978408D01*
X71119064Y-64978422D01*
X71175078Y-65126121D01*
X71240103Y-65220326D01*
X71264817Y-65256130D01*
X71377873Y-65356288D01*
X71401996Y-65400788D01*
X71391872Y-65450384D01*
X71389703Y-65453713D01*
X71308281Y-65571673D01*
X71308278Y-65571678D01*
X71252264Y-65719377D01*
X71252261Y-65719391D01*
X71233222Y-65876196D01*
X71233222Y-65876203D01*
X71252261Y-66033008D01*
X71252264Y-66033022D01*
X71308278Y-66180721D01*
X71366776Y-66265470D01*
X71398017Y-66310730D01*
X71516260Y-66415483D01*
X71656135Y-66488896D01*
X71809515Y-66526700D01*
X71906600Y-66526700D01*
X71954166Y-66544013D01*
X71958926Y-66548374D01*
X76700926Y-71290374D01*
X76722318Y-71336250D01*
X76722600Y-71342700D01*
X76722600Y-72468595D01*
X76705287Y-72516161D01*
X76697671Y-72523984D01*
X76657619Y-72559467D01*
X76657618Y-72559468D01*
X76567879Y-72689478D01*
X76567878Y-72689478D01*
X76511864Y-72837177D01*
X76511861Y-72837191D01*
X76492822Y-72993996D01*
X76492822Y-72994003D01*
X76511861Y-73150808D01*
X76511864Y-73150822D01*
X76567878Y-73298521D01*
X76657616Y-73428529D01*
X76657617Y-73428530D01*
X76775860Y-73533283D01*
X76915735Y-73606696D01*
X77069115Y-73644500D01*
X77069119Y-73644500D01*
X77227081Y-73644500D01*
X77227085Y-73644500D01*
X77380465Y-73606696D01*
X77520340Y-73533283D01*
X77638583Y-73428530D01*
X77728320Y-73298523D01*
X77732000Y-73288821D01*
X77750927Y-73238914D01*
X77784337Y-73150818D01*
X77803378Y-72994000D01*
X77799167Y-72959323D01*
X77784338Y-72837191D01*
X77784337Y-72837182D01*
X77754668Y-72758950D01*
X77728321Y-72689478D01*
X77678292Y-72616999D01*
X77638583Y-72559470D01*
X77638580Y-72559467D01*
X77598529Y-72523984D01*
X77574405Y-72479483D01*
X77573600Y-72468595D01*
X77573600Y-71068407D01*
X77570738Y-71059600D01*
X77564918Y-71041689D01*
X77562210Y-71030403D01*
X77560353Y-71018674D01*
X77557819Y-71002674D01*
X77557818Y-71002672D01*
X77545071Y-70977655D01*
X77540626Y-70966924D01*
X77531950Y-70940219D01*
X77528742Y-70935803D01*
X77515440Y-70917494D01*
X77509377Y-70907602D01*
X77496628Y-70882580D01*
X77401320Y-70787272D01*
X72563459Y-65949411D01*
X72542067Y-65903535D01*
X72542325Y-65888163D01*
X72543778Y-65876199D01*
X72543778Y-65876196D01*
X72524738Y-65719391D01*
X72524737Y-65719382D01*
X72498922Y-65651314D01*
X72468721Y-65571678D01*
X72378983Y-65441670D01*
X72332836Y-65400788D01*
X72265925Y-65341510D01*
X72241803Y-65297011D01*
X72251927Y-65247415D01*
X72254078Y-65244111D01*
X72335520Y-65126123D01*
X72391537Y-64978418D01*
X72403011Y-64883923D01*
X72410578Y-64821603D01*
X72410578Y-64821596D01*
X72394326Y-64687750D01*
X72391537Y-64664782D01*
X72373605Y-64617500D01*
X72335521Y-64517078D01*
X72245783Y-64387070D01*
X72195383Y-64342420D01*
X72127540Y-64282317D01*
X72086833Y-64260952D01*
X71987666Y-64208904D01*
X71834287Y-64171100D01*
X71834285Y-64171100D01*
X71676315Y-64171100D01*
X71676312Y-64171100D01*
X71522933Y-64208904D01*
X71383061Y-64282316D01*
X71264816Y-64387070D01*
X71175079Y-64517078D01*
X71175078Y-64517078D01*
X71119064Y-64664777D01*
X71119061Y-64664791D01*
X71100022Y-64821596D01*
X71100022Y-64821603D01*
X65222100Y-64821603D01*
X65222100Y-63919099D01*
X65239413Y-63871533D01*
X65243763Y-63866784D01*
X67076344Y-62034203D01*
X71261622Y-62034203D01*
X71280661Y-62191008D01*
X71280664Y-62191022D01*
X71336678Y-62338721D01*
X71340265Y-62343917D01*
X71426417Y-62468730D01*
X71544660Y-62573483D01*
X71684535Y-62646896D01*
X71837915Y-62684700D01*
X71837919Y-62684700D01*
X71995881Y-62684700D01*
X71995885Y-62684700D01*
X72149265Y-62646896D01*
X72289140Y-62573483D01*
X72407383Y-62468730D01*
X72497120Y-62338723D01*
X72553137Y-62191018D01*
X72568728Y-62062616D01*
X72572178Y-62034203D01*
X72572178Y-62034196D01*
X72556192Y-61902543D01*
X72553137Y-61877382D01*
X72524708Y-61802420D01*
X72497121Y-61729678D01*
X72407383Y-61599670D01*
X72360288Y-61557948D01*
X72289140Y-61494917D01*
X72253053Y-61475977D01*
X72149266Y-61421504D01*
X71995887Y-61383700D01*
X71995885Y-61383700D01*
X71837915Y-61383700D01*
X71837912Y-61383700D01*
X71684533Y-61421504D01*
X71544661Y-61494916D01*
X71426416Y-61599670D01*
X71336679Y-61729678D01*
X71336678Y-61729678D01*
X71280664Y-61877377D01*
X71280661Y-61877391D01*
X71261622Y-62034196D01*
X71261622Y-62034203D01*
X67076344Y-62034203D01*
X68330444Y-60780103D01*
X72507422Y-60780103D01*
X72526461Y-60936908D01*
X72526464Y-60936922D01*
X72582478Y-61084621D01*
X72616493Y-61133900D01*
X72672217Y-61214630D01*
X72790460Y-61319383D01*
X72930335Y-61392796D01*
X73083715Y-61430600D01*
X73083719Y-61430600D01*
X73241681Y-61430600D01*
X73241685Y-61430600D01*
X73395065Y-61392796D01*
X73534940Y-61319383D01*
X73653183Y-61214630D01*
X73742920Y-61084623D01*
X73748458Y-61070022D01*
X73784760Y-60974299D01*
X73798937Y-60936918D01*
X73814748Y-60806700D01*
X73817978Y-60780103D01*
X73817978Y-60780096D01*
X73798938Y-60623291D01*
X73798937Y-60623282D01*
X73770482Y-60548252D01*
X73742921Y-60475578D01*
X73653183Y-60345570D01*
X73534940Y-60240817D01*
X73476369Y-60210076D01*
X73395066Y-60167404D01*
X73241687Y-60129600D01*
X73241685Y-60129600D01*
X73083715Y-60129600D01*
X73083712Y-60129600D01*
X72930333Y-60167404D01*
X72790461Y-60240816D01*
X72672216Y-60345570D01*
X72582479Y-60475578D01*
X72582478Y-60475578D01*
X72526464Y-60623277D01*
X72526461Y-60623291D01*
X72507422Y-60780096D01*
X72507422Y-60780103D01*
X68330444Y-60780103D01*
X70367276Y-58743270D01*
X70413151Y-58721879D01*
X70462046Y-58734980D01*
X70491080Y-58776444D01*
X70493061Y-58786677D01*
X70497861Y-58826208D01*
X70497864Y-58826222D01*
X70553878Y-58973921D01*
X70617070Y-59065470D01*
X70643617Y-59103930D01*
X70761860Y-59208683D01*
X70901735Y-59282096D01*
X71055115Y-59319900D01*
X71055119Y-59319900D01*
X71213081Y-59319900D01*
X71213085Y-59319900D01*
X71366465Y-59282096D01*
X71506340Y-59208683D01*
X71624583Y-59103930D01*
X71714320Y-58973923D01*
X71719329Y-58960717D01*
X71740193Y-58905702D01*
X71770337Y-58826218D01*
X71781170Y-58737000D01*
X71789378Y-58669403D01*
X71789378Y-58669396D01*
X71770338Y-58512591D01*
X71770337Y-58512582D01*
X71747532Y-58452450D01*
X71714321Y-58364878D01*
X71624583Y-58234870D01*
X71606118Y-58218512D01*
X71506340Y-58130117D01*
X71484917Y-58118873D01*
X71366466Y-58056704D01*
X71243054Y-58026286D01*
X71201013Y-57998093D01*
X71186930Y-57949472D01*
X71207394Y-57903175D01*
X71208405Y-57902141D01*
X71350804Y-57759742D01*
X71396678Y-57738352D01*
X71445572Y-57751453D01*
X71472319Y-57785829D01*
X71489079Y-57830022D01*
X71561129Y-57934404D01*
X71578817Y-57960030D01*
X71697060Y-58064783D01*
X71836935Y-58138196D01*
X71990315Y-58176000D01*
X71990319Y-58176000D01*
X72148281Y-58176000D01*
X72148285Y-58176000D01*
X72301665Y-58138196D01*
X72441540Y-58064783D01*
X72559783Y-57960030D01*
X72649520Y-57830023D01*
X72654312Y-57817389D01*
X72676173Y-57759744D01*
X72705537Y-57682318D01*
X72724578Y-57525500D01*
X72723125Y-57513533D01*
X72734577Y-57464228D01*
X72744254Y-57452292D01*
X73479074Y-56717474D01*
X73524951Y-56696082D01*
X73531400Y-56695800D01*
X76578652Y-56695800D01*
X76626218Y-56713113D01*
X76651528Y-56756950D01*
X76642738Y-56806800D01*
X76627725Y-56825188D01*
X76626617Y-56826168D01*
X76536879Y-56956178D01*
X76536878Y-56956178D01*
X76480864Y-57103877D01*
X76480861Y-57103891D01*
X76461822Y-57260696D01*
X76461822Y-57260703D01*
X76480861Y-57417508D01*
X76480864Y-57417522D01*
X76536878Y-57565221D01*
X76617707Y-57682322D01*
X76626617Y-57695230D01*
X76744860Y-57799983D01*
X76884735Y-57873396D01*
X77038115Y-57911200D01*
X77145200Y-57911200D01*
X77192766Y-57928513D01*
X77197526Y-57932874D01*
X77738540Y-58473888D01*
X77759932Y-58519764D01*
X77759674Y-58535131D01*
X77758223Y-58547096D01*
X77758222Y-58547101D01*
X77758222Y-58547104D01*
X77777261Y-58703908D01*
X77777264Y-58703922D01*
X77833278Y-58851621D01*
X77915555Y-58970820D01*
X77923017Y-58981630D01*
X78041260Y-59086383D01*
X78181135Y-59159796D01*
X78334515Y-59197600D01*
X78334519Y-59197600D01*
X78492481Y-59197600D01*
X78492485Y-59197600D01*
X78645865Y-59159796D01*
X78785740Y-59086383D01*
X78903983Y-58981630D01*
X78919946Y-58958503D01*
X80932122Y-58958503D01*
X80951161Y-59115308D01*
X80951164Y-59115322D01*
X81007178Y-59263021D01*
X81080125Y-59368703D01*
X81096917Y-59393030D01*
X81215160Y-59497783D01*
X81355035Y-59571196D01*
X81508415Y-59609000D01*
X81508419Y-59609000D01*
X81666381Y-59609000D01*
X81666385Y-59609000D01*
X81819765Y-59571196D01*
X81959640Y-59497783D01*
X82077883Y-59393030D01*
X82167620Y-59263023D01*
X82167849Y-59262421D01*
X82200289Y-59176881D01*
X82223637Y-59115318D01*
X82239870Y-58981629D01*
X82242678Y-58958503D01*
X82242678Y-58958496D01*
X82223638Y-58801691D01*
X82223637Y-58801682D01*
X82199108Y-58737003D01*
X82167621Y-58653978D01*
X82077883Y-58523970D01*
X82021351Y-58473888D01*
X81959640Y-58419217D01*
X81904500Y-58390277D01*
X81819766Y-58345804D01*
X81666387Y-58308000D01*
X81666385Y-58308000D01*
X81508415Y-58308000D01*
X81508412Y-58308000D01*
X81355033Y-58345804D01*
X81215161Y-58419216D01*
X81096916Y-58523970D01*
X81007179Y-58653978D01*
X81007178Y-58653978D01*
X80951164Y-58801677D01*
X80951161Y-58801691D01*
X80932122Y-58958496D01*
X80932122Y-58958503D01*
X78919946Y-58958503D01*
X78993720Y-58851623D01*
X79002422Y-58828679D01*
X79018351Y-58786677D01*
X79049737Y-58703918D01*
X79059135Y-58626519D01*
X79068778Y-58547103D01*
X79068778Y-58547096D01*
X79049738Y-58390291D01*
X79049737Y-58390282D01*
X79018532Y-58308000D01*
X78993721Y-58242578D01*
X78903983Y-58112570D01*
X78785740Y-58007817D01*
X78694689Y-57960029D01*
X78645866Y-57934404D01*
X78492487Y-57896600D01*
X78492485Y-57896600D01*
X78395400Y-57896600D01*
X78347834Y-57879287D01*
X78343074Y-57874926D01*
X77793142Y-57324994D01*
X77771750Y-57279118D01*
X77772008Y-57263744D01*
X77772378Y-57260703D01*
X77772378Y-57260700D01*
X77753337Y-57103882D01*
X77707347Y-56982616D01*
X77697321Y-56956178D01*
X77607582Y-56826168D01*
X77606475Y-56825188D01*
X77606099Y-56824495D01*
X77604616Y-56822821D01*
X77605005Y-56822476D01*
X77582353Y-56780686D01*
X77592480Y-56731090D01*
X77632117Y-56699607D01*
X77655548Y-56695800D01*
X86721727Y-56695800D01*
X86769293Y-56713113D01*
X86794603Y-56756950D01*
X86785813Y-56806800D01*
X86780780Y-56814395D01*
X86727329Y-56885174D01*
X86727328Y-56885177D01*
X86636418Y-57067750D01*
X86636416Y-57067755D01*
X86580602Y-57263917D01*
X86580601Y-57263923D01*
X86561785Y-57466996D01*
X86561785Y-57467003D01*
X86580601Y-57670076D01*
X86580602Y-57670082D01*
X86626110Y-57830022D01*
X86636418Y-57866250D01*
X86727327Y-58048821D01*
X86727328Y-58048822D01*
X86727329Y-58048825D01*
X86850234Y-58211578D01*
X86850235Y-58211579D01*
X86884240Y-58242578D01*
X87000959Y-58348981D01*
X87174363Y-58456348D01*
X87194232Y-58464045D01*
X87232331Y-58497369D01*
X87241500Y-58533047D01*
X87241500Y-58554586D01*
X87240589Y-58566162D01*
X87236196Y-58593899D01*
X87241500Y-58627388D01*
X87257281Y-58727026D01*
X87318471Y-58847119D01*
X87320843Y-58849491D01*
X87342235Y-58895367D01*
X87329134Y-58944262D01*
X87295249Y-58970820D01*
X87174368Y-59017650D01*
X87174363Y-59017652D01*
X87174358Y-59017654D01*
X87174358Y-59017655D01*
X87000958Y-59125019D01*
X87000957Y-59125019D01*
X86850235Y-59262420D01*
X86850234Y-59262421D01*
X86727329Y-59425174D01*
X86727328Y-59425177D01*
X86636418Y-59607750D01*
X86636416Y-59607755D01*
X86580602Y-59803917D01*
X86580601Y-59803923D01*
X86561785Y-60006996D01*
X86561785Y-60007003D01*
X86580601Y-60210076D01*
X86580602Y-60210082D01*
X86636416Y-60406244D01*
X86636418Y-60406250D01*
X86727327Y-60588821D01*
X86727328Y-60588822D01*
X86727329Y-60588825D01*
X86850234Y-60751578D01*
X86850235Y-60751579D01*
X86910701Y-60806700D01*
X86983291Y-60872874D01*
X87006780Y-60917713D01*
X86995951Y-60967161D01*
X86985764Y-60979887D01*
X84264018Y-63701632D01*
X84218142Y-63723024D01*
X84169247Y-63709923D01*
X84140213Y-63668459D01*
X84138232Y-63640386D01*
X84139433Y-63630500D01*
X84145677Y-63579070D01*
X84155278Y-63500003D01*
X84155278Y-63499996D01*
X84136238Y-63343191D01*
X84136237Y-63343182D01*
X84104086Y-63258407D01*
X84080221Y-63195478D01*
X83990483Y-63065470D01*
X83925131Y-63007574D01*
X83872240Y-62960717D01*
X83834290Y-62940799D01*
X83732366Y-62887304D01*
X83578987Y-62849500D01*
X83578985Y-62849500D01*
X83421015Y-62849500D01*
X83421012Y-62849500D01*
X83267633Y-62887304D01*
X83127761Y-62960716D01*
X83009516Y-63065470D01*
X82919779Y-63195478D01*
X82919778Y-63195478D01*
X82863764Y-63343177D01*
X82863761Y-63343191D01*
X82844722Y-63499996D01*
X82844722Y-63500003D01*
X82863761Y-63656808D01*
X82863764Y-63656822D01*
X82919778Y-63804521D01*
X83009516Y-63934529D01*
X83009517Y-63934530D01*
X83127760Y-64039283D01*
X83267635Y-64112696D01*
X83421015Y-64150500D01*
X83421019Y-64150500D01*
X83578981Y-64150500D01*
X83578985Y-64150500D01*
X83634665Y-64136776D01*
X83684990Y-64142202D01*
X83720055Y-64178709D01*
X83723450Y-64229214D01*
X83704698Y-64260952D01*
X83539672Y-64425979D01*
X83539671Y-64425980D01*
X83454772Y-64510878D01*
X83442024Y-64535899D01*
X83435958Y-64545798D01*
X83427289Y-64557730D01*
X83385324Y-64586036D01*
X83334982Y-64580745D01*
X83312030Y-64563304D01*
X83310581Y-64561668D01*
X83260247Y-64517077D01*
X83192340Y-64456917D01*
X83157913Y-64438848D01*
X83052466Y-64383504D01*
X82899087Y-64345700D01*
X82899085Y-64345700D01*
X82741115Y-64345700D01*
X82741112Y-64345700D01*
X82587733Y-64383504D01*
X82447861Y-64456916D01*
X82329616Y-64561670D01*
X82239879Y-64691678D01*
X82239878Y-64691678D01*
X82183864Y-64839377D01*
X82183861Y-64839391D01*
X82164822Y-64996196D01*
X82164822Y-64996203D01*
X82183861Y-65153008D01*
X82183864Y-65153022D01*
X82239878Y-65300721D01*
X82329616Y-65430729D01*
X82329617Y-65430730D01*
X82447860Y-65535483D01*
X82587735Y-65608896D01*
X82741115Y-65646700D01*
X82741119Y-65646700D01*
X82899081Y-65646700D01*
X82899085Y-65646700D01*
X83052465Y-65608896D01*
X83192340Y-65535483D01*
X83254730Y-65480210D01*
X83301814Y-65461628D01*
X83349827Y-65477657D01*
X83376305Y-65520799D01*
X83377800Y-65535601D01*
X83377800Y-67683695D01*
X83360487Y-67731261D01*
X83352871Y-67739084D01*
X83312819Y-67774567D01*
X83312818Y-67774568D01*
X83223079Y-67904578D01*
X83223078Y-67904578D01*
X83167064Y-68052277D01*
X83167061Y-68052291D01*
X83148022Y-68209096D01*
X83148022Y-68209103D01*
X83167061Y-68365908D01*
X83167064Y-68365922D01*
X83223078Y-68513621D01*
X83279882Y-68595915D01*
X83312817Y-68643630D01*
X83312818Y-68643631D01*
X83312817Y-68643631D01*
X83328721Y-68657719D01*
X83342469Y-68669899D01*
X83366594Y-68714398D01*
X83367400Y-68725289D01*
X83367400Y-75249893D01*
X83376077Y-75276597D01*
X83378788Y-75287889D01*
X83383180Y-75315624D01*
X83395930Y-75340646D01*
X83400374Y-75351375D01*
X83409051Y-75378082D01*
X83425555Y-75400797D01*
X83431623Y-75410698D01*
X83444372Y-75435720D01*
X83732426Y-75723774D01*
X83753818Y-75769650D01*
X83754100Y-75776100D01*
X83754100Y-82798207D01*
X83736787Y-82845773D01*
X83692950Y-82871083D01*
X83662391Y-82870057D01*
X83578987Y-82849500D01*
X83578985Y-82849500D01*
X83421015Y-82849500D01*
X83421012Y-82849500D01*
X83267633Y-82887304D01*
X83127761Y-82960716D01*
X83009516Y-83065470D01*
X82919779Y-83195478D01*
X82919778Y-83195478D01*
X82863764Y-83343177D01*
X82863761Y-83343191D01*
X82844722Y-83499996D01*
X82844722Y-83500003D01*
X82863761Y-83656808D01*
X82863764Y-83656822D01*
X82919778Y-83804521D01*
X83009516Y-83934529D01*
X83009517Y-83934530D01*
X83127760Y-84039283D01*
X83267635Y-84112696D01*
X83421015Y-84150500D01*
X83421019Y-84150500D01*
X83578981Y-84150500D01*
X83578985Y-84150500D01*
X83662392Y-84129942D01*
X83712718Y-84135369D01*
X83747783Y-84171875D01*
X83754100Y-84201792D01*
X83754100Y-85036209D01*
X83736787Y-85083775D01*
X83714490Y-85101732D01*
X83657361Y-85131716D01*
X83539116Y-85236470D01*
X83449379Y-85366478D01*
X83449378Y-85366478D01*
X83393364Y-85514177D01*
X83393361Y-85514191D01*
X83374322Y-85670996D01*
X83374322Y-85671003D01*
X83393361Y-85827808D01*
X83393364Y-85827822D01*
X83449378Y-85975521D01*
X83539116Y-86105529D01*
X83539117Y-86105530D01*
X83657360Y-86210283D01*
X83776850Y-86272997D01*
X83795714Y-86282898D01*
X83797235Y-86283696D01*
X83950615Y-86321500D01*
X83950619Y-86321500D01*
X84108581Y-86321500D01*
X84108585Y-86321500D01*
X84261965Y-86283696D01*
X84401840Y-86210283D01*
X84520083Y-86105530D01*
X84609820Y-85975523D01*
X84619554Y-85949858D01*
X84647134Y-85877134D01*
X84665837Y-85827818D01*
X84672888Y-85769742D01*
X84684878Y-85671003D01*
X84684878Y-85670996D01*
X84665838Y-85514191D01*
X84665837Y-85514182D01*
X84609908Y-85366711D01*
X84605100Y-85340471D01*
X84605100Y-83791503D01*
X85200622Y-83791503D01*
X85219661Y-83948308D01*
X85219664Y-83948322D01*
X85275678Y-84096021D01*
X85365416Y-84226029D01*
X85365417Y-84226030D01*
X85483660Y-84330783D01*
X85623535Y-84404196D01*
X85776915Y-84442000D01*
X85776919Y-84442000D01*
X85934881Y-84442000D01*
X85934885Y-84442000D01*
X86088265Y-84404196D01*
X86228140Y-84330783D01*
X86346383Y-84226030D01*
X86436120Y-84096023D01*
X86492137Y-83948318D01*
X86503305Y-83856344D01*
X86511178Y-83791503D01*
X86511178Y-83791496D01*
X86492138Y-83634691D01*
X86492137Y-83634682D01*
X86475449Y-83590679D01*
X86436121Y-83486978D01*
X86346383Y-83356970D01*
X86228140Y-83252217D01*
X86216039Y-83245866D01*
X86088266Y-83178804D01*
X85934887Y-83141000D01*
X85934885Y-83141000D01*
X85776915Y-83141000D01*
X85776912Y-83141000D01*
X85623533Y-83178804D01*
X85483661Y-83252216D01*
X85365416Y-83356970D01*
X85275679Y-83486978D01*
X85275678Y-83486978D01*
X85219664Y-83634677D01*
X85219661Y-83634691D01*
X85200622Y-83791496D01*
X85200622Y-83791503D01*
X84605100Y-83791503D01*
X84605100Y-78969903D01*
X85367622Y-78969903D01*
X85386661Y-79126708D01*
X85386664Y-79126722D01*
X85442678Y-79274421D01*
X85528077Y-79398143D01*
X85532417Y-79404430D01*
X85650660Y-79509183D01*
X85778434Y-79576245D01*
X85790201Y-79582421D01*
X85790535Y-79582596D01*
X85943915Y-79620400D01*
X85943919Y-79620400D01*
X86101881Y-79620400D01*
X86101885Y-79620400D01*
X86255265Y-79582596D01*
X86395140Y-79509183D01*
X86513383Y-79404430D01*
X86603120Y-79274423D01*
X86659137Y-79126718D01*
X86678178Y-78969900D01*
X86659137Y-78813082D01*
X86645204Y-78776344D01*
X86603121Y-78665378D01*
X86513383Y-78535370D01*
X86509103Y-78531578D01*
X86395140Y-78430617D01*
X86296022Y-78378595D01*
X86255266Y-78357204D01*
X86101887Y-78319400D01*
X86101885Y-78319400D01*
X85943915Y-78319400D01*
X85943912Y-78319400D01*
X85790533Y-78357204D01*
X85650661Y-78430616D01*
X85532416Y-78535370D01*
X85442679Y-78665378D01*
X85442678Y-78665378D01*
X85386664Y-78813077D01*
X85386661Y-78813091D01*
X85367622Y-78969896D01*
X85367622Y-78969903D01*
X84605100Y-78969903D01*
X84605100Y-77645645D01*
X84622413Y-77598079D01*
X84666250Y-77572769D01*
X84716100Y-77581559D01*
X84728164Y-77590250D01*
X84738360Y-77599283D01*
X84878235Y-77672696D01*
X85031615Y-77710500D01*
X85031619Y-77710500D01*
X85189581Y-77710500D01*
X85189585Y-77710500D01*
X85342965Y-77672696D01*
X85482840Y-77599283D01*
X85572698Y-77519675D01*
X85619780Y-77501094D01*
X85667794Y-77517123D01*
X85674093Y-77522741D01*
X86191572Y-78040220D01*
X86286880Y-78135528D01*
X86311906Y-78148279D01*
X86321793Y-78154338D01*
X86344519Y-78170849D01*
X86344520Y-78170849D01*
X86344521Y-78170850D01*
X86371223Y-78179526D01*
X86381953Y-78183970D01*
X86386426Y-78186249D01*
X86406974Y-78196719D01*
X86430402Y-78200429D01*
X86434703Y-78201110D01*
X86445998Y-78203821D01*
X86472707Y-78212500D01*
X86506612Y-78212500D01*
X86603670Y-78212500D01*
X86651236Y-78229813D01*
X86669911Y-78253514D01*
X86727327Y-78368821D01*
X86727328Y-78368822D01*
X86727329Y-78368825D01*
X86850234Y-78531578D01*
X86850235Y-78531579D01*
X86965600Y-78636747D01*
X87000959Y-78668981D01*
X87174363Y-78776348D01*
X87364544Y-78850024D01*
X87565024Y-78887500D01*
X87565026Y-78887500D01*
X87768974Y-78887500D01*
X87768976Y-78887500D01*
X87969456Y-78850024D01*
X88159637Y-78776348D01*
X88255446Y-78717025D01*
X88304999Y-78706705D01*
X88349595Y-78730652D01*
X88368365Y-78777663D01*
X88368400Y-78779942D01*
X88368400Y-79334057D01*
X88351087Y-79381623D01*
X88307250Y-79406933D01*
X88257400Y-79398143D01*
X88255444Y-79396973D01*
X88230653Y-79381623D01*
X88159637Y-79337652D01*
X87969456Y-79263976D01*
X87881407Y-79247516D01*
X87768979Y-79226500D01*
X87768976Y-79226500D01*
X87565024Y-79226500D01*
X87565020Y-79226500D01*
X87425513Y-79252579D01*
X87364544Y-79263976D01*
X87364542Y-79263976D01*
X87364540Y-79263977D01*
X87174373Y-79337648D01*
X87174363Y-79337652D01*
X87174358Y-79337654D01*
X87174358Y-79337655D01*
X87000958Y-79445019D01*
X87000957Y-79445019D01*
X86850235Y-79582420D01*
X86850234Y-79582421D01*
X86727329Y-79745174D01*
X86727328Y-79745177D01*
X86636418Y-79927750D01*
X86636416Y-79927755D01*
X86580602Y-80123917D01*
X86580601Y-80123923D01*
X86561785Y-80326996D01*
X86561785Y-80327003D01*
X86580601Y-80530076D01*
X86580602Y-80530082D01*
X86636416Y-80726244D01*
X86636418Y-80726250D01*
X86727327Y-80908821D01*
X86727328Y-80908822D01*
X86727329Y-80908825D01*
X86850234Y-81071578D01*
X86850235Y-81071579D01*
X86963340Y-81174687D01*
X87000959Y-81208981D01*
X87174363Y-81316348D01*
X87364544Y-81390024D01*
X87565024Y-81427500D01*
X87565026Y-81427500D01*
X87768974Y-81427500D01*
X87768976Y-81427500D01*
X87969456Y-81390024D01*
X88159637Y-81316348D01*
X88255446Y-81257025D01*
X88304999Y-81246705D01*
X88349595Y-81270652D01*
X88368365Y-81317663D01*
X88368400Y-81319942D01*
X88368400Y-81874057D01*
X88351087Y-81921623D01*
X88307250Y-81946933D01*
X88257400Y-81938143D01*
X88255444Y-81936973D01*
X88193146Y-81898400D01*
X88159637Y-81877652D01*
X87969456Y-81803976D01*
X87879621Y-81787183D01*
X87768979Y-81766500D01*
X87768976Y-81766500D01*
X87565024Y-81766500D01*
X87565020Y-81766500D01*
X87415116Y-81794522D01*
X87364544Y-81803976D01*
X87364542Y-81803976D01*
X87364540Y-81803977D01*
X87183643Y-81874057D01*
X87174363Y-81877652D01*
X87174358Y-81877654D01*
X87174358Y-81877655D01*
X87000958Y-81985019D01*
X87000957Y-81985019D01*
X86850235Y-82122420D01*
X86850234Y-82122421D01*
X86727329Y-82285174D01*
X86727328Y-82285177D01*
X86636418Y-82467750D01*
X86636416Y-82467755D01*
X86580602Y-82663917D01*
X86580601Y-82663923D01*
X86561785Y-82866996D01*
X86561785Y-82867003D01*
X86580601Y-83070076D01*
X86580602Y-83070082D01*
X86611537Y-83178804D01*
X86636418Y-83266250D01*
X86727327Y-83448821D01*
X86727328Y-83448822D01*
X86727329Y-83448825D01*
X86850234Y-83611578D01*
X86850235Y-83611579D01*
X86994433Y-83743032D01*
X87017922Y-83787872D01*
X87007093Y-83837319D01*
X86996906Y-83850045D01*
X85769780Y-85077172D01*
X85674472Y-85172479D01*
X85661724Y-85197499D01*
X85655659Y-85207396D01*
X85639153Y-85230115D01*
X85639150Y-85230121D01*
X85630473Y-85256824D01*
X85626031Y-85267548D01*
X85613281Y-85292570D01*
X85613281Y-85292572D01*
X85608887Y-85320313D01*
X85606177Y-85331601D01*
X85597500Y-85358307D01*
X85597500Y-87183595D01*
X85580187Y-87231161D01*
X85572571Y-87238984D01*
X85532519Y-87274467D01*
X85532518Y-87274468D01*
X85442779Y-87404478D01*
X85442778Y-87404478D01*
X85386764Y-87552177D01*
X85386761Y-87552191D01*
X85367722Y-87708996D01*
X85367722Y-87709003D01*
X85386761Y-87865808D01*
X85386764Y-87865822D01*
X85442778Y-88013521D01*
X85515118Y-88118323D01*
X85532517Y-88143530D01*
X85650760Y-88248283D01*
X85790635Y-88321696D01*
X85944015Y-88359500D01*
X85944019Y-88359500D01*
X86101981Y-88359500D01*
X86101985Y-88359500D01*
X86255365Y-88321696D01*
X86395240Y-88248283D01*
X86477550Y-88175362D01*
X86524632Y-88156781D01*
X86572646Y-88172810D01*
X86597794Y-88210503D01*
X86629431Y-88321696D01*
X86636418Y-88346250D01*
X86727327Y-88528821D01*
X86727328Y-88528822D01*
X86727329Y-88528825D01*
X86850234Y-88691578D01*
X86850235Y-88691579D01*
X86948971Y-88781588D01*
X87000959Y-88828981D01*
X87174363Y-88936348D01*
X87364544Y-89010024D01*
X87565024Y-89047500D01*
X87565026Y-89047500D01*
X87768974Y-89047500D01*
X87768976Y-89047500D01*
X87969456Y-89010024D01*
X88159637Y-88936348D01*
X88333041Y-88828981D01*
X88483764Y-88691579D01*
X88606673Y-88528821D01*
X88697582Y-88346250D01*
X88753397Y-88150083D01*
X88754005Y-88143530D01*
X88772215Y-87947003D01*
X88772215Y-87946996D01*
X88753398Y-87743923D01*
X88753397Y-87743917D01*
X88743461Y-87708996D01*
X88697582Y-87547750D01*
X88606673Y-87365179D01*
X88606670Y-87365175D01*
X88606670Y-87365174D01*
X88483765Y-87202421D01*
X88483764Y-87202420D01*
X88333041Y-87065019D01*
X88220791Y-86995517D01*
X88159637Y-86957652D01*
X87998057Y-86895056D01*
X87969459Y-86883977D01*
X87969458Y-86883976D01*
X87969456Y-86883976D01*
X87881407Y-86867516D01*
X87768979Y-86846500D01*
X87768976Y-86846500D01*
X87565024Y-86846500D01*
X87565020Y-86846500D01*
X87415116Y-86874522D01*
X87364544Y-86883976D01*
X87364542Y-86883976D01*
X87364540Y-86883977D01*
X87174373Y-86957648D01*
X87174363Y-86957652D01*
X87174358Y-86957654D01*
X87174358Y-86957655D01*
X87000958Y-87065019D01*
X87000957Y-87065019D01*
X86850235Y-87202420D01*
X86850234Y-87202421D01*
X86727329Y-87365174D01*
X86727327Y-87365178D01*
X86719849Y-87380196D01*
X86683148Y-87415057D01*
X86632625Y-87418172D01*
X86592707Y-87389246D01*
X86569205Y-87355197D01*
X86513483Y-87274470D01*
X86511694Y-87272885D01*
X86473429Y-87238984D01*
X86449305Y-87194483D01*
X86448500Y-87183595D01*
X86448500Y-85676276D01*
X86465813Y-85628710D01*
X86509650Y-85603400D01*
X86559500Y-85612190D01*
X86592037Y-85650967D01*
X86593673Y-85656019D01*
X86636418Y-85806250D01*
X86727327Y-85988821D01*
X86727328Y-85988822D01*
X86727329Y-85988825D01*
X86850234Y-86151578D01*
X86850235Y-86151579D01*
X86958507Y-86250281D01*
X87000959Y-86288981D01*
X87174363Y-86396348D01*
X87364544Y-86470024D01*
X87565024Y-86507500D01*
X87565026Y-86507500D01*
X87768974Y-86507500D01*
X87768976Y-86507500D01*
X87969456Y-86470024D01*
X88159637Y-86396348D01*
X88333041Y-86288981D01*
X88483764Y-86151579D01*
X88492417Y-86140120D01*
X88534896Y-86112594D01*
X88585132Y-86118813D01*
X88600540Y-86129323D01*
X88672060Y-86192683D01*
X88811935Y-86266096D01*
X88965315Y-86303900D01*
X88965319Y-86303900D01*
X89123281Y-86303900D01*
X89123285Y-86303900D01*
X89276665Y-86266096D01*
X89416540Y-86192683D01*
X89534783Y-86087930D01*
X89624520Y-85957923D01*
X89680537Y-85810218D01*
X89687588Y-85752142D01*
X89699578Y-85653403D01*
X89699578Y-85653396D01*
X89680538Y-85496591D01*
X89680537Y-85496582D01*
X89672513Y-85475425D01*
X89624521Y-85348878D01*
X89534783Y-85218870D01*
X89521618Y-85207207D01*
X89416540Y-85114117D01*
X89353333Y-85080943D01*
X89276666Y-85040704D01*
X89123287Y-85002900D01*
X89123285Y-85002900D01*
X88965315Y-85002900D01*
X88965312Y-85002900D01*
X88811933Y-85040704D01*
X88800945Y-85046471D01*
X88750781Y-85053246D01*
X88707999Y-85026191D01*
X88699275Y-85010728D01*
X88699107Y-85010813D01*
X88689728Y-84991977D01*
X88606673Y-84825179D01*
X88606670Y-84825175D01*
X88606670Y-84825174D01*
X88483766Y-84662424D01*
X88483764Y-84662421D01*
X88355102Y-84545130D01*
X88331614Y-84500290D01*
X88342443Y-84450843D01*
X88352631Y-84438117D01*
X88410903Y-84379845D01*
X88410919Y-84379827D01*
X89036711Y-83754034D01*
X89036714Y-83754033D01*
X89047119Y-83743628D01*
X89047120Y-83743628D01*
X89142428Y-83648320D01*
X89155180Y-83623289D01*
X89161239Y-83613403D01*
X89177749Y-83590681D01*
X89186427Y-83563969D01*
X89190864Y-83553256D01*
X89203619Y-83528226D01*
X89208013Y-83500474D01*
X89210718Y-83489208D01*
X89219400Y-83462493D01*
X89219400Y-83327707D01*
X89219400Y-78381953D01*
X89236713Y-78334387D01*
X89280550Y-78309077D01*
X89327788Y-78316429D01*
X89446235Y-78378596D01*
X89599615Y-78416400D01*
X89599619Y-78416400D01*
X89757581Y-78416400D01*
X89757585Y-78416400D01*
X89910965Y-78378596D01*
X90050840Y-78305183D01*
X90169083Y-78200430D01*
X90258820Y-78070423D01*
X90270275Y-78040220D01*
X90289289Y-77990082D01*
X90314837Y-77922718D01*
X90321888Y-77864642D01*
X90333878Y-77765903D01*
X90333878Y-77765896D01*
X90314838Y-77609091D01*
X90314837Y-77609082D01*
X90301065Y-77572769D01*
X90258821Y-77461378D01*
X90169083Y-77331370D01*
X90137799Y-77303655D01*
X90050840Y-77226617D01*
X90009988Y-77205176D01*
X89910966Y-77153204D01*
X89757587Y-77115400D01*
X89757585Y-77115400D01*
X89599615Y-77115400D01*
X89599612Y-77115400D01*
X89446235Y-77153203D01*
X89327789Y-77215369D01*
X89277626Y-77222144D01*
X89234843Y-77195090D01*
X89219400Y-77149845D01*
X89219400Y-71722309D01*
X89227467Y-71688712D01*
X89230681Y-71682403D01*
X89238619Y-71666826D01*
X89243010Y-71639094D01*
X89245719Y-71627807D01*
X89254400Y-71601093D01*
X89254400Y-71466307D01*
X89254400Y-65857227D01*
X89271713Y-65809661D01*
X89315550Y-65784351D01*
X89362791Y-65791704D01*
X89373635Y-65797396D01*
X89527015Y-65835200D01*
X89624100Y-65835200D01*
X89671666Y-65852513D01*
X89676426Y-65856874D01*
X90905626Y-67086074D01*
X90927018Y-67131950D01*
X90927300Y-67138400D01*
X90927300Y-69578870D01*
X90909987Y-69626436D01*
X90866150Y-69651746D01*
X90835591Y-69650720D01*
X90727587Y-69624100D01*
X90727585Y-69624100D01*
X90569615Y-69624100D01*
X90569612Y-69624100D01*
X90416233Y-69661904D01*
X90276361Y-69735316D01*
X90158116Y-69840070D01*
X90068379Y-69970078D01*
X90068378Y-69970078D01*
X90012364Y-70117777D01*
X90012361Y-70117791D01*
X89993322Y-70274596D01*
X89993322Y-70274603D01*
X90012361Y-70431408D01*
X90012364Y-70431422D01*
X90068378Y-70579121D01*
X90158116Y-70709129D01*
X90158117Y-70709130D01*
X90276360Y-70813883D01*
X90416235Y-70887296D01*
X90569615Y-70925100D01*
X90569619Y-70925100D01*
X90727581Y-70925100D01*
X90727585Y-70925100D01*
X90835592Y-70898479D01*
X90885918Y-70903906D01*
X90920983Y-70940412D01*
X90927300Y-70970329D01*
X90927300Y-72026989D01*
X90909987Y-72074555D01*
X90866150Y-72099865D01*
X90818910Y-72092513D01*
X90722865Y-72042104D01*
X90722862Y-72042103D01*
X90569487Y-72004300D01*
X90569485Y-72004300D01*
X90411515Y-72004300D01*
X90411512Y-72004300D01*
X90258133Y-72042104D01*
X90118261Y-72115516D01*
X90000016Y-72220270D01*
X89910279Y-72350278D01*
X89910278Y-72350278D01*
X89854264Y-72497977D01*
X89854261Y-72497991D01*
X89835222Y-72654796D01*
X89835222Y-72654803D01*
X89854261Y-72811608D01*
X89854264Y-72811622D01*
X89910278Y-72959321D01*
X90000016Y-73089329D01*
X90040071Y-73124814D01*
X90064194Y-73169315D01*
X90065000Y-73180204D01*
X90065000Y-74704493D01*
X90073677Y-74731197D01*
X90076388Y-74742489D01*
X90080780Y-74770224D01*
X90093530Y-74795246D01*
X90097974Y-74805975D01*
X90106651Y-74832682D01*
X90123155Y-74855397D01*
X90129223Y-74865298D01*
X90141972Y-74890320D01*
X102225764Y-86974112D01*
X102247156Y-87019988D01*
X102234055Y-87068883D01*
X102223291Y-87081125D01*
X102090235Y-87202420D01*
X102090234Y-87202421D01*
X101967329Y-87365174D01*
X101967328Y-87365177D01*
X101876418Y-87547750D01*
X101876416Y-87547755D01*
X101820602Y-87743917D01*
X101820601Y-87743923D01*
X101801785Y-87946996D01*
X101801785Y-87947003D01*
X101820601Y-88150076D01*
X101820602Y-88150082D01*
X101876416Y-88346244D01*
X101876418Y-88346250D01*
X101967327Y-88528821D01*
X101967328Y-88528822D01*
X101967329Y-88528825D01*
X102090234Y-88691578D01*
X102090235Y-88691579D01*
X102188971Y-88781588D01*
X102240959Y-88828981D01*
X102414363Y-88936348D01*
X102604544Y-89010024D01*
X102805024Y-89047500D01*
X102805026Y-89047500D01*
X103008974Y-89047500D01*
X103008976Y-89047500D01*
X103209456Y-89010024D01*
X103399637Y-88936348D01*
X103573041Y-88828981D01*
X103723764Y-88691579D01*
X103846673Y-88528821D01*
X103937582Y-88346250D01*
X103993397Y-88150083D01*
X103994005Y-88143530D01*
X104012215Y-87947003D01*
X110761785Y-87947003D01*
X110780601Y-88150076D01*
X110780602Y-88150082D01*
X110836416Y-88346244D01*
X110836418Y-88346250D01*
X110927327Y-88528821D01*
X110927328Y-88528822D01*
X110927329Y-88528825D01*
X111050234Y-88691578D01*
X111050235Y-88691579D01*
X111148971Y-88781588D01*
X111200959Y-88828981D01*
X111374363Y-88936348D01*
X111564544Y-89010024D01*
X111765024Y-89047500D01*
X111765026Y-89047500D01*
X111968974Y-89047500D01*
X111968976Y-89047500D01*
X112169456Y-89010024D01*
X112359637Y-88936348D01*
X112533041Y-88828981D01*
X112683764Y-88691579D01*
X112806673Y-88528821D01*
X112897582Y-88346250D01*
X112953397Y-88150083D01*
X112954005Y-88143530D01*
X112972215Y-87947003D01*
X112972215Y-87946996D01*
X112953398Y-87743923D01*
X112953397Y-87743917D01*
X112943461Y-87708996D01*
X112897582Y-87547750D01*
X112806673Y-87365179D01*
X112806670Y-87365175D01*
X112806670Y-87365174D01*
X112683765Y-87202421D01*
X112683764Y-87202420D01*
X112533041Y-87065019D01*
X112420791Y-86995517D01*
X112359637Y-86957652D01*
X112198057Y-86895056D01*
X112169459Y-86883977D01*
X112169458Y-86883976D01*
X112169456Y-86883976D01*
X112081407Y-86867516D01*
X111968979Y-86846500D01*
X111968976Y-86846500D01*
X111765024Y-86846500D01*
X111765020Y-86846500D01*
X111615116Y-86874522D01*
X111564544Y-86883976D01*
X111564542Y-86883976D01*
X111564540Y-86883977D01*
X111374373Y-86957648D01*
X111374363Y-86957652D01*
X111374358Y-86957654D01*
X111374358Y-86957655D01*
X111200958Y-87065019D01*
X111200957Y-87065019D01*
X111050235Y-87202420D01*
X111050234Y-87202421D01*
X110927329Y-87365174D01*
X110927328Y-87365177D01*
X110836418Y-87547750D01*
X110836416Y-87547755D01*
X110780602Y-87743917D01*
X110780601Y-87743923D01*
X110761785Y-87946996D01*
X110761785Y-87947003D01*
X104012215Y-87947003D01*
X104012215Y-87946996D01*
X103993398Y-87743923D01*
X103993397Y-87743917D01*
X103983461Y-87708996D01*
X103937582Y-87547750D01*
X103846673Y-87365179D01*
X103846670Y-87365175D01*
X103846670Y-87365174D01*
X103723765Y-87202421D01*
X103723764Y-87202420D01*
X103573041Y-87065019D01*
X103460791Y-86995517D01*
X103399637Y-86957652D01*
X103399631Y-86957649D01*
X103399628Y-86957648D01*
X103379766Y-86949953D01*
X103341667Y-86916625D01*
X103332500Y-86880951D01*
X103332500Y-86859412D01*
X103333411Y-86847836D01*
X103333676Y-86846161D01*
X103337804Y-86820100D01*
X103318782Y-86700000D01*
X103316719Y-86686973D01*
X103255528Y-86566880D01*
X103253156Y-86564508D01*
X103231764Y-86518632D01*
X103244865Y-86469737D01*
X103278748Y-86443180D01*
X103399637Y-86396348D01*
X103573041Y-86288981D01*
X103723764Y-86151579D01*
X103727147Y-86147100D01*
X103846670Y-85988825D01*
X103846670Y-85988824D01*
X103846673Y-85988821D01*
X103937582Y-85806250D01*
X103993397Y-85610083D01*
X103994017Y-85603400D01*
X104012215Y-85407003D01*
X110761785Y-85407003D01*
X110780601Y-85610076D01*
X110780602Y-85610082D01*
X110836416Y-85806244D01*
X110836418Y-85806250D01*
X110927327Y-85988821D01*
X110927328Y-85988822D01*
X110927329Y-85988825D01*
X111050234Y-86151578D01*
X111050235Y-86151579D01*
X111158507Y-86250281D01*
X111200959Y-86288981D01*
X111374363Y-86396348D01*
X111564544Y-86470024D01*
X111765024Y-86507500D01*
X111765026Y-86507500D01*
X111968974Y-86507500D01*
X111968976Y-86507500D01*
X112169456Y-86470024D01*
X112359637Y-86396348D01*
X112533041Y-86288981D01*
X112683764Y-86151579D01*
X112687147Y-86147100D01*
X112806670Y-85988825D01*
X112806670Y-85988824D01*
X112806673Y-85988821D01*
X112897582Y-85806250D01*
X112953397Y-85610083D01*
X112954017Y-85603400D01*
X112972215Y-85407003D01*
X112972215Y-85406996D01*
X112953398Y-85203923D01*
X112953397Y-85203917D01*
X112927846Y-85114116D01*
X112897582Y-85007750D01*
X112806673Y-84825179D01*
X112806670Y-84825175D01*
X112806670Y-84825174D01*
X112683765Y-84662421D01*
X112683764Y-84662420D01*
X112533041Y-84525019D01*
X112486280Y-84496066D01*
X112359637Y-84417652D01*
X112169456Y-84343976D01*
X112081407Y-84327516D01*
X111968979Y-84306500D01*
X111968976Y-84306500D01*
X111765024Y-84306500D01*
X111765020Y-84306500D01*
X111615116Y-84334522D01*
X111564544Y-84343976D01*
X111564542Y-84343976D01*
X111564540Y-84343977D01*
X111374373Y-84417648D01*
X111374363Y-84417652D01*
X111374358Y-84417654D01*
X111374358Y-84417655D01*
X111200958Y-84525019D01*
X111200957Y-84525019D01*
X111050235Y-84662420D01*
X111050234Y-84662421D01*
X110927329Y-84825174D01*
X110927328Y-84825177D01*
X110836418Y-85007750D01*
X110836416Y-85007755D01*
X110780602Y-85203917D01*
X110780601Y-85203923D01*
X110761785Y-85406996D01*
X110761785Y-85407003D01*
X104012215Y-85407003D01*
X104012215Y-85406996D01*
X103993398Y-85203923D01*
X103993397Y-85203917D01*
X103967846Y-85114116D01*
X103937582Y-85007750D01*
X103846673Y-84825179D01*
X103846670Y-84825175D01*
X103846670Y-84825174D01*
X103723765Y-84662421D01*
X103723764Y-84662420D01*
X103573041Y-84525019D01*
X103526280Y-84496066D01*
X103399637Y-84417652D01*
X103399631Y-84417649D01*
X103399628Y-84417648D01*
X103379766Y-84409953D01*
X103341667Y-84376625D01*
X103332500Y-84340951D01*
X103332500Y-84319412D01*
X103333411Y-84307836D01*
X103333623Y-84306500D01*
X103337804Y-84280100D01*
X103320058Y-84168058D01*
X103316719Y-84146973D01*
X103255528Y-84026880D01*
X103253156Y-84024508D01*
X103231764Y-83978632D01*
X103244865Y-83929737D01*
X103278748Y-83903180D01*
X103399637Y-83856348D01*
X103573041Y-83748981D01*
X103723764Y-83611579D01*
X103739546Y-83590681D01*
X103846670Y-83448825D01*
X103846670Y-83448824D01*
X103846673Y-83448821D01*
X103937582Y-83266250D01*
X103993397Y-83070083D01*
X103993825Y-83065470D01*
X104012215Y-82867003D01*
X104012215Y-82866996D01*
X103993398Y-82663923D01*
X103993397Y-82663917D01*
X103939139Y-82473223D01*
X103937582Y-82467750D01*
X103846673Y-82285179D01*
X103846670Y-82285175D01*
X103846670Y-82285174D01*
X103723765Y-82122421D01*
X103723764Y-82122420D01*
X103573041Y-81985019D01*
X103500313Y-81939988D01*
X103399637Y-81877652D01*
X103399631Y-81877649D01*
X103399628Y-81877648D01*
X103379766Y-81869953D01*
X103341667Y-81836625D01*
X103332500Y-81800951D01*
X103332500Y-81779412D01*
X103333411Y-81767836D01*
X103333623Y-81766500D01*
X103337804Y-81740100D01*
X103316719Y-81606974D01*
X103316719Y-81606973D01*
X103255528Y-81486880D01*
X103253156Y-81484508D01*
X103231764Y-81438632D01*
X103244865Y-81389737D01*
X103278748Y-81363180D01*
X103399637Y-81316348D01*
X103573041Y-81208981D01*
X103723764Y-81071579D01*
X103730611Y-81062513D01*
X103846670Y-80908825D01*
X103846670Y-80908824D01*
X103846673Y-80908821D01*
X103937582Y-80726250D01*
X103993397Y-80530083D01*
X104003904Y-80416700D01*
X104012215Y-80327003D01*
X104012215Y-80326996D01*
X103993398Y-80123923D01*
X103993397Y-80123917D01*
X103985131Y-80094865D01*
X103937582Y-79927750D01*
X103846673Y-79745179D01*
X103846670Y-79745175D01*
X103846670Y-79745174D01*
X103723765Y-79582421D01*
X103723764Y-79582420D01*
X103573041Y-79445019D01*
X103507487Y-79404430D01*
X103399637Y-79337652D01*
X103399631Y-79337649D01*
X103399628Y-79337648D01*
X103379766Y-79329953D01*
X103341667Y-79296625D01*
X103332500Y-79260951D01*
X103332500Y-79239412D01*
X103333411Y-79227836D01*
X103335422Y-79215138D01*
X103337804Y-79200100D01*
X103316719Y-79066974D01*
X103316719Y-79066973D01*
X103255528Y-78946880D01*
X103253156Y-78944508D01*
X103231764Y-78898632D01*
X103244865Y-78849737D01*
X103278748Y-78823180D01*
X103399637Y-78776348D01*
X103573041Y-78668981D01*
X103723764Y-78531579D01*
X103846673Y-78368821D01*
X103937582Y-78186250D01*
X103993397Y-77990083D01*
X103996963Y-77951607D01*
X104012215Y-77787003D01*
X104012215Y-77786996D01*
X103993398Y-77583923D01*
X103993397Y-77583917D01*
X103971335Y-77506377D01*
X103937582Y-77387750D01*
X103846673Y-77205179D01*
X103846670Y-77205175D01*
X103846670Y-77205174D01*
X103723765Y-77042421D01*
X103723764Y-77042420D01*
X103615922Y-76944110D01*
X103592433Y-76899270D01*
X103603262Y-76849823D01*
X103613444Y-76837102D01*
X104358854Y-76091694D01*
X104382828Y-76067720D01*
X104395576Y-76042699D01*
X104401646Y-76032794D01*
X104418149Y-76010081D01*
X104426825Y-75983375D01*
X104431264Y-75972656D01*
X104444019Y-75947626D01*
X104448413Y-75919874D01*
X104451118Y-75908608D01*
X104459800Y-75881893D01*
X104459800Y-75747107D01*
X104459800Y-72163012D01*
X104459800Y-72129107D01*
X104451121Y-72102398D01*
X104448410Y-72091103D01*
X104444019Y-72063374D01*
X104444018Y-72063373D01*
X104431270Y-72038353D01*
X104426826Y-72027623D01*
X104418150Y-72000922D01*
X104418150Y-72000921D01*
X104418149Y-72000919D01*
X104401641Y-71978198D01*
X104395576Y-71968300D01*
X104382828Y-71943280D01*
X104283305Y-71843757D01*
X104283298Y-71843751D01*
X103583632Y-71144084D01*
X103562240Y-71098207D01*
X103575341Y-71049313D01*
X103586102Y-71037074D01*
X103723764Y-70911579D01*
X103729559Y-70903906D01*
X103846670Y-70748825D01*
X103846670Y-70748824D01*
X103846673Y-70748821D01*
X103937582Y-70566250D01*
X103993397Y-70370083D01*
X103993397Y-70370082D01*
X103994333Y-70366793D01*
X103995861Y-70367227D01*
X104018774Y-70328428D01*
X104066508Y-70311584D01*
X104113902Y-70329363D01*
X104118107Y-70333254D01*
X105496926Y-71712073D01*
X105518318Y-71757949D01*
X105518600Y-71764399D01*
X105518600Y-82781995D01*
X105501287Y-82829561D01*
X105493671Y-82837384D01*
X105453619Y-82872867D01*
X105453618Y-82872868D01*
X105363879Y-83002878D01*
X105363878Y-83002878D01*
X105307864Y-83150577D01*
X105307861Y-83150591D01*
X105288822Y-83307396D01*
X105288822Y-83307403D01*
X105307861Y-83464208D01*
X105307864Y-83464222D01*
X105363878Y-83611921D01*
X105451660Y-83739095D01*
X105453617Y-83741930D01*
X105571860Y-83846683D01*
X105711735Y-83920096D01*
X105865115Y-83957900D01*
X105865119Y-83957900D01*
X106023081Y-83957900D01*
X106023085Y-83957900D01*
X106176465Y-83920096D01*
X106316340Y-83846683D01*
X106434583Y-83741930D01*
X106524320Y-83611923D01*
X106524451Y-83611579D01*
X106546576Y-83553238D01*
X106580337Y-83464218D01*
X106595032Y-83343191D01*
X106599378Y-83307403D01*
X106599378Y-83307396D01*
X106580338Y-83150591D01*
X106580337Y-83150582D01*
X106549808Y-83070083D01*
X106524321Y-83002878D01*
X106490651Y-82954099D01*
X106434583Y-82872870D01*
X106427961Y-82867003D01*
X110761785Y-82867003D01*
X110780601Y-83070076D01*
X110780602Y-83070082D01*
X110811537Y-83178804D01*
X110836418Y-83266250D01*
X110927327Y-83448821D01*
X110927328Y-83448822D01*
X110927329Y-83448825D01*
X111050234Y-83611578D01*
X111050235Y-83611579D01*
X111099865Y-83656822D01*
X111200959Y-83748981D01*
X111374363Y-83856348D01*
X111564544Y-83930024D01*
X111765024Y-83967500D01*
X111765026Y-83967500D01*
X111968974Y-83967500D01*
X111968976Y-83967500D01*
X112169456Y-83930024D01*
X112359637Y-83856348D01*
X112533041Y-83748981D01*
X112683764Y-83611579D01*
X112699546Y-83590681D01*
X112806670Y-83448825D01*
X112806670Y-83448824D01*
X112806673Y-83448821D01*
X112897582Y-83266250D01*
X112953397Y-83070083D01*
X112953825Y-83065470D01*
X112972215Y-82867003D01*
X126001785Y-82867003D01*
X126020601Y-83070076D01*
X126020602Y-83070082D01*
X126051537Y-83178804D01*
X126076418Y-83266250D01*
X126167327Y-83448821D01*
X126167328Y-83448822D01*
X126167329Y-83448825D01*
X126290234Y-83611578D01*
X126290235Y-83611579D01*
X126339865Y-83656822D01*
X126440959Y-83748981D01*
X126614363Y-83856348D01*
X126804544Y-83930024D01*
X127005024Y-83967500D01*
X127005026Y-83967500D01*
X127208974Y-83967500D01*
X127208976Y-83967500D01*
X127409456Y-83930024D01*
X127599637Y-83856348D01*
X127773041Y-83748981D01*
X127923764Y-83611579D01*
X127939546Y-83590681D01*
X128046670Y-83448825D01*
X128046670Y-83448824D01*
X128046673Y-83448821D01*
X128137582Y-83266250D01*
X128193397Y-83070083D01*
X128193825Y-83065470D01*
X128212215Y-82867003D01*
X128212215Y-82866996D01*
X128193398Y-82663923D01*
X128193397Y-82663917D01*
X128139139Y-82473223D01*
X128137582Y-82467750D01*
X128046673Y-82285179D01*
X128046670Y-82285175D01*
X128046670Y-82285174D01*
X127923765Y-82122421D01*
X127923764Y-82122420D01*
X127773041Y-81985019D01*
X127700313Y-81939988D01*
X127599637Y-81877652D01*
X127409456Y-81803976D01*
X127319621Y-81787183D01*
X127208979Y-81766500D01*
X127208976Y-81766500D01*
X127005024Y-81766500D01*
X127005020Y-81766500D01*
X126855116Y-81794522D01*
X126804544Y-81803976D01*
X126804542Y-81803976D01*
X126804540Y-81803977D01*
X126623643Y-81874057D01*
X126614363Y-81877652D01*
X126614358Y-81877654D01*
X126614358Y-81877655D01*
X126440958Y-81985019D01*
X126440957Y-81985019D01*
X126290235Y-82122420D01*
X126290234Y-82122421D01*
X126167329Y-82285174D01*
X126167328Y-82285177D01*
X126076418Y-82467750D01*
X126076416Y-82467755D01*
X126020602Y-82663917D01*
X126020601Y-82663923D01*
X126001785Y-82866996D01*
X126001785Y-82867003D01*
X112972215Y-82867003D01*
X112972215Y-82866996D01*
X112953398Y-82663923D01*
X112953397Y-82663917D01*
X112899139Y-82473223D01*
X112897582Y-82467750D01*
X112806673Y-82285179D01*
X112806670Y-82285175D01*
X112806670Y-82285174D01*
X112683765Y-82122421D01*
X112683764Y-82122420D01*
X112533041Y-81985019D01*
X112460313Y-81939988D01*
X112359637Y-81877652D01*
X112169456Y-81803976D01*
X112079621Y-81787183D01*
X111968979Y-81766500D01*
X111968976Y-81766500D01*
X111765024Y-81766500D01*
X111765020Y-81766500D01*
X111615116Y-81794522D01*
X111564544Y-81803976D01*
X111564542Y-81803976D01*
X111564540Y-81803977D01*
X111383643Y-81874057D01*
X111374363Y-81877652D01*
X111374358Y-81877654D01*
X111374358Y-81877655D01*
X111200958Y-81985019D01*
X111200957Y-81985019D01*
X111050235Y-82122420D01*
X111050234Y-82122421D01*
X110927329Y-82285174D01*
X110927328Y-82285177D01*
X110836418Y-82467750D01*
X110836416Y-82467755D01*
X110780602Y-82663917D01*
X110780601Y-82663923D01*
X110761785Y-82866996D01*
X110761785Y-82867003D01*
X106427961Y-82867003D01*
X106394529Y-82837384D01*
X106370405Y-82792883D01*
X106369600Y-82781995D01*
X106369600Y-80327003D01*
X110761785Y-80327003D01*
X110780601Y-80530076D01*
X110780602Y-80530082D01*
X110836416Y-80726244D01*
X110836418Y-80726250D01*
X110927327Y-80908821D01*
X110927328Y-80908822D01*
X110927329Y-80908825D01*
X111050234Y-81071578D01*
X111050235Y-81071579D01*
X111163340Y-81174687D01*
X111200959Y-81208981D01*
X111374363Y-81316348D01*
X111564544Y-81390024D01*
X111765024Y-81427500D01*
X111765026Y-81427500D01*
X111968974Y-81427500D01*
X111968976Y-81427500D01*
X112169456Y-81390024D01*
X112359637Y-81316348D01*
X112533041Y-81208981D01*
X112683764Y-81071579D01*
X112690611Y-81062513D01*
X112806670Y-80908825D01*
X112806670Y-80908824D01*
X112806673Y-80908821D01*
X112897582Y-80726250D01*
X112953397Y-80530083D01*
X112963904Y-80416700D01*
X112972215Y-80327003D01*
X126001785Y-80327003D01*
X126020601Y-80530076D01*
X126020602Y-80530082D01*
X126076416Y-80726244D01*
X126076418Y-80726250D01*
X126167327Y-80908821D01*
X126167328Y-80908822D01*
X126167329Y-80908825D01*
X126290234Y-81071578D01*
X126290235Y-81071579D01*
X126403340Y-81174687D01*
X126440959Y-81208981D01*
X126614363Y-81316348D01*
X126804544Y-81390024D01*
X127005024Y-81427500D01*
X127005026Y-81427500D01*
X127208974Y-81427500D01*
X127208976Y-81427500D01*
X127409456Y-81390024D01*
X127599637Y-81316348D01*
X127773041Y-81208981D01*
X127923764Y-81071579D01*
X127930611Y-81062513D01*
X128046670Y-80908825D01*
X128046670Y-80908824D01*
X128046673Y-80908821D01*
X128137582Y-80726250D01*
X128193397Y-80530083D01*
X128203904Y-80416700D01*
X128212215Y-80327003D01*
X128212215Y-80326996D01*
X128193398Y-80123923D01*
X128193397Y-80123917D01*
X128185131Y-80094865D01*
X128137582Y-79927750D01*
X128046673Y-79745179D01*
X128046670Y-79745175D01*
X128046670Y-79745174D01*
X127923765Y-79582421D01*
X127923764Y-79582420D01*
X127773041Y-79445019D01*
X127707487Y-79404430D01*
X127599637Y-79337652D01*
X127409456Y-79263976D01*
X127321407Y-79247516D01*
X127208979Y-79226500D01*
X127208976Y-79226500D01*
X127005024Y-79226500D01*
X127005020Y-79226500D01*
X126865513Y-79252579D01*
X126804544Y-79263976D01*
X126804542Y-79263976D01*
X126804540Y-79263977D01*
X126614373Y-79337648D01*
X126614363Y-79337652D01*
X126614358Y-79337654D01*
X126614358Y-79337655D01*
X126440958Y-79445019D01*
X126440957Y-79445019D01*
X126290235Y-79582420D01*
X126290234Y-79582421D01*
X126167329Y-79745174D01*
X126167328Y-79745177D01*
X126076418Y-79927750D01*
X126076416Y-79927755D01*
X126020602Y-80123917D01*
X126020601Y-80123923D01*
X126001785Y-80326996D01*
X126001785Y-80327003D01*
X112972215Y-80327003D01*
X112972215Y-80326996D01*
X112953398Y-80123923D01*
X112953397Y-80123917D01*
X112945131Y-80094865D01*
X112897582Y-79927750D01*
X112806673Y-79745179D01*
X112806670Y-79745175D01*
X112806670Y-79745174D01*
X112683765Y-79582421D01*
X112683764Y-79582420D01*
X112533041Y-79445019D01*
X112467487Y-79404430D01*
X112359637Y-79337652D01*
X112169456Y-79263976D01*
X112081407Y-79247516D01*
X111968979Y-79226500D01*
X111968976Y-79226500D01*
X111765024Y-79226500D01*
X111765020Y-79226500D01*
X111625513Y-79252579D01*
X111564544Y-79263976D01*
X111564542Y-79263976D01*
X111564540Y-79263977D01*
X111374373Y-79337648D01*
X111374363Y-79337652D01*
X111374358Y-79337654D01*
X111374358Y-79337655D01*
X111200958Y-79445019D01*
X111200957Y-79445019D01*
X111050235Y-79582420D01*
X111050234Y-79582421D01*
X110927329Y-79745174D01*
X110927328Y-79745177D01*
X110836418Y-79927750D01*
X110836416Y-79927755D01*
X110780602Y-80123917D01*
X110780601Y-80123923D01*
X110761785Y-80326996D01*
X110761785Y-80327003D01*
X106369600Y-80327003D01*
X106369600Y-77787003D01*
X110761785Y-77787003D01*
X110780601Y-77990076D01*
X110780602Y-77990082D01*
X110835304Y-78182336D01*
X110836418Y-78186250D01*
X110927327Y-78368821D01*
X110927328Y-78368822D01*
X110927329Y-78368825D01*
X111050234Y-78531578D01*
X111050235Y-78531579D01*
X111165600Y-78636747D01*
X111200959Y-78668981D01*
X111374363Y-78776348D01*
X111564544Y-78850024D01*
X111765024Y-78887500D01*
X111765026Y-78887500D01*
X111968974Y-78887500D01*
X111968976Y-78887500D01*
X112169456Y-78850024D01*
X112359637Y-78776348D01*
X112533041Y-78668981D01*
X112683764Y-78531579D01*
X112806673Y-78368821D01*
X112897582Y-78186250D01*
X112953397Y-77990083D01*
X112956963Y-77951607D01*
X112972215Y-77787003D01*
X112972215Y-77786996D01*
X112953398Y-77583923D01*
X112953397Y-77583917D01*
X112931335Y-77506377D01*
X112897582Y-77387750D01*
X112806673Y-77205179D01*
X112806670Y-77205175D01*
X112806670Y-77205174D01*
X112683765Y-77042421D01*
X112683764Y-77042420D01*
X112533041Y-76905019D01*
X112471530Y-76866933D01*
X112359637Y-76797652D01*
X112169456Y-76723976D01*
X112081407Y-76707516D01*
X111968979Y-76686500D01*
X111968976Y-76686500D01*
X111765024Y-76686500D01*
X111765020Y-76686500D01*
X111615116Y-76714522D01*
X111564544Y-76723976D01*
X111564542Y-76723976D01*
X111564540Y-76723977D01*
X111383643Y-76794057D01*
X111374363Y-76797652D01*
X111374358Y-76797654D01*
X111374358Y-76797655D01*
X111200958Y-76905019D01*
X111200957Y-76905019D01*
X111050235Y-77042420D01*
X111050234Y-77042421D01*
X110927329Y-77205174D01*
X110927328Y-77205177D01*
X110836418Y-77387750D01*
X110836416Y-77387755D01*
X110780602Y-77583917D01*
X110780601Y-77583923D01*
X110761785Y-77786996D01*
X110761785Y-77787003D01*
X106369600Y-77787003D01*
X106369600Y-75247003D01*
X110761785Y-75247003D01*
X110780601Y-75450076D01*
X110780602Y-75450082D01*
X110836416Y-75646244D01*
X110836418Y-75646250D01*
X110927327Y-75828821D01*
X110927328Y-75828822D01*
X110927329Y-75828825D01*
X111050234Y-75991578D01*
X111050235Y-75991579D01*
X111160057Y-76091694D01*
X111200959Y-76128981D01*
X111374363Y-76236348D01*
X111564544Y-76310024D01*
X111765024Y-76347500D01*
X111765026Y-76347500D01*
X111968974Y-76347500D01*
X111968976Y-76347500D01*
X112169456Y-76310024D01*
X112359637Y-76236348D01*
X112533041Y-76128981D01*
X112683764Y-75991579D01*
X112689371Y-75984155D01*
X112806670Y-75828825D01*
X112806670Y-75828824D01*
X112806673Y-75828821D01*
X112897582Y-75646250D01*
X112953397Y-75450083D01*
X112953628Y-75447598D01*
X112972215Y-75247003D01*
X112972215Y-75246996D01*
X112953398Y-75043923D01*
X112953397Y-75043917D01*
X112933959Y-74975600D01*
X112897582Y-74847750D01*
X112806673Y-74665179D01*
X112806670Y-74665175D01*
X112806670Y-74665174D01*
X112683765Y-74502421D01*
X112683764Y-74502420D01*
X112533041Y-74365019D01*
X112359637Y-74257652D01*
X112169456Y-74183976D01*
X112081407Y-74167516D01*
X111968979Y-74146500D01*
X111968976Y-74146500D01*
X111765024Y-74146500D01*
X111765020Y-74146500D01*
X111616306Y-74174300D01*
X111564544Y-74183976D01*
X111564542Y-74183976D01*
X111564540Y-74183977D01*
X111383643Y-74254057D01*
X111374363Y-74257652D01*
X111374358Y-74257654D01*
X111374358Y-74257655D01*
X111200958Y-74365019D01*
X111200957Y-74365019D01*
X111050235Y-74502420D01*
X111050234Y-74502421D01*
X110927329Y-74665174D01*
X110927328Y-74665177D01*
X110836418Y-74847750D01*
X110836416Y-74847755D01*
X110780602Y-75043917D01*
X110780601Y-75043923D01*
X110761785Y-75246996D01*
X110761785Y-75247003D01*
X106369600Y-75247003D01*
X106369600Y-72707003D01*
X110761785Y-72707003D01*
X110780601Y-72910076D01*
X110780602Y-72910082D01*
X110836416Y-73106244D01*
X110836418Y-73106250D01*
X110927327Y-73288821D01*
X110927328Y-73288822D01*
X110927329Y-73288825D01*
X111050234Y-73451578D01*
X111050235Y-73451579D01*
X111165600Y-73556747D01*
X111200959Y-73588981D01*
X111374363Y-73696348D01*
X111564544Y-73770024D01*
X111765024Y-73807500D01*
X111765026Y-73807500D01*
X111968974Y-73807500D01*
X111968976Y-73807500D01*
X112169456Y-73770024D01*
X112359637Y-73696348D01*
X112533041Y-73588981D01*
X112683764Y-73451579D01*
X112689371Y-73444155D01*
X112806670Y-73288825D01*
X112806670Y-73288824D01*
X112806673Y-73288821D01*
X112897582Y-73106250D01*
X112953397Y-72910083D01*
X112959588Y-72843277D01*
X112972215Y-72707003D01*
X112972215Y-72706996D01*
X112953398Y-72503923D01*
X112953397Y-72503917D01*
X112906679Y-72339722D01*
X112897582Y-72307750D01*
X112806673Y-72125179D01*
X112806670Y-72125175D01*
X112806670Y-72125174D01*
X112683765Y-71962421D01*
X112683764Y-71962420D01*
X112533041Y-71825019D01*
X112427600Y-71759733D01*
X112359637Y-71717652D01*
X112169456Y-71643976D01*
X112069548Y-71625300D01*
X111968979Y-71606500D01*
X111968976Y-71606500D01*
X111765024Y-71606500D01*
X111765020Y-71606500D01*
X111621447Y-71633339D01*
X111564544Y-71643976D01*
X111564542Y-71643976D01*
X111564540Y-71643977D01*
X111393857Y-71710100D01*
X111374363Y-71717652D01*
X111374358Y-71717654D01*
X111374358Y-71717655D01*
X111200958Y-71825019D01*
X111200957Y-71825019D01*
X111050235Y-71962420D01*
X111050234Y-71962421D01*
X110927329Y-72125174D01*
X110927328Y-72125177D01*
X110836418Y-72307750D01*
X110836416Y-72307755D01*
X110780602Y-72503917D01*
X110780601Y-72503923D01*
X110761785Y-72706996D01*
X110761785Y-72707003D01*
X106369600Y-72707003D01*
X106369600Y-71490106D01*
X106360921Y-71463398D01*
X106358210Y-71452103D01*
X106356200Y-71439413D01*
X106353819Y-71424374D01*
X106341070Y-71399353D01*
X106336626Y-71388623D01*
X106327950Y-71361922D01*
X106327950Y-71361921D01*
X106313985Y-71342700D01*
X106311441Y-71339198D01*
X106305376Y-71329300D01*
X106292628Y-71304280D01*
X105155351Y-70167003D01*
X110761785Y-70167003D01*
X110780601Y-70370076D01*
X110780602Y-70370082D01*
X110832782Y-70553471D01*
X110836418Y-70566250D01*
X110927327Y-70748821D01*
X110927328Y-70748822D01*
X110927329Y-70748825D01*
X111050234Y-70911578D01*
X111050235Y-70911579D01*
X111167714Y-71018674D01*
X111200959Y-71048981D01*
X111374363Y-71156348D01*
X111564544Y-71230024D01*
X111765024Y-71267500D01*
X111765026Y-71267500D01*
X111968974Y-71267500D01*
X111968976Y-71267500D01*
X112169456Y-71230024D01*
X112359637Y-71156348D01*
X112533041Y-71048981D01*
X112683764Y-70911579D01*
X112689559Y-70903906D01*
X112806670Y-70748825D01*
X112806670Y-70748824D01*
X112806673Y-70748821D01*
X112897582Y-70566250D01*
X112953397Y-70370083D01*
X112956025Y-70341730D01*
X112972215Y-70167003D01*
X112972215Y-70166996D01*
X112953398Y-69963923D01*
X112953397Y-69963917D01*
X112943177Y-69927999D01*
X112897582Y-69767750D01*
X112806673Y-69585179D01*
X112806670Y-69585175D01*
X112806670Y-69585174D01*
X112683765Y-69422421D01*
X112683764Y-69422420D01*
X112533041Y-69285019D01*
X112487495Y-69256818D01*
X112359637Y-69177652D01*
X112232849Y-69128534D01*
X112169459Y-69103977D01*
X112169458Y-69103976D01*
X112169456Y-69103976D01*
X112081407Y-69087516D01*
X111968979Y-69066500D01*
X111968976Y-69066500D01*
X111765024Y-69066500D01*
X111765020Y-69066500D01*
X111615116Y-69094522D01*
X111564544Y-69103976D01*
X111564542Y-69103976D01*
X111564540Y-69103977D01*
X111374368Y-69177650D01*
X111374363Y-69177652D01*
X111374358Y-69177654D01*
X111374358Y-69177655D01*
X111200958Y-69285019D01*
X111200957Y-69285019D01*
X111050235Y-69422420D01*
X111050234Y-69422421D01*
X110927329Y-69585174D01*
X110927328Y-69585177D01*
X110836418Y-69767750D01*
X110836416Y-69767755D01*
X110780602Y-69963917D01*
X110780601Y-69963923D01*
X110761785Y-70166996D01*
X110761785Y-70167003D01*
X105155351Y-70167003D01*
X103588235Y-68599887D01*
X103566843Y-68554011D01*
X103579944Y-68505116D01*
X103590701Y-68492881D01*
X103723764Y-68371579D01*
X103846673Y-68208821D01*
X103937582Y-68026250D01*
X103993397Y-67830083D01*
X103995256Y-67810029D01*
X104012215Y-67627003D01*
X104012215Y-67626996D01*
X103993398Y-67423923D01*
X103993397Y-67423917D01*
X103970428Y-67343191D01*
X103937582Y-67227750D01*
X103846673Y-67045179D01*
X103846670Y-67045175D01*
X103846670Y-67045174D01*
X103723765Y-66882421D01*
X103723764Y-66882420D01*
X103573041Y-66745019D01*
X103529846Y-66718274D01*
X103399637Y-66637652D01*
X103209456Y-66563976D01*
X103102663Y-66544013D01*
X103008979Y-66526500D01*
X103008976Y-66526500D01*
X102805024Y-66526500D01*
X102805020Y-66526500D01*
X102655116Y-66554522D01*
X102604544Y-66563976D01*
X102604542Y-66563976D01*
X102604540Y-66563977D01*
X102414368Y-66637650D01*
X102414363Y-66637652D01*
X102414358Y-66637654D01*
X102414358Y-66637655D01*
X102240958Y-66745019D01*
X102240957Y-66745019D01*
X102090235Y-66882420D01*
X102090234Y-66882421D01*
X101967329Y-67045174D01*
X101967328Y-67045177D01*
X101876418Y-67227750D01*
X101876416Y-67227755D01*
X101820602Y-67423917D01*
X101820601Y-67423923D01*
X101801785Y-67626996D01*
X101801785Y-67627003D01*
X101820601Y-67830076D01*
X101820602Y-67830082D01*
X101876416Y-68026244D01*
X101876418Y-68026250D01*
X101967327Y-68208821D01*
X101967328Y-68208822D01*
X101967329Y-68208825D01*
X102090234Y-68371578D01*
X102090235Y-68371579D01*
X102176084Y-68449840D01*
X102240959Y-68508981D01*
X102414363Y-68616348D01*
X102434232Y-68624045D01*
X102472331Y-68657369D01*
X102481500Y-68693047D01*
X102481500Y-68714586D01*
X102480589Y-68726162D01*
X102476196Y-68753899D01*
X102481500Y-68787388D01*
X102497281Y-68887026D01*
X102558471Y-69007119D01*
X102560843Y-69009491D01*
X102582235Y-69055367D01*
X102569134Y-69104262D01*
X102535249Y-69130820D01*
X102414368Y-69177650D01*
X102414363Y-69177652D01*
X102414358Y-69177654D01*
X102414358Y-69177655D01*
X102240958Y-69285019D01*
X102240957Y-69285019D01*
X102090235Y-69422420D01*
X102090234Y-69422421D01*
X101967329Y-69585174D01*
X101967328Y-69585177D01*
X101876418Y-69767750D01*
X101876417Y-69767752D01*
X101830822Y-69927999D01*
X101801153Y-69969011D01*
X101752063Y-69981357D01*
X101707321Y-69960073D01*
X96834251Y-65087003D01*
X101801785Y-65087003D01*
X101820601Y-65290076D01*
X101820602Y-65290082D01*
X101874722Y-65480289D01*
X101876418Y-65486250D01*
X101967327Y-65668821D01*
X101967328Y-65668822D01*
X101967329Y-65668825D01*
X102090234Y-65831578D01*
X102090235Y-65831579D01*
X102199844Y-65931500D01*
X102240959Y-65968981D01*
X102414363Y-66076348D01*
X102604544Y-66150024D01*
X102805024Y-66187500D01*
X102805026Y-66187500D01*
X103008974Y-66187500D01*
X103008976Y-66187500D01*
X103209456Y-66150024D01*
X103399637Y-66076348D01*
X103573041Y-65968981D01*
X103723764Y-65831579D01*
X103732131Y-65820500D01*
X103846670Y-65668825D01*
X103846670Y-65668824D01*
X103846673Y-65668821D01*
X103937582Y-65486250D01*
X103993397Y-65290083D01*
X103996544Y-65256129D01*
X104012215Y-65087003D01*
X104012215Y-65086996D01*
X103993398Y-64883923D01*
X103993397Y-64883917D01*
X103980728Y-64839391D01*
X103937582Y-64687750D01*
X103846673Y-64505179D01*
X103846670Y-64505175D01*
X103846670Y-64505174D01*
X103723765Y-64342421D01*
X103723764Y-64342420D01*
X103573041Y-64205019D01*
X103518260Y-64171100D01*
X103399637Y-64097652D01*
X103209456Y-64023976D01*
X103121407Y-64007516D01*
X103008979Y-63986500D01*
X103008976Y-63986500D01*
X102805024Y-63986500D01*
X102805020Y-63986500D01*
X102655116Y-64014522D01*
X102604544Y-64023976D01*
X102604542Y-64023976D01*
X102604540Y-64023977D01*
X102414368Y-64097650D01*
X102414363Y-64097652D01*
X102414358Y-64097654D01*
X102414358Y-64097655D01*
X102240958Y-64205019D01*
X102240957Y-64205019D01*
X102090235Y-64342420D01*
X102090234Y-64342421D01*
X101967329Y-64505174D01*
X101967328Y-64505177D01*
X101876418Y-64687750D01*
X101876416Y-64687755D01*
X101820602Y-64883917D01*
X101820601Y-64883923D01*
X101801785Y-65086996D01*
X101801785Y-65087003D01*
X96834251Y-65087003D01*
X94294251Y-62547003D01*
X101801785Y-62547003D01*
X101820601Y-62750076D01*
X101820602Y-62750082D01*
X101874867Y-62940799D01*
X101876418Y-62946250D01*
X101967327Y-63128821D01*
X101967328Y-63128822D01*
X101967329Y-63128825D01*
X102090234Y-63291578D01*
X102090235Y-63291579D01*
X102211419Y-63402052D01*
X102240959Y-63428981D01*
X102414363Y-63536348D01*
X102604544Y-63610024D01*
X102805024Y-63647500D01*
X102805026Y-63647500D01*
X103008974Y-63647500D01*
X103008976Y-63647500D01*
X103209456Y-63610024D01*
X103399637Y-63536348D01*
X103573041Y-63428981D01*
X103723764Y-63291579D01*
X103748815Y-63258407D01*
X103846670Y-63128825D01*
X103846670Y-63128824D01*
X103846673Y-63128821D01*
X103937582Y-62946250D01*
X103993397Y-62750083D01*
X103998751Y-62692310D01*
X104012215Y-62547003D01*
X104012215Y-62546996D01*
X103993398Y-62343923D01*
X103993397Y-62343917D01*
X103937583Y-62147755D01*
X103937582Y-62147750D01*
X103846673Y-61965179D01*
X103846670Y-61965175D01*
X103846670Y-61965174D01*
X103723765Y-61802421D01*
X103723764Y-61802420D01*
X103573041Y-61665019D01*
X103530444Y-61638644D01*
X103399637Y-61557652D01*
X103209456Y-61483976D01*
X103121407Y-61467516D01*
X103008979Y-61446500D01*
X103008976Y-61446500D01*
X102805024Y-61446500D01*
X102805020Y-61446500D01*
X102655116Y-61474522D01*
X102604544Y-61483976D01*
X102604542Y-61483976D01*
X102604540Y-61483977D01*
X102414368Y-61557650D01*
X102414363Y-61557652D01*
X102414358Y-61557654D01*
X102414358Y-61557655D01*
X102240958Y-61665019D01*
X102240957Y-61665019D01*
X102090235Y-61802420D01*
X102090234Y-61802421D01*
X101967329Y-61965174D01*
X101967328Y-61965177D01*
X101876418Y-62147750D01*
X101876416Y-62147755D01*
X101820602Y-62343917D01*
X101820601Y-62343923D01*
X101801785Y-62546996D01*
X101801785Y-62547003D01*
X94294251Y-62547003D01*
X90573974Y-58826726D01*
X90552582Y-58780850D01*
X90552300Y-58774400D01*
X90552300Y-58737003D01*
X100873122Y-58737003D01*
X100892161Y-58893808D01*
X100892164Y-58893822D01*
X100948178Y-59041521D01*
X101031056Y-59161590D01*
X101037917Y-59171530D01*
X101156160Y-59276283D01*
X101296035Y-59349696D01*
X101449415Y-59387500D01*
X101449419Y-59387500D01*
X101607381Y-59387500D01*
X101607385Y-59387500D01*
X101760765Y-59349696D01*
X101900640Y-59276283D01*
X101900640Y-59276282D01*
X101904603Y-59274203D01*
X101905766Y-59276420D01*
X101946157Y-59265852D01*
X101991907Y-59287513D01*
X102013030Y-59333515D01*
X101999642Y-59382331D01*
X101998329Y-59384126D01*
X101967326Y-59425180D01*
X101876418Y-59607750D01*
X101876416Y-59607755D01*
X101820602Y-59803917D01*
X101820601Y-59803923D01*
X101801785Y-60006996D01*
X101801785Y-60007003D01*
X101820601Y-60210076D01*
X101820602Y-60210082D01*
X101876416Y-60406244D01*
X101876418Y-60406250D01*
X101967327Y-60588821D01*
X101967328Y-60588822D01*
X101967329Y-60588825D01*
X102090234Y-60751578D01*
X102090235Y-60751579D01*
X102183188Y-60836316D01*
X102240959Y-60888981D01*
X102414363Y-60996348D01*
X102604544Y-61070024D01*
X102805024Y-61107500D01*
X102805026Y-61107500D01*
X103008974Y-61107500D01*
X103008976Y-61107500D01*
X103209456Y-61070024D01*
X103399637Y-60996348D01*
X103573041Y-60888981D01*
X103723764Y-60751579D01*
X103748815Y-60718407D01*
X103846670Y-60588825D01*
X103846670Y-60588824D01*
X103846673Y-60588821D01*
X103937582Y-60406250D01*
X103985392Y-60238215D01*
X104015061Y-60197203D01*
X104064151Y-60184857D01*
X104108893Y-60206141D01*
X110512972Y-66610220D01*
X110608280Y-66705528D01*
X110633306Y-66718279D01*
X110643193Y-66724338D01*
X110665919Y-66740849D01*
X110665920Y-66740849D01*
X110665921Y-66740850D01*
X110692623Y-66749526D01*
X110703353Y-66753970D01*
X110715157Y-66759984D01*
X110728374Y-66766719D01*
X110756103Y-66771110D01*
X110767398Y-66773821D01*
X110794107Y-66782500D01*
X110828012Y-66782500D01*
X110977080Y-66782500D01*
X111024646Y-66799813D01*
X111049956Y-66843650D01*
X111041166Y-66893500D01*
X111036133Y-66901095D01*
X110927329Y-67045174D01*
X110927328Y-67045177D01*
X110836418Y-67227750D01*
X110836416Y-67227755D01*
X110780602Y-67423917D01*
X110780601Y-67423923D01*
X110761785Y-67626996D01*
X110761785Y-67627003D01*
X110780601Y-67830076D01*
X110780602Y-67830082D01*
X110836416Y-68026244D01*
X110836418Y-68026250D01*
X110927327Y-68208821D01*
X110927328Y-68208822D01*
X110927329Y-68208825D01*
X111050234Y-68371578D01*
X111050235Y-68371579D01*
X111136084Y-68449840D01*
X111200959Y-68508981D01*
X111374363Y-68616348D01*
X111564544Y-68690024D01*
X111765024Y-68727500D01*
X111765026Y-68727500D01*
X111968974Y-68727500D01*
X111968976Y-68727500D01*
X112169456Y-68690024D01*
X112359637Y-68616348D01*
X112533041Y-68508981D01*
X112683764Y-68371579D01*
X112806673Y-68208821D01*
X112897582Y-68026250D01*
X112953397Y-67830083D01*
X112955256Y-67810029D01*
X112972215Y-67627003D01*
X112972215Y-67626996D01*
X112953398Y-67423923D01*
X112953397Y-67423917D01*
X112930428Y-67343191D01*
X112897582Y-67227750D01*
X112806673Y-67045179D01*
X112806670Y-67045175D01*
X112806670Y-67045174D01*
X112697867Y-66901095D01*
X112683017Y-66852703D01*
X112702748Y-66806088D01*
X112747827Y-66783061D01*
X112756920Y-66782500D01*
X114343200Y-66782500D01*
X114390766Y-66799813D01*
X114395526Y-66804174D01*
X125631572Y-78040220D01*
X125726880Y-78135528D01*
X125751902Y-78148276D01*
X125761799Y-78154342D01*
X125784517Y-78170848D01*
X125784518Y-78170848D01*
X125784519Y-78170849D01*
X125784521Y-78170849D01*
X125784522Y-78170850D01*
X125811223Y-78179526D01*
X125821953Y-78183970D01*
X125826426Y-78186249D01*
X125846974Y-78196719D01*
X125870402Y-78200429D01*
X125874703Y-78201110D01*
X125885998Y-78203821D01*
X125912707Y-78212500D01*
X125946612Y-78212500D01*
X126043670Y-78212500D01*
X126091236Y-78229813D01*
X126109911Y-78253514D01*
X126167327Y-78368821D01*
X126167328Y-78368822D01*
X126167329Y-78368825D01*
X126290234Y-78531578D01*
X126290235Y-78531579D01*
X126405600Y-78636747D01*
X126440959Y-78668981D01*
X126614363Y-78776348D01*
X126804544Y-78850024D01*
X127005024Y-78887500D01*
X127005026Y-78887500D01*
X127208974Y-78887500D01*
X127208976Y-78887500D01*
X127409456Y-78850024D01*
X127599637Y-78776348D01*
X127773041Y-78668981D01*
X127923764Y-78531579D01*
X128046673Y-78368821D01*
X128137582Y-78186250D01*
X128193397Y-77990083D01*
X128196963Y-77951607D01*
X128212215Y-77787003D01*
X128212215Y-77786996D01*
X128193398Y-77583923D01*
X128193397Y-77583917D01*
X128171335Y-77506377D01*
X128137582Y-77387750D01*
X128046673Y-77205179D01*
X128046670Y-77205175D01*
X128046670Y-77205174D01*
X127923765Y-77042421D01*
X127923764Y-77042420D01*
X127773041Y-76905019D01*
X127711530Y-76866933D01*
X127599637Y-76797652D01*
X127409456Y-76723976D01*
X127321407Y-76707516D01*
X127208979Y-76686500D01*
X127208976Y-76686500D01*
X127005024Y-76686500D01*
X127005020Y-76686500D01*
X126855116Y-76714522D01*
X126804544Y-76723976D01*
X126804542Y-76723976D01*
X126804540Y-76723977D01*
X126623643Y-76794057D01*
X126614363Y-76797652D01*
X126614358Y-76797654D01*
X126614358Y-76797655D01*
X126440958Y-76905019D01*
X126440957Y-76905019D01*
X126290235Y-77042420D01*
X126290234Y-77042421D01*
X126167328Y-77205176D01*
X126167325Y-77205181D01*
X126157555Y-77224801D01*
X126120853Y-77259663D01*
X126070330Y-77262777D01*
X126038988Y-77244140D01*
X124041851Y-75247003D01*
X126001785Y-75247003D01*
X126020601Y-75450076D01*
X126020602Y-75450082D01*
X126076416Y-75646244D01*
X126076418Y-75646250D01*
X126167327Y-75828821D01*
X126167328Y-75828822D01*
X126167329Y-75828825D01*
X126290234Y-75991578D01*
X126290235Y-75991579D01*
X126400057Y-76091694D01*
X126440959Y-76128981D01*
X126614363Y-76236348D01*
X126804544Y-76310024D01*
X127005024Y-76347500D01*
X127005026Y-76347500D01*
X127208974Y-76347500D01*
X127208976Y-76347500D01*
X127409456Y-76310024D01*
X127599637Y-76236348D01*
X127773041Y-76128981D01*
X127923764Y-75991579D01*
X127929371Y-75984155D01*
X128046670Y-75828825D01*
X128046670Y-75828824D01*
X128046673Y-75828821D01*
X128137582Y-75646250D01*
X128193397Y-75450083D01*
X128193628Y-75447598D01*
X128212215Y-75247003D01*
X128212215Y-75246996D01*
X128193398Y-75043923D01*
X128193397Y-75043917D01*
X128173959Y-74975600D01*
X128137582Y-74847750D01*
X128046673Y-74665179D01*
X128046670Y-74665175D01*
X128046670Y-74665174D01*
X127923765Y-74502421D01*
X127923764Y-74502420D01*
X127773041Y-74365019D01*
X127599637Y-74257652D01*
X127409456Y-74183976D01*
X127321407Y-74167516D01*
X127208979Y-74146500D01*
X127208976Y-74146500D01*
X127005024Y-74146500D01*
X127005020Y-74146500D01*
X126856306Y-74174300D01*
X126804544Y-74183976D01*
X126804542Y-74183976D01*
X126804540Y-74183977D01*
X126623643Y-74254057D01*
X126614363Y-74257652D01*
X126614358Y-74257654D01*
X126614358Y-74257655D01*
X126440958Y-74365019D01*
X126440957Y-74365019D01*
X126290235Y-74502420D01*
X126290234Y-74502421D01*
X126167329Y-74665174D01*
X126167328Y-74665177D01*
X126076418Y-74847750D01*
X126076416Y-74847755D01*
X126020602Y-75043917D01*
X126020601Y-75043923D01*
X126001785Y-75246996D01*
X126001785Y-75247003D01*
X124041851Y-75247003D01*
X121501851Y-72707003D01*
X126001785Y-72707003D01*
X126020601Y-72910076D01*
X126020602Y-72910082D01*
X126076416Y-73106244D01*
X126076418Y-73106250D01*
X126167327Y-73288821D01*
X126167328Y-73288822D01*
X126167329Y-73288825D01*
X126290234Y-73451578D01*
X126290235Y-73451579D01*
X126405600Y-73556747D01*
X126440959Y-73588981D01*
X126614363Y-73696348D01*
X126804544Y-73770024D01*
X127005024Y-73807500D01*
X127005026Y-73807500D01*
X127208974Y-73807500D01*
X127208976Y-73807500D01*
X127409456Y-73770024D01*
X127599637Y-73696348D01*
X127773041Y-73588981D01*
X127923764Y-73451579D01*
X127929371Y-73444155D01*
X128046670Y-73288825D01*
X128046670Y-73288824D01*
X128046673Y-73288821D01*
X128137582Y-73106250D01*
X128193397Y-72910083D01*
X128199588Y-72843277D01*
X128212215Y-72707003D01*
X128212215Y-72706996D01*
X128193398Y-72503923D01*
X128193397Y-72503917D01*
X128146679Y-72339722D01*
X128137582Y-72307750D01*
X128046673Y-72125179D01*
X128046670Y-72125175D01*
X128046670Y-72125174D01*
X127923765Y-71962421D01*
X127923764Y-71962420D01*
X127773041Y-71825019D01*
X127667600Y-71759733D01*
X127599637Y-71717652D01*
X127409456Y-71643976D01*
X127309548Y-71625300D01*
X127208979Y-71606500D01*
X127208976Y-71606500D01*
X127005024Y-71606500D01*
X127005020Y-71606500D01*
X126861447Y-71633339D01*
X126804544Y-71643976D01*
X126804542Y-71643976D01*
X126804540Y-71643977D01*
X126633857Y-71710100D01*
X126614363Y-71717652D01*
X126614358Y-71717654D01*
X126614358Y-71717655D01*
X126440958Y-71825019D01*
X126440957Y-71825019D01*
X126290235Y-71962420D01*
X126290234Y-71962421D01*
X126167329Y-72125174D01*
X126167328Y-72125177D01*
X126076418Y-72307750D01*
X126076416Y-72307755D01*
X126020602Y-72503917D01*
X126020601Y-72503923D01*
X126001785Y-72706996D01*
X126001785Y-72707003D01*
X121501851Y-72707003D01*
X118961851Y-70167003D01*
X126001785Y-70167003D01*
X126020601Y-70370076D01*
X126020602Y-70370082D01*
X126072782Y-70553471D01*
X126076418Y-70566250D01*
X126167327Y-70748821D01*
X126167328Y-70748822D01*
X126167329Y-70748825D01*
X126290234Y-70911578D01*
X126290235Y-70911579D01*
X126407714Y-71018674D01*
X126440959Y-71048981D01*
X126614363Y-71156348D01*
X126804544Y-71230024D01*
X127005024Y-71267500D01*
X127005026Y-71267500D01*
X127208974Y-71267500D01*
X127208976Y-71267500D01*
X127409456Y-71230024D01*
X127599637Y-71156348D01*
X127773041Y-71048981D01*
X127923764Y-70911579D01*
X127929559Y-70903906D01*
X128046670Y-70748825D01*
X128046670Y-70748824D01*
X128046673Y-70748821D01*
X128137582Y-70566250D01*
X128193397Y-70370083D01*
X128196025Y-70341730D01*
X128212215Y-70167003D01*
X128212215Y-70166996D01*
X128193398Y-69963923D01*
X128193397Y-69963917D01*
X128183177Y-69927999D01*
X128137582Y-69767750D01*
X128046673Y-69585179D01*
X128046670Y-69585175D01*
X128046670Y-69585174D01*
X127923765Y-69422421D01*
X127923764Y-69422420D01*
X127773041Y-69285019D01*
X127727495Y-69256818D01*
X127599637Y-69177652D01*
X127472849Y-69128534D01*
X127409459Y-69103977D01*
X127409458Y-69103976D01*
X127409456Y-69103976D01*
X127321407Y-69087516D01*
X127208979Y-69066500D01*
X127208976Y-69066500D01*
X127005024Y-69066500D01*
X127005020Y-69066500D01*
X126855116Y-69094522D01*
X126804544Y-69103976D01*
X126804542Y-69103976D01*
X126804540Y-69103977D01*
X126614368Y-69177650D01*
X126614363Y-69177652D01*
X126614358Y-69177654D01*
X126614358Y-69177655D01*
X126440958Y-69285019D01*
X126440957Y-69285019D01*
X126290235Y-69422420D01*
X126290234Y-69422421D01*
X126167329Y-69585174D01*
X126167328Y-69585177D01*
X126076418Y-69767750D01*
X126076416Y-69767755D01*
X126020602Y-69963917D01*
X126020601Y-69963923D01*
X126001785Y-70166996D01*
X126001785Y-70167003D01*
X118961851Y-70167003D01*
X116421851Y-67627003D01*
X126001785Y-67627003D01*
X126020601Y-67830076D01*
X126020602Y-67830082D01*
X126076416Y-68026244D01*
X126076418Y-68026250D01*
X126167327Y-68208821D01*
X126167328Y-68208822D01*
X126167329Y-68208825D01*
X126290234Y-68371578D01*
X126290235Y-68371579D01*
X126376084Y-68449840D01*
X126440959Y-68508981D01*
X126614363Y-68616348D01*
X126804544Y-68690024D01*
X127005024Y-68727500D01*
X127005026Y-68727500D01*
X127208974Y-68727500D01*
X127208976Y-68727500D01*
X127409456Y-68690024D01*
X127599637Y-68616348D01*
X127773041Y-68508981D01*
X127923764Y-68371579D01*
X128046673Y-68208821D01*
X128137582Y-68026250D01*
X128193397Y-67830083D01*
X128195256Y-67810029D01*
X128212215Y-67627003D01*
X128212215Y-67626996D01*
X128193398Y-67423923D01*
X128193397Y-67423917D01*
X128170428Y-67343191D01*
X128137582Y-67227750D01*
X128046673Y-67045179D01*
X128046670Y-67045175D01*
X128046670Y-67045174D01*
X127923765Y-66882421D01*
X127923764Y-66882420D01*
X127773041Y-66745019D01*
X127729846Y-66718274D01*
X127599637Y-66637652D01*
X127409456Y-66563976D01*
X127302663Y-66544013D01*
X127208979Y-66526500D01*
X127208976Y-66526500D01*
X127005024Y-66526500D01*
X127005020Y-66526500D01*
X126855116Y-66554522D01*
X126804544Y-66563976D01*
X126804542Y-66563976D01*
X126804540Y-66563977D01*
X126614368Y-66637650D01*
X126614363Y-66637652D01*
X126614358Y-66637654D01*
X126614358Y-66637655D01*
X126440958Y-66745019D01*
X126440957Y-66745019D01*
X126290235Y-66882420D01*
X126290234Y-66882421D01*
X126167329Y-67045174D01*
X126167328Y-67045177D01*
X126076418Y-67227750D01*
X126076416Y-67227755D01*
X126020602Y-67423917D01*
X126020601Y-67423923D01*
X126001785Y-67626996D01*
X126001785Y-67627003D01*
X116421851Y-67627003D01*
X114803320Y-66008472D01*
X114781884Y-65997550D01*
X114778296Y-65995722D01*
X114768397Y-65989655D01*
X114745682Y-65973151D01*
X114731239Y-65968458D01*
X114718971Y-65964472D01*
X114708251Y-65960032D01*
X114683226Y-65947281D01*
X114683225Y-65947280D01*
X114683224Y-65947280D01*
X114655489Y-65942888D01*
X114644197Y-65940177D01*
X114617494Y-65931500D01*
X114617493Y-65931500D01*
X114583588Y-65931500D01*
X112756920Y-65931500D01*
X112709354Y-65914187D01*
X112684044Y-65870350D01*
X112692834Y-65820500D01*
X112697867Y-65812905D01*
X112806670Y-65668825D01*
X112806670Y-65668824D01*
X112806673Y-65668821D01*
X112897582Y-65486250D01*
X112953397Y-65290083D01*
X112956544Y-65256129D01*
X112972215Y-65087003D01*
X126001785Y-65087003D01*
X126020601Y-65290076D01*
X126020602Y-65290082D01*
X126074722Y-65480289D01*
X126076418Y-65486250D01*
X126167327Y-65668821D01*
X126167328Y-65668822D01*
X126167329Y-65668825D01*
X126290234Y-65831578D01*
X126290235Y-65831579D01*
X126399844Y-65931500D01*
X126440959Y-65968981D01*
X126614363Y-66076348D01*
X126804544Y-66150024D01*
X127005024Y-66187500D01*
X127005026Y-66187500D01*
X127208974Y-66187500D01*
X127208976Y-66187500D01*
X127409456Y-66150024D01*
X127599637Y-66076348D01*
X127773041Y-65968981D01*
X127923764Y-65831579D01*
X127932131Y-65820500D01*
X128046670Y-65668825D01*
X128046670Y-65668824D01*
X128046673Y-65668821D01*
X128137582Y-65486250D01*
X128193397Y-65290083D01*
X128196544Y-65256129D01*
X128212215Y-65087003D01*
X128212215Y-65086996D01*
X128193398Y-64883923D01*
X128193397Y-64883917D01*
X128180728Y-64839391D01*
X128137582Y-64687750D01*
X128046673Y-64505179D01*
X128046670Y-64505175D01*
X128046670Y-64505174D01*
X127923765Y-64342421D01*
X127923764Y-64342420D01*
X127773041Y-64205019D01*
X127718260Y-64171100D01*
X127599637Y-64097652D01*
X127409456Y-64023976D01*
X127321407Y-64007516D01*
X127208979Y-63986500D01*
X127208976Y-63986500D01*
X127005024Y-63986500D01*
X127005020Y-63986500D01*
X126855116Y-64014522D01*
X126804544Y-64023976D01*
X126804542Y-64023976D01*
X126804540Y-64023977D01*
X126614368Y-64097650D01*
X126614363Y-64097652D01*
X126614358Y-64097654D01*
X126614358Y-64097655D01*
X126440958Y-64205019D01*
X126440957Y-64205019D01*
X126290235Y-64342420D01*
X126290234Y-64342421D01*
X126167329Y-64505174D01*
X126167328Y-64505177D01*
X126076418Y-64687750D01*
X126076416Y-64687755D01*
X126020602Y-64883917D01*
X126020601Y-64883923D01*
X126001785Y-65086996D01*
X126001785Y-65087003D01*
X112972215Y-65087003D01*
X112972215Y-65086996D01*
X112953398Y-64883923D01*
X112953397Y-64883917D01*
X112940728Y-64839391D01*
X112897582Y-64687750D01*
X112806673Y-64505179D01*
X112806670Y-64505175D01*
X112806670Y-64505174D01*
X112683765Y-64342421D01*
X112683764Y-64342420D01*
X112533041Y-64205019D01*
X112478260Y-64171100D01*
X112359637Y-64097652D01*
X112169456Y-64023976D01*
X112081407Y-64007516D01*
X111968979Y-63986500D01*
X111968976Y-63986500D01*
X111765024Y-63986500D01*
X111765020Y-63986500D01*
X111615116Y-64014522D01*
X111564544Y-64023976D01*
X111564542Y-64023976D01*
X111564540Y-64023977D01*
X111374368Y-64097650D01*
X111374363Y-64097652D01*
X111374358Y-64097654D01*
X111374358Y-64097655D01*
X111200958Y-64205019D01*
X111200957Y-64205019D01*
X111050235Y-64342420D01*
X111050234Y-64342421D01*
X110927329Y-64505174D01*
X110927328Y-64505177D01*
X110836418Y-64687750D01*
X110836416Y-64687755D01*
X110780602Y-64883917D01*
X110780601Y-64883923D01*
X110761785Y-65086996D01*
X110761785Y-65087003D01*
X110780601Y-65290076D01*
X110780602Y-65290082D01*
X110836416Y-65486244D01*
X110836419Y-65486254D01*
X110876130Y-65566004D01*
X110881834Y-65616300D01*
X110853874Y-65658496D01*
X110805332Y-65672848D01*
X110758922Y-65652639D01*
X110757562Y-65651314D01*
X107653251Y-62547003D01*
X110761785Y-62547003D01*
X110780601Y-62750076D01*
X110780602Y-62750082D01*
X110834867Y-62940799D01*
X110836418Y-62946250D01*
X110927327Y-63128821D01*
X110927328Y-63128822D01*
X110927329Y-63128825D01*
X111050234Y-63291578D01*
X111050235Y-63291579D01*
X111171419Y-63402052D01*
X111200959Y-63428981D01*
X111374363Y-63536348D01*
X111564544Y-63610024D01*
X111765024Y-63647500D01*
X111765026Y-63647500D01*
X111968974Y-63647500D01*
X111968976Y-63647500D01*
X112169456Y-63610024D01*
X112359637Y-63536348D01*
X112533041Y-63428981D01*
X112683764Y-63291579D01*
X112708815Y-63258407D01*
X112806670Y-63128825D01*
X112806670Y-63128824D01*
X112806673Y-63128821D01*
X112897582Y-62946250D01*
X112953397Y-62750083D01*
X112958751Y-62692310D01*
X112972215Y-62547003D01*
X126001785Y-62547003D01*
X126020601Y-62750076D01*
X126020602Y-62750082D01*
X126074867Y-62940799D01*
X126076418Y-62946250D01*
X126167327Y-63128821D01*
X126167328Y-63128822D01*
X126167329Y-63128825D01*
X126290234Y-63291578D01*
X126290235Y-63291579D01*
X126411419Y-63402052D01*
X126440959Y-63428981D01*
X126614363Y-63536348D01*
X126804544Y-63610024D01*
X127005024Y-63647500D01*
X127005026Y-63647500D01*
X127208974Y-63647500D01*
X127208976Y-63647500D01*
X127409456Y-63610024D01*
X127599637Y-63536348D01*
X127773041Y-63428981D01*
X127923764Y-63291579D01*
X127948815Y-63258407D01*
X128046670Y-63128825D01*
X128046670Y-63128824D01*
X128046673Y-63128821D01*
X128137582Y-62946250D01*
X128193397Y-62750083D01*
X128198751Y-62692310D01*
X128212215Y-62547003D01*
X128212215Y-62546996D01*
X128193398Y-62343923D01*
X128193397Y-62343917D01*
X128137583Y-62147755D01*
X128137582Y-62147750D01*
X128046673Y-61965179D01*
X128046670Y-61965175D01*
X128046670Y-61965174D01*
X127923765Y-61802421D01*
X127923764Y-61802420D01*
X127773041Y-61665019D01*
X127730444Y-61638644D01*
X127599637Y-61557652D01*
X127409456Y-61483976D01*
X127321407Y-61467516D01*
X127208979Y-61446500D01*
X127208976Y-61446500D01*
X127005024Y-61446500D01*
X127005020Y-61446500D01*
X126855116Y-61474522D01*
X126804544Y-61483976D01*
X126804542Y-61483976D01*
X126804540Y-61483977D01*
X126614368Y-61557650D01*
X126614363Y-61557652D01*
X126614358Y-61557654D01*
X126614358Y-61557655D01*
X126440958Y-61665019D01*
X126440957Y-61665019D01*
X126290235Y-61802420D01*
X126290234Y-61802421D01*
X126167329Y-61965174D01*
X126167328Y-61965177D01*
X126076418Y-62147750D01*
X126076416Y-62147755D01*
X126020602Y-62343917D01*
X126020601Y-62343923D01*
X126001785Y-62546996D01*
X126001785Y-62547003D01*
X112972215Y-62547003D01*
X112972215Y-62546996D01*
X112953398Y-62343923D01*
X112953397Y-62343917D01*
X112897583Y-62147755D01*
X112897582Y-62147750D01*
X112806673Y-61965179D01*
X112806670Y-61965175D01*
X112806670Y-61965174D01*
X112683765Y-61802421D01*
X112683764Y-61802420D01*
X112533041Y-61665019D01*
X112490444Y-61638644D01*
X112359637Y-61557652D01*
X112169456Y-61483976D01*
X112081407Y-61467516D01*
X111968979Y-61446500D01*
X111968976Y-61446500D01*
X111765024Y-61446500D01*
X111765020Y-61446500D01*
X111615116Y-61474522D01*
X111564544Y-61483976D01*
X111564542Y-61483976D01*
X111564540Y-61483977D01*
X111374368Y-61557650D01*
X111374363Y-61557652D01*
X111374358Y-61557654D01*
X111374358Y-61557655D01*
X111200958Y-61665019D01*
X111200957Y-61665019D01*
X111050235Y-61802420D01*
X111050234Y-61802421D01*
X110927329Y-61965174D01*
X110927328Y-61965177D01*
X110836418Y-62147750D01*
X110836416Y-62147755D01*
X110780602Y-62343917D01*
X110780601Y-62343923D01*
X110761785Y-62546996D01*
X110761785Y-62547003D01*
X107653251Y-62547003D01*
X105113251Y-60007003D01*
X110761785Y-60007003D01*
X110780601Y-60210076D01*
X110780602Y-60210082D01*
X110836416Y-60406244D01*
X110836418Y-60406250D01*
X110927327Y-60588821D01*
X110927328Y-60588822D01*
X110927329Y-60588825D01*
X111050234Y-60751578D01*
X111050235Y-60751579D01*
X111143188Y-60836316D01*
X111200959Y-60888981D01*
X111374363Y-60996348D01*
X111564544Y-61070024D01*
X111765024Y-61107500D01*
X111765026Y-61107500D01*
X111968974Y-61107500D01*
X111968976Y-61107500D01*
X112169456Y-61070024D01*
X112359637Y-60996348D01*
X112533041Y-60888981D01*
X112683764Y-60751579D01*
X112708815Y-60718407D01*
X112806670Y-60588825D01*
X112806670Y-60588824D01*
X112806673Y-60588821D01*
X112897582Y-60406250D01*
X112953397Y-60210083D01*
X112953763Y-60206141D01*
X112972215Y-60007003D01*
X126001785Y-60007003D01*
X126020601Y-60210076D01*
X126020602Y-60210082D01*
X126076416Y-60406244D01*
X126076418Y-60406250D01*
X126167327Y-60588821D01*
X126167328Y-60588822D01*
X126167329Y-60588825D01*
X126290234Y-60751578D01*
X126290235Y-60751579D01*
X126383188Y-60836316D01*
X126440959Y-60888981D01*
X126614363Y-60996348D01*
X126804544Y-61070024D01*
X127005024Y-61107500D01*
X127005026Y-61107500D01*
X127208974Y-61107500D01*
X127208976Y-61107500D01*
X127409456Y-61070024D01*
X127599637Y-60996348D01*
X127773041Y-60888981D01*
X127923764Y-60751579D01*
X127948815Y-60718407D01*
X128046670Y-60588825D01*
X128046670Y-60588824D01*
X128046673Y-60588821D01*
X128137582Y-60406250D01*
X128193397Y-60210083D01*
X128193763Y-60206141D01*
X128212215Y-60007003D01*
X128212215Y-60006996D01*
X128193398Y-59803923D01*
X128193397Y-59803917D01*
X128151540Y-59656808D01*
X128137582Y-59607750D01*
X128046673Y-59425179D01*
X128046670Y-59425175D01*
X128046670Y-59425174D01*
X127923765Y-59262421D01*
X127923764Y-59262420D01*
X127773041Y-59125019D01*
X127711136Y-59086689D01*
X127599637Y-59017652D01*
X127446937Y-58958496D01*
X127409459Y-58943977D01*
X127409458Y-58943976D01*
X127409456Y-58943976D01*
X127321407Y-58927516D01*
X127208979Y-58906500D01*
X127208976Y-58906500D01*
X127005024Y-58906500D01*
X127005020Y-58906500D01*
X126855116Y-58934522D01*
X126804544Y-58943976D01*
X126804542Y-58943976D01*
X126804540Y-58943977D01*
X126614368Y-59017650D01*
X126614363Y-59017652D01*
X126614358Y-59017654D01*
X126614358Y-59017655D01*
X126440958Y-59125019D01*
X126440957Y-59125019D01*
X126290235Y-59262420D01*
X126290234Y-59262421D01*
X126167329Y-59425174D01*
X126167328Y-59425177D01*
X126076418Y-59607750D01*
X126076416Y-59607755D01*
X126020602Y-59803917D01*
X126020601Y-59803923D01*
X126001785Y-60006996D01*
X126001785Y-60007003D01*
X112972215Y-60007003D01*
X112972215Y-60006996D01*
X112953398Y-59803923D01*
X112953397Y-59803917D01*
X112911540Y-59656808D01*
X112897582Y-59607750D01*
X112806673Y-59425179D01*
X112806670Y-59425175D01*
X112806670Y-59425174D01*
X112683765Y-59262421D01*
X112683764Y-59262420D01*
X112533041Y-59125019D01*
X112471136Y-59086689D01*
X112359637Y-59017652D01*
X112206937Y-58958496D01*
X112169459Y-58943977D01*
X112169458Y-58943976D01*
X112169456Y-58943976D01*
X112081407Y-58927516D01*
X111968979Y-58906500D01*
X111968976Y-58906500D01*
X111765024Y-58906500D01*
X111765020Y-58906500D01*
X111615116Y-58934522D01*
X111564544Y-58943976D01*
X111564542Y-58943976D01*
X111564540Y-58943977D01*
X111374368Y-59017650D01*
X111374363Y-59017652D01*
X111374358Y-59017654D01*
X111374358Y-59017655D01*
X111200958Y-59125019D01*
X111200957Y-59125019D01*
X111050235Y-59262420D01*
X111050234Y-59262421D01*
X110927329Y-59425174D01*
X110927328Y-59425177D01*
X110836418Y-59607750D01*
X110836416Y-59607755D01*
X110780602Y-59803917D01*
X110780601Y-59803923D01*
X110761785Y-60006996D01*
X110761785Y-60007003D01*
X105113251Y-60007003D01*
X103566049Y-58459801D01*
X103544657Y-58413925D01*
X103557758Y-58365030D01*
X103570760Y-58351557D01*
X103570513Y-58351286D01*
X103723764Y-58211579D01*
X103723765Y-58211578D01*
X103846670Y-58048825D01*
X103846670Y-58048824D01*
X103846673Y-58048821D01*
X103937582Y-57866250D01*
X103993397Y-57670083D01*
X103998751Y-57612310D01*
X104012215Y-57467003D01*
X110761785Y-57467003D01*
X110780601Y-57670076D01*
X110780602Y-57670082D01*
X110826110Y-57830022D01*
X110836418Y-57866250D01*
X110927327Y-58048821D01*
X110927328Y-58048822D01*
X110927329Y-58048825D01*
X111050234Y-58211578D01*
X111050235Y-58211579D01*
X111084240Y-58242578D01*
X111200959Y-58348981D01*
X111374363Y-58456348D01*
X111564544Y-58530024D01*
X111765024Y-58567500D01*
X111765026Y-58567500D01*
X111968974Y-58567500D01*
X111968976Y-58567500D01*
X112169456Y-58530024D01*
X112359637Y-58456348D01*
X112533041Y-58348981D01*
X112683764Y-58211579D01*
X112692662Y-58199797D01*
X112806670Y-58048825D01*
X112806670Y-58048824D01*
X112806673Y-58048821D01*
X112897582Y-57866250D01*
X112953397Y-57670083D01*
X112958751Y-57612310D01*
X112972215Y-57467003D01*
X126001785Y-57467003D01*
X126020601Y-57670076D01*
X126020602Y-57670082D01*
X126066110Y-57830022D01*
X126076418Y-57866250D01*
X126167327Y-58048821D01*
X126167328Y-58048822D01*
X126167329Y-58048825D01*
X126290234Y-58211578D01*
X126290235Y-58211579D01*
X126324240Y-58242578D01*
X126440959Y-58348981D01*
X126614363Y-58456348D01*
X126804544Y-58530024D01*
X127005024Y-58567500D01*
X127005026Y-58567500D01*
X127208974Y-58567500D01*
X127208976Y-58567500D01*
X127409456Y-58530024D01*
X127599637Y-58456348D01*
X127773041Y-58348981D01*
X127923764Y-58211579D01*
X127932662Y-58199797D01*
X128046670Y-58048825D01*
X128046670Y-58048824D01*
X128046673Y-58048821D01*
X128137582Y-57866250D01*
X128193397Y-57670083D01*
X128198751Y-57612310D01*
X128212215Y-57467003D01*
X128212215Y-57466996D01*
X128193398Y-57263923D01*
X128193397Y-57263917D01*
X128147865Y-57103891D01*
X128137582Y-57067750D01*
X128046673Y-56885179D01*
X128046670Y-56885175D01*
X128046670Y-56885174D01*
X127923765Y-56722421D01*
X127923764Y-56722420D01*
X127773041Y-56585019D01*
X127599637Y-56477652D01*
X127409456Y-56403976D01*
X127321407Y-56387516D01*
X127208979Y-56366500D01*
X127208976Y-56366500D01*
X127005024Y-56366500D01*
X127005020Y-56366500D01*
X126855116Y-56394522D01*
X126804544Y-56403976D01*
X126804542Y-56403976D01*
X126804540Y-56403977D01*
X126614368Y-56477650D01*
X126614363Y-56477652D01*
X126614358Y-56477654D01*
X126614358Y-56477655D01*
X126440958Y-56585019D01*
X126440957Y-56585019D01*
X126290235Y-56722420D01*
X126290234Y-56722421D01*
X126167329Y-56885174D01*
X126167328Y-56885177D01*
X126076418Y-57067750D01*
X126076416Y-57067755D01*
X126020602Y-57263917D01*
X126020601Y-57263923D01*
X126001785Y-57466996D01*
X126001785Y-57467003D01*
X112972215Y-57467003D01*
X112972215Y-57466996D01*
X112953398Y-57263923D01*
X112953397Y-57263917D01*
X112907865Y-57103891D01*
X112897582Y-57067750D01*
X112806673Y-56885179D01*
X112806670Y-56885175D01*
X112806670Y-56885174D01*
X112683765Y-56722421D01*
X112683764Y-56722420D01*
X112533041Y-56585019D01*
X112359637Y-56477652D01*
X112169456Y-56403976D01*
X112081407Y-56387516D01*
X111968979Y-56366500D01*
X111968976Y-56366500D01*
X111765024Y-56366500D01*
X111765020Y-56366500D01*
X111615116Y-56394522D01*
X111564544Y-56403976D01*
X111564542Y-56403976D01*
X111564540Y-56403977D01*
X111374368Y-56477650D01*
X111374363Y-56477652D01*
X111374358Y-56477654D01*
X111374358Y-56477655D01*
X111200958Y-56585019D01*
X111200957Y-56585019D01*
X111050235Y-56722420D01*
X111050234Y-56722421D01*
X110927329Y-56885174D01*
X110927328Y-56885177D01*
X110836418Y-57067750D01*
X110836416Y-57067755D01*
X110780602Y-57263917D01*
X110780601Y-57263923D01*
X110761785Y-57466996D01*
X110761785Y-57467003D01*
X104012215Y-57467003D01*
X104012215Y-57466996D01*
X103993398Y-57263923D01*
X103993397Y-57263917D01*
X103947865Y-57103891D01*
X103937582Y-57067750D01*
X103846673Y-56885179D01*
X103846670Y-56885175D01*
X103846670Y-56885174D01*
X103723765Y-56722421D01*
X103723764Y-56722420D01*
X103573041Y-56585019D01*
X103399637Y-56477652D01*
X103209456Y-56403976D01*
X103121407Y-56387516D01*
X103008979Y-56366500D01*
X103008976Y-56366500D01*
X102805024Y-56366500D01*
X102805020Y-56366500D01*
X102655116Y-56394522D01*
X102604544Y-56403976D01*
X102604542Y-56403976D01*
X102604540Y-56403977D01*
X102414368Y-56477650D01*
X102414363Y-56477652D01*
X102414358Y-56477654D01*
X102414358Y-56477655D01*
X102240958Y-56585019D01*
X102240957Y-56585019D01*
X102090235Y-56722420D01*
X102090234Y-56722421D01*
X101967329Y-56885174D01*
X101967328Y-56885177D01*
X101876418Y-57067750D01*
X101876416Y-57067755D01*
X101820602Y-57263917D01*
X101820601Y-57263923D01*
X101801785Y-57466996D01*
X101801785Y-57467003D01*
X101820601Y-57670076D01*
X101820602Y-57670082D01*
X101866110Y-57830022D01*
X101876418Y-57866250D01*
X101967327Y-58048821D01*
X101967328Y-58048822D01*
X101967329Y-58048824D01*
X101998328Y-58089873D01*
X102013178Y-58138265D01*
X101993447Y-58184880D01*
X101948369Y-58207907D01*
X101905514Y-58198059D01*
X101904603Y-58199797D01*
X101760766Y-58124304D01*
X101607387Y-58086500D01*
X101607385Y-58086500D01*
X101449415Y-58086500D01*
X101449412Y-58086500D01*
X101296033Y-58124304D01*
X101156161Y-58197716D01*
X101037916Y-58302470D01*
X100948179Y-58432478D01*
X100948178Y-58432478D01*
X100892164Y-58580177D01*
X100892161Y-58580191D01*
X100873122Y-58736996D01*
X100873122Y-58737003D01*
X90552300Y-58737003D01*
X90552300Y-58184606D01*
X90543621Y-58157898D01*
X90540910Y-58146603D01*
X90536519Y-58118874D01*
X90536518Y-58118873D01*
X90523770Y-58093853D01*
X90519326Y-58083123D01*
X90510650Y-58056422D01*
X90510648Y-58056417D01*
X90494142Y-58033699D01*
X90488076Y-58023802D01*
X90475328Y-57998780D01*
X90380020Y-57903472D01*
X88422294Y-55945746D01*
X88398320Y-55921772D01*
X88373296Y-55909022D01*
X88363368Y-55902934D01*
X88362576Y-55902358D01*
X88334291Y-55860380D01*
X88339606Y-55810041D01*
X88356248Y-55787825D01*
X88483764Y-55671579D01*
X88483765Y-55671578D01*
X88606670Y-55508825D01*
X88606670Y-55508824D01*
X88606673Y-55508821D01*
X88697582Y-55326250D01*
X88753397Y-55130083D01*
X88753487Y-55129118D01*
X88772215Y-54927003D01*
X88772215Y-54926996D01*
X88753398Y-54723923D01*
X88753397Y-54723917D01*
X88734989Y-54659220D01*
X88697582Y-54527750D01*
X88606673Y-54345179D01*
X88589466Y-54322394D01*
X88574619Y-54274002D01*
X88594349Y-54227387D01*
X88639428Y-54204361D01*
X88648521Y-54203800D01*
X100424500Y-54203800D01*
X100472066Y-54221113D01*
X100476826Y-54225474D01*
X101427351Y-55175998D01*
X101427354Y-55176002D01*
X101431572Y-55180220D01*
X101526880Y-55275528D01*
X101530532Y-55277389D01*
X101551900Y-55288276D01*
X101561798Y-55294341D01*
X101584519Y-55310849D01*
X101584520Y-55310849D01*
X101584521Y-55310850D01*
X101611223Y-55319526D01*
X101621953Y-55323970D01*
X101626426Y-55326249D01*
X101646974Y-55336719D01*
X101674703Y-55341110D01*
X101685998Y-55343821D01*
X101712707Y-55352500D01*
X101746612Y-55352500D01*
X101843670Y-55352500D01*
X101891236Y-55369813D01*
X101909911Y-55393514D01*
X101967327Y-55508821D01*
X101967328Y-55508822D01*
X101967329Y-55508825D01*
X102090234Y-55671578D01*
X102090235Y-55671579D01*
X102211419Y-55782052D01*
X102240959Y-55808981D01*
X102414363Y-55916348D01*
X102604544Y-55990024D01*
X102805024Y-56027500D01*
X102805026Y-56027500D01*
X103008974Y-56027500D01*
X103008976Y-56027500D01*
X103209456Y-55990024D01*
X103399637Y-55916348D01*
X103573041Y-55808981D01*
X103723764Y-55671579D01*
X103748815Y-55638407D01*
X103846670Y-55508825D01*
X103846670Y-55508824D01*
X103846673Y-55508821D01*
X103937582Y-55326250D01*
X103993397Y-55130083D01*
X103993487Y-55129118D01*
X104012215Y-54927003D01*
X110761785Y-54927003D01*
X110780601Y-55130076D01*
X110780602Y-55130082D01*
X110835769Y-55323970D01*
X110836418Y-55326250D01*
X110927327Y-55508821D01*
X110927328Y-55508822D01*
X110927329Y-55508825D01*
X111050234Y-55671578D01*
X111050235Y-55671579D01*
X111171419Y-55782052D01*
X111200959Y-55808981D01*
X111374363Y-55916348D01*
X111564544Y-55990024D01*
X111765024Y-56027500D01*
X111765026Y-56027500D01*
X111968974Y-56027500D01*
X111968976Y-56027500D01*
X112169456Y-55990024D01*
X112359637Y-55916348D01*
X112533041Y-55808981D01*
X112683764Y-55671579D01*
X112708815Y-55638407D01*
X112806670Y-55508825D01*
X112806670Y-55508824D01*
X112806673Y-55508821D01*
X112897582Y-55326250D01*
X112953397Y-55130083D01*
X112953487Y-55129118D01*
X112972215Y-54927003D01*
X126001785Y-54927003D01*
X126020601Y-55130076D01*
X126020602Y-55130082D01*
X126075769Y-55323970D01*
X126076418Y-55326250D01*
X126167327Y-55508821D01*
X126167328Y-55508822D01*
X126167329Y-55508825D01*
X126290234Y-55671578D01*
X126290235Y-55671579D01*
X126411419Y-55782052D01*
X126440959Y-55808981D01*
X126614363Y-55916348D01*
X126804544Y-55990024D01*
X127005024Y-56027500D01*
X127005026Y-56027500D01*
X127208974Y-56027500D01*
X127208976Y-56027500D01*
X127409456Y-55990024D01*
X127599637Y-55916348D01*
X127773041Y-55808981D01*
X127923764Y-55671579D01*
X127948815Y-55638407D01*
X128046670Y-55508825D01*
X128046670Y-55508824D01*
X128046673Y-55508821D01*
X128137582Y-55326250D01*
X128193397Y-55130083D01*
X128193487Y-55129118D01*
X128212215Y-54927003D01*
X128212215Y-54926996D01*
X128193398Y-54723923D01*
X128193397Y-54723917D01*
X128174989Y-54659220D01*
X128137582Y-54527750D01*
X128046673Y-54345179D01*
X128046670Y-54345175D01*
X128046670Y-54345174D01*
X127923765Y-54182421D01*
X127923764Y-54182420D01*
X127773041Y-54045019D01*
X127599637Y-53937652D01*
X127409456Y-53863976D01*
X127321407Y-53847516D01*
X127208979Y-53826500D01*
X127208976Y-53826500D01*
X127005024Y-53826500D01*
X127005020Y-53826500D01*
X126889334Y-53848126D01*
X126804544Y-53863976D01*
X126804542Y-53863976D01*
X126804540Y-53863977D01*
X126639381Y-53927960D01*
X126614363Y-53937652D01*
X126614358Y-53937654D01*
X126614358Y-53937655D01*
X126440958Y-54045019D01*
X126440957Y-54045019D01*
X126290235Y-54182420D01*
X126290234Y-54182421D01*
X126167329Y-54345174D01*
X126167328Y-54345177D01*
X126076418Y-54527750D01*
X126076416Y-54527755D01*
X126020602Y-54723917D01*
X126020601Y-54723923D01*
X126001785Y-54926996D01*
X126001785Y-54927003D01*
X112972215Y-54927003D01*
X112972215Y-54926996D01*
X112953398Y-54723923D01*
X112953397Y-54723917D01*
X112934989Y-54659220D01*
X112897582Y-54527750D01*
X112806673Y-54345179D01*
X112806670Y-54345175D01*
X112806670Y-54345174D01*
X112683765Y-54182421D01*
X112683764Y-54182420D01*
X112533041Y-54045019D01*
X112359637Y-53937652D01*
X112169456Y-53863976D01*
X112081407Y-53847516D01*
X111968979Y-53826500D01*
X111968976Y-53826500D01*
X111765024Y-53826500D01*
X111765020Y-53826500D01*
X111649334Y-53848126D01*
X111564544Y-53863976D01*
X111564542Y-53863976D01*
X111564540Y-53863977D01*
X111399381Y-53927960D01*
X111374363Y-53937652D01*
X111374358Y-53937654D01*
X111374358Y-53937655D01*
X111200958Y-54045019D01*
X111200957Y-54045019D01*
X111050235Y-54182420D01*
X111050234Y-54182421D01*
X110927329Y-54345174D01*
X110927328Y-54345177D01*
X110836418Y-54527750D01*
X110836416Y-54527755D01*
X110780602Y-54723917D01*
X110780601Y-54723923D01*
X110761785Y-54926996D01*
X110761785Y-54927003D01*
X104012215Y-54927003D01*
X104012215Y-54926996D01*
X103993398Y-54723923D01*
X103993397Y-54723917D01*
X103974989Y-54659220D01*
X103937582Y-54527750D01*
X103846673Y-54345179D01*
X103846670Y-54345175D01*
X103846670Y-54345174D01*
X103723765Y-54182421D01*
X103723764Y-54182420D01*
X103573041Y-54045019D01*
X103399637Y-53937652D01*
X103209456Y-53863976D01*
X103121407Y-53847516D01*
X103008979Y-53826500D01*
X103008976Y-53826500D01*
X102805024Y-53826500D01*
X102805020Y-53826500D01*
X102689334Y-53848126D01*
X102604544Y-53863976D01*
X102604542Y-53863976D01*
X102604540Y-53863977D01*
X102439381Y-53927960D01*
X102414363Y-53937652D01*
X102414358Y-53937654D01*
X102414358Y-53937655D01*
X102240958Y-54045019D01*
X102240957Y-54045019D01*
X102090235Y-54182420D01*
X102090234Y-54182421D01*
X101967329Y-54345174D01*
X101967327Y-54345179D01*
X101957555Y-54364802D01*
X101920853Y-54399664D01*
X101870330Y-54402778D01*
X101838988Y-54384141D01*
X101401620Y-53946773D01*
X100908594Y-53453746D01*
X100884620Y-53429772D01*
X100859596Y-53417022D01*
X100849697Y-53410955D01*
X100826982Y-53394451D01*
X100812539Y-53389758D01*
X100800271Y-53385772D01*
X100789551Y-53381332D01*
X100764526Y-53368581D01*
X100764525Y-53368580D01*
X100764524Y-53368580D01*
X100736789Y-53364188D01*
X100725497Y-53361477D01*
X100698794Y-53352800D01*
X100698793Y-53352800D01*
X100664888Y-53352800D01*
X88835341Y-53352800D01*
X88787775Y-53335487D01*
X88762465Y-53291650D01*
X88763939Y-53259365D01*
X88764582Y-53256995D01*
X88764585Y-53256991D01*
X88767500Y-53231865D01*
X88767500Y-52387003D01*
X101801785Y-52387003D01*
X101820601Y-52590076D01*
X101820602Y-52590082D01*
X101876416Y-52786244D01*
X101876418Y-52786250D01*
X101967327Y-52968821D01*
X101967328Y-52968822D01*
X101967329Y-52968825D01*
X102090234Y-53131578D01*
X102090235Y-53131579D01*
X102219016Y-53248977D01*
X102240959Y-53268981D01*
X102414363Y-53376348D01*
X102604544Y-53450024D01*
X102805024Y-53487500D01*
X102805026Y-53487500D01*
X103008974Y-53487500D01*
X103008976Y-53487500D01*
X103209456Y-53450024D01*
X103399637Y-53376348D01*
X103573041Y-53268981D01*
X103613758Y-53231863D01*
X110766500Y-53231863D01*
X110769414Y-53256986D01*
X110769415Y-53256992D01*
X110774709Y-53268981D01*
X110814794Y-53359765D01*
X110894235Y-53439206D01*
X110997009Y-53484585D01*
X111022135Y-53487500D01*
X112711864Y-53487499D01*
X112736991Y-53484585D01*
X112839765Y-53439206D01*
X112919206Y-53359765D01*
X112964585Y-53256991D01*
X112967500Y-53231865D01*
X112967500Y-52387003D01*
X126001785Y-52387003D01*
X126020601Y-52590076D01*
X126020602Y-52590082D01*
X126076416Y-52786244D01*
X126076418Y-52786250D01*
X126167327Y-52968821D01*
X126167328Y-52968822D01*
X126167329Y-52968825D01*
X126290234Y-53131578D01*
X126290235Y-53131579D01*
X126419016Y-53248977D01*
X126440959Y-53268981D01*
X126614363Y-53376348D01*
X126804544Y-53450024D01*
X127005024Y-53487500D01*
X127005026Y-53487500D01*
X127208974Y-53487500D01*
X127208976Y-53487500D01*
X127409456Y-53450024D01*
X127599637Y-53376348D01*
X127773041Y-53268981D01*
X127923764Y-53131579D01*
X127947612Y-53100000D01*
X128046670Y-52968825D01*
X128046670Y-52968824D01*
X128046673Y-52968821D01*
X128137582Y-52786250D01*
X128193397Y-52590083D01*
X128196119Y-52560716D01*
X128212215Y-52387003D01*
X128212215Y-52386996D01*
X128193398Y-52183923D01*
X128193397Y-52183917D01*
X128137583Y-51987755D01*
X128137582Y-51987750D01*
X128046673Y-51805179D01*
X128046670Y-51805175D01*
X128046670Y-51805174D01*
X127923765Y-51642421D01*
X127923764Y-51642420D01*
X127773041Y-51505019D01*
X127644025Y-51425136D01*
X127599637Y-51397652D01*
X127409456Y-51323976D01*
X127321407Y-51307516D01*
X127208979Y-51286500D01*
X127208976Y-51286500D01*
X127005024Y-51286500D01*
X127005020Y-51286500D01*
X126855116Y-51314522D01*
X126804544Y-51323976D01*
X126804542Y-51323976D01*
X126804540Y-51323977D01*
X126614368Y-51397650D01*
X126614363Y-51397652D01*
X126614358Y-51397654D01*
X126614358Y-51397655D01*
X126440958Y-51505019D01*
X126440957Y-51505019D01*
X126290235Y-51642420D01*
X126290234Y-51642421D01*
X126167329Y-51805174D01*
X126167328Y-51805177D01*
X126076418Y-51987750D01*
X126076416Y-51987755D01*
X126020602Y-52183917D01*
X126020601Y-52183923D01*
X126001785Y-52386996D01*
X126001785Y-52387003D01*
X112967500Y-52387003D01*
X112967499Y-51542136D01*
X112964585Y-51517009D01*
X112919206Y-51414235D01*
X112839765Y-51334794D01*
X112736991Y-51289415D01*
X112736990Y-51289414D01*
X112736988Y-51289414D01*
X112715659Y-51286940D01*
X112711865Y-51286500D01*
X112711864Y-51286500D01*
X111022136Y-51286500D01*
X110997013Y-51289414D01*
X110997007Y-51289415D01*
X110894234Y-51334794D01*
X110814794Y-51414234D01*
X110769414Y-51517011D01*
X110766500Y-51542135D01*
X110766500Y-53231863D01*
X103613758Y-53231863D01*
X103723764Y-53131579D01*
X103747612Y-53100000D01*
X103846670Y-52968825D01*
X103846670Y-52968824D01*
X103846673Y-52968821D01*
X103937582Y-52786250D01*
X103993397Y-52590083D01*
X103996119Y-52560716D01*
X104012215Y-52387003D01*
X104012215Y-52386996D01*
X103993398Y-52183923D01*
X103993397Y-52183917D01*
X103937583Y-51987755D01*
X103937582Y-51987750D01*
X103846673Y-51805179D01*
X103846670Y-51805175D01*
X103846670Y-51805174D01*
X103723765Y-51642421D01*
X103723764Y-51642420D01*
X103573041Y-51505019D01*
X103444025Y-51425136D01*
X103399637Y-51397652D01*
X103209456Y-51323976D01*
X103121407Y-51307516D01*
X103008979Y-51286500D01*
X103008976Y-51286500D01*
X102805024Y-51286500D01*
X102805020Y-51286500D01*
X102655116Y-51314522D01*
X102604544Y-51323976D01*
X102604542Y-51323976D01*
X102604540Y-51323977D01*
X102414368Y-51397650D01*
X102414363Y-51397652D01*
X102414358Y-51397654D01*
X102414358Y-51397655D01*
X102240958Y-51505019D01*
X102240957Y-51505019D01*
X102090235Y-51642420D01*
X102090234Y-51642421D01*
X101967329Y-51805174D01*
X101967328Y-51805177D01*
X101876418Y-51987750D01*
X101876416Y-51987755D01*
X101820602Y-52183917D01*
X101820601Y-52183923D01*
X101801785Y-52386996D01*
X101801785Y-52387003D01*
X88767500Y-52387003D01*
X88767499Y-51542136D01*
X88764585Y-51517009D01*
X88719206Y-51414235D01*
X88639765Y-51334794D01*
X88536991Y-51289415D01*
X88536990Y-51289414D01*
X88536988Y-51289414D01*
X88515659Y-51286940D01*
X88511865Y-51286500D01*
X88511864Y-51286500D01*
X86822136Y-51286500D01*
X86797013Y-51289414D01*
X86797007Y-51289415D01*
X86694234Y-51334794D01*
X86614794Y-51414234D01*
X86569414Y-51517011D01*
X86566500Y-51542135D01*
X86566500Y-53231863D01*
X86569413Y-53256984D01*
X86570063Y-53259370D01*
X86569906Y-53261236D01*
X86570056Y-53262522D01*
X86569797Y-53262552D01*
X86565847Y-53309813D01*
X86530193Y-53345745D01*
X86498659Y-53352800D01*
X84902893Y-53352800D01*
X84768107Y-53352800D01*
X84753665Y-53357492D01*
X84741401Y-53361477D01*
X84730113Y-53364187D01*
X84702372Y-53368581D01*
X84702370Y-53368581D01*
X84677348Y-53381331D01*
X84666624Y-53385773D01*
X84639920Y-53394450D01*
X84639916Y-53394452D01*
X84617195Y-53410959D01*
X84607299Y-53417023D01*
X84582282Y-53429770D01*
X84582278Y-53429773D01*
X84163926Y-53848126D01*
X84118050Y-53869518D01*
X84111600Y-53869800D01*
X82634961Y-53869800D01*
X82587395Y-53852487D01*
X82562085Y-53808650D01*
X82565770Y-53769560D01*
X82587335Y-53712696D01*
X82588237Y-53710318D01*
X82607278Y-53553500D01*
X82598910Y-53484585D01*
X82590386Y-53414378D01*
X82588237Y-53396682D01*
X82539807Y-53268981D01*
X82532221Y-53248978D01*
X82442483Y-53118970D01*
X82421070Y-53100000D01*
X82324240Y-53014217D01*
X82237754Y-52968825D01*
X82184366Y-52940804D01*
X82030987Y-52903000D01*
X82030985Y-52903000D01*
X81873015Y-52903000D01*
X81873012Y-52903000D01*
X81719633Y-52940804D01*
X81579761Y-53014216D01*
X81461516Y-53118970D01*
X81371779Y-53248978D01*
X81371778Y-53248978D01*
X81315764Y-53396677D01*
X81315761Y-53396691D01*
X81296722Y-53553496D01*
X81296722Y-53553503D01*
X81315761Y-53710308D01*
X81315764Y-53710322D01*
X81338230Y-53769560D01*
X81338910Y-53820174D01*
X81306895Y-53859384D01*
X81269039Y-53869800D01*
X74146106Y-53869800D01*
X74119396Y-53878478D01*
X74108108Y-53881188D01*
X74080372Y-53885581D01*
X74055352Y-53898329D01*
X74044625Y-53902772D01*
X74017924Y-53911447D01*
X74017920Y-53911449D01*
X73995193Y-53927960D01*
X73985299Y-53934022D01*
X73960282Y-53946770D01*
X73960278Y-53946773D01*
X64448072Y-63458979D01*
X64435324Y-63483999D01*
X64429259Y-63493896D01*
X64412753Y-63516615D01*
X64412750Y-63516621D01*
X64404073Y-63543324D01*
X64399631Y-63554048D01*
X64386881Y-63579070D01*
X64386881Y-63579072D01*
X64382487Y-63606813D01*
X64379777Y-63618101D01*
X64372536Y-63640386D01*
X64371100Y-63644807D01*
X64371100Y-63678712D01*
X64371100Y-65307507D01*
X64371100Y-65442293D01*
X64377382Y-65461628D01*
X64379777Y-65468997D01*
X64382488Y-65480289D01*
X64386880Y-65508024D01*
X64386880Y-65508025D01*
X64386881Y-65508026D01*
X64393389Y-65520799D01*
X64399630Y-65533046D01*
X64404074Y-65543775D01*
X64412751Y-65570482D01*
X64429255Y-65593197D01*
X64435323Y-65603098D01*
X64448072Y-65628120D01*
X66032213Y-67212261D01*
X66053605Y-67258137D01*
X66040504Y-67307032D01*
X65999040Y-67336066D01*
X65997598Y-67336436D01*
X65983934Y-67339804D01*
X65983932Y-67339804D01*
X65844061Y-67413216D01*
X65725816Y-67517970D01*
X65636079Y-67647978D01*
X65636078Y-67647978D01*
X65580064Y-67795677D01*
X65580061Y-67795691D01*
X65561022Y-67952496D01*
X65561022Y-67952503D01*
X65580061Y-68109308D01*
X65580064Y-68109322D01*
X65636078Y-68257021D01*
X65711244Y-68365918D01*
X65725817Y-68387030D01*
X65844060Y-68491783D01*
X65983935Y-68565196D01*
X66137315Y-68603000D01*
X66137319Y-68603000D01*
X66295281Y-68603000D01*
X66295285Y-68603000D01*
X66448665Y-68565196D01*
X66588540Y-68491783D01*
X66706783Y-68387030D01*
X66796520Y-68257023D01*
X66799431Y-68249349D01*
X66833050Y-68160701D01*
X66866104Y-68122364D01*
X66916068Y-68114244D01*
X66954567Y-68134615D01*
X67260838Y-68440886D01*
X67282230Y-68486762D01*
X67269129Y-68535657D01*
X67242902Y-68558735D01*
X67172061Y-68595915D01*
X67053816Y-68700670D01*
X66964079Y-68830678D01*
X66964078Y-68830678D01*
X66908064Y-68978377D01*
X66908061Y-68978391D01*
X66889022Y-69135196D01*
X66889022Y-69135198D01*
X66890475Y-69147168D01*
X66879020Y-69196474D01*
X66869340Y-69208411D01*
X66647080Y-69430672D01*
X66551772Y-69525979D01*
X66539024Y-69550999D01*
X66532959Y-69560896D01*
X66516453Y-69583615D01*
X66516450Y-69583621D01*
X66507773Y-69610324D01*
X66503331Y-69621048D01*
X66490581Y-69646070D01*
X66490581Y-69646072D01*
X66486187Y-69673813D01*
X66483477Y-69685101D01*
X66474800Y-69711807D01*
X66474800Y-78850099D01*
X66457487Y-78897665D01*
X66453126Y-78902425D01*
X66175616Y-79179934D01*
X66129739Y-79201326D01*
X66080845Y-79188225D01*
X66062390Y-79169646D01*
X65990483Y-79065470D01*
X65872240Y-78960717D01*
X65841357Y-78944508D01*
X65732366Y-78887304D01*
X65578987Y-78849500D01*
X65578985Y-78849500D01*
X65421015Y-78849500D01*
X65421012Y-78849500D01*
X65267633Y-78887304D01*
X65127761Y-78960716D01*
X65009516Y-79065470D01*
X64919779Y-79195478D01*
X64919778Y-79195478D01*
X64863764Y-79343177D01*
X64863761Y-79343191D01*
X64844722Y-79499996D01*
X64844722Y-79500003D01*
X64863761Y-79656808D01*
X64863764Y-79656822D01*
X64919778Y-79804521D01*
X65009516Y-79934529D01*
X65127761Y-80039284D01*
X65162335Y-80057430D01*
X65196407Y-80094865D01*
X65198445Y-80145443D01*
X65180271Y-80175279D01*
X64536180Y-80819372D01*
X64440872Y-80914679D01*
X64428124Y-80939699D01*
X64422059Y-80949596D01*
X64405553Y-80972315D01*
X64405550Y-80972321D01*
X64396873Y-80999024D01*
X64392431Y-81009748D01*
X64379681Y-81034770D01*
X64379681Y-81034772D01*
X64375287Y-81062513D01*
X64372577Y-81073801D01*
X64363900Y-81100507D01*
X64363900Y-81134412D01*
X64363900Y-85987307D01*
X64363900Y-86122093D01*
X55925466Y-86122093D01*
X55858345Y-80416820D01*
X55825949Y-77663203D01*
X64497122Y-77663203D01*
X64516161Y-77820008D01*
X64516164Y-77820022D01*
X64572178Y-77967721D01*
X64661916Y-78097729D01*
X64661917Y-78097730D01*
X64780160Y-78202483D01*
X64920035Y-78275896D01*
X65073415Y-78313700D01*
X65073419Y-78313700D01*
X65231381Y-78313700D01*
X65231385Y-78313700D01*
X65384765Y-78275896D01*
X65524640Y-78202483D01*
X65642883Y-78097730D01*
X65732620Y-77967723D01*
X65788637Y-77820018D01*
X65807678Y-77663200D01*
X65805546Y-77645645D01*
X65788638Y-77506391D01*
X65788637Y-77506382D01*
X65743646Y-77387750D01*
X65732621Y-77358678D01*
X65642883Y-77228670D01*
X65616367Y-77205179D01*
X65524640Y-77123917D01*
X65468475Y-77094439D01*
X65384766Y-77050504D01*
X65231387Y-77012700D01*
X65231385Y-77012700D01*
X65073415Y-77012700D01*
X65073412Y-77012700D01*
X64920033Y-77050504D01*
X64780161Y-77123916D01*
X64661916Y-77228670D01*
X64572179Y-77358678D01*
X64572178Y-77358678D01*
X64516164Y-77506377D01*
X64516161Y-77506391D01*
X64497122Y-77663196D01*
X64497122Y-77663203D01*
X55825949Y-77663203D01*
X55647323Y-62480003D01*
X57132571Y-62480003D01*
X57152242Y-62692303D01*
X57152243Y-62692309D01*
X57210593Y-62897383D01*
X57210596Y-62897393D01*
X57305632Y-63088252D01*
X57305634Y-63088255D01*
X57434128Y-63258407D01*
X57591698Y-63402052D01*
X57772981Y-63514298D01*
X57971802Y-63591321D01*
X58181390Y-63630500D01*
X58394610Y-63630500D01*
X58604198Y-63591321D01*
X58803019Y-63514298D01*
X58984302Y-63402052D01*
X59141872Y-63258407D01*
X59270366Y-63088255D01*
X59365405Y-62897389D01*
X59423756Y-62692310D01*
X59424462Y-62684700D01*
X59443429Y-62480003D01*
X59443429Y-62479996D01*
X59423757Y-62267696D01*
X59423756Y-62267690D01*
X59401942Y-62191022D01*
X59365405Y-62062611D01*
X59351258Y-62034200D01*
X59270367Y-61871747D01*
X59270363Y-61871741D01*
X59218014Y-61802421D01*
X59141872Y-61701593D01*
X58984302Y-61557948D01*
X58803019Y-61445702D01*
X58604198Y-61368679D01*
X58512150Y-61351472D01*
X58394613Y-61329500D01*
X58394610Y-61329500D01*
X58181390Y-61329500D01*
X58181386Y-61329500D01*
X58024670Y-61358796D01*
X57971802Y-61368679D01*
X57971800Y-61368679D01*
X57971798Y-61368680D01*
X57811964Y-61430600D01*
X57772981Y-61445702D01*
X57772976Y-61445704D01*
X57772976Y-61445705D01*
X57591700Y-61557946D01*
X57434130Y-61701590D01*
X57305636Y-61871741D01*
X57305632Y-61871747D01*
X57210596Y-62062606D01*
X57210593Y-62062616D01*
X57152243Y-62267690D01*
X57152242Y-62267696D01*
X57132571Y-62479996D01*
X57132571Y-62480003D01*
X55647323Y-62480003D01*
X55617440Y-59940003D01*
X57132571Y-59940003D01*
X57152242Y-60152303D01*
X57152243Y-60152309D01*
X57210593Y-60357383D01*
X57210596Y-60357393D01*
X57305632Y-60548252D01*
X57305634Y-60548255D01*
X57434128Y-60718407D01*
X57591698Y-60862052D01*
X57772981Y-60974298D01*
X57971802Y-61051321D01*
X58181390Y-61090500D01*
X58394610Y-61090500D01*
X58604198Y-61051321D01*
X58803019Y-60974298D01*
X58984302Y-60862052D01*
X59141872Y-60718407D01*
X59270366Y-60548255D01*
X59365405Y-60357389D01*
X59423756Y-60152310D01*
X59425861Y-60129600D01*
X59443429Y-59940003D01*
X59443429Y-59939996D01*
X59423757Y-59727696D01*
X59423756Y-59727690D01*
X59389631Y-59607755D01*
X59365405Y-59522611D01*
X59354147Y-59500003D01*
X64844722Y-59500003D01*
X64863761Y-59656808D01*
X64863764Y-59656822D01*
X64919778Y-59804521D01*
X65009516Y-59934529D01*
X65009517Y-59934530D01*
X65127760Y-60039283D01*
X65267635Y-60112696D01*
X65421015Y-60150500D01*
X65421019Y-60150500D01*
X65578981Y-60150500D01*
X65578985Y-60150500D01*
X65732365Y-60112696D01*
X65872240Y-60039283D01*
X65990483Y-59934530D01*
X66080220Y-59804523D01*
X66136237Y-59656818D01*
X66146633Y-59571196D01*
X66155278Y-59500003D01*
X66155278Y-59499996D01*
X66136238Y-59343191D01*
X66136237Y-59343182D01*
X66123944Y-59310767D01*
X66080221Y-59195478D01*
X65990483Y-59065470D01*
X65936507Y-59017652D01*
X65872240Y-58960717D01*
X65840343Y-58943976D01*
X65732366Y-58887304D01*
X65578987Y-58849500D01*
X65578985Y-58849500D01*
X65421015Y-58849500D01*
X65421012Y-58849500D01*
X65267633Y-58887304D01*
X65127761Y-58960716D01*
X65009516Y-59065470D01*
X64919779Y-59195478D01*
X64919778Y-59195478D01*
X64863764Y-59343177D01*
X64863761Y-59343191D01*
X64844722Y-59499996D01*
X64844722Y-59500003D01*
X59354147Y-59500003D01*
X59354146Y-59500000D01*
X59270367Y-59331747D01*
X59270363Y-59331741D01*
X59230171Y-59278519D01*
X59141872Y-59161593D01*
X58984302Y-59017948D01*
X58803019Y-58905702D01*
X58657944Y-58849500D01*
X58604201Y-58828680D01*
X58604200Y-58828679D01*
X58604198Y-58828679D01*
X58512150Y-58811472D01*
X58394613Y-58789500D01*
X58394610Y-58789500D01*
X58181390Y-58789500D01*
X58181386Y-58789500D01*
X58024670Y-58818796D01*
X57971802Y-58828679D01*
X57971800Y-58828679D01*
X57971798Y-58828680D01*
X57820472Y-58887304D01*
X57772981Y-58905702D01*
X57772976Y-58905704D01*
X57772976Y-58905705D01*
X57591700Y-59017946D01*
X57434130Y-59161590D01*
X57305636Y-59331741D01*
X57305632Y-59331747D01*
X57210596Y-59522606D01*
X57210593Y-59522616D01*
X57152243Y-59727690D01*
X57152242Y-59727696D01*
X57132571Y-59939996D01*
X57132571Y-59940003D01*
X55617440Y-59940003D01*
X55587558Y-57400003D01*
X57132571Y-57400003D01*
X57152242Y-57612303D01*
X57152243Y-57612309D01*
X57210593Y-57817383D01*
X57210596Y-57817393D01*
X57305632Y-58008252D01*
X57305636Y-58008258D01*
X57336271Y-58048825D01*
X57434128Y-58178407D01*
X57591698Y-58322052D01*
X57772981Y-58434298D01*
X57971802Y-58511321D01*
X58181390Y-58550500D01*
X58394610Y-58550500D01*
X58604198Y-58511321D01*
X58803019Y-58434298D01*
X58984302Y-58322052D01*
X59141872Y-58178407D01*
X59270366Y-58008255D01*
X59365405Y-57817389D01*
X59423756Y-57612310D01*
X59424190Y-57607635D01*
X59443429Y-57400003D01*
X59443429Y-57399996D01*
X59423757Y-57187696D01*
X59423756Y-57187690D01*
X59389631Y-57067755D01*
X59365405Y-56982611D01*
X59287507Y-56826170D01*
X59270367Y-56791747D01*
X59270363Y-56791741D01*
X59218014Y-56722421D01*
X59141872Y-56621593D01*
X58984302Y-56477948D01*
X58803019Y-56365702D01*
X58604198Y-56288679D01*
X58512150Y-56271472D01*
X58394613Y-56249500D01*
X58394610Y-56249500D01*
X58181390Y-56249500D01*
X58181386Y-56249500D01*
X58024670Y-56278796D01*
X57971802Y-56288679D01*
X57971800Y-56288679D01*
X57971798Y-56288680D01*
X57772986Y-56365700D01*
X57772981Y-56365702D01*
X57772976Y-56365704D01*
X57772976Y-56365705D01*
X57591700Y-56477946D01*
X57434130Y-56621590D01*
X57305636Y-56791741D01*
X57305632Y-56791747D01*
X57210596Y-56982606D01*
X57210593Y-56982616D01*
X57152243Y-57187690D01*
X57152242Y-57187696D01*
X57132571Y-57399996D01*
X57132571Y-57400003D01*
X55587558Y-57400003D01*
X55557676Y-54860003D01*
X57132571Y-54860003D01*
X57152242Y-55072303D01*
X57152243Y-55072309D01*
X57210593Y-55277383D01*
X57210596Y-55277393D01*
X57305632Y-55468252D01*
X57305634Y-55468255D01*
X57434128Y-55638407D01*
X57591698Y-55782052D01*
X57772981Y-55894298D01*
X57971802Y-55971321D01*
X58181390Y-56010500D01*
X58394610Y-56010500D01*
X58604198Y-55971321D01*
X58803019Y-55894298D01*
X58984302Y-55782052D01*
X59141872Y-55638407D01*
X59246391Y-55500003D01*
X69767222Y-55500003D01*
X69786261Y-55656808D01*
X69786264Y-55656822D01*
X69842278Y-55804521D01*
X69932016Y-55934529D01*
X69932017Y-55934530D01*
X70050260Y-56039283D01*
X70190135Y-56112696D01*
X70343515Y-56150500D01*
X70343519Y-56150500D01*
X70501481Y-56150500D01*
X70501485Y-56150500D01*
X70654865Y-56112696D01*
X70794740Y-56039283D01*
X70912983Y-55934530D01*
X71002720Y-55804523D01*
X71058737Y-55656818D01*
X71076372Y-55511583D01*
X71077778Y-55500003D01*
X71077778Y-55499996D01*
X71059868Y-55352500D01*
X71058737Y-55343182D01*
X71033783Y-55277383D01*
X71002721Y-55195478D01*
X70912983Y-55065470D01*
X70844185Y-55004521D01*
X70794740Y-54960717D01*
X70782639Y-54954366D01*
X70654866Y-54887304D01*
X70501487Y-54849500D01*
X70501485Y-54849500D01*
X70343515Y-54849500D01*
X70343512Y-54849500D01*
X70190133Y-54887304D01*
X70050261Y-54960716D01*
X69932016Y-55065470D01*
X69842279Y-55195478D01*
X69842278Y-55195478D01*
X69786264Y-55343177D01*
X69786261Y-55343191D01*
X69767222Y-55499996D01*
X69767222Y-55500003D01*
X59246391Y-55500003D01*
X59270366Y-55468255D01*
X59365405Y-55277389D01*
X59423756Y-55072310D01*
X59430038Y-55004523D01*
X59443429Y-54860003D01*
X59443429Y-54859996D01*
X59428604Y-54700003D01*
X67095922Y-54700003D01*
X67114961Y-54856808D01*
X67114964Y-54856822D01*
X67170978Y-55004521D01*
X67257647Y-55130083D01*
X67260717Y-55134530D01*
X67378960Y-55239283D01*
X67518835Y-55312696D01*
X67672215Y-55350500D01*
X67672219Y-55350500D01*
X67830181Y-55350500D01*
X67830185Y-55350500D01*
X67983565Y-55312696D01*
X68123440Y-55239283D01*
X68241683Y-55134530D01*
X68331420Y-55004523D01*
X68387437Y-54856818D01*
X68401321Y-54742474D01*
X68406478Y-54700003D01*
X68406478Y-54699996D01*
X68387438Y-54543191D01*
X68387437Y-54543182D01*
X68354702Y-54456866D01*
X68331421Y-54395478D01*
X68241683Y-54265470D01*
X68226193Y-54251747D01*
X68123440Y-54160717D01*
X68111339Y-54154366D01*
X67983566Y-54087304D01*
X67830187Y-54049500D01*
X67830185Y-54049500D01*
X67672215Y-54049500D01*
X67672212Y-54049500D01*
X67518833Y-54087304D01*
X67378961Y-54160716D01*
X67260716Y-54265470D01*
X67170979Y-54395478D01*
X67170978Y-54395478D01*
X67114964Y-54543177D01*
X67114961Y-54543191D01*
X67095922Y-54699996D01*
X67095922Y-54700003D01*
X59428604Y-54700003D01*
X59423757Y-54647696D01*
X59423756Y-54647690D01*
X59389631Y-54527755D01*
X59365405Y-54442611D01*
X59344020Y-54399664D01*
X59270367Y-54251747D01*
X59270363Y-54251741D01*
X59266843Y-54247079D01*
X59141872Y-54081593D01*
X58984302Y-53937948D01*
X58977961Y-53934022D01*
X58920315Y-53898329D01*
X58803019Y-53825702D01*
X58604198Y-53748679D01*
X58512150Y-53731472D01*
X58394613Y-53709500D01*
X58394610Y-53709500D01*
X58181390Y-53709500D01*
X58181386Y-53709500D01*
X58024670Y-53738796D01*
X57971802Y-53748679D01*
X57971800Y-53748679D01*
X57971798Y-53748680D01*
X57772986Y-53825700D01*
X57772981Y-53825702D01*
X57772976Y-53825704D01*
X57772976Y-53825705D01*
X57591700Y-53937946D01*
X57434130Y-54081590D01*
X57305636Y-54251741D01*
X57305632Y-54251747D01*
X57210596Y-54442606D01*
X57210593Y-54442616D01*
X57152243Y-54647690D01*
X57152242Y-54647696D01*
X57132571Y-54859996D01*
X57132571Y-54860003D01*
X55557676Y-54860003D01*
X55538321Y-53214863D01*
X57137500Y-53214863D01*
X57140414Y-53239986D01*
X57140415Y-53239992D01*
X57171244Y-53309813D01*
X57185794Y-53342765D01*
X57265235Y-53422206D01*
X57368009Y-53467585D01*
X57393135Y-53470500D01*
X59182864Y-53470499D01*
X59207991Y-53467585D01*
X59310765Y-53422206D01*
X59390206Y-53342765D01*
X59435585Y-53239991D01*
X59438500Y-53214865D01*
X59438500Y-53100003D01*
X67104922Y-53100003D01*
X67123961Y-53256808D01*
X67123964Y-53256822D01*
X67179978Y-53404521D01*
X67269716Y-53534529D01*
X67269717Y-53534530D01*
X67387960Y-53639283D01*
X67527835Y-53712696D01*
X67681215Y-53750500D01*
X67681219Y-53750500D01*
X67839181Y-53750500D01*
X67839185Y-53750500D01*
X67992565Y-53712696D01*
X68132440Y-53639283D01*
X68250683Y-53534530D01*
X68340420Y-53404523D01*
X68344240Y-53394452D01*
X68360036Y-53352800D01*
X68396437Y-53256818D01*
X68415478Y-53100000D01*
X68396437Y-52943182D01*
X68381198Y-52903000D01*
X68340421Y-52795478D01*
X68250683Y-52665470D01*
X68132440Y-52560717D01*
X68120339Y-52554366D01*
X67992566Y-52487304D01*
X67839187Y-52449500D01*
X67839185Y-52449500D01*
X67681215Y-52449500D01*
X67681212Y-52449500D01*
X67527833Y-52487304D01*
X67387961Y-52560716D01*
X67269716Y-52665470D01*
X67179979Y-52795478D01*
X67179978Y-52795478D01*
X67123964Y-52943177D01*
X67123961Y-52943191D01*
X67104922Y-53099996D01*
X67104922Y-53100003D01*
X59438500Y-53100003D01*
X59438499Y-51425136D01*
X59435585Y-51400009D01*
X59390206Y-51297235D01*
X59310765Y-51217794D01*
X59207991Y-51172415D01*
X59207990Y-51172414D01*
X59207988Y-51172414D01*
X59186659Y-51169940D01*
X59182865Y-51169500D01*
X59182864Y-51169500D01*
X57393136Y-51169500D01*
X57368013Y-51172414D01*
X57368007Y-51172415D01*
X57265234Y-51217794D01*
X57185794Y-51297234D01*
X57140414Y-51400011D01*
X57137500Y-51425135D01*
X57137500Y-53214863D01*
X55538321Y-53214863D01*
X55501392Y-50075885D01*
X55518144Y-50028121D01*
X55561681Y-50002297D01*
X55575890Y-50001019D01*
X128426008Y-50499992D01*
G37*
G04 #@! TD.AperFunction*
G04 #@! TA.AperFunction,NonConductor*
G36*
X86733045Y-54221113D02*
G01*
X86758355Y-54264950D01*
X86749565Y-54314800D01*
X86744533Y-54322395D01*
X86727326Y-54345180D01*
X86636418Y-54527750D01*
X86636416Y-54527755D01*
X86580602Y-54723917D01*
X86580601Y-54723923D01*
X86561785Y-54926996D01*
X86561785Y-54927003D01*
X86580601Y-55130076D01*
X86580602Y-55130082D01*
X86635769Y-55323970D01*
X86636418Y-55326250D01*
X86727327Y-55508821D01*
X86727328Y-55508822D01*
X86727329Y-55508825D01*
X86850234Y-55671578D01*
X86850235Y-55671579D01*
X86899087Y-55716113D01*
X86922576Y-55760953D01*
X86911747Y-55810400D01*
X86871667Y-55841318D01*
X86849234Y-55844800D01*
X73444400Y-55844800D01*
X73396834Y-55827487D01*
X73371524Y-55783650D01*
X73380314Y-55733800D01*
X73392074Y-55718474D01*
X74368074Y-54742474D01*
X74413950Y-54721082D01*
X74420400Y-54720800D01*
X81973746Y-54720800D01*
X82021312Y-54738113D01*
X82046622Y-54781950D01*
X82045596Y-54812510D01*
X82044861Y-54815489D01*
X82025822Y-54972296D01*
X82025822Y-54972303D01*
X82044861Y-55129108D01*
X82044864Y-55129122D01*
X82100878Y-55276821D01*
X82165066Y-55369813D01*
X82190617Y-55406830D01*
X82308860Y-55511583D01*
X82448735Y-55584996D01*
X82602115Y-55622800D01*
X82602119Y-55622800D01*
X82760081Y-55622800D01*
X82760085Y-55622800D01*
X82913465Y-55584996D01*
X83053340Y-55511583D01*
X83171583Y-55406830D01*
X83261320Y-55276823D01*
X83317337Y-55129118D01*
X83325065Y-55065470D01*
X83336378Y-54972303D01*
X83336378Y-54972296D01*
X83317338Y-54815489D01*
X83317337Y-54815487D01*
X83317337Y-54815482D01*
X83317334Y-54815476D01*
X83316604Y-54812510D01*
X83322030Y-54762182D01*
X83358537Y-54727117D01*
X83388454Y-54720800D01*
X84385891Y-54720800D01*
X84385893Y-54720800D01*
X84412608Y-54712118D01*
X84423874Y-54709413D01*
X84451626Y-54705019D01*
X84476656Y-54692264D01*
X84487369Y-54687827D01*
X84514081Y-54679149D01*
X84536794Y-54662646D01*
X84546699Y-54656576D01*
X84551113Y-54654326D01*
X84571720Y-54643828D01*
X84667028Y-54548520D01*
X84990074Y-54225474D01*
X85035950Y-54204082D01*
X85042400Y-54203800D01*
X86685479Y-54203800D01*
X86733045Y-54221113D01*
G37*
G04 #@! TD.AperFunction*
G04 #@! TA.AperFunction,NonConductor*
G36*
X88384595Y-60928981D02*
G01*
X88403365Y-60975992D01*
X88403400Y-60978271D01*
X88403400Y-61575728D01*
X88386087Y-61623294D01*
X88342250Y-61648604D01*
X88292400Y-61639814D01*
X88290444Y-61638644D01*
X88265653Y-61623294D01*
X88159637Y-61557652D01*
X88109130Y-61538085D01*
X88038750Y-61510820D01*
X88000650Y-61477493D01*
X87992885Y-61427473D01*
X88013158Y-61389489D01*
X88015528Y-61387120D01*
X88076719Y-61267026D01*
X88092500Y-61167388D01*
X88097804Y-61133900D01*
X88093411Y-61106162D01*
X88092500Y-61094586D01*
X88092500Y-61073047D01*
X88109813Y-61025481D01*
X88139766Y-61004045D01*
X88159637Y-60996348D01*
X88290446Y-60915354D01*
X88339999Y-60905034D01*
X88384595Y-60928981D01*
G37*
G04 #@! TD.AperFunction*
G04 #@! TA.AperFunction,NonConductor*
G36*
X89362789Y-62875275D02*
G01*
X89501535Y-62948096D01*
X89654915Y-62985900D01*
X89752000Y-62985900D01*
X89799566Y-63003213D01*
X89804326Y-63007574D01*
X91383426Y-64586674D01*
X91404818Y-64632550D01*
X91405100Y-64639000D01*
X91405100Y-66203400D01*
X91387787Y-66250966D01*
X91343950Y-66276276D01*
X91294100Y-66267486D01*
X91278774Y-66255726D01*
X90280959Y-65257911D01*
X90259567Y-65212035D01*
X90259825Y-65196663D01*
X90261278Y-65184699D01*
X90261278Y-65184696D01*
X90242238Y-65027891D01*
X90242237Y-65027882D01*
X90220664Y-64970998D01*
X90186221Y-64880178D01*
X90096483Y-64750170D01*
X90026030Y-64687755D01*
X89978240Y-64645417D01*
X89950722Y-64630974D01*
X89838366Y-64572004D01*
X89684987Y-64534200D01*
X89684985Y-64534200D01*
X89527015Y-64534200D01*
X89527012Y-64534200D01*
X89373633Y-64572004D01*
X89362788Y-64577696D01*
X89312625Y-64584471D01*
X89269843Y-64557416D01*
X89254400Y-64512172D01*
X89254400Y-62940799D01*
X89271713Y-62893233D01*
X89315550Y-62867923D01*
X89362789Y-62875275D01*
G37*
G04 #@! TD.AperFunction*
G04 #@! TA.AperFunction,NonConductor*
G36*
X88384595Y-66008981D02*
G01*
X88403365Y-66055992D01*
X88403400Y-66058271D01*
X88403400Y-66655728D01*
X88386087Y-66703294D01*
X88342250Y-66728604D01*
X88292400Y-66719814D01*
X88290444Y-66718644D01*
X88265653Y-66703294D01*
X88159637Y-66637652D01*
X88109130Y-66618085D01*
X88038750Y-66590820D01*
X88000650Y-66557493D01*
X87992885Y-66507473D01*
X88013158Y-66469489D01*
X88015528Y-66467120D01*
X88076719Y-66347026D01*
X88089636Y-66265470D01*
X88097804Y-66213900D01*
X88093411Y-66186162D01*
X88092500Y-66174586D01*
X88092500Y-66153047D01*
X88109813Y-66105481D01*
X88139766Y-66084045D01*
X88159637Y-66076348D01*
X88290446Y-65995354D01*
X88339999Y-65985034D01*
X88384595Y-66008981D01*
G37*
G04 #@! TD.AperFunction*
G04 #@! TA.AperFunction,NonConductor*
G36*
X86550663Y-62704962D02*
G01*
X86579697Y-62746426D01*
X86580228Y-62748765D01*
X86622515Y-62897389D01*
X86636418Y-62946250D01*
X86727327Y-63128821D01*
X86727328Y-63128822D01*
X86727329Y-63128825D01*
X86850234Y-63291578D01*
X86850235Y-63291579D01*
X86971419Y-63402052D01*
X87000959Y-63428981D01*
X87174363Y-63536348D01*
X87364544Y-63610024D01*
X87565024Y-63647500D01*
X87565026Y-63647500D01*
X87768974Y-63647500D01*
X87768976Y-63647500D01*
X87969456Y-63610024D01*
X88159637Y-63536348D01*
X88290446Y-63455354D01*
X88339999Y-63445034D01*
X88384595Y-63468981D01*
X88403365Y-63515992D01*
X88403400Y-63518271D01*
X88403400Y-64115728D01*
X88386087Y-64163294D01*
X88342250Y-64188604D01*
X88292400Y-64179814D01*
X88290444Y-64178644D01*
X88265653Y-64163294D01*
X88159637Y-64097652D01*
X87969456Y-64023976D01*
X87881407Y-64007516D01*
X87768979Y-63986500D01*
X87768976Y-63986500D01*
X87565024Y-63986500D01*
X87565020Y-63986500D01*
X87415116Y-64014522D01*
X87364544Y-64023976D01*
X87364542Y-64023976D01*
X87364540Y-64023977D01*
X87174368Y-64097650D01*
X87174363Y-64097652D01*
X87174358Y-64097654D01*
X87174358Y-64097655D01*
X87000958Y-64205019D01*
X87000957Y-64205019D01*
X86850235Y-64342420D01*
X86850234Y-64342421D01*
X86727329Y-64505174D01*
X86727328Y-64505177D01*
X86636418Y-64687750D01*
X86636416Y-64687755D01*
X86580602Y-64883917D01*
X86580601Y-64883923D01*
X86561785Y-65086996D01*
X86561785Y-65087003D01*
X86580601Y-65290076D01*
X86580602Y-65290082D01*
X86634722Y-65480289D01*
X86636418Y-65486250D01*
X86727327Y-65668821D01*
X86727328Y-65668822D01*
X86727329Y-65668825D01*
X86850234Y-65831578D01*
X86850235Y-65831579D01*
X86982767Y-65952397D01*
X87006256Y-65997237D01*
X86995427Y-66046684D01*
X86985240Y-66059410D01*
X84537157Y-68507494D01*
X84491281Y-68528886D01*
X84442386Y-68515785D01*
X84413352Y-68474321D01*
X84415639Y-68428929D01*
X84439537Y-68365918D01*
X84452759Y-68257023D01*
X84458578Y-68209103D01*
X84458578Y-68209096D01*
X84439538Y-68052291D01*
X84439537Y-68052282D01*
X84401695Y-67952500D01*
X84383521Y-67904578D01*
X84342752Y-67845514D01*
X84293783Y-67774570D01*
X84289776Y-67771020D01*
X84253729Y-67739084D01*
X84229605Y-67694583D01*
X84228800Y-67683695D01*
X84228800Y-64970998D01*
X84246113Y-64923432D01*
X84250463Y-64918683D01*
X86455893Y-62713252D01*
X86501768Y-62691861D01*
X86550663Y-62704962D01*
G37*
G04 #@! TD.AperFunction*
G04 #@! TA.AperFunction,NonConductor*
G36*
X88384595Y-68548981D02*
G01*
X88403365Y-68595992D01*
X88403400Y-68598271D01*
X88403400Y-69195728D01*
X88386087Y-69243294D01*
X88342250Y-69268604D01*
X88292400Y-69259814D01*
X88290444Y-69258644D01*
X88265653Y-69243294D01*
X88159637Y-69177652D01*
X88109130Y-69158085D01*
X88038750Y-69130820D01*
X88000650Y-69097493D01*
X87992885Y-69047473D01*
X88013158Y-69009489D01*
X88015528Y-69007120D01*
X88076719Y-68887026D01*
X88092500Y-68787388D01*
X88097804Y-68753900D01*
X88093411Y-68726162D01*
X88092500Y-68714586D01*
X88092500Y-68693047D01*
X88109813Y-68645481D01*
X88139766Y-68624045D01*
X88159637Y-68616348D01*
X88290446Y-68535354D01*
X88339999Y-68525034D01*
X88384595Y-68548981D01*
G37*
G04 #@! TD.AperFunction*
G04 #@! TA.AperFunction,NonConductor*
G36*
X86550505Y-67784121D02*
G01*
X86579539Y-67825585D01*
X86580394Y-67829350D01*
X86610321Y-67934530D01*
X86636418Y-68026250D01*
X86727327Y-68208821D01*
X86727328Y-68208822D01*
X86727329Y-68208825D01*
X86850234Y-68371578D01*
X86850235Y-68371579D01*
X87000957Y-68508980D01*
X87003688Y-68511042D01*
X87002990Y-68511965D01*
X87031665Y-68548346D01*
X87030114Y-68598941D01*
X87013711Y-68623840D01*
X86258649Y-69378902D01*
X86212773Y-69400294D01*
X86163878Y-69387193D01*
X86134844Y-69345729D01*
X86137131Y-69300338D01*
X86153637Y-69256818D01*
X86168404Y-69135198D01*
X86172678Y-69100003D01*
X86172678Y-69099996D01*
X86153638Y-68943191D01*
X86153637Y-68943182D01*
X86110970Y-68830677D01*
X86097621Y-68795478D01*
X86007883Y-68665470D01*
X85985320Y-68645481D01*
X85889640Y-68560717D01*
X85846077Y-68537853D01*
X85812006Y-68500418D01*
X85809968Y-68449840D01*
X85828140Y-68420006D01*
X86455735Y-67792411D01*
X86501610Y-67771020D01*
X86550505Y-67784121D01*
G37*
G04 #@! TD.AperFunction*
G04 #@! TA.AperFunction,NonConductor*
G36*
X85006300Y-69517001D02*
G01*
X85024689Y-69532016D01*
X85026912Y-69534525D01*
X85026915Y-69534528D01*
X85026917Y-69534530D01*
X85145160Y-69639283D01*
X85285035Y-69712696D01*
X85438415Y-69750500D01*
X85438419Y-69750500D01*
X85596381Y-69750500D01*
X85596385Y-69750500D01*
X85724390Y-69718950D01*
X85774717Y-69724377D01*
X85809782Y-69760883D01*
X85813177Y-69811388D01*
X85794425Y-69843126D01*
X85250126Y-70387426D01*
X85204250Y-70408818D01*
X85197800Y-70409100D01*
X85100712Y-70409100D01*
X84987009Y-70437125D01*
X84936681Y-70431698D01*
X84901617Y-70395191D01*
X84895300Y-70365275D01*
X84895300Y-69581087D01*
X84912613Y-69533521D01*
X84956450Y-69508211D01*
X85006300Y-69517001D01*
G37*
G04 #@! TD.AperFunction*
G04 #@! TA.AperFunction,NonConductor*
G36*
X86562048Y-70365478D02*
G01*
X86590778Y-70405844D01*
X86617929Y-70501271D01*
X86636418Y-70566250D01*
X86727327Y-70748821D01*
X86727328Y-70748822D01*
X86727329Y-70748824D01*
X86841975Y-70900640D01*
X86856825Y-70949032D01*
X86837094Y-70995647D01*
X86792016Y-71018674D01*
X86748532Y-71010759D01*
X86647065Y-70957504D01*
X86647062Y-70957503D01*
X86493687Y-70919700D01*
X86493685Y-70919700D01*
X86335715Y-70919700D01*
X86335712Y-70919700D01*
X86182333Y-70957504D01*
X86042460Y-71030916D01*
X86042457Y-71030918D01*
X85957520Y-71106165D01*
X85910436Y-71124748D01*
X85862422Y-71108718D01*
X85835945Y-71065576D01*
X85834990Y-71059697D01*
X85833729Y-71049313D01*
X85833525Y-71047634D01*
X85844976Y-70998328D01*
X85854654Y-70986392D01*
X86467278Y-70373768D01*
X86513153Y-70352377D01*
X86562048Y-70365478D01*
G37*
G04 #@! TD.AperFunction*
G04 #@! TA.AperFunction,NonConductor*
G36*
X88871380Y-57599827D02*
G01*
X88880953Y-57607901D01*
X89679626Y-58406574D01*
X89701018Y-58452450D01*
X89701300Y-58458900D01*
X89701300Y-59048693D01*
X89709977Y-59075397D01*
X89712688Y-59086689D01*
X89717080Y-59114424D01*
X89717080Y-59114425D01*
X89717081Y-59114426D01*
X89722478Y-59125019D01*
X89729830Y-59139446D01*
X89734272Y-59150171D01*
X89737400Y-59159796D01*
X89742951Y-59176882D01*
X89759455Y-59199597D01*
X89765523Y-59209498D01*
X89778272Y-59234520D01*
X102253834Y-71710082D01*
X102275226Y-71755958D01*
X102262125Y-71804853D01*
X102243396Y-71822559D01*
X102243694Y-71822953D01*
X102240963Y-71825015D01*
X102090235Y-71962420D01*
X102090234Y-71962421D01*
X101967329Y-72125174D01*
X101967328Y-72125177D01*
X101876418Y-72307750D01*
X101876416Y-72307755D01*
X101820602Y-72503917D01*
X101820601Y-72503923D01*
X101810050Y-72617794D01*
X101788423Y-72663560D01*
X101742437Y-72684717D01*
X101693611Y-72671365D01*
X101684040Y-72663292D01*
X90343300Y-61322552D01*
X90322166Y-61279147D01*
X90314837Y-61218782D01*
X90314836Y-61218780D01*
X90314836Y-61218778D01*
X90258820Y-61071077D01*
X90169083Y-60941070D01*
X90110286Y-60888981D01*
X90050840Y-60836317D01*
X90007319Y-60813475D01*
X89910966Y-60762904D01*
X89757587Y-60725100D01*
X89757585Y-60725100D01*
X89599615Y-60725100D01*
X89599612Y-60725100D01*
X89446237Y-60762903D01*
X89446235Y-60762903D01*
X89446235Y-60762904D01*
X89413466Y-60780103D01*
X89362790Y-60806700D01*
X89312626Y-60813475D01*
X89269843Y-60786421D01*
X89254400Y-60741176D01*
X89254400Y-59406707D01*
X89249956Y-59393030D01*
X89245718Y-59379989D01*
X89243010Y-59368703D01*
X89238970Y-59343191D01*
X89238619Y-59340974D01*
X89234818Y-59333515D01*
X89225871Y-59315955D01*
X89221426Y-59305224D01*
X89213912Y-59282096D01*
X89212750Y-59278519D01*
X89211225Y-59276420D01*
X89196240Y-59255794D01*
X89190177Y-59245902D01*
X89177428Y-59220880D01*
X89082120Y-59125572D01*
X88373450Y-58416902D01*
X88352058Y-58371026D01*
X88365159Y-58322131D01*
X88375923Y-58309889D01*
X88483764Y-58211579D01*
X88483765Y-58211578D01*
X88606670Y-58048825D01*
X88606670Y-58048824D01*
X88606673Y-58048821D01*
X88697582Y-57866250D01*
X88753397Y-57670083D01*
X88754942Y-57653399D01*
X88776569Y-57607635D01*
X88822554Y-57586477D01*
X88871380Y-57599827D01*
G37*
G04 #@! TD.AperFunction*
G04 #@! TA.AperFunction,NonConductor*
G36*
X102028900Y-73380069D02*
G01*
X102050951Y-73399557D01*
X102090236Y-73451579D01*
X102240959Y-73588981D01*
X102414363Y-73696348D01*
X102604544Y-73770024D01*
X102805024Y-73807500D01*
X102805026Y-73807500D01*
X103008974Y-73807500D01*
X103008976Y-73807500D01*
X103209456Y-73770024D01*
X103399637Y-73696348D01*
X103495844Y-73636778D01*
X103545400Y-73626458D01*
X103589996Y-73650406D01*
X103608765Y-73697416D01*
X103608800Y-73699695D01*
X103608800Y-74254304D01*
X103591487Y-74301870D01*
X103547650Y-74327180D01*
X103497800Y-74318390D01*
X103495844Y-74317220D01*
X103414933Y-74267123D01*
X103399637Y-74257652D01*
X103209456Y-74183976D01*
X103121407Y-74167516D01*
X103008979Y-74146500D01*
X103008976Y-74146500D01*
X102805024Y-74146500D01*
X102805020Y-74146500D01*
X102656306Y-74174300D01*
X102604544Y-74183976D01*
X102604542Y-74183976D01*
X102604540Y-74183977D01*
X102423643Y-74254057D01*
X102414363Y-74257652D01*
X102414358Y-74257654D01*
X102414358Y-74257655D01*
X102240958Y-74365019D01*
X102240957Y-74365019D01*
X102090235Y-74502420D01*
X102090234Y-74502421D01*
X102050953Y-74554439D01*
X102008472Y-74581964D01*
X101958237Y-74575744D01*
X101923753Y-74538688D01*
X101917900Y-74509844D01*
X101917900Y-73444155D01*
X101935213Y-73396589D01*
X101979050Y-73371279D01*
X102028900Y-73380069D01*
G37*
G04 #@! TD.AperFunction*
G04 #@! TA.AperFunction,NonConductor*
G36*
X102028900Y-75920069D02*
G01*
X102050951Y-75939557D01*
X102090236Y-75991579D01*
X102240959Y-76128981D01*
X102414363Y-76236348D01*
X102535249Y-76283179D01*
X102573349Y-76316505D01*
X102581114Y-76366525D01*
X102560847Y-76404504D01*
X102558472Y-76406878D01*
X102497280Y-76526976D01*
X102476196Y-76660099D01*
X102480589Y-76687836D01*
X102481500Y-76699412D01*
X102481500Y-76720951D01*
X102464187Y-76768517D01*
X102434234Y-76789953D01*
X102414371Y-76797648D01*
X102414365Y-76797651D01*
X102414363Y-76797652D01*
X102414359Y-76797654D01*
X102414358Y-76797655D01*
X102240958Y-76905019D01*
X102240957Y-76905019D01*
X102090235Y-77042420D01*
X102090234Y-77042421D01*
X102050953Y-77094439D01*
X102008472Y-77121964D01*
X101958237Y-77115744D01*
X101923753Y-77078688D01*
X101917900Y-77049844D01*
X101917900Y-75984155D01*
X101935213Y-75936589D01*
X101979050Y-75911279D01*
X102028900Y-75920069D01*
G37*
G04 #@! TD.AperFunction*
G04 #@! TA.AperFunction,NonConductor*
G36*
X85731976Y-71521080D02*
G01*
X85758454Y-71564222D01*
X85759409Y-71570104D01*
X85778461Y-71727008D01*
X85778464Y-71727022D01*
X85834478Y-71874721D01*
X85923920Y-72004300D01*
X85924217Y-72004730D01*
X86042460Y-72109483D01*
X86182335Y-72182896D01*
X86335715Y-72220700D01*
X86335719Y-72220700D01*
X86493681Y-72220700D01*
X86493685Y-72220700D01*
X86550680Y-72206652D01*
X86601007Y-72212079D01*
X86636072Y-72248585D01*
X86639467Y-72299090D01*
X86637394Y-72305228D01*
X86636418Y-72307745D01*
X86580602Y-72503917D01*
X86580601Y-72503923D01*
X86561785Y-72706996D01*
X86561785Y-72707003D01*
X86580601Y-72910076D01*
X86580602Y-72910082D01*
X86636416Y-73106244D01*
X86636418Y-73106250D01*
X86727327Y-73288821D01*
X86727328Y-73288822D01*
X86727329Y-73288825D01*
X86850234Y-73451578D01*
X86850235Y-73451579D01*
X86965600Y-73556747D01*
X87000959Y-73588981D01*
X87174363Y-73696348D01*
X87364544Y-73770024D01*
X87565024Y-73807500D01*
X87565026Y-73807500D01*
X87768974Y-73807500D01*
X87768976Y-73807500D01*
X87969456Y-73770024D01*
X88159637Y-73696348D01*
X88255446Y-73637025D01*
X88304999Y-73626705D01*
X88349595Y-73650652D01*
X88368365Y-73697663D01*
X88368400Y-73699942D01*
X88368400Y-74254057D01*
X88351087Y-74301623D01*
X88307250Y-74326933D01*
X88257400Y-74318143D01*
X88255444Y-74316973D01*
X88230653Y-74301623D01*
X88159637Y-74257652D01*
X87969456Y-74183976D01*
X87881407Y-74167516D01*
X87768979Y-74146500D01*
X87768976Y-74146500D01*
X87565024Y-74146500D01*
X87565020Y-74146500D01*
X87416306Y-74174300D01*
X87364544Y-74183976D01*
X87364542Y-74183976D01*
X87364540Y-74183977D01*
X87183643Y-74254057D01*
X87174363Y-74257652D01*
X87174358Y-74257654D01*
X87174358Y-74257655D01*
X87000958Y-74365019D01*
X87000957Y-74365019D01*
X86850235Y-74502420D01*
X86850234Y-74502421D01*
X86727329Y-74665174D01*
X86727328Y-74665177D01*
X86636418Y-74847750D01*
X86636416Y-74847755D01*
X86580602Y-75043917D01*
X86580601Y-75043923D01*
X86561785Y-75246996D01*
X86561785Y-75247003D01*
X86580601Y-75450076D01*
X86580602Y-75450082D01*
X86636416Y-75646244D01*
X86636418Y-75646250D01*
X86727327Y-75828821D01*
X86727328Y-75828822D01*
X86727329Y-75828825D01*
X86850234Y-75991578D01*
X86850235Y-75991579D01*
X86960057Y-76091694D01*
X87000959Y-76128981D01*
X87174363Y-76236348D01*
X87364544Y-76310024D01*
X87565024Y-76347500D01*
X87565026Y-76347500D01*
X87768974Y-76347500D01*
X87768976Y-76347500D01*
X87969456Y-76310024D01*
X88159637Y-76236348D01*
X88255446Y-76177025D01*
X88304999Y-76166705D01*
X88349595Y-76190652D01*
X88368365Y-76237663D01*
X88368400Y-76239942D01*
X88368400Y-76794057D01*
X88351087Y-76841623D01*
X88307250Y-76866933D01*
X88257400Y-76858143D01*
X88255444Y-76856973D01*
X88223343Y-76837097D01*
X88159637Y-76797652D01*
X87969456Y-76723976D01*
X87881407Y-76707516D01*
X87768979Y-76686500D01*
X87768976Y-76686500D01*
X87565024Y-76686500D01*
X87565020Y-76686500D01*
X87415116Y-76714522D01*
X87364544Y-76723976D01*
X87364542Y-76723976D01*
X87364540Y-76723977D01*
X87183643Y-76794057D01*
X87174363Y-76797652D01*
X87174358Y-76797654D01*
X87174358Y-76797655D01*
X87000958Y-76905019D01*
X87000957Y-76905019D01*
X86850235Y-77042420D01*
X86850234Y-77042421D01*
X86727328Y-77205176D01*
X86727325Y-77205181D01*
X86717555Y-77224801D01*
X86680853Y-77259663D01*
X86630330Y-77262777D01*
X86598988Y-77244140D01*
X86066320Y-76711472D01*
X86041298Y-76698723D01*
X86031397Y-76692655D01*
X86008682Y-76676151D01*
X85994239Y-76671458D01*
X85981971Y-76667472D01*
X85971251Y-76663032D01*
X85946226Y-76650281D01*
X85946225Y-76650280D01*
X85946224Y-76650280D01*
X85918489Y-76645888D01*
X85907197Y-76643177D01*
X85880494Y-76634500D01*
X85880493Y-76634500D01*
X85846588Y-76634500D01*
X85639340Y-76634500D01*
X85591774Y-76617187D01*
X85590269Y-76615890D01*
X85482840Y-76520717D01*
X85470739Y-76514366D01*
X85342966Y-76447304D01*
X85189587Y-76409500D01*
X85189585Y-76409500D01*
X85031615Y-76409500D01*
X85031612Y-76409500D01*
X84878233Y-76447304D01*
X84738362Y-76520715D01*
X84738360Y-76520717D01*
X84728168Y-76529745D01*
X84681086Y-76548327D01*
X84633072Y-76532297D01*
X84606595Y-76489155D01*
X84605100Y-76474354D01*
X84605100Y-75501806D01*
X84596421Y-75475098D01*
X84593710Y-75463803D01*
X84589319Y-75436074D01*
X84589318Y-75436073D01*
X84589138Y-75435720D01*
X84576570Y-75411053D01*
X84572126Y-75400323D01*
X84563450Y-75373621D01*
X84563449Y-75373619D01*
X84546938Y-75350893D01*
X84540879Y-75341006D01*
X84528128Y-75315980D01*
X84432820Y-75220672D01*
X84240074Y-75027926D01*
X84218682Y-74982050D01*
X84218400Y-74975600D01*
X84218400Y-72668957D01*
X84235713Y-72621391D01*
X84279550Y-72596081D01*
X84310103Y-72597106D01*
X84390815Y-72617000D01*
X84390819Y-72617000D01*
X84548781Y-72617000D01*
X84548785Y-72617000D01*
X84702165Y-72579196D01*
X84842040Y-72505783D01*
X84960283Y-72401030D01*
X85050020Y-72271023D01*
X85106037Y-72123318D01*
X85117445Y-72029367D01*
X85125078Y-71966503D01*
X85125078Y-71966496D01*
X85106037Y-71809679D01*
X85104966Y-71805333D01*
X85106217Y-71805024D01*
X85105605Y-71759733D01*
X85137615Y-71720520D01*
X85175478Y-71710100D01*
X85258681Y-71710100D01*
X85258685Y-71710100D01*
X85412065Y-71672296D01*
X85551940Y-71598883D01*
X85636880Y-71523632D01*
X85683962Y-71505051D01*
X85731976Y-71521080D01*
G37*
G04 #@! TD.AperFunction*
G04 #@! TA.AperFunction,NonConductor*
G36*
X92367100Y-64553414D02*
G01*
X92382426Y-64565174D01*
X101045226Y-73227974D01*
X101066618Y-73273850D01*
X101066900Y-73280300D01*
X101066900Y-78086393D01*
X101075577Y-78113097D01*
X101078288Y-78124389D01*
X101082680Y-78152124D01*
X101082680Y-78152125D01*
X101082681Y-78152126D01*
X101092220Y-78170848D01*
X101095430Y-78177146D01*
X101099874Y-78187875D01*
X101108551Y-78214582D01*
X101125055Y-78237297D01*
X101131122Y-78247196D01*
X101143872Y-78272220D01*
X102225764Y-79354112D01*
X102247156Y-79399988D01*
X102234055Y-79448883D01*
X102223291Y-79461125D01*
X102090235Y-79582420D01*
X102090234Y-79582421D01*
X101967329Y-79745174D01*
X101967328Y-79745177D01*
X101876418Y-79927750D01*
X101876416Y-79927755D01*
X101819667Y-80127207D01*
X101818154Y-80126776D01*
X101795173Y-80165613D01*
X101747424Y-80182414D01*
X101700046Y-80164592D01*
X101695892Y-80160744D01*
X92277774Y-70742626D01*
X92256382Y-70696750D01*
X92256100Y-70690300D01*
X92256100Y-64617500D01*
X92273413Y-64569934D01*
X92317250Y-64544624D01*
X92367100Y-64553414D01*
G37*
G04 #@! TD.AperFunction*
G04 #@! TA.AperFunction,NonConductor*
G36*
X91889300Y-71561214D02*
G01*
X91904626Y-71572974D01*
X102225764Y-81894112D01*
X102247156Y-81939988D01*
X102234055Y-81988883D01*
X102223291Y-82001125D01*
X102090235Y-82122420D01*
X102090234Y-82122421D01*
X101967329Y-82285174D01*
X101967328Y-82285177D01*
X101876418Y-82467750D01*
X101876416Y-82467755D01*
X101819667Y-82667207D01*
X101818154Y-82666776D01*
X101795173Y-82705613D01*
X101747424Y-82722414D01*
X101700046Y-82704592D01*
X101695892Y-82700744D01*
X91799974Y-72804826D01*
X91778582Y-72758950D01*
X91778300Y-72752500D01*
X91778300Y-71625300D01*
X91795613Y-71577734D01*
X91839450Y-71552424D01*
X91889300Y-71561214D01*
G37*
G04 #@! TD.AperFunction*
G04 #@! TA.AperFunction,NonConductor*
G36*
X91027000Y-73238914D02*
G01*
X91042326Y-73250674D01*
X102225764Y-84434112D01*
X102247156Y-84479988D01*
X102234055Y-84528883D01*
X102223291Y-84541125D01*
X102090235Y-84662420D01*
X102090234Y-84662421D01*
X101967329Y-84825174D01*
X101967328Y-84825177D01*
X101876418Y-85007750D01*
X101876416Y-85007755D01*
X101819667Y-85207207D01*
X101818154Y-85206776D01*
X101795173Y-85245613D01*
X101747424Y-85262414D01*
X101700046Y-85244592D01*
X101695892Y-85240744D01*
X90937674Y-74482526D01*
X90916282Y-74436650D01*
X90916000Y-74430200D01*
X90916000Y-73303000D01*
X90933313Y-73255434D01*
X90977150Y-73230124D01*
X91027000Y-73238914D01*
G37*
G04 #@! TD.AperFunction*
M02*
