M48
; DRILL file {KiCad 8.0.0} date 2024-03-01T08:40:44-0500
; FORMAT={-:-/ absolute / metric / decimal}
; #@! TF.CreationDate,2024-03-01T08:40:44-05:00
; #@! TF.GenerationSoftware,Kicad,Pcbnew,8.0.0
; #@! TF.FileFunction,Plated,1,4,PTH
FMAT,2
METRIC
; #@! TA.AperFunction,Plated,PTH,ViaDrill
T1C0.300
; #@! TA.AperFunction,Plated,PTH,ComponentDrill
T2C0.800
; #@! TA.AperFunction,Plated,PTH,ComponentDrill
T3C1.000
%
G90
G05
T1
X65.0Y-60.25
X65.0Y-62.5
X65.0Y-80.5
X65.0Y-82.5
X67.637Y-65.9
X67.757Y-85.9
X70.544Y-75.101
X71.367Y-71.56
X72.137Y-62.7
X72.139Y-61.451
X72.163Y-57.98
X72.273Y-71.032
X72.278Y-59.5
X72.796Y-57.319
X73.189Y-70.184
X73.308Y-68.06
X73.539Y-62.762
X73.694Y-81.306
X73.733Y-57.279
X73.946Y-56.208
X74.276Y-68.772
X74.582Y-67.043
X74.832Y-72.593
X74.933Y-56.214
X75.255Y-77.527
X75.579Y-54.287
X76.171Y-85.216
X77.091Y-85.178
X77.549Y-75.952
X78.021Y-74.893
X78.75Y-56.25
X78.75Y-76.25
X78.849Y-88.884
X78.905Y-53.159
X78.911Y-77.89
X78.913Y-85.213
X78.925Y-63.5
X78.934Y-89.808
X81.582Y-74.401
X81.595Y-60.249
X81.627Y-52.683
X81.739Y-59.345
X82.18Y-73.723
X82.415Y-75.247
X82.678Y-65.772
X82.737Y-73.004
X83.497Y-66.591
X83.725Y-68.452
X84.218Y-67.671
X84.5Y-60.0
X84.5Y-62.25
X84.5Y-80.25
X84.5Y-82.25
X100.634Y-84.72
T2
X87.667Y-52.387
X87.667Y-54.927
X87.667Y-57.467
X87.667Y-60.007
X87.667Y-62.547
X87.667Y-65.087
X87.667Y-67.627
X87.667Y-70.167
X87.667Y-72.707
X87.667Y-75.247
X87.667Y-77.787
X87.667Y-80.327
X87.667Y-82.867
X87.667Y-85.407
X87.667Y-87.947
X87.667Y-90.487
X102.907Y-52.387
X102.907Y-54.927
X102.907Y-57.467
X102.907Y-60.007
X102.907Y-62.547
X102.907Y-65.087
X102.907Y-67.627
X102.907Y-70.167
X102.907Y-72.707
X102.907Y-75.247
X102.907Y-77.787
X102.907Y-80.327
X102.907Y-82.867
X102.907Y-85.407
X102.907Y-87.947
X102.907Y-90.487
X111.867Y-52.387
X111.867Y-54.927
X111.867Y-57.467
X111.867Y-60.007
X111.867Y-62.547
X111.867Y-65.087
X111.867Y-67.627
X111.867Y-70.167
X111.867Y-72.707
X111.867Y-75.247
X111.867Y-77.787
X111.867Y-80.327
X111.867Y-82.867
X111.867Y-85.407
X111.867Y-87.947
X111.867Y-90.487
X127.107Y-52.387
X127.107Y-54.927
X127.107Y-57.467
X127.107Y-60.007
X127.107Y-62.547
X127.107Y-65.087
X127.107Y-67.627
X127.107Y-70.167
X127.107Y-72.707
X127.107Y-75.247
X127.107Y-77.787
X127.107Y-80.327
X127.107Y-82.867
X127.107Y-85.407
X127.107Y-87.947
X127.107Y-90.487
T3
X58.638Y-52.55
X58.638Y-55.09
X58.638Y-57.63
X58.638Y-60.17
X58.638Y-62.71
M30
